%TF.GenerationSoftware,KiCad,Pcbnew,9.0.7*%
%TF.CreationDate,2026-03-19T09:09:59+01:00*%
%TF.ProjectId,MPC_Servo,4d50435f-5365-4727-966f-2e6b69636164,rev?*%
%TF.SameCoordinates,Original*%
%TF.FileFunction,Legend,Top*%
%TF.FilePolarity,Positive*%
%FSLAX46Y46*%
G04 Gerber Fmt 4.6, Leading zero omitted, Abs format (unit mm)*
G04 Created by KiCad (PCBNEW 9.0.7) date 2026-03-19 09:09:59*
%MOMM*%
%LPD*%
G01*
G04 APERTURE LIST*
%ADD10C,0.152400*%
%ADD11C,0.150000*%
%ADD12C,0.120000*%
G04 APERTURE END LIST*
D10*
X122118508Y-66280460D02*
X122079803Y-66357870D01*
X122079803Y-66357870D02*
X122079803Y-66473984D01*
X122079803Y-66473984D02*
X122118508Y-66590098D01*
X122118508Y-66590098D02*
X122195918Y-66667508D01*
X122195918Y-66667508D02*
X122273327Y-66706213D01*
X122273327Y-66706213D02*
X122428146Y-66744917D01*
X122428146Y-66744917D02*
X122544260Y-66744917D01*
X122544260Y-66744917D02*
X122699079Y-66706213D01*
X122699079Y-66706213D02*
X122776489Y-66667508D01*
X122776489Y-66667508D02*
X122853899Y-66590098D01*
X122853899Y-66590098D02*
X122892603Y-66473984D01*
X122892603Y-66473984D02*
X122892603Y-66396575D01*
X122892603Y-66396575D02*
X122853899Y-66280460D01*
X122853899Y-66280460D02*
X122815194Y-66241756D01*
X122815194Y-66241756D02*
X122544260Y-66241756D01*
X122544260Y-66241756D02*
X122544260Y-66396575D01*
X122892603Y-65893413D02*
X122079803Y-65893413D01*
X122079803Y-65893413D02*
X122892603Y-65428956D01*
X122892603Y-65428956D02*
X122079803Y-65428956D01*
X122892603Y-65041908D02*
X122079803Y-65041908D01*
X122079803Y-65041908D02*
X122079803Y-64848384D01*
X122079803Y-64848384D02*
X122118508Y-64732270D01*
X122118508Y-64732270D02*
X122195918Y-64654860D01*
X122195918Y-64654860D02*
X122273327Y-64616155D01*
X122273327Y-64616155D02*
X122428146Y-64577451D01*
X122428146Y-64577451D02*
X122544260Y-64577451D01*
X122544260Y-64577451D02*
X122699079Y-64616155D01*
X122699079Y-64616155D02*
X122776489Y-64654860D01*
X122776489Y-64654860D02*
X122853899Y-64732270D01*
X122853899Y-64732270D02*
X122892603Y-64848384D01*
X122892603Y-64848384D02*
X122892603Y-65041908D01*
X153719539Y-57618508D02*
X153642129Y-57579803D01*
X153642129Y-57579803D02*
X153526015Y-57579803D01*
X153526015Y-57579803D02*
X153409901Y-57618508D01*
X153409901Y-57618508D02*
X153332491Y-57695918D01*
X153332491Y-57695918D02*
X153293786Y-57773327D01*
X153293786Y-57773327D02*
X153255082Y-57928146D01*
X153255082Y-57928146D02*
X153255082Y-58044260D01*
X153255082Y-58044260D02*
X153293786Y-58199079D01*
X153293786Y-58199079D02*
X153332491Y-58276489D01*
X153332491Y-58276489D02*
X153409901Y-58353899D01*
X153409901Y-58353899D02*
X153526015Y-58392603D01*
X153526015Y-58392603D02*
X153603424Y-58392603D01*
X153603424Y-58392603D02*
X153719539Y-58353899D01*
X153719539Y-58353899D02*
X153758243Y-58315194D01*
X153758243Y-58315194D02*
X153758243Y-58044260D01*
X153758243Y-58044260D02*
X153603424Y-58044260D01*
X154106586Y-58392603D02*
X154106586Y-57579803D01*
X154106586Y-57579803D02*
X154571043Y-58392603D01*
X154571043Y-58392603D02*
X154571043Y-57579803D01*
X154958091Y-58392603D02*
X154958091Y-57579803D01*
X154958091Y-57579803D02*
X155151615Y-57579803D01*
X155151615Y-57579803D02*
X155267729Y-57618508D01*
X155267729Y-57618508D02*
X155345139Y-57695918D01*
X155345139Y-57695918D02*
X155383844Y-57773327D01*
X155383844Y-57773327D02*
X155422548Y-57928146D01*
X155422548Y-57928146D02*
X155422548Y-58044260D01*
X155422548Y-58044260D02*
X155383844Y-58199079D01*
X155383844Y-58199079D02*
X155345139Y-58276489D01*
X155345139Y-58276489D02*
X155267729Y-58353899D01*
X155267729Y-58353899D02*
X155151615Y-58392603D01*
X155151615Y-58392603D02*
X154958091Y-58392603D01*
X140618508Y-49900460D02*
X140579803Y-49977870D01*
X140579803Y-49977870D02*
X140579803Y-50093984D01*
X140579803Y-50093984D02*
X140618508Y-50210098D01*
X140618508Y-50210098D02*
X140695918Y-50287508D01*
X140695918Y-50287508D02*
X140773327Y-50326213D01*
X140773327Y-50326213D02*
X140928146Y-50364917D01*
X140928146Y-50364917D02*
X141044260Y-50364917D01*
X141044260Y-50364917D02*
X141199079Y-50326213D01*
X141199079Y-50326213D02*
X141276489Y-50287508D01*
X141276489Y-50287508D02*
X141353899Y-50210098D01*
X141353899Y-50210098D02*
X141392603Y-50093984D01*
X141392603Y-50093984D02*
X141392603Y-50016575D01*
X141392603Y-50016575D02*
X141353899Y-49900460D01*
X141353899Y-49900460D02*
X141315194Y-49861756D01*
X141315194Y-49861756D02*
X141044260Y-49861756D01*
X141044260Y-49861756D02*
X141044260Y-50016575D01*
X141392603Y-49513413D02*
X140579803Y-49513413D01*
X140579803Y-49513413D02*
X141392603Y-49048956D01*
X141392603Y-49048956D02*
X140579803Y-49048956D01*
X141392603Y-48661908D02*
X140579803Y-48661908D01*
X140579803Y-48661908D02*
X140579803Y-48468384D01*
X140579803Y-48468384D02*
X140618508Y-48352270D01*
X140618508Y-48352270D02*
X140695918Y-48274860D01*
X140695918Y-48274860D02*
X140773327Y-48236155D01*
X140773327Y-48236155D02*
X140928146Y-48197451D01*
X140928146Y-48197451D02*
X141044260Y-48197451D01*
X141044260Y-48197451D02*
X141199079Y-48236155D01*
X141199079Y-48236155D02*
X141276489Y-48274860D01*
X141276489Y-48274860D02*
X141353899Y-48352270D01*
X141353899Y-48352270D02*
X141392603Y-48468384D01*
X141392603Y-48468384D02*
X141392603Y-48661908D01*
X130177672Y-46379803D02*
X130448605Y-47192603D01*
X130448605Y-47192603D02*
X130719539Y-46379803D01*
X131454929Y-47115194D02*
X131416225Y-47153899D01*
X131416225Y-47153899D02*
X131300110Y-47192603D01*
X131300110Y-47192603D02*
X131222701Y-47192603D01*
X131222701Y-47192603D02*
X131106587Y-47153899D01*
X131106587Y-47153899D02*
X131029177Y-47076489D01*
X131029177Y-47076489D02*
X130990472Y-46999079D01*
X130990472Y-46999079D02*
X130951768Y-46844260D01*
X130951768Y-46844260D02*
X130951768Y-46728146D01*
X130951768Y-46728146D02*
X130990472Y-46573327D01*
X130990472Y-46573327D02*
X131029177Y-46495918D01*
X131029177Y-46495918D02*
X131106587Y-46418508D01*
X131106587Y-46418508D02*
X131222701Y-46379803D01*
X131222701Y-46379803D02*
X131300110Y-46379803D01*
X131300110Y-46379803D02*
X131416225Y-46418508D01*
X131416225Y-46418508D02*
X131454929Y-46457213D01*
X132267729Y-47115194D02*
X132229025Y-47153899D01*
X132229025Y-47153899D02*
X132112910Y-47192603D01*
X132112910Y-47192603D02*
X132035501Y-47192603D01*
X132035501Y-47192603D02*
X131919387Y-47153899D01*
X131919387Y-47153899D02*
X131841977Y-47076489D01*
X131841977Y-47076489D02*
X131803272Y-46999079D01*
X131803272Y-46999079D02*
X131764568Y-46844260D01*
X131764568Y-46844260D02*
X131764568Y-46728146D01*
X131764568Y-46728146D02*
X131803272Y-46573327D01*
X131803272Y-46573327D02*
X131841977Y-46495918D01*
X131841977Y-46495918D02*
X131919387Y-46418508D01*
X131919387Y-46418508D02*
X132035501Y-46379803D01*
X132035501Y-46379803D02*
X132112910Y-46379803D01*
X132112910Y-46379803D02*
X132229025Y-46418508D01*
X132229025Y-46418508D02*
X132267729Y-46457213D01*
X132616072Y-46882965D02*
X133235349Y-46882965D01*
X133622396Y-47192603D02*
X133622396Y-46379803D01*
X134009444Y-47192603D02*
X134009444Y-46379803D01*
X134009444Y-46379803D02*
X134473901Y-47192603D01*
X134473901Y-47192603D02*
X134473901Y-46379803D01*
X122079803Y-58822327D02*
X122892603Y-58551394D01*
X122892603Y-58551394D02*
X122079803Y-58280460D01*
X122815194Y-57545070D02*
X122853899Y-57583774D01*
X122853899Y-57583774D02*
X122892603Y-57699889D01*
X122892603Y-57699889D02*
X122892603Y-57777298D01*
X122892603Y-57777298D02*
X122853899Y-57893412D01*
X122853899Y-57893412D02*
X122776489Y-57970822D01*
X122776489Y-57970822D02*
X122699079Y-58009527D01*
X122699079Y-58009527D02*
X122544260Y-58048231D01*
X122544260Y-58048231D02*
X122428146Y-58048231D01*
X122428146Y-58048231D02*
X122273327Y-58009527D01*
X122273327Y-58009527D02*
X122195918Y-57970822D01*
X122195918Y-57970822D02*
X122118508Y-57893412D01*
X122118508Y-57893412D02*
X122079803Y-57777298D01*
X122079803Y-57777298D02*
X122079803Y-57699889D01*
X122079803Y-57699889D02*
X122118508Y-57583774D01*
X122118508Y-57583774D02*
X122157213Y-57545070D01*
X122815194Y-56732270D02*
X122853899Y-56770974D01*
X122853899Y-56770974D02*
X122892603Y-56887089D01*
X122892603Y-56887089D02*
X122892603Y-56964498D01*
X122892603Y-56964498D02*
X122853899Y-57080612D01*
X122853899Y-57080612D02*
X122776489Y-57158022D01*
X122776489Y-57158022D02*
X122699079Y-57196727D01*
X122699079Y-57196727D02*
X122544260Y-57235431D01*
X122544260Y-57235431D02*
X122428146Y-57235431D01*
X122428146Y-57235431D02*
X122273327Y-57196727D01*
X122273327Y-57196727D02*
X122195918Y-57158022D01*
X122195918Y-57158022D02*
X122118508Y-57080612D01*
X122118508Y-57080612D02*
X122079803Y-56964498D01*
X122079803Y-56964498D02*
X122079803Y-56887089D01*
X122079803Y-56887089D02*
X122118508Y-56770974D01*
X122118508Y-56770974D02*
X122157213Y-56732270D01*
X135219539Y-74118508D02*
X135142129Y-74079803D01*
X135142129Y-74079803D02*
X135026015Y-74079803D01*
X135026015Y-74079803D02*
X134909901Y-74118508D01*
X134909901Y-74118508D02*
X134832491Y-74195918D01*
X134832491Y-74195918D02*
X134793786Y-74273327D01*
X134793786Y-74273327D02*
X134755082Y-74428146D01*
X134755082Y-74428146D02*
X134755082Y-74544260D01*
X134755082Y-74544260D02*
X134793786Y-74699079D01*
X134793786Y-74699079D02*
X134832491Y-74776489D01*
X134832491Y-74776489D02*
X134909901Y-74853899D01*
X134909901Y-74853899D02*
X135026015Y-74892603D01*
X135026015Y-74892603D02*
X135103424Y-74892603D01*
X135103424Y-74892603D02*
X135219539Y-74853899D01*
X135219539Y-74853899D02*
X135258243Y-74815194D01*
X135258243Y-74815194D02*
X135258243Y-74544260D01*
X135258243Y-74544260D02*
X135103424Y-74544260D01*
X135606586Y-74892603D02*
X135606586Y-74079803D01*
X135606586Y-74079803D02*
X136071043Y-74892603D01*
X136071043Y-74892603D02*
X136071043Y-74079803D01*
X136458091Y-74892603D02*
X136458091Y-74079803D01*
X136458091Y-74079803D02*
X136651615Y-74079803D01*
X136651615Y-74079803D02*
X136767729Y-74118508D01*
X136767729Y-74118508D02*
X136845139Y-74195918D01*
X136845139Y-74195918D02*
X136883844Y-74273327D01*
X136883844Y-74273327D02*
X136922548Y-74428146D01*
X136922548Y-74428146D02*
X136922548Y-74544260D01*
X136922548Y-74544260D02*
X136883844Y-74699079D01*
X136883844Y-74699079D02*
X136845139Y-74776489D01*
X136845139Y-74776489D02*
X136767729Y-74853899D01*
X136767729Y-74853899D02*
X136651615Y-74892603D01*
X136651615Y-74892603D02*
X136458091Y-74892603D01*
X122118508Y-54780460D02*
X122079803Y-54857870D01*
X122079803Y-54857870D02*
X122079803Y-54973984D01*
X122079803Y-54973984D02*
X122118508Y-55090098D01*
X122118508Y-55090098D02*
X122195918Y-55167508D01*
X122195918Y-55167508D02*
X122273327Y-55206213D01*
X122273327Y-55206213D02*
X122428146Y-55244917D01*
X122428146Y-55244917D02*
X122544260Y-55244917D01*
X122544260Y-55244917D02*
X122699079Y-55206213D01*
X122699079Y-55206213D02*
X122776489Y-55167508D01*
X122776489Y-55167508D02*
X122853899Y-55090098D01*
X122853899Y-55090098D02*
X122892603Y-54973984D01*
X122892603Y-54973984D02*
X122892603Y-54896575D01*
X122892603Y-54896575D02*
X122853899Y-54780460D01*
X122853899Y-54780460D02*
X122815194Y-54741756D01*
X122815194Y-54741756D02*
X122544260Y-54741756D01*
X122544260Y-54741756D02*
X122544260Y-54896575D01*
X122892603Y-54393413D02*
X122079803Y-54393413D01*
X122079803Y-54393413D02*
X122892603Y-53928956D01*
X122892603Y-53928956D02*
X122079803Y-53928956D01*
X122892603Y-53541908D02*
X122079803Y-53541908D01*
X122079803Y-53541908D02*
X122079803Y-53348384D01*
X122079803Y-53348384D02*
X122118508Y-53232270D01*
X122118508Y-53232270D02*
X122195918Y-53154860D01*
X122195918Y-53154860D02*
X122273327Y-53116155D01*
X122273327Y-53116155D02*
X122428146Y-53077451D01*
X122428146Y-53077451D02*
X122544260Y-53077451D01*
X122544260Y-53077451D02*
X122699079Y-53116155D01*
X122699079Y-53116155D02*
X122776489Y-53154860D01*
X122776489Y-53154860D02*
X122853899Y-53232270D01*
X122853899Y-53232270D02*
X122892603Y-53348384D01*
X122892603Y-53348384D02*
X122892603Y-53541908D01*
X148579803Y-49819165D02*
X148579803Y-50206213D01*
X148579803Y-50206213D02*
X148966851Y-50244917D01*
X148966851Y-50244917D02*
X148928146Y-50206213D01*
X148928146Y-50206213D02*
X148889441Y-50128803D01*
X148889441Y-50128803D02*
X148889441Y-49935279D01*
X148889441Y-49935279D02*
X148928146Y-49857870D01*
X148928146Y-49857870D02*
X148966851Y-49819165D01*
X148966851Y-49819165D02*
X149044260Y-49780460D01*
X149044260Y-49780460D02*
X149237784Y-49780460D01*
X149237784Y-49780460D02*
X149315194Y-49819165D01*
X149315194Y-49819165D02*
X149353899Y-49857870D01*
X149353899Y-49857870D02*
X149392603Y-49935279D01*
X149392603Y-49935279D02*
X149392603Y-50128803D01*
X149392603Y-50128803D02*
X149353899Y-50206213D01*
X149353899Y-50206213D02*
X149315194Y-50244917D01*
X148579803Y-49548232D02*
X149392603Y-49277299D01*
X149392603Y-49277299D02*
X148579803Y-49006365D01*
X153758243Y-61392603D02*
X153487310Y-61005556D01*
X153293786Y-61392603D02*
X153293786Y-60579803D01*
X153293786Y-60579803D02*
X153603424Y-60579803D01*
X153603424Y-60579803D02*
X153680834Y-60618508D01*
X153680834Y-60618508D02*
X153719539Y-60657213D01*
X153719539Y-60657213D02*
X153758243Y-60734622D01*
X153758243Y-60734622D02*
X153758243Y-60850737D01*
X153758243Y-60850737D02*
X153719539Y-60928146D01*
X153719539Y-60928146D02*
X153680834Y-60966851D01*
X153680834Y-60966851D02*
X153603424Y-61005556D01*
X153603424Y-61005556D02*
X153293786Y-61005556D01*
X154067882Y-61353899D02*
X154183996Y-61392603D01*
X154183996Y-61392603D02*
X154377520Y-61392603D01*
X154377520Y-61392603D02*
X154454929Y-61353899D01*
X154454929Y-61353899D02*
X154493634Y-61315194D01*
X154493634Y-61315194D02*
X154532339Y-61237784D01*
X154532339Y-61237784D02*
X154532339Y-61160375D01*
X154532339Y-61160375D02*
X154493634Y-61082965D01*
X154493634Y-61082965D02*
X154454929Y-61044260D01*
X154454929Y-61044260D02*
X154377520Y-61005556D01*
X154377520Y-61005556D02*
X154222701Y-60966851D01*
X154222701Y-60966851D02*
X154145291Y-60928146D01*
X154145291Y-60928146D02*
X154106586Y-60889441D01*
X154106586Y-60889441D02*
X154067882Y-60812032D01*
X154067882Y-60812032D02*
X154067882Y-60734622D01*
X154067882Y-60734622D02*
X154106586Y-60657213D01*
X154106586Y-60657213D02*
X154145291Y-60618508D01*
X154145291Y-60618508D02*
X154222701Y-60579803D01*
X154222701Y-60579803D02*
X154416224Y-60579803D01*
X154416224Y-60579803D02*
X154532339Y-60618508D01*
X154764567Y-60579803D02*
X155229024Y-60579803D01*
X154996796Y-61392603D02*
X154996796Y-60579803D01*
X136119539Y-46418508D02*
X136042129Y-46379803D01*
X136042129Y-46379803D02*
X135926015Y-46379803D01*
X135926015Y-46379803D02*
X135809901Y-46418508D01*
X135809901Y-46418508D02*
X135732491Y-46495918D01*
X135732491Y-46495918D02*
X135693786Y-46573327D01*
X135693786Y-46573327D02*
X135655082Y-46728146D01*
X135655082Y-46728146D02*
X135655082Y-46844260D01*
X135655082Y-46844260D02*
X135693786Y-46999079D01*
X135693786Y-46999079D02*
X135732491Y-47076489D01*
X135732491Y-47076489D02*
X135809901Y-47153899D01*
X135809901Y-47153899D02*
X135926015Y-47192603D01*
X135926015Y-47192603D02*
X136003424Y-47192603D01*
X136003424Y-47192603D02*
X136119539Y-47153899D01*
X136119539Y-47153899D02*
X136158243Y-47115194D01*
X136158243Y-47115194D02*
X136158243Y-46844260D01*
X136158243Y-46844260D02*
X136003424Y-46844260D01*
X136506586Y-47192603D02*
X136506586Y-46379803D01*
X136506586Y-46379803D02*
X136971043Y-47192603D01*
X136971043Y-47192603D02*
X136971043Y-46379803D01*
X137358091Y-47192603D02*
X137358091Y-46379803D01*
X137358091Y-46379803D02*
X137551615Y-46379803D01*
X137551615Y-46379803D02*
X137667729Y-46418508D01*
X137667729Y-46418508D02*
X137745139Y-46495918D01*
X137745139Y-46495918D02*
X137783844Y-46573327D01*
X137783844Y-46573327D02*
X137822548Y-46728146D01*
X137822548Y-46728146D02*
X137822548Y-46844260D01*
X137822548Y-46844260D02*
X137783844Y-46999079D01*
X137783844Y-46999079D02*
X137745139Y-47076489D01*
X137745139Y-47076489D02*
X137667729Y-47153899D01*
X137667729Y-47153899D02*
X137551615Y-47192603D01*
X137551615Y-47192603D02*
X137358091Y-47192603D01*
X140755082Y-74853899D02*
X140871196Y-74892603D01*
X140871196Y-74892603D02*
X141064720Y-74892603D01*
X141064720Y-74892603D02*
X141142129Y-74853899D01*
X141142129Y-74853899D02*
X141180834Y-74815194D01*
X141180834Y-74815194D02*
X141219539Y-74737784D01*
X141219539Y-74737784D02*
X141219539Y-74660375D01*
X141219539Y-74660375D02*
X141180834Y-74582965D01*
X141180834Y-74582965D02*
X141142129Y-74544260D01*
X141142129Y-74544260D02*
X141064720Y-74505556D01*
X141064720Y-74505556D02*
X140909901Y-74466851D01*
X140909901Y-74466851D02*
X140832491Y-74428146D01*
X140832491Y-74428146D02*
X140793786Y-74389441D01*
X140793786Y-74389441D02*
X140755082Y-74312032D01*
X140755082Y-74312032D02*
X140755082Y-74234622D01*
X140755082Y-74234622D02*
X140793786Y-74157213D01*
X140793786Y-74157213D02*
X140832491Y-74118508D01*
X140832491Y-74118508D02*
X140909901Y-74079803D01*
X140909901Y-74079803D02*
X141103424Y-74079803D01*
X141103424Y-74079803D02*
X141219539Y-74118508D01*
X142032338Y-74815194D02*
X141993634Y-74853899D01*
X141993634Y-74853899D02*
X141877519Y-74892603D01*
X141877519Y-74892603D02*
X141800110Y-74892603D01*
X141800110Y-74892603D02*
X141683996Y-74853899D01*
X141683996Y-74853899D02*
X141606586Y-74776489D01*
X141606586Y-74776489D02*
X141567881Y-74699079D01*
X141567881Y-74699079D02*
X141529177Y-74544260D01*
X141529177Y-74544260D02*
X141529177Y-74428146D01*
X141529177Y-74428146D02*
X141567881Y-74273327D01*
X141567881Y-74273327D02*
X141606586Y-74195918D01*
X141606586Y-74195918D02*
X141683996Y-74118508D01*
X141683996Y-74118508D02*
X141800110Y-74079803D01*
X141800110Y-74079803D02*
X141877519Y-74079803D01*
X141877519Y-74079803D02*
X141993634Y-74118508D01*
X141993634Y-74118508D02*
X142032338Y-74157213D01*
X142767729Y-74892603D02*
X142380681Y-74892603D01*
X142380681Y-74892603D02*
X142380681Y-74079803D01*
X144180834Y-74079803D02*
X143793786Y-74079803D01*
X143793786Y-74079803D02*
X143755082Y-74466851D01*
X143755082Y-74466851D02*
X143793786Y-74428146D01*
X143793786Y-74428146D02*
X143871196Y-74389441D01*
X143871196Y-74389441D02*
X144064720Y-74389441D01*
X144064720Y-74389441D02*
X144142129Y-74428146D01*
X144142129Y-74428146D02*
X144180834Y-74466851D01*
X144180834Y-74466851D02*
X144219539Y-74544260D01*
X144219539Y-74544260D02*
X144219539Y-74737784D01*
X144219539Y-74737784D02*
X144180834Y-74815194D01*
X144180834Y-74815194D02*
X144142129Y-74853899D01*
X144142129Y-74853899D02*
X144064720Y-74892603D01*
X144064720Y-74892603D02*
X143871196Y-74892603D01*
X143871196Y-74892603D02*
X143793786Y-74853899D01*
X143793786Y-74853899D02*
X143755082Y-74815194D01*
X144451767Y-74079803D02*
X144722700Y-74892603D01*
X144722700Y-74892603D02*
X144993634Y-74079803D01*
X146892603Y-50206213D02*
X146079803Y-50206213D01*
X146079803Y-50206213D02*
X146079803Y-49896575D01*
X146079803Y-49896575D02*
X146118508Y-49819165D01*
X146118508Y-49819165D02*
X146157213Y-49780460D01*
X146157213Y-49780460D02*
X146234622Y-49741756D01*
X146234622Y-49741756D02*
X146350737Y-49741756D01*
X146350737Y-49741756D02*
X146428146Y-49780460D01*
X146428146Y-49780460D02*
X146466851Y-49819165D01*
X146466851Y-49819165D02*
X146505556Y-49896575D01*
X146505556Y-49896575D02*
X146505556Y-50206213D01*
X146892603Y-48928956D02*
X146505556Y-49199889D01*
X146892603Y-49393413D02*
X146079803Y-49393413D01*
X146079803Y-49393413D02*
X146079803Y-49083775D01*
X146079803Y-49083775D02*
X146118508Y-49006365D01*
X146118508Y-49006365D02*
X146157213Y-48967660D01*
X146157213Y-48967660D02*
X146234622Y-48928956D01*
X146234622Y-48928956D02*
X146350737Y-48928956D01*
X146350737Y-48928956D02*
X146428146Y-48967660D01*
X146428146Y-48967660D02*
X146466851Y-49006365D01*
X146466851Y-49006365D02*
X146505556Y-49083775D01*
X146505556Y-49083775D02*
X146505556Y-49393413D01*
X146118508Y-48154860D02*
X146079803Y-48232270D01*
X146079803Y-48232270D02*
X146079803Y-48348384D01*
X146079803Y-48348384D02*
X146118508Y-48464498D01*
X146118508Y-48464498D02*
X146195918Y-48541908D01*
X146195918Y-48541908D02*
X146273327Y-48580613D01*
X146273327Y-48580613D02*
X146428146Y-48619317D01*
X146428146Y-48619317D02*
X146544260Y-48619317D01*
X146544260Y-48619317D02*
X146699079Y-48580613D01*
X146699079Y-48580613D02*
X146776489Y-48541908D01*
X146776489Y-48541908D02*
X146853899Y-48464498D01*
X146853899Y-48464498D02*
X146892603Y-48348384D01*
X146892603Y-48348384D02*
X146892603Y-48270975D01*
X146892603Y-48270975D02*
X146853899Y-48154860D01*
X146853899Y-48154860D02*
X146815194Y-48116156D01*
X146815194Y-48116156D02*
X146544260Y-48116156D01*
X146544260Y-48116156D02*
X146544260Y-48270975D01*
X122892603Y-73206213D02*
X122079803Y-73206213D01*
X122079803Y-73206213D02*
X122079803Y-73012689D01*
X122079803Y-73012689D02*
X122118508Y-72896575D01*
X122118508Y-72896575D02*
X122195918Y-72819165D01*
X122195918Y-72819165D02*
X122273327Y-72780460D01*
X122273327Y-72780460D02*
X122428146Y-72741756D01*
X122428146Y-72741756D02*
X122544260Y-72741756D01*
X122544260Y-72741756D02*
X122699079Y-72780460D01*
X122699079Y-72780460D02*
X122776489Y-72819165D01*
X122776489Y-72819165D02*
X122853899Y-72896575D01*
X122853899Y-72896575D02*
X122892603Y-73012689D01*
X122892603Y-73012689D02*
X122892603Y-73206213D01*
X122892603Y-72045070D02*
X122466851Y-72045070D01*
X122466851Y-72045070D02*
X122389441Y-72083775D01*
X122389441Y-72083775D02*
X122350737Y-72161184D01*
X122350737Y-72161184D02*
X122350737Y-72316003D01*
X122350737Y-72316003D02*
X122389441Y-72393413D01*
X122853899Y-72045070D02*
X122892603Y-72122479D01*
X122892603Y-72122479D02*
X122892603Y-72316003D01*
X122892603Y-72316003D02*
X122853899Y-72393413D01*
X122853899Y-72393413D02*
X122776489Y-72432117D01*
X122776489Y-72432117D02*
X122699079Y-72432117D01*
X122699079Y-72432117D02*
X122621670Y-72393413D01*
X122621670Y-72393413D02*
X122582965Y-72316003D01*
X122582965Y-72316003D02*
X122582965Y-72122479D01*
X122582965Y-72122479D02*
X122544260Y-72045070D01*
X122350737Y-71774137D02*
X122350737Y-71464499D01*
X122079803Y-71658023D02*
X122776489Y-71658023D01*
X122776489Y-71658023D02*
X122853899Y-71619318D01*
X122853899Y-71619318D02*
X122892603Y-71541908D01*
X122892603Y-71541908D02*
X122892603Y-71464499D01*
X122892603Y-70845223D02*
X122466851Y-70845223D01*
X122466851Y-70845223D02*
X122389441Y-70883928D01*
X122389441Y-70883928D02*
X122350737Y-70961337D01*
X122350737Y-70961337D02*
X122350737Y-71116156D01*
X122350737Y-71116156D02*
X122389441Y-71193566D01*
X122853899Y-70845223D02*
X122892603Y-70922632D01*
X122892603Y-70922632D02*
X122892603Y-71116156D01*
X122892603Y-71116156D02*
X122853899Y-71193566D01*
X122853899Y-71193566D02*
X122776489Y-71232270D01*
X122776489Y-71232270D02*
X122699079Y-71232270D01*
X122699079Y-71232270D02*
X122621670Y-71193566D01*
X122621670Y-71193566D02*
X122582965Y-71116156D01*
X122582965Y-71116156D02*
X122582965Y-70922632D01*
X122582965Y-70922632D02*
X122544260Y-70845223D01*
X122079803Y-69822327D02*
X122892603Y-69551394D01*
X122892603Y-69551394D02*
X122079803Y-69280460D01*
X122815194Y-68545070D02*
X122853899Y-68583774D01*
X122853899Y-68583774D02*
X122892603Y-68699889D01*
X122892603Y-68699889D02*
X122892603Y-68777298D01*
X122892603Y-68777298D02*
X122853899Y-68893412D01*
X122853899Y-68893412D02*
X122776489Y-68970822D01*
X122776489Y-68970822D02*
X122699079Y-69009527D01*
X122699079Y-69009527D02*
X122544260Y-69048231D01*
X122544260Y-69048231D02*
X122428146Y-69048231D01*
X122428146Y-69048231D02*
X122273327Y-69009527D01*
X122273327Y-69009527D02*
X122195918Y-68970822D01*
X122195918Y-68970822D02*
X122118508Y-68893412D01*
X122118508Y-68893412D02*
X122079803Y-68777298D01*
X122079803Y-68777298D02*
X122079803Y-68699889D01*
X122079803Y-68699889D02*
X122118508Y-68583774D01*
X122118508Y-68583774D02*
X122157213Y-68545070D01*
X122815194Y-67732270D02*
X122853899Y-67770974D01*
X122853899Y-67770974D02*
X122892603Y-67887089D01*
X122892603Y-67887089D02*
X122892603Y-67964498D01*
X122892603Y-67964498D02*
X122853899Y-68080612D01*
X122853899Y-68080612D02*
X122776489Y-68158022D01*
X122776489Y-68158022D02*
X122699079Y-68196727D01*
X122699079Y-68196727D02*
X122544260Y-68235431D01*
X122544260Y-68235431D02*
X122428146Y-68235431D01*
X122428146Y-68235431D02*
X122273327Y-68196727D01*
X122273327Y-68196727D02*
X122195918Y-68158022D01*
X122195918Y-68158022D02*
X122118508Y-68080612D01*
X122118508Y-68080612D02*
X122079803Y-67964498D01*
X122079803Y-67964498D02*
X122079803Y-67887089D01*
X122079803Y-67887089D02*
X122118508Y-67770974D01*
X122118508Y-67770974D02*
X122157213Y-67732270D01*
X137755082Y-74853899D02*
X137871196Y-74892603D01*
X137871196Y-74892603D02*
X138064720Y-74892603D01*
X138064720Y-74892603D02*
X138142129Y-74853899D01*
X138142129Y-74853899D02*
X138180834Y-74815194D01*
X138180834Y-74815194D02*
X138219539Y-74737784D01*
X138219539Y-74737784D02*
X138219539Y-74660375D01*
X138219539Y-74660375D02*
X138180834Y-74582965D01*
X138180834Y-74582965D02*
X138142129Y-74544260D01*
X138142129Y-74544260D02*
X138064720Y-74505556D01*
X138064720Y-74505556D02*
X137909901Y-74466851D01*
X137909901Y-74466851D02*
X137832491Y-74428146D01*
X137832491Y-74428146D02*
X137793786Y-74389441D01*
X137793786Y-74389441D02*
X137755082Y-74312032D01*
X137755082Y-74312032D02*
X137755082Y-74234622D01*
X137755082Y-74234622D02*
X137793786Y-74157213D01*
X137793786Y-74157213D02*
X137832491Y-74118508D01*
X137832491Y-74118508D02*
X137909901Y-74079803D01*
X137909901Y-74079803D02*
X138103424Y-74079803D01*
X138103424Y-74079803D02*
X138219539Y-74118508D01*
X138567881Y-74892603D02*
X138567881Y-74079803D01*
X138567881Y-74079803D02*
X138761405Y-74079803D01*
X138761405Y-74079803D02*
X138877519Y-74118508D01*
X138877519Y-74118508D02*
X138954929Y-74195918D01*
X138954929Y-74195918D02*
X138993634Y-74273327D01*
X138993634Y-74273327D02*
X139032338Y-74428146D01*
X139032338Y-74428146D02*
X139032338Y-74544260D01*
X139032338Y-74544260D02*
X138993634Y-74699079D01*
X138993634Y-74699079D02*
X138954929Y-74776489D01*
X138954929Y-74776489D02*
X138877519Y-74853899D01*
X138877519Y-74853899D02*
X138761405Y-74892603D01*
X138761405Y-74892603D02*
X138567881Y-74892603D01*
X139341977Y-74660375D02*
X139729024Y-74660375D01*
X139264567Y-74892603D02*
X139535500Y-74079803D01*
X139535500Y-74079803D02*
X139806434Y-74892603D01*
X122892603Y-62206213D02*
X122079803Y-62206213D01*
X122079803Y-62206213D02*
X122079803Y-62012689D01*
X122079803Y-62012689D02*
X122118508Y-61896575D01*
X122118508Y-61896575D02*
X122195918Y-61819165D01*
X122195918Y-61819165D02*
X122273327Y-61780460D01*
X122273327Y-61780460D02*
X122428146Y-61741756D01*
X122428146Y-61741756D02*
X122544260Y-61741756D01*
X122544260Y-61741756D02*
X122699079Y-61780460D01*
X122699079Y-61780460D02*
X122776489Y-61819165D01*
X122776489Y-61819165D02*
X122853899Y-61896575D01*
X122853899Y-61896575D02*
X122892603Y-62012689D01*
X122892603Y-62012689D02*
X122892603Y-62206213D01*
X122892603Y-61045070D02*
X122466851Y-61045070D01*
X122466851Y-61045070D02*
X122389441Y-61083775D01*
X122389441Y-61083775D02*
X122350737Y-61161184D01*
X122350737Y-61161184D02*
X122350737Y-61316003D01*
X122350737Y-61316003D02*
X122389441Y-61393413D01*
X122853899Y-61045070D02*
X122892603Y-61122479D01*
X122892603Y-61122479D02*
X122892603Y-61316003D01*
X122892603Y-61316003D02*
X122853899Y-61393413D01*
X122853899Y-61393413D02*
X122776489Y-61432117D01*
X122776489Y-61432117D02*
X122699079Y-61432117D01*
X122699079Y-61432117D02*
X122621670Y-61393413D01*
X122621670Y-61393413D02*
X122582965Y-61316003D01*
X122582965Y-61316003D02*
X122582965Y-61122479D01*
X122582965Y-61122479D02*
X122544260Y-61045070D01*
X122350737Y-60774137D02*
X122350737Y-60464499D01*
X122079803Y-60658023D02*
X122776489Y-60658023D01*
X122776489Y-60658023D02*
X122853899Y-60619318D01*
X122853899Y-60619318D02*
X122892603Y-60541908D01*
X122892603Y-60541908D02*
X122892603Y-60464499D01*
X122892603Y-59845223D02*
X122466851Y-59845223D01*
X122466851Y-59845223D02*
X122389441Y-59883928D01*
X122389441Y-59883928D02*
X122350737Y-59961337D01*
X122350737Y-59961337D02*
X122350737Y-60116156D01*
X122350737Y-60116156D02*
X122389441Y-60193566D01*
X122853899Y-59845223D02*
X122892603Y-59922632D01*
X122892603Y-59922632D02*
X122892603Y-60116156D01*
X122892603Y-60116156D02*
X122853899Y-60193566D01*
X122853899Y-60193566D02*
X122776489Y-60232270D01*
X122776489Y-60232270D02*
X122699079Y-60232270D01*
X122699079Y-60232270D02*
X122621670Y-60193566D01*
X122621670Y-60193566D02*
X122582965Y-60116156D01*
X122582965Y-60116156D02*
X122582965Y-59922632D01*
X122582965Y-59922632D02*
X122544260Y-59845223D01*
D11*
X130833333Y-61454819D02*
X130500000Y-60978628D01*
X130261905Y-61454819D02*
X130261905Y-60454819D01*
X130261905Y-60454819D02*
X130642857Y-60454819D01*
X130642857Y-60454819D02*
X130738095Y-60502438D01*
X130738095Y-60502438D02*
X130785714Y-60550057D01*
X130785714Y-60550057D02*
X130833333Y-60645295D01*
X130833333Y-60645295D02*
X130833333Y-60788152D01*
X130833333Y-60788152D02*
X130785714Y-60883390D01*
X130785714Y-60883390D02*
X130738095Y-60931009D01*
X130738095Y-60931009D02*
X130642857Y-60978628D01*
X130642857Y-60978628D02*
X130261905Y-60978628D01*
X131738095Y-60454819D02*
X131261905Y-60454819D01*
X131261905Y-60454819D02*
X131214286Y-60931009D01*
X131214286Y-60931009D02*
X131261905Y-60883390D01*
X131261905Y-60883390D02*
X131357143Y-60835771D01*
X131357143Y-60835771D02*
X131595238Y-60835771D01*
X131595238Y-60835771D02*
X131690476Y-60883390D01*
X131690476Y-60883390D02*
X131738095Y-60931009D01*
X131738095Y-60931009D02*
X131785714Y-61026247D01*
X131785714Y-61026247D02*
X131785714Y-61264342D01*
X131785714Y-61264342D02*
X131738095Y-61359580D01*
X131738095Y-61359580D02*
X131690476Y-61407200D01*
X131690476Y-61407200D02*
X131595238Y-61454819D01*
X131595238Y-61454819D02*
X131357143Y-61454819D01*
X131357143Y-61454819D02*
X131261905Y-61407200D01*
X131261905Y-61407200D02*
X131214286Y-61359580D01*
X132833333Y-63104819D02*
X132261905Y-63104819D01*
X132547619Y-63104819D02*
X132547619Y-62104819D01*
X132547619Y-62104819D02*
X132452381Y-62247676D01*
X132452381Y-62247676D02*
X132357143Y-62342914D01*
X132357143Y-62342914D02*
X132261905Y-62390533D01*
X133452381Y-62104819D02*
X133547619Y-62104819D01*
X133547619Y-62104819D02*
X133642857Y-62152438D01*
X133642857Y-62152438D02*
X133690476Y-62200057D01*
X133690476Y-62200057D02*
X133738095Y-62295295D01*
X133738095Y-62295295D02*
X133785714Y-62485771D01*
X133785714Y-62485771D02*
X133785714Y-62723866D01*
X133785714Y-62723866D02*
X133738095Y-62914342D01*
X133738095Y-62914342D02*
X133690476Y-63009580D01*
X133690476Y-63009580D02*
X133642857Y-63057200D01*
X133642857Y-63057200D02*
X133547619Y-63104819D01*
X133547619Y-63104819D02*
X133452381Y-63104819D01*
X133452381Y-63104819D02*
X133357143Y-63057200D01*
X133357143Y-63057200D02*
X133309524Y-63009580D01*
X133309524Y-63009580D02*
X133261905Y-62914342D01*
X133261905Y-62914342D02*
X133214286Y-62723866D01*
X133214286Y-62723866D02*
X133214286Y-62485771D01*
X133214286Y-62485771D02*
X133261905Y-62295295D01*
X133261905Y-62295295D02*
X133309524Y-62200057D01*
X133309524Y-62200057D02*
X133357143Y-62152438D01*
X133357143Y-62152438D02*
X133452381Y-62104819D01*
X134404762Y-62104819D02*
X134500000Y-62104819D01*
X134500000Y-62104819D02*
X134595238Y-62152438D01*
X134595238Y-62152438D02*
X134642857Y-62200057D01*
X134642857Y-62200057D02*
X134690476Y-62295295D01*
X134690476Y-62295295D02*
X134738095Y-62485771D01*
X134738095Y-62485771D02*
X134738095Y-62723866D01*
X134738095Y-62723866D02*
X134690476Y-62914342D01*
X134690476Y-62914342D02*
X134642857Y-63009580D01*
X134642857Y-63009580D02*
X134595238Y-63057200D01*
X134595238Y-63057200D02*
X134500000Y-63104819D01*
X134500000Y-63104819D02*
X134404762Y-63104819D01*
X134404762Y-63104819D02*
X134309524Y-63057200D01*
X134309524Y-63057200D02*
X134261905Y-63009580D01*
X134261905Y-63009580D02*
X134214286Y-62914342D01*
X134214286Y-62914342D02*
X134166667Y-62723866D01*
X134166667Y-62723866D02*
X134166667Y-62485771D01*
X134166667Y-62485771D02*
X134214286Y-62295295D01*
X134214286Y-62295295D02*
X134261905Y-62200057D01*
X134261905Y-62200057D02*
X134309524Y-62152438D01*
X134309524Y-62152438D02*
X134404762Y-62104819D01*
X135738095Y-63104819D02*
X135404762Y-62628628D01*
X135166667Y-63104819D02*
X135166667Y-62104819D01*
X135166667Y-62104819D02*
X135547619Y-62104819D01*
X135547619Y-62104819D02*
X135642857Y-62152438D01*
X135642857Y-62152438D02*
X135690476Y-62200057D01*
X135690476Y-62200057D02*
X135738095Y-62295295D01*
X135738095Y-62295295D02*
X135738095Y-62438152D01*
X135738095Y-62438152D02*
X135690476Y-62533390D01*
X135690476Y-62533390D02*
X135642857Y-62581009D01*
X135642857Y-62581009D02*
X135547619Y-62628628D01*
X135547619Y-62628628D02*
X135166667Y-62628628D01*
X139238095Y-56054819D02*
X139238095Y-56864342D01*
X139238095Y-56864342D02*
X139285714Y-56959580D01*
X139285714Y-56959580D02*
X139333333Y-57007200D01*
X139333333Y-57007200D02*
X139428571Y-57054819D01*
X139428571Y-57054819D02*
X139619047Y-57054819D01*
X139619047Y-57054819D02*
X139714285Y-57007200D01*
X139714285Y-57007200D02*
X139761904Y-56959580D01*
X139761904Y-56959580D02*
X139809523Y-56864342D01*
X139809523Y-56864342D02*
X139809523Y-56054819D01*
X140809523Y-57054819D02*
X140238095Y-57054819D01*
X140523809Y-57054819D02*
X140523809Y-56054819D01*
X140523809Y-56054819D02*
X140428571Y-56197676D01*
X140428571Y-56197676D02*
X140333333Y-56292914D01*
X140333333Y-56292914D02*
X140238095Y-56340533D01*
X136923809Y-55169104D02*
X137399999Y-55169104D01*
X136828571Y-55454819D02*
X137161904Y-54454819D01*
X137161904Y-54454819D02*
X137495237Y-55454819D01*
X137685714Y-54454819D02*
X138257142Y-54454819D01*
X137971428Y-55454819D02*
X137971428Y-54454819D01*
X138447619Y-54788152D02*
X138828571Y-54788152D01*
X138590476Y-54454819D02*
X138590476Y-55311961D01*
X138590476Y-55311961D02*
X138638095Y-55407200D01*
X138638095Y-55407200D02*
X138733333Y-55454819D01*
X138733333Y-55454819D02*
X138828571Y-55454819D01*
X139161905Y-55454819D02*
X139161905Y-54788152D01*
X139161905Y-54454819D02*
X139114286Y-54502438D01*
X139114286Y-54502438D02*
X139161905Y-54550057D01*
X139161905Y-54550057D02*
X139209524Y-54502438D01*
X139209524Y-54502438D02*
X139161905Y-54454819D01*
X139161905Y-54454819D02*
X139161905Y-54550057D01*
X139638095Y-54788152D02*
X139638095Y-55454819D01*
X139638095Y-54883390D02*
X139685714Y-54835771D01*
X139685714Y-54835771D02*
X139780952Y-54788152D01*
X139780952Y-54788152D02*
X139923809Y-54788152D01*
X139923809Y-54788152D02*
X140019047Y-54835771D01*
X140019047Y-54835771D02*
X140066666Y-54931009D01*
X140066666Y-54931009D02*
X140066666Y-55454819D01*
X140447619Y-54788152D02*
X140685714Y-55454819D01*
X140923809Y-54788152D02*
X140685714Y-55454819D01*
X140685714Y-55454819D02*
X140590476Y-55692914D01*
X140590476Y-55692914D02*
X140542857Y-55740533D01*
X140542857Y-55740533D02*
X140447619Y-55788152D01*
X141257143Y-54550057D02*
X141304762Y-54502438D01*
X141304762Y-54502438D02*
X141400000Y-54454819D01*
X141400000Y-54454819D02*
X141638095Y-54454819D01*
X141638095Y-54454819D02*
X141733333Y-54502438D01*
X141733333Y-54502438D02*
X141780952Y-54550057D01*
X141780952Y-54550057D02*
X141828571Y-54645295D01*
X141828571Y-54645295D02*
X141828571Y-54740533D01*
X141828571Y-54740533D02*
X141780952Y-54883390D01*
X141780952Y-54883390D02*
X141209524Y-55454819D01*
X141209524Y-55454819D02*
X141828571Y-55454819D01*
X142447619Y-54454819D02*
X142542857Y-54454819D01*
X142542857Y-54454819D02*
X142638095Y-54502438D01*
X142638095Y-54502438D02*
X142685714Y-54550057D01*
X142685714Y-54550057D02*
X142733333Y-54645295D01*
X142733333Y-54645295D02*
X142780952Y-54835771D01*
X142780952Y-54835771D02*
X142780952Y-55073866D01*
X142780952Y-55073866D02*
X142733333Y-55264342D01*
X142733333Y-55264342D02*
X142685714Y-55359580D01*
X142685714Y-55359580D02*
X142638095Y-55407200D01*
X142638095Y-55407200D02*
X142542857Y-55454819D01*
X142542857Y-55454819D02*
X142447619Y-55454819D01*
X142447619Y-55454819D02*
X142352381Y-55407200D01*
X142352381Y-55407200D02*
X142304762Y-55359580D01*
X142304762Y-55359580D02*
X142257143Y-55264342D01*
X142257143Y-55264342D02*
X142209524Y-55073866D01*
X142209524Y-55073866D02*
X142209524Y-54835771D01*
X142209524Y-54835771D02*
X142257143Y-54645295D01*
X142257143Y-54645295D02*
X142304762Y-54550057D01*
X142304762Y-54550057D02*
X142352381Y-54502438D01*
X142352381Y-54502438D02*
X142447619Y-54454819D01*
X143161905Y-54550057D02*
X143209524Y-54502438D01*
X143209524Y-54502438D02*
X143304762Y-54454819D01*
X143304762Y-54454819D02*
X143542857Y-54454819D01*
X143542857Y-54454819D02*
X143638095Y-54502438D01*
X143638095Y-54502438D02*
X143685714Y-54550057D01*
X143685714Y-54550057D02*
X143733333Y-54645295D01*
X143733333Y-54645295D02*
X143733333Y-54740533D01*
X143733333Y-54740533D02*
X143685714Y-54883390D01*
X143685714Y-54883390D02*
X143114286Y-55454819D01*
X143114286Y-55454819D02*
X143733333Y-55454819D01*
X144161905Y-55073866D02*
X144923810Y-55073866D01*
X145352381Y-55407200D02*
X145495238Y-55454819D01*
X145495238Y-55454819D02*
X145733333Y-55454819D01*
X145733333Y-55454819D02*
X145828571Y-55407200D01*
X145828571Y-55407200D02*
X145876190Y-55359580D01*
X145876190Y-55359580D02*
X145923809Y-55264342D01*
X145923809Y-55264342D02*
X145923809Y-55169104D01*
X145923809Y-55169104D02*
X145876190Y-55073866D01*
X145876190Y-55073866D02*
X145828571Y-55026247D01*
X145828571Y-55026247D02*
X145733333Y-54978628D01*
X145733333Y-54978628D02*
X145542857Y-54931009D01*
X145542857Y-54931009D02*
X145447619Y-54883390D01*
X145447619Y-54883390D02*
X145400000Y-54835771D01*
X145400000Y-54835771D02*
X145352381Y-54740533D01*
X145352381Y-54740533D02*
X145352381Y-54645295D01*
X145352381Y-54645295D02*
X145400000Y-54550057D01*
X145400000Y-54550057D02*
X145447619Y-54502438D01*
X145447619Y-54502438D02*
X145542857Y-54454819D01*
X145542857Y-54454819D02*
X145780952Y-54454819D01*
X145780952Y-54454819D02*
X145923809Y-54502438D01*
X146304762Y-55407200D02*
X146447619Y-55454819D01*
X146447619Y-55454819D02*
X146685714Y-55454819D01*
X146685714Y-55454819D02*
X146780952Y-55407200D01*
X146780952Y-55407200D02*
X146828571Y-55359580D01*
X146828571Y-55359580D02*
X146876190Y-55264342D01*
X146876190Y-55264342D02*
X146876190Y-55169104D01*
X146876190Y-55169104D02*
X146828571Y-55073866D01*
X146828571Y-55073866D02*
X146780952Y-55026247D01*
X146780952Y-55026247D02*
X146685714Y-54978628D01*
X146685714Y-54978628D02*
X146495238Y-54931009D01*
X146495238Y-54931009D02*
X146400000Y-54883390D01*
X146400000Y-54883390D02*
X146352381Y-54835771D01*
X146352381Y-54835771D02*
X146304762Y-54740533D01*
X146304762Y-54740533D02*
X146304762Y-54645295D01*
X146304762Y-54645295D02*
X146352381Y-54550057D01*
X146352381Y-54550057D02*
X146400000Y-54502438D01*
X146400000Y-54502438D02*
X146495238Y-54454819D01*
X146495238Y-54454819D02*
X146733333Y-54454819D01*
X146733333Y-54454819D02*
X146876190Y-54502438D01*
X134766666Y-55731009D02*
X134433333Y-55731009D01*
X134433333Y-56254819D02*
X134433333Y-55254819D01*
X134433333Y-55254819D02*
X134909523Y-55254819D01*
X135814285Y-56254819D02*
X135242857Y-56254819D01*
X135528571Y-56254819D02*
X135528571Y-55254819D01*
X135528571Y-55254819D02*
X135433333Y-55397676D01*
X135433333Y-55397676D02*
X135338095Y-55492914D01*
X135338095Y-55492914D02*
X135242857Y-55540533D01*
X151154819Y-52333333D02*
X151869104Y-52333333D01*
X151869104Y-52333333D02*
X152011961Y-52380952D01*
X152011961Y-52380952D02*
X152107200Y-52476190D01*
X152107200Y-52476190D02*
X152154819Y-52619047D01*
X152154819Y-52619047D02*
X152154819Y-52714285D01*
X152154819Y-51333333D02*
X152154819Y-51904761D01*
X152154819Y-51619047D02*
X151154819Y-51619047D01*
X151154819Y-51619047D02*
X151297676Y-51714285D01*
X151297676Y-51714285D02*
X151392914Y-51809523D01*
X151392914Y-51809523D02*
X151440533Y-51904761D01*
X129954819Y-69333333D02*
X130669104Y-69333333D01*
X130669104Y-69333333D02*
X130811961Y-69380952D01*
X130811961Y-69380952D02*
X130907200Y-69476190D01*
X130907200Y-69476190D02*
X130954819Y-69619047D01*
X130954819Y-69619047D02*
X130954819Y-69714285D01*
X129954819Y-68380952D02*
X129954819Y-68857142D01*
X129954819Y-68857142D02*
X130431009Y-68904761D01*
X130431009Y-68904761D02*
X130383390Y-68857142D01*
X130383390Y-68857142D02*
X130335771Y-68761904D01*
X130335771Y-68761904D02*
X130335771Y-68523809D01*
X130335771Y-68523809D02*
X130383390Y-68428571D01*
X130383390Y-68428571D02*
X130431009Y-68380952D01*
X130431009Y-68380952D02*
X130526247Y-68333333D01*
X130526247Y-68333333D02*
X130764342Y-68333333D01*
X130764342Y-68333333D02*
X130859580Y-68380952D01*
X130859580Y-68380952D02*
X130907200Y-68428571D01*
X130907200Y-68428571D02*
X130954819Y-68523809D01*
X130954819Y-68523809D02*
X130954819Y-68761904D01*
X130954819Y-68761904D02*
X130907200Y-68857142D01*
X130907200Y-68857142D02*
X130859580Y-68904761D01*
X147357142Y-68039580D02*
X147309523Y-68087200D01*
X147309523Y-68087200D02*
X147166666Y-68134819D01*
X147166666Y-68134819D02*
X147071428Y-68134819D01*
X147071428Y-68134819D02*
X146928571Y-68087200D01*
X146928571Y-68087200D02*
X146833333Y-67991961D01*
X146833333Y-67991961D02*
X146785714Y-67896723D01*
X146785714Y-67896723D02*
X146738095Y-67706247D01*
X146738095Y-67706247D02*
X146738095Y-67563390D01*
X146738095Y-67563390D02*
X146785714Y-67372914D01*
X146785714Y-67372914D02*
X146833333Y-67277676D01*
X146833333Y-67277676D02*
X146928571Y-67182438D01*
X146928571Y-67182438D02*
X147071428Y-67134819D01*
X147071428Y-67134819D02*
X147166666Y-67134819D01*
X147166666Y-67134819D02*
X147309523Y-67182438D01*
X147309523Y-67182438D02*
X147357142Y-67230057D01*
X148309523Y-68134819D02*
X147738095Y-68134819D01*
X148023809Y-68134819D02*
X148023809Y-67134819D01*
X148023809Y-67134819D02*
X147928571Y-67277676D01*
X147928571Y-67277676D02*
X147833333Y-67372914D01*
X147833333Y-67372914D02*
X147738095Y-67420533D01*
X149166666Y-67468152D02*
X149166666Y-68134819D01*
X148928571Y-67087200D02*
X148690476Y-67801485D01*
X148690476Y-67801485D02*
X149309523Y-67801485D01*
X146452380Y-64774819D02*
X145880952Y-64774819D01*
X146166666Y-64774819D02*
X146166666Y-63774819D01*
X146166666Y-63774819D02*
X146071428Y-63917676D01*
X146071428Y-63917676D02*
X145976190Y-64012914D01*
X145976190Y-64012914D02*
X145880952Y-64060533D01*
X147071428Y-63774819D02*
X147166666Y-63774819D01*
X147166666Y-63774819D02*
X147261904Y-63822438D01*
X147261904Y-63822438D02*
X147309523Y-63870057D01*
X147309523Y-63870057D02*
X147357142Y-63965295D01*
X147357142Y-63965295D02*
X147404761Y-64155771D01*
X147404761Y-64155771D02*
X147404761Y-64393866D01*
X147404761Y-64393866D02*
X147357142Y-64584342D01*
X147357142Y-64584342D02*
X147309523Y-64679580D01*
X147309523Y-64679580D02*
X147261904Y-64727200D01*
X147261904Y-64727200D02*
X147166666Y-64774819D01*
X147166666Y-64774819D02*
X147071428Y-64774819D01*
X147071428Y-64774819D02*
X146976190Y-64727200D01*
X146976190Y-64727200D02*
X146928571Y-64679580D01*
X146928571Y-64679580D02*
X146880952Y-64584342D01*
X146880952Y-64584342D02*
X146833333Y-64393866D01*
X146833333Y-64393866D02*
X146833333Y-64155771D01*
X146833333Y-64155771D02*
X146880952Y-63965295D01*
X146880952Y-63965295D02*
X146928571Y-63870057D01*
X146928571Y-63870057D02*
X146976190Y-63822438D01*
X146976190Y-63822438D02*
X147071428Y-63774819D01*
X148023809Y-63774819D02*
X148119047Y-63774819D01*
X148119047Y-63774819D02*
X148214285Y-63822438D01*
X148214285Y-63822438D02*
X148261904Y-63870057D01*
X148261904Y-63870057D02*
X148309523Y-63965295D01*
X148309523Y-63965295D02*
X148357142Y-64155771D01*
X148357142Y-64155771D02*
X148357142Y-64393866D01*
X148357142Y-64393866D02*
X148309523Y-64584342D01*
X148309523Y-64584342D02*
X148261904Y-64679580D01*
X148261904Y-64679580D02*
X148214285Y-64727200D01*
X148214285Y-64727200D02*
X148119047Y-64774819D01*
X148119047Y-64774819D02*
X148023809Y-64774819D01*
X148023809Y-64774819D02*
X147928571Y-64727200D01*
X147928571Y-64727200D02*
X147880952Y-64679580D01*
X147880952Y-64679580D02*
X147833333Y-64584342D01*
X147833333Y-64584342D02*
X147785714Y-64393866D01*
X147785714Y-64393866D02*
X147785714Y-64155771D01*
X147785714Y-64155771D02*
X147833333Y-63965295D01*
X147833333Y-63965295D02*
X147880952Y-63870057D01*
X147880952Y-63870057D02*
X147928571Y-63822438D01*
X147928571Y-63822438D02*
X148023809Y-63774819D01*
X148785714Y-64108152D02*
X148785714Y-64774819D01*
X148785714Y-64203390D02*
X148833333Y-64155771D01*
X148833333Y-64155771D02*
X148928571Y-64108152D01*
X148928571Y-64108152D02*
X149071428Y-64108152D01*
X149071428Y-64108152D02*
X149166666Y-64155771D01*
X149166666Y-64155771D02*
X149214285Y-64251009D01*
X149214285Y-64251009D02*
X149214285Y-64774819D01*
X150023809Y-64251009D02*
X149690476Y-64251009D01*
X149690476Y-64774819D02*
X149690476Y-63774819D01*
X149690476Y-63774819D02*
X150166666Y-63774819D01*
X130833333Y-59454819D02*
X130500000Y-58978628D01*
X130261905Y-59454819D02*
X130261905Y-58454819D01*
X130261905Y-58454819D02*
X130642857Y-58454819D01*
X130642857Y-58454819D02*
X130738095Y-58502438D01*
X130738095Y-58502438D02*
X130785714Y-58550057D01*
X130785714Y-58550057D02*
X130833333Y-58645295D01*
X130833333Y-58645295D02*
X130833333Y-58788152D01*
X130833333Y-58788152D02*
X130785714Y-58883390D01*
X130785714Y-58883390D02*
X130738095Y-58931009D01*
X130738095Y-58931009D02*
X130642857Y-58978628D01*
X130642857Y-58978628D02*
X130261905Y-58978628D01*
X131785714Y-59454819D02*
X131214286Y-59454819D01*
X131500000Y-59454819D02*
X131500000Y-58454819D01*
X131500000Y-58454819D02*
X131404762Y-58597676D01*
X131404762Y-58597676D02*
X131309524Y-58692914D01*
X131309524Y-58692914D02*
X131214286Y-58740533D01*
X132833333Y-57954819D02*
X132261905Y-57954819D01*
X132547619Y-57954819D02*
X132547619Y-56954819D01*
X132547619Y-56954819D02*
X132452381Y-57097676D01*
X132452381Y-57097676D02*
X132357143Y-57192914D01*
X132357143Y-57192914D02*
X132261905Y-57240533D01*
X133452381Y-56954819D02*
X133547619Y-56954819D01*
X133547619Y-56954819D02*
X133642857Y-57002438D01*
X133642857Y-57002438D02*
X133690476Y-57050057D01*
X133690476Y-57050057D02*
X133738095Y-57145295D01*
X133738095Y-57145295D02*
X133785714Y-57335771D01*
X133785714Y-57335771D02*
X133785714Y-57573866D01*
X133785714Y-57573866D02*
X133738095Y-57764342D01*
X133738095Y-57764342D02*
X133690476Y-57859580D01*
X133690476Y-57859580D02*
X133642857Y-57907200D01*
X133642857Y-57907200D02*
X133547619Y-57954819D01*
X133547619Y-57954819D02*
X133452381Y-57954819D01*
X133452381Y-57954819D02*
X133357143Y-57907200D01*
X133357143Y-57907200D02*
X133309524Y-57859580D01*
X133309524Y-57859580D02*
X133261905Y-57764342D01*
X133261905Y-57764342D02*
X133214286Y-57573866D01*
X133214286Y-57573866D02*
X133214286Y-57335771D01*
X133214286Y-57335771D02*
X133261905Y-57145295D01*
X133261905Y-57145295D02*
X133309524Y-57050057D01*
X133309524Y-57050057D02*
X133357143Y-57002438D01*
X133357143Y-57002438D02*
X133452381Y-56954819D01*
X134404762Y-56954819D02*
X134500000Y-56954819D01*
X134500000Y-56954819D02*
X134595238Y-57002438D01*
X134595238Y-57002438D02*
X134642857Y-57050057D01*
X134642857Y-57050057D02*
X134690476Y-57145295D01*
X134690476Y-57145295D02*
X134738095Y-57335771D01*
X134738095Y-57335771D02*
X134738095Y-57573866D01*
X134738095Y-57573866D02*
X134690476Y-57764342D01*
X134690476Y-57764342D02*
X134642857Y-57859580D01*
X134642857Y-57859580D02*
X134595238Y-57907200D01*
X134595238Y-57907200D02*
X134500000Y-57954819D01*
X134500000Y-57954819D02*
X134404762Y-57954819D01*
X134404762Y-57954819D02*
X134309524Y-57907200D01*
X134309524Y-57907200D02*
X134261905Y-57859580D01*
X134261905Y-57859580D02*
X134214286Y-57764342D01*
X134214286Y-57764342D02*
X134166667Y-57573866D01*
X134166667Y-57573866D02*
X134166667Y-57335771D01*
X134166667Y-57335771D02*
X134214286Y-57145295D01*
X134214286Y-57145295D02*
X134261905Y-57050057D01*
X134261905Y-57050057D02*
X134309524Y-57002438D01*
X134309524Y-57002438D02*
X134404762Y-56954819D01*
X135738095Y-57954819D02*
X135404762Y-57478628D01*
X135166667Y-57954819D02*
X135166667Y-56954819D01*
X135166667Y-56954819D02*
X135547619Y-56954819D01*
X135547619Y-56954819D02*
X135642857Y-57002438D01*
X135642857Y-57002438D02*
X135690476Y-57050057D01*
X135690476Y-57050057D02*
X135738095Y-57145295D01*
X135738095Y-57145295D02*
X135738095Y-57288152D01*
X135738095Y-57288152D02*
X135690476Y-57383390D01*
X135690476Y-57383390D02*
X135642857Y-57431009D01*
X135642857Y-57431009D02*
X135547619Y-57478628D01*
X135547619Y-57478628D02*
X135166667Y-57478628D01*
X151166666Y-55074819D02*
X151166666Y-55789104D01*
X151166666Y-55789104D02*
X151119047Y-55931961D01*
X151119047Y-55931961D02*
X151023809Y-56027200D01*
X151023809Y-56027200D02*
X150880952Y-56074819D01*
X150880952Y-56074819D02*
X150785714Y-56074819D01*
X151547619Y-55074819D02*
X152166666Y-55074819D01*
X152166666Y-55074819D02*
X151833333Y-55455771D01*
X151833333Y-55455771D02*
X151976190Y-55455771D01*
X151976190Y-55455771D02*
X152071428Y-55503390D01*
X152071428Y-55503390D02*
X152119047Y-55551009D01*
X152119047Y-55551009D02*
X152166666Y-55646247D01*
X152166666Y-55646247D02*
X152166666Y-55884342D01*
X152166666Y-55884342D02*
X152119047Y-55979580D01*
X152119047Y-55979580D02*
X152071428Y-56027200D01*
X152071428Y-56027200D02*
X151976190Y-56074819D01*
X151976190Y-56074819D02*
X151690476Y-56074819D01*
X151690476Y-56074819D02*
X151595238Y-56027200D01*
X151595238Y-56027200D02*
X151547619Y-55979580D01*
X129254819Y-50133333D02*
X129969104Y-50133333D01*
X129969104Y-50133333D02*
X130111961Y-50180952D01*
X130111961Y-50180952D02*
X130207200Y-50276190D01*
X130207200Y-50276190D02*
X130254819Y-50419047D01*
X130254819Y-50419047D02*
X130254819Y-50514285D01*
X129254819Y-49228571D02*
X129254819Y-49419047D01*
X129254819Y-49419047D02*
X129302438Y-49514285D01*
X129302438Y-49514285D02*
X129350057Y-49561904D01*
X129350057Y-49561904D02*
X129492914Y-49657142D01*
X129492914Y-49657142D02*
X129683390Y-49704761D01*
X129683390Y-49704761D02*
X130064342Y-49704761D01*
X130064342Y-49704761D02*
X130159580Y-49657142D01*
X130159580Y-49657142D02*
X130207200Y-49609523D01*
X130207200Y-49609523D02*
X130254819Y-49514285D01*
X130254819Y-49514285D02*
X130254819Y-49323809D01*
X130254819Y-49323809D02*
X130207200Y-49228571D01*
X130207200Y-49228571D02*
X130159580Y-49180952D01*
X130159580Y-49180952D02*
X130064342Y-49133333D01*
X130064342Y-49133333D02*
X129826247Y-49133333D01*
X129826247Y-49133333D02*
X129731009Y-49180952D01*
X129731009Y-49180952D02*
X129683390Y-49228571D01*
X129683390Y-49228571D02*
X129635771Y-49323809D01*
X129635771Y-49323809D02*
X129635771Y-49514285D01*
X129635771Y-49514285D02*
X129683390Y-49609523D01*
X129683390Y-49609523D02*
X129731009Y-49657142D01*
X129731009Y-49657142D02*
X129826247Y-49704761D01*
X145054819Y-65166666D02*
X144578628Y-65499999D01*
X145054819Y-65738094D02*
X144054819Y-65738094D01*
X144054819Y-65738094D02*
X144054819Y-65357142D01*
X144054819Y-65357142D02*
X144102438Y-65261904D01*
X144102438Y-65261904D02*
X144150057Y-65214285D01*
X144150057Y-65214285D02*
X144245295Y-65166666D01*
X144245295Y-65166666D02*
X144388152Y-65166666D01*
X144388152Y-65166666D02*
X144483390Y-65214285D01*
X144483390Y-65214285D02*
X144531009Y-65261904D01*
X144531009Y-65261904D02*
X144578628Y-65357142D01*
X144578628Y-65357142D02*
X144578628Y-65738094D01*
X144054819Y-64833332D02*
X144054819Y-64214285D01*
X144054819Y-64214285D02*
X144435771Y-64547618D01*
X144435771Y-64547618D02*
X144435771Y-64404761D01*
X144435771Y-64404761D02*
X144483390Y-64309523D01*
X144483390Y-64309523D02*
X144531009Y-64261904D01*
X144531009Y-64261904D02*
X144626247Y-64214285D01*
X144626247Y-64214285D02*
X144864342Y-64214285D01*
X144864342Y-64214285D02*
X144959580Y-64261904D01*
X144959580Y-64261904D02*
X145007200Y-64309523D01*
X145007200Y-64309523D02*
X145054819Y-64404761D01*
X145054819Y-64404761D02*
X145054819Y-64690475D01*
X145054819Y-64690475D02*
X145007200Y-64785713D01*
X145007200Y-64785713D02*
X144959580Y-64833332D01*
X140976190Y-63188152D02*
X140976190Y-63854819D01*
X140738095Y-62807200D02*
X140500000Y-63521485D01*
X140500000Y-63521485D02*
X141119047Y-63521485D01*
X141500000Y-63759580D02*
X141547619Y-63807200D01*
X141547619Y-63807200D02*
X141500000Y-63854819D01*
X141500000Y-63854819D02*
X141452381Y-63807200D01*
X141452381Y-63807200D02*
X141500000Y-63759580D01*
X141500000Y-63759580D02*
X141500000Y-63854819D01*
X141880952Y-62854819D02*
X142547618Y-62854819D01*
X142547618Y-62854819D02*
X142119047Y-63854819D01*
X142928571Y-63854819D02*
X142928571Y-62854819D01*
X143499999Y-63854819D02*
X143071428Y-63283390D01*
X143499999Y-62854819D02*
X142928571Y-63426247D01*
X145833333Y-59854819D02*
X145500000Y-59378628D01*
X145261905Y-59854819D02*
X145261905Y-58854819D01*
X145261905Y-58854819D02*
X145642857Y-58854819D01*
X145642857Y-58854819D02*
X145738095Y-58902438D01*
X145738095Y-58902438D02*
X145785714Y-58950057D01*
X145785714Y-58950057D02*
X145833333Y-59045295D01*
X145833333Y-59045295D02*
X145833333Y-59188152D01*
X145833333Y-59188152D02*
X145785714Y-59283390D01*
X145785714Y-59283390D02*
X145738095Y-59331009D01*
X145738095Y-59331009D02*
X145642857Y-59378628D01*
X145642857Y-59378628D02*
X145261905Y-59378628D01*
X146690476Y-59188152D02*
X146690476Y-59854819D01*
X146452381Y-58807200D02*
X146214286Y-59521485D01*
X146214286Y-59521485D02*
X146833333Y-59521485D01*
X145309523Y-63154819D02*
X144738095Y-63154819D01*
X145023809Y-63154819D02*
X145023809Y-62154819D01*
X145023809Y-62154819D02*
X144928571Y-62297676D01*
X144928571Y-62297676D02*
X144833333Y-62392914D01*
X144833333Y-62392914D02*
X144738095Y-62440533D01*
X145928571Y-62154819D02*
X146023809Y-62154819D01*
X146023809Y-62154819D02*
X146119047Y-62202438D01*
X146119047Y-62202438D02*
X146166666Y-62250057D01*
X146166666Y-62250057D02*
X146214285Y-62345295D01*
X146214285Y-62345295D02*
X146261904Y-62535771D01*
X146261904Y-62535771D02*
X146261904Y-62773866D01*
X146261904Y-62773866D02*
X146214285Y-62964342D01*
X146214285Y-62964342D02*
X146166666Y-63059580D01*
X146166666Y-63059580D02*
X146119047Y-63107200D01*
X146119047Y-63107200D02*
X146023809Y-63154819D01*
X146023809Y-63154819D02*
X145928571Y-63154819D01*
X145928571Y-63154819D02*
X145833333Y-63107200D01*
X145833333Y-63107200D02*
X145785714Y-63059580D01*
X145785714Y-63059580D02*
X145738095Y-62964342D01*
X145738095Y-62964342D02*
X145690476Y-62773866D01*
X145690476Y-62773866D02*
X145690476Y-62535771D01*
X145690476Y-62535771D02*
X145738095Y-62345295D01*
X145738095Y-62345295D02*
X145785714Y-62250057D01*
X145785714Y-62250057D02*
X145833333Y-62202438D01*
X145833333Y-62202438D02*
X145928571Y-62154819D01*
X146690476Y-63154819D02*
X146690476Y-62154819D01*
X147261904Y-63154819D02*
X146833333Y-62583390D01*
X147261904Y-62154819D02*
X146690476Y-62726247D01*
X147454819Y-70333333D02*
X148169104Y-70333333D01*
X148169104Y-70333333D02*
X148311961Y-70380952D01*
X148311961Y-70380952D02*
X148407200Y-70476190D01*
X148407200Y-70476190D02*
X148454819Y-70619047D01*
X148454819Y-70619047D02*
X148454819Y-70714285D01*
X147550057Y-69904761D02*
X147502438Y-69857142D01*
X147502438Y-69857142D02*
X147454819Y-69761904D01*
X147454819Y-69761904D02*
X147454819Y-69523809D01*
X147454819Y-69523809D02*
X147502438Y-69428571D01*
X147502438Y-69428571D02*
X147550057Y-69380952D01*
X147550057Y-69380952D02*
X147645295Y-69333333D01*
X147645295Y-69333333D02*
X147740533Y-69333333D01*
X147740533Y-69333333D02*
X147883390Y-69380952D01*
X147883390Y-69380952D02*
X148454819Y-69952380D01*
X148454819Y-69952380D02*
X148454819Y-69333333D01*
X125166666Y-51254819D02*
X125166666Y-51969104D01*
X125166666Y-51969104D02*
X125119047Y-52111961D01*
X125119047Y-52111961D02*
X125023809Y-52207200D01*
X125023809Y-52207200D02*
X124880952Y-52254819D01*
X124880952Y-52254819D02*
X124785714Y-52254819D01*
X126071428Y-51588152D02*
X126071428Y-52254819D01*
X125833333Y-51207200D02*
X125595238Y-51921485D01*
X125595238Y-51921485D02*
X126214285Y-51921485D01*
X135954819Y-65166666D02*
X135478628Y-65499999D01*
X135954819Y-65738094D02*
X134954819Y-65738094D01*
X134954819Y-65738094D02*
X134954819Y-65357142D01*
X134954819Y-65357142D02*
X135002438Y-65261904D01*
X135002438Y-65261904D02*
X135050057Y-65214285D01*
X135050057Y-65214285D02*
X135145295Y-65166666D01*
X135145295Y-65166666D02*
X135288152Y-65166666D01*
X135288152Y-65166666D02*
X135383390Y-65214285D01*
X135383390Y-65214285D02*
X135431009Y-65261904D01*
X135431009Y-65261904D02*
X135478628Y-65357142D01*
X135478628Y-65357142D02*
X135478628Y-65738094D01*
X135050057Y-64785713D02*
X135002438Y-64738094D01*
X135002438Y-64738094D02*
X134954819Y-64642856D01*
X134954819Y-64642856D02*
X134954819Y-64404761D01*
X134954819Y-64404761D02*
X135002438Y-64309523D01*
X135002438Y-64309523D02*
X135050057Y-64261904D01*
X135050057Y-64261904D02*
X135145295Y-64214285D01*
X135145295Y-64214285D02*
X135240533Y-64214285D01*
X135240533Y-64214285D02*
X135383390Y-64261904D01*
X135383390Y-64261904D02*
X135954819Y-64833332D01*
X135954819Y-64833332D02*
X135954819Y-64214285D01*
X136976190Y-63188152D02*
X136976190Y-63854819D01*
X136738095Y-62807200D02*
X136500000Y-63521485D01*
X136500000Y-63521485D02*
X137119047Y-63521485D01*
X137500000Y-63759580D02*
X137547619Y-63807200D01*
X137547619Y-63807200D02*
X137500000Y-63854819D01*
X137500000Y-63854819D02*
X137452381Y-63807200D01*
X137452381Y-63807200D02*
X137500000Y-63759580D01*
X137500000Y-63759580D02*
X137500000Y-63854819D01*
X137880952Y-62854819D02*
X138547618Y-62854819D01*
X138547618Y-62854819D02*
X138119047Y-63854819D01*
X138928571Y-63854819D02*
X138928571Y-62854819D01*
X139499999Y-63854819D02*
X139071428Y-63283390D01*
X139499999Y-62854819D02*
X138928571Y-63426247D01*
D12*
%TO.C,R5*%
X133772936Y-60265000D02*
X134227064Y-60265000D01*
X133772936Y-61735000D02*
X134227064Y-61735000D01*
%TO.C,U1*%
X137940000Y-57440000D02*
X142060000Y-57440000D01*
X137940000Y-57535000D02*
X137940000Y-57440000D01*
X137940000Y-62560000D02*
X137940000Y-62465000D01*
X142060000Y-57440000D02*
X142060000Y-57535000D01*
X142060000Y-62465000D02*
X142060000Y-62560000D01*
X142060000Y-62560000D02*
X137940000Y-62560000D01*
X137400000Y-57530000D02*
X137160000Y-57200000D01*
X137640000Y-57200000D01*
X137400000Y-57530000D01*
G36*
X137400000Y-57530000D02*
G01*
X137160000Y-57200000D01*
X137640000Y-57200000D01*
X137400000Y-57530000D01*
G37*
%TO.C,F1*%
X132661252Y-55090000D02*
X132138748Y-55090000D01*
X132661252Y-56510000D02*
X132138748Y-56510000D01*
%TO.C,J1*%
X139810000Y-53380000D02*
X139810000Y-52000000D01*
X141190000Y-53380000D02*
X139810000Y-53380000D01*
X142460000Y-50620000D02*
X150190000Y-50620000D01*
X142460000Y-53380000D02*
X142460000Y-50620000D01*
X142460000Y-53380000D02*
X150190000Y-53380000D01*
X150190000Y-53380000D02*
X150190000Y-50620000D01*
%TO.C,J5*%
X123250000Y-73100000D02*
X123250000Y-74350000D01*
X123250000Y-74350000D02*
X124500000Y-74350000D01*
X125800000Y-63950000D02*
X125800000Y-64700000D01*
X125800000Y-64700000D02*
X128750000Y-64700000D01*
X125800000Y-73300000D02*
X128750000Y-73300000D01*
X125800000Y-74050000D02*
X125800000Y-73300000D01*
X128750000Y-64700000D02*
X128750000Y-69000000D01*
X128750000Y-73300000D02*
X128750000Y-69000000D01*
X123540000Y-74060000D02*
X129510000Y-74060000D01*
X129510000Y-63940000D01*
X123540000Y-63940000D01*
X123540000Y-74060000D01*
X123550000Y-65750000D02*
X124300000Y-65750000D01*
X124300000Y-63950000D01*
X123550000Y-63950000D01*
X123550000Y-65750000D01*
X123550000Y-70750000D02*
X124300000Y-70750000D01*
X124300000Y-67250000D01*
X123550000Y-67250000D01*
X123550000Y-70750000D01*
X123550000Y-74050000D02*
X124300000Y-74050000D01*
X124300000Y-72250000D01*
X123550000Y-72250000D01*
X123550000Y-74050000D01*
%TO.C,C14*%
X148261252Y-65265000D02*
X147738748Y-65265000D01*
X148261252Y-66735000D02*
X147738748Y-66735000D01*
%TO.C,R1*%
X133772936Y-58265000D02*
X134227064Y-58265000D01*
X133772936Y-59735000D02*
X134227064Y-59735000D01*
%TO.C,J3*%
X150120000Y-56620000D02*
X151500000Y-56620000D01*
X150120000Y-58000000D02*
X150120000Y-56620000D01*
X150120000Y-59270000D02*
X150120000Y-61920000D01*
X150120000Y-59270000D02*
X152880000Y-59270000D01*
X150120000Y-61920000D02*
X152880000Y-61920000D01*
X152880000Y-59270000D02*
X152880000Y-61920000D01*
%TO.C,J6*%
X130950000Y-51200000D02*
X131700000Y-51200000D01*
X131700000Y-48250000D02*
X134750000Y-48250000D01*
X131700000Y-51200000D02*
X131700000Y-48250000D01*
X137600000Y-53750000D02*
X138850000Y-53750000D01*
X137800000Y-48250000D02*
X134750000Y-48250000D01*
X137800000Y-51200000D02*
X137800000Y-48250000D01*
X138550000Y-51200000D02*
X137800000Y-51200000D01*
X138850000Y-53750000D02*
X138850000Y-52500000D01*
X132750000Y-53450000D02*
X130950000Y-53450000D01*
X130950000Y-52700000D01*
X132750000Y-52700000D01*
X132750000Y-53450000D01*
X135250000Y-53450000D02*
X134250000Y-53450000D01*
X134250000Y-52700000D01*
X135250000Y-52700000D01*
X135250000Y-53450000D01*
X138550000Y-53450000D02*
X136750000Y-53450000D01*
X136750000Y-52700000D01*
X138550000Y-52700000D01*
X138550000Y-53450000D01*
X138560000Y-53460000D02*
X130940000Y-53460000D01*
X130940000Y-47490000D01*
X138560000Y-47490000D01*
X138560000Y-53460000D01*
%TO.C,R3*%
X141772936Y-64265000D02*
X142227064Y-64265000D01*
X141772936Y-65735000D02*
X142227064Y-65735000D01*
%TO.C,R4*%
X146227064Y-60265000D02*
X145772936Y-60265000D01*
X146227064Y-61735000D02*
X145772936Y-61735000D01*
%TO.C,J2*%
X133650000Y-67250000D02*
X133650000Y-68500000D01*
X133950000Y-69800000D02*
X134700000Y-69800000D01*
X134700000Y-69800000D02*
X134700000Y-72750000D01*
X134700000Y-72750000D02*
X140250000Y-72750000D01*
X134900000Y-67250000D02*
X133650000Y-67250000D01*
X145800000Y-69800000D02*
X145800000Y-72750000D01*
X145800000Y-72750000D02*
X140250000Y-72750000D01*
X146550000Y-69800000D02*
X145800000Y-69800000D01*
X133940000Y-67540000D02*
X146560000Y-67540000D01*
X146560000Y-73510000D01*
X133940000Y-73510000D01*
X133940000Y-67540000D01*
X133950000Y-67550000D02*
X135750000Y-67550000D01*
X135750000Y-68300000D01*
X133950000Y-68300000D01*
X133950000Y-67550000D01*
X137250000Y-67550000D02*
X143250000Y-67550000D01*
X143250000Y-68300000D01*
X137250000Y-68300000D01*
X137250000Y-67550000D01*
X144750000Y-67550000D02*
X146550000Y-67550000D01*
X146550000Y-68300000D01*
X144750000Y-68300000D01*
X144750000Y-67550000D01*
%TO.C,J4*%
X123250000Y-62100000D02*
X123250000Y-63350000D01*
X123250000Y-63350000D02*
X124500000Y-63350000D01*
X125800000Y-52950000D02*
X125800000Y-53700000D01*
X125800000Y-53700000D02*
X128750000Y-53700000D01*
X125800000Y-62300000D02*
X128750000Y-62300000D01*
X125800000Y-63050000D02*
X125800000Y-62300000D01*
X128750000Y-53700000D02*
X128750000Y-58000000D01*
X128750000Y-62300000D02*
X128750000Y-58000000D01*
X123540000Y-63060000D02*
X129510000Y-63060000D01*
X129510000Y-52940000D01*
X123540000Y-52940000D01*
X123540000Y-63060000D01*
X123550000Y-54750000D02*
X124300000Y-54750000D01*
X124300000Y-52950000D01*
X123550000Y-52950000D01*
X123550000Y-54750000D01*
X123550000Y-59750000D02*
X124300000Y-59750000D01*
X124300000Y-56250000D01*
X123550000Y-56250000D01*
X123550000Y-59750000D01*
X123550000Y-63050000D02*
X124300000Y-63050000D01*
X124300000Y-61250000D01*
X123550000Y-61250000D01*
X123550000Y-63050000D01*
%TO.C,R2*%
X138227064Y-64265000D02*
X137772936Y-64265000D01*
X138227064Y-65735000D02*
X137772936Y-65735000D01*
%TD*%
M02*
