%TF.GenerationSoftware,KiCad,Pcbnew,9.0.7*%
%TF.CreationDate,2026-03-13T10:40:51+01:00*%
%TF.ProjectId,MPC_Servo,4d50435f-5365-4727-966f-2e6b69636164,rev?*%
%TF.SameCoordinates,Original*%
%TF.FileFunction,Legend,Top*%
%TF.FilePolarity,Positive*%
%FSLAX46Y46*%
G04 Gerber Fmt 4.6, Leading zero omitted, Abs format (unit mm)*
G04 Created by KiCad (PCBNEW 9.0.7) date 2026-03-13 10:40:51*
%MOMM*%
%LPD*%
G01*
G04 APERTURE LIST*
%ADD10C,0.150000*%
%ADD11C,0.120000*%
G04 APERTURE END LIST*
D10*
X122038095Y-52454819D02*
X122038095Y-51454819D01*
X122038095Y-51931009D02*
X122609523Y-51931009D01*
X122609523Y-52454819D02*
X122609523Y-51454819D01*
X123038095Y-51550057D02*
X123085714Y-51502438D01*
X123085714Y-51502438D02*
X123180952Y-51454819D01*
X123180952Y-51454819D02*
X123419047Y-51454819D01*
X123419047Y-51454819D02*
X123514285Y-51502438D01*
X123514285Y-51502438D02*
X123561904Y-51550057D01*
X123561904Y-51550057D02*
X123609523Y-51645295D01*
X123609523Y-51645295D02*
X123609523Y-51740533D01*
X123609523Y-51740533D02*
X123561904Y-51883390D01*
X123561904Y-51883390D02*
X122990476Y-52454819D01*
X122990476Y-52454819D02*
X123609523Y-52454819D01*
X139238095Y-56054819D02*
X139238095Y-56864342D01*
X139238095Y-56864342D02*
X139285714Y-56959580D01*
X139285714Y-56959580D02*
X139333333Y-57007200D01*
X139333333Y-57007200D02*
X139428571Y-57054819D01*
X139428571Y-57054819D02*
X139619047Y-57054819D01*
X139619047Y-57054819D02*
X139714285Y-57007200D01*
X139714285Y-57007200D02*
X139761904Y-56959580D01*
X139761904Y-56959580D02*
X139809523Y-56864342D01*
X139809523Y-56864342D02*
X139809523Y-56054819D01*
X140809523Y-57054819D02*
X140238095Y-57054819D01*
X140523809Y-57054819D02*
X140523809Y-56054819D01*
X140523809Y-56054819D02*
X140428571Y-56197676D01*
X140428571Y-56197676D02*
X140333333Y-56292914D01*
X140333333Y-56292914D02*
X140238095Y-56340533D01*
X136923809Y-55169104D02*
X137399999Y-55169104D01*
X136828571Y-55454819D02*
X137161904Y-54454819D01*
X137161904Y-54454819D02*
X137495237Y-55454819D01*
X137685714Y-54454819D02*
X138257142Y-54454819D01*
X137971428Y-55454819D02*
X137971428Y-54454819D01*
X138447619Y-54788152D02*
X138828571Y-54788152D01*
X138590476Y-54454819D02*
X138590476Y-55311961D01*
X138590476Y-55311961D02*
X138638095Y-55407200D01*
X138638095Y-55407200D02*
X138733333Y-55454819D01*
X138733333Y-55454819D02*
X138828571Y-55454819D01*
X139161905Y-55454819D02*
X139161905Y-54788152D01*
X139161905Y-54454819D02*
X139114286Y-54502438D01*
X139114286Y-54502438D02*
X139161905Y-54550057D01*
X139161905Y-54550057D02*
X139209524Y-54502438D01*
X139209524Y-54502438D02*
X139161905Y-54454819D01*
X139161905Y-54454819D02*
X139161905Y-54550057D01*
X139638095Y-54788152D02*
X139638095Y-55454819D01*
X139638095Y-54883390D02*
X139685714Y-54835771D01*
X139685714Y-54835771D02*
X139780952Y-54788152D01*
X139780952Y-54788152D02*
X139923809Y-54788152D01*
X139923809Y-54788152D02*
X140019047Y-54835771D01*
X140019047Y-54835771D02*
X140066666Y-54931009D01*
X140066666Y-54931009D02*
X140066666Y-55454819D01*
X140447619Y-54788152D02*
X140685714Y-55454819D01*
X140923809Y-54788152D02*
X140685714Y-55454819D01*
X140685714Y-55454819D02*
X140590476Y-55692914D01*
X140590476Y-55692914D02*
X140542857Y-55740533D01*
X140542857Y-55740533D02*
X140447619Y-55788152D01*
X141257143Y-54550057D02*
X141304762Y-54502438D01*
X141304762Y-54502438D02*
X141400000Y-54454819D01*
X141400000Y-54454819D02*
X141638095Y-54454819D01*
X141638095Y-54454819D02*
X141733333Y-54502438D01*
X141733333Y-54502438D02*
X141780952Y-54550057D01*
X141780952Y-54550057D02*
X141828571Y-54645295D01*
X141828571Y-54645295D02*
X141828571Y-54740533D01*
X141828571Y-54740533D02*
X141780952Y-54883390D01*
X141780952Y-54883390D02*
X141209524Y-55454819D01*
X141209524Y-55454819D02*
X141828571Y-55454819D01*
X142447619Y-54454819D02*
X142542857Y-54454819D01*
X142542857Y-54454819D02*
X142638095Y-54502438D01*
X142638095Y-54502438D02*
X142685714Y-54550057D01*
X142685714Y-54550057D02*
X142733333Y-54645295D01*
X142733333Y-54645295D02*
X142780952Y-54835771D01*
X142780952Y-54835771D02*
X142780952Y-55073866D01*
X142780952Y-55073866D02*
X142733333Y-55264342D01*
X142733333Y-55264342D02*
X142685714Y-55359580D01*
X142685714Y-55359580D02*
X142638095Y-55407200D01*
X142638095Y-55407200D02*
X142542857Y-55454819D01*
X142542857Y-55454819D02*
X142447619Y-55454819D01*
X142447619Y-55454819D02*
X142352381Y-55407200D01*
X142352381Y-55407200D02*
X142304762Y-55359580D01*
X142304762Y-55359580D02*
X142257143Y-55264342D01*
X142257143Y-55264342D02*
X142209524Y-55073866D01*
X142209524Y-55073866D02*
X142209524Y-54835771D01*
X142209524Y-54835771D02*
X142257143Y-54645295D01*
X142257143Y-54645295D02*
X142304762Y-54550057D01*
X142304762Y-54550057D02*
X142352381Y-54502438D01*
X142352381Y-54502438D02*
X142447619Y-54454819D01*
X143161905Y-54550057D02*
X143209524Y-54502438D01*
X143209524Y-54502438D02*
X143304762Y-54454819D01*
X143304762Y-54454819D02*
X143542857Y-54454819D01*
X143542857Y-54454819D02*
X143638095Y-54502438D01*
X143638095Y-54502438D02*
X143685714Y-54550057D01*
X143685714Y-54550057D02*
X143733333Y-54645295D01*
X143733333Y-54645295D02*
X143733333Y-54740533D01*
X143733333Y-54740533D02*
X143685714Y-54883390D01*
X143685714Y-54883390D02*
X143114286Y-55454819D01*
X143114286Y-55454819D02*
X143733333Y-55454819D01*
X144161905Y-55073866D02*
X144923810Y-55073866D01*
X145352381Y-55407200D02*
X145495238Y-55454819D01*
X145495238Y-55454819D02*
X145733333Y-55454819D01*
X145733333Y-55454819D02*
X145828571Y-55407200D01*
X145828571Y-55407200D02*
X145876190Y-55359580D01*
X145876190Y-55359580D02*
X145923809Y-55264342D01*
X145923809Y-55264342D02*
X145923809Y-55169104D01*
X145923809Y-55169104D02*
X145876190Y-55073866D01*
X145876190Y-55073866D02*
X145828571Y-55026247D01*
X145828571Y-55026247D02*
X145733333Y-54978628D01*
X145733333Y-54978628D02*
X145542857Y-54931009D01*
X145542857Y-54931009D02*
X145447619Y-54883390D01*
X145447619Y-54883390D02*
X145400000Y-54835771D01*
X145400000Y-54835771D02*
X145352381Y-54740533D01*
X145352381Y-54740533D02*
X145352381Y-54645295D01*
X145352381Y-54645295D02*
X145400000Y-54550057D01*
X145400000Y-54550057D02*
X145447619Y-54502438D01*
X145447619Y-54502438D02*
X145542857Y-54454819D01*
X145542857Y-54454819D02*
X145780952Y-54454819D01*
X145780952Y-54454819D02*
X145923809Y-54502438D01*
X146304762Y-55407200D02*
X146447619Y-55454819D01*
X146447619Y-55454819D02*
X146685714Y-55454819D01*
X146685714Y-55454819D02*
X146780952Y-55407200D01*
X146780952Y-55407200D02*
X146828571Y-55359580D01*
X146828571Y-55359580D02*
X146876190Y-55264342D01*
X146876190Y-55264342D02*
X146876190Y-55169104D01*
X146876190Y-55169104D02*
X146828571Y-55073866D01*
X146828571Y-55073866D02*
X146780952Y-55026247D01*
X146780952Y-55026247D02*
X146685714Y-54978628D01*
X146685714Y-54978628D02*
X146495238Y-54931009D01*
X146495238Y-54931009D02*
X146400000Y-54883390D01*
X146400000Y-54883390D02*
X146352381Y-54835771D01*
X146352381Y-54835771D02*
X146304762Y-54740533D01*
X146304762Y-54740533D02*
X146304762Y-54645295D01*
X146304762Y-54645295D02*
X146352381Y-54550057D01*
X146352381Y-54550057D02*
X146400000Y-54502438D01*
X146400000Y-54502438D02*
X146495238Y-54454819D01*
X146495238Y-54454819D02*
X146733333Y-54454819D01*
X146733333Y-54454819D02*
X146876190Y-54502438D01*
X130833333Y-61454819D02*
X130500000Y-60978628D01*
X130261905Y-61454819D02*
X130261905Y-60454819D01*
X130261905Y-60454819D02*
X130642857Y-60454819D01*
X130642857Y-60454819D02*
X130738095Y-60502438D01*
X130738095Y-60502438D02*
X130785714Y-60550057D01*
X130785714Y-60550057D02*
X130833333Y-60645295D01*
X130833333Y-60645295D02*
X130833333Y-60788152D01*
X130833333Y-60788152D02*
X130785714Y-60883390D01*
X130785714Y-60883390D02*
X130738095Y-60931009D01*
X130738095Y-60931009D02*
X130642857Y-60978628D01*
X130642857Y-60978628D02*
X130261905Y-60978628D01*
X131738095Y-60454819D02*
X131261905Y-60454819D01*
X131261905Y-60454819D02*
X131214286Y-60931009D01*
X131214286Y-60931009D02*
X131261905Y-60883390D01*
X131261905Y-60883390D02*
X131357143Y-60835771D01*
X131357143Y-60835771D02*
X131595238Y-60835771D01*
X131595238Y-60835771D02*
X131690476Y-60883390D01*
X131690476Y-60883390D02*
X131738095Y-60931009D01*
X131738095Y-60931009D02*
X131785714Y-61026247D01*
X131785714Y-61026247D02*
X131785714Y-61264342D01*
X131785714Y-61264342D02*
X131738095Y-61359580D01*
X131738095Y-61359580D02*
X131690476Y-61407200D01*
X131690476Y-61407200D02*
X131595238Y-61454819D01*
X131595238Y-61454819D02*
X131357143Y-61454819D01*
X131357143Y-61454819D02*
X131261905Y-61407200D01*
X131261905Y-61407200D02*
X131214286Y-61359580D01*
X132833333Y-63104819D02*
X132261905Y-63104819D01*
X132547619Y-63104819D02*
X132547619Y-62104819D01*
X132547619Y-62104819D02*
X132452381Y-62247676D01*
X132452381Y-62247676D02*
X132357143Y-62342914D01*
X132357143Y-62342914D02*
X132261905Y-62390533D01*
X133452381Y-62104819D02*
X133547619Y-62104819D01*
X133547619Y-62104819D02*
X133642857Y-62152438D01*
X133642857Y-62152438D02*
X133690476Y-62200057D01*
X133690476Y-62200057D02*
X133738095Y-62295295D01*
X133738095Y-62295295D02*
X133785714Y-62485771D01*
X133785714Y-62485771D02*
X133785714Y-62723866D01*
X133785714Y-62723866D02*
X133738095Y-62914342D01*
X133738095Y-62914342D02*
X133690476Y-63009580D01*
X133690476Y-63009580D02*
X133642857Y-63057200D01*
X133642857Y-63057200D02*
X133547619Y-63104819D01*
X133547619Y-63104819D02*
X133452381Y-63104819D01*
X133452381Y-63104819D02*
X133357143Y-63057200D01*
X133357143Y-63057200D02*
X133309524Y-63009580D01*
X133309524Y-63009580D02*
X133261905Y-62914342D01*
X133261905Y-62914342D02*
X133214286Y-62723866D01*
X133214286Y-62723866D02*
X133214286Y-62485771D01*
X133214286Y-62485771D02*
X133261905Y-62295295D01*
X133261905Y-62295295D02*
X133309524Y-62200057D01*
X133309524Y-62200057D02*
X133357143Y-62152438D01*
X133357143Y-62152438D02*
X133452381Y-62104819D01*
X134404762Y-62104819D02*
X134500000Y-62104819D01*
X134500000Y-62104819D02*
X134595238Y-62152438D01*
X134595238Y-62152438D02*
X134642857Y-62200057D01*
X134642857Y-62200057D02*
X134690476Y-62295295D01*
X134690476Y-62295295D02*
X134738095Y-62485771D01*
X134738095Y-62485771D02*
X134738095Y-62723866D01*
X134738095Y-62723866D02*
X134690476Y-62914342D01*
X134690476Y-62914342D02*
X134642857Y-63009580D01*
X134642857Y-63009580D02*
X134595238Y-63057200D01*
X134595238Y-63057200D02*
X134500000Y-63104819D01*
X134500000Y-63104819D02*
X134404762Y-63104819D01*
X134404762Y-63104819D02*
X134309524Y-63057200D01*
X134309524Y-63057200D02*
X134261905Y-63009580D01*
X134261905Y-63009580D02*
X134214286Y-62914342D01*
X134214286Y-62914342D02*
X134166667Y-62723866D01*
X134166667Y-62723866D02*
X134166667Y-62485771D01*
X134166667Y-62485771D02*
X134214286Y-62295295D01*
X134214286Y-62295295D02*
X134261905Y-62200057D01*
X134261905Y-62200057D02*
X134309524Y-62152438D01*
X134309524Y-62152438D02*
X134404762Y-62104819D01*
X135738095Y-63104819D02*
X135404762Y-62628628D01*
X135166667Y-63104819D02*
X135166667Y-62104819D01*
X135166667Y-62104819D02*
X135547619Y-62104819D01*
X135547619Y-62104819D02*
X135642857Y-62152438D01*
X135642857Y-62152438D02*
X135690476Y-62200057D01*
X135690476Y-62200057D02*
X135738095Y-62295295D01*
X135738095Y-62295295D02*
X135738095Y-62438152D01*
X135738095Y-62438152D02*
X135690476Y-62533390D01*
X135690476Y-62533390D02*
X135642857Y-62581009D01*
X135642857Y-62581009D02*
X135547619Y-62628628D01*
X135547619Y-62628628D02*
X135166667Y-62628628D01*
X145833333Y-59854819D02*
X145500000Y-59378628D01*
X145261905Y-59854819D02*
X145261905Y-58854819D01*
X145261905Y-58854819D02*
X145642857Y-58854819D01*
X145642857Y-58854819D02*
X145738095Y-58902438D01*
X145738095Y-58902438D02*
X145785714Y-58950057D01*
X145785714Y-58950057D02*
X145833333Y-59045295D01*
X145833333Y-59045295D02*
X145833333Y-59188152D01*
X145833333Y-59188152D02*
X145785714Y-59283390D01*
X145785714Y-59283390D02*
X145738095Y-59331009D01*
X145738095Y-59331009D02*
X145642857Y-59378628D01*
X145642857Y-59378628D02*
X145261905Y-59378628D01*
X146690476Y-59188152D02*
X146690476Y-59854819D01*
X146452381Y-58807200D02*
X146214286Y-59521485D01*
X146214286Y-59521485D02*
X146833333Y-59521485D01*
X145309523Y-63154819D02*
X144738095Y-63154819D01*
X145023809Y-63154819D02*
X145023809Y-62154819D01*
X145023809Y-62154819D02*
X144928571Y-62297676D01*
X144928571Y-62297676D02*
X144833333Y-62392914D01*
X144833333Y-62392914D02*
X144738095Y-62440533D01*
X145928571Y-62154819D02*
X146023809Y-62154819D01*
X146023809Y-62154819D02*
X146119047Y-62202438D01*
X146119047Y-62202438D02*
X146166666Y-62250057D01*
X146166666Y-62250057D02*
X146214285Y-62345295D01*
X146214285Y-62345295D02*
X146261904Y-62535771D01*
X146261904Y-62535771D02*
X146261904Y-62773866D01*
X146261904Y-62773866D02*
X146214285Y-62964342D01*
X146214285Y-62964342D02*
X146166666Y-63059580D01*
X146166666Y-63059580D02*
X146119047Y-63107200D01*
X146119047Y-63107200D02*
X146023809Y-63154819D01*
X146023809Y-63154819D02*
X145928571Y-63154819D01*
X145928571Y-63154819D02*
X145833333Y-63107200D01*
X145833333Y-63107200D02*
X145785714Y-63059580D01*
X145785714Y-63059580D02*
X145738095Y-62964342D01*
X145738095Y-62964342D02*
X145690476Y-62773866D01*
X145690476Y-62773866D02*
X145690476Y-62535771D01*
X145690476Y-62535771D02*
X145738095Y-62345295D01*
X145738095Y-62345295D02*
X145785714Y-62250057D01*
X145785714Y-62250057D02*
X145833333Y-62202438D01*
X145833333Y-62202438D02*
X145928571Y-62154819D01*
X146690476Y-63154819D02*
X146690476Y-62154819D01*
X147261904Y-63154819D02*
X146833333Y-62583390D01*
X147261904Y-62154819D02*
X146690476Y-62726247D01*
X141833333Y-63854819D02*
X141500000Y-63378628D01*
X141261905Y-63854819D02*
X141261905Y-62854819D01*
X141261905Y-62854819D02*
X141642857Y-62854819D01*
X141642857Y-62854819D02*
X141738095Y-62902438D01*
X141738095Y-62902438D02*
X141785714Y-62950057D01*
X141785714Y-62950057D02*
X141833333Y-63045295D01*
X141833333Y-63045295D02*
X141833333Y-63188152D01*
X141833333Y-63188152D02*
X141785714Y-63283390D01*
X141785714Y-63283390D02*
X141738095Y-63331009D01*
X141738095Y-63331009D02*
X141642857Y-63378628D01*
X141642857Y-63378628D02*
X141261905Y-63378628D01*
X142166667Y-62854819D02*
X142785714Y-62854819D01*
X142785714Y-62854819D02*
X142452381Y-63235771D01*
X142452381Y-63235771D02*
X142595238Y-63235771D01*
X142595238Y-63235771D02*
X142690476Y-63283390D01*
X142690476Y-63283390D02*
X142738095Y-63331009D01*
X142738095Y-63331009D02*
X142785714Y-63426247D01*
X142785714Y-63426247D02*
X142785714Y-63664342D01*
X142785714Y-63664342D02*
X142738095Y-63759580D01*
X142738095Y-63759580D02*
X142690476Y-63807200D01*
X142690476Y-63807200D02*
X142595238Y-63854819D01*
X142595238Y-63854819D02*
X142309524Y-63854819D01*
X142309524Y-63854819D02*
X142214286Y-63807200D01*
X142214286Y-63807200D02*
X142166667Y-63759580D01*
X140976190Y-66488152D02*
X140976190Y-67154819D01*
X140738095Y-66107200D02*
X140500000Y-66821485D01*
X140500000Y-66821485D02*
X141119047Y-66821485D01*
X141500000Y-67059580D02*
X141547619Y-67107200D01*
X141547619Y-67107200D02*
X141500000Y-67154819D01*
X141500000Y-67154819D02*
X141452381Y-67107200D01*
X141452381Y-67107200D02*
X141500000Y-67059580D01*
X141500000Y-67059580D02*
X141500000Y-67154819D01*
X141880952Y-66154819D02*
X142547618Y-66154819D01*
X142547618Y-66154819D02*
X142119047Y-67154819D01*
X142928571Y-67154819D02*
X142928571Y-66154819D01*
X143499999Y-67154819D02*
X143071428Y-66583390D01*
X143499999Y-66154819D02*
X142928571Y-66726247D01*
X137833333Y-63854819D02*
X137500000Y-63378628D01*
X137261905Y-63854819D02*
X137261905Y-62854819D01*
X137261905Y-62854819D02*
X137642857Y-62854819D01*
X137642857Y-62854819D02*
X137738095Y-62902438D01*
X137738095Y-62902438D02*
X137785714Y-62950057D01*
X137785714Y-62950057D02*
X137833333Y-63045295D01*
X137833333Y-63045295D02*
X137833333Y-63188152D01*
X137833333Y-63188152D02*
X137785714Y-63283390D01*
X137785714Y-63283390D02*
X137738095Y-63331009D01*
X137738095Y-63331009D02*
X137642857Y-63378628D01*
X137642857Y-63378628D02*
X137261905Y-63378628D01*
X138214286Y-62950057D02*
X138261905Y-62902438D01*
X138261905Y-62902438D02*
X138357143Y-62854819D01*
X138357143Y-62854819D02*
X138595238Y-62854819D01*
X138595238Y-62854819D02*
X138690476Y-62902438D01*
X138690476Y-62902438D02*
X138738095Y-62950057D01*
X138738095Y-62950057D02*
X138785714Y-63045295D01*
X138785714Y-63045295D02*
X138785714Y-63140533D01*
X138785714Y-63140533D02*
X138738095Y-63283390D01*
X138738095Y-63283390D02*
X138166667Y-63854819D01*
X138166667Y-63854819D02*
X138785714Y-63854819D01*
X136976190Y-66488152D02*
X136976190Y-67154819D01*
X136738095Y-66107200D02*
X136500000Y-66821485D01*
X136500000Y-66821485D02*
X137119047Y-66821485D01*
X137500000Y-67059580D02*
X137547619Y-67107200D01*
X137547619Y-67107200D02*
X137500000Y-67154819D01*
X137500000Y-67154819D02*
X137452381Y-67107200D01*
X137452381Y-67107200D02*
X137500000Y-67059580D01*
X137500000Y-67059580D02*
X137500000Y-67154819D01*
X137880952Y-66154819D02*
X138547618Y-66154819D01*
X138547618Y-66154819D02*
X138119047Y-67154819D01*
X138928571Y-67154819D02*
X138928571Y-66154819D01*
X139499999Y-67154819D02*
X139071428Y-66583390D01*
X139499999Y-66154819D02*
X138928571Y-66726247D01*
X130833333Y-59454819D02*
X130500000Y-58978628D01*
X130261905Y-59454819D02*
X130261905Y-58454819D01*
X130261905Y-58454819D02*
X130642857Y-58454819D01*
X130642857Y-58454819D02*
X130738095Y-58502438D01*
X130738095Y-58502438D02*
X130785714Y-58550057D01*
X130785714Y-58550057D02*
X130833333Y-58645295D01*
X130833333Y-58645295D02*
X130833333Y-58788152D01*
X130833333Y-58788152D02*
X130785714Y-58883390D01*
X130785714Y-58883390D02*
X130738095Y-58931009D01*
X130738095Y-58931009D02*
X130642857Y-58978628D01*
X130642857Y-58978628D02*
X130261905Y-58978628D01*
X131785714Y-59454819D02*
X131214286Y-59454819D01*
X131500000Y-59454819D02*
X131500000Y-58454819D01*
X131500000Y-58454819D02*
X131404762Y-58597676D01*
X131404762Y-58597676D02*
X131309524Y-58692914D01*
X131309524Y-58692914D02*
X131214286Y-58740533D01*
X132833333Y-57454819D02*
X132261905Y-57454819D01*
X132547619Y-57454819D02*
X132547619Y-56454819D01*
X132547619Y-56454819D02*
X132452381Y-56597676D01*
X132452381Y-56597676D02*
X132357143Y-56692914D01*
X132357143Y-56692914D02*
X132261905Y-56740533D01*
X133452381Y-56454819D02*
X133547619Y-56454819D01*
X133547619Y-56454819D02*
X133642857Y-56502438D01*
X133642857Y-56502438D02*
X133690476Y-56550057D01*
X133690476Y-56550057D02*
X133738095Y-56645295D01*
X133738095Y-56645295D02*
X133785714Y-56835771D01*
X133785714Y-56835771D02*
X133785714Y-57073866D01*
X133785714Y-57073866D02*
X133738095Y-57264342D01*
X133738095Y-57264342D02*
X133690476Y-57359580D01*
X133690476Y-57359580D02*
X133642857Y-57407200D01*
X133642857Y-57407200D02*
X133547619Y-57454819D01*
X133547619Y-57454819D02*
X133452381Y-57454819D01*
X133452381Y-57454819D02*
X133357143Y-57407200D01*
X133357143Y-57407200D02*
X133309524Y-57359580D01*
X133309524Y-57359580D02*
X133261905Y-57264342D01*
X133261905Y-57264342D02*
X133214286Y-57073866D01*
X133214286Y-57073866D02*
X133214286Y-56835771D01*
X133214286Y-56835771D02*
X133261905Y-56645295D01*
X133261905Y-56645295D02*
X133309524Y-56550057D01*
X133309524Y-56550057D02*
X133357143Y-56502438D01*
X133357143Y-56502438D02*
X133452381Y-56454819D01*
X134404762Y-56454819D02*
X134500000Y-56454819D01*
X134500000Y-56454819D02*
X134595238Y-56502438D01*
X134595238Y-56502438D02*
X134642857Y-56550057D01*
X134642857Y-56550057D02*
X134690476Y-56645295D01*
X134690476Y-56645295D02*
X134738095Y-56835771D01*
X134738095Y-56835771D02*
X134738095Y-57073866D01*
X134738095Y-57073866D02*
X134690476Y-57264342D01*
X134690476Y-57264342D02*
X134642857Y-57359580D01*
X134642857Y-57359580D02*
X134595238Y-57407200D01*
X134595238Y-57407200D02*
X134500000Y-57454819D01*
X134500000Y-57454819D02*
X134404762Y-57454819D01*
X134404762Y-57454819D02*
X134309524Y-57407200D01*
X134309524Y-57407200D02*
X134261905Y-57359580D01*
X134261905Y-57359580D02*
X134214286Y-57264342D01*
X134214286Y-57264342D02*
X134166667Y-57073866D01*
X134166667Y-57073866D02*
X134166667Y-56835771D01*
X134166667Y-56835771D02*
X134214286Y-56645295D01*
X134214286Y-56645295D02*
X134261905Y-56550057D01*
X134261905Y-56550057D02*
X134309524Y-56502438D01*
X134309524Y-56502438D02*
X134404762Y-56454819D01*
X135738095Y-57454819D02*
X135404762Y-56978628D01*
X135166667Y-57454819D02*
X135166667Y-56454819D01*
X135166667Y-56454819D02*
X135547619Y-56454819D01*
X135547619Y-56454819D02*
X135642857Y-56502438D01*
X135642857Y-56502438D02*
X135690476Y-56550057D01*
X135690476Y-56550057D02*
X135738095Y-56645295D01*
X135738095Y-56645295D02*
X135738095Y-56788152D01*
X135738095Y-56788152D02*
X135690476Y-56883390D01*
X135690476Y-56883390D02*
X135642857Y-56931009D01*
X135642857Y-56931009D02*
X135547619Y-56978628D01*
X135547619Y-56978628D02*
X135166667Y-56978628D01*
X137834819Y-52333333D02*
X138549104Y-52333333D01*
X138549104Y-52333333D02*
X138691961Y-52380952D01*
X138691961Y-52380952D02*
X138787200Y-52476190D01*
X138787200Y-52476190D02*
X138834819Y-52619047D01*
X138834819Y-52619047D02*
X138834819Y-52714285D01*
X137834819Y-51428571D02*
X137834819Y-51619047D01*
X137834819Y-51619047D02*
X137882438Y-51714285D01*
X137882438Y-51714285D02*
X137930057Y-51761904D01*
X137930057Y-51761904D02*
X138072914Y-51857142D01*
X138072914Y-51857142D02*
X138263390Y-51904761D01*
X138263390Y-51904761D02*
X138644342Y-51904761D01*
X138644342Y-51904761D02*
X138739580Y-51857142D01*
X138739580Y-51857142D02*
X138787200Y-51809523D01*
X138787200Y-51809523D02*
X138834819Y-51714285D01*
X138834819Y-51714285D02*
X138834819Y-51523809D01*
X138834819Y-51523809D02*
X138787200Y-51428571D01*
X138787200Y-51428571D02*
X138739580Y-51380952D01*
X138739580Y-51380952D02*
X138644342Y-51333333D01*
X138644342Y-51333333D02*
X138406247Y-51333333D01*
X138406247Y-51333333D02*
X138311009Y-51380952D01*
X138311009Y-51380952D02*
X138263390Y-51428571D01*
X138263390Y-51428571D02*
X138215771Y-51523809D01*
X138215771Y-51523809D02*
X138215771Y-51714285D01*
X138215771Y-51714285D02*
X138263390Y-51809523D01*
X138263390Y-51809523D02*
X138311009Y-51857142D01*
X138311009Y-51857142D02*
X138406247Y-51904761D01*
X129354819Y-69333333D02*
X130069104Y-69333333D01*
X130069104Y-69333333D02*
X130211961Y-69380952D01*
X130211961Y-69380952D02*
X130307200Y-69476190D01*
X130307200Y-69476190D02*
X130354819Y-69619047D01*
X130354819Y-69619047D02*
X130354819Y-69714285D01*
X129354819Y-68380952D02*
X129354819Y-68857142D01*
X129354819Y-68857142D02*
X129831009Y-68904761D01*
X129831009Y-68904761D02*
X129783390Y-68857142D01*
X129783390Y-68857142D02*
X129735771Y-68761904D01*
X129735771Y-68761904D02*
X129735771Y-68523809D01*
X129735771Y-68523809D02*
X129783390Y-68428571D01*
X129783390Y-68428571D02*
X129831009Y-68380952D01*
X129831009Y-68380952D02*
X129926247Y-68333333D01*
X129926247Y-68333333D02*
X130164342Y-68333333D01*
X130164342Y-68333333D02*
X130259580Y-68380952D01*
X130259580Y-68380952D02*
X130307200Y-68428571D01*
X130307200Y-68428571D02*
X130354819Y-68523809D01*
X130354819Y-68523809D02*
X130354819Y-68761904D01*
X130354819Y-68761904D02*
X130307200Y-68857142D01*
X130307200Y-68857142D02*
X130259580Y-68904761D01*
X129454819Y-63333333D02*
X130169104Y-63333333D01*
X130169104Y-63333333D02*
X130311961Y-63380952D01*
X130311961Y-63380952D02*
X130407200Y-63476190D01*
X130407200Y-63476190D02*
X130454819Y-63619047D01*
X130454819Y-63619047D02*
X130454819Y-63714285D01*
X129788152Y-62428571D02*
X130454819Y-62428571D01*
X129407200Y-62666666D02*
X130121485Y-62904761D01*
X130121485Y-62904761D02*
X130121485Y-62285714D01*
X149666666Y-55074819D02*
X149666666Y-55789104D01*
X149666666Y-55789104D02*
X149619047Y-55931961D01*
X149619047Y-55931961D02*
X149523809Y-56027200D01*
X149523809Y-56027200D02*
X149380952Y-56074819D01*
X149380952Y-56074819D02*
X149285714Y-56074819D01*
X150047619Y-55074819D02*
X150666666Y-55074819D01*
X150666666Y-55074819D02*
X150333333Y-55455771D01*
X150333333Y-55455771D02*
X150476190Y-55455771D01*
X150476190Y-55455771D02*
X150571428Y-55503390D01*
X150571428Y-55503390D02*
X150619047Y-55551009D01*
X150619047Y-55551009D02*
X150666666Y-55646247D01*
X150666666Y-55646247D02*
X150666666Y-55884342D01*
X150666666Y-55884342D02*
X150619047Y-55979580D01*
X150619047Y-55979580D02*
X150571428Y-56027200D01*
X150571428Y-56027200D02*
X150476190Y-56074819D01*
X150476190Y-56074819D02*
X150190476Y-56074819D01*
X150190476Y-56074819D02*
X150095238Y-56027200D01*
X150095238Y-56027200D02*
X150047619Y-55979580D01*
X151154819Y-52333333D02*
X151869104Y-52333333D01*
X151869104Y-52333333D02*
X152011961Y-52380952D01*
X152011961Y-52380952D02*
X152107200Y-52476190D01*
X152107200Y-52476190D02*
X152154819Y-52619047D01*
X152154819Y-52619047D02*
X152154819Y-52714285D01*
X152154819Y-51333333D02*
X152154819Y-51904761D01*
X152154819Y-51619047D02*
X151154819Y-51619047D01*
X151154819Y-51619047D02*
X151297676Y-51714285D01*
X151297676Y-51714285D02*
X151392914Y-51809523D01*
X151392914Y-51809523D02*
X151440533Y-51904761D01*
X151238095Y-66704819D02*
X151238095Y-65704819D01*
X151238095Y-66181009D02*
X151809523Y-66181009D01*
X151809523Y-66704819D02*
X151809523Y-65704819D01*
X152809523Y-66704819D02*
X152238095Y-66704819D01*
X152523809Y-66704819D02*
X152523809Y-65704819D01*
X152523809Y-65704819D02*
X152428571Y-65847676D01*
X152428571Y-65847676D02*
X152333333Y-65942914D01*
X152333333Y-65942914D02*
X152238095Y-65990533D01*
X135066666Y-54931009D02*
X134733333Y-54931009D01*
X134733333Y-55454819D02*
X134733333Y-54454819D01*
X134733333Y-54454819D02*
X135209523Y-54454819D01*
X136114285Y-55454819D02*
X135542857Y-55454819D01*
X135828571Y-55454819D02*
X135828571Y-54454819D01*
X135828571Y-54454819D02*
X135733333Y-54597676D01*
X135733333Y-54597676D02*
X135638095Y-54692914D01*
X135638095Y-54692914D02*
X135542857Y-54740533D01*
X147357142Y-68039580D02*
X147309523Y-68087200D01*
X147309523Y-68087200D02*
X147166666Y-68134819D01*
X147166666Y-68134819D02*
X147071428Y-68134819D01*
X147071428Y-68134819D02*
X146928571Y-68087200D01*
X146928571Y-68087200D02*
X146833333Y-67991961D01*
X146833333Y-67991961D02*
X146785714Y-67896723D01*
X146785714Y-67896723D02*
X146738095Y-67706247D01*
X146738095Y-67706247D02*
X146738095Y-67563390D01*
X146738095Y-67563390D02*
X146785714Y-67372914D01*
X146785714Y-67372914D02*
X146833333Y-67277676D01*
X146833333Y-67277676D02*
X146928571Y-67182438D01*
X146928571Y-67182438D02*
X147071428Y-67134819D01*
X147071428Y-67134819D02*
X147166666Y-67134819D01*
X147166666Y-67134819D02*
X147309523Y-67182438D01*
X147309523Y-67182438D02*
X147357142Y-67230057D01*
X148309523Y-68134819D02*
X147738095Y-68134819D01*
X148023809Y-68134819D02*
X148023809Y-67134819D01*
X148023809Y-67134819D02*
X147928571Y-67277676D01*
X147928571Y-67277676D02*
X147833333Y-67372914D01*
X147833333Y-67372914D02*
X147738095Y-67420533D01*
X149166666Y-67468152D02*
X149166666Y-68134819D01*
X148928571Y-67087200D02*
X148690476Y-67801485D01*
X148690476Y-67801485D02*
X149309523Y-67801485D01*
X146452380Y-64774819D02*
X145880952Y-64774819D01*
X146166666Y-64774819D02*
X146166666Y-63774819D01*
X146166666Y-63774819D02*
X146071428Y-63917676D01*
X146071428Y-63917676D02*
X145976190Y-64012914D01*
X145976190Y-64012914D02*
X145880952Y-64060533D01*
X147071428Y-63774819D02*
X147166666Y-63774819D01*
X147166666Y-63774819D02*
X147261904Y-63822438D01*
X147261904Y-63822438D02*
X147309523Y-63870057D01*
X147309523Y-63870057D02*
X147357142Y-63965295D01*
X147357142Y-63965295D02*
X147404761Y-64155771D01*
X147404761Y-64155771D02*
X147404761Y-64393866D01*
X147404761Y-64393866D02*
X147357142Y-64584342D01*
X147357142Y-64584342D02*
X147309523Y-64679580D01*
X147309523Y-64679580D02*
X147261904Y-64727200D01*
X147261904Y-64727200D02*
X147166666Y-64774819D01*
X147166666Y-64774819D02*
X147071428Y-64774819D01*
X147071428Y-64774819D02*
X146976190Y-64727200D01*
X146976190Y-64727200D02*
X146928571Y-64679580D01*
X146928571Y-64679580D02*
X146880952Y-64584342D01*
X146880952Y-64584342D02*
X146833333Y-64393866D01*
X146833333Y-64393866D02*
X146833333Y-64155771D01*
X146833333Y-64155771D02*
X146880952Y-63965295D01*
X146880952Y-63965295D02*
X146928571Y-63870057D01*
X146928571Y-63870057D02*
X146976190Y-63822438D01*
X146976190Y-63822438D02*
X147071428Y-63774819D01*
X148023809Y-63774819D02*
X148119047Y-63774819D01*
X148119047Y-63774819D02*
X148214285Y-63822438D01*
X148214285Y-63822438D02*
X148261904Y-63870057D01*
X148261904Y-63870057D02*
X148309523Y-63965295D01*
X148309523Y-63965295D02*
X148357142Y-64155771D01*
X148357142Y-64155771D02*
X148357142Y-64393866D01*
X148357142Y-64393866D02*
X148309523Y-64584342D01*
X148309523Y-64584342D02*
X148261904Y-64679580D01*
X148261904Y-64679580D02*
X148214285Y-64727200D01*
X148214285Y-64727200D02*
X148119047Y-64774819D01*
X148119047Y-64774819D02*
X148023809Y-64774819D01*
X148023809Y-64774819D02*
X147928571Y-64727200D01*
X147928571Y-64727200D02*
X147880952Y-64679580D01*
X147880952Y-64679580D02*
X147833333Y-64584342D01*
X147833333Y-64584342D02*
X147785714Y-64393866D01*
X147785714Y-64393866D02*
X147785714Y-64155771D01*
X147785714Y-64155771D02*
X147833333Y-63965295D01*
X147833333Y-63965295D02*
X147880952Y-63870057D01*
X147880952Y-63870057D02*
X147928571Y-63822438D01*
X147928571Y-63822438D02*
X148023809Y-63774819D01*
X148785714Y-64108152D02*
X148785714Y-64774819D01*
X148785714Y-64203390D02*
X148833333Y-64155771D01*
X148833333Y-64155771D02*
X148928571Y-64108152D01*
X148928571Y-64108152D02*
X149071428Y-64108152D01*
X149071428Y-64108152D02*
X149166666Y-64155771D01*
X149166666Y-64155771D02*
X149214285Y-64251009D01*
X149214285Y-64251009D02*
X149214285Y-64774819D01*
X150023809Y-64251009D02*
X149690476Y-64251009D01*
X149690476Y-64774819D02*
X149690476Y-63774819D01*
X149690476Y-63774819D02*
X150166666Y-63774819D01*
X132054819Y-70333333D02*
X132769104Y-70333333D01*
X132769104Y-70333333D02*
X132911961Y-70380952D01*
X132911961Y-70380952D02*
X133007200Y-70476190D01*
X133007200Y-70476190D02*
X133054819Y-70619047D01*
X133054819Y-70619047D02*
X133054819Y-70714285D01*
X132150057Y-69904761D02*
X132102438Y-69857142D01*
X132102438Y-69857142D02*
X132054819Y-69761904D01*
X132054819Y-69761904D02*
X132054819Y-69523809D01*
X132054819Y-69523809D02*
X132102438Y-69428571D01*
X132102438Y-69428571D02*
X132150057Y-69380952D01*
X132150057Y-69380952D02*
X132245295Y-69333333D01*
X132245295Y-69333333D02*
X132340533Y-69333333D01*
X132340533Y-69333333D02*
X132483390Y-69380952D01*
X132483390Y-69380952D02*
X133054819Y-69952380D01*
X133054819Y-69952380D02*
X133054819Y-69333333D01*
D11*
%TO.C,U1*%
X137940000Y-57440000D02*
X142060000Y-57440000D01*
X137940000Y-57535000D02*
X137940000Y-57440000D01*
X137940000Y-62560000D02*
X137940000Y-62465000D01*
X142060000Y-57440000D02*
X142060000Y-57535000D01*
X142060000Y-62465000D02*
X142060000Y-62560000D01*
X142060000Y-62560000D02*
X137940000Y-62560000D01*
X137400000Y-57530000D02*
X137160000Y-57200000D01*
X137640000Y-57200000D01*
X137400000Y-57530000D01*
G36*
X137400000Y-57530000D02*
G01*
X137160000Y-57200000D01*
X137640000Y-57200000D01*
X137400000Y-57530000D01*
G37*
%TO.C,R5*%
X133772936Y-60265000D02*
X134227064Y-60265000D01*
X133772936Y-61735000D02*
X134227064Y-61735000D01*
%TO.C,R4*%
X146227064Y-61735000D02*
X145772936Y-61735000D01*
X146227064Y-60265000D02*
X145772936Y-60265000D01*
%TO.C,R3*%
X141772936Y-64265000D02*
X142227064Y-64265000D01*
X141772936Y-65735000D02*
X142227064Y-65735000D01*
%TO.C,R2*%
X138227064Y-65735000D02*
X137772936Y-65735000D01*
X138227064Y-64265000D02*
X137772936Y-64265000D01*
%TO.C,R1*%
X133772936Y-58265000D02*
X134227064Y-58265000D01*
X133772936Y-59735000D02*
X134227064Y-59735000D01*
%TO.C,J6*%
X137380000Y-50620000D02*
X137380000Y-52000000D01*
X136000000Y-50620000D02*
X137380000Y-50620000D01*
X134730000Y-50620000D02*
X132080000Y-50620000D01*
X134730000Y-50620000D02*
X134730000Y-53380000D01*
X132080000Y-50620000D02*
X132080000Y-53380000D01*
X134730000Y-53380000D02*
X132080000Y-53380000D01*
%TO.C,J5*%
X129110000Y-64640000D02*
X127860000Y-64640000D01*
X127500000Y-64940000D02*
X127500000Y-65550000D01*
X126200000Y-64940000D02*
X126200000Y-65550000D01*
X128200000Y-65550000D02*
X124700000Y-65550000D01*
X124700000Y-65550000D02*
X124700000Y-72450000D01*
X129110000Y-65890000D02*
X129110000Y-64640000D01*
X129010000Y-66400000D02*
X128810000Y-66400000D01*
X129010000Y-66700000D02*
X129010000Y-66400000D01*
X128910000Y-66700000D02*
X128910000Y-66400000D01*
X128810000Y-66700000D02*
X129010000Y-66700000D01*
X128810000Y-67500000D02*
X128200000Y-67500000D01*
X128200000Y-67500000D02*
X128200000Y-65550000D01*
X125200000Y-67900000D02*
X125200000Y-68100000D01*
X124700000Y-67900000D02*
X125200000Y-67900000D01*
X124700000Y-68000000D02*
X125200000Y-68000000D01*
X125200000Y-68100000D02*
X124700000Y-68100000D01*
X125200000Y-69900000D02*
X125200000Y-70100000D01*
X124700000Y-69900000D02*
X125200000Y-69900000D01*
X124700000Y-70000000D02*
X125200000Y-70000000D01*
X125200000Y-70100000D02*
X124700000Y-70100000D01*
X128200000Y-70500000D02*
X128810000Y-70500000D01*
X128200000Y-72450000D02*
X128200000Y-70500000D01*
X124700000Y-72450000D02*
X128200000Y-72450000D01*
X127500000Y-73060000D02*
X127500000Y-72450000D01*
X126200000Y-73060000D02*
X126200000Y-72450000D01*
X128810000Y-64940000D02*
X124090000Y-64940000D01*
X124090000Y-73060000D01*
X128810000Y-73060000D01*
X128810000Y-64940000D01*
%TO.C,J4*%
X123890000Y-64360000D02*
X125140000Y-64360000D01*
X125500000Y-64060000D02*
X125500000Y-63450000D01*
X126800000Y-64060000D02*
X126800000Y-63450000D01*
X124800000Y-63450000D02*
X128300000Y-63450000D01*
X128300000Y-63450000D02*
X128300000Y-56550000D01*
X123890000Y-63110000D02*
X123890000Y-64360000D01*
X123990000Y-62600000D02*
X124190000Y-62600000D01*
X123990000Y-62300000D02*
X123990000Y-62600000D01*
X124090000Y-62300000D02*
X124090000Y-62600000D01*
X124190000Y-62300000D02*
X123990000Y-62300000D01*
X124190000Y-61500000D02*
X124800000Y-61500000D01*
X124800000Y-61500000D02*
X124800000Y-63450000D01*
X127800000Y-61100000D02*
X127800000Y-60900000D01*
X128300000Y-61100000D02*
X127800000Y-61100000D01*
X128300000Y-61000000D02*
X127800000Y-61000000D01*
X127800000Y-60900000D02*
X128300000Y-60900000D01*
X127800000Y-59100000D02*
X127800000Y-58900000D01*
X128300000Y-59100000D02*
X127800000Y-59100000D01*
X128300000Y-59000000D02*
X127800000Y-59000000D01*
X127800000Y-58900000D02*
X128300000Y-58900000D01*
X124800000Y-58500000D02*
X124190000Y-58500000D01*
X124800000Y-56550000D02*
X124800000Y-58500000D01*
X128300000Y-56550000D02*
X124800000Y-56550000D01*
X125500000Y-55940000D02*
X125500000Y-56550000D01*
X126800000Y-55940000D02*
X126800000Y-56550000D01*
X124190000Y-64060000D02*
X128910000Y-64060000D01*
X128910000Y-55940000D01*
X124190000Y-55940000D01*
X124190000Y-64060000D01*
%TO.C,J3*%
X148620000Y-56620000D02*
X150000000Y-56620000D01*
X148620000Y-58000000D02*
X148620000Y-56620000D01*
X148620000Y-59270000D02*
X148620000Y-61920000D01*
X148620000Y-59270000D02*
X151380000Y-59270000D01*
X148620000Y-61920000D02*
X151380000Y-61920000D01*
X151380000Y-59270000D02*
X151380000Y-61920000D01*
%TO.C,J1*%
X139810000Y-53380000D02*
X139810000Y-52000000D01*
X141190000Y-53380000D02*
X139810000Y-53380000D01*
X142460000Y-53380000D02*
X150190000Y-53380000D01*
X142460000Y-53380000D02*
X142460000Y-50620000D01*
X150190000Y-53380000D02*
X150190000Y-50620000D01*
X142460000Y-50620000D02*
X150190000Y-50620000D01*
%TO.C,F1*%
X132661252Y-55710000D02*
X132138748Y-55710000D01*
X132661252Y-54290000D02*
X132138748Y-54290000D01*
%TO.C,C14*%
X148261252Y-66735000D02*
X147738748Y-66735000D01*
X148261252Y-65265000D02*
X147738748Y-65265000D01*
%TO.C,J2*%
X133590000Y-70110000D02*
X133590000Y-72610000D01*
X133590000Y-72610000D02*
X136090000Y-72610000D01*
X133890000Y-70000000D02*
X134390000Y-70000000D01*
X133890000Y-70810000D02*
X134890000Y-70810000D01*
X134390000Y-68790000D02*
X146110000Y-68790000D01*
X134390000Y-70000000D02*
X134390000Y-68790000D01*
X134890000Y-70810000D02*
X134890000Y-72310000D01*
X145610000Y-70810000D02*
X145610000Y-72310000D01*
X146110000Y-68790000D02*
X146110000Y-70000000D01*
X146110000Y-70000000D02*
X146610000Y-70000000D01*
X146610000Y-70810000D02*
X145610000Y-70810000D01*
X133890000Y-68290000D02*
X146610000Y-68290000D01*
X146610000Y-72310000D01*
X133890000Y-72310000D01*
X133890000Y-68290000D01*
%TD*%
M02*
