%TF.GenerationSoftware,KiCad,Pcbnew,9.0.7*%
%TF.CreationDate,2026-03-13T10:40:51+01:00*%
%TF.ProjectId,MPC_Servo,4d50435f-5365-4727-966f-2e6b69636164,rev?*%
%TF.SameCoordinates,Original*%
%TF.FileFunction,Soldermask,Top*%
%TF.FilePolarity,Negative*%
%FSLAX46Y46*%
G04 Gerber Fmt 4.6, Leading zero omitted, Abs format (unit mm)*
G04 Created by KiCad (PCBNEW 9.0.7) date 2026-03-13 10:40:51*
%MOMM*%
%LPD*%
G01*
G04 APERTURE LIST*
G04 APERTURE END LIST*
G36*
X152484093Y-67150833D02*
G01*
X152800055Y-67222949D01*
X153105955Y-67329988D01*
X153397948Y-67470604D01*
X153672360Y-67643029D01*
X153925742Y-67845094D01*
X154154906Y-68074258D01*
X154356971Y-68327640D01*
X154529396Y-68602052D01*
X154670012Y-68894045D01*
X154777051Y-69199945D01*
X154849167Y-69515907D01*
X154885453Y-69837956D01*
X154885453Y-70162044D01*
X154849167Y-70484093D01*
X154777051Y-70800055D01*
X154670012Y-71105955D01*
X154529396Y-71397948D01*
X154356971Y-71672360D01*
X154154906Y-71925742D01*
X153925742Y-72154906D01*
X153672360Y-72356971D01*
X153397948Y-72529396D01*
X153105955Y-72670012D01*
X152800055Y-72777051D01*
X152484093Y-72849167D01*
X152162044Y-72885453D01*
X151837956Y-72885453D01*
X151515907Y-72849167D01*
X151199945Y-72777051D01*
X150894045Y-72670012D01*
X150602052Y-72529396D01*
X150327640Y-72356971D01*
X150074258Y-72154906D01*
X149845094Y-71925742D01*
X149643029Y-71672360D01*
X149470604Y-71397948D01*
X149329988Y-71105955D01*
X149222949Y-70800055D01*
X149150833Y-70484093D01*
X149114547Y-70162044D01*
X149114547Y-69837956D01*
X149150833Y-69515907D01*
X149222949Y-69199945D01*
X149329988Y-68894045D01*
X149470604Y-68602052D01*
X149643029Y-68327640D01*
X149845094Y-68074258D01*
X150074258Y-67845094D01*
X150327640Y-67643029D01*
X150602052Y-67470604D01*
X150894045Y-67329988D01*
X151199945Y-67222949D01*
X151515907Y-67150833D01*
X151837956Y-67114547D01*
X152162044Y-67114547D01*
X152484093Y-67150833D01*
G37*
G36*
X127342632Y-70313323D02*
G01*
X127475296Y-70339711D01*
X127600264Y-70391474D01*
X127712731Y-70466623D01*
X127808377Y-70562269D01*
X127883526Y-70674736D01*
X127935289Y-70799704D01*
X127961677Y-70932368D01*
X127961677Y-71067632D01*
X127935289Y-71200296D01*
X127883526Y-71325264D01*
X127808377Y-71437731D01*
X127712731Y-71533377D01*
X127600264Y-71608526D01*
X127475296Y-71660289D01*
X127342632Y-71686677D01*
X127275000Y-71690000D01*
X127273750Y-71690000D01*
X126726250Y-71690000D01*
X126725000Y-71690000D01*
X126657368Y-71686677D01*
X126524704Y-71660289D01*
X126399736Y-71608526D01*
X126287269Y-71533377D01*
X126191623Y-71437731D01*
X126116474Y-71325264D01*
X126064711Y-71200296D01*
X126038323Y-71067632D01*
X126038323Y-70932368D01*
X126064711Y-70799704D01*
X126116474Y-70674736D01*
X126191623Y-70562269D01*
X126287269Y-70466623D01*
X126399736Y-70391474D01*
X126524704Y-70339711D01*
X126657368Y-70313323D01*
X126725000Y-70310000D01*
X127275000Y-70310000D01*
X127342632Y-70313323D01*
G37*
G36*
X137187998Y-68946585D02*
G01*
X137197693Y-68951106D01*
X137204872Y-68952243D01*
X137256010Y-68978299D01*
X137295016Y-68996488D01*
X137298453Y-68999925D01*
X137299475Y-69000446D01*
X137374553Y-69075524D01*
X137375073Y-69076545D01*
X137378512Y-69079984D01*
X137396705Y-69119001D01*
X137422756Y-69170127D01*
X137423892Y-69177303D01*
X137428415Y-69187002D01*
X137440000Y-69275000D01*
X137440000Y-70725000D01*
X137428415Y-70812998D01*
X137423892Y-70822696D01*
X137422756Y-70829872D01*
X137396711Y-70880987D01*
X137378512Y-70920016D01*
X137375072Y-70923455D01*
X137374553Y-70924475D01*
X137299475Y-70999553D01*
X137298455Y-71000072D01*
X137295016Y-71003512D01*
X137255987Y-71021711D01*
X137204872Y-71047756D01*
X137197696Y-71048892D01*
X137187998Y-71053415D01*
X137100000Y-71065000D01*
X135900000Y-71065000D01*
X135812002Y-71053415D01*
X135802303Y-71048892D01*
X135795127Y-71047756D01*
X135744001Y-71021705D01*
X135704984Y-71003512D01*
X135701545Y-71000073D01*
X135700524Y-70999553D01*
X135625446Y-70924475D01*
X135624925Y-70923453D01*
X135621488Y-70920016D01*
X135603299Y-70881010D01*
X135577243Y-70829872D01*
X135576106Y-70822693D01*
X135571585Y-70812998D01*
X135560000Y-70725000D01*
X135560000Y-69275000D01*
X135571585Y-69187002D01*
X135576105Y-69177306D01*
X135577243Y-69170127D01*
X135603304Y-69118978D01*
X135621488Y-69079984D01*
X135624924Y-69076547D01*
X135625446Y-69075524D01*
X135700524Y-69000446D01*
X135701547Y-68999924D01*
X135704984Y-68996488D01*
X135743978Y-68978304D01*
X135795127Y-68952243D01*
X135802306Y-68951105D01*
X135812002Y-68946585D01*
X135900000Y-68935000D01*
X137100000Y-68935000D01*
X137187998Y-68946585D01*
G37*
G36*
X139272868Y-68975476D02*
G01*
X139443113Y-69045994D01*
X139596330Y-69148370D01*
X139726630Y-69278670D01*
X139829006Y-69431887D01*
X139899524Y-69602132D01*
X139935474Y-69782864D01*
X139940000Y-69875000D01*
X139940000Y-70125000D01*
X139935474Y-70217136D01*
X139899524Y-70397868D01*
X139829006Y-70568113D01*
X139726630Y-70721330D01*
X139596330Y-70851630D01*
X139443113Y-70954006D01*
X139272868Y-71024524D01*
X139092136Y-71060474D01*
X138907864Y-71060474D01*
X138727132Y-71024524D01*
X138556887Y-70954006D01*
X138403670Y-70851630D01*
X138273370Y-70721330D01*
X138170994Y-70568113D01*
X138100476Y-70397868D01*
X138064526Y-70217136D01*
X138060000Y-70125000D01*
X138060000Y-69875000D01*
X138064526Y-69782864D01*
X138100476Y-69602132D01*
X138170994Y-69431887D01*
X138273370Y-69278670D01*
X138403670Y-69148370D01*
X138556887Y-69045994D01*
X138727132Y-68975476D01*
X138907864Y-68939526D01*
X139092136Y-68939526D01*
X139272868Y-68975476D01*
G37*
G36*
X141772868Y-68975476D02*
G01*
X141943113Y-69045994D01*
X142096330Y-69148370D01*
X142226630Y-69278670D01*
X142329006Y-69431887D01*
X142399524Y-69602132D01*
X142435474Y-69782864D01*
X142440000Y-69875000D01*
X142440000Y-70125000D01*
X142435474Y-70217136D01*
X142399524Y-70397868D01*
X142329006Y-70568113D01*
X142226630Y-70721330D01*
X142096330Y-70851630D01*
X141943113Y-70954006D01*
X141772868Y-71024524D01*
X141592136Y-71060474D01*
X141407864Y-71060474D01*
X141227132Y-71024524D01*
X141056887Y-70954006D01*
X140903670Y-70851630D01*
X140773370Y-70721330D01*
X140670994Y-70568113D01*
X140600476Y-70397868D01*
X140564526Y-70217136D01*
X140560000Y-70125000D01*
X140560000Y-69875000D01*
X140564526Y-69782864D01*
X140600476Y-69602132D01*
X140670994Y-69431887D01*
X140773370Y-69278670D01*
X140903670Y-69148370D01*
X141056887Y-69045994D01*
X141227132Y-68975476D01*
X141407864Y-68939526D01*
X141592136Y-68939526D01*
X141772868Y-68975476D01*
G37*
G36*
X144272868Y-68975476D02*
G01*
X144443113Y-69045994D01*
X144596330Y-69148370D01*
X144726630Y-69278670D01*
X144829006Y-69431887D01*
X144899524Y-69602132D01*
X144935474Y-69782864D01*
X144940000Y-69875000D01*
X144940000Y-70125000D01*
X144935474Y-70217136D01*
X144899524Y-70397868D01*
X144829006Y-70568113D01*
X144726630Y-70721330D01*
X144596330Y-70851630D01*
X144443113Y-70954006D01*
X144272868Y-71024524D01*
X144092136Y-71060474D01*
X143907864Y-71060474D01*
X143727132Y-71024524D01*
X143556887Y-70954006D01*
X143403670Y-70851630D01*
X143273370Y-70721330D01*
X143170994Y-70568113D01*
X143100476Y-70397868D01*
X143064526Y-70217136D01*
X143060000Y-70125000D01*
X143060000Y-69875000D01*
X143064526Y-69782864D01*
X143100476Y-69602132D01*
X143170994Y-69431887D01*
X143273370Y-69278670D01*
X143403670Y-69148370D01*
X143556887Y-69045994D01*
X143727132Y-68975476D01*
X143907864Y-68939526D01*
X144092136Y-68939526D01*
X144272868Y-68975476D01*
G37*
G36*
X127342632Y-68313323D02*
G01*
X127475296Y-68339711D01*
X127600264Y-68391474D01*
X127712731Y-68466623D01*
X127808377Y-68562269D01*
X127883526Y-68674736D01*
X127935289Y-68799704D01*
X127961677Y-68932368D01*
X127961677Y-69067632D01*
X127935289Y-69200296D01*
X127883526Y-69325264D01*
X127808377Y-69437731D01*
X127712731Y-69533377D01*
X127600264Y-69608526D01*
X127475296Y-69660289D01*
X127342632Y-69686677D01*
X127275000Y-69690000D01*
X127273750Y-69690000D01*
X126726250Y-69690000D01*
X126725000Y-69690000D01*
X126657368Y-69686677D01*
X126524704Y-69660289D01*
X126399736Y-69608526D01*
X126287269Y-69533377D01*
X126191623Y-69437731D01*
X126116474Y-69325264D01*
X126064711Y-69200296D01*
X126038323Y-69067632D01*
X126038323Y-68932368D01*
X126064711Y-68799704D01*
X126116474Y-68674736D01*
X126191623Y-68562269D01*
X126287269Y-68466623D01*
X126399736Y-68391474D01*
X126524704Y-68339711D01*
X126657368Y-68313323D01*
X126725000Y-68310000D01*
X127275000Y-68310000D01*
X127342632Y-68313323D01*
G37*
G36*
X127712998Y-66321585D02*
G01*
X127722693Y-66326106D01*
X127729872Y-66327243D01*
X127781010Y-66353299D01*
X127820016Y-66371488D01*
X127823453Y-66374925D01*
X127824475Y-66375446D01*
X127899553Y-66450524D01*
X127900073Y-66451545D01*
X127903512Y-66454984D01*
X127921705Y-66494001D01*
X127947756Y-66545127D01*
X127948892Y-66552303D01*
X127953415Y-66562002D01*
X127965000Y-66650000D01*
X127965000Y-67350000D01*
X127953415Y-67437998D01*
X127948892Y-67447696D01*
X127947756Y-67454872D01*
X127921711Y-67505987D01*
X127903512Y-67545016D01*
X127900072Y-67548455D01*
X127899553Y-67549475D01*
X127824475Y-67624553D01*
X127823455Y-67625072D01*
X127820016Y-67628512D01*
X127780987Y-67646711D01*
X127729872Y-67672756D01*
X127722696Y-67673892D01*
X127712998Y-67678415D01*
X127625000Y-67690000D01*
X126375000Y-67690000D01*
X126287002Y-67678415D01*
X126277303Y-67673892D01*
X126270127Y-67672756D01*
X126219001Y-67646705D01*
X126179984Y-67628512D01*
X126176545Y-67625073D01*
X126175524Y-67624553D01*
X126100446Y-67549475D01*
X126099925Y-67548453D01*
X126096488Y-67545016D01*
X126078299Y-67506010D01*
X126052243Y-67454872D01*
X126051106Y-67447693D01*
X126046585Y-67437998D01*
X126035000Y-67350000D01*
X126035000Y-66650000D01*
X126046585Y-66562002D01*
X126051105Y-66552306D01*
X126052243Y-66545127D01*
X126078304Y-66493978D01*
X126096488Y-66454984D01*
X126099924Y-66451547D01*
X126100446Y-66450524D01*
X126175524Y-66375446D01*
X126176547Y-66374924D01*
X126179984Y-66371488D01*
X126218978Y-66353304D01*
X126270127Y-66327243D01*
X126277306Y-66326105D01*
X126287002Y-66321585D01*
X126375000Y-66310000D01*
X127625000Y-66310000D01*
X127712998Y-66321585D01*
G37*
G36*
X147387998Y-65196585D02*
G01*
X147397693Y-65201106D01*
X147404872Y-65202243D01*
X147456010Y-65228299D01*
X147495016Y-65246488D01*
X147498453Y-65249925D01*
X147499475Y-65250446D01*
X147574553Y-65325524D01*
X147575073Y-65326545D01*
X147578512Y-65329984D01*
X147596705Y-65369001D01*
X147622756Y-65420127D01*
X147623892Y-65427303D01*
X147628415Y-65437002D01*
X147640000Y-65525000D01*
X147640000Y-66475000D01*
X147628415Y-66562998D01*
X147623892Y-66572696D01*
X147622756Y-66579872D01*
X147596711Y-66630987D01*
X147578512Y-66670016D01*
X147575072Y-66673455D01*
X147574553Y-66674475D01*
X147499475Y-66749553D01*
X147498455Y-66750072D01*
X147495016Y-66753512D01*
X147455987Y-66771711D01*
X147404872Y-66797756D01*
X147397696Y-66798892D01*
X147387998Y-66803415D01*
X147300000Y-66815000D01*
X146625000Y-66815000D01*
X146537002Y-66803415D01*
X146527303Y-66798892D01*
X146520127Y-66797756D01*
X146469001Y-66771705D01*
X146429984Y-66753512D01*
X146426545Y-66750073D01*
X146425524Y-66749553D01*
X146350446Y-66674475D01*
X146349925Y-66673453D01*
X146346488Y-66670016D01*
X146328299Y-66631010D01*
X146302243Y-66579872D01*
X146301106Y-66572693D01*
X146296585Y-66562998D01*
X146285000Y-66475000D01*
X146285000Y-65525000D01*
X146296585Y-65437002D01*
X146301105Y-65427306D01*
X146302243Y-65420127D01*
X146328304Y-65368978D01*
X146346488Y-65329984D01*
X146349924Y-65326547D01*
X146350446Y-65325524D01*
X146425524Y-65250446D01*
X146426547Y-65249924D01*
X146429984Y-65246488D01*
X146468978Y-65228304D01*
X146520127Y-65202243D01*
X146527306Y-65201105D01*
X146537002Y-65196585D01*
X146625000Y-65185000D01*
X147300000Y-65185000D01*
X147387998Y-65196585D01*
G37*
G36*
X149462998Y-65196585D02*
G01*
X149472693Y-65201106D01*
X149479872Y-65202243D01*
X149531010Y-65228299D01*
X149570016Y-65246488D01*
X149573453Y-65249925D01*
X149574475Y-65250446D01*
X149649553Y-65325524D01*
X149650073Y-65326545D01*
X149653512Y-65329984D01*
X149671705Y-65369001D01*
X149697756Y-65420127D01*
X149698892Y-65427303D01*
X149703415Y-65437002D01*
X149715000Y-65525000D01*
X149715000Y-66475000D01*
X149703415Y-66562998D01*
X149698892Y-66572696D01*
X149697756Y-66579872D01*
X149671711Y-66630987D01*
X149653512Y-66670016D01*
X149650072Y-66673455D01*
X149649553Y-66674475D01*
X149574475Y-66749553D01*
X149573455Y-66750072D01*
X149570016Y-66753512D01*
X149530987Y-66771711D01*
X149479872Y-66797756D01*
X149472696Y-66798892D01*
X149462998Y-66803415D01*
X149375000Y-66815000D01*
X148700000Y-66815000D01*
X148612002Y-66803415D01*
X148602303Y-66798892D01*
X148595127Y-66797756D01*
X148544001Y-66771705D01*
X148504984Y-66753512D01*
X148501545Y-66750073D01*
X148500524Y-66749553D01*
X148425446Y-66674475D01*
X148424925Y-66673453D01*
X148421488Y-66670016D01*
X148403299Y-66631010D01*
X148377243Y-66579872D01*
X148376106Y-66572693D01*
X148371585Y-66562998D01*
X148360000Y-66475000D01*
X148360000Y-65525000D01*
X148371585Y-65437002D01*
X148376105Y-65427306D01*
X148377243Y-65420127D01*
X148403304Y-65368978D01*
X148421488Y-65329984D01*
X148424924Y-65326547D01*
X148425446Y-65325524D01*
X148500524Y-65250446D01*
X148501547Y-65249924D01*
X148504984Y-65246488D01*
X148543978Y-65228304D01*
X148595127Y-65202243D01*
X148602306Y-65201105D01*
X148612002Y-65196585D01*
X148700000Y-65185000D01*
X149375000Y-65185000D01*
X149462998Y-65196585D01*
G37*
G36*
X137437998Y-64221585D02*
G01*
X137447693Y-64226106D01*
X137454872Y-64227243D01*
X137506010Y-64253299D01*
X137545016Y-64271488D01*
X137548453Y-64274925D01*
X137549475Y-64275446D01*
X137624553Y-64350524D01*
X137625073Y-64351545D01*
X137628512Y-64354984D01*
X137646705Y-64394001D01*
X137672756Y-64445127D01*
X137673892Y-64452303D01*
X137678415Y-64462002D01*
X137690000Y-64550000D01*
X137690000Y-65450000D01*
X137678415Y-65537998D01*
X137673892Y-65547696D01*
X137672756Y-65554872D01*
X137646711Y-65605987D01*
X137628512Y-65645016D01*
X137625072Y-65648455D01*
X137624553Y-65649475D01*
X137549475Y-65724553D01*
X137548455Y-65725072D01*
X137545016Y-65728512D01*
X137505987Y-65746711D01*
X137454872Y-65772756D01*
X137447696Y-65773892D01*
X137437998Y-65778415D01*
X137350000Y-65790000D01*
X136650000Y-65790000D01*
X136562002Y-65778415D01*
X136552303Y-65773892D01*
X136545127Y-65772756D01*
X136494001Y-65746705D01*
X136454984Y-65728512D01*
X136451545Y-65725073D01*
X136450524Y-65724553D01*
X136375446Y-65649475D01*
X136374925Y-65648453D01*
X136371488Y-65645016D01*
X136353299Y-65606010D01*
X136327243Y-65554872D01*
X136326106Y-65547693D01*
X136321585Y-65537998D01*
X136310000Y-65450000D01*
X136310000Y-64550000D01*
X136321585Y-64462002D01*
X136326105Y-64452306D01*
X136327243Y-64445127D01*
X136353304Y-64393978D01*
X136371488Y-64354984D01*
X136374924Y-64351547D01*
X136375446Y-64350524D01*
X136450524Y-64275446D01*
X136451547Y-64274924D01*
X136454984Y-64271488D01*
X136493978Y-64253304D01*
X136545127Y-64227243D01*
X136552306Y-64226105D01*
X136562002Y-64221585D01*
X136650000Y-64210000D01*
X137350000Y-64210000D01*
X137437998Y-64221585D01*
G37*
G36*
X139437998Y-64221585D02*
G01*
X139447693Y-64226106D01*
X139454872Y-64227243D01*
X139506010Y-64253299D01*
X139545016Y-64271488D01*
X139548453Y-64274925D01*
X139549475Y-64275446D01*
X139624553Y-64350524D01*
X139625073Y-64351545D01*
X139628512Y-64354984D01*
X139646705Y-64394001D01*
X139672756Y-64445127D01*
X139673892Y-64452303D01*
X139678415Y-64462002D01*
X139690000Y-64550000D01*
X139690000Y-65450000D01*
X139678415Y-65537998D01*
X139673892Y-65547696D01*
X139672756Y-65554872D01*
X139646711Y-65605987D01*
X139628512Y-65645016D01*
X139625072Y-65648455D01*
X139624553Y-65649475D01*
X139549475Y-65724553D01*
X139548455Y-65725072D01*
X139545016Y-65728512D01*
X139505987Y-65746711D01*
X139454872Y-65772756D01*
X139447696Y-65773892D01*
X139437998Y-65778415D01*
X139350000Y-65790000D01*
X138650000Y-65790000D01*
X138562002Y-65778415D01*
X138552303Y-65773892D01*
X138545127Y-65772756D01*
X138494001Y-65746705D01*
X138454984Y-65728512D01*
X138451545Y-65725073D01*
X138450524Y-65724553D01*
X138375446Y-65649475D01*
X138374925Y-65648453D01*
X138371488Y-65645016D01*
X138353299Y-65606010D01*
X138327243Y-65554872D01*
X138326106Y-65547693D01*
X138321585Y-65537998D01*
X138310000Y-65450000D01*
X138310000Y-64550000D01*
X138321585Y-64462002D01*
X138326105Y-64452306D01*
X138327243Y-64445127D01*
X138353304Y-64393978D01*
X138371488Y-64354984D01*
X138374924Y-64351547D01*
X138375446Y-64350524D01*
X138450524Y-64275446D01*
X138451547Y-64274924D01*
X138454984Y-64271488D01*
X138493978Y-64253304D01*
X138545127Y-64227243D01*
X138552306Y-64226105D01*
X138562002Y-64221585D01*
X138650000Y-64210000D01*
X139350000Y-64210000D01*
X139437998Y-64221585D01*
G37*
G36*
X141437998Y-64221585D02*
G01*
X141447693Y-64226106D01*
X141454872Y-64227243D01*
X141506010Y-64253299D01*
X141545016Y-64271488D01*
X141548453Y-64274925D01*
X141549475Y-64275446D01*
X141624553Y-64350524D01*
X141625073Y-64351545D01*
X141628512Y-64354984D01*
X141646705Y-64394001D01*
X141672756Y-64445127D01*
X141673892Y-64452303D01*
X141678415Y-64462002D01*
X141690000Y-64550000D01*
X141690000Y-65450000D01*
X141678415Y-65537998D01*
X141673892Y-65547696D01*
X141672756Y-65554872D01*
X141646711Y-65605987D01*
X141628512Y-65645016D01*
X141625072Y-65648455D01*
X141624553Y-65649475D01*
X141549475Y-65724553D01*
X141548455Y-65725072D01*
X141545016Y-65728512D01*
X141505987Y-65746711D01*
X141454872Y-65772756D01*
X141447696Y-65773892D01*
X141437998Y-65778415D01*
X141350000Y-65790000D01*
X140650000Y-65790000D01*
X140562002Y-65778415D01*
X140552303Y-65773892D01*
X140545127Y-65772756D01*
X140494001Y-65746705D01*
X140454984Y-65728512D01*
X140451545Y-65725073D01*
X140450524Y-65724553D01*
X140375446Y-65649475D01*
X140374925Y-65648453D01*
X140371488Y-65645016D01*
X140353299Y-65606010D01*
X140327243Y-65554872D01*
X140326106Y-65547693D01*
X140321585Y-65537998D01*
X140310000Y-65450000D01*
X140310000Y-64550000D01*
X140321585Y-64462002D01*
X140326105Y-64452306D01*
X140327243Y-64445127D01*
X140353304Y-64393978D01*
X140371488Y-64354984D01*
X140374924Y-64351547D01*
X140375446Y-64350524D01*
X140450524Y-64275446D01*
X140451547Y-64274924D01*
X140454984Y-64271488D01*
X140493978Y-64253304D01*
X140545127Y-64227243D01*
X140552306Y-64226105D01*
X140562002Y-64221585D01*
X140650000Y-64210000D01*
X141350000Y-64210000D01*
X141437998Y-64221585D01*
G37*
G36*
X143437998Y-64221585D02*
G01*
X143447693Y-64226106D01*
X143454872Y-64227243D01*
X143506010Y-64253299D01*
X143545016Y-64271488D01*
X143548453Y-64274925D01*
X143549475Y-64275446D01*
X143624553Y-64350524D01*
X143625073Y-64351545D01*
X143628512Y-64354984D01*
X143646705Y-64394001D01*
X143672756Y-64445127D01*
X143673892Y-64452303D01*
X143678415Y-64462002D01*
X143690000Y-64550000D01*
X143690000Y-65450000D01*
X143678415Y-65537998D01*
X143673892Y-65547696D01*
X143672756Y-65554872D01*
X143646711Y-65605987D01*
X143628512Y-65645016D01*
X143625072Y-65648455D01*
X143624553Y-65649475D01*
X143549475Y-65724553D01*
X143548455Y-65725072D01*
X143545016Y-65728512D01*
X143505987Y-65746711D01*
X143454872Y-65772756D01*
X143447696Y-65773892D01*
X143437998Y-65778415D01*
X143350000Y-65790000D01*
X142650000Y-65790000D01*
X142562002Y-65778415D01*
X142552303Y-65773892D01*
X142545127Y-65772756D01*
X142494001Y-65746705D01*
X142454984Y-65728512D01*
X142451545Y-65725073D01*
X142450524Y-65724553D01*
X142375446Y-65649475D01*
X142374925Y-65648453D01*
X142371488Y-65645016D01*
X142353299Y-65606010D01*
X142327243Y-65554872D01*
X142326106Y-65547693D01*
X142321585Y-65537998D01*
X142310000Y-65450000D01*
X142310000Y-64550000D01*
X142321585Y-64462002D01*
X142326105Y-64452306D01*
X142327243Y-64445127D01*
X142353304Y-64393978D01*
X142371488Y-64354984D01*
X142374924Y-64351547D01*
X142375446Y-64350524D01*
X142450524Y-64275446D01*
X142451547Y-64274924D01*
X142454984Y-64271488D01*
X142493978Y-64253304D01*
X142545127Y-64227243D01*
X142552306Y-64226105D01*
X142562002Y-64221585D01*
X142650000Y-64210000D01*
X143350000Y-64210000D01*
X143437998Y-64221585D01*
G37*
G36*
X126712998Y-61321585D02*
G01*
X126722693Y-61326106D01*
X126729872Y-61327243D01*
X126781010Y-61353299D01*
X126820016Y-61371488D01*
X126823453Y-61374925D01*
X126824475Y-61375446D01*
X126899553Y-61450524D01*
X126900073Y-61451545D01*
X126903512Y-61454984D01*
X126921705Y-61494001D01*
X126947756Y-61545127D01*
X126948892Y-61552303D01*
X126953415Y-61562002D01*
X126965000Y-61650000D01*
X126965000Y-62350000D01*
X126953415Y-62437998D01*
X126948892Y-62447696D01*
X126947756Y-62454872D01*
X126921711Y-62505987D01*
X126903512Y-62545016D01*
X126900072Y-62548455D01*
X126899553Y-62549475D01*
X126824475Y-62624553D01*
X126823455Y-62625072D01*
X126820016Y-62628512D01*
X126780987Y-62646711D01*
X126729872Y-62672756D01*
X126722696Y-62673892D01*
X126712998Y-62678415D01*
X126625000Y-62690000D01*
X125375000Y-62690000D01*
X125287002Y-62678415D01*
X125277303Y-62673892D01*
X125270127Y-62672756D01*
X125219001Y-62646705D01*
X125179984Y-62628512D01*
X125176545Y-62625073D01*
X125175524Y-62624553D01*
X125100446Y-62549475D01*
X125099925Y-62548453D01*
X125096488Y-62545016D01*
X125078299Y-62506010D01*
X125052243Y-62454872D01*
X125051106Y-62447693D01*
X125046585Y-62437998D01*
X125035000Y-62350000D01*
X125035000Y-61650000D01*
X125046585Y-61562002D01*
X125051105Y-61552306D01*
X125052243Y-61545127D01*
X125078304Y-61493978D01*
X125096488Y-61454984D01*
X125099924Y-61451547D01*
X125100446Y-61450524D01*
X125175524Y-61375446D01*
X125176547Y-61374924D01*
X125179984Y-61371488D01*
X125218978Y-61353304D01*
X125270127Y-61327243D01*
X125277306Y-61326105D01*
X125287002Y-61321585D01*
X125375000Y-61310000D01*
X126625000Y-61310000D01*
X126712998Y-61321585D01*
G37*
G36*
X138354114Y-61515818D02*
G01*
X138403093Y-61521500D01*
X138419829Y-61528889D01*
X138441844Y-61533269D01*
X138465415Y-61549018D01*
X138485135Y-61557726D01*
X138498601Y-61571192D01*
X138519706Y-61585294D01*
X138533807Y-61606398D01*
X138547273Y-61619864D01*
X138555979Y-61639581D01*
X138571731Y-61663156D01*
X138576110Y-61685173D01*
X138583499Y-61701906D01*
X138589179Y-61750874D01*
X138590000Y-61755000D01*
X138590000Y-62055000D01*
X138589179Y-62059126D01*
X138583499Y-62108093D01*
X138576110Y-62124825D01*
X138571731Y-62146844D01*
X138555978Y-62170419D01*
X138547273Y-62190135D01*
X138533809Y-62203598D01*
X138519706Y-62224706D01*
X138498598Y-62238809D01*
X138485135Y-62252273D01*
X138465419Y-62260978D01*
X138441844Y-62276731D01*
X138419825Y-62281110D01*
X138403093Y-62288499D01*
X138354126Y-62294179D01*
X138350000Y-62295000D01*
X136700000Y-62295000D01*
X136695874Y-62294179D01*
X136646906Y-62288499D01*
X136630173Y-62281110D01*
X136608156Y-62276731D01*
X136584581Y-62260979D01*
X136564864Y-62252273D01*
X136551398Y-62238807D01*
X136530294Y-62224706D01*
X136516192Y-62203601D01*
X136502726Y-62190135D01*
X136494018Y-62170415D01*
X136478269Y-62146844D01*
X136473889Y-62124829D01*
X136466500Y-62108093D01*
X136460818Y-62059114D01*
X136460000Y-62055000D01*
X136460000Y-61755000D01*
X136460818Y-61750886D01*
X136466500Y-61701906D01*
X136473890Y-61685168D01*
X136478269Y-61663156D01*
X136494017Y-61639586D01*
X136502726Y-61619864D01*
X136516194Y-61606395D01*
X136530294Y-61585294D01*
X136551395Y-61571194D01*
X136564864Y-61557726D01*
X136584586Y-61549017D01*
X136608156Y-61533269D01*
X136630168Y-61528890D01*
X136646906Y-61521500D01*
X136695886Y-61515818D01*
X136700000Y-61515000D01*
X138350000Y-61515000D01*
X138354114Y-61515818D01*
G37*
G36*
X143304114Y-61515818D02*
G01*
X143353093Y-61521500D01*
X143369829Y-61528889D01*
X143391844Y-61533269D01*
X143415415Y-61549018D01*
X143435135Y-61557726D01*
X143448601Y-61571192D01*
X143469706Y-61585294D01*
X143483807Y-61606398D01*
X143497273Y-61619864D01*
X143505979Y-61639581D01*
X143521731Y-61663156D01*
X143526110Y-61685173D01*
X143533499Y-61701906D01*
X143539179Y-61750874D01*
X143540000Y-61755000D01*
X143540000Y-62055000D01*
X143539179Y-62059126D01*
X143533499Y-62108093D01*
X143526110Y-62124825D01*
X143521731Y-62146844D01*
X143505978Y-62170419D01*
X143497273Y-62190135D01*
X143483809Y-62203598D01*
X143469706Y-62224706D01*
X143448598Y-62238809D01*
X143435135Y-62252273D01*
X143415419Y-62260978D01*
X143391844Y-62276731D01*
X143369825Y-62281110D01*
X143353093Y-62288499D01*
X143304126Y-62294179D01*
X143300000Y-62295000D01*
X141650000Y-62295000D01*
X141645874Y-62294179D01*
X141596906Y-62288499D01*
X141580173Y-62281110D01*
X141558156Y-62276731D01*
X141534581Y-62260979D01*
X141514864Y-62252273D01*
X141501398Y-62238807D01*
X141480294Y-62224706D01*
X141466192Y-62203601D01*
X141452726Y-62190135D01*
X141444018Y-62170415D01*
X141428269Y-62146844D01*
X141423889Y-62124829D01*
X141416500Y-62108093D01*
X141410818Y-62059114D01*
X141410000Y-62055000D01*
X141410000Y-61755000D01*
X141410818Y-61750886D01*
X141416500Y-61701906D01*
X141423890Y-61685168D01*
X141428269Y-61663156D01*
X141444017Y-61639586D01*
X141452726Y-61619864D01*
X141466194Y-61606395D01*
X141480294Y-61585294D01*
X141501395Y-61571194D01*
X141514864Y-61557726D01*
X141534586Y-61549017D01*
X141558156Y-61533269D01*
X141580168Y-61528890D01*
X141596906Y-61521500D01*
X141645886Y-61515818D01*
X141650000Y-61515000D01*
X143300000Y-61515000D01*
X143304114Y-61515818D01*
G37*
G36*
X133437998Y-60221585D02*
G01*
X133447693Y-60226106D01*
X133454872Y-60227243D01*
X133506010Y-60253299D01*
X133545016Y-60271488D01*
X133548453Y-60274925D01*
X133549475Y-60275446D01*
X133624553Y-60350524D01*
X133625073Y-60351545D01*
X133628512Y-60354984D01*
X133646705Y-60394001D01*
X133672756Y-60445127D01*
X133673892Y-60452303D01*
X133678415Y-60462002D01*
X133690000Y-60550000D01*
X133690000Y-61450000D01*
X133678415Y-61537998D01*
X133673892Y-61547696D01*
X133672756Y-61554872D01*
X133646711Y-61605987D01*
X133628512Y-61645016D01*
X133625072Y-61648455D01*
X133624553Y-61649475D01*
X133549475Y-61724553D01*
X133548455Y-61725072D01*
X133545016Y-61728512D01*
X133505987Y-61746711D01*
X133454872Y-61772756D01*
X133447696Y-61773892D01*
X133437998Y-61778415D01*
X133350000Y-61790000D01*
X132650000Y-61790000D01*
X132562002Y-61778415D01*
X132552303Y-61773892D01*
X132545127Y-61772756D01*
X132494001Y-61746705D01*
X132454984Y-61728512D01*
X132451545Y-61725073D01*
X132450524Y-61724553D01*
X132375446Y-61649475D01*
X132374925Y-61648453D01*
X132371488Y-61645016D01*
X132353299Y-61606010D01*
X132327243Y-61554872D01*
X132326106Y-61547693D01*
X132321585Y-61537998D01*
X132310000Y-61450000D01*
X132310000Y-60550000D01*
X132321585Y-60462002D01*
X132326105Y-60452306D01*
X132327243Y-60445127D01*
X132353304Y-60393978D01*
X132371488Y-60354984D01*
X132374924Y-60351547D01*
X132375446Y-60350524D01*
X132450524Y-60275446D01*
X132451547Y-60274924D01*
X132454984Y-60271488D01*
X132493978Y-60253304D01*
X132545127Y-60227243D01*
X132552306Y-60226105D01*
X132562002Y-60221585D01*
X132650000Y-60210000D01*
X133350000Y-60210000D01*
X133437998Y-60221585D01*
G37*
G36*
X135437998Y-60221585D02*
G01*
X135447693Y-60226106D01*
X135454872Y-60227243D01*
X135506010Y-60253299D01*
X135545016Y-60271488D01*
X135548453Y-60274925D01*
X135549475Y-60275446D01*
X135624553Y-60350524D01*
X135625073Y-60351545D01*
X135628512Y-60354984D01*
X135646705Y-60394001D01*
X135672756Y-60445127D01*
X135673892Y-60452303D01*
X135678415Y-60462002D01*
X135690000Y-60550000D01*
X135690000Y-61450000D01*
X135678415Y-61537998D01*
X135673892Y-61547696D01*
X135672756Y-61554872D01*
X135646711Y-61605987D01*
X135628512Y-61645016D01*
X135625072Y-61648455D01*
X135624553Y-61649475D01*
X135549475Y-61724553D01*
X135548455Y-61725072D01*
X135545016Y-61728512D01*
X135505987Y-61746711D01*
X135454872Y-61772756D01*
X135447696Y-61773892D01*
X135437998Y-61778415D01*
X135350000Y-61790000D01*
X134650000Y-61790000D01*
X134562002Y-61778415D01*
X134552303Y-61773892D01*
X134545127Y-61772756D01*
X134494001Y-61746705D01*
X134454984Y-61728512D01*
X134451545Y-61725073D01*
X134450524Y-61724553D01*
X134375446Y-61649475D01*
X134374925Y-61648453D01*
X134371488Y-61645016D01*
X134353299Y-61606010D01*
X134327243Y-61554872D01*
X134326106Y-61547693D01*
X134321585Y-61537998D01*
X134310000Y-61450000D01*
X134310000Y-60550000D01*
X134321585Y-60462002D01*
X134326105Y-60452306D01*
X134327243Y-60445127D01*
X134353304Y-60393978D01*
X134371488Y-60354984D01*
X134374924Y-60351547D01*
X134375446Y-60350524D01*
X134450524Y-60275446D01*
X134451547Y-60274924D01*
X134454984Y-60271488D01*
X134493978Y-60253304D01*
X134545127Y-60227243D01*
X134552306Y-60226105D01*
X134562002Y-60221585D01*
X134650000Y-60210000D01*
X135350000Y-60210000D01*
X135437998Y-60221585D01*
G37*
G36*
X145437998Y-60221585D02*
G01*
X145447693Y-60226106D01*
X145454872Y-60227243D01*
X145506010Y-60253299D01*
X145545016Y-60271488D01*
X145548453Y-60274925D01*
X145549475Y-60275446D01*
X145624553Y-60350524D01*
X145625073Y-60351545D01*
X145628512Y-60354984D01*
X145646705Y-60394001D01*
X145672756Y-60445127D01*
X145673892Y-60452303D01*
X145678415Y-60462002D01*
X145690000Y-60550000D01*
X145690000Y-61450000D01*
X145678415Y-61537998D01*
X145673892Y-61547696D01*
X145672756Y-61554872D01*
X145646711Y-61605987D01*
X145628512Y-61645016D01*
X145625072Y-61648455D01*
X145624553Y-61649475D01*
X145549475Y-61724553D01*
X145548455Y-61725072D01*
X145545016Y-61728512D01*
X145505987Y-61746711D01*
X145454872Y-61772756D01*
X145447696Y-61773892D01*
X145437998Y-61778415D01*
X145350000Y-61790000D01*
X144650000Y-61790000D01*
X144562002Y-61778415D01*
X144552303Y-61773892D01*
X144545127Y-61772756D01*
X144494001Y-61746705D01*
X144454984Y-61728512D01*
X144451545Y-61725073D01*
X144450524Y-61724553D01*
X144375446Y-61649475D01*
X144374925Y-61648453D01*
X144371488Y-61645016D01*
X144353299Y-61606010D01*
X144327243Y-61554872D01*
X144326106Y-61547693D01*
X144321585Y-61537998D01*
X144310000Y-61450000D01*
X144310000Y-60550000D01*
X144321585Y-60462002D01*
X144326105Y-60452306D01*
X144327243Y-60445127D01*
X144353304Y-60393978D01*
X144371488Y-60354984D01*
X144374924Y-60351547D01*
X144375446Y-60350524D01*
X144450524Y-60275446D01*
X144451547Y-60274924D01*
X144454984Y-60271488D01*
X144493978Y-60253304D01*
X144545127Y-60227243D01*
X144552306Y-60226105D01*
X144562002Y-60221585D01*
X144650000Y-60210000D01*
X145350000Y-60210000D01*
X145437998Y-60221585D01*
G37*
G36*
X147437998Y-60221585D02*
G01*
X147447693Y-60226106D01*
X147454872Y-60227243D01*
X147506010Y-60253299D01*
X147545016Y-60271488D01*
X147548453Y-60274925D01*
X147549475Y-60275446D01*
X147624553Y-60350524D01*
X147625073Y-60351545D01*
X147628512Y-60354984D01*
X147646705Y-60394001D01*
X147672756Y-60445127D01*
X147673892Y-60452303D01*
X147678415Y-60462002D01*
X147690000Y-60550000D01*
X147690000Y-61450000D01*
X147678415Y-61537998D01*
X147673892Y-61547696D01*
X147672756Y-61554872D01*
X147646711Y-61605987D01*
X147628512Y-61645016D01*
X147625072Y-61648455D01*
X147624553Y-61649475D01*
X147549475Y-61724553D01*
X147548455Y-61725072D01*
X147545016Y-61728512D01*
X147505987Y-61746711D01*
X147454872Y-61772756D01*
X147447696Y-61773892D01*
X147437998Y-61778415D01*
X147350000Y-61790000D01*
X146650000Y-61790000D01*
X146562002Y-61778415D01*
X146552303Y-61773892D01*
X146545127Y-61772756D01*
X146494001Y-61746705D01*
X146454984Y-61728512D01*
X146451545Y-61725073D01*
X146450524Y-61724553D01*
X146375446Y-61649475D01*
X146374925Y-61648453D01*
X146371488Y-61645016D01*
X146353299Y-61606010D01*
X146327243Y-61554872D01*
X146326106Y-61547693D01*
X146321585Y-61537998D01*
X146310000Y-61450000D01*
X146310000Y-60550000D01*
X146321585Y-60462002D01*
X146326105Y-60452306D01*
X146327243Y-60445127D01*
X146353304Y-60393978D01*
X146371488Y-60354984D01*
X146374924Y-60351547D01*
X146375446Y-60350524D01*
X146450524Y-60275446D01*
X146451547Y-60274924D01*
X146454984Y-60271488D01*
X146493978Y-60253304D01*
X146545127Y-60227243D01*
X146552306Y-60226105D01*
X146562002Y-60221585D01*
X146650000Y-60210000D01*
X147350000Y-60210000D01*
X147437998Y-60221585D01*
G37*
G36*
X150272868Y-59640476D02*
G01*
X150443113Y-59710994D01*
X150596330Y-59813370D01*
X150726630Y-59943670D01*
X150829006Y-60096887D01*
X150899524Y-60267132D01*
X150935474Y-60447864D01*
X150935474Y-60632136D01*
X150899524Y-60812868D01*
X150829006Y-60983113D01*
X150726630Y-61136330D01*
X150596330Y-61266630D01*
X150443113Y-61369006D01*
X150272868Y-61439524D01*
X150092136Y-61475474D01*
X149907864Y-61475474D01*
X149727132Y-61439524D01*
X149556887Y-61369006D01*
X149403670Y-61266630D01*
X149273370Y-61136330D01*
X149170994Y-60983113D01*
X149100476Y-60812868D01*
X149064526Y-60632136D01*
X149064526Y-60447864D01*
X149100476Y-60267132D01*
X149170994Y-60096887D01*
X149273370Y-59943670D01*
X149403670Y-59813370D01*
X149556887Y-59710994D01*
X149727132Y-59640476D01*
X149907864Y-59604526D01*
X150092136Y-59604526D01*
X150272868Y-59640476D01*
G37*
G36*
X138354114Y-60245818D02*
G01*
X138403093Y-60251500D01*
X138419829Y-60258889D01*
X138441844Y-60263269D01*
X138465415Y-60279018D01*
X138485135Y-60287726D01*
X138498601Y-60301192D01*
X138519706Y-60315294D01*
X138533807Y-60336398D01*
X138547273Y-60349864D01*
X138555979Y-60369581D01*
X138571731Y-60393156D01*
X138576110Y-60415173D01*
X138583499Y-60431906D01*
X138589179Y-60480874D01*
X138590000Y-60485000D01*
X138590000Y-60785000D01*
X138589179Y-60789126D01*
X138583499Y-60838093D01*
X138576110Y-60854825D01*
X138571731Y-60876844D01*
X138555978Y-60900419D01*
X138547273Y-60920135D01*
X138533809Y-60933598D01*
X138519706Y-60954706D01*
X138498598Y-60968809D01*
X138485135Y-60982273D01*
X138465419Y-60990978D01*
X138441844Y-61006731D01*
X138419825Y-61011110D01*
X138403093Y-61018499D01*
X138354126Y-61024179D01*
X138350000Y-61025000D01*
X136700000Y-61025000D01*
X136695874Y-61024179D01*
X136646906Y-61018499D01*
X136630173Y-61011110D01*
X136608156Y-61006731D01*
X136584581Y-60990979D01*
X136564864Y-60982273D01*
X136551398Y-60968807D01*
X136530294Y-60954706D01*
X136516192Y-60933601D01*
X136502726Y-60920135D01*
X136494018Y-60900415D01*
X136478269Y-60876844D01*
X136473889Y-60854829D01*
X136466500Y-60838093D01*
X136460818Y-60789114D01*
X136460000Y-60785000D01*
X136460000Y-60485000D01*
X136460818Y-60480886D01*
X136466500Y-60431906D01*
X136473890Y-60415168D01*
X136478269Y-60393156D01*
X136494017Y-60369586D01*
X136502726Y-60349864D01*
X136516194Y-60336395D01*
X136530294Y-60315294D01*
X136551395Y-60301194D01*
X136564864Y-60287726D01*
X136584586Y-60279017D01*
X136608156Y-60263269D01*
X136630168Y-60258890D01*
X136646906Y-60251500D01*
X136695886Y-60245818D01*
X136700000Y-60245000D01*
X138350000Y-60245000D01*
X138354114Y-60245818D01*
G37*
G36*
X143304114Y-60245818D02*
G01*
X143353093Y-60251500D01*
X143369829Y-60258889D01*
X143391844Y-60263269D01*
X143415415Y-60279018D01*
X143435135Y-60287726D01*
X143448601Y-60301192D01*
X143469706Y-60315294D01*
X143483807Y-60336398D01*
X143497273Y-60349864D01*
X143505979Y-60369581D01*
X143521731Y-60393156D01*
X143526110Y-60415173D01*
X143533499Y-60431906D01*
X143539179Y-60480874D01*
X143540000Y-60485000D01*
X143540000Y-60785000D01*
X143539179Y-60789126D01*
X143533499Y-60838093D01*
X143526110Y-60854825D01*
X143521731Y-60876844D01*
X143505978Y-60900419D01*
X143497273Y-60920135D01*
X143483809Y-60933598D01*
X143469706Y-60954706D01*
X143448598Y-60968809D01*
X143435135Y-60982273D01*
X143415419Y-60990978D01*
X143391844Y-61006731D01*
X143369825Y-61011110D01*
X143353093Y-61018499D01*
X143304126Y-61024179D01*
X143300000Y-61025000D01*
X141650000Y-61025000D01*
X141645874Y-61024179D01*
X141596906Y-61018499D01*
X141580173Y-61011110D01*
X141558156Y-61006731D01*
X141534581Y-60990979D01*
X141514864Y-60982273D01*
X141501398Y-60968807D01*
X141480294Y-60954706D01*
X141466192Y-60933601D01*
X141452726Y-60920135D01*
X141444018Y-60900415D01*
X141428269Y-60876844D01*
X141423889Y-60854829D01*
X141416500Y-60838093D01*
X141410818Y-60789114D01*
X141410000Y-60785000D01*
X141410000Y-60485000D01*
X141410818Y-60480886D01*
X141416500Y-60431906D01*
X141423890Y-60415168D01*
X141428269Y-60393156D01*
X141444017Y-60369586D01*
X141452726Y-60349864D01*
X141466194Y-60336395D01*
X141480294Y-60315294D01*
X141501395Y-60301194D01*
X141514864Y-60287726D01*
X141534586Y-60279017D01*
X141558156Y-60263269D01*
X141580168Y-60258890D01*
X141596906Y-60251500D01*
X141645886Y-60245818D01*
X141650000Y-60245000D01*
X143300000Y-60245000D01*
X143304114Y-60245818D01*
G37*
G36*
X126342632Y-59313323D02*
G01*
X126475296Y-59339711D01*
X126600264Y-59391474D01*
X126712731Y-59466623D01*
X126808377Y-59562269D01*
X126883526Y-59674736D01*
X126935289Y-59799704D01*
X126961677Y-59932368D01*
X126961677Y-60067632D01*
X126935289Y-60200296D01*
X126883526Y-60325264D01*
X126808377Y-60437731D01*
X126712731Y-60533377D01*
X126600264Y-60608526D01*
X126475296Y-60660289D01*
X126342632Y-60686677D01*
X126275000Y-60690000D01*
X126273750Y-60690000D01*
X125726250Y-60690000D01*
X125725000Y-60690000D01*
X125657368Y-60686677D01*
X125524704Y-60660289D01*
X125399736Y-60608526D01*
X125287269Y-60533377D01*
X125191623Y-60437731D01*
X125116474Y-60325264D01*
X125064711Y-60200296D01*
X125038323Y-60067632D01*
X125038323Y-59932368D01*
X125064711Y-59799704D01*
X125116474Y-59674736D01*
X125191623Y-59562269D01*
X125287269Y-59466623D01*
X125399736Y-59391474D01*
X125524704Y-59339711D01*
X125657368Y-59313323D01*
X125725000Y-59310000D01*
X126275000Y-59310000D01*
X126342632Y-59313323D01*
G37*
G36*
X133437998Y-58221585D02*
G01*
X133447693Y-58226106D01*
X133454872Y-58227243D01*
X133506010Y-58253299D01*
X133545016Y-58271488D01*
X133548453Y-58274925D01*
X133549475Y-58275446D01*
X133624553Y-58350524D01*
X133625073Y-58351545D01*
X133628512Y-58354984D01*
X133646705Y-58394001D01*
X133672756Y-58445127D01*
X133673892Y-58452303D01*
X133678415Y-58462002D01*
X133690000Y-58550000D01*
X133690000Y-59450000D01*
X133678415Y-59537998D01*
X133673892Y-59547696D01*
X133672756Y-59554872D01*
X133646711Y-59605987D01*
X133628512Y-59645016D01*
X133625072Y-59648455D01*
X133624553Y-59649475D01*
X133549475Y-59724553D01*
X133548455Y-59725072D01*
X133545016Y-59728512D01*
X133505987Y-59746711D01*
X133454872Y-59772756D01*
X133447696Y-59773892D01*
X133437998Y-59778415D01*
X133350000Y-59790000D01*
X132650000Y-59790000D01*
X132562002Y-59778415D01*
X132552303Y-59773892D01*
X132545127Y-59772756D01*
X132494001Y-59746705D01*
X132454984Y-59728512D01*
X132451545Y-59725073D01*
X132450524Y-59724553D01*
X132375446Y-59649475D01*
X132374925Y-59648453D01*
X132371488Y-59645016D01*
X132353299Y-59606010D01*
X132327243Y-59554872D01*
X132326106Y-59547693D01*
X132321585Y-59537998D01*
X132310000Y-59450000D01*
X132310000Y-58550000D01*
X132321585Y-58462002D01*
X132326105Y-58452306D01*
X132327243Y-58445127D01*
X132353304Y-58393978D01*
X132371488Y-58354984D01*
X132374924Y-58351547D01*
X132375446Y-58350524D01*
X132450524Y-58275446D01*
X132451547Y-58274924D01*
X132454984Y-58271488D01*
X132493978Y-58253304D01*
X132545127Y-58227243D01*
X132552306Y-58226105D01*
X132562002Y-58221585D01*
X132650000Y-58210000D01*
X133350000Y-58210000D01*
X133437998Y-58221585D01*
G37*
G36*
X135437998Y-58221585D02*
G01*
X135447693Y-58226106D01*
X135454872Y-58227243D01*
X135506010Y-58253299D01*
X135545016Y-58271488D01*
X135548453Y-58274925D01*
X135549475Y-58275446D01*
X135624553Y-58350524D01*
X135625073Y-58351545D01*
X135628512Y-58354984D01*
X135646705Y-58394001D01*
X135672756Y-58445127D01*
X135673892Y-58452303D01*
X135678415Y-58462002D01*
X135690000Y-58550000D01*
X135690000Y-59450000D01*
X135678415Y-59537998D01*
X135673892Y-59547696D01*
X135672756Y-59554872D01*
X135646711Y-59605987D01*
X135628512Y-59645016D01*
X135625072Y-59648455D01*
X135624553Y-59649475D01*
X135549475Y-59724553D01*
X135548455Y-59725072D01*
X135545016Y-59728512D01*
X135505987Y-59746711D01*
X135454872Y-59772756D01*
X135447696Y-59773892D01*
X135437998Y-59778415D01*
X135350000Y-59790000D01*
X134650000Y-59790000D01*
X134562002Y-59778415D01*
X134552303Y-59773892D01*
X134545127Y-59772756D01*
X134494001Y-59746705D01*
X134454984Y-59728512D01*
X134451545Y-59725073D01*
X134450524Y-59724553D01*
X134375446Y-59649475D01*
X134374925Y-59648453D01*
X134371488Y-59645016D01*
X134353299Y-59606010D01*
X134327243Y-59554872D01*
X134326106Y-59547693D01*
X134321585Y-59537998D01*
X134310000Y-59450000D01*
X134310000Y-58550000D01*
X134321585Y-58462002D01*
X134326105Y-58452306D01*
X134327243Y-58445127D01*
X134353304Y-58393978D01*
X134371488Y-58354984D01*
X134374924Y-58351547D01*
X134375446Y-58350524D01*
X134450524Y-58275446D01*
X134451547Y-58274924D01*
X134454984Y-58271488D01*
X134493978Y-58253304D01*
X134545127Y-58227243D01*
X134552306Y-58226105D01*
X134562002Y-58221585D01*
X134650000Y-58210000D01*
X135350000Y-58210000D01*
X135437998Y-58221585D01*
G37*
G36*
X138354114Y-58975818D02*
G01*
X138403093Y-58981500D01*
X138419829Y-58988889D01*
X138441844Y-58993269D01*
X138465415Y-59009018D01*
X138485135Y-59017726D01*
X138498601Y-59031192D01*
X138519706Y-59045294D01*
X138533807Y-59066398D01*
X138547273Y-59079864D01*
X138555979Y-59099581D01*
X138571731Y-59123156D01*
X138576110Y-59145173D01*
X138583499Y-59161906D01*
X138589179Y-59210874D01*
X138590000Y-59215000D01*
X138590000Y-59515000D01*
X138589179Y-59519126D01*
X138583499Y-59568093D01*
X138576110Y-59584825D01*
X138571731Y-59606844D01*
X138555978Y-59630419D01*
X138547273Y-59650135D01*
X138533809Y-59663598D01*
X138519706Y-59684706D01*
X138498598Y-59698809D01*
X138485135Y-59712273D01*
X138465419Y-59720978D01*
X138441844Y-59736731D01*
X138419825Y-59741110D01*
X138403093Y-59748499D01*
X138354126Y-59754179D01*
X138350000Y-59755000D01*
X136700000Y-59755000D01*
X136695874Y-59754179D01*
X136646906Y-59748499D01*
X136630173Y-59741110D01*
X136608156Y-59736731D01*
X136584581Y-59720979D01*
X136564864Y-59712273D01*
X136551398Y-59698807D01*
X136530294Y-59684706D01*
X136516192Y-59663601D01*
X136502726Y-59650135D01*
X136494018Y-59630415D01*
X136478269Y-59606844D01*
X136473889Y-59584829D01*
X136466500Y-59568093D01*
X136460818Y-59519114D01*
X136460000Y-59515000D01*
X136460000Y-59215000D01*
X136460818Y-59210886D01*
X136466500Y-59161906D01*
X136473890Y-59145168D01*
X136478269Y-59123156D01*
X136494017Y-59099586D01*
X136502726Y-59079864D01*
X136516194Y-59066395D01*
X136530294Y-59045294D01*
X136551395Y-59031194D01*
X136564864Y-59017726D01*
X136584586Y-59009017D01*
X136608156Y-58993269D01*
X136630168Y-58988890D01*
X136646906Y-58981500D01*
X136695886Y-58975818D01*
X136700000Y-58975000D01*
X138350000Y-58975000D01*
X138354114Y-58975818D01*
G37*
G36*
X143304114Y-58975818D02*
G01*
X143353093Y-58981500D01*
X143369829Y-58988889D01*
X143391844Y-58993269D01*
X143415415Y-59009018D01*
X143435135Y-59017726D01*
X143448601Y-59031192D01*
X143469706Y-59045294D01*
X143483807Y-59066398D01*
X143497273Y-59079864D01*
X143505979Y-59099581D01*
X143521731Y-59123156D01*
X143526110Y-59145173D01*
X143533499Y-59161906D01*
X143539179Y-59210874D01*
X143540000Y-59215000D01*
X143540000Y-59515000D01*
X143539179Y-59519126D01*
X143533499Y-59568093D01*
X143526110Y-59584825D01*
X143521731Y-59606844D01*
X143505978Y-59630419D01*
X143497273Y-59650135D01*
X143483809Y-59663598D01*
X143469706Y-59684706D01*
X143448598Y-59698809D01*
X143435135Y-59712273D01*
X143415419Y-59720978D01*
X143391844Y-59736731D01*
X143369825Y-59741110D01*
X143353093Y-59748499D01*
X143304126Y-59754179D01*
X143300000Y-59755000D01*
X141650000Y-59755000D01*
X141645874Y-59754179D01*
X141596906Y-59748499D01*
X141580173Y-59741110D01*
X141558156Y-59736731D01*
X141534581Y-59720979D01*
X141514864Y-59712273D01*
X141501398Y-59698807D01*
X141480294Y-59684706D01*
X141466192Y-59663601D01*
X141452726Y-59650135D01*
X141444018Y-59630415D01*
X141428269Y-59606844D01*
X141423889Y-59584829D01*
X141416500Y-59568093D01*
X141410818Y-59519114D01*
X141410000Y-59515000D01*
X141410000Y-59215000D01*
X141410818Y-59210886D01*
X141416500Y-59161906D01*
X141423890Y-59145168D01*
X141428269Y-59123156D01*
X141444017Y-59099586D01*
X141452726Y-59079864D01*
X141466194Y-59066395D01*
X141480294Y-59045294D01*
X141501395Y-59031194D01*
X141514864Y-59017726D01*
X141534586Y-59009017D01*
X141558156Y-58993269D01*
X141580168Y-58988890D01*
X141596906Y-58981500D01*
X141645886Y-58975818D01*
X141650000Y-58975000D01*
X143300000Y-58975000D01*
X143304114Y-58975818D01*
G37*
G36*
X150884442Y-57066851D02*
G01*
X150913640Y-57086360D01*
X150933149Y-57115558D01*
X150940000Y-57150000D01*
X150940000Y-58850000D01*
X150933149Y-58884442D01*
X150913640Y-58913640D01*
X150884442Y-58933149D01*
X150850000Y-58940000D01*
X149150000Y-58940000D01*
X149115558Y-58933149D01*
X149086360Y-58913640D01*
X149066851Y-58884442D01*
X149060000Y-58850000D01*
X149060000Y-57150000D01*
X149066851Y-57115558D01*
X149086360Y-57086360D01*
X149115558Y-57066851D01*
X149150000Y-57060000D01*
X150850000Y-57060000D01*
X150884442Y-57066851D01*
G37*
G36*
X126342632Y-57313323D02*
G01*
X126475296Y-57339711D01*
X126600264Y-57391474D01*
X126712731Y-57466623D01*
X126808377Y-57562269D01*
X126883526Y-57674736D01*
X126935289Y-57799704D01*
X126961677Y-57932368D01*
X126961677Y-58067632D01*
X126935289Y-58200296D01*
X126883526Y-58325264D01*
X126808377Y-58437731D01*
X126712731Y-58533377D01*
X126600264Y-58608526D01*
X126475296Y-58660289D01*
X126342632Y-58686677D01*
X126275000Y-58690000D01*
X126273750Y-58690000D01*
X125726250Y-58690000D01*
X125725000Y-58690000D01*
X125657368Y-58686677D01*
X125524704Y-58660289D01*
X125399736Y-58608526D01*
X125287269Y-58533377D01*
X125191623Y-58437731D01*
X125116474Y-58325264D01*
X125064711Y-58200296D01*
X125038323Y-58067632D01*
X125038323Y-57932368D01*
X125064711Y-57799704D01*
X125116474Y-57674736D01*
X125191623Y-57562269D01*
X125287269Y-57466623D01*
X125399736Y-57391474D01*
X125524704Y-57339711D01*
X125657368Y-57313323D01*
X125725000Y-57310000D01*
X126275000Y-57310000D01*
X126342632Y-57313323D01*
G37*
G36*
X138354114Y-57705818D02*
G01*
X138403093Y-57711500D01*
X138419829Y-57718889D01*
X138441844Y-57723269D01*
X138465415Y-57739018D01*
X138485135Y-57747726D01*
X138498601Y-57761192D01*
X138519706Y-57775294D01*
X138533807Y-57796398D01*
X138547273Y-57809864D01*
X138555979Y-57829581D01*
X138571731Y-57853156D01*
X138576110Y-57875173D01*
X138583499Y-57891906D01*
X138589179Y-57940874D01*
X138590000Y-57945000D01*
X138590000Y-58245000D01*
X138589179Y-58249126D01*
X138583499Y-58298093D01*
X138576110Y-58314825D01*
X138571731Y-58336844D01*
X138555978Y-58360419D01*
X138547273Y-58380135D01*
X138533809Y-58393598D01*
X138519706Y-58414706D01*
X138498598Y-58428809D01*
X138485135Y-58442273D01*
X138465419Y-58450978D01*
X138441844Y-58466731D01*
X138419825Y-58471110D01*
X138403093Y-58478499D01*
X138354126Y-58484179D01*
X138350000Y-58485000D01*
X136700000Y-58485000D01*
X136695874Y-58484179D01*
X136646906Y-58478499D01*
X136630173Y-58471110D01*
X136608156Y-58466731D01*
X136584581Y-58450979D01*
X136564864Y-58442273D01*
X136551398Y-58428807D01*
X136530294Y-58414706D01*
X136516192Y-58393601D01*
X136502726Y-58380135D01*
X136494018Y-58360415D01*
X136478269Y-58336844D01*
X136473889Y-58314829D01*
X136466500Y-58298093D01*
X136460818Y-58249114D01*
X136460000Y-58245000D01*
X136460000Y-57945000D01*
X136460818Y-57940886D01*
X136466500Y-57891906D01*
X136473890Y-57875168D01*
X136478269Y-57853156D01*
X136494017Y-57829586D01*
X136502726Y-57809864D01*
X136516194Y-57796395D01*
X136530294Y-57775294D01*
X136551395Y-57761194D01*
X136564864Y-57747726D01*
X136584586Y-57739017D01*
X136608156Y-57723269D01*
X136630168Y-57718890D01*
X136646906Y-57711500D01*
X136695886Y-57705818D01*
X136700000Y-57705000D01*
X138350000Y-57705000D01*
X138354114Y-57705818D01*
G37*
G36*
X143304114Y-57705818D02*
G01*
X143353093Y-57711500D01*
X143369829Y-57718889D01*
X143391844Y-57723269D01*
X143415415Y-57739018D01*
X143435135Y-57747726D01*
X143448601Y-57761192D01*
X143469706Y-57775294D01*
X143483807Y-57796398D01*
X143497273Y-57809864D01*
X143505979Y-57829581D01*
X143521731Y-57853156D01*
X143526110Y-57875173D01*
X143533499Y-57891906D01*
X143539179Y-57940874D01*
X143540000Y-57945000D01*
X143540000Y-58245000D01*
X143539179Y-58249126D01*
X143533499Y-58298093D01*
X143526110Y-58314825D01*
X143521731Y-58336844D01*
X143505978Y-58360419D01*
X143497273Y-58380135D01*
X143483809Y-58393598D01*
X143469706Y-58414706D01*
X143448598Y-58428809D01*
X143435135Y-58442273D01*
X143415419Y-58450978D01*
X143391844Y-58466731D01*
X143369825Y-58471110D01*
X143353093Y-58478499D01*
X143304126Y-58484179D01*
X143300000Y-58485000D01*
X141650000Y-58485000D01*
X141645874Y-58484179D01*
X141596906Y-58478499D01*
X141580173Y-58471110D01*
X141558156Y-58466731D01*
X141534581Y-58450979D01*
X141514864Y-58442273D01*
X141501398Y-58428807D01*
X141480294Y-58414706D01*
X141466192Y-58393601D01*
X141452726Y-58380135D01*
X141444018Y-58360415D01*
X141428269Y-58336844D01*
X141423889Y-58314829D01*
X141416500Y-58298093D01*
X141410818Y-58249114D01*
X141410000Y-58245000D01*
X141410000Y-57945000D01*
X141410818Y-57940886D01*
X141416500Y-57891906D01*
X141423890Y-57875168D01*
X141428269Y-57853156D01*
X141444017Y-57829586D01*
X141452726Y-57809864D01*
X141466194Y-57796395D01*
X141480294Y-57775294D01*
X141501395Y-57761194D01*
X141514864Y-57747726D01*
X141534586Y-57739017D01*
X141558156Y-57723269D01*
X141580168Y-57718890D01*
X141596906Y-57711500D01*
X141645886Y-57705818D01*
X141650000Y-57705000D01*
X143300000Y-57705000D01*
X143304114Y-57705818D01*
G37*
G36*
X131787998Y-54221585D02*
G01*
X131797693Y-54226106D01*
X131804872Y-54227243D01*
X131856010Y-54253299D01*
X131895016Y-54271488D01*
X131898453Y-54274925D01*
X131899475Y-54275446D01*
X131974553Y-54350524D01*
X131975073Y-54351545D01*
X131978512Y-54354984D01*
X131996705Y-54394001D01*
X132022756Y-54445127D01*
X132023892Y-54452303D01*
X132028415Y-54462002D01*
X132040000Y-54550000D01*
X132040000Y-55450000D01*
X132028415Y-55537998D01*
X132023892Y-55547696D01*
X132022756Y-55554872D01*
X131996711Y-55605987D01*
X131978512Y-55645016D01*
X131975072Y-55648455D01*
X131974553Y-55649475D01*
X131899475Y-55724553D01*
X131898455Y-55725072D01*
X131895016Y-55728512D01*
X131855987Y-55746711D01*
X131804872Y-55772756D01*
X131797696Y-55773892D01*
X131787998Y-55778415D01*
X131700000Y-55790000D01*
X131050000Y-55790000D01*
X130962002Y-55778415D01*
X130952303Y-55773892D01*
X130945127Y-55772756D01*
X130894001Y-55746705D01*
X130854984Y-55728512D01*
X130851545Y-55725073D01*
X130850524Y-55724553D01*
X130775446Y-55649475D01*
X130774925Y-55648453D01*
X130771488Y-55645016D01*
X130753299Y-55606010D01*
X130727243Y-55554872D01*
X130726106Y-55547693D01*
X130721585Y-55537998D01*
X130710000Y-55450000D01*
X130710000Y-54550000D01*
X130721585Y-54462002D01*
X130726105Y-54452306D01*
X130727243Y-54445127D01*
X130753304Y-54393978D01*
X130771488Y-54354984D01*
X130774924Y-54351547D01*
X130775446Y-54350524D01*
X130850524Y-54275446D01*
X130851547Y-54274924D01*
X130854984Y-54271488D01*
X130893978Y-54253304D01*
X130945127Y-54227243D01*
X130952306Y-54226105D01*
X130962002Y-54221585D01*
X131050000Y-54210000D01*
X131700000Y-54210000D01*
X131787998Y-54221585D01*
G37*
G36*
X133837998Y-54221585D02*
G01*
X133847693Y-54226106D01*
X133854872Y-54227243D01*
X133906010Y-54253299D01*
X133945016Y-54271488D01*
X133948453Y-54274925D01*
X133949475Y-54275446D01*
X134024553Y-54350524D01*
X134025073Y-54351545D01*
X134028512Y-54354984D01*
X134046705Y-54394001D01*
X134072756Y-54445127D01*
X134073892Y-54452303D01*
X134078415Y-54462002D01*
X134090000Y-54550000D01*
X134090000Y-55450000D01*
X134078415Y-55537998D01*
X134073892Y-55547696D01*
X134072756Y-55554872D01*
X134046711Y-55605987D01*
X134028512Y-55645016D01*
X134025072Y-55648455D01*
X134024553Y-55649475D01*
X133949475Y-55724553D01*
X133948455Y-55725072D01*
X133945016Y-55728512D01*
X133905987Y-55746711D01*
X133854872Y-55772756D01*
X133847696Y-55773892D01*
X133837998Y-55778415D01*
X133750000Y-55790000D01*
X133100000Y-55790000D01*
X133012002Y-55778415D01*
X133002303Y-55773892D01*
X132995127Y-55772756D01*
X132944001Y-55746705D01*
X132904984Y-55728512D01*
X132901545Y-55725073D01*
X132900524Y-55724553D01*
X132825446Y-55649475D01*
X132824925Y-55648453D01*
X132821488Y-55645016D01*
X132803299Y-55606010D01*
X132777243Y-55554872D01*
X132776106Y-55547693D01*
X132771585Y-55537998D01*
X132760000Y-55450000D01*
X132760000Y-54550000D01*
X132771585Y-54462002D01*
X132776105Y-54452306D01*
X132777243Y-54445127D01*
X132803304Y-54393978D01*
X132821488Y-54354984D01*
X132824924Y-54351547D01*
X132825446Y-54350524D01*
X132900524Y-54275446D01*
X132901547Y-54274924D01*
X132904984Y-54271488D01*
X132943978Y-54253304D01*
X132995127Y-54227243D01*
X133002306Y-54226105D01*
X133012002Y-54221585D01*
X133100000Y-54210000D01*
X133750000Y-54210000D01*
X133837998Y-54221585D01*
G37*
G36*
X127329703Y-50342473D02*
G01*
X127543233Y-50399688D01*
X127747468Y-50484285D01*
X127938914Y-50594816D01*
X128114294Y-50729391D01*
X128270609Y-50885706D01*
X128405184Y-51061086D01*
X128515715Y-51252532D01*
X128600312Y-51456767D01*
X128657527Y-51670297D01*
X128686382Y-51889469D01*
X128686382Y-52110531D01*
X128657527Y-52329703D01*
X128600312Y-52543233D01*
X128515715Y-52747468D01*
X128405184Y-52938914D01*
X128270609Y-53114294D01*
X128114294Y-53270609D01*
X127938914Y-53405184D01*
X127747468Y-53515715D01*
X127543233Y-53600312D01*
X127329703Y-53657527D01*
X127110531Y-53686382D01*
X126889469Y-53686382D01*
X126670297Y-53657527D01*
X126456767Y-53600312D01*
X126252532Y-53515715D01*
X126061086Y-53405184D01*
X125885706Y-53270609D01*
X125729391Y-53114294D01*
X125594816Y-52938914D01*
X125484285Y-52747468D01*
X125399688Y-52543233D01*
X125342473Y-52329703D01*
X125313618Y-52110531D01*
X125313618Y-51889469D01*
X125342473Y-51670297D01*
X125399688Y-51456767D01*
X125484285Y-51252532D01*
X125594816Y-51061086D01*
X125729391Y-50885706D01*
X125885706Y-50729391D01*
X126061086Y-50594816D01*
X126252532Y-50484285D01*
X126456767Y-50399688D01*
X126670297Y-50342473D01*
X126889469Y-50313618D01*
X127110531Y-50313618D01*
X127329703Y-50342473D01*
G37*
G36*
X136884442Y-51066851D02*
G01*
X136913640Y-51086360D01*
X136933149Y-51115558D01*
X136940000Y-51150000D01*
X136940000Y-52850000D01*
X136933149Y-52884442D01*
X136913640Y-52913640D01*
X136884442Y-52933149D01*
X136850000Y-52940000D01*
X135150000Y-52940000D01*
X135115558Y-52933149D01*
X135086360Y-52913640D01*
X135066851Y-52884442D01*
X135060000Y-52850000D01*
X135060000Y-51150000D01*
X135066851Y-51115558D01*
X135086360Y-51086360D01*
X135115558Y-51066851D01*
X135150000Y-51060000D01*
X136850000Y-51060000D01*
X136884442Y-51066851D01*
G37*
G36*
X142074442Y-51066851D02*
G01*
X142103640Y-51086360D01*
X142123149Y-51115558D01*
X142130000Y-51150000D01*
X142130000Y-52850000D01*
X142123149Y-52884442D01*
X142103640Y-52913640D01*
X142074442Y-52933149D01*
X142040000Y-52940000D01*
X140340000Y-52940000D01*
X140305558Y-52933149D01*
X140276360Y-52913640D01*
X140256851Y-52884442D01*
X140250000Y-52850000D01*
X140250000Y-51150000D01*
X140256851Y-51115558D01*
X140276360Y-51086360D01*
X140305558Y-51066851D01*
X140340000Y-51060000D01*
X142040000Y-51060000D01*
X142074442Y-51066851D01*
G37*
G36*
X133732868Y-51100476D02*
G01*
X133903113Y-51170994D01*
X134056330Y-51273370D01*
X134186630Y-51403670D01*
X134289006Y-51556887D01*
X134359524Y-51727132D01*
X134395474Y-51907864D01*
X134395474Y-52092136D01*
X134359524Y-52272868D01*
X134289006Y-52443113D01*
X134186630Y-52596330D01*
X134056330Y-52726630D01*
X133903113Y-52829006D01*
X133732868Y-52899524D01*
X133552136Y-52935474D01*
X133367864Y-52935474D01*
X133187132Y-52899524D01*
X133016887Y-52829006D01*
X132863670Y-52726630D01*
X132733370Y-52596330D01*
X132630994Y-52443113D01*
X132560476Y-52272868D01*
X132524526Y-52092136D01*
X132524526Y-51907864D01*
X132560476Y-51727132D01*
X132630994Y-51556887D01*
X132733370Y-51403670D01*
X132863670Y-51273370D01*
X133016887Y-51170994D01*
X133187132Y-51100476D01*
X133367864Y-51064526D01*
X133552136Y-51064526D01*
X133732868Y-51100476D01*
G37*
G36*
X144002868Y-51100476D02*
G01*
X144173113Y-51170994D01*
X144326330Y-51273370D01*
X144456630Y-51403670D01*
X144559006Y-51556887D01*
X144629524Y-51727132D01*
X144665474Y-51907864D01*
X144665474Y-52092136D01*
X144629524Y-52272868D01*
X144559006Y-52443113D01*
X144456630Y-52596330D01*
X144326330Y-52726630D01*
X144173113Y-52829006D01*
X144002868Y-52899524D01*
X143822136Y-52935474D01*
X143637864Y-52935474D01*
X143457132Y-52899524D01*
X143286887Y-52829006D01*
X143133670Y-52726630D01*
X143003370Y-52596330D01*
X142900994Y-52443113D01*
X142830476Y-52272868D01*
X142794526Y-52092136D01*
X142794526Y-51907864D01*
X142830476Y-51727132D01*
X142900994Y-51556887D01*
X143003370Y-51403670D01*
X143133670Y-51273370D01*
X143286887Y-51170994D01*
X143457132Y-51100476D01*
X143637864Y-51064526D01*
X143822136Y-51064526D01*
X144002868Y-51100476D01*
G37*
G36*
X146542868Y-51100476D02*
G01*
X146713113Y-51170994D01*
X146866330Y-51273370D01*
X146996630Y-51403670D01*
X147099006Y-51556887D01*
X147169524Y-51727132D01*
X147205474Y-51907864D01*
X147205474Y-52092136D01*
X147169524Y-52272868D01*
X147099006Y-52443113D01*
X146996630Y-52596330D01*
X146866330Y-52726630D01*
X146713113Y-52829006D01*
X146542868Y-52899524D01*
X146362136Y-52935474D01*
X146177864Y-52935474D01*
X145997132Y-52899524D01*
X145826887Y-52829006D01*
X145673670Y-52726630D01*
X145543370Y-52596330D01*
X145440994Y-52443113D01*
X145370476Y-52272868D01*
X145334526Y-52092136D01*
X145334526Y-51907864D01*
X145370476Y-51727132D01*
X145440994Y-51556887D01*
X145543370Y-51403670D01*
X145673670Y-51273370D01*
X145826887Y-51170994D01*
X145997132Y-51100476D01*
X146177864Y-51064526D01*
X146362136Y-51064526D01*
X146542868Y-51100476D01*
G37*
G36*
X149082868Y-51100476D02*
G01*
X149253113Y-51170994D01*
X149406330Y-51273370D01*
X149536630Y-51403670D01*
X149639006Y-51556887D01*
X149709524Y-51727132D01*
X149745474Y-51907864D01*
X149745474Y-52092136D01*
X149709524Y-52272868D01*
X149639006Y-52443113D01*
X149536630Y-52596330D01*
X149406330Y-52726630D01*
X149253113Y-52829006D01*
X149082868Y-52899524D01*
X148902136Y-52935474D01*
X148717864Y-52935474D01*
X148537132Y-52899524D01*
X148366887Y-52829006D01*
X148213670Y-52726630D01*
X148083370Y-52596330D01*
X147980994Y-52443113D01*
X147910476Y-52272868D01*
X147874526Y-52092136D01*
X147874526Y-51907864D01*
X147910476Y-51727132D01*
X147980994Y-51556887D01*
X148083370Y-51403670D01*
X148213670Y-51273370D01*
X148366887Y-51170994D01*
X148537132Y-51100476D01*
X148717864Y-51064526D01*
X148902136Y-51064526D01*
X149082868Y-51100476D01*
G37*
M02*
