M48
; DRILL file {KiCad 9.0.7} date 2026-03-13T10:40:47+0100
; FORMAT={-:-/ absolute / metric / decimal}
; #@! TF.CreationDate,2026-03-13T10:40:47+01:00
; #@! TF.GenerationSoftware,Kicad,Pcbnew,9.0.7
; #@! TF.FileFunction,Plated,1,2,PTH
FMAT,2
METRIC
; #@! TA.AperFunction,Plated,PTH,ViaDrill
T1C0.400
; #@! TA.AperFunction,Plated,PTH,ComponentDrill
T2C0.750
; #@! TA.AperFunction,Plated,PTH,ComponentDrill
T3C0.950
; #@! TA.AperFunction,Plated,PTH,ComponentDrill
T4C1.000
; #@! TA.AperFunction,Plated,PTH,ComponentDrill
T5C3.200
%
G90
G05
T1
X138.0Y-56.0
X139.0Y-67.0
T2
X126.0Y-58.0
X126.0Y-60.0
X126.0Y-62.0
X127.0Y-67.0
X127.0Y-69.0
X127.0Y-71.0
T3
X136.5Y-70.0
X139.0Y-70.0
X141.5Y-70.0
X144.0Y-70.0
T4
X133.46Y-52.0
X136.0Y-52.0
X141.19Y-52.0
X143.73Y-52.0
X146.27Y-52.0
X148.81Y-52.0
X150.0Y-58.0
X150.0Y-60.54
T5
X152.0Y-70.0
M30
