%TF.GenerationSoftware,KiCad,Pcbnew,9.0.7*%
%TF.CreationDate,2026-03-13T10:40:51+01:00*%
%TF.ProjectId,MPC_Servo,4d50435f-5365-4727-966f-2e6b69636164,rev?*%
%TF.SameCoordinates,Original*%
%TF.FileFunction,Soldermask,Bot*%
%TF.FilePolarity,Negative*%
%FSLAX46Y46*%
G04 Gerber Fmt 4.6, Leading zero omitted, Abs format (unit mm)*
G04 Created by KiCad (PCBNEW 9.0.7) date 2026-03-13 10:40:51*
%MOMM*%
%LPD*%
G01*
G04 APERTURE LIST*
G04 APERTURE END LIST*
G36*
X152484093Y-67150833D02*
G01*
X152800055Y-67222949D01*
X153105955Y-67329988D01*
X153397948Y-67470604D01*
X153672360Y-67643029D01*
X153925742Y-67845094D01*
X154154906Y-68074258D01*
X154356971Y-68327640D01*
X154529396Y-68602052D01*
X154670012Y-68894045D01*
X154777051Y-69199945D01*
X154849167Y-69515907D01*
X154885453Y-69837956D01*
X154885453Y-70162044D01*
X154849167Y-70484093D01*
X154777051Y-70800055D01*
X154670012Y-71105955D01*
X154529396Y-71397948D01*
X154356971Y-71672360D01*
X154154906Y-71925742D01*
X153925742Y-72154906D01*
X153672360Y-72356971D01*
X153397948Y-72529396D01*
X153105955Y-72670012D01*
X152800055Y-72777051D01*
X152484093Y-72849167D01*
X152162044Y-72885453D01*
X151837956Y-72885453D01*
X151515907Y-72849167D01*
X151199945Y-72777051D01*
X150894045Y-72670012D01*
X150602052Y-72529396D01*
X150327640Y-72356971D01*
X150074258Y-72154906D01*
X149845094Y-71925742D01*
X149643029Y-71672360D01*
X149470604Y-71397948D01*
X149329988Y-71105955D01*
X149222949Y-70800055D01*
X149150833Y-70484093D01*
X149114547Y-70162044D01*
X149114547Y-69837956D01*
X149150833Y-69515907D01*
X149222949Y-69199945D01*
X149329988Y-68894045D01*
X149470604Y-68602052D01*
X149643029Y-68327640D01*
X149845094Y-68074258D01*
X150074258Y-67845094D01*
X150327640Y-67643029D01*
X150602052Y-67470604D01*
X150894045Y-67329988D01*
X151199945Y-67222949D01*
X151515907Y-67150833D01*
X151837956Y-67114547D01*
X152162044Y-67114547D01*
X152484093Y-67150833D01*
G37*
G36*
X127342632Y-70313323D02*
G01*
X127475296Y-70339711D01*
X127600264Y-70391474D01*
X127712731Y-70466623D01*
X127808377Y-70562269D01*
X127883526Y-70674736D01*
X127935289Y-70799704D01*
X127961677Y-70932368D01*
X127961677Y-71067632D01*
X127935289Y-71200296D01*
X127883526Y-71325264D01*
X127808377Y-71437731D01*
X127712731Y-71533377D01*
X127600264Y-71608526D01*
X127475296Y-71660289D01*
X127342632Y-71686677D01*
X127275000Y-71690000D01*
X127273750Y-71690000D01*
X126726250Y-71690000D01*
X126725000Y-71690000D01*
X126657368Y-71686677D01*
X126524704Y-71660289D01*
X126399736Y-71608526D01*
X126287269Y-71533377D01*
X126191623Y-71437731D01*
X126116474Y-71325264D01*
X126064711Y-71200296D01*
X126038323Y-71067632D01*
X126038323Y-70932368D01*
X126064711Y-70799704D01*
X126116474Y-70674736D01*
X126191623Y-70562269D01*
X126287269Y-70466623D01*
X126399736Y-70391474D01*
X126524704Y-70339711D01*
X126657368Y-70313323D01*
X126725000Y-70310000D01*
X127275000Y-70310000D01*
X127342632Y-70313323D01*
G37*
G36*
X137187998Y-68946585D02*
G01*
X137197693Y-68951106D01*
X137204872Y-68952243D01*
X137256010Y-68978299D01*
X137295016Y-68996488D01*
X137298453Y-68999925D01*
X137299475Y-69000446D01*
X137374553Y-69075524D01*
X137375073Y-69076545D01*
X137378512Y-69079984D01*
X137396705Y-69119001D01*
X137422756Y-69170127D01*
X137423892Y-69177303D01*
X137428415Y-69187002D01*
X137440000Y-69275000D01*
X137440000Y-70725000D01*
X137428415Y-70812998D01*
X137423892Y-70822696D01*
X137422756Y-70829872D01*
X137396711Y-70880987D01*
X137378512Y-70920016D01*
X137375072Y-70923455D01*
X137374553Y-70924475D01*
X137299475Y-70999553D01*
X137298455Y-71000072D01*
X137295016Y-71003512D01*
X137255987Y-71021711D01*
X137204872Y-71047756D01*
X137197696Y-71048892D01*
X137187998Y-71053415D01*
X137100000Y-71065000D01*
X135900000Y-71065000D01*
X135812002Y-71053415D01*
X135802303Y-71048892D01*
X135795127Y-71047756D01*
X135744001Y-71021705D01*
X135704984Y-71003512D01*
X135701545Y-71000073D01*
X135700524Y-70999553D01*
X135625446Y-70924475D01*
X135624925Y-70923453D01*
X135621488Y-70920016D01*
X135603299Y-70881010D01*
X135577243Y-70829872D01*
X135576106Y-70822693D01*
X135571585Y-70812998D01*
X135560000Y-70725000D01*
X135560000Y-69275000D01*
X135571585Y-69187002D01*
X135576105Y-69177306D01*
X135577243Y-69170127D01*
X135603304Y-69118978D01*
X135621488Y-69079984D01*
X135624924Y-69076547D01*
X135625446Y-69075524D01*
X135700524Y-69000446D01*
X135701547Y-68999924D01*
X135704984Y-68996488D01*
X135743978Y-68978304D01*
X135795127Y-68952243D01*
X135802306Y-68951105D01*
X135812002Y-68946585D01*
X135900000Y-68935000D01*
X137100000Y-68935000D01*
X137187998Y-68946585D01*
G37*
G36*
X139272868Y-68975476D02*
G01*
X139443113Y-69045994D01*
X139596330Y-69148370D01*
X139726630Y-69278670D01*
X139829006Y-69431887D01*
X139899524Y-69602132D01*
X139935474Y-69782864D01*
X139940000Y-69875000D01*
X139940000Y-70125000D01*
X139935474Y-70217136D01*
X139899524Y-70397868D01*
X139829006Y-70568113D01*
X139726630Y-70721330D01*
X139596330Y-70851630D01*
X139443113Y-70954006D01*
X139272868Y-71024524D01*
X139092136Y-71060474D01*
X138907864Y-71060474D01*
X138727132Y-71024524D01*
X138556887Y-70954006D01*
X138403670Y-70851630D01*
X138273370Y-70721330D01*
X138170994Y-70568113D01*
X138100476Y-70397868D01*
X138064526Y-70217136D01*
X138060000Y-70125000D01*
X138060000Y-69875000D01*
X138064526Y-69782864D01*
X138100476Y-69602132D01*
X138170994Y-69431887D01*
X138273370Y-69278670D01*
X138403670Y-69148370D01*
X138556887Y-69045994D01*
X138727132Y-68975476D01*
X138907864Y-68939526D01*
X139092136Y-68939526D01*
X139272868Y-68975476D01*
G37*
G36*
X141772868Y-68975476D02*
G01*
X141943113Y-69045994D01*
X142096330Y-69148370D01*
X142226630Y-69278670D01*
X142329006Y-69431887D01*
X142399524Y-69602132D01*
X142435474Y-69782864D01*
X142440000Y-69875000D01*
X142440000Y-70125000D01*
X142435474Y-70217136D01*
X142399524Y-70397868D01*
X142329006Y-70568113D01*
X142226630Y-70721330D01*
X142096330Y-70851630D01*
X141943113Y-70954006D01*
X141772868Y-71024524D01*
X141592136Y-71060474D01*
X141407864Y-71060474D01*
X141227132Y-71024524D01*
X141056887Y-70954006D01*
X140903670Y-70851630D01*
X140773370Y-70721330D01*
X140670994Y-70568113D01*
X140600476Y-70397868D01*
X140564526Y-70217136D01*
X140560000Y-70125000D01*
X140560000Y-69875000D01*
X140564526Y-69782864D01*
X140600476Y-69602132D01*
X140670994Y-69431887D01*
X140773370Y-69278670D01*
X140903670Y-69148370D01*
X141056887Y-69045994D01*
X141227132Y-68975476D01*
X141407864Y-68939526D01*
X141592136Y-68939526D01*
X141772868Y-68975476D01*
G37*
G36*
X144272868Y-68975476D02*
G01*
X144443113Y-69045994D01*
X144596330Y-69148370D01*
X144726630Y-69278670D01*
X144829006Y-69431887D01*
X144899524Y-69602132D01*
X144935474Y-69782864D01*
X144940000Y-69875000D01*
X144940000Y-70125000D01*
X144935474Y-70217136D01*
X144899524Y-70397868D01*
X144829006Y-70568113D01*
X144726630Y-70721330D01*
X144596330Y-70851630D01*
X144443113Y-70954006D01*
X144272868Y-71024524D01*
X144092136Y-71060474D01*
X143907864Y-71060474D01*
X143727132Y-71024524D01*
X143556887Y-70954006D01*
X143403670Y-70851630D01*
X143273370Y-70721330D01*
X143170994Y-70568113D01*
X143100476Y-70397868D01*
X143064526Y-70217136D01*
X143060000Y-70125000D01*
X143060000Y-69875000D01*
X143064526Y-69782864D01*
X143100476Y-69602132D01*
X143170994Y-69431887D01*
X143273370Y-69278670D01*
X143403670Y-69148370D01*
X143556887Y-69045994D01*
X143727132Y-68975476D01*
X143907864Y-68939526D01*
X144092136Y-68939526D01*
X144272868Y-68975476D01*
G37*
G36*
X127342632Y-68313323D02*
G01*
X127475296Y-68339711D01*
X127600264Y-68391474D01*
X127712731Y-68466623D01*
X127808377Y-68562269D01*
X127883526Y-68674736D01*
X127935289Y-68799704D01*
X127961677Y-68932368D01*
X127961677Y-69067632D01*
X127935289Y-69200296D01*
X127883526Y-69325264D01*
X127808377Y-69437731D01*
X127712731Y-69533377D01*
X127600264Y-69608526D01*
X127475296Y-69660289D01*
X127342632Y-69686677D01*
X127275000Y-69690000D01*
X127273750Y-69690000D01*
X126726250Y-69690000D01*
X126725000Y-69690000D01*
X126657368Y-69686677D01*
X126524704Y-69660289D01*
X126399736Y-69608526D01*
X126287269Y-69533377D01*
X126191623Y-69437731D01*
X126116474Y-69325264D01*
X126064711Y-69200296D01*
X126038323Y-69067632D01*
X126038323Y-68932368D01*
X126064711Y-68799704D01*
X126116474Y-68674736D01*
X126191623Y-68562269D01*
X126287269Y-68466623D01*
X126399736Y-68391474D01*
X126524704Y-68339711D01*
X126657368Y-68313323D01*
X126725000Y-68310000D01*
X127275000Y-68310000D01*
X127342632Y-68313323D01*
G37*
G36*
X127712998Y-66321585D02*
G01*
X127722693Y-66326106D01*
X127729872Y-66327243D01*
X127781010Y-66353299D01*
X127820016Y-66371488D01*
X127823453Y-66374925D01*
X127824475Y-66375446D01*
X127899553Y-66450524D01*
X127900073Y-66451545D01*
X127903512Y-66454984D01*
X127921705Y-66494001D01*
X127947756Y-66545127D01*
X127948892Y-66552303D01*
X127953415Y-66562002D01*
X127965000Y-66650000D01*
X127965000Y-67350000D01*
X127953415Y-67437998D01*
X127948892Y-67447696D01*
X127947756Y-67454872D01*
X127921711Y-67505987D01*
X127903512Y-67545016D01*
X127900072Y-67548455D01*
X127899553Y-67549475D01*
X127824475Y-67624553D01*
X127823455Y-67625072D01*
X127820016Y-67628512D01*
X127780987Y-67646711D01*
X127729872Y-67672756D01*
X127722696Y-67673892D01*
X127712998Y-67678415D01*
X127625000Y-67690000D01*
X126375000Y-67690000D01*
X126287002Y-67678415D01*
X126277303Y-67673892D01*
X126270127Y-67672756D01*
X126219001Y-67646705D01*
X126179984Y-67628512D01*
X126176545Y-67625073D01*
X126175524Y-67624553D01*
X126100446Y-67549475D01*
X126099925Y-67548453D01*
X126096488Y-67545016D01*
X126078299Y-67506010D01*
X126052243Y-67454872D01*
X126051106Y-67447693D01*
X126046585Y-67437998D01*
X126035000Y-67350000D01*
X126035000Y-66650000D01*
X126046585Y-66562002D01*
X126051105Y-66552306D01*
X126052243Y-66545127D01*
X126078304Y-66493978D01*
X126096488Y-66454984D01*
X126099924Y-66451547D01*
X126100446Y-66450524D01*
X126175524Y-66375446D01*
X126176547Y-66374924D01*
X126179984Y-66371488D01*
X126218978Y-66353304D01*
X126270127Y-66327243D01*
X126277306Y-66326105D01*
X126287002Y-66321585D01*
X126375000Y-66310000D01*
X127625000Y-66310000D01*
X127712998Y-66321585D01*
G37*
G36*
X126712998Y-61321585D02*
G01*
X126722693Y-61326106D01*
X126729872Y-61327243D01*
X126781010Y-61353299D01*
X126820016Y-61371488D01*
X126823453Y-61374925D01*
X126824475Y-61375446D01*
X126899553Y-61450524D01*
X126900073Y-61451545D01*
X126903512Y-61454984D01*
X126921705Y-61494001D01*
X126947756Y-61545127D01*
X126948892Y-61552303D01*
X126953415Y-61562002D01*
X126965000Y-61650000D01*
X126965000Y-62350000D01*
X126953415Y-62437998D01*
X126948892Y-62447696D01*
X126947756Y-62454872D01*
X126921711Y-62505987D01*
X126903512Y-62545016D01*
X126900072Y-62548455D01*
X126899553Y-62549475D01*
X126824475Y-62624553D01*
X126823455Y-62625072D01*
X126820016Y-62628512D01*
X126780987Y-62646711D01*
X126729872Y-62672756D01*
X126722696Y-62673892D01*
X126712998Y-62678415D01*
X126625000Y-62690000D01*
X125375000Y-62690000D01*
X125287002Y-62678415D01*
X125277303Y-62673892D01*
X125270127Y-62672756D01*
X125219001Y-62646705D01*
X125179984Y-62628512D01*
X125176545Y-62625073D01*
X125175524Y-62624553D01*
X125100446Y-62549475D01*
X125099925Y-62548453D01*
X125096488Y-62545016D01*
X125078299Y-62506010D01*
X125052243Y-62454872D01*
X125051106Y-62447693D01*
X125046585Y-62437998D01*
X125035000Y-62350000D01*
X125035000Y-61650000D01*
X125046585Y-61562002D01*
X125051105Y-61552306D01*
X125052243Y-61545127D01*
X125078304Y-61493978D01*
X125096488Y-61454984D01*
X125099924Y-61451547D01*
X125100446Y-61450524D01*
X125175524Y-61375446D01*
X125176547Y-61374924D01*
X125179984Y-61371488D01*
X125218978Y-61353304D01*
X125270127Y-61327243D01*
X125277306Y-61326105D01*
X125287002Y-61321585D01*
X125375000Y-61310000D01*
X126625000Y-61310000D01*
X126712998Y-61321585D01*
G37*
G36*
X150272868Y-59640476D02*
G01*
X150443113Y-59710994D01*
X150596330Y-59813370D01*
X150726630Y-59943670D01*
X150829006Y-60096887D01*
X150899524Y-60267132D01*
X150935474Y-60447864D01*
X150935474Y-60632136D01*
X150899524Y-60812868D01*
X150829006Y-60983113D01*
X150726630Y-61136330D01*
X150596330Y-61266630D01*
X150443113Y-61369006D01*
X150272868Y-61439524D01*
X150092136Y-61475474D01*
X149907864Y-61475474D01*
X149727132Y-61439524D01*
X149556887Y-61369006D01*
X149403670Y-61266630D01*
X149273370Y-61136330D01*
X149170994Y-60983113D01*
X149100476Y-60812868D01*
X149064526Y-60632136D01*
X149064526Y-60447864D01*
X149100476Y-60267132D01*
X149170994Y-60096887D01*
X149273370Y-59943670D01*
X149403670Y-59813370D01*
X149556887Y-59710994D01*
X149727132Y-59640476D01*
X149907864Y-59604526D01*
X150092136Y-59604526D01*
X150272868Y-59640476D01*
G37*
G36*
X126342632Y-59313323D02*
G01*
X126475296Y-59339711D01*
X126600264Y-59391474D01*
X126712731Y-59466623D01*
X126808377Y-59562269D01*
X126883526Y-59674736D01*
X126935289Y-59799704D01*
X126961677Y-59932368D01*
X126961677Y-60067632D01*
X126935289Y-60200296D01*
X126883526Y-60325264D01*
X126808377Y-60437731D01*
X126712731Y-60533377D01*
X126600264Y-60608526D01*
X126475296Y-60660289D01*
X126342632Y-60686677D01*
X126275000Y-60690000D01*
X126273750Y-60690000D01*
X125726250Y-60690000D01*
X125725000Y-60690000D01*
X125657368Y-60686677D01*
X125524704Y-60660289D01*
X125399736Y-60608526D01*
X125287269Y-60533377D01*
X125191623Y-60437731D01*
X125116474Y-60325264D01*
X125064711Y-60200296D01*
X125038323Y-60067632D01*
X125038323Y-59932368D01*
X125064711Y-59799704D01*
X125116474Y-59674736D01*
X125191623Y-59562269D01*
X125287269Y-59466623D01*
X125399736Y-59391474D01*
X125524704Y-59339711D01*
X125657368Y-59313323D01*
X125725000Y-59310000D01*
X126275000Y-59310000D01*
X126342632Y-59313323D01*
G37*
G36*
X150884442Y-57066851D02*
G01*
X150913640Y-57086360D01*
X150933149Y-57115558D01*
X150940000Y-57150000D01*
X150940000Y-58850000D01*
X150933149Y-58884442D01*
X150913640Y-58913640D01*
X150884442Y-58933149D01*
X150850000Y-58940000D01*
X149150000Y-58940000D01*
X149115558Y-58933149D01*
X149086360Y-58913640D01*
X149066851Y-58884442D01*
X149060000Y-58850000D01*
X149060000Y-57150000D01*
X149066851Y-57115558D01*
X149086360Y-57086360D01*
X149115558Y-57066851D01*
X149150000Y-57060000D01*
X150850000Y-57060000D01*
X150884442Y-57066851D01*
G37*
G36*
X126342632Y-57313323D02*
G01*
X126475296Y-57339711D01*
X126600264Y-57391474D01*
X126712731Y-57466623D01*
X126808377Y-57562269D01*
X126883526Y-57674736D01*
X126935289Y-57799704D01*
X126961677Y-57932368D01*
X126961677Y-58067632D01*
X126935289Y-58200296D01*
X126883526Y-58325264D01*
X126808377Y-58437731D01*
X126712731Y-58533377D01*
X126600264Y-58608526D01*
X126475296Y-58660289D01*
X126342632Y-58686677D01*
X126275000Y-58690000D01*
X126273750Y-58690000D01*
X125726250Y-58690000D01*
X125725000Y-58690000D01*
X125657368Y-58686677D01*
X125524704Y-58660289D01*
X125399736Y-58608526D01*
X125287269Y-58533377D01*
X125191623Y-58437731D01*
X125116474Y-58325264D01*
X125064711Y-58200296D01*
X125038323Y-58067632D01*
X125038323Y-57932368D01*
X125064711Y-57799704D01*
X125116474Y-57674736D01*
X125191623Y-57562269D01*
X125287269Y-57466623D01*
X125399736Y-57391474D01*
X125524704Y-57339711D01*
X125657368Y-57313323D01*
X125725000Y-57310000D01*
X126275000Y-57310000D01*
X126342632Y-57313323D01*
G37*
G36*
X127329703Y-50342473D02*
G01*
X127543233Y-50399688D01*
X127747468Y-50484285D01*
X127938914Y-50594816D01*
X128114294Y-50729391D01*
X128270609Y-50885706D01*
X128405184Y-51061086D01*
X128515715Y-51252532D01*
X128600312Y-51456767D01*
X128657527Y-51670297D01*
X128686382Y-51889469D01*
X128686382Y-52110531D01*
X128657527Y-52329703D01*
X128600312Y-52543233D01*
X128515715Y-52747468D01*
X128405184Y-52938914D01*
X128270609Y-53114294D01*
X128114294Y-53270609D01*
X127938914Y-53405184D01*
X127747468Y-53515715D01*
X127543233Y-53600312D01*
X127329703Y-53657527D01*
X127110531Y-53686382D01*
X126889469Y-53686382D01*
X126670297Y-53657527D01*
X126456767Y-53600312D01*
X126252532Y-53515715D01*
X126061086Y-53405184D01*
X125885706Y-53270609D01*
X125729391Y-53114294D01*
X125594816Y-52938914D01*
X125484285Y-52747468D01*
X125399688Y-52543233D01*
X125342473Y-52329703D01*
X125313618Y-52110531D01*
X125313618Y-51889469D01*
X125342473Y-51670297D01*
X125399688Y-51456767D01*
X125484285Y-51252532D01*
X125594816Y-51061086D01*
X125729391Y-50885706D01*
X125885706Y-50729391D01*
X126061086Y-50594816D01*
X126252532Y-50484285D01*
X126456767Y-50399688D01*
X126670297Y-50342473D01*
X126889469Y-50313618D01*
X127110531Y-50313618D01*
X127329703Y-50342473D01*
G37*
G36*
X136884442Y-51066851D02*
G01*
X136913640Y-51086360D01*
X136933149Y-51115558D01*
X136940000Y-51150000D01*
X136940000Y-52850000D01*
X136933149Y-52884442D01*
X136913640Y-52913640D01*
X136884442Y-52933149D01*
X136850000Y-52940000D01*
X135150000Y-52940000D01*
X135115558Y-52933149D01*
X135086360Y-52913640D01*
X135066851Y-52884442D01*
X135060000Y-52850000D01*
X135060000Y-51150000D01*
X135066851Y-51115558D01*
X135086360Y-51086360D01*
X135115558Y-51066851D01*
X135150000Y-51060000D01*
X136850000Y-51060000D01*
X136884442Y-51066851D01*
G37*
G36*
X142074442Y-51066851D02*
G01*
X142103640Y-51086360D01*
X142123149Y-51115558D01*
X142130000Y-51150000D01*
X142130000Y-52850000D01*
X142123149Y-52884442D01*
X142103640Y-52913640D01*
X142074442Y-52933149D01*
X142040000Y-52940000D01*
X140340000Y-52940000D01*
X140305558Y-52933149D01*
X140276360Y-52913640D01*
X140256851Y-52884442D01*
X140250000Y-52850000D01*
X140250000Y-51150000D01*
X140256851Y-51115558D01*
X140276360Y-51086360D01*
X140305558Y-51066851D01*
X140340000Y-51060000D01*
X142040000Y-51060000D01*
X142074442Y-51066851D01*
G37*
G36*
X133732868Y-51100476D02*
G01*
X133903113Y-51170994D01*
X134056330Y-51273370D01*
X134186630Y-51403670D01*
X134289006Y-51556887D01*
X134359524Y-51727132D01*
X134395474Y-51907864D01*
X134395474Y-52092136D01*
X134359524Y-52272868D01*
X134289006Y-52443113D01*
X134186630Y-52596330D01*
X134056330Y-52726630D01*
X133903113Y-52829006D01*
X133732868Y-52899524D01*
X133552136Y-52935474D01*
X133367864Y-52935474D01*
X133187132Y-52899524D01*
X133016887Y-52829006D01*
X132863670Y-52726630D01*
X132733370Y-52596330D01*
X132630994Y-52443113D01*
X132560476Y-52272868D01*
X132524526Y-52092136D01*
X132524526Y-51907864D01*
X132560476Y-51727132D01*
X132630994Y-51556887D01*
X132733370Y-51403670D01*
X132863670Y-51273370D01*
X133016887Y-51170994D01*
X133187132Y-51100476D01*
X133367864Y-51064526D01*
X133552136Y-51064526D01*
X133732868Y-51100476D01*
G37*
G36*
X144002868Y-51100476D02*
G01*
X144173113Y-51170994D01*
X144326330Y-51273370D01*
X144456630Y-51403670D01*
X144559006Y-51556887D01*
X144629524Y-51727132D01*
X144665474Y-51907864D01*
X144665474Y-52092136D01*
X144629524Y-52272868D01*
X144559006Y-52443113D01*
X144456630Y-52596330D01*
X144326330Y-52726630D01*
X144173113Y-52829006D01*
X144002868Y-52899524D01*
X143822136Y-52935474D01*
X143637864Y-52935474D01*
X143457132Y-52899524D01*
X143286887Y-52829006D01*
X143133670Y-52726630D01*
X143003370Y-52596330D01*
X142900994Y-52443113D01*
X142830476Y-52272868D01*
X142794526Y-52092136D01*
X142794526Y-51907864D01*
X142830476Y-51727132D01*
X142900994Y-51556887D01*
X143003370Y-51403670D01*
X143133670Y-51273370D01*
X143286887Y-51170994D01*
X143457132Y-51100476D01*
X143637864Y-51064526D01*
X143822136Y-51064526D01*
X144002868Y-51100476D01*
G37*
G36*
X146542868Y-51100476D02*
G01*
X146713113Y-51170994D01*
X146866330Y-51273370D01*
X146996630Y-51403670D01*
X147099006Y-51556887D01*
X147169524Y-51727132D01*
X147205474Y-51907864D01*
X147205474Y-52092136D01*
X147169524Y-52272868D01*
X147099006Y-52443113D01*
X146996630Y-52596330D01*
X146866330Y-52726630D01*
X146713113Y-52829006D01*
X146542868Y-52899524D01*
X146362136Y-52935474D01*
X146177864Y-52935474D01*
X145997132Y-52899524D01*
X145826887Y-52829006D01*
X145673670Y-52726630D01*
X145543370Y-52596330D01*
X145440994Y-52443113D01*
X145370476Y-52272868D01*
X145334526Y-52092136D01*
X145334526Y-51907864D01*
X145370476Y-51727132D01*
X145440994Y-51556887D01*
X145543370Y-51403670D01*
X145673670Y-51273370D01*
X145826887Y-51170994D01*
X145997132Y-51100476D01*
X146177864Y-51064526D01*
X146362136Y-51064526D01*
X146542868Y-51100476D01*
G37*
G36*
X149082868Y-51100476D02*
G01*
X149253113Y-51170994D01*
X149406330Y-51273370D01*
X149536630Y-51403670D01*
X149639006Y-51556887D01*
X149709524Y-51727132D01*
X149745474Y-51907864D01*
X149745474Y-52092136D01*
X149709524Y-52272868D01*
X149639006Y-52443113D01*
X149536630Y-52596330D01*
X149406330Y-52726630D01*
X149253113Y-52829006D01*
X149082868Y-52899524D01*
X148902136Y-52935474D01*
X148717864Y-52935474D01*
X148537132Y-52899524D01*
X148366887Y-52829006D01*
X148213670Y-52726630D01*
X148083370Y-52596330D01*
X147980994Y-52443113D01*
X147910476Y-52272868D01*
X147874526Y-52092136D01*
X147874526Y-51907864D01*
X147910476Y-51727132D01*
X147980994Y-51556887D01*
X148083370Y-51403670D01*
X148213670Y-51273370D01*
X148366887Y-51170994D01*
X148537132Y-51100476D01*
X148717864Y-51064526D01*
X148902136Y-51064526D01*
X149082868Y-51100476D01*
G37*
M02*
