%TF.GenerationSoftware,KiCad,Pcbnew,9.0.7*%
%TF.CreationDate,2026-03-13T10:40:51+01:00*%
%TF.ProjectId,MPC_Servo,4d50435f-5365-4727-966f-2e6b69636164,rev?*%
%TF.SameCoordinates,Original*%
%TF.FileFunction,Legend,Bot*%
%TF.FilePolarity,Positive*%
%FSLAX46Y46*%
G04 Gerber Fmt 4.6, Leading zero omitted, Abs format (unit mm)*
G04 Created by KiCad (PCBNEW 9.0.7) date 2026-03-13 10:40:51*
%MOMM*%
%LPD*%
G01*
G04 APERTURE LIST*
%ADD10C,0.152400*%
%ADD11C,0.400000*%
G04 APERTURE END LIST*
D10*
X145706213Y-65158289D02*
X145435279Y-65158289D01*
X145319165Y-65584041D02*
X145706213Y-65584041D01*
X145706213Y-65584041D02*
X145706213Y-64771241D01*
X145706213Y-64771241D02*
X145319165Y-64771241D01*
X144622480Y-65584041D02*
X144622480Y-64771241D01*
X144622480Y-65545337D02*
X144699889Y-65584041D01*
X144699889Y-65584041D02*
X144854708Y-65584041D01*
X144854708Y-65584041D02*
X144932118Y-65545337D01*
X144932118Y-65545337D02*
X144970823Y-65506632D01*
X144970823Y-65506632D02*
X145009527Y-65429222D01*
X145009527Y-65429222D02*
X145009527Y-65196994D01*
X145009527Y-65196994D02*
X144970823Y-65119584D01*
X144970823Y-65119584D02*
X144932118Y-65080879D01*
X144932118Y-65080879D02*
X144854708Y-65042175D01*
X144854708Y-65042175D02*
X144699889Y-65042175D01*
X144699889Y-65042175D02*
X144622480Y-65080879D01*
X144235433Y-65584041D02*
X144235433Y-65042175D01*
X144235433Y-64771241D02*
X144274137Y-64809946D01*
X144274137Y-64809946D02*
X144235433Y-64848651D01*
X144235433Y-64848651D02*
X144196728Y-64809946D01*
X144196728Y-64809946D02*
X144235433Y-64771241D01*
X144235433Y-64771241D02*
X144235433Y-64848651D01*
X143964499Y-65042175D02*
X143654861Y-65042175D01*
X143848385Y-64771241D02*
X143848385Y-65467927D01*
X143848385Y-65467927D02*
X143809680Y-65545337D01*
X143809680Y-65545337D02*
X143732270Y-65584041D01*
X143732270Y-65584041D02*
X143654861Y-65584041D01*
X142764652Y-65584041D02*
X142764652Y-64771241D01*
X142764652Y-65080879D02*
X142687242Y-65042175D01*
X142687242Y-65042175D02*
X142532423Y-65042175D01*
X142532423Y-65042175D02*
X142455014Y-65080879D01*
X142455014Y-65080879D02*
X142416309Y-65119584D01*
X142416309Y-65119584D02*
X142377604Y-65196994D01*
X142377604Y-65196994D02*
X142377604Y-65429222D01*
X142377604Y-65429222D02*
X142416309Y-65506632D01*
X142416309Y-65506632D02*
X142455014Y-65545337D01*
X142455014Y-65545337D02*
X142532423Y-65584041D01*
X142532423Y-65584041D02*
X142687242Y-65584041D01*
X142687242Y-65584041D02*
X142764652Y-65545337D01*
X142106671Y-65042175D02*
X141913147Y-65584041D01*
X141719624Y-65042175D02*
X141913147Y-65584041D01*
X141913147Y-65584041D02*
X141990557Y-65777565D01*
X141990557Y-65777565D02*
X142029262Y-65816270D01*
X142029262Y-65816270D02*
X142106671Y-65854975D01*
X140558481Y-64771241D02*
X140558481Y-65351813D01*
X140558481Y-65351813D02*
X140597186Y-65467927D01*
X140597186Y-65467927D02*
X140674595Y-65545337D01*
X140674595Y-65545337D02*
X140790710Y-65584041D01*
X140790710Y-65584041D02*
X140868119Y-65584041D01*
X140171434Y-65584041D02*
X140171434Y-64771241D01*
X139706977Y-65584041D02*
X140055319Y-65119584D01*
X139706977Y-64771241D02*
X140171434Y-65235698D01*
X145822327Y-66079803D02*
X145551394Y-66892603D01*
X145551394Y-66892603D02*
X145280460Y-66079803D01*
X144854708Y-66079803D02*
X144777298Y-66079803D01*
X144777298Y-66079803D02*
X144699889Y-66118508D01*
X144699889Y-66118508D02*
X144661184Y-66157213D01*
X144661184Y-66157213D02*
X144622479Y-66234622D01*
X144622479Y-66234622D02*
X144583774Y-66389441D01*
X144583774Y-66389441D02*
X144583774Y-66582965D01*
X144583774Y-66582965D02*
X144622479Y-66737784D01*
X144622479Y-66737784D02*
X144661184Y-66815194D01*
X144661184Y-66815194D02*
X144699889Y-66853899D01*
X144699889Y-66853899D02*
X144777298Y-66892603D01*
X144777298Y-66892603D02*
X144854708Y-66892603D01*
X144854708Y-66892603D02*
X144932117Y-66853899D01*
X144932117Y-66853899D02*
X144970822Y-66815194D01*
X144970822Y-66815194D02*
X145009527Y-66737784D01*
X145009527Y-66737784D02*
X145048231Y-66582965D01*
X145048231Y-66582965D02*
X145048231Y-66389441D01*
X145048231Y-66389441D02*
X145009527Y-66234622D01*
X145009527Y-66234622D02*
X144970822Y-66157213D01*
X144970822Y-66157213D02*
X144932117Y-66118508D01*
X144932117Y-66118508D02*
X144854708Y-66079803D01*
X144235432Y-66815194D02*
X144196727Y-66853899D01*
X144196727Y-66853899D02*
X144235432Y-66892603D01*
X144235432Y-66892603D02*
X144274136Y-66853899D01*
X144274136Y-66853899D02*
X144235432Y-66815194D01*
X144235432Y-66815194D02*
X144235432Y-66892603D01*
X143422631Y-66892603D02*
X143887088Y-66892603D01*
X143654860Y-66892603D02*
X143654860Y-66079803D01*
X143654860Y-66079803D02*
X143732269Y-66195918D01*
X143732269Y-66195918D02*
X143809679Y-66273327D01*
X143809679Y-66273327D02*
X143887088Y-66312032D01*
D11*
X146260652Y-57734438D02*
X146260652Y-55734438D01*
X146260652Y-55734438D02*
X145593985Y-57163009D01*
X145593985Y-57163009D02*
X144927319Y-55734438D01*
X144927319Y-55734438D02*
X144927319Y-57734438D01*
X143974938Y-57734438D02*
X143974938Y-55734438D01*
X143974938Y-55734438D02*
X143213033Y-55734438D01*
X143213033Y-55734438D02*
X143022557Y-55829676D01*
X143022557Y-55829676D02*
X142927319Y-55924914D01*
X142927319Y-55924914D02*
X142832081Y-56115390D01*
X142832081Y-56115390D02*
X142832081Y-56401104D01*
X142832081Y-56401104D02*
X142927319Y-56591580D01*
X142927319Y-56591580D02*
X143022557Y-56686819D01*
X143022557Y-56686819D02*
X143213033Y-56782057D01*
X143213033Y-56782057D02*
X143974938Y-56782057D01*
X140832081Y-57543961D02*
X140927319Y-57639200D01*
X140927319Y-57639200D02*
X141213033Y-57734438D01*
X141213033Y-57734438D02*
X141403509Y-57734438D01*
X141403509Y-57734438D02*
X141689224Y-57639200D01*
X141689224Y-57639200D02*
X141879700Y-57448723D01*
X141879700Y-57448723D02*
X141974938Y-57258247D01*
X141974938Y-57258247D02*
X142070176Y-56877295D01*
X142070176Y-56877295D02*
X142070176Y-56591580D01*
X142070176Y-56591580D02*
X141974938Y-56210628D01*
X141974938Y-56210628D02*
X141879700Y-56020152D01*
X141879700Y-56020152D02*
X141689224Y-55829676D01*
X141689224Y-55829676D02*
X141403509Y-55734438D01*
X141403509Y-55734438D02*
X141213033Y-55734438D01*
X141213033Y-55734438D02*
X140927319Y-55829676D01*
X140927319Y-55829676D02*
X140832081Y-55924914D01*
X140451129Y-57924914D02*
X138927319Y-57924914D01*
X138546366Y-57639200D02*
X138260652Y-57734438D01*
X138260652Y-57734438D02*
X137784461Y-57734438D01*
X137784461Y-57734438D02*
X137593985Y-57639200D01*
X137593985Y-57639200D02*
X137498747Y-57543961D01*
X137498747Y-57543961D02*
X137403509Y-57353485D01*
X137403509Y-57353485D02*
X137403509Y-57163009D01*
X137403509Y-57163009D02*
X137498747Y-56972533D01*
X137498747Y-56972533D02*
X137593985Y-56877295D01*
X137593985Y-56877295D02*
X137784461Y-56782057D01*
X137784461Y-56782057D02*
X138165414Y-56686819D01*
X138165414Y-56686819D02*
X138355890Y-56591580D01*
X138355890Y-56591580D02*
X138451128Y-56496342D01*
X138451128Y-56496342D02*
X138546366Y-56305866D01*
X138546366Y-56305866D02*
X138546366Y-56115390D01*
X138546366Y-56115390D02*
X138451128Y-55924914D01*
X138451128Y-55924914D02*
X138355890Y-55829676D01*
X138355890Y-55829676D02*
X138165414Y-55734438D01*
X138165414Y-55734438D02*
X137689223Y-55734438D01*
X137689223Y-55734438D02*
X137403509Y-55829676D01*
X135784461Y-57639200D02*
X135974937Y-57734438D01*
X135974937Y-57734438D02*
X136355890Y-57734438D01*
X136355890Y-57734438D02*
X136546366Y-57639200D01*
X136546366Y-57639200D02*
X136641604Y-57448723D01*
X136641604Y-57448723D02*
X136641604Y-56686819D01*
X136641604Y-56686819D02*
X136546366Y-56496342D01*
X136546366Y-56496342D02*
X136355890Y-56401104D01*
X136355890Y-56401104D02*
X135974937Y-56401104D01*
X135974937Y-56401104D02*
X135784461Y-56496342D01*
X135784461Y-56496342D02*
X135689223Y-56686819D01*
X135689223Y-56686819D02*
X135689223Y-56877295D01*
X135689223Y-56877295D02*
X136641604Y-57067771D01*
X134832080Y-57734438D02*
X134832080Y-56401104D01*
X134832080Y-56782057D02*
X134736842Y-56591580D01*
X134736842Y-56591580D02*
X134641604Y-56496342D01*
X134641604Y-56496342D02*
X134451128Y-56401104D01*
X134451128Y-56401104D02*
X134260651Y-56401104D01*
X133784461Y-56401104D02*
X133308271Y-57734438D01*
X133308271Y-57734438D02*
X132832080Y-56401104D01*
X131784461Y-57734438D02*
X131974937Y-57639200D01*
X131974937Y-57639200D02*
X132070175Y-57543961D01*
X132070175Y-57543961D02*
X132165413Y-57353485D01*
X132165413Y-57353485D02*
X132165413Y-56782057D01*
X132165413Y-56782057D02*
X132070175Y-56591580D01*
X132070175Y-56591580D02*
X131974937Y-56496342D01*
X131974937Y-56496342D02*
X131784461Y-56401104D01*
X131784461Y-56401104D02*
X131498746Y-56401104D01*
X131498746Y-56401104D02*
X131308270Y-56496342D01*
X131308270Y-56496342D02*
X131213032Y-56591580D01*
X131213032Y-56591580D02*
X131117794Y-56782057D01*
X131117794Y-56782057D02*
X131117794Y-57353485D01*
X131117794Y-57353485D02*
X131213032Y-57543961D01*
X131213032Y-57543961D02*
X131308270Y-57639200D01*
X131308270Y-57639200D02*
X131498746Y-57734438D01*
X131498746Y-57734438D02*
X131784461Y-57734438D01*
D10*
X137906213Y-49992603D02*
X137906213Y-49179803D01*
X137906213Y-49179803D02*
X137596575Y-49179803D01*
X137596575Y-49179803D02*
X137519165Y-49218508D01*
X137519165Y-49218508D02*
X137480460Y-49257213D01*
X137480460Y-49257213D02*
X137441756Y-49334622D01*
X137441756Y-49334622D02*
X137441756Y-49450737D01*
X137441756Y-49450737D02*
X137480460Y-49528146D01*
X137480460Y-49528146D02*
X137519165Y-49566851D01*
X137519165Y-49566851D02*
X137596575Y-49605556D01*
X137596575Y-49605556D02*
X137906213Y-49605556D01*
X136977298Y-49992603D02*
X137054708Y-49953899D01*
X137054708Y-49953899D02*
X137093413Y-49915194D01*
X137093413Y-49915194D02*
X137132117Y-49837784D01*
X137132117Y-49837784D02*
X137132117Y-49605556D01*
X137132117Y-49605556D02*
X137093413Y-49528146D01*
X137093413Y-49528146D02*
X137054708Y-49489441D01*
X137054708Y-49489441D02*
X136977298Y-49450737D01*
X136977298Y-49450737D02*
X136861184Y-49450737D01*
X136861184Y-49450737D02*
X136783775Y-49489441D01*
X136783775Y-49489441D02*
X136745070Y-49528146D01*
X136745070Y-49528146D02*
X136706365Y-49605556D01*
X136706365Y-49605556D02*
X136706365Y-49837784D01*
X136706365Y-49837784D02*
X136745070Y-49915194D01*
X136745070Y-49915194D02*
X136783775Y-49953899D01*
X136783775Y-49953899D02*
X136861184Y-49992603D01*
X136861184Y-49992603D02*
X136977298Y-49992603D01*
X136435432Y-49450737D02*
X136280613Y-49992603D01*
X136280613Y-49992603D02*
X136125794Y-49605556D01*
X136125794Y-49605556D02*
X135970975Y-49992603D01*
X135970975Y-49992603D02*
X135816156Y-49450737D01*
X135196880Y-49953899D02*
X135274289Y-49992603D01*
X135274289Y-49992603D02*
X135429108Y-49992603D01*
X135429108Y-49992603D02*
X135506518Y-49953899D01*
X135506518Y-49953899D02*
X135545222Y-49876489D01*
X135545222Y-49876489D02*
X135545222Y-49566851D01*
X135545222Y-49566851D02*
X135506518Y-49489441D01*
X135506518Y-49489441D02*
X135429108Y-49450737D01*
X135429108Y-49450737D02*
X135274289Y-49450737D01*
X135274289Y-49450737D02*
X135196880Y-49489441D01*
X135196880Y-49489441D02*
X135158175Y-49566851D01*
X135158175Y-49566851D02*
X135158175Y-49644260D01*
X135158175Y-49644260D02*
X135545222Y-49721670D01*
X134809832Y-49992603D02*
X134809832Y-49450737D01*
X134809832Y-49605556D02*
X134771127Y-49528146D01*
X134771127Y-49528146D02*
X134732422Y-49489441D01*
X134732422Y-49489441D02*
X134655013Y-49450737D01*
X134655013Y-49450737D02*
X134577603Y-49450737D01*
X133726098Y-49953899D02*
X133609984Y-49992603D01*
X133609984Y-49992603D02*
X133416460Y-49992603D01*
X133416460Y-49992603D02*
X133339051Y-49953899D01*
X133339051Y-49953899D02*
X133300346Y-49915194D01*
X133300346Y-49915194D02*
X133261641Y-49837784D01*
X133261641Y-49837784D02*
X133261641Y-49760375D01*
X133261641Y-49760375D02*
X133300346Y-49682965D01*
X133300346Y-49682965D02*
X133339051Y-49644260D01*
X133339051Y-49644260D02*
X133416460Y-49605556D01*
X133416460Y-49605556D02*
X133571279Y-49566851D01*
X133571279Y-49566851D02*
X133648689Y-49528146D01*
X133648689Y-49528146D02*
X133687394Y-49489441D01*
X133687394Y-49489441D02*
X133726098Y-49412032D01*
X133726098Y-49412032D02*
X133726098Y-49334622D01*
X133726098Y-49334622D02*
X133687394Y-49257213D01*
X133687394Y-49257213D02*
X133648689Y-49218508D01*
X133648689Y-49218508D02*
X133571279Y-49179803D01*
X133571279Y-49179803D02*
X133377756Y-49179803D01*
X133377756Y-49179803D02*
X133261641Y-49218508D01*
X132603661Y-49953899D02*
X132681070Y-49992603D01*
X132681070Y-49992603D02*
X132835889Y-49992603D01*
X132835889Y-49992603D02*
X132913299Y-49953899D01*
X132913299Y-49953899D02*
X132952003Y-49876489D01*
X132952003Y-49876489D02*
X132952003Y-49566851D01*
X132952003Y-49566851D02*
X132913299Y-49489441D01*
X132913299Y-49489441D02*
X132835889Y-49450737D01*
X132835889Y-49450737D02*
X132681070Y-49450737D01*
X132681070Y-49450737D02*
X132603661Y-49489441D01*
X132603661Y-49489441D02*
X132564956Y-49566851D01*
X132564956Y-49566851D02*
X132564956Y-49644260D01*
X132564956Y-49644260D02*
X132952003Y-49721670D01*
X132216613Y-49992603D02*
X132216613Y-49450737D01*
X132216613Y-49605556D02*
X132177908Y-49528146D01*
X132177908Y-49528146D02*
X132139203Y-49489441D01*
X132139203Y-49489441D02*
X132061794Y-49450737D01*
X132061794Y-49450737D02*
X131984384Y-49450737D01*
X131790860Y-49450737D02*
X131597336Y-49992603D01*
X131597336Y-49992603D02*
X131403813Y-49450737D01*
X130978060Y-49992603D02*
X131055470Y-49953899D01*
X131055470Y-49953899D02*
X131094175Y-49915194D01*
X131094175Y-49915194D02*
X131132879Y-49837784D01*
X131132879Y-49837784D02*
X131132879Y-49605556D01*
X131132879Y-49605556D02*
X131094175Y-49528146D01*
X131094175Y-49528146D02*
X131055470Y-49489441D01*
X131055470Y-49489441D02*
X130978060Y-49450737D01*
X130978060Y-49450737D02*
X130861946Y-49450737D01*
X130861946Y-49450737D02*
X130784537Y-49489441D01*
X130784537Y-49489441D02*
X130745832Y-49528146D01*
X130745832Y-49528146D02*
X130707127Y-49605556D01*
X130707127Y-49605556D02*
X130707127Y-49837784D01*
X130707127Y-49837784D02*
X130745832Y-49915194D01*
X130745832Y-49915194D02*
X130784537Y-49953899D01*
X130784537Y-49953899D02*
X130861946Y-49992603D01*
X130861946Y-49992603D02*
X130978060Y-49992603D01*
X148606213Y-49892603D02*
X148606213Y-49079803D01*
X148606213Y-49079803D02*
X148296575Y-49079803D01*
X148296575Y-49079803D02*
X148219165Y-49118508D01*
X148219165Y-49118508D02*
X148180460Y-49157213D01*
X148180460Y-49157213D02*
X148141756Y-49234622D01*
X148141756Y-49234622D02*
X148141756Y-49350737D01*
X148141756Y-49350737D02*
X148180460Y-49428146D01*
X148180460Y-49428146D02*
X148219165Y-49466851D01*
X148219165Y-49466851D02*
X148296575Y-49505556D01*
X148296575Y-49505556D02*
X148606213Y-49505556D01*
X147793413Y-49892603D02*
X147793413Y-49350737D01*
X147793413Y-49505556D02*
X147754708Y-49428146D01*
X147754708Y-49428146D02*
X147716003Y-49389441D01*
X147716003Y-49389441D02*
X147638594Y-49350737D01*
X147638594Y-49350737D02*
X147561184Y-49350737D01*
X147174136Y-49892603D02*
X147251546Y-49853899D01*
X147251546Y-49853899D02*
X147290251Y-49815194D01*
X147290251Y-49815194D02*
X147328955Y-49737784D01*
X147328955Y-49737784D02*
X147328955Y-49505556D01*
X147328955Y-49505556D02*
X147290251Y-49428146D01*
X147290251Y-49428146D02*
X147251546Y-49389441D01*
X147251546Y-49389441D02*
X147174136Y-49350737D01*
X147174136Y-49350737D02*
X147058022Y-49350737D01*
X147058022Y-49350737D02*
X146980613Y-49389441D01*
X146980613Y-49389441D02*
X146941908Y-49428146D01*
X146941908Y-49428146D02*
X146903203Y-49505556D01*
X146903203Y-49505556D02*
X146903203Y-49737784D01*
X146903203Y-49737784D02*
X146941908Y-49815194D01*
X146941908Y-49815194D02*
X146980613Y-49853899D01*
X146980613Y-49853899D02*
X147058022Y-49892603D01*
X147058022Y-49892603D02*
X147174136Y-49892603D01*
X146206518Y-49350737D02*
X146206518Y-50008718D01*
X146206518Y-50008718D02*
X146245223Y-50086127D01*
X146245223Y-50086127D02*
X146283927Y-50124832D01*
X146283927Y-50124832D02*
X146361337Y-50163537D01*
X146361337Y-50163537D02*
X146477451Y-50163537D01*
X146477451Y-50163537D02*
X146554861Y-50124832D01*
X146206518Y-49853899D02*
X146283927Y-49892603D01*
X146283927Y-49892603D02*
X146438746Y-49892603D01*
X146438746Y-49892603D02*
X146516156Y-49853899D01*
X146516156Y-49853899D02*
X146554861Y-49815194D01*
X146554861Y-49815194D02*
X146593565Y-49737784D01*
X146593565Y-49737784D02*
X146593565Y-49505556D01*
X146593565Y-49505556D02*
X146554861Y-49428146D01*
X146554861Y-49428146D02*
X146516156Y-49389441D01*
X146516156Y-49389441D02*
X146438746Y-49350737D01*
X146438746Y-49350737D02*
X146283927Y-49350737D01*
X146283927Y-49350737D02*
X146206518Y-49389441D01*
X145819471Y-49892603D02*
X145819471Y-49350737D01*
X145819471Y-49505556D02*
X145780766Y-49428146D01*
X145780766Y-49428146D02*
X145742061Y-49389441D01*
X145742061Y-49389441D02*
X145664652Y-49350737D01*
X145664652Y-49350737D02*
X145587242Y-49350737D01*
X144967966Y-49892603D02*
X144967966Y-49466851D01*
X144967966Y-49466851D02*
X145006671Y-49389441D01*
X145006671Y-49389441D02*
X145084080Y-49350737D01*
X145084080Y-49350737D02*
X145238899Y-49350737D01*
X145238899Y-49350737D02*
X145316309Y-49389441D01*
X144967966Y-49853899D02*
X145045375Y-49892603D01*
X145045375Y-49892603D02*
X145238899Y-49892603D01*
X145238899Y-49892603D02*
X145316309Y-49853899D01*
X145316309Y-49853899D02*
X145355013Y-49776489D01*
X145355013Y-49776489D02*
X145355013Y-49699079D01*
X145355013Y-49699079D02*
X145316309Y-49621670D01*
X145316309Y-49621670D02*
X145238899Y-49582965D01*
X145238899Y-49582965D02*
X145045375Y-49582965D01*
X145045375Y-49582965D02*
X144967966Y-49544260D01*
X144580919Y-49892603D02*
X144580919Y-49350737D01*
X144580919Y-49428146D02*
X144542214Y-49389441D01*
X144542214Y-49389441D02*
X144464804Y-49350737D01*
X144464804Y-49350737D02*
X144348690Y-49350737D01*
X144348690Y-49350737D02*
X144271281Y-49389441D01*
X144271281Y-49389441D02*
X144232576Y-49466851D01*
X144232576Y-49466851D02*
X144232576Y-49892603D01*
X144232576Y-49466851D02*
X144193871Y-49389441D01*
X144193871Y-49389441D02*
X144116462Y-49350737D01*
X144116462Y-49350737D02*
X144000347Y-49350737D01*
X144000347Y-49350737D02*
X143922938Y-49389441D01*
X143922938Y-49389441D02*
X143884233Y-49466851D01*
X143884233Y-49466851D02*
X143884233Y-49892603D01*
X143497186Y-49892603D02*
X143497186Y-49350737D01*
X143497186Y-49428146D02*
X143458481Y-49389441D01*
X143458481Y-49389441D02*
X143381071Y-49350737D01*
X143381071Y-49350737D02*
X143264957Y-49350737D01*
X143264957Y-49350737D02*
X143187548Y-49389441D01*
X143187548Y-49389441D02*
X143148843Y-49466851D01*
X143148843Y-49466851D02*
X143148843Y-49892603D01*
X143148843Y-49466851D02*
X143110138Y-49389441D01*
X143110138Y-49389441D02*
X143032729Y-49350737D01*
X143032729Y-49350737D02*
X142916614Y-49350737D01*
X142916614Y-49350737D02*
X142839205Y-49389441D01*
X142839205Y-49389441D02*
X142800500Y-49466851D01*
X142800500Y-49466851D02*
X142800500Y-49892603D01*
X142413453Y-49892603D02*
X142413453Y-49350737D01*
X142413453Y-49079803D02*
X142452157Y-49118508D01*
X142452157Y-49118508D02*
X142413453Y-49157213D01*
X142413453Y-49157213D02*
X142374748Y-49118508D01*
X142374748Y-49118508D02*
X142413453Y-49079803D01*
X142413453Y-49079803D02*
X142413453Y-49157213D01*
X142026405Y-49350737D02*
X142026405Y-49892603D01*
X142026405Y-49428146D02*
X141987700Y-49389441D01*
X141987700Y-49389441D02*
X141910290Y-49350737D01*
X141910290Y-49350737D02*
X141794176Y-49350737D01*
X141794176Y-49350737D02*
X141716767Y-49389441D01*
X141716767Y-49389441D02*
X141678062Y-49466851D01*
X141678062Y-49466851D02*
X141678062Y-49892603D01*
X140942672Y-49350737D02*
X140942672Y-50008718D01*
X140942672Y-50008718D02*
X140981377Y-50086127D01*
X140981377Y-50086127D02*
X141020081Y-50124832D01*
X141020081Y-50124832D02*
X141097491Y-50163537D01*
X141097491Y-50163537D02*
X141213605Y-50163537D01*
X141213605Y-50163537D02*
X141291015Y-50124832D01*
X140942672Y-49853899D02*
X141020081Y-49892603D01*
X141020081Y-49892603D02*
X141174900Y-49892603D01*
X141174900Y-49892603D02*
X141252310Y-49853899D01*
X141252310Y-49853899D02*
X141291015Y-49815194D01*
X141291015Y-49815194D02*
X141329719Y-49737784D01*
X141329719Y-49737784D02*
X141329719Y-49505556D01*
X141329719Y-49505556D02*
X141291015Y-49428146D01*
X141291015Y-49428146D02*
X141252310Y-49389441D01*
X141252310Y-49389441D02*
X141174900Y-49350737D01*
X141174900Y-49350737D02*
X141020081Y-49350737D01*
X141020081Y-49350737D02*
X140942672Y-49389441D01*
X152692603Y-58158243D02*
X152305556Y-57887310D01*
X152692603Y-57693786D02*
X151879803Y-57693786D01*
X151879803Y-57693786D02*
X151879803Y-58003424D01*
X151879803Y-58003424D02*
X151918508Y-58080834D01*
X151918508Y-58080834D02*
X151957213Y-58119539D01*
X151957213Y-58119539D02*
X152034622Y-58158243D01*
X152034622Y-58158243D02*
X152150737Y-58158243D01*
X152150737Y-58158243D02*
X152228146Y-58119539D01*
X152228146Y-58119539D02*
X152266851Y-58080834D01*
X152266851Y-58080834D02*
X152305556Y-58003424D01*
X152305556Y-58003424D02*
X152305556Y-57693786D01*
X152653899Y-58816224D02*
X152692603Y-58738815D01*
X152692603Y-58738815D02*
X152692603Y-58583996D01*
X152692603Y-58583996D02*
X152653899Y-58506586D01*
X152653899Y-58506586D02*
X152576489Y-58467882D01*
X152576489Y-58467882D02*
X152266851Y-58467882D01*
X152266851Y-58467882D02*
X152189441Y-58506586D01*
X152189441Y-58506586D02*
X152150737Y-58583996D01*
X152150737Y-58583996D02*
X152150737Y-58738815D01*
X152150737Y-58738815D02*
X152189441Y-58816224D01*
X152189441Y-58816224D02*
X152266851Y-58854929D01*
X152266851Y-58854929D02*
X152344260Y-58854929D01*
X152344260Y-58854929D02*
X152421670Y-58467882D01*
X152653899Y-59164568D02*
X152692603Y-59241977D01*
X152692603Y-59241977D02*
X152692603Y-59396796D01*
X152692603Y-59396796D02*
X152653899Y-59474206D01*
X152653899Y-59474206D02*
X152576489Y-59512910D01*
X152576489Y-59512910D02*
X152537784Y-59512910D01*
X152537784Y-59512910D02*
X152460375Y-59474206D01*
X152460375Y-59474206D02*
X152421670Y-59396796D01*
X152421670Y-59396796D02*
X152421670Y-59280682D01*
X152421670Y-59280682D02*
X152382965Y-59203272D01*
X152382965Y-59203272D02*
X152305556Y-59164568D01*
X152305556Y-59164568D02*
X152266851Y-59164568D01*
X152266851Y-59164568D02*
X152189441Y-59203272D01*
X152189441Y-59203272D02*
X152150737Y-59280682D01*
X152150737Y-59280682D02*
X152150737Y-59396796D01*
X152150737Y-59396796D02*
X152189441Y-59474206D01*
X152653899Y-60170891D02*
X152692603Y-60093482D01*
X152692603Y-60093482D02*
X152692603Y-59938663D01*
X152692603Y-59938663D02*
X152653899Y-59861253D01*
X152653899Y-59861253D02*
X152576489Y-59822549D01*
X152576489Y-59822549D02*
X152266851Y-59822549D01*
X152266851Y-59822549D02*
X152189441Y-59861253D01*
X152189441Y-59861253D02*
X152150737Y-59938663D01*
X152150737Y-59938663D02*
X152150737Y-60093482D01*
X152150737Y-60093482D02*
X152189441Y-60170891D01*
X152189441Y-60170891D02*
X152266851Y-60209596D01*
X152266851Y-60209596D02*
X152344260Y-60209596D01*
X152344260Y-60209596D02*
X152421670Y-59822549D01*
X152150737Y-60441825D02*
X152150737Y-60751463D01*
X151879803Y-60557939D02*
X152576489Y-60557939D01*
X152576489Y-60557939D02*
X152653899Y-60596644D01*
X152653899Y-60596644D02*
X152692603Y-60674054D01*
X152692603Y-60674054D02*
X152692603Y-60751463D01*
X123253899Y-57855082D02*
X123292603Y-57971196D01*
X123292603Y-57971196D02*
X123292603Y-58164720D01*
X123292603Y-58164720D02*
X123253899Y-58242129D01*
X123253899Y-58242129D02*
X123215194Y-58280834D01*
X123215194Y-58280834D02*
X123137784Y-58319539D01*
X123137784Y-58319539D02*
X123060375Y-58319539D01*
X123060375Y-58319539D02*
X122982965Y-58280834D01*
X122982965Y-58280834D02*
X122944260Y-58242129D01*
X122944260Y-58242129D02*
X122905556Y-58164720D01*
X122905556Y-58164720D02*
X122866851Y-58009901D01*
X122866851Y-58009901D02*
X122828146Y-57932491D01*
X122828146Y-57932491D02*
X122789441Y-57893786D01*
X122789441Y-57893786D02*
X122712032Y-57855082D01*
X122712032Y-57855082D02*
X122634622Y-57855082D01*
X122634622Y-57855082D02*
X122557213Y-57893786D01*
X122557213Y-57893786D02*
X122518508Y-57932491D01*
X122518508Y-57932491D02*
X122479803Y-58009901D01*
X122479803Y-58009901D02*
X122479803Y-58203424D01*
X122479803Y-58203424D02*
X122518508Y-58319539D01*
X123253899Y-58977519D02*
X123292603Y-58900110D01*
X123292603Y-58900110D02*
X123292603Y-58745291D01*
X123292603Y-58745291D02*
X123253899Y-58667881D01*
X123253899Y-58667881D02*
X123176489Y-58629177D01*
X123176489Y-58629177D02*
X122866851Y-58629177D01*
X122866851Y-58629177D02*
X122789441Y-58667881D01*
X122789441Y-58667881D02*
X122750737Y-58745291D01*
X122750737Y-58745291D02*
X122750737Y-58900110D01*
X122750737Y-58900110D02*
X122789441Y-58977519D01*
X122789441Y-58977519D02*
X122866851Y-59016224D01*
X122866851Y-59016224D02*
X122944260Y-59016224D01*
X122944260Y-59016224D02*
X123021670Y-58629177D01*
X123292603Y-59364567D02*
X122750737Y-59364567D01*
X122905556Y-59364567D02*
X122828146Y-59403272D01*
X122828146Y-59403272D02*
X122789441Y-59441977D01*
X122789441Y-59441977D02*
X122750737Y-59519386D01*
X122750737Y-59519386D02*
X122750737Y-59596796D01*
X122750737Y-59790320D02*
X123292603Y-59983844D01*
X123292603Y-59983844D02*
X122750737Y-60177367D01*
X123292603Y-60603120D02*
X123253899Y-60525710D01*
X123253899Y-60525710D02*
X123215194Y-60487005D01*
X123215194Y-60487005D02*
X123137784Y-60448301D01*
X123137784Y-60448301D02*
X122905556Y-60448301D01*
X122905556Y-60448301D02*
X122828146Y-60487005D01*
X122828146Y-60487005D02*
X122789441Y-60525710D01*
X122789441Y-60525710D02*
X122750737Y-60603120D01*
X122750737Y-60603120D02*
X122750737Y-60719234D01*
X122750737Y-60719234D02*
X122789441Y-60796643D01*
X122789441Y-60796643D02*
X122828146Y-60835348D01*
X122828146Y-60835348D02*
X122905556Y-60874053D01*
X122905556Y-60874053D02*
X123137784Y-60874053D01*
X123137784Y-60874053D02*
X123215194Y-60835348D01*
X123215194Y-60835348D02*
X123253899Y-60796643D01*
X123253899Y-60796643D02*
X123292603Y-60719234D01*
X123292603Y-60719234D02*
X123292603Y-60603120D01*
X123292603Y-62267424D02*
X123292603Y-61802967D01*
X123292603Y-62035195D02*
X122479803Y-62035195D01*
X122479803Y-62035195D02*
X122595918Y-61957786D01*
X122595918Y-61957786D02*
X122673327Y-61880376D01*
X122673327Y-61880376D02*
X122712032Y-61802967D01*
X122445337Y-66955082D02*
X122484041Y-67071196D01*
X122484041Y-67071196D02*
X122484041Y-67264720D01*
X122484041Y-67264720D02*
X122445337Y-67342129D01*
X122445337Y-67342129D02*
X122406632Y-67380834D01*
X122406632Y-67380834D02*
X122329222Y-67419539D01*
X122329222Y-67419539D02*
X122251813Y-67419539D01*
X122251813Y-67419539D02*
X122174403Y-67380834D01*
X122174403Y-67380834D02*
X122135698Y-67342129D01*
X122135698Y-67342129D02*
X122096994Y-67264720D01*
X122096994Y-67264720D02*
X122058289Y-67109901D01*
X122058289Y-67109901D02*
X122019584Y-67032491D01*
X122019584Y-67032491D02*
X121980879Y-66993786D01*
X121980879Y-66993786D02*
X121903470Y-66955082D01*
X121903470Y-66955082D02*
X121826060Y-66955082D01*
X121826060Y-66955082D02*
X121748651Y-66993786D01*
X121748651Y-66993786D02*
X121709946Y-67032491D01*
X121709946Y-67032491D02*
X121671241Y-67109901D01*
X121671241Y-67109901D02*
X121671241Y-67303424D01*
X121671241Y-67303424D02*
X121709946Y-67419539D01*
X122445337Y-68077519D02*
X122484041Y-68000110D01*
X122484041Y-68000110D02*
X122484041Y-67845291D01*
X122484041Y-67845291D02*
X122445337Y-67767881D01*
X122445337Y-67767881D02*
X122367927Y-67729177D01*
X122367927Y-67729177D02*
X122058289Y-67729177D01*
X122058289Y-67729177D02*
X121980879Y-67767881D01*
X121980879Y-67767881D02*
X121942175Y-67845291D01*
X121942175Y-67845291D02*
X121942175Y-68000110D01*
X121942175Y-68000110D02*
X121980879Y-68077519D01*
X121980879Y-68077519D02*
X122058289Y-68116224D01*
X122058289Y-68116224D02*
X122135698Y-68116224D01*
X122135698Y-68116224D02*
X122213108Y-67729177D01*
X122484041Y-68464567D02*
X121942175Y-68464567D01*
X122096994Y-68464567D02*
X122019584Y-68503272D01*
X122019584Y-68503272D02*
X121980879Y-68541977D01*
X121980879Y-68541977D02*
X121942175Y-68619386D01*
X121942175Y-68619386D02*
X121942175Y-68696796D01*
X121942175Y-68890320D02*
X122484041Y-69083844D01*
X122484041Y-69083844D02*
X121942175Y-69277367D01*
X122484041Y-69703120D02*
X122445337Y-69625710D01*
X122445337Y-69625710D02*
X122406632Y-69587005D01*
X122406632Y-69587005D02*
X122329222Y-69548301D01*
X122329222Y-69548301D02*
X122096994Y-69548301D01*
X122096994Y-69548301D02*
X122019584Y-69587005D01*
X122019584Y-69587005D02*
X121980879Y-69625710D01*
X121980879Y-69625710D02*
X121942175Y-69703120D01*
X121942175Y-69703120D02*
X121942175Y-69819234D01*
X121942175Y-69819234D02*
X121980879Y-69896643D01*
X121980879Y-69896643D02*
X122019584Y-69935348D01*
X122019584Y-69935348D02*
X122096994Y-69974053D01*
X122096994Y-69974053D02*
X122329222Y-69974053D01*
X122329222Y-69974053D02*
X122406632Y-69935348D01*
X122406632Y-69935348D02*
X122445337Y-69896643D01*
X122445337Y-69896643D02*
X122484041Y-69819234D01*
X122484041Y-69819234D02*
X122484041Y-69703120D01*
X121748651Y-70902967D02*
X121709946Y-70941671D01*
X121709946Y-70941671D02*
X121671241Y-71019081D01*
X121671241Y-71019081D02*
X121671241Y-71212605D01*
X121671241Y-71212605D02*
X121709946Y-71290014D01*
X121709946Y-71290014D02*
X121748651Y-71328719D01*
X121748651Y-71328719D02*
X121826060Y-71367424D01*
X121826060Y-71367424D02*
X121903470Y-71367424D01*
X121903470Y-71367424D02*
X122019584Y-71328719D01*
X122019584Y-71328719D02*
X122484041Y-70864262D01*
X122484041Y-70864262D02*
X122484041Y-71367424D01*
X123366851Y-66993786D02*
X123366851Y-67264720D01*
X123792603Y-67380834D02*
X123792603Y-66993786D01*
X123792603Y-66993786D02*
X122979803Y-66993786D01*
X122979803Y-66993786D02*
X122979803Y-67380834D01*
X123250737Y-67729176D02*
X123792603Y-67729176D01*
X123328146Y-67729176D02*
X123289441Y-67767881D01*
X123289441Y-67767881D02*
X123250737Y-67845291D01*
X123250737Y-67845291D02*
X123250737Y-67961405D01*
X123250737Y-67961405D02*
X123289441Y-68038814D01*
X123289441Y-68038814D02*
X123366851Y-68077519D01*
X123366851Y-68077519D02*
X123792603Y-68077519D01*
X123792603Y-68812909D02*
X122979803Y-68812909D01*
X123753899Y-68812909D02*
X123792603Y-68735500D01*
X123792603Y-68735500D02*
X123792603Y-68580681D01*
X123792603Y-68580681D02*
X123753899Y-68503271D01*
X123753899Y-68503271D02*
X123715194Y-68464566D01*
X123715194Y-68464566D02*
X123637784Y-68425862D01*
X123637784Y-68425862D02*
X123405556Y-68425862D01*
X123405556Y-68425862D02*
X123328146Y-68464566D01*
X123328146Y-68464566D02*
X123289441Y-68503271D01*
X123289441Y-68503271D02*
X123250737Y-68580681D01*
X123250737Y-68580681D02*
X123250737Y-68735500D01*
X123250737Y-68735500D02*
X123289441Y-68812909D01*
X123753899Y-69161252D02*
X123792603Y-69238661D01*
X123792603Y-69238661D02*
X123792603Y-69393480D01*
X123792603Y-69393480D02*
X123753899Y-69470890D01*
X123753899Y-69470890D02*
X123676489Y-69509594D01*
X123676489Y-69509594D02*
X123637784Y-69509594D01*
X123637784Y-69509594D02*
X123560375Y-69470890D01*
X123560375Y-69470890D02*
X123521670Y-69393480D01*
X123521670Y-69393480D02*
X123521670Y-69277366D01*
X123521670Y-69277366D02*
X123482965Y-69199956D01*
X123482965Y-69199956D02*
X123405556Y-69161252D01*
X123405556Y-69161252D02*
X123366851Y-69161252D01*
X123366851Y-69161252D02*
X123289441Y-69199956D01*
X123289441Y-69199956D02*
X123250737Y-69277366D01*
X123250737Y-69277366D02*
X123250737Y-69393480D01*
X123250737Y-69393480D02*
X123289441Y-69470890D01*
X123250737Y-69741823D02*
X123250737Y-70051461D01*
X122979803Y-69857937D02*
X123676489Y-69857937D01*
X123676489Y-69857937D02*
X123753899Y-69896642D01*
X123753899Y-69896642D02*
X123792603Y-69974052D01*
X123792603Y-69974052D02*
X123792603Y-70051461D01*
X123792603Y-70438509D02*
X123753899Y-70361099D01*
X123753899Y-70361099D02*
X123715194Y-70322394D01*
X123715194Y-70322394D02*
X123637784Y-70283690D01*
X123637784Y-70283690D02*
X123405556Y-70283690D01*
X123405556Y-70283690D02*
X123328146Y-70322394D01*
X123328146Y-70322394D02*
X123289441Y-70361099D01*
X123289441Y-70361099D02*
X123250737Y-70438509D01*
X123250737Y-70438509D02*
X123250737Y-70554623D01*
X123250737Y-70554623D02*
X123289441Y-70632032D01*
X123289441Y-70632032D02*
X123328146Y-70670737D01*
X123328146Y-70670737D02*
X123405556Y-70709442D01*
X123405556Y-70709442D02*
X123637784Y-70709442D01*
X123637784Y-70709442D02*
X123715194Y-70670737D01*
X123715194Y-70670737D02*
X123753899Y-70632032D01*
X123753899Y-70632032D02*
X123792603Y-70554623D01*
X123792603Y-70554623D02*
X123792603Y-70438509D01*
X123250737Y-71057784D02*
X124063537Y-71057784D01*
X123289441Y-71057784D02*
X123250737Y-71135194D01*
X123250737Y-71135194D02*
X123250737Y-71290013D01*
X123250737Y-71290013D02*
X123289441Y-71367422D01*
X123289441Y-71367422D02*
X123328146Y-71406127D01*
X123328146Y-71406127D02*
X123405556Y-71444832D01*
X123405556Y-71444832D02*
X123637784Y-71444832D01*
X123637784Y-71444832D02*
X123715194Y-71406127D01*
X123715194Y-71406127D02*
X123753899Y-71367422D01*
X123753899Y-71367422D02*
X123792603Y-71290013D01*
X123792603Y-71290013D02*
X123792603Y-71135194D01*
X123792603Y-71135194D02*
X123753899Y-71057784D01*
X141206213Y-73592603D02*
X141206213Y-72779803D01*
X140857869Y-72857213D02*
X140819165Y-72818508D01*
X140819165Y-72818508D02*
X140741755Y-72779803D01*
X140741755Y-72779803D02*
X140548231Y-72779803D01*
X140548231Y-72779803D02*
X140470822Y-72818508D01*
X140470822Y-72818508D02*
X140432117Y-72857213D01*
X140432117Y-72857213D02*
X140393412Y-72934622D01*
X140393412Y-72934622D02*
X140393412Y-73012032D01*
X140393412Y-73012032D02*
X140432117Y-73128146D01*
X140432117Y-73128146D02*
X140896574Y-73592603D01*
X140896574Y-73592603D02*
X140393412Y-73592603D01*
X139580613Y-73515194D02*
X139619317Y-73553899D01*
X139619317Y-73553899D02*
X139735432Y-73592603D01*
X139735432Y-73592603D02*
X139812841Y-73592603D01*
X139812841Y-73592603D02*
X139928955Y-73553899D01*
X139928955Y-73553899D02*
X140006365Y-73476489D01*
X140006365Y-73476489D02*
X140045070Y-73399079D01*
X140045070Y-73399079D02*
X140083774Y-73244260D01*
X140083774Y-73244260D02*
X140083774Y-73128146D01*
X140083774Y-73128146D02*
X140045070Y-72973327D01*
X140045070Y-72973327D02*
X140006365Y-72895918D01*
X140006365Y-72895918D02*
X139928955Y-72818508D01*
X139928955Y-72818508D02*
X139812841Y-72779803D01*
X139812841Y-72779803D02*
X139735432Y-72779803D01*
X139735432Y-72779803D02*
X139619317Y-72818508D01*
X139619317Y-72818508D02*
X139580613Y-72857213D01*
M02*
