%TF.GenerationSoftware,KiCad,Pcbnew,9.0.7*%
%TF.CreationDate,2026-03-19T09:09:59+01:00*%
%TF.ProjectId,MPC_Servo,4d50435f-5365-4727-966f-2e6b69636164,rev?*%
%TF.SameCoordinates,Original*%
%TF.FileFunction,Legend,Bot*%
%TF.FilePolarity,Positive*%
%FSLAX46Y46*%
G04 Gerber Fmt 4.6, Leading zero omitted, Abs format (unit mm)*
G04 Created by KiCad (PCBNEW 9.0.7) date 2026-03-19 09:09:59*
%MOMM*%
%LPD*%
G01*
G04 APERTURE LIST*
%ADD10C,0.152400*%
%ADD11C,0.400000*%
G04 APERTURE END LIST*
D10*
X122545337Y-66255082D02*
X122584041Y-66371196D01*
X122584041Y-66371196D02*
X122584041Y-66564720D01*
X122584041Y-66564720D02*
X122545337Y-66642129D01*
X122545337Y-66642129D02*
X122506632Y-66680834D01*
X122506632Y-66680834D02*
X122429222Y-66719539D01*
X122429222Y-66719539D02*
X122351813Y-66719539D01*
X122351813Y-66719539D02*
X122274403Y-66680834D01*
X122274403Y-66680834D02*
X122235698Y-66642129D01*
X122235698Y-66642129D02*
X122196994Y-66564720D01*
X122196994Y-66564720D02*
X122158289Y-66409901D01*
X122158289Y-66409901D02*
X122119584Y-66332491D01*
X122119584Y-66332491D02*
X122080879Y-66293786D01*
X122080879Y-66293786D02*
X122003470Y-66255082D01*
X122003470Y-66255082D02*
X121926060Y-66255082D01*
X121926060Y-66255082D02*
X121848651Y-66293786D01*
X121848651Y-66293786D02*
X121809946Y-66332491D01*
X121809946Y-66332491D02*
X121771241Y-66409901D01*
X121771241Y-66409901D02*
X121771241Y-66603424D01*
X121771241Y-66603424D02*
X121809946Y-66719539D01*
X122545337Y-67377519D02*
X122584041Y-67300110D01*
X122584041Y-67300110D02*
X122584041Y-67145291D01*
X122584041Y-67145291D02*
X122545337Y-67067881D01*
X122545337Y-67067881D02*
X122467927Y-67029177D01*
X122467927Y-67029177D02*
X122158289Y-67029177D01*
X122158289Y-67029177D02*
X122080879Y-67067881D01*
X122080879Y-67067881D02*
X122042175Y-67145291D01*
X122042175Y-67145291D02*
X122042175Y-67300110D01*
X122042175Y-67300110D02*
X122080879Y-67377519D01*
X122080879Y-67377519D02*
X122158289Y-67416224D01*
X122158289Y-67416224D02*
X122235698Y-67416224D01*
X122235698Y-67416224D02*
X122313108Y-67029177D01*
X122584041Y-67764567D02*
X122042175Y-67764567D01*
X122196994Y-67764567D02*
X122119584Y-67803272D01*
X122119584Y-67803272D02*
X122080879Y-67841977D01*
X122080879Y-67841977D02*
X122042175Y-67919386D01*
X122042175Y-67919386D02*
X122042175Y-67996796D01*
X122042175Y-68190320D02*
X122584041Y-68383844D01*
X122584041Y-68383844D02*
X122042175Y-68577367D01*
X122584041Y-69003120D02*
X122545337Y-68925710D01*
X122545337Y-68925710D02*
X122506632Y-68887005D01*
X122506632Y-68887005D02*
X122429222Y-68848301D01*
X122429222Y-68848301D02*
X122196994Y-68848301D01*
X122196994Y-68848301D02*
X122119584Y-68887005D01*
X122119584Y-68887005D02*
X122080879Y-68925710D01*
X122080879Y-68925710D02*
X122042175Y-69003120D01*
X122042175Y-69003120D02*
X122042175Y-69119234D01*
X122042175Y-69119234D02*
X122080879Y-69196643D01*
X122080879Y-69196643D02*
X122119584Y-69235348D01*
X122119584Y-69235348D02*
X122196994Y-69274053D01*
X122196994Y-69274053D02*
X122429222Y-69274053D01*
X122429222Y-69274053D02*
X122506632Y-69235348D01*
X122506632Y-69235348D02*
X122545337Y-69196643D01*
X122545337Y-69196643D02*
X122584041Y-69119234D01*
X122584041Y-69119234D02*
X122584041Y-69003120D01*
X121848651Y-70202967D02*
X121809946Y-70241671D01*
X121809946Y-70241671D02*
X121771241Y-70319081D01*
X121771241Y-70319081D02*
X121771241Y-70512605D01*
X121771241Y-70512605D02*
X121809946Y-70590014D01*
X121809946Y-70590014D02*
X121848651Y-70628719D01*
X121848651Y-70628719D02*
X121926060Y-70667424D01*
X121926060Y-70667424D02*
X122003470Y-70667424D01*
X122003470Y-70667424D02*
X122119584Y-70628719D01*
X122119584Y-70628719D02*
X122584041Y-70164262D01*
X122584041Y-70164262D02*
X122584041Y-70667424D01*
X123466851Y-66293786D02*
X123466851Y-66564720D01*
X123892603Y-66680834D02*
X123892603Y-66293786D01*
X123892603Y-66293786D02*
X123079803Y-66293786D01*
X123079803Y-66293786D02*
X123079803Y-66680834D01*
X123350737Y-67029176D02*
X123892603Y-67029176D01*
X123428146Y-67029176D02*
X123389441Y-67067881D01*
X123389441Y-67067881D02*
X123350737Y-67145291D01*
X123350737Y-67145291D02*
X123350737Y-67261405D01*
X123350737Y-67261405D02*
X123389441Y-67338814D01*
X123389441Y-67338814D02*
X123466851Y-67377519D01*
X123466851Y-67377519D02*
X123892603Y-67377519D01*
X123892603Y-68112909D02*
X123079803Y-68112909D01*
X123853899Y-68112909D02*
X123892603Y-68035500D01*
X123892603Y-68035500D02*
X123892603Y-67880681D01*
X123892603Y-67880681D02*
X123853899Y-67803271D01*
X123853899Y-67803271D02*
X123815194Y-67764566D01*
X123815194Y-67764566D02*
X123737784Y-67725862D01*
X123737784Y-67725862D02*
X123505556Y-67725862D01*
X123505556Y-67725862D02*
X123428146Y-67764566D01*
X123428146Y-67764566D02*
X123389441Y-67803271D01*
X123389441Y-67803271D02*
X123350737Y-67880681D01*
X123350737Y-67880681D02*
X123350737Y-68035500D01*
X123350737Y-68035500D02*
X123389441Y-68112909D01*
X123853899Y-68461252D02*
X123892603Y-68538661D01*
X123892603Y-68538661D02*
X123892603Y-68693480D01*
X123892603Y-68693480D02*
X123853899Y-68770890D01*
X123853899Y-68770890D02*
X123776489Y-68809594D01*
X123776489Y-68809594D02*
X123737784Y-68809594D01*
X123737784Y-68809594D02*
X123660375Y-68770890D01*
X123660375Y-68770890D02*
X123621670Y-68693480D01*
X123621670Y-68693480D02*
X123621670Y-68577366D01*
X123621670Y-68577366D02*
X123582965Y-68499956D01*
X123582965Y-68499956D02*
X123505556Y-68461252D01*
X123505556Y-68461252D02*
X123466851Y-68461252D01*
X123466851Y-68461252D02*
X123389441Y-68499956D01*
X123389441Y-68499956D02*
X123350737Y-68577366D01*
X123350737Y-68577366D02*
X123350737Y-68693480D01*
X123350737Y-68693480D02*
X123389441Y-68770890D01*
X123350737Y-69041823D02*
X123350737Y-69351461D01*
X123079803Y-69157937D02*
X123776489Y-69157937D01*
X123776489Y-69157937D02*
X123853899Y-69196642D01*
X123853899Y-69196642D02*
X123892603Y-69274052D01*
X123892603Y-69274052D02*
X123892603Y-69351461D01*
X123892603Y-69738509D02*
X123853899Y-69661099D01*
X123853899Y-69661099D02*
X123815194Y-69622394D01*
X123815194Y-69622394D02*
X123737784Y-69583690D01*
X123737784Y-69583690D02*
X123505556Y-69583690D01*
X123505556Y-69583690D02*
X123428146Y-69622394D01*
X123428146Y-69622394D02*
X123389441Y-69661099D01*
X123389441Y-69661099D02*
X123350737Y-69738509D01*
X123350737Y-69738509D02*
X123350737Y-69854623D01*
X123350737Y-69854623D02*
X123389441Y-69932032D01*
X123389441Y-69932032D02*
X123428146Y-69970737D01*
X123428146Y-69970737D02*
X123505556Y-70009442D01*
X123505556Y-70009442D02*
X123737784Y-70009442D01*
X123737784Y-70009442D02*
X123815194Y-69970737D01*
X123815194Y-69970737D02*
X123853899Y-69932032D01*
X123853899Y-69932032D02*
X123892603Y-69854623D01*
X123892603Y-69854623D02*
X123892603Y-69738509D01*
X123350737Y-70357784D02*
X124163537Y-70357784D01*
X123389441Y-70357784D02*
X123350737Y-70435194D01*
X123350737Y-70435194D02*
X123350737Y-70590013D01*
X123350737Y-70590013D02*
X123389441Y-70667422D01*
X123389441Y-70667422D02*
X123428146Y-70706127D01*
X123428146Y-70706127D02*
X123505556Y-70744832D01*
X123505556Y-70744832D02*
X123737784Y-70744832D01*
X123737784Y-70744832D02*
X123815194Y-70706127D01*
X123815194Y-70706127D02*
X123853899Y-70667422D01*
X123853899Y-70667422D02*
X123892603Y-70590013D01*
X123892603Y-70590013D02*
X123892603Y-70435194D01*
X123892603Y-70435194D02*
X123853899Y-70357784D01*
X154192603Y-58158243D02*
X153805556Y-57887310D01*
X154192603Y-57693786D02*
X153379803Y-57693786D01*
X153379803Y-57693786D02*
X153379803Y-58003424D01*
X153379803Y-58003424D02*
X153418508Y-58080834D01*
X153418508Y-58080834D02*
X153457213Y-58119539D01*
X153457213Y-58119539D02*
X153534622Y-58158243D01*
X153534622Y-58158243D02*
X153650737Y-58158243D01*
X153650737Y-58158243D02*
X153728146Y-58119539D01*
X153728146Y-58119539D02*
X153766851Y-58080834D01*
X153766851Y-58080834D02*
X153805556Y-58003424D01*
X153805556Y-58003424D02*
X153805556Y-57693786D01*
X154153899Y-58816224D02*
X154192603Y-58738815D01*
X154192603Y-58738815D02*
X154192603Y-58583996D01*
X154192603Y-58583996D02*
X154153899Y-58506586D01*
X154153899Y-58506586D02*
X154076489Y-58467882D01*
X154076489Y-58467882D02*
X153766851Y-58467882D01*
X153766851Y-58467882D02*
X153689441Y-58506586D01*
X153689441Y-58506586D02*
X153650737Y-58583996D01*
X153650737Y-58583996D02*
X153650737Y-58738815D01*
X153650737Y-58738815D02*
X153689441Y-58816224D01*
X153689441Y-58816224D02*
X153766851Y-58854929D01*
X153766851Y-58854929D02*
X153844260Y-58854929D01*
X153844260Y-58854929D02*
X153921670Y-58467882D01*
X154153899Y-59164568D02*
X154192603Y-59241977D01*
X154192603Y-59241977D02*
X154192603Y-59396796D01*
X154192603Y-59396796D02*
X154153899Y-59474206D01*
X154153899Y-59474206D02*
X154076489Y-59512910D01*
X154076489Y-59512910D02*
X154037784Y-59512910D01*
X154037784Y-59512910D02*
X153960375Y-59474206D01*
X153960375Y-59474206D02*
X153921670Y-59396796D01*
X153921670Y-59396796D02*
X153921670Y-59280682D01*
X153921670Y-59280682D02*
X153882965Y-59203272D01*
X153882965Y-59203272D02*
X153805556Y-59164568D01*
X153805556Y-59164568D02*
X153766851Y-59164568D01*
X153766851Y-59164568D02*
X153689441Y-59203272D01*
X153689441Y-59203272D02*
X153650737Y-59280682D01*
X153650737Y-59280682D02*
X153650737Y-59396796D01*
X153650737Y-59396796D02*
X153689441Y-59474206D01*
X154153899Y-60170891D02*
X154192603Y-60093482D01*
X154192603Y-60093482D02*
X154192603Y-59938663D01*
X154192603Y-59938663D02*
X154153899Y-59861253D01*
X154153899Y-59861253D02*
X154076489Y-59822549D01*
X154076489Y-59822549D02*
X153766851Y-59822549D01*
X153766851Y-59822549D02*
X153689441Y-59861253D01*
X153689441Y-59861253D02*
X153650737Y-59938663D01*
X153650737Y-59938663D02*
X153650737Y-60093482D01*
X153650737Y-60093482D02*
X153689441Y-60170891D01*
X153689441Y-60170891D02*
X153766851Y-60209596D01*
X153766851Y-60209596D02*
X153844260Y-60209596D01*
X153844260Y-60209596D02*
X153921670Y-59822549D01*
X153650737Y-60441825D02*
X153650737Y-60751463D01*
X153379803Y-60557939D02*
X154076489Y-60557939D01*
X154076489Y-60557939D02*
X154153899Y-60596644D01*
X154153899Y-60596644D02*
X154192603Y-60674054D01*
X154192603Y-60674054D02*
X154192603Y-60751463D01*
X146741756Y-61080946D02*
X146780460Y-61119651D01*
X146780460Y-61119651D02*
X146896575Y-61158355D01*
X146896575Y-61158355D02*
X146973984Y-61158355D01*
X146973984Y-61158355D02*
X147090098Y-61119651D01*
X147090098Y-61119651D02*
X147167508Y-61042241D01*
X147167508Y-61042241D02*
X147206213Y-60964831D01*
X147206213Y-60964831D02*
X147244917Y-60810012D01*
X147244917Y-60810012D02*
X147244917Y-60693898D01*
X147244917Y-60693898D02*
X147206213Y-60539079D01*
X147206213Y-60539079D02*
X147167508Y-60461670D01*
X147167508Y-60461670D02*
X147090098Y-60384260D01*
X147090098Y-60384260D02*
X146973984Y-60345555D01*
X146973984Y-60345555D02*
X146896575Y-60345555D01*
X146896575Y-60345555D02*
X146780460Y-60384260D01*
X146780460Y-60384260D02*
X146741756Y-60422965D01*
X146277298Y-61158355D02*
X146354708Y-61119651D01*
X146354708Y-61119651D02*
X146393413Y-61080946D01*
X146393413Y-61080946D02*
X146432117Y-61003536D01*
X146432117Y-61003536D02*
X146432117Y-60771308D01*
X146432117Y-60771308D02*
X146393413Y-60693898D01*
X146393413Y-60693898D02*
X146354708Y-60655193D01*
X146354708Y-60655193D02*
X146277298Y-60616489D01*
X146277298Y-60616489D02*
X146161184Y-60616489D01*
X146161184Y-60616489D02*
X146083775Y-60655193D01*
X146083775Y-60655193D02*
X146045070Y-60693898D01*
X146045070Y-60693898D02*
X146006365Y-60771308D01*
X146006365Y-60771308D02*
X146006365Y-61003536D01*
X146006365Y-61003536D02*
X146045070Y-61080946D01*
X146045070Y-61080946D02*
X146083775Y-61119651D01*
X146083775Y-61119651D02*
X146161184Y-61158355D01*
X146161184Y-61158355D02*
X146277298Y-61158355D01*
X145658023Y-60616489D02*
X145658023Y-61158355D01*
X145658023Y-60693898D02*
X145619318Y-60655193D01*
X145619318Y-60655193D02*
X145541908Y-60616489D01*
X145541908Y-60616489D02*
X145425794Y-60616489D01*
X145425794Y-60616489D02*
X145348385Y-60655193D01*
X145348385Y-60655193D02*
X145309680Y-60732603D01*
X145309680Y-60732603D02*
X145309680Y-61158355D01*
X145038747Y-60616489D02*
X144729109Y-60616489D01*
X144922633Y-60345555D02*
X144922633Y-61042241D01*
X144922633Y-61042241D02*
X144883928Y-61119651D01*
X144883928Y-61119651D02*
X144806518Y-61158355D01*
X144806518Y-61158355D02*
X144729109Y-61158355D01*
X144458176Y-61158355D02*
X144458176Y-60616489D01*
X144458176Y-60771308D02*
X144419471Y-60693898D01*
X144419471Y-60693898D02*
X144380766Y-60655193D01*
X144380766Y-60655193D02*
X144303357Y-60616489D01*
X144303357Y-60616489D02*
X144225947Y-60616489D01*
X143838899Y-61158355D02*
X143916309Y-61119651D01*
X143916309Y-61119651D02*
X143955014Y-61080946D01*
X143955014Y-61080946D02*
X143993718Y-61003536D01*
X143993718Y-61003536D02*
X143993718Y-60771308D01*
X143993718Y-60771308D02*
X143955014Y-60693898D01*
X143955014Y-60693898D02*
X143916309Y-60655193D01*
X143916309Y-60655193D02*
X143838899Y-60616489D01*
X143838899Y-60616489D02*
X143722785Y-60616489D01*
X143722785Y-60616489D02*
X143645376Y-60655193D01*
X143645376Y-60655193D02*
X143606671Y-60693898D01*
X143606671Y-60693898D02*
X143567966Y-60771308D01*
X143567966Y-60771308D02*
X143567966Y-61003536D01*
X143567966Y-61003536D02*
X143606671Y-61080946D01*
X143606671Y-61080946D02*
X143645376Y-61119651D01*
X143645376Y-61119651D02*
X143722785Y-61158355D01*
X143722785Y-61158355D02*
X143838899Y-61158355D01*
X143103509Y-61158355D02*
X143180919Y-61119651D01*
X143180919Y-61119651D02*
X143219624Y-61042241D01*
X143219624Y-61042241D02*
X143219624Y-60345555D01*
X142677757Y-61158355D02*
X142755167Y-61119651D01*
X142755167Y-61119651D02*
X142793872Y-61042241D01*
X142793872Y-61042241D02*
X142793872Y-60345555D01*
X142058482Y-61119651D02*
X142135891Y-61158355D01*
X142135891Y-61158355D02*
X142290710Y-61158355D01*
X142290710Y-61158355D02*
X142368120Y-61119651D01*
X142368120Y-61119651D02*
X142406824Y-61042241D01*
X142406824Y-61042241D02*
X142406824Y-60732603D01*
X142406824Y-60732603D02*
X142368120Y-60655193D01*
X142368120Y-60655193D02*
X142290710Y-60616489D01*
X142290710Y-60616489D02*
X142135891Y-60616489D01*
X142135891Y-60616489D02*
X142058482Y-60655193D01*
X142058482Y-60655193D02*
X142019777Y-60732603D01*
X142019777Y-60732603D02*
X142019777Y-60810012D01*
X142019777Y-60810012D02*
X142406824Y-60887422D01*
X141671434Y-61158355D02*
X141671434Y-60616489D01*
X141671434Y-60771308D02*
X141632729Y-60693898D01*
X141632729Y-60693898D02*
X141594024Y-60655193D01*
X141594024Y-60655193D02*
X141516615Y-60616489D01*
X141516615Y-60616489D02*
X141439205Y-60616489D01*
X140587700Y-61119651D02*
X140471586Y-61158355D01*
X140471586Y-61158355D02*
X140278062Y-61158355D01*
X140278062Y-61158355D02*
X140200653Y-61119651D01*
X140200653Y-61119651D02*
X140161948Y-61080946D01*
X140161948Y-61080946D02*
X140123243Y-61003536D01*
X140123243Y-61003536D02*
X140123243Y-60926127D01*
X140123243Y-60926127D02*
X140161948Y-60848717D01*
X140161948Y-60848717D02*
X140200653Y-60810012D01*
X140200653Y-60810012D02*
X140278062Y-60771308D01*
X140278062Y-60771308D02*
X140432881Y-60732603D01*
X140432881Y-60732603D02*
X140510291Y-60693898D01*
X140510291Y-60693898D02*
X140548996Y-60655193D01*
X140548996Y-60655193D02*
X140587700Y-60577784D01*
X140587700Y-60577784D02*
X140587700Y-60500374D01*
X140587700Y-60500374D02*
X140548996Y-60422965D01*
X140548996Y-60422965D02*
X140510291Y-60384260D01*
X140510291Y-60384260D02*
X140432881Y-60345555D01*
X140432881Y-60345555D02*
X140239358Y-60345555D01*
X140239358Y-60345555D02*
X140123243Y-60384260D01*
X139465263Y-61119651D02*
X139542672Y-61158355D01*
X139542672Y-61158355D02*
X139697491Y-61158355D01*
X139697491Y-61158355D02*
X139774901Y-61119651D01*
X139774901Y-61119651D02*
X139813605Y-61042241D01*
X139813605Y-61042241D02*
X139813605Y-60732603D01*
X139813605Y-60732603D02*
X139774901Y-60655193D01*
X139774901Y-60655193D02*
X139697491Y-60616489D01*
X139697491Y-60616489D02*
X139542672Y-60616489D01*
X139542672Y-60616489D02*
X139465263Y-60655193D01*
X139465263Y-60655193D02*
X139426558Y-60732603D01*
X139426558Y-60732603D02*
X139426558Y-60810012D01*
X139426558Y-60810012D02*
X139813605Y-60887422D01*
X139078215Y-61158355D02*
X139078215Y-60616489D01*
X139078215Y-60771308D02*
X139039510Y-60693898D01*
X139039510Y-60693898D02*
X139000805Y-60655193D01*
X139000805Y-60655193D02*
X138923396Y-60616489D01*
X138923396Y-60616489D02*
X138845986Y-60616489D01*
X138652462Y-60616489D02*
X138458938Y-61158355D01*
X138458938Y-61158355D02*
X138265415Y-60616489D01*
X137839662Y-61158355D02*
X137917072Y-61119651D01*
X137917072Y-61119651D02*
X137955777Y-61080946D01*
X137955777Y-61080946D02*
X137994481Y-61003536D01*
X137994481Y-61003536D02*
X137994481Y-60771308D01*
X137994481Y-60771308D02*
X137955777Y-60693898D01*
X137955777Y-60693898D02*
X137917072Y-60655193D01*
X137917072Y-60655193D02*
X137839662Y-60616489D01*
X137839662Y-60616489D02*
X137723548Y-60616489D01*
X137723548Y-60616489D02*
X137646139Y-60655193D01*
X137646139Y-60655193D02*
X137607434Y-60693898D01*
X137607434Y-60693898D02*
X137568729Y-60771308D01*
X137568729Y-60771308D02*
X137568729Y-61003536D01*
X137568729Y-61003536D02*
X137607434Y-61080946D01*
X137607434Y-61080946D02*
X137646139Y-61119651D01*
X137646139Y-61119651D02*
X137723548Y-61158355D01*
X137723548Y-61158355D02*
X137839662Y-61158355D01*
X136988158Y-61467993D02*
X137026863Y-61429289D01*
X137026863Y-61429289D02*
X137104272Y-61313174D01*
X137104272Y-61313174D02*
X137142977Y-61235765D01*
X137142977Y-61235765D02*
X137181682Y-61119651D01*
X137181682Y-61119651D02*
X137220387Y-60926127D01*
X137220387Y-60926127D02*
X137220387Y-60771308D01*
X137220387Y-60771308D02*
X137181682Y-60577784D01*
X137181682Y-60577784D02*
X137142977Y-60461670D01*
X137142977Y-60461670D02*
X137104272Y-60384260D01*
X137104272Y-60384260D02*
X137026863Y-60268146D01*
X137026863Y-60268146D02*
X136988158Y-60229441D01*
X136214063Y-61080946D02*
X136252767Y-61119651D01*
X136252767Y-61119651D02*
X136368882Y-61158355D01*
X136368882Y-61158355D02*
X136446291Y-61158355D01*
X136446291Y-61158355D02*
X136562405Y-61119651D01*
X136562405Y-61119651D02*
X136639815Y-61042241D01*
X136639815Y-61042241D02*
X136678520Y-60964831D01*
X136678520Y-60964831D02*
X136717224Y-60810012D01*
X136717224Y-60810012D02*
X136717224Y-60693898D01*
X136717224Y-60693898D02*
X136678520Y-60539079D01*
X136678520Y-60539079D02*
X136639815Y-60461670D01*
X136639815Y-60461670D02*
X136562405Y-60384260D01*
X136562405Y-60384260D02*
X136446291Y-60345555D01*
X136446291Y-60345555D02*
X136368882Y-60345555D01*
X136368882Y-60345555D02*
X136252767Y-60384260D01*
X136252767Y-60384260D02*
X136214063Y-60422965D01*
X135556082Y-61119651D02*
X135633491Y-61158355D01*
X135633491Y-61158355D02*
X135788310Y-61158355D01*
X135788310Y-61158355D02*
X135865720Y-61119651D01*
X135865720Y-61119651D02*
X135904424Y-61042241D01*
X135904424Y-61042241D02*
X135904424Y-60732603D01*
X135904424Y-60732603D02*
X135865720Y-60655193D01*
X135865720Y-60655193D02*
X135788310Y-60616489D01*
X135788310Y-60616489D02*
X135633491Y-60616489D01*
X135633491Y-60616489D02*
X135556082Y-60655193D01*
X135556082Y-60655193D02*
X135517377Y-60732603D01*
X135517377Y-60732603D02*
X135517377Y-60810012D01*
X135517377Y-60810012D02*
X135904424Y-60887422D01*
X135052919Y-61158355D02*
X135130329Y-61119651D01*
X135130329Y-61119651D02*
X135169034Y-61042241D01*
X135169034Y-61042241D02*
X135169034Y-60345555D01*
X134627167Y-61158355D02*
X134704577Y-61119651D01*
X134704577Y-61119651D02*
X134743282Y-61042241D01*
X134743282Y-61042241D02*
X134743282Y-60345555D01*
X133853073Y-61080946D02*
X133891777Y-61119651D01*
X133891777Y-61119651D02*
X134007892Y-61158355D01*
X134007892Y-61158355D02*
X134085301Y-61158355D01*
X134085301Y-61158355D02*
X134201415Y-61119651D01*
X134201415Y-61119651D02*
X134278825Y-61042241D01*
X134278825Y-61042241D02*
X134317530Y-60964831D01*
X134317530Y-60964831D02*
X134356234Y-60810012D01*
X134356234Y-60810012D02*
X134356234Y-60693898D01*
X134356234Y-60693898D02*
X134317530Y-60539079D01*
X134317530Y-60539079D02*
X134278825Y-60461670D01*
X134278825Y-60461670D02*
X134201415Y-60384260D01*
X134201415Y-60384260D02*
X134085301Y-60345555D01*
X134085301Y-60345555D02*
X134007892Y-60345555D01*
X134007892Y-60345555D02*
X133891777Y-60384260D01*
X133891777Y-60384260D02*
X133853073Y-60422965D01*
X133620844Y-60345555D02*
X133156387Y-60345555D01*
X133388615Y-61158355D02*
X133388615Y-60345555D01*
X132420997Y-61158355D02*
X132691930Y-60771308D01*
X132885454Y-61158355D02*
X132885454Y-60345555D01*
X132885454Y-60345555D02*
X132575816Y-60345555D01*
X132575816Y-60345555D02*
X132498406Y-60384260D01*
X132498406Y-60384260D02*
X132459701Y-60422965D01*
X132459701Y-60422965D02*
X132420997Y-60500374D01*
X132420997Y-60500374D02*
X132420997Y-60616489D01*
X132420997Y-60616489D02*
X132459701Y-60693898D01*
X132459701Y-60693898D02*
X132498406Y-60732603D01*
X132498406Y-60732603D02*
X132575816Y-60771308D01*
X132575816Y-60771308D02*
X132885454Y-60771308D01*
X131685606Y-61158355D02*
X132072654Y-61158355D01*
X132072654Y-61158355D02*
X132072654Y-60345555D01*
X131492082Y-61467993D02*
X131453377Y-61429289D01*
X131453377Y-61429289D02*
X131375968Y-61313174D01*
X131375968Y-61313174D02*
X131337263Y-61235765D01*
X131337263Y-61235765D02*
X131298558Y-61119651D01*
X131298558Y-61119651D02*
X131259854Y-60926127D01*
X131259854Y-60926127D02*
X131259854Y-60771308D01*
X131259854Y-60771308D02*
X131298558Y-60577784D01*
X131298558Y-60577784D02*
X131337263Y-60461670D01*
X131337263Y-60461670D02*
X131375968Y-60384260D01*
X131375968Y-60384260D02*
X131453377Y-60268146D01*
X131453377Y-60268146D02*
X131492082Y-60229441D01*
X147322327Y-61654117D02*
X147051394Y-62466917D01*
X147051394Y-62466917D02*
X146780460Y-61654117D01*
X146354708Y-61654117D02*
X146277298Y-61654117D01*
X146277298Y-61654117D02*
X146199889Y-61692822D01*
X146199889Y-61692822D02*
X146161184Y-61731527D01*
X146161184Y-61731527D02*
X146122479Y-61808936D01*
X146122479Y-61808936D02*
X146083774Y-61963755D01*
X146083774Y-61963755D02*
X146083774Y-62157279D01*
X146083774Y-62157279D02*
X146122479Y-62312098D01*
X146122479Y-62312098D02*
X146161184Y-62389508D01*
X146161184Y-62389508D02*
X146199889Y-62428213D01*
X146199889Y-62428213D02*
X146277298Y-62466917D01*
X146277298Y-62466917D02*
X146354708Y-62466917D01*
X146354708Y-62466917D02*
X146432117Y-62428213D01*
X146432117Y-62428213D02*
X146470822Y-62389508D01*
X146470822Y-62389508D02*
X146509527Y-62312098D01*
X146509527Y-62312098D02*
X146548231Y-62157279D01*
X146548231Y-62157279D02*
X146548231Y-61963755D01*
X146548231Y-61963755D02*
X146509527Y-61808936D01*
X146509527Y-61808936D02*
X146470822Y-61731527D01*
X146470822Y-61731527D02*
X146432117Y-61692822D01*
X146432117Y-61692822D02*
X146354708Y-61654117D01*
X145735432Y-62389508D02*
X145696727Y-62428213D01*
X145696727Y-62428213D02*
X145735432Y-62466917D01*
X145735432Y-62466917D02*
X145774136Y-62428213D01*
X145774136Y-62428213D02*
X145735432Y-62389508D01*
X145735432Y-62389508D02*
X145735432Y-62466917D01*
X144922631Y-62466917D02*
X145387088Y-62466917D01*
X145154860Y-62466917D02*
X145154860Y-61654117D01*
X145154860Y-61654117D02*
X145232269Y-61770232D01*
X145232269Y-61770232D02*
X145309679Y-61847641D01*
X145309679Y-61847641D02*
X145387088Y-61886346D01*
X147051394Y-62962679D02*
X146973984Y-62962679D01*
X146973984Y-62962679D02*
X146896575Y-63001384D01*
X146896575Y-63001384D02*
X146857870Y-63040089D01*
X146857870Y-63040089D02*
X146819165Y-63117498D01*
X146819165Y-63117498D02*
X146780460Y-63272317D01*
X146780460Y-63272317D02*
X146780460Y-63465841D01*
X146780460Y-63465841D02*
X146819165Y-63620660D01*
X146819165Y-63620660D02*
X146857870Y-63698070D01*
X146857870Y-63698070D02*
X146896575Y-63736775D01*
X146896575Y-63736775D02*
X146973984Y-63775479D01*
X146973984Y-63775479D02*
X147051394Y-63775479D01*
X147051394Y-63775479D02*
X147128803Y-63736775D01*
X147128803Y-63736775D02*
X147167508Y-63698070D01*
X147167508Y-63698070D02*
X147206213Y-63620660D01*
X147206213Y-63620660D02*
X147244917Y-63465841D01*
X147244917Y-63465841D02*
X147244917Y-63272317D01*
X147244917Y-63272317D02*
X147206213Y-63117498D01*
X147206213Y-63117498D02*
X147167508Y-63040089D01*
X147167508Y-63040089D02*
X147128803Y-63001384D01*
X147128803Y-63001384D02*
X147051394Y-62962679D01*
X146509527Y-62962679D02*
X146006365Y-62962679D01*
X146006365Y-62962679D02*
X146277299Y-63272317D01*
X146277299Y-63272317D02*
X146161184Y-63272317D01*
X146161184Y-63272317D02*
X146083775Y-63311022D01*
X146083775Y-63311022D02*
X146045070Y-63349727D01*
X146045070Y-63349727D02*
X146006365Y-63427136D01*
X146006365Y-63427136D02*
X146006365Y-63620660D01*
X146006365Y-63620660D02*
X146045070Y-63698070D01*
X146045070Y-63698070D02*
X146083775Y-63736775D01*
X146083775Y-63736775D02*
X146161184Y-63775479D01*
X146161184Y-63775479D02*
X146393413Y-63775479D01*
X146393413Y-63775479D02*
X146470822Y-63736775D01*
X146470822Y-63736775D02*
X146509527Y-63698070D01*
X145077451Y-62923975D02*
X145774137Y-63969003D01*
X144845222Y-63040089D02*
X144806518Y-63001384D01*
X144806518Y-63001384D02*
X144729108Y-62962679D01*
X144729108Y-62962679D02*
X144535584Y-62962679D01*
X144535584Y-62962679D02*
X144458175Y-63001384D01*
X144458175Y-63001384D02*
X144419470Y-63040089D01*
X144419470Y-63040089D02*
X144380765Y-63117498D01*
X144380765Y-63117498D02*
X144380765Y-63194908D01*
X144380765Y-63194908D02*
X144419470Y-63311022D01*
X144419470Y-63311022D02*
X144883927Y-63775479D01*
X144883927Y-63775479D02*
X144380765Y-63775479D01*
X143877604Y-62962679D02*
X143800194Y-62962679D01*
X143800194Y-62962679D02*
X143722785Y-63001384D01*
X143722785Y-63001384D02*
X143684080Y-63040089D01*
X143684080Y-63040089D02*
X143645375Y-63117498D01*
X143645375Y-63117498D02*
X143606670Y-63272317D01*
X143606670Y-63272317D02*
X143606670Y-63465841D01*
X143606670Y-63465841D02*
X143645375Y-63620660D01*
X143645375Y-63620660D02*
X143684080Y-63698070D01*
X143684080Y-63698070D02*
X143722785Y-63736775D01*
X143722785Y-63736775D02*
X143800194Y-63775479D01*
X143800194Y-63775479D02*
X143877604Y-63775479D01*
X143877604Y-63775479D02*
X143955013Y-63736775D01*
X143955013Y-63736775D02*
X143993718Y-63698070D01*
X143993718Y-63698070D02*
X144032423Y-63620660D01*
X144032423Y-63620660D02*
X144071127Y-63465841D01*
X144071127Y-63465841D02*
X144071127Y-63272317D01*
X144071127Y-63272317D02*
X144032423Y-63117498D01*
X144032423Y-63117498D02*
X143993718Y-63040089D01*
X143993718Y-63040089D02*
X143955013Y-63001384D01*
X143955013Y-63001384D02*
X143877604Y-62962679D01*
X143297032Y-63040089D02*
X143258328Y-63001384D01*
X143258328Y-63001384D02*
X143180918Y-62962679D01*
X143180918Y-62962679D02*
X142987394Y-62962679D01*
X142987394Y-62962679D02*
X142909985Y-63001384D01*
X142909985Y-63001384D02*
X142871280Y-63040089D01*
X142871280Y-63040089D02*
X142832575Y-63117498D01*
X142832575Y-63117498D02*
X142832575Y-63194908D01*
X142832575Y-63194908D02*
X142871280Y-63311022D01*
X142871280Y-63311022D02*
X143335737Y-63775479D01*
X143335737Y-63775479D02*
X142832575Y-63775479D01*
X142135890Y-62962679D02*
X142290709Y-62962679D01*
X142290709Y-62962679D02*
X142368118Y-63001384D01*
X142368118Y-63001384D02*
X142406823Y-63040089D01*
X142406823Y-63040089D02*
X142484233Y-63156203D01*
X142484233Y-63156203D02*
X142522937Y-63311022D01*
X142522937Y-63311022D02*
X142522937Y-63620660D01*
X142522937Y-63620660D02*
X142484233Y-63698070D01*
X142484233Y-63698070D02*
X142445528Y-63736775D01*
X142445528Y-63736775D02*
X142368118Y-63775479D01*
X142368118Y-63775479D02*
X142213299Y-63775479D01*
X142213299Y-63775479D02*
X142135890Y-63736775D01*
X142135890Y-63736775D02*
X142097185Y-63698070D01*
X142097185Y-63698070D02*
X142058480Y-63620660D01*
X142058480Y-63620660D02*
X142058480Y-63427136D01*
X142058480Y-63427136D02*
X142097185Y-63349727D01*
X142097185Y-63349727D02*
X142135890Y-63311022D01*
X142135890Y-63311022D02*
X142213299Y-63272317D01*
X142213299Y-63272317D02*
X142368118Y-63272317D01*
X142368118Y-63272317D02*
X142445528Y-63311022D01*
X142445528Y-63311022D02*
X142484233Y-63349727D01*
X142484233Y-63349727D02*
X142522937Y-63427136D01*
X147206213Y-64658289D02*
X146935279Y-64658289D01*
X146819165Y-65084041D02*
X147206213Y-65084041D01*
X147206213Y-65084041D02*
X147206213Y-64271241D01*
X147206213Y-64271241D02*
X146819165Y-64271241D01*
X146122480Y-65084041D02*
X146122480Y-64271241D01*
X146122480Y-65045337D02*
X146199889Y-65084041D01*
X146199889Y-65084041D02*
X146354708Y-65084041D01*
X146354708Y-65084041D02*
X146432118Y-65045337D01*
X146432118Y-65045337D02*
X146470823Y-65006632D01*
X146470823Y-65006632D02*
X146509527Y-64929222D01*
X146509527Y-64929222D02*
X146509527Y-64696994D01*
X146509527Y-64696994D02*
X146470823Y-64619584D01*
X146470823Y-64619584D02*
X146432118Y-64580879D01*
X146432118Y-64580879D02*
X146354708Y-64542175D01*
X146354708Y-64542175D02*
X146199889Y-64542175D01*
X146199889Y-64542175D02*
X146122480Y-64580879D01*
X145735433Y-65084041D02*
X145735433Y-64542175D01*
X145735433Y-64271241D02*
X145774137Y-64309946D01*
X145774137Y-64309946D02*
X145735433Y-64348651D01*
X145735433Y-64348651D02*
X145696728Y-64309946D01*
X145696728Y-64309946D02*
X145735433Y-64271241D01*
X145735433Y-64271241D02*
X145735433Y-64348651D01*
X145464499Y-64542175D02*
X145154861Y-64542175D01*
X145348385Y-64271241D02*
X145348385Y-64967927D01*
X145348385Y-64967927D02*
X145309680Y-65045337D01*
X145309680Y-65045337D02*
X145232270Y-65084041D01*
X145232270Y-65084041D02*
X145154861Y-65084041D01*
X144264652Y-65084041D02*
X144264652Y-64271241D01*
X144264652Y-64580879D02*
X144187242Y-64542175D01*
X144187242Y-64542175D02*
X144032423Y-64542175D01*
X144032423Y-64542175D02*
X143955014Y-64580879D01*
X143955014Y-64580879D02*
X143916309Y-64619584D01*
X143916309Y-64619584D02*
X143877604Y-64696994D01*
X143877604Y-64696994D02*
X143877604Y-64929222D01*
X143877604Y-64929222D02*
X143916309Y-65006632D01*
X143916309Y-65006632D02*
X143955014Y-65045337D01*
X143955014Y-65045337D02*
X144032423Y-65084041D01*
X144032423Y-65084041D02*
X144187242Y-65084041D01*
X144187242Y-65084041D02*
X144264652Y-65045337D01*
X143606671Y-64542175D02*
X143413147Y-65084041D01*
X143219624Y-64542175D02*
X143413147Y-65084041D01*
X143413147Y-65084041D02*
X143490557Y-65277565D01*
X143490557Y-65277565D02*
X143529262Y-65316270D01*
X143529262Y-65316270D02*
X143606671Y-65354975D01*
X142058481Y-64271241D02*
X142058481Y-64851813D01*
X142058481Y-64851813D02*
X142097186Y-64967927D01*
X142097186Y-64967927D02*
X142174595Y-65045337D01*
X142174595Y-65045337D02*
X142290710Y-65084041D01*
X142290710Y-65084041D02*
X142368119Y-65084041D01*
X141671434Y-65084041D02*
X141671434Y-64271241D01*
X141206977Y-65084041D02*
X141555319Y-64619584D01*
X141206977Y-64271241D02*
X141671434Y-64735698D01*
X146857870Y-65850737D02*
X146857870Y-66508718D01*
X146857870Y-66508718D02*
X146896575Y-66586127D01*
X146896575Y-66586127D02*
X146935279Y-66624832D01*
X146935279Y-66624832D02*
X147012689Y-66663537D01*
X147012689Y-66663537D02*
X147128803Y-66663537D01*
X147128803Y-66663537D02*
X147206213Y-66624832D01*
X146857870Y-66353899D02*
X146935279Y-66392603D01*
X146935279Y-66392603D02*
X147090098Y-66392603D01*
X147090098Y-66392603D02*
X147167508Y-66353899D01*
X147167508Y-66353899D02*
X147206213Y-66315194D01*
X147206213Y-66315194D02*
X147244917Y-66237784D01*
X147244917Y-66237784D02*
X147244917Y-66005556D01*
X147244917Y-66005556D02*
X147206213Y-65928146D01*
X147206213Y-65928146D02*
X147167508Y-65889441D01*
X147167508Y-65889441D02*
X147090098Y-65850737D01*
X147090098Y-65850737D02*
X146935279Y-65850737D01*
X146935279Y-65850737D02*
X146857870Y-65889441D01*
X146470823Y-66392603D02*
X146470823Y-65850737D01*
X146470823Y-65579803D02*
X146509527Y-65618508D01*
X146509527Y-65618508D02*
X146470823Y-65657213D01*
X146470823Y-65657213D02*
X146432118Y-65618508D01*
X146432118Y-65618508D02*
X146470823Y-65579803D01*
X146470823Y-65579803D02*
X146470823Y-65657213D01*
X146199889Y-65850737D02*
X145890251Y-65850737D01*
X146083775Y-65579803D02*
X146083775Y-66276489D01*
X146083775Y-66276489D02*
X146045070Y-66353899D01*
X146045070Y-66353899D02*
X145967660Y-66392603D01*
X145967660Y-66392603D02*
X145890251Y-66392603D01*
X145619318Y-66392603D02*
X145619318Y-65579803D01*
X145270975Y-66392603D02*
X145270975Y-65966851D01*
X145270975Y-65966851D02*
X145309680Y-65889441D01*
X145309680Y-65889441D02*
X145387089Y-65850737D01*
X145387089Y-65850737D02*
X145503203Y-65850737D01*
X145503203Y-65850737D02*
X145580613Y-65889441D01*
X145580613Y-65889441D02*
X145619318Y-65928146D01*
X144535585Y-65850737D02*
X144535585Y-66392603D01*
X144883928Y-65850737D02*
X144883928Y-66276489D01*
X144883928Y-66276489D02*
X144845223Y-66353899D01*
X144845223Y-66353899D02*
X144767813Y-66392603D01*
X144767813Y-66392603D02*
X144651699Y-66392603D01*
X144651699Y-66392603D02*
X144574290Y-66353899D01*
X144574290Y-66353899D02*
X144535585Y-66315194D01*
X144148538Y-66392603D02*
X144148538Y-65579803D01*
X144148538Y-65889441D02*
X144071128Y-65850737D01*
X144071128Y-65850737D02*
X143916309Y-65850737D01*
X143916309Y-65850737D02*
X143838900Y-65889441D01*
X143838900Y-65889441D02*
X143800195Y-65928146D01*
X143800195Y-65928146D02*
X143761490Y-66005556D01*
X143761490Y-66005556D02*
X143761490Y-66237784D01*
X143761490Y-66237784D02*
X143800195Y-66315194D01*
X143800195Y-66315194D02*
X143838900Y-66353899D01*
X143838900Y-66353899D02*
X143916309Y-66392603D01*
X143916309Y-66392603D02*
X144071128Y-66392603D01*
X144071128Y-66392603D02*
X144148538Y-66353899D01*
X143413148Y-66315194D02*
X143374443Y-66353899D01*
X143374443Y-66353899D02*
X143413148Y-66392603D01*
X143413148Y-66392603D02*
X143451852Y-66353899D01*
X143451852Y-66353899D02*
X143413148Y-66315194D01*
X143413148Y-66315194D02*
X143413148Y-66392603D01*
X142677757Y-66353899D02*
X142755166Y-66392603D01*
X142755166Y-66392603D02*
X142909985Y-66392603D01*
X142909985Y-66392603D02*
X142987395Y-66353899D01*
X142987395Y-66353899D02*
X143026100Y-66315194D01*
X143026100Y-66315194D02*
X143064804Y-66237784D01*
X143064804Y-66237784D02*
X143064804Y-66005556D01*
X143064804Y-66005556D02*
X143026100Y-65928146D01*
X143026100Y-65928146D02*
X142987395Y-65889441D01*
X142987395Y-65889441D02*
X142909985Y-65850737D01*
X142909985Y-65850737D02*
X142755166Y-65850737D01*
X142755166Y-65850737D02*
X142677757Y-65889441D01*
X142213299Y-66392603D02*
X142290709Y-66353899D01*
X142290709Y-66353899D02*
X142329414Y-66315194D01*
X142329414Y-66315194D02*
X142368118Y-66237784D01*
X142368118Y-66237784D02*
X142368118Y-66005556D01*
X142368118Y-66005556D02*
X142329414Y-65928146D01*
X142329414Y-65928146D02*
X142290709Y-65889441D01*
X142290709Y-65889441D02*
X142213299Y-65850737D01*
X142213299Y-65850737D02*
X142097185Y-65850737D01*
X142097185Y-65850737D02*
X142019776Y-65889441D01*
X142019776Y-65889441D02*
X141981071Y-65928146D01*
X141981071Y-65928146D02*
X141942366Y-66005556D01*
X141942366Y-66005556D02*
X141942366Y-66237784D01*
X141942366Y-66237784D02*
X141981071Y-66315194D01*
X141981071Y-66315194D02*
X142019776Y-66353899D01*
X142019776Y-66353899D02*
X142097185Y-66392603D01*
X142097185Y-66392603D02*
X142213299Y-66392603D01*
X141594024Y-66392603D02*
X141594024Y-65850737D01*
X141594024Y-65928146D02*
X141555319Y-65889441D01*
X141555319Y-65889441D02*
X141477909Y-65850737D01*
X141477909Y-65850737D02*
X141361795Y-65850737D01*
X141361795Y-65850737D02*
X141284386Y-65889441D01*
X141284386Y-65889441D02*
X141245681Y-65966851D01*
X141245681Y-65966851D02*
X141245681Y-66392603D01*
X141245681Y-65966851D02*
X141206976Y-65889441D01*
X141206976Y-65889441D02*
X141129567Y-65850737D01*
X141129567Y-65850737D02*
X141013452Y-65850737D01*
X141013452Y-65850737D02*
X140936043Y-65889441D01*
X140936043Y-65889441D02*
X140897338Y-65966851D01*
X140897338Y-65966851D02*
X140897338Y-66392603D01*
X139929719Y-65541099D02*
X140626405Y-66586127D01*
X139658786Y-66392603D02*
X139658786Y-65579803D01*
X139194329Y-66392603D02*
X139542671Y-65928146D01*
X139194329Y-65579803D02*
X139658786Y-66044260D01*
X138497643Y-66392603D02*
X138497643Y-65966851D01*
X138497643Y-65966851D02*
X138536348Y-65889441D01*
X138536348Y-65889441D02*
X138613757Y-65850737D01*
X138613757Y-65850737D02*
X138768576Y-65850737D01*
X138768576Y-65850737D02*
X138845986Y-65889441D01*
X138497643Y-66353899D02*
X138575052Y-66392603D01*
X138575052Y-66392603D02*
X138768576Y-66392603D01*
X138768576Y-66392603D02*
X138845986Y-66353899D01*
X138845986Y-66353899D02*
X138884690Y-66276489D01*
X138884690Y-66276489D02*
X138884690Y-66199079D01*
X138884690Y-66199079D02*
X138845986Y-66121670D01*
X138845986Y-66121670D02*
X138768576Y-66082965D01*
X138768576Y-66082965D02*
X138575052Y-66082965D01*
X138575052Y-66082965D02*
X138497643Y-66044260D01*
X138110596Y-65850737D02*
X138110596Y-66663537D01*
X138110596Y-65889441D02*
X138033186Y-65850737D01*
X138033186Y-65850737D02*
X137878367Y-65850737D01*
X137878367Y-65850737D02*
X137800958Y-65889441D01*
X137800958Y-65889441D02*
X137762253Y-65928146D01*
X137762253Y-65928146D02*
X137723548Y-66005556D01*
X137723548Y-66005556D02*
X137723548Y-66237784D01*
X137723548Y-66237784D02*
X137762253Y-66315194D01*
X137762253Y-66315194D02*
X137800958Y-66353899D01*
X137800958Y-66353899D02*
X137878367Y-66392603D01*
X137878367Y-66392603D02*
X138033186Y-66392603D01*
X138033186Y-66392603D02*
X138110596Y-66353899D01*
X137375206Y-65850737D02*
X137375206Y-66663537D01*
X137375206Y-65889441D02*
X137297796Y-65850737D01*
X137297796Y-65850737D02*
X137142977Y-65850737D01*
X137142977Y-65850737D02*
X137065568Y-65889441D01*
X137065568Y-65889441D02*
X137026863Y-65928146D01*
X137026863Y-65928146D02*
X136988158Y-66005556D01*
X136988158Y-66005556D02*
X136988158Y-66237784D01*
X136988158Y-66237784D02*
X137026863Y-66315194D01*
X137026863Y-66315194D02*
X137065568Y-66353899D01*
X137065568Y-66353899D02*
X137142977Y-66392603D01*
X137142977Y-66392603D02*
X137297796Y-66392603D01*
X137297796Y-66392603D02*
X137375206Y-66353899D01*
X136639816Y-66392603D02*
X136639816Y-65850737D01*
X136639816Y-65579803D02*
X136678520Y-65618508D01*
X136678520Y-65618508D02*
X136639816Y-65657213D01*
X136639816Y-65657213D02*
X136601111Y-65618508D01*
X136601111Y-65618508D02*
X136639816Y-65579803D01*
X136639816Y-65579803D02*
X136639816Y-65657213D01*
X136097949Y-65579803D02*
X136020539Y-65579803D01*
X136020539Y-65579803D02*
X135943130Y-65618508D01*
X135943130Y-65618508D02*
X135904425Y-65657213D01*
X135904425Y-65657213D02*
X135865720Y-65734622D01*
X135865720Y-65734622D02*
X135827015Y-65889441D01*
X135827015Y-65889441D02*
X135827015Y-66082965D01*
X135827015Y-66082965D02*
X135865720Y-66237784D01*
X135865720Y-66237784D02*
X135904425Y-66315194D01*
X135904425Y-66315194D02*
X135943130Y-66353899D01*
X135943130Y-66353899D02*
X136020539Y-66392603D01*
X136020539Y-66392603D02*
X136097949Y-66392603D01*
X136097949Y-66392603D02*
X136175358Y-66353899D01*
X136175358Y-66353899D02*
X136214063Y-66315194D01*
X136214063Y-66315194D02*
X136252768Y-66237784D01*
X136252768Y-66237784D02*
X136291472Y-66082965D01*
X136291472Y-66082965D02*
X136291472Y-65889441D01*
X136291472Y-65889441D02*
X136252768Y-65734622D01*
X136252768Y-65734622D02*
X136214063Y-65657213D01*
X136214063Y-65657213D02*
X136175358Y-65618508D01*
X136175358Y-65618508D02*
X136097949Y-65579803D01*
X135362558Y-65928146D02*
X135439968Y-65889441D01*
X135439968Y-65889441D02*
X135478673Y-65850737D01*
X135478673Y-65850737D02*
X135517377Y-65773327D01*
X135517377Y-65773327D02*
X135517377Y-65734622D01*
X135517377Y-65734622D02*
X135478673Y-65657213D01*
X135478673Y-65657213D02*
X135439968Y-65618508D01*
X135439968Y-65618508D02*
X135362558Y-65579803D01*
X135362558Y-65579803D02*
X135207739Y-65579803D01*
X135207739Y-65579803D02*
X135130330Y-65618508D01*
X135130330Y-65618508D02*
X135091625Y-65657213D01*
X135091625Y-65657213D02*
X135052920Y-65734622D01*
X135052920Y-65734622D02*
X135052920Y-65773327D01*
X135052920Y-65773327D02*
X135091625Y-65850737D01*
X135091625Y-65850737D02*
X135130330Y-65889441D01*
X135130330Y-65889441D02*
X135207739Y-65928146D01*
X135207739Y-65928146D02*
X135362558Y-65928146D01*
X135362558Y-65928146D02*
X135439968Y-65966851D01*
X135439968Y-65966851D02*
X135478673Y-66005556D01*
X135478673Y-66005556D02*
X135517377Y-66082965D01*
X135517377Y-66082965D02*
X135517377Y-66237784D01*
X135517377Y-66237784D02*
X135478673Y-66315194D01*
X135478673Y-66315194D02*
X135439968Y-66353899D01*
X135439968Y-66353899D02*
X135362558Y-66392603D01*
X135362558Y-66392603D02*
X135207739Y-66392603D01*
X135207739Y-66392603D02*
X135130330Y-66353899D01*
X135130330Y-66353899D02*
X135091625Y-66315194D01*
X135091625Y-66315194D02*
X135052920Y-66237784D01*
X135052920Y-66237784D02*
X135052920Y-66082965D01*
X135052920Y-66082965D02*
X135091625Y-66005556D01*
X135091625Y-66005556D02*
X135130330Y-65966851D01*
X135130330Y-65966851D02*
X135207739Y-65928146D01*
X134356235Y-65850737D02*
X134356235Y-66392603D01*
X134549759Y-65541099D02*
X134743282Y-66121670D01*
X134743282Y-66121670D02*
X134240121Y-66121670D01*
X133349911Y-65541099D02*
X134046597Y-66586127D01*
X132614521Y-66315194D02*
X132653225Y-66353899D01*
X132653225Y-66353899D02*
X132769340Y-66392603D01*
X132769340Y-66392603D02*
X132846749Y-66392603D01*
X132846749Y-66392603D02*
X132962863Y-66353899D01*
X132962863Y-66353899D02*
X133040273Y-66276489D01*
X133040273Y-66276489D02*
X133078978Y-66199079D01*
X133078978Y-66199079D02*
X133117682Y-66044260D01*
X133117682Y-66044260D02*
X133117682Y-65928146D01*
X133117682Y-65928146D02*
X133078978Y-65773327D01*
X133078978Y-65773327D02*
X133040273Y-65695918D01*
X133040273Y-65695918D02*
X132962863Y-65618508D01*
X132962863Y-65618508D02*
X132846749Y-65579803D01*
X132846749Y-65579803D02*
X132769340Y-65579803D01*
X132769340Y-65579803D02*
X132653225Y-65618508D01*
X132653225Y-65618508D02*
X132614521Y-65657213D01*
X131956540Y-66353899D02*
X132033949Y-66392603D01*
X132033949Y-66392603D02*
X132188768Y-66392603D01*
X132188768Y-66392603D02*
X132266178Y-66353899D01*
X132266178Y-66353899D02*
X132304882Y-66276489D01*
X132304882Y-66276489D02*
X132304882Y-65966851D01*
X132304882Y-65966851D02*
X132266178Y-65889441D01*
X132266178Y-65889441D02*
X132188768Y-65850737D01*
X132188768Y-65850737D02*
X132033949Y-65850737D01*
X132033949Y-65850737D02*
X131956540Y-65889441D01*
X131956540Y-65889441D02*
X131917835Y-65966851D01*
X131917835Y-65966851D02*
X131917835Y-66044260D01*
X131917835Y-66044260D02*
X132304882Y-66121670D01*
X131453377Y-66392603D02*
X131530787Y-66353899D01*
X131530787Y-66353899D02*
X131569492Y-66276489D01*
X131569492Y-66276489D02*
X131569492Y-65579803D01*
X131027625Y-66392603D02*
X131105035Y-66353899D01*
X131105035Y-66353899D02*
X131143740Y-66276489D01*
X131143740Y-66276489D02*
X131143740Y-65579803D01*
X130253531Y-66315194D02*
X130292235Y-66353899D01*
X130292235Y-66353899D02*
X130408350Y-66392603D01*
X130408350Y-66392603D02*
X130485759Y-66392603D01*
X130485759Y-66392603D02*
X130601873Y-66353899D01*
X130601873Y-66353899D02*
X130679283Y-66276489D01*
X130679283Y-66276489D02*
X130717988Y-66199079D01*
X130717988Y-66199079D02*
X130756692Y-66044260D01*
X130756692Y-66044260D02*
X130756692Y-65928146D01*
X130756692Y-65928146D02*
X130717988Y-65773327D01*
X130717988Y-65773327D02*
X130679283Y-65695918D01*
X130679283Y-65695918D02*
X130601873Y-65618508D01*
X130601873Y-65618508D02*
X130485759Y-65579803D01*
X130485759Y-65579803D02*
X130408350Y-65579803D01*
X130408350Y-65579803D02*
X130292235Y-65618508D01*
X130292235Y-65618508D02*
X130253531Y-65657213D01*
X130021302Y-65579803D02*
X129556845Y-65579803D01*
X129789073Y-66392603D02*
X129789073Y-65579803D01*
X128821455Y-66392603D02*
X129092388Y-66005556D01*
X129285912Y-66392603D02*
X129285912Y-65579803D01*
X129285912Y-65579803D02*
X128976274Y-65579803D01*
X128976274Y-65579803D02*
X128898864Y-65618508D01*
X128898864Y-65618508D02*
X128860159Y-65657213D01*
X128860159Y-65657213D02*
X128821455Y-65734622D01*
X128821455Y-65734622D02*
X128821455Y-65850737D01*
X128821455Y-65850737D02*
X128860159Y-65928146D01*
X128860159Y-65928146D02*
X128898864Y-65966851D01*
X128898864Y-65966851D02*
X128976274Y-66005556D01*
X128976274Y-66005556D02*
X129285912Y-66005556D01*
X128086064Y-66392603D02*
X128473112Y-66392603D01*
X128473112Y-66392603D02*
X128473112Y-65579803D01*
X123353899Y-56255082D02*
X123392603Y-56371196D01*
X123392603Y-56371196D02*
X123392603Y-56564720D01*
X123392603Y-56564720D02*
X123353899Y-56642129D01*
X123353899Y-56642129D02*
X123315194Y-56680834D01*
X123315194Y-56680834D02*
X123237784Y-56719539D01*
X123237784Y-56719539D02*
X123160375Y-56719539D01*
X123160375Y-56719539D02*
X123082965Y-56680834D01*
X123082965Y-56680834D02*
X123044260Y-56642129D01*
X123044260Y-56642129D02*
X123005556Y-56564720D01*
X123005556Y-56564720D02*
X122966851Y-56409901D01*
X122966851Y-56409901D02*
X122928146Y-56332491D01*
X122928146Y-56332491D02*
X122889441Y-56293786D01*
X122889441Y-56293786D02*
X122812032Y-56255082D01*
X122812032Y-56255082D02*
X122734622Y-56255082D01*
X122734622Y-56255082D02*
X122657213Y-56293786D01*
X122657213Y-56293786D02*
X122618508Y-56332491D01*
X122618508Y-56332491D02*
X122579803Y-56409901D01*
X122579803Y-56409901D02*
X122579803Y-56603424D01*
X122579803Y-56603424D02*
X122618508Y-56719539D01*
X123353899Y-57377519D02*
X123392603Y-57300110D01*
X123392603Y-57300110D02*
X123392603Y-57145291D01*
X123392603Y-57145291D02*
X123353899Y-57067881D01*
X123353899Y-57067881D02*
X123276489Y-57029177D01*
X123276489Y-57029177D02*
X122966851Y-57029177D01*
X122966851Y-57029177D02*
X122889441Y-57067881D01*
X122889441Y-57067881D02*
X122850737Y-57145291D01*
X122850737Y-57145291D02*
X122850737Y-57300110D01*
X122850737Y-57300110D02*
X122889441Y-57377519D01*
X122889441Y-57377519D02*
X122966851Y-57416224D01*
X122966851Y-57416224D02*
X123044260Y-57416224D01*
X123044260Y-57416224D02*
X123121670Y-57029177D01*
X123392603Y-57764567D02*
X122850737Y-57764567D01*
X123005556Y-57764567D02*
X122928146Y-57803272D01*
X122928146Y-57803272D02*
X122889441Y-57841977D01*
X122889441Y-57841977D02*
X122850737Y-57919386D01*
X122850737Y-57919386D02*
X122850737Y-57996796D01*
X122850737Y-58190320D02*
X123392603Y-58383844D01*
X123392603Y-58383844D02*
X122850737Y-58577367D01*
X123392603Y-59003120D02*
X123353899Y-58925710D01*
X123353899Y-58925710D02*
X123315194Y-58887005D01*
X123315194Y-58887005D02*
X123237784Y-58848301D01*
X123237784Y-58848301D02*
X123005556Y-58848301D01*
X123005556Y-58848301D02*
X122928146Y-58887005D01*
X122928146Y-58887005D02*
X122889441Y-58925710D01*
X122889441Y-58925710D02*
X122850737Y-59003120D01*
X122850737Y-59003120D02*
X122850737Y-59119234D01*
X122850737Y-59119234D02*
X122889441Y-59196643D01*
X122889441Y-59196643D02*
X122928146Y-59235348D01*
X122928146Y-59235348D02*
X123005556Y-59274053D01*
X123005556Y-59274053D02*
X123237784Y-59274053D01*
X123237784Y-59274053D02*
X123315194Y-59235348D01*
X123315194Y-59235348D02*
X123353899Y-59196643D01*
X123353899Y-59196643D02*
X123392603Y-59119234D01*
X123392603Y-59119234D02*
X123392603Y-59003120D01*
X123392603Y-60667424D02*
X123392603Y-60202967D01*
X123392603Y-60435195D02*
X122579803Y-60435195D01*
X122579803Y-60435195D02*
X122695918Y-60357786D01*
X122695918Y-60357786D02*
X122773327Y-60280376D01*
X122773327Y-60280376D02*
X122812032Y-60202967D01*
X138306213Y-49192603D02*
X138306213Y-48379803D01*
X138306213Y-48379803D02*
X137996575Y-48379803D01*
X137996575Y-48379803D02*
X137919165Y-48418508D01*
X137919165Y-48418508D02*
X137880460Y-48457213D01*
X137880460Y-48457213D02*
X137841756Y-48534622D01*
X137841756Y-48534622D02*
X137841756Y-48650737D01*
X137841756Y-48650737D02*
X137880460Y-48728146D01*
X137880460Y-48728146D02*
X137919165Y-48766851D01*
X137919165Y-48766851D02*
X137996575Y-48805556D01*
X137996575Y-48805556D02*
X138306213Y-48805556D01*
X137377298Y-49192603D02*
X137454708Y-49153899D01*
X137454708Y-49153899D02*
X137493413Y-49115194D01*
X137493413Y-49115194D02*
X137532117Y-49037784D01*
X137532117Y-49037784D02*
X137532117Y-48805556D01*
X137532117Y-48805556D02*
X137493413Y-48728146D01*
X137493413Y-48728146D02*
X137454708Y-48689441D01*
X137454708Y-48689441D02*
X137377298Y-48650737D01*
X137377298Y-48650737D02*
X137261184Y-48650737D01*
X137261184Y-48650737D02*
X137183775Y-48689441D01*
X137183775Y-48689441D02*
X137145070Y-48728146D01*
X137145070Y-48728146D02*
X137106365Y-48805556D01*
X137106365Y-48805556D02*
X137106365Y-49037784D01*
X137106365Y-49037784D02*
X137145070Y-49115194D01*
X137145070Y-49115194D02*
X137183775Y-49153899D01*
X137183775Y-49153899D02*
X137261184Y-49192603D01*
X137261184Y-49192603D02*
X137377298Y-49192603D01*
X136835432Y-48650737D02*
X136680613Y-49192603D01*
X136680613Y-49192603D02*
X136525794Y-48805556D01*
X136525794Y-48805556D02*
X136370975Y-49192603D01*
X136370975Y-49192603D02*
X136216156Y-48650737D01*
X135596880Y-49153899D02*
X135674289Y-49192603D01*
X135674289Y-49192603D02*
X135829108Y-49192603D01*
X135829108Y-49192603D02*
X135906518Y-49153899D01*
X135906518Y-49153899D02*
X135945222Y-49076489D01*
X135945222Y-49076489D02*
X135945222Y-48766851D01*
X135945222Y-48766851D02*
X135906518Y-48689441D01*
X135906518Y-48689441D02*
X135829108Y-48650737D01*
X135829108Y-48650737D02*
X135674289Y-48650737D01*
X135674289Y-48650737D02*
X135596880Y-48689441D01*
X135596880Y-48689441D02*
X135558175Y-48766851D01*
X135558175Y-48766851D02*
X135558175Y-48844260D01*
X135558175Y-48844260D02*
X135945222Y-48921670D01*
X135209832Y-49192603D02*
X135209832Y-48650737D01*
X135209832Y-48805556D02*
X135171127Y-48728146D01*
X135171127Y-48728146D02*
X135132422Y-48689441D01*
X135132422Y-48689441D02*
X135055013Y-48650737D01*
X135055013Y-48650737D02*
X134977603Y-48650737D01*
X134126098Y-49153899D02*
X134009984Y-49192603D01*
X134009984Y-49192603D02*
X133816460Y-49192603D01*
X133816460Y-49192603D02*
X133739051Y-49153899D01*
X133739051Y-49153899D02*
X133700346Y-49115194D01*
X133700346Y-49115194D02*
X133661641Y-49037784D01*
X133661641Y-49037784D02*
X133661641Y-48960375D01*
X133661641Y-48960375D02*
X133700346Y-48882965D01*
X133700346Y-48882965D02*
X133739051Y-48844260D01*
X133739051Y-48844260D02*
X133816460Y-48805556D01*
X133816460Y-48805556D02*
X133971279Y-48766851D01*
X133971279Y-48766851D02*
X134048689Y-48728146D01*
X134048689Y-48728146D02*
X134087394Y-48689441D01*
X134087394Y-48689441D02*
X134126098Y-48612032D01*
X134126098Y-48612032D02*
X134126098Y-48534622D01*
X134126098Y-48534622D02*
X134087394Y-48457213D01*
X134087394Y-48457213D02*
X134048689Y-48418508D01*
X134048689Y-48418508D02*
X133971279Y-48379803D01*
X133971279Y-48379803D02*
X133777756Y-48379803D01*
X133777756Y-48379803D02*
X133661641Y-48418508D01*
X133003661Y-49153899D02*
X133081070Y-49192603D01*
X133081070Y-49192603D02*
X133235889Y-49192603D01*
X133235889Y-49192603D02*
X133313299Y-49153899D01*
X133313299Y-49153899D02*
X133352003Y-49076489D01*
X133352003Y-49076489D02*
X133352003Y-48766851D01*
X133352003Y-48766851D02*
X133313299Y-48689441D01*
X133313299Y-48689441D02*
X133235889Y-48650737D01*
X133235889Y-48650737D02*
X133081070Y-48650737D01*
X133081070Y-48650737D02*
X133003661Y-48689441D01*
X133003661Y-48689441D02*
X132964956Y-48766851D01*
X132964956Y-48766851D02*
X132964956Y-48844260D01*
X132964956Y-48844260D02*
X133352003Y-48921670D01*
X132616613Y-49192603D02*
X132616613Y-48650737D01*
X132616613Y-48805556D02*
X132577908Y-48728146D01*
X132577908Y-48728146D02*
X132539203Y-48689441D01*
X132539203Y-48689441D02*
X132461794Y-48650737D01*
X132461794Y-48650737D02*
X132384384Y-48650737D01*
X132190860Y-48650737D02*
X131997336Y-49192603D01*
X131997336Y-49192603D02*
X131803813Y-48650737D01*
X131378060Y-49192603D02*
X131455470Y-49153899D01*
X131455470Y-49153899D02*
X131494175Y-49115194D01*
X131494175Y-49115194D02*
X131532879Y-49037784D01*
X131532879Y-49037784D02*
X131532879Y-48805556D01*
X131532879Y-48805556D02*
X131494175Y-48728146D01*
X131494175Y-48728146D02*
X131455470Y-48689441D01*
X131455470Y-48689441D02*
X131378060Y-48650737D01*
X131378060Y-48650737D02*
X131261946Y-48650737D01*
X131261946Y-48650737D02*
X131184537Y-48689441D01*
X131184537Y-48689441D02*
X131145832Y-48728146D01*
X131145832Y-48728146D02*
X131107127Y-48805556D01*
X131107127Y-48805556D02*
X131107127Y-49037784D01*
X131107127Y-49037784D02*
X131145832Y-49115194D01*
X131145832Y-49115194D02*
X131184537Y-49153899D01*
X131184537Y-49153899D02*
X131261946Y-49192603D01*
X131261946Y-49192603D02*
X131378060Y-49192603D01*
X148706213Y-49892603D02*
X148706213Y-49079803D01*
X148706213Y-49079803D02*
X148396575Y-49079803D01*
X148396575Y-49079803D02*
X148319165Y-49118508D01*
X148319165Y-49118508D02*
X148280460Y-49157213D01*
X148280460Y-49157213D02*
X148241756Y-49234622D01*
X148241756Y-49234622D02*
X148241756Y-49350737D01*
X148241756Y-49350737D02*
X148280460Y-49428146D01*
X148280460Y-49428146D02*
X148319165Y-49466851D01*
X148319165Y-49466851D02*
X148396575Y-49505556D01*
X148396575Y-49505556D02*
X148706213Y-49505556D01*
X147893413Y-49892603D02*
X147893413Y-49350737D01*
X147893413Y-49505556D02*
X147854708Y-49428146D01*
X147854708Y-49428146D02*
X147816003Y-49389441D01*
X147816003Y-49389441D02*
X147738594Y-49350737D01*
X147738594Y-49350737D02*
X147661184Y-49350737D01*
X147274136Y-49892603D02*
X147351546Y-49853899D01*
X147351546Y-49853899D02*
X147390251Y-49815194D01*
X147390251Y-49815194D02*
X147428955Y-49737784D01*
X147428955Y-49737784D02*
X147428955Y-49505556D01*
X147428955Y-49505556D02*
X147390251Y-49428146D01*
X147390251Y-49428146D02*
X147351546Y-49389441D01*
X147351546Y-49389441D02*
X147274136Y-49350737D01*
X147274136Y-49350737D02*
X147158022Y-49350737D01*
X147158022Y-49350737D02*
X147080613Y-49389441D01*
X147080613Y-49389441D02*
X147041908Y-49428146D01*
X147041908Y-49428146D02*
X147003203Y-49505556D01*
X147003203Y-49505556D02*
X147003203Y-49737784D01*
X147003203Y-49737784D02*
X147041908Y-49815194D01*
X147041908Y-49815194D02*
X147080613Y-49853899D01*
X147080613Y-49853899D02*
X147158022Y-49892603D01*
X147158022Y-49892603D02*
X147274136Y-49892603D01*
X146306518Y-49350737D02*
X146306518Y-50008718D01*
X146306518Y-50008718D02*
X146345223Y-50086127D01*
X146345223Y-50086127D02*
X146383927Y-50124832D01*
X146383927Y-50124832D02*
X146461337Y-50163537D01*
X146461337Y-50163537D02*
X146577451Y-50163537D01*
X146577451Y-50163537D02*
X146654861Y-50124832D01*
X146306518Y-49853899D02*
X146383927Y-49892603D01*
X146383927Y-49892603D02*
X146538746Y-49892603D01*
X146538746Y-49892603D02*
X146616156Y-49853899D01*
X146616156Y-49853899D02*
X146654861Y-49815194D01*
X146654861Y-49815194D02*
X146693565Y-49737784D01*
X146693565Y-49737784D02*
X146693565Y-49505556D01*
X146693565Y-49505556D02*
X146654861Y-49428146D01*
X146654861Y-49428146D02*
X146616156Y-49389441D01*
X146616156Y-49389441D02*
X146538746Y-49350737D01*
X146538746Y-49350737D02*
X146383927Y-49350737D01*
X146383927Y-49350737D02*
X146306518Y-49389441D01*
X145919471Y-49892603D02*
X145919471Y-49350737D01*
X145919471Y-49505556D02*
X145880766Y-49428146D01*
X145880766Y-49428146D02*
X145842061Y-49389441D01*
X145842061Y-49389441D02*
X145764652Y-49350737D01*
X145764652Y-49350737D02*
X145687242Y-49350737D01*
X145067966Y-49892603D02*
X145067966Y-49466851D01*
X145067966Y-49466851D02*
X145106671Y-49389441D01*
X145106671Y-49389441D02*
X145184080Y-49350737D01*
X145184080Y-49350737D02*
X145338899Y-49350737D01*
X145338899Y-49350737D02*
X145416309Y-49389441D01*
X145067966Y-49853899D02*
X145145375Y-49892603D01*
X145145375Y-49892603D02*
X145338899Y-49892603D01*
X145338899Y-49892603D02*
X145416309Y-49853899D01*
X145416309Y-49853899D02*
X145455013Y-49776489D01*
X145455013Y-49776489D02*
X145455013Y-49699079D01*
X145455013Y-49699079D02*
X145416309Y-49621670D01*
X145416309Y-49621670D02*
X145338899Y-49582965D01*
X145338899Y-49582965D02*
X145145375Y-49582965D01*
X145145375Y-49582965D02*
X145067966Y-49544260D01*
X144680919Y-49892603D02*
X144680919Y-49350737D01*
X144680919Y-49428146D02*
X144642214Y-49389441D01*
X144642214Y-49389441D02*
X144564804Y-49350737D01*
X144564804Y-49350737D02*
X144448690Y-49350737D01*
X144448690Y-49350737D02*
X144371281Y-49389441D01*
X144371281Y-49389441D02*
X144332576Y-49466851D01*
X144332576Y-49466851D02*
X144332576Y-49892603D01*
X144332576Y-49466851D02*
X144293871Y-49389441D01*
X144293871Y-49389441D02*
X144216462Y-49350737D01*
X144216462Y-49350737D02*
X144100347Y-49350737D01*
X144100347Y-49350737D02*
X144022938Y-49389441D01*
X144022938Y-49389441D02*
X143984233Y-49466851D01*
X143984233Y-49466851D02*
X143984233Y-49892603D01*
X143597186Y-49892603D02*
X143597186Y-49350737D01*
X143597186Y-49428146D02*
X143558481Y-49389441D01*
X143558481Y-49389441D02*
X143481071Y-49350737D01*
X143481071Y-49350737D02*
X143364957Y-49350737D01*
X143364957Y-49350737D02*
X143287548Y-49389441D01*
X143287548Y-49389441D02*
X143248843Y-49466851D01*
X143248843Y-49466851D02*
X143248843Y-49892603D01*
X143248843Y-49466851D02*
X143210138Y-49389441D01*
X143210138Y-49389441D02*
X143132729Y-49350737D01*
X143132729Y-49350737D02*
X143016614Y-49350737D01*
X143016614Y-49350737D02*
X142939205Y-49389441D01*
X142939205Y-49389441D02*
X142900500Y-49466851D01*
X142900500Y-49466851D02*
X142900500Y-49892603D01*
X142513453Y-49892603D02*
X142513453Y-49350737D01*
X142513453Y-49079803D02*
X142552157Y-49118508D01*
X142552157Y-49118508D02*
X142513453Y-49157213D01*
X142513453Y-49157213D02*
X142474748Y-49118508D01*
X142474748Y-49118508D02*
X142513453Y-49079803D01*
X142513453Y-49079803D02*
X142513453Y-49157213D01*
X142126405Y-49350737D02*
X142126405Y-49892603D01*
X142126405Y-49428146D02*
X142087700Y-49389441D01*
X142087700Y-49389441D02*
X142010290Y-49350737D01*
X142010290Y-49350737D02*
X141894176Y-49350737D01*
X141894176Y-49350737D02*
X141816767Y-49389441D01*
X141816767Y-49389441D02*
X141778062Y-49466851D01*
X141778062Y-49466851D02*
X141778062Y-49892603D01*
X141042672Y-49350737D02*
X141042672Y-50008718D01*
X141042672Y-50008718D02*
X141081377Y-50086127D01*
X141081377Y-50086127D02*
X141120081Y-50124832D01*
X141120081Y-50124832D02*
X141197491Y-50163537D01*
X141197491Y-50163537D02*
X141313605Y-50163537D01*
X141313605Y-50163537D02*
X141391015Y-50124832D01*
X141042672Y-49853899D02*
X141120081Y-49892603D01*
X141120081Y-49892603D02*
X141274900Y-49892603D01*
X141274900Y-49892603D02*
X141352310Y-49853899D01*
X141352310Y-49853899D02*
X141391015Y-49815194D01*
X141391015Y-49815194D02*
X141429719Y-49737784D01*
X141429719Y-49737784D02*
X141429719Y-49505556D01*
X141429719Y-49505556D02*
X141391015Y-49428146D01*
X141391015Y-49428146D02*
X141352310Y-49389441D01*
X141352310Y-49389441D02*
X141274900Y-49350737D01*
X141274900Y-49350737D02*
X141120081Y-49350737D01*
X141120081Y-49350737D02*
X141042672Y-49389441D01*
D11*
X146860652Y-58734438D02*
X146860652Y-56734438D01*
X146860652Y-56734438D02*
X146193985Y-58163009D01*
X146193985Y-58163009D02*
X145527319Y-56734438D01*
X145527319Y-56734438D02*
X145527319Y-58734438D01*
X144574938Y-58734438D02*
X144574938Y-56734438D01*
X144574938Y-56734438D02*
X143813033Y-56734438D01*
X143813033Y-56734438D02*
X143622557Y-56829676D01*
X143622557Y-56829676D02*
X143527319Y-56924914D01*
X143527319Y-56924914D02*
X143432081Y-57115390D01*
X143432081Y-57115390D02*
X143432081Y-57401104D01*
X143432081Y-57401104D02*
X143527319Y-57591580D01*
X143527319Y-57591580D02*
X143622557Y-57686819D01*
X143622557Y-57686819D02*
X143813033Y-57782057D01*
X143813033Y-57782057D02*
X144574938Y-57782057D01*
X141432081Y-58543961D02*
X141527319Y-58639200D01*
X141527319Y-58639200D02*
X141813033Y-58734438D01*
X141813033Y-58734438D02*
X142003509Y-58734438D01*
X142003509Y-58734438D02*
X142289224Y-58639200D01*
X142289224Y-58639200D02*
X142479700Y-58448723D01*
X142479700Y-58448723D02*
X142574938Y-58258247D01*
X142574938Y-58258247D02*
X142670176Y-57877295D01*
X142670176Y-57877295D02*
X142670176Y-57591580D01*
X142670176Y-57591580D02*
X142574938Y-57210628D01*
X142574938Y-57210628D02*
X142479700Y-57020152D01*
X142479700Y-57020152D02*
X142289224Y-56829676D01*
X142289224Y-56829676D02*
X142003509Y-56734438D01*
X142003509Y-56734438D02*
X141813033Y-56734438D01*
X141813033Y-56734438D02*
X141527319Y-56829676D01*
X141527319Y-56829676D02*
X141432081Y-56924914D01*
X141051129Y-58924914D02*
X139527319Y-58924914D01*
X139146366Y-58639200D02*
X138860652Y-58734438D01*
X138860652Y-58734438D02*
X138384461Y-58734438D01*
X138384461Y-58734438D02*
X138193985Y-58639200D01*
X138193985Y-58639200D02*
X138098747Y-58543961D01*
X138098747Y-58543961D02*
X138003509Y-58353485D01*
X138003509Y-58353485D02*
X138003509Y-58163009D01*
X138003509Y-58163009D02*
X138098747Y-57972533D01*
X138098747Y-57972533D02*
X138193985Y-57877295D01*
X138193985Y-57877295D02*
X138384461Y-57782057D01*
X138384461Y-57782057D02*
X138765414Y-57686819D01*
X138765414Y-57686819D02*
X138955890Y-57591580D01*
X138955890Y-57591580D02*
X139051128Y-57496342D01*
X139051128Y-57496342D02*
X139146366Y-57305866D01*
X139146366Y-57305866D02*
X139146366Y-57115390D01*
X139146366Y-57115390D02*
X139051128Y-56924914D01*
X139051128Y-56924914D02*
X138955890Y-56829676D01*
X138955890Y-56829676D02*
X138765414Y-56734438D01*
X138765414Y-56734438D02*
X138289223Y-56734438D01*
X138289223Y-56734438D02*
X138003509Y-56829676D01*
X136384461Y-58639200D02*
X136574937Y-58734438D01*
X136574937Y-58734438D02*
X136955890Y-58734438D01*
X136955890Y-58734438D02*
X137146366Y-58639200D01*
X137146366Y-58639200D02*
X137241604Y-58448723D01*
X137241604Y-58448723D02*
X137241604Y-57686819D01*
X137241604Y-57686819D02*
X137146366Y-57496342D01*
X137146366Y-57496342D02*
X136955890Y-57401104D01*
X136955890Y-57401104D02*
X136574937Y-57401104D01*
X136574937Y-57401104D02*
X136384461Y-57496342D01*
X136384461Y-57496342D02*
X136289223Y-57686819D01*
X136289223Y-57686819D02*
X136289223Y-57877295D01*
X136289223Y-57877295D02*
X137241604Y-58067771D01*
X135432080Y-58734438D02*
X135432080Y-57401104D01*
X135432080Y-57782057D02*
X135336842Y-57591580D01*
X135336842Y-57591580D02*
X135241604Y-57496342D01*
X135241604Y-57496342D02*
X135051128Y-57401104D01*
X135051128Y-57401104D02*
X134860651Y-57401104D01*
X134384461Y-57401104D02*
X133908271Y-58734438D01*
X133908271Y-58734438D02*
X133432080Y-57401104D01*
X132384461Y-58734438D02*
X132574937Y-58639200D01*
X132574937Y-58639200D02*
X132670175Y-58543961D01*
X132670175Y-58543961D02*
X132765413Y-58353485D01*
X132765413Y-58353485D02*
X132765413Y-57782057D01*
X132765413Y-57782057D02*
X132670175Y-57591580D01*
X132670175Y-57591580D02*
X132574937Y-57496342D01*
X132574937Y-57496342D02*
X132384461Y-57401104D01*
X132384461Y-57401104D02*
X132098746Y-57401104D01*
X132098746Y-57401104D02*
X131908270Y-57496342D01*
X131908270Y-57496342D02*
X131813032Y-57591580D01*
X131813032Y-57591580D02*
X131717794Y-57782057D01*
X131717794Y-57782057D02*
X131717794Y-58353485D01*
X131717794Y-58353485D02*
X131813032Y-58543961D01*
X131813032Y-58543961D02*
X131908270Y-58639200D01*
X131908270Y-58639200D02*
X132098746Y-58734438D01*
X132098746Y-58734438D02*
X132384461Y-58734438D01*
D10*
X141206213Y-72892603D02*
X141206213Y-72079803D01*
X140857869Y-72157213D02*
X140819165Y-72118508D01*
X140819165Y-72118508D02*
X140741755Y-72079803D01*
X140741755Y-72079803D02*
X140548231Y-72079803D01*
X140548231Y-72079803D02*
X140470822Y-72118508D01*
X140470822Y-72118508D02*
X140432117Y-72157213D01*
X140432117Y-72157213D02*
X140393412Y-72234622D01*
X140393412Y-72234622D02*
X140393412Y-72312032D01*
X140393412Y-72312032D02*
X140432117Y-72428146D01*
X140432117Y-72428146D02*
X140896574Y-72892603D01*
X140896574Y-72892603D02*
X140393412Y-72892603D01*
X139580613Y-72815194D02*
X139619317Y-72853899D01*
X139619317Y-72853899D02*
X139735432Y-72892603D01*
X139735432Y-72892603D02*
X139812841Y-72892603D01*
X139812841Y-72892603D02*
X139928955Y-72853899D01*
X139928955Y-72853899D02*
X140006365Y-72776489D01*
X140006365Y-72776489D02*
X140045070Y-72699079D01*
X140045070Y-72699079D02*
X140083774Y-72544260D01*
X140083774Y-72544260D02*
X140083774Y-72428146D01*
X140083774Y-72428146D02*
X140045070Y-72273327D01*
X140045070Y-72273327D02*
X140006365Y-72195918D01*
X140006365Y-72195918D02*
X139928955Y-72118508D01*
X139928955Y-72118508D02*
X139812841Y-72079803D01*
X139812841Y-72079803D02*
X139735432Y-72079803D01*
X139735432Y-72079803D02*
X139619317Y-72118508D01*
X139619317Y-72118508D02*
X139580613Y-72157213D01*
M02*
