%TF.GenerationSoftware,KiCad,Pcbnew,9.0.7*%
%TF.CreationDate,2026-03-16T10:33:34+01:00*%
%TF.ProjectId,MPC_Servo,4d50435f-5365-4727-966f-2e6b69636164,rev?*%
%TF.SameCoordinates,Original*%
%TF.FileFunction,Copper,L2,Bot*%
%TF.FilePolarity,Positive*%
%FSLAX46Y46*%
G04 Gerber Fmt 4.6, Leading zero omitted, Abs format (unit mm)*
G04 Created by KiCad (PCBNEW 9.0.7) date 2026-03-16 10:33:34*
%MOMM*%
%LPD*%
G01*
G04 APERTURE LIST*
G04 Aperture macros list*
%AMRoundRect*
0 Rectangle with rounded corners*
0 $1 Rounding radius*
0 $2 $3 $4 $5 $6 $7 $8 $9 X,Y pos of 4 corners*
0 Add a 4 corners polygon primitive as box body*
4,1,4,$2,$3,$4,$5,$6,$7,$8,$9,$2,$3,0*
0 Add four circle primitives for the rounded corners*
1,1,$1+$1,$2,$3*
1,1,$1+$1,$4,$5*
1,1,$1+$1,$6,$7*
1,1,$1+$1,$8,$9*
0 Add four rect primitives between the rounded corners*
20,1,$1+$1,$2,$3,$4,$5,0*
20,1,$1+$1,$4,$5,$6,$7,0*
20,1,$1+$1,$6,$7,$8,$9,0*
20,1,$1+$1,$8,$9,$2,$3,0*%
G04 Aperture macros list end*
%TA.AperFunction,ComponentPad*%
%ADD10C,5.600000*%
%TD*%
%TA.AperFunction,ComponentPad*%
%ADD11R,1.700000X1.700000*%
%TD*%
%TA.AperFunction,ComponentPad*%
%ADD12C,1.700000*%
%TD*%
%TA.AperFunction,ComponentPad*%
%ADD13RoundRect,0.250000X-0.625000X0.350000X-0.625000X-0.350000X0.625000X-0.350000X0.625000X0.350000X0*%
%TD*%
%TA.AperFunction,ComponentPad*%
%ADD14O,1.750000X1.200000*%
%TD*%
%TA.AperFunction,ComponentPad*%
%ADD15RoundRect,0.250000X-0.600000X-0.725000X0.600000X-0.725000X0.600000X0.725000X-0.600000X0.725000X0*%
%TD*%
%TA.AperFunction,ComponentPad*%
%ADD16O,1.700000X1.950000*%
%TD*%
%TA.AperFunction,ComponentPad*%
%ADD17RoundRect,0.250000X0.625000X-0.350000X0.625000X0.350000X-0.625000X0.350000X-0.625000X-0.350000X0*%
%TD*%
%TA.AperFunction,ViaPad*%
%ADD18C,0.800000*%
%TD*%
%TA.AperFunction,Conductor*%
%ADD19C,0.500000*%
%TD*%
G04 APERTURE END LIST*
D10*
%TO.P,H2,1,1*%
%TO.N,GND*%
X127000000Y-52000000D03*
%TD*%
D11*
%TO.P,J1,1,Pin_1*%
%TO.N,GND*%
X141190000Y-52000000D03*
D12*
%TO.P,J1,2,Pin_2*%
%TO.N,unconnected-(J1-Pin_2-Pad2)*%
X143730000Y-52000000D03*
%TO.P,J1,3,Pin_3*%
%TO.N,Programmierpin*%
X146270000Y-52000000D03*
%TO.P,J1,4,Pin_4*%
%TO.N,+5V*%
X148810000Y-52000000D03*
%TD*%
D13*
%TO.P,J5,1,Pin_1*%
%TO.N,Net-(J5-Pin_1)*%
X127000000Y-67000000D03*
D14*
%TO.P,J5,2,Pin_2*%
%TO.N,VCC*%
X127000000Y-69000000D03*
%TO.P,J5,3,Pin_3*%
%TO.N,GND*%
X127000000Y-71000000D03*
%TD*%
D11*
%TO.P,J3,1,Pin_1*%
%TO.N,GND*%
X150000000Y-58000000D03*
D12*
%TO.P,J3,2,Pin_2*%
%TO.N,Reset*%
X150000000Y-60540000D03*
%TD*%
D11*
%TO.P,J6,1,Pin_1*%
%TO.N,GND*%
X136000000Y-52000000D03*
D12*
%TO.P,J6,2,Pin_2*%
%TO.N,Net-(J6-Pin_2)*%
X133460000Y-52000000D03*
%TD*%
D10*
%TO.P,H1,1,1*%
%TO.N,GND*%
X152000000Y-70000000D03*
%TD*%
D15*
%TO.P,J2,1,Pin_1*%
%TO.N,GND*%
X136500000Y-70000000D03*
D16*
%TO.P,J2,2,Pin_2*%
%TO.N,I2C_SDA*%
X139000000Y-70000000D03*
%TO.P,J2,3,Pin_3*%
%TO.N,I2C_SCL*%
X141500000Y-70000000D03*
%TO.P,J2,4,Pin_4*%
%TO.N,+5V*%
X144000000Y-70000000D03*
%TD*%
D17*
%TO.P,J4,1,Pin_1*%
%TO.N,Net-(J4-Pin_1)*%
X126000000Y-62000000D03*
D14*
%TO.P,J4,2,Pin_2*%
%TO.N,VCC*%
X126000000Y-60000000D03*
%TO.P,J4,3,Pin_3*%
%TO.N,GND*%
X126000000Y-58000000D03*
%TD*%
D18*
%TO.N,GND*%
X139000000Y-67000000D03*
%TO.N,+5V*%
X138000000Y-56000000D03*
%TD*%
D19*
%TO.N,+5V*%
X144000000Y-56810000D02*
X148810000Y-52000000D01*
X144000000Y-70000000D02*
X144000000Y-56810000D01*
X144000000Y-56810000D02*
X138810000Y-56810000D01*
X138810000Y-56810000D02*
X138000000Y-56000000D01*
%TD*%
%TA.AperFunction,Conductor*%
%TO.N,GND*%
G36*
X154004043Y-49200765D02*
G01*
X154226790Y-49215364D01*
X154242848Y-49217479D01*
X154428875Y-49254482D01*
X154457771Y-49260230D01*
X154473438Y-49264428D01*
X154626569Y-49316409D01*
X154680944Y-49334867D01*
X154695921Y-49341070D01*
X154886791Y-49435196D01*
X154892460Y-49437992D01*
X154906508Y-49446102D01*
X155088712Y-49567848D01*
X155101573Y-49577716D01*
X155206495Y-49669730D01*
X155266328Y-49722202D01*
X155277797Y-49733671D01*
X155388160Y-49859517D01*
X155422280Y-49898423D01*
X155432154Y-49911291D01*
X155553897Y-50093492D01*
X155562007Y-50107539D01*
X155658926Y-50304071D01*
X155665133Y-50319057D01*
X155735571Y-50526561D01*
X155739769Y-50542228D01*
X155782518Y-50757140D01*
X155784636Y-50773221D01*
X155790776Y-50866894D01*
X155797526Y-50969890D01*
X155799235Y-50995956D01*
X155799500Y-51004066D01*
X155799500Y-71995933D01*
X155799235Y-72004043D01*
X155784636Y-72226778D01*
X155782518Y-72242859D01*
X155739769Y-72457771D01*
X155735571Y-72473438D01*
X155665133Y-72680942D01*
X155658926Y-72695928D01*
X155562007Y-72892460D01*
X155553897Y-72906507D01*
X155432154Y-73088708D01*
X155422280Y-73101576D01*
X155277797Y-73266328D01*
X155266328Y-73277797D01*
X155101576Y-73422280D01*
X155088708Y-73432154D01*
X154906507Y-73553897D01*
X154892460Y-73562007D01*
X154695928Y-73658926D01*
X154680942Y-73665133D01*
X154473438Y-73735571D01*
X154457771Y-73739769D01*
X154242859Y-73782518D01*
X154226778Y-73784636D01*
X154004043Y-73799235D01*
X153995933Y-73799500D01*
X123004067Y-73799500D01*
X122995957Y-73799235D01*
X122773221Y-73784636D01*
X122757140Y-73782518D01*
X122542228Y-73739769D01*
X122526561Y-73735571D01*
X122319057Y-73665133D01*
X122304071Y-73658926D01*
X122107539Y-73562007D01*
X122093492Y-73553897D01*
X121911291Y-73432154D01*
X121898423Y-73422280D01*
X121733671Y-73277797D01*
X121722202Y-73266328D01*
X121669730Y-73206495D01*
X121577716Y-73101573D01*
X121567845Y-73088708D01*
X121446102Y-72906507D01*
X121437992Y-72892460D01*
X121435196Y-72886791D01*
X121341070Y-72695921D01*
X121334866Y-72680942D01*
X121264428Y-72473438D01*
X121260230Y-72457771D01*
X121248217Y-72397376D01*
X121217479Y-72242848D01*
X121215364Y-72226790D01*
X121200765Y-72004043D01*
X121200500Y-71995933D01*
X121200500Y-66599983D01*
X125624500Y-66599983D01*
X125624500Y-67400001D01*
X125624501Y-67400019D01*
X125635000Y-67502796D01*
X125635001Y-67502799D01*
X125690185Y-67669331D01*
X125690186Y-67669334D01*
X125782288Y-67818656D01*
X125906344Y-67942712D01*
X125970543Y-67982310D01*
X126017268Y-68034258D01*
X126028489Y-68103221D01*
X126000646Y-68167303D01*
X125993128Y-68175530D01*
X125885585Y-68283073D01*
X125783768Y-68423211D01*
X125705128Y-68577552D01*
X125651597Y-68742302D01*
X125624500Y-68913389D01*
X125624500Y-69086610D01*
X125646420Y-69225013D01*
X125651598Y-69257701D01*
X125705127Y-69422445D01*
X125783768Y-69576788D01*
X125885586Y-69716928D01*
X126008072Y-69839414D01*
X126091449Y-69899991D01*
X126134114Y-69955322D01*
X126140093Y-70024935D01*
X126107487Y-70086730D01*
X126091448Y-70100627D01*
X126008404Y-70160961D01*
X126008399Y-70160965D01*
X125885967Y-70283397D01*
X125784195Y-70423475D01*
X125705591Y-70577744D01*
X125652085Y-70742415D01*
X125650884Y-70749999D01*
X125650885Y-70750000D01*
X126719670Y-70750000D01*
X126699925Y-70769745D01*
X126650556Y-70855255D01*
X126625000Y-70950630D01*
X126625000Y-71049370D01*
X126650556Y-71144745D01*
X126699925Y-71230255D01*
X126719670Y-71250000D01*
X125650885Y-71250000D01*
X125652085Y-71257584D01*
X125705591Y-71422255D01*
X125784195Y-71576524D01*
X125885967Y-71716602D01*
X126008397Y-71839032D01*
X126148475Y-71940804D01*
X126302742Y-72019408D01*
X126467415Y-72072914D01*
X126638429Y-72100000D01*
X126750000Y-72100000D01*
X126750000Y-71280330D01*
X126769745Y-71300075D01*
X126855255Y-71349444D01*
X126950630Y-71375000D01*
X127049370Y-71375000D01*
X127144745Y-71349444D01*
X127230255Y-71300075D01*
X127250000Y-71280330D01*
X127250000Y-72100000D01*
X127361571Y-72100000D01*
X127532584Y-72072914D01*
X127697257Y-72019408D01*
X127851524Y-71940804D01*
X127991602Y-71839032D01*
X128114032Y-71716602D01*
X128215804Y-71576524D01*
X128294408Y-71422255D01*
X128347914Y-71257584D01*
X128349115Y-71250000D01*
X127280330Y-71250000D01*
X127300075Y-71230255D01*
X127349444Y-71144745D01*
X127375000Y-71049370D01*
X127375000Y-70950630D01*
X127349444Y-70855255D01*
X127300075Y-70769745D01*
X127280330Y-70750000D01*
X128349115Y-70750000D01*
X128349115Y-70749999D01*
X128347914Y-70742415D01*
X128294408Y-70577744D01*
X128215804Y-70423475D01*
X128114032Y-70283397D01*
X127991602Y-70160967D01*
X127908551Y-70100628D01*
X127865885Y-70045298D01*
X127859906Y-69975685D01*
X127892511Y-69913889D01*
X127908551Y-69899991D01*
X127991928Y-69839414D01*
X128114414Y-69716928D01*
X128216232Y-69576788D01*
X128294873Y-69422445D01*
X128348402Y-69257701D01*
X128353579Y-69225013D01*
X135150000Y-69225013D01*
X135150000Y-69750000D01*
X136095854Y-69750000D01*
X136057370Y-69816657D01*
X136025000Y-69937465D01*
X136025000Y-70062535D01*
X136057370Y-70183343D01*
X136095854Y-70250000D01*
X135150001Y-70250000D01*
X135150001Y-70774986D01*
X135160494Y-70877697D01*
X135215641Y-71044119D01*
X135215643Y-71044124D01*
X135307684Y-71193345D01*
X135431654Y-71317315D01*
X135580875Y-71409356D01*
X135580880Y-71409358D01*
X135747302Y-71464505D01*
X135747309Y-71464506D01*
X135850019Y-71474999D01*
X136249999Y-71474999D01*
X136250000Y-71474998D01*
X136250000Y-70404145D01*
X136316657Y-70442630D01*
X136437465Y-70475000D01*
X136562535Y-70475000D01*
X136683343Y-70442630D01*
X136750000Y-70404145D01*
X136750000Y-71474999D01*
X137149972Y-71474999D01*
X137149986Y-71474998D01*
X137252697Y-71464505D01*
X137419119Y-71409358D01*
X137419124Y-71409356D01*
X137568345Y-71317315D01*
X137692317Y-71193343D01*
X137787815Y-71038516D01*
X137839763Y-70991791D01*
X137908725Y-70980568D01*
X137972808Y-71008412D01*
X137981035Y-71015931D01*
X138120213Y-71155109D01*
X138292179Y-71280048D01*
X138292181Y-71280049D01*
X138292184Y-71280051D01*
X138481588Y-71376557D01*
X138683757Y-71442246D01*
X138893713Y-71475500D01*
X138893714Y-71475500D01*
X139106286Y-71475500D01*
X139106287Y-71475500D01*
X139316243Y-71442246D01*
X139518412Y-71376557D01*
X139707816Y-71280051D01*
X139776355Y-71230255D01*
X139879786Y-71155109D01*
X139879788Y-71155106D01*
X139879792Y-71155104D01*
X140030104Y-71004792D01*
X140149683Y-70840204D01*
X140205011Y-70797540D01*
X140274624Y-70791561D01*
X140336420Y-70824166D01*
X140350313Y-70840199D01*
X140452296Y-70980568D01*
X140469896Y-71004792D01*
X140620213Y-71155109D01*
X140792179Y-71280048D01*
X140792181Y-71280049D01*
X140792184Y-71280051D01*
X140981588Y-71376557D01*
X141183757Y-71442246D01*
X141393713Y-71475500D01*
X141393714Y-71475500D01*
X141606286Y-71475500D01*
X141606287Y-71475500D01*
X141816243Y-71442246D01*
X142018412Y-71376557D01*
X142207816Y-71280051D01*
X142276355Y-71230255D01*
X142379786Y-71155109D01*
X142379788Y-71155106D01*
X142379792Y-71155104D01*
X142530104Y-71004792D01*
X142649683Y-70840204D01*
X142705011Y-70797540D01*
X142774624Y-70791561D01*
X142836420Y-70824166D01*
X142850313Y-70840199D01*
X142952296Y-70980568D01*
X142969896Y-71004792D01*
X143120213Y-71155109D01*
X143292179Y-71280048D01*
X143292181Y-71280049D01*
X143292184Y-71280051D01*
X143481588Y-71376557D01*
X143683757Y-71442246D01*
X143893713Y-71475500D01*
X143893714Y-71475500D01*
X144106286Y-71475500D01*
X144106287Y-71475500D01*
X144316243Y-71442246D01*
X144518412Y-71376557D01*
X144707816Y-71280051D01*
X144776355Y-71230255D01*
X144879786Y-71155109D01*
X144879788Y-71155106D01*
X144879792Y-71155104D01*
X145030104Y-71004792D01*
X145030106Y-71004788D01*
X145030109Y-71004786D01*
X145155048Y-70832820D01*
X145155047Y-70832820D01*
X145155051Y-70832816D01*
X145251557Y-70643412D01*
X145317246Y-70441243D01*
X145350500Y-70231287D01*
X145350500Y-69768713D01*
X145317246Y-69558757D01*
X145251557Y-69356588D01*
X145155051Y-69167184D01*
X145155049Y-69167181D01*
X145155048Y-69167179D01*
X145030109Y-68995213D01*
X144879794Y-68844898D01*
X144879788Y-68844893D01*
X144801615Y-68788097D01*
X144758949Y-68732767D01*
X144750500Y-68687779D01*
X144750500Y-60433713D01*
X148649500Y-60433713D01*
X148649500Y-60646286D01*
X148680088Y-60839414D01*
X148682754Y-60856243D01*
X148748077Y-61057287D01*
X148748444Y-61058414D01*
X148844951Y-61247820D01*
X148969890Y-61419786D01*
X149120213Y-61570109D01*
X149292179Y-61695048D01*
X149292181Y-61695049D01*
X149292184Y-61695051D01*
X149481588Y-61791557D01*
X149683757Y-61857246D01*
X149893713Y-61890500D01*
X149893714Y-61890500D01*
X150106286Y-61890500D01*
X150106287Y-61890500D01*
X150316243Y-61857246D01*
X150518412Y-61791557D01*
X150707816Y-61695051D01*
X150729789Y-61679086D01*
X150879786Y-61570109D01*
X150879788Y-61570106D01*
X150879792Y-61570104D01*
X151030104Y-61419792D01*
X151030106Y-61419788D01*
X151030109Y-61419786D01*
X151155048Y-61247820D01*
X151155047Y-61247820D01*
X151155051Y-61247816D01*
X151251557Y-61058412D01*
X151317246Y-60856243D01*
X151350500Y-60646287D01*
X151350500Y-60433713D01*
X151317246Y-60223757D01*
X151251557Y-60021588D01*
X151155051Y-59832184D01*
X151155049Y-59832181D01*
X151155048Y-59832179D01*
X151030109Y-59660213D01*
X150916181Y-59546285D01*
X150882696Y-59484962D01*
X150887680Y-59415270D01*
X150929552Y-59359337D01*
X150960529Y-59342422D01*
X151092086Y-59293354D01*
X151092093Y-59293350D01*
X151207187Y-59207190D01*
X151207190Y-59207187D01*
X151293350Y-59092093D01*
X151293354Y-59092086D01*
X151343596Y-58957379D01*
X151343598Y-58957372D01*
X151349999Y-58897844D01*
X151350000Y-58897827D01*
X151350000Y-58250000D01*
X150433012Y-58250000D01*
X150465925Y-58192993D01*
X150500000Y-58065826D01*
X150500000Y-57934174D01*
X150465925Y-57807007D01*
X150433012Y-57750000D01*
X151350000Y-57750000D01*
X151350000Y-57102172D01*
X151349999Y-57102155D01*
X151343598Y-57042627D01*
X151343596Y-57042620D01*
X151293354Y-56907913D01*
X151293350Y-56907906D01*
X151207190Y-56792812D01*
X151207187Y-56792809D01*
X151092093Y-56706649D01*
X151092086Y-56706645D01*
X150957379Y-56656403D01*
X150957372Y-56656401D01*
X150897844Y-56650000D01*
X150250000Y-56650000D01*
X150250000Y-57566988D01*
X150192993Y-57534075D01*
X150065826Y-57500000D01*
X149934174Y-57500000D01*
X149807007Y-57534075D01*
X149750000Y-57566988D01*
X149750000Y-56650000D01*
X149102155Y-56650000D01*
X149042627Y-56656401D01*
X149042620Y-56656403D01*
X148907913Y-56706645D01*
X148907906Y-56706649D01*
X148792812Y-56792809D01*
X148792809Y-56792812D01*
X148706649Y-56907906D01*
X148706645Y-56907913D01*
X148656403Y-57042620D01*
X148656401Y-57042627D01*
X148650000Y-57102155D01*
X148650000Y-57750000D01*
X149566988Y-57750000D01*
X149534075Y-57807007D01*
X149500000Y-57934174D01*
X149500000Y-58065826D01*
X149534075Y-58192993D01*
X149566988Y-58250000D01*
X148650000Y-58250000D01*
X148650000Y-58897844D01*
X148656401Y-58957372D01*
X148656403Y-58957379D01*
X148706645Y-59092086D01*
X148706649Y-59092093D01*
X148792809Y-59207187D01*
X148792812Y-59207190D01*
X148907906Y-59293350D01*
X148907913Y-59293354D01*
X149039470Y-59342422D01*
X149095404Y-59384293D01*
X149119821Y-59449758D01*
X149104969Y-59518031D01*
X149083819Y-59546285D01*
X148969889Y-59660215D01*
X148844951Y-59832179D01*
X148748444Y-60021585D01*
X148682753Y-60223760D01*
X148649500Y-60433713D01*
X144750500Y-60433713D01*
X144750500Y-57172228D01*
X144759144Y-57142787D01*
X144765668Y-57112801D01*
X144769422Y-57107785D01*
X144770185Y-57105189D01*
X144786814Y-57084552D01*
X148501193Y-53370172D01*
X148562514Y-53336689D01*
X148608265Y-53335382D01*
X148703713Y-53350500D01*
X148703715Y-53350500D01*
X148916286Y-53350500D01*
X148916287Y-53350500D01*
X149126243Y-53317246D01*
X149328412Y-53251557D01*
X149517816Y-53155051D01*
X149604478Y-53092088D01*
X149689786Y-53030109D01*
X149689788Y-53030106D01*
X149689792Y-53030104D01*
X149840104Y-52879792D01*
X149840106Y-52879788D01*
X149840109Y-52879786D01*
X149965048Y-52707820D01*
X149965047Y-52707820D01*
X149965051Y-52707816D01*
X150061557Y-52518412D01*
X150127246Y-52316243D01*
X150160500Y-52106287D01*
X150160500Y-51893713D01*
X150127246Y-51683757D01*
X150061557Y-51481588D01*
X149965051Y-51292184D01*
X149965049Y-51292181D01*
X149965048Y-51292179D01*
X149840109Y-51120213D01*
X149689786Y-50969890D01*
X149517820Y-50844951D01*
X149328414Y-50748444D01*
X149328413Y-50748443D01*
X149328412Y-50748443D01*
X149126243Y-50682754D01*
X149126241Y-50682753D01*
X149126240Y-50682753D01*
X148964957Y-50657208D01*
X148916287Y-50649500D01*
X148703713Y-50649500D01*
X148655042Y-50657208D01*
X148493760Y-50682753D01*
X148291585Y-50748444D01*
X148102179Y-50844951D01*
X147930213Y-50969890D01*
X147779890Y-51120213D01*
X147654949Y-51292182D01*
X147650484Y-51300946D01*
X147602509Y-51351742D01*
X147534688Y-51368536D01*
X147468553Y-51345998D01*
X147429516Y-51300946D01*
X147425050Y-51292182D01*
X147300109Y-51120213D01*
X147149786Y-50969890D01*
X146977820Y-50844951D01*
X146788414Y-50748444D01*
X146788413Y-50748443D01*
X146788412Y-50748443D01*
X146586243Y-50682754D01*
X146586241Y-50682753D01*
X146586240Y-50682753D01*
X146424957Y-50657208D01*
X146376287Y-50649500D01*
X146163713Y-50649500D01*
X146115042Y-50657208D01*
X145953760Y-50682753D01*
X145751585Y-50748444D01*
X145562179Y-50844951D01*
X145390213Y-50969890D01*
X145239890Y-51120213D01*
X145114949Y-51292182D01*
X145110484Y-51300946D01*
X145062509Y-51351742D01*
X144994688Y-51368536D01*
X144928553Y-51345998D01*
X144889516Y-51300946D01*
X144885050Y-51292182D01*
X144760109Y-51120213D01*
X144609786Y-50969890D01*
X144437820Y-50844951D01*
X144248414Y-50748444D01*
X144248413Y-50748443D01*
X144248412Y-50748443D01*
X144046243Y-50682754D01*
X144046241Y-50682753D01*
X144046240Y-50682753D01*
X143884957Y-50657208D01*
X143836287Y-50649500D01*
X143623713Y-50649500D01*
X143575042Y-50657208D01*
X143413760Y-50682753D01*
X143211585Y-50748444D01*
X143022179Y-50844951D01*
X142850215Y-50969889D01*
X142736285Y-51083819D01*
X142674962Y-51117303D01*
X142605270Y-51112319D01*
X142549337Y-51070447D01*
X142532422Y-51039470D01*
X142483354Y-50907913D01*
X142483350Y-50907906D01*
X142397190Y-50792812D01*
X142397187Y-50792809D01*
X142282093Y-50706649D01*
X142282086Y-50706645D01*
X142147379Y-50656403D01*
X142147372Y-50656401D01*
X142087844Y-50650000D01*
X141440000Y-50650000D01*
X141440000Y-51566988D01*
X141382993Y-51534075D01*
X141255826Y-51500000D01*
X141124174Y-51500000D01*
X140997007Y-51534075D01*
X140940000Y-51566988D01*
X140940000Y-50650000D01*
X140292155Y-50650000D01*
X140232627Y-50656401D01*
X140232620Y-50656403D01*
X140097913Y-50706645D01*
X140097906Y-50706649D01*
X139982812Y-50792809D01*
X139982809Y-50792812D01*
X139896649Y-50907906D01*
X139896645Y-50907913D01*
X139846403Y-51042620D01*
X139846401Y-51042627D01*
X139840000Y-51102155D01*
X139840000Y-51750000D01*
X140756988Y-51750000D01*
X140724075Y-51807007D01*
X140690000Y-51934174D01*
X140690000Y-52065826D01*
X140724075Y-52192993D01*
X140756988Y-52250000D01*
X139840000Y-52250000D01*
X139840000Y-52897844D01*
X139846401Y-52957372D01*
X139846403Y-52957379D01*
X139896645Y-53092086D01*
X139896649Y-53092093D01*
X139982809Y-53207187D01*
X139982812Y-53207190D01*
X140097906Y-53293350D01*
X140097913Y-53293354D01*
X140232620Y-53343596D01*
X140232627Y-53343598D01*
X140292155Y-53349999D01*
X140292172Y-53350000D01*
X140940000Y-53350000D01*
X140940000Y-52433012D01*
X140997007Y-52465925D01*
X141124174Y-52500000D01*
X141255826Y-52500000D01*
X141382993Y-52465925D01*
X141440000Y-52433012D01*
X141440000Y-53350000D01*
X142087828Y-53350000D01*
X142087844Y-53349999D01*
X142147372Y-53343598D01*
X142147379Y-53343596D01*
X142282086Y-53293354D01*
X142282093Y-53293350D01*
X142397187Y-53207190D01*
X142397190Y-53207187D01*
X142483350Y-53092093D01*
X142483354Y-53092086D01*
X142532422Y-52960529D01*
X142574293Y-52904595D01*
X142639757Y-52880178D01*
X142708030Y-52895030D01*
X142736285Y-52916181D01*
X142850213Y-53030109D01*
X143022179Y-53155048D01*
X143022181Y-53155049D01*
X143022184Y-53155051D01*
X143211588Y-53251557D01*
X143413757Y-53317246D01*
X143623713Y-53350500D01*
X143623714Y-53350500D01*
X143836286Y-53350500D01*
X143836287Y-53350500D01*
X144046243Y-53317246D01*
X144248412Y-53251557D01*
X144437816Y-53155051D01*
X144524478Y-53092088D01*
X144609786Y-53030109D01*
X144609788Y-53030106D01*
X144609792Y-53030104D01*
X144760104Y-52879792D01*
X144760106Y-52879788D01*
X144760109Y-52879786D01*
X144885048Y-52707820D01*
X144885047Y-52707820D01*
X144885051Y-52707816D01*
X144889514Y-52699054D01*
X144937488Y-52648259D01*
X145005308Y-52631463D01*
X145071444Y-52653999D01*
X145110486Y-52699056D01*
X145114951Y-52707820D01*
X145239890Y-52879786D01*
X145390213Y-53030109D01*
X145562179Y-53155048D01*
X145562181Y-53155049D01*
X145562184Y-53155051D01*
X145751588Y-53251557D01*
X145953757Y-53317246D01*
X146125712Y-53344481D01*
X146188847Y-53374410D01*
X146225778Y-53433722D01*
X146224780Y-53503584D01*
X146193995Y-53554635D01*
X143725451Y-56023181D01*
X143664128Y-56056666D01*
X143637770Y-56059500D01*
X139172230Y-56059500D01*
X139142789Y-56050855D01*
X139112803Y-56044332D01*
X139107787Y-56040577D01*
X139105191Y-56039815D01*
X139084549Y-56023181D01*
X138909175Y-55847807D01*
X138875690Y-55786484D01*
X138875262Y-55784432D01*
X138865894Y-55737334D01*
X138848923Y-55696363D01*
X138798016Y-55573459D01*
X138798009Y-55573446D01*
X138699464Y-55425965D01*
X138699461Y-55425961D01*
X138574038Y-55300538D01*
X138574034Y-55300535D01*
X138426553Y-55201990D01*
X138426540Y-55201983D01*
X138262667Y-55134106D01*
X138262658Y-55134103D01*
X138088694Y-55099500D01*
X138088691Y-55099500D01*
X137911309Y-55099500D01*
X137911306Y-55099500D01*
X137737341Y-55134103D01*
X137737332Y-55134106D01*
X137573459Y-55201983D01*
X137573446Y-55201990D01*
X137425965Y-55300535D01*
X137425961Y-55300538D01*
X137300538Y-55425961D01*
X137300535Y-55425965D01*
X137201990Y-55573446D01*
X137201983Y-55573459D01*
X137134106Y-55737332D01*
X137134103Y-55737341D01*
X137099500Y-55911304D01*
X137099500Y-56088695D01*
X137134103Y-56262658D01*
X137134106Y-56262667D01*
X137201983Y-56426540D01*
X137201990Y-56426553D01*
X137300535Y-56574034D01*
X137300538Y-56574038D01*
X137425961Y-56699461D01*
X137425965Y-56699464D01*
X137573446Y-56798009D01*
X137573459Y-56798016D01*
X137650106Y-56829763D01*
X137737334Y-56865894D01*
X137784318Y-56875239D01*
X137846227Y-56907622D01*
X137847807Y-56909175D01*
X138331586Y-57392954D01*
X138361058Y-57412645D01*
X138405270Y-57442186D01*
X138454505Y-57475084D01*
X138454506Y-57475084D01*
X138454507Y-57475085D01*
X138454509Y-57475086D01*
X138591082Y-57531656D01*
X138591087Y-57531658D01*
X138591091Y-57531658D01*
X138591092Y-57531659D01*
X138736079Y-57560500D01*
X138736082Y-57560500D01*
X138736083Y-57560500D01*
X138883917Y-57560500D01*
X143125500Y-57560500D01*
X143192539Y-57580185D01*
X143238294Y-57632989D01*
X143249500Y-57684500D01*
X143249500Y-68687779D01*
X143229815Y-68754818D01*
X143198385Y-68788097D01*
X143120211Y-68844893D01*
X143120205Y-68844898D01*
X142969894Y-68995209D01*
X142969890Y-68995214D01*
X142850318Y-69159793D01*
X142794989Y-69202459D01*
X142725375Y-69208438D01*
X142663580Y-69175833D01*
X142649682Y-69159793D01*
X142530109Y-68995214D01*
X142530105Y-68995209D01*
X142379786Y-68844890D01*
X142207820Y-68719951D01*
X142018414Y-68623444D01*
X142018413Y-68623443D01*
X142018412Y-68623443D01*
X141816243Y-68557754D01*
X141816241Y-68557753D01*
X141816240Y-68557753D01*
X141654957Y-68532208D01*
X141606287Y-68524500D01*
X141393713Y-68524500D01*
X141345042Y-68532208D01*
X141183760Y-68557753D01*
X140981585Y-68623444D01*
X140792179Y-68719951D01*
X140620213Y-68844890D01*
X140469894Y-68995209D01*
X140469890Y-68995214D01*
X140350318Y-69159793D01*
X140294989Y-69202459D01*
X140225375Y-69208438D01*
X140163580Y-69175833D01*
X140149682Y-69159793D01*
X140030109Y-68995214D01*
X140030105Y-68995209D01*
X139879786Y-68844890D01*
X139707820Y-68719951D01*
X139518414Y-68623444D01*
X139518413Y-68623443D01*
X139518412Y-68623443D01*
X139316243Y-68557754D01*
X139316241Y-68557753D01*
X139316240Y-68557753D01*
X139154957Y-68532208D01*
X139106287Y-68524500D01*
X138893713Y-68524500D01*
X138845042Y-68532208D01*
X138683760Y-68557753D01*
X138481585Y-68623444D01*
X138292179Y-68719951D01*
X138120215Y-68844889D01*
X137981035Y-68984069D01*
X137919712Y-69017553D01*
X137850020Y-69012569D01*
X137794087Y-68970697D01*
X137787815Y-68961484D01*
X137692315Y-68806654D01*
X137568345Y-68682684D01*
X137419124Y-68590643D01*
X137419119Y-68590641D01*
X137252697Y-68535494D01*
X137252690Y-68535493D01*
X137149986Y-68525000D01*
X136750000Y-68525000D01*
X136750000Y-69595854D01*
X136683343Y-69557370D01*
X136562535Y-69525000D01*
X136437465Y-69525000D01*
X136316657Y-69557370D01*
X136250000Y-69595854D01*
X136250000Y-68525000D01*
X135850028Y-68525000D01*
X135850012Y-68525001D01*
X135747302Y-68535494D01*
X135580880Y-68590641D01*
X135580875Y-68590643D01*
X135431654Y-68682684D01*
X135307684Y-68806654D01*
X135215643Y-68955875D01*
X135215641Y-68955880D01*
X135160494Y-69122302D01*
X135160493Y-69122309D01*
X135150000Y-69225013D01*
X128353579Y-69225013D01*
X128375500Y-69086611D01*
X128375500Y-68913389D01*
X128348402Y-68742299D01*
X128294873Y-68577555D01*
X128216232Y-68423212D01*
X128114414Y-68283072D01*
X128006872Y-68175530D01*
X127973387Y-68114207D01*
X127978371Y-68044515D01*
X128020243Y-67988582D01*
X128029457Y-67982310D01*
X128093656Y-67942712D01*
X128217712Y-67818656D01*
X128309814Y-67669334D01*
X128364999Y-67502797D01*
X128375500Y-67400009D01*
X128375499Y-66599992D01*
X128364999Y-66497203D01*
X128309814Y-66330666D01*
X128217712Y-66181344D01*
X128093656Y-66057288D01*
X127944334Y-65965186D01*
X127777797Y-65910001D01*
X127777795Y-65910000D01*
X127675010Y-65899500D01*
X126324998Y-65899500D01*
X126324981Y-65899501D01*
X126222203Y-65910000D01*
X126222200Y-65910001D01*
X126055668Y-65965185D01*
X126055663Y-65965187D01*
X125906342Y-66057289D01*
X125782289Y-66181342D01*
X125690187Y-66330663D01*
X125690186Y-66330666D01*
X125635001Y-66497203D01*
X125635001Y-66497204D01*
X125635000Y-66497204D01*
X125624500Y-66599983D01*
X121200500Y-66599983D01*
X121200500Y-59913389D01*
X124624500Y-59913389D01*
X124624500Y-60086611D01*
X124651598Y-60257701D01*
X124705127Y-60422445D01*
X124783768Y-60576788D01*
X124885586Y-60716928D01*
X124885588Y-60716930D01*
X124993127Y-60824469D01*
X125026612Y-60885792D01*
X125021628Y-60955484D01*
X124979756Y-61011417D01*
X124970544Y-61017688D01*
X124906344Y-61057287D01*
X124782289Y-61181342D01*
X124690187Y-61330663D01*
X124690186Y-61330666D01*
X124635001Y-61497203D01*
X124635001Y-61497204D01*
X124635000Y-61497204D01*
X124624500Y-61599983D01*
X124624500Y-62400001D01*
X124624501Y-62400019D01*
X124635000Y-62502796D01*
X124635001Y-62502799D01*
X124690185Y-62669331D01*
X124690186Y-62669334D01*
X124782288Y-62818656D01*
X124906344Y-62942712D01*
X125055666Y-63034814D01*
X125222203Y-63089999D01*
X125324991Y-63100500D01*
X126675008Y-63100499D01*
X126777797Y-63089999D01*
X126944334Y-63034814D01*
X127093656Y-62942712D01*
X127217712Y-62818656D01*
X127309814Y-62669334D01*
X127364999Y-62502797D01*
X127375500Y-62400009D01*
X127375499Y-61599992D01*
X127372446Y-61570109D01*
X127364999Y-61497203D01*
X127364998Y-61497200D01*
X127339345Y-61419786D01*
X127309814Y-61330666D01*
X127217712Y-61181344D01*
X127093656Y-61057288D01*
X127093652Y-61057285D01*
X127029456Y-61017688D01*
X126982731Y-60965740D01*
X126971510Y-60896777D01*
X126999353Y-60832695D01*
X127006850Y-60824491D01*
X127114414Y-60716928D01*
X127216232Y-60576788D01*
X127294873Y-60422445D01*
X127348402Y-60257701D01*
X127375500Y-60086611D01*
X127375500Y-59913389D01*
X127348402Y-59742299D01*
X127294873Y-59577555D01*
X127216232Y-59423212D01*
X127114414Y-59283072D01*
X126991928Y-59160586D01*
X126908550Y-59100008D01*
X126865885Y-59044677D01*
X126859906Y-58975064D01*
X126892512Y-58913269D01*
X126908552Y-58899371D01*
X126991598Y-58839036D01*
X127114032Y-58716602D01*
X127215804Y-58576524D01*
X127294408Y-58422255D01*
X127347914Y-58257584D01*
X127349115Y-58250000D01*
X126280330Y-58250000D01*
X126300075Y-58230255D01*
X126349444Y-58144745D01*
X126375000Y-58049370D01*
X126375000Y-57950630D01*
X126349444Y-57855255D01*
X126300075Y-57769745D01*
X126280330Y-57750000D01*
X127349115Y-57750000D01*
X127349115Y-57749999D01*
X127347914Y-57742415D01*
X127294408Y-57577744D01*
X127215804Y-57423475D01*
X127114032Y-57283397D01*
X126991602Y-57160967D01*
X126851524Y-57059195D01*
X126697257Y-56980591D01*
X126532584Y-56927085D01*
X126361571Y-56900000D01*
X126250000Y-56900000D01*
X126250000Y-57719670D01*
X126230255Y-57699925D01*
X126144745Y-57650556D01*
X126049370Y-57625000D01*
X125950630Y-57625000D01*
X125855255Y-57650556D01*
X125769745Y-57699925D01*
X125750000Y-57719670D01*
X125750000Y-56900000D01*
X125638429Y-56900000D01*
X125467415Y-56927085D01*
X125302742Y-56980591D01*
X125148475Y-57059195D01*
X125008397Y-57160967D01*
X124885967Y-57283397D01*
X124784195Y-57423475D01*
X124705591Y-57577744D01*
X124652085Y-57742415D01*
X124650884Y-57749999D01*
X124650885Y-57750000D01*
X125719670Y-57750000D01*
X125699925Y-57769745D01*
X125650556Y-57855255D01*
X125625000Y-57950630D01*
X125625000Y-58049370D01*
X125650556Y-58144745D01*
X125699925Y-58230255D01*
X125719670Y-58250000D01*
X124650885Y-58250000D01*
X124652085Y-58257584D01*
X124705591Y-58422255D01*
X124784195Y-58576524D01*
X124885967Y-58716602D01*
X125008401Y-58839036D01*
X125091447Y-58899371D01*
X125134114Y-58954701D01*
X125140093Y-59024314D01*
X125107488Y-59086109D01*
X125091450Y-59100007D01*
X125008072Y-59160585D01*
X124885588Y-59283069D01*
X124885588Y-59283070D01*
X124885586Y-59283072D01*
X124881684Y-59288443D01*
X124783768Y-59423211D01*
X124705128Y-59577552D01*
X124651597Y-59742302D01*
X124624500Y-59913389D01*
X121200500Y-59913389D01*
X121200500Y-51893713D01*
X132109500Y-51893713D01*
X132109500Y-52106286D01*
X132142753Y-52316239D01*
X132208444Y-52518414D01*
X132304951Y-52707820D01*
X132429890Y-52879786D01*
X132580213Y-53030109D01*
X132752179Y-53155048D01*
X132752181Y-53155049D01*
X132752184Y-53155051D01*
X132941588Y-53251557D01*
X133143757Y-53317246D01*
X133353713Y-53350500D01*
X133353714Y-53350500D01*
X133566286Y-53350500D01*
X133566287Y-53350500D01*
X133776243Y-53317246D01*
X133978412Y-53251557D01*
X134167816Y-53155051D01*
X134254478Y-53092088D01*
X134339784Y-53030110D01*
X134339784Y-53030109D01*
X134339792Y-53030104D01*
X134453717Y-52916178D01*
X134515036Y-52882696D01*
X134584728Y-52887680D01*
X134640662Y-52929551D01*
X134657577Y-52960528D01*
X134706646Y-53092088D01*
X134706649Y-53092093D01*
X134792809Y-53207187D01*
X134792812Y-53207190D01*
X134907906Y-53293350D01*
X134907913Y-53293354D01*
X135042620Y-53343596D01*
X135042627Y-53343598D01*
X135102155Y-53349999D01*
X135102172Y-53350000D01*
X135750000Y-53350000D01*
X135750000Y-52433012D01*
X135807007Y-52465925D01*
X135934174Y-52500000D01*
X136065826Y-52500000D01*
X136192993Y-52465925D01*
X136250000Y-52433012D01*
X136250000Y-53350000D01*
X136897828Y-53350000D01*
X136897844Y-53349999D01*
X136957372Y-53343598D01*
X136957379Y-53343596D01*
X137092086Y-53293354D01*
X137092093Y-53293350D01*
X137207187Y-53207190D01*
X137207190Y-53207187D01*
X137293350Y-53092093D01*
X137293354Y-53092086D01*
X137343596Y-52957379D01*
X137343598Y-52957372D01*
X137349999Y-52897844D01*
X137350000Y-52897827D01*
X137350000Y-52250000D01*
X136433012Y-52250000D01*
X136465925Y-52192993D01*
X136500000Y-52065826D01*
X136500000Y-51934174D01*
X136465925Y-51807007D01*
X136433012Y-51750000D01*
X137350000Y-51750000D01*
X137350000Y-51102172D01*
X137349999Y-51102155D01*
X137343598Y-51042627D01*
X137343596Y-51042620D01*
X137293354Y-50907913D01*
X137293350Y-50907906D01*
X137207190Y-50792812D01*
X137207187Y-50792809D01*
X137092093Y-50706649D01*
X137092086Y-50706645D01*
X136957379Y-50656403D01*
X136957372Y-50656401D01*
X136897844Y-50650000D01*
X136250000Y-50650000D01*
X136250000Y-51566988D01*
X136192993Y-51534075D01*
X136065826Y-51500000D01*
X135934174Y-51500000D01*
X135807007Y-51534075D01*
X135750000Y-51566988D01*
X135750000Y-50650000D01*
X135102155Y-50650000D01*
X135042627Y-50656401D01*
X135042620Y-50656403D01*
X134907913Y-50706645D01*
X134907906Y-50706649D01*
X134792812Y-50792809D01*
X134792809Y-50792812D01*
X134706649Y-50907906D01*
X134706646Y-50907912D01*
X134657577Y-51039471D01*
X134615705Y-51095404D01*
X134550241Y-51119821D01*
X134481968Y-51104969D01*
X134453714Y-51083818D01*
X134339786Y-50969890D01*
X134167820Y-50844951D01*
X133978414Y-50748444D01*
X133978413Y-50748443D01*
X133978412Y-50748443D01*
X133776243Y-50682754D01*
X133776241Y-50682753D01*
X133776240Y-50682753D01*
X133614957Y-50657208D01*
X133566287Y-50649500D01*
X133353713Y-50649500D01*
X133305042Y-50657208D01*
X133143760Y-50682753D01*
X132941585Y-50748444D01*
X132752179Y-50844951D01*
X132580213Y-50969890D01*
X132429890Y-51120213D01*
X132304951Y-51292179D01*
X132208444Y-51481585D01*
X132142753Y-51683760D01*
X132109500Y-51893713D01*
X121200500Y-51893713D01*
X121200500Y-51004066D01*
X121200765Y-50995956D01*
X121202473Y-50969896D01*
X121215364Y-50773207D01*
X121217479Y-50757153D01*
X121260230Y-50542226D01*
X121264428Y-50526561D01*
X121326349Y-50344148D01*
X121334868Y-50319049D01*
X121341067Y-50304083D01*
X121437995Y-50107533D01*
X121446098Y-50093498D01*
X121567853Y-49911279D01*
X121577710Y-49898433D01*
X121722207Y-49733665D01*
X121733665Y-49722207D01*
X121898433Y-49577710D01*
X121911279Y-49567853D01*
X122093498Y-49446098D01*
X122107533Y-49437995D01*
X122304083Y-49341067D01*
X122319049Y-49334868D01*
X122525945Y-49264637D01*
X122526561Y-49264428D01*
X122542228Y-49260230D01*
X122757153Y-49217479D01*
X122773209Y-49215364D01*
X122978058Y-49201938D01*
X122995958Y-49200765D01*
X123004067Y-49200500D01*
X123039882Y-49200500D01*
X153960118Y-49200500D01*
X153995933Y-49200500D01*
X154004043Y-49200765D01*
G37*
%TD.AperFunction*%
%TD*%
M02*
