%TF.GenerationSoftware,KiCad,Pcbnew,9.0.7*%
%TF.CreationDate,2026-03-16T10:33:34+01:00*%
%TF.ProjectId,MPC_Servo,4d50435f-5365-4727-966f-2e6b69636164,rev?*%
%TF.SameCoordinates,Original*%
%TF.FileFunction,Legend,Bot*%
%TF.FilePolarity,Positive*%
%FSLAX46Y46*%
G04 Gerber Fmt 4.6, Leading zero omitted, Abs format (unit mm)*
G04 Created by KiCad (PCBNEW 9.0.7) date 2026-03-16 10:33:34*
%MOMM*%
%LPD*%
G01*
G04 APERTURE LIST*
%ADD10C,0.152400*%
%ADD11C,0.400000*%
G04 APERTURE END LIST*
D10*
X153580460Y-57618508D02*
X153657870Y-57579803D01*
X153657870Y-57579803D02*
X153773984Y-57579803D01*
X153773984Y-57579803D02*
X153890098Y-57618508D01*
X153890098Y-57618508D02*
X153967508Y-57695918D01*
X153967508Y-57695918D02*
X154006213Y-57773327D01*
X154006213Y-57773327D02*
X154044917Y-57928146D01*
X154044917Y-57928146D02*
X154044917Y-58044260D01*
X154044917Y-58044260D02*
X154006213Y-58199079D01*
X154006213Y-58199079D02*
X153967508Y-58276489D01*
X153967508Y-58276489D02*
X153890098Y-58353899D01*
X153890098Y-58353899D02*
X153773984Y-58392603D01*
X153773984Y-58392603D02*
X153696575Y-58392603D01*
X153696575Y-58392603D02*
X153580460Y-58353899D01*
X153580460Y-58353899D02*
X153541756Y-58315194D01*
X153541756Y-58315194D02*
X153541756Y-58044260D01*
X153541756Y-58044260D02*
X153696575Y-58044260D01*
X153193413Y-58392603D02*
X153193413Y-57579803D01*
X153193413Y-57579803D02*
X152728956Y-58392603D01*
X152728956Y-58392603D02*
X152728956Y-57579803D01*
X152341908Y-58392603D02*
X152341908Y-57579803D01*
X152341908Y-57579803D02*
X152148384Y-57579803D01*
X152148384Y-57579803D02*
X152032270Y-57618508D01*
X152032270Y-57618508D02*
X151954860Y-57695918D01*
X151954860Y-57695918D02*
X151916155Y-57773327D01*
X151916155Y-57773327D02*
X151877451Y-57928146D01*
X151877451Y-57928146D02*
X151877451Y-58044260D01*
X151877451Y-58044260D02*
X151916155Y-58199079D01*
X151916155Y-58199079D02*
X151954860Y-58276489D01*
X151954860Y-58276489D02*
X152032270Y-58353899D01*
X152032270Y-58353899D02*
X152148384Y-58392603D01*
X152148384Y-58392603D02*
X152341908Y-58392603D01*
X129045337Y-66955082D02*
X129084041Y-67071196D01*
X129084041Y-67071196D02*
X129084041Y-67264720D01*
X129084041Y-67264720D02*
X129045337Y-67342129D01*
X129045337Y-67342129D02*
X129006632Y-67380834D01*
X129006632Y-67380834D02*
X128929222Y-67419539D01*
X128929222Y-67419539D02*
X128851813Y-67419539D01*
X128851813Y-67419539D02*
X128774403Y-67380834D01*
X128774403Y-67380834D02*
X128735698Y-67342129D01*
X128735698Y-67342129D02*
X128696994Y-67264720D01*
X128696994Y-67264720D02*
X128658289Y-67109901D01*
X128658289Y-67109901D02*
X128619584Y-67032491D01*
X128619584Y-67032491D02*
X128580879Y-66993786D01*
X128580879Y-66993786D02*
X128503470Y-66955082D01*
X128503470Y-66955082D02*
X128426060Y-66955082D01*
X128426060Y-66955082D02*
X128348651Y-66993786D01*
X128348651Y-66993786D02*
X128309946Y-67032491D01*
X128309946Y-67032491D02*
X128271241Y-67109901D01*
X128271241Y-67109901D02*
X128271241Y-67303424D01*
X128271241Y-67303424D02*
X128309946Y-67419539D01*
X129045337Y-68077519D02*
X129084041Y-68000110D01*
X129084041Y-68000110D02*
X129084041Y-67845291D01*
X129084041Y-67845291D02*
X129045337Y-67767881D01*
X129045337Y-67767881D02*
X128967927Y-67729177D01*
X128967927Y-67729177D02*
X128658289Y-67729177D01*
X128658289Y-67729177D02*
X128580879Y-67767881D01*
X128580879Y-67767881D02*
X128542175Y-67845291D01*
X128542175Y-67845291D02*
X128542175Y-68000110D01*
X128542175Y-68000110D02*
X128580879Y-68077519D01*
X128580879Y-68077519D02*
X128658289Y-68116224D01*
X128658289Y-68116224D02*
X128735698Y-68116224D01*
X128735698Y-68116224D02*
X128813108Y-67729177D01*
X129084041Y-68464567D02*
X128542175Y-68464567D01*
X128696994Y-68464567D02*
X128619584Y-68503272D01*
X128619584Y-68503272D02*
X128580879Y-68541977D01*
X128580879Y-68541977D02*
X128542175Y-68619386D01*
X128542175Y-68619386D02*
X128542175Y-68696796D01*
X128542175Y-68890320D02*
X129084041Y-69083844D01*
X129084041Y-69083844D02*
X128542175Y-69277367D01*
X129084041Y-69703120D02*
X129045337Y-69625710D01*
X129045337Y-69625710D02*
X129006632Y-69587005D01*
X129006632Y-69587005D02*
X128929222Y-69548301D01*
X128929222Y-69548301D02*
X128696994Y-69548301D01*
X128696994Y-69548301D02*
X128619584Y-69587005D01*
X128619584Y-69587005D02*
X128580879Y-69625710D01*
X128580879Y-69625710D02*
X128542175Y-69703120D01*
X128542175Y-69703120D02*
X128542175Y-69819234D01*
X128542175Y-69819234D02*
X128580879Y-69896643D01*
X128580879Y-69896643D02*
X128619584Y-69935348D01*
X128619584Y-69935348D02*
X128696994Y-69974053D01*
X128696994Y-69974053D02*
X128929222Y-69974053D01*
X128929222Y-69974053D02*
X129006632Y-69935348D01*
X129006632Y-69935348D02*
X129045337Y-69896643D01*
X129045337Y-69896643D02*
X129084041Y-69819234D01*
X129084041Y-69819234D02*
X129084041Y-69703120D01*
X128348651Y-70902967D02*
X128309946Y-70941671D01*
X128309946Y-70941671D02*
X128271241Y-71019081D01*
X128271241Y-71019081D02*
X128271241Y-71212605D01*
X128271241Y-71212605D02*
X128309946Y-71290014D01*
X128309946Y-71290014D02*
X128348651Y-71328719D01*
X128348651Y-71328719D02*
X128426060Y-71367424D01*
X128426060Y-71367424D02*
X128503470Y-71367424D01*
X128503470Y-71367424D02*
X128619584Y-71328719D01*
X128619584Y-71328719D02*
X129084041Y-70864262D01*
X129084041Y-70864262D02*
X129084041Y-71367424D01*
X129966851Y-66993786D02*
X129966851Y-67264720D01*
X130392603Y-67380834D02*
X130392603Y-66993786D01*
X130392603Y-66993786D02*
X129579803Y-66993786D01*
X129579803Y-66993786D02*
X129579803Y-67380834D01*
X129850737Y-67729176D02*
X130392603Y-67729176D01*
X129928146Y-67729176D02*
X129889441Y-67767881D01*
X129889441Y-67767881D02*
X129850737Y-67845291D01*
X129850737Y-67845291D02*
X129850737Y-67961405D01*
X129850737Y-67961405D02*
X129889441Y-68038814D01*
X129889441Y-68038814D02*
X129966851Y-68077519D01*
X129966851Y-68077519D02*
X130392603Y-68077519D01*
X130392603Y-68812909D02*
X129579803Y-68812909D01*
X130353899Y-68812909D02*
X130392603Y-68735500D01*
X130392603Y-68735500D02*
X130392603Y-68580681D01*
X130392603Y-68580681D02*
X130353899Y-68503271D01*
X130353899Y-68503271D02*
X130315194Y-68464566D01*
X130315194Y-68464566D02*
X130237784Y-68425862D01*
X130237784Y-68425862D02*
X130005556Y-68425862D01*
X130005556Y-68425862D02*
X129928146Y-68464566D01*
X129928146Y-68464566D02*
X129889441Y-68503271D01*
X129889441Y-68503271D02*
X129850737Y-68580681D01*
X129850737Y-68580681D02*
X129850737Y-68735500D01*
X129850737Y-68735500D02*
X129889441Y-68812909D01*
X130353899Y-69161252D02*
X130392603Y-69238661D01*
X130392603Y-69238661D02*
X130392603Y-69393480D01*
X130392603Y-69393480D02*
X130353899Y-69470890D01*
X130353899Y-69470890D02*
X130276489Y-69509594D01*
X130276489Y-69509594D02*
X130237784Y-69509594D01*
X130237784Y-69509594D02*
X130160375Y-69470890D01*
X130160375Y-69470890D02*
X130121670Y-69393480D01*
X130121670Y-69393480D02*
X130121670Y-69277366D01*
X130121670Y-69277366D02*
X130082965Y-69199956D01*
X130082965Y-69199956D02*
X130005556Y-69161252D01*
X130005556Y-69161252D02*
X129966851Y-69161252D01*
X129966851Y-69161252D02*
X129889441Y-69199956D01*
X129889441Y-69199956D02*
X129850737Y-69277366D01*
X129850737Y-69277366D02*
X129850737Y-69393480D01*
X129850737Y-69393480D02*
X129889441Y-69470890D01*
X129850737Y-69741823D02*
X129850737Y-70051461D01*
X129579803Y-69857937D02*
X130276489Y-69857937D01*
X130276489Y-69857937D02*
X130353899Y-69896642D01*
X130353899Y-69896642D02*
X130392603Y-69974052D01*
X130392603Y-69974052D02*
X130392603Y-70051461D01*
X130392603Y-70438509D02*
X130353899Y-70361099D01*
X130353899Y-70361099D02*
X130315194Y-70322394D01*
X130315194Y-70322394D02*
X130237784Y-70283690D01*
X130237784Y-70283690D02*
X130005556Y-70283690D01*
X130005556Y-70283690D02*
X129928146Y-70322394D01*
X129928146Y-70322394D02*
X129889441Y-70361099D01*
X129889441Y-70361099D02*
X129850737Y-70438509D01*
X129850737Y-70438509D02*
X129850737Y-70554623D01*
X129850737Y-70554623D02*
X129889441Y-70632032D01*
X129889441Y-70632032D02*
X129928146Y-70670737D01*
X129928146Y-70670737D02*
X130005556Y-70709442D01*
X130005556Y-70709442D02*
X130237784Y-70709442D01*
X130237784Y-70709442D02*
X130315194Y-70670737D01*
X130315194Y-70670737D02*
X130353899Y-70632032D01*
X130353899Y-70632032D02*
X130392603Y-70554623D01*
X130392603Y-70554623D02*
X130392603Y-70438509D01*
X129850737Y-71057784D02*
X130663537Y-71057784D01*
X129889441Y-71057784D02*
X129850737Y-71135194D01*
X129850737Y-71135194D02*
X129850737Y-71290013D01*
X129850737Y-71290013D02*
X129889441Y-71367422D01*
X129889441Y-71367422D02*
X129928146Y-71406127D01*
X129928146Y-71406127D02*
X130005556Y-71444832D01*
X130005556Y-71444832D02*
X130237784Y-71444832D01*
X130237784Y-71444832D02*
X130315194Y-71406127D01*
X130315194Y-71406127D02*
X130353899Y-71367422D01*
X130353899Y-71367422D02*
X130392603Y-71290013D01*
X130392603Y-71290013D02*
X130392603Y-71135194D01*
X130392603Y-71135194D02*
X130353899Y-71057784D01*
X141653899Y-66255082D02*
X141692603Y-66371196D01*
X141692603Y-66371196D02*
X141692603Y-66564720D01*
X141692603Y-66564720D02*
X141653899Y-66642129D01*
X141653899Y-66642129D02*
X141615194Y-66680834D01*
X141615194Y-66680834D02*
X141537784Y-66719539D01*
X141537784Y-66719539D02*
X141460375Y-66719539D01*
X141460375Y-66719539D02*
X141382965Y-66680834D01*
X141382965Y-66680834D02*
X141344260Y-66642129D01*
X141344260Y-66642129D02*
X141305556Y-66564720D01*
X141305556Y-66564720D02*
X141266851Y-66409901D01*
X141266851Y-66409901D02*
X141228146Y-66332491D01*
X141228146Y-66332491D02*
X141189441Y-66293786D01*
X141189441Y-66293786D02*
X141112032Y-66255082D01*
X141112032Y-66255082D02*
X141034622Y-66255082D01*
X141034622Y-66255082D02*
X140957213Y-66293786D01*
X140957213Y-66293786D02*
X140918508Y-66332491D01*
X140918508Y-66332491D02*
X140879803Y-66409901D01*
X140879803Y-66409901D02*
X140879803Y-66603424D01*
X140879803Y-66603424D02*
X140918508Y-66719539D01*
X141615194Y-67532338D02*
X141653899Y-67493634D01*
X141653899Y-67493634D02*
X141692603Y-67377519D01*
X141692603Y-67377519D02*
X141692603Y-67300110D01*
X141692603Y-67300110D02*
X141653899Y-67183996D01*
X141653899Y-67183996D02*
X141576489Y-67106586D01*
X141576489Y-67106586D02*
X141499079Y-67067881D01*
X141499079Y-67067881D02*
X141344260Y-67029177D01*
X141344260Y-67029177D02*
X141228146Y-67029177D01*
X141228146Y-67029177D02*
X141073327Y-67067881D01*
X141073327Y-67067881D02*
X140995918Y-67106586D01*
X140995918Y-67106586D02*
X140918508Y-67183996D01*
X140918508Y-67183996D02*
X140879803Y-67300110D01*
X140879803Y-67300110D02*
X140879803Y-67377519D01*
X140879803Y-67377519D02*
X140918508Y-67493634D01*
X140918508Y-67493634D02*
X140957213Y-67532338D01*
X141692603Y-68267729D02*
X141692603Y-67880681D01*
X141692603Y-67880681D02*
X140879803Y-67880681D01*
X154441756Y-60792603D02*
X154712689Y-60405556D01*
X154906213Y-60792603D02*
X154906213Y-59979803D01*
X154906213Y-59979803D02*
X154596575Y-59979803D01*
X154596575Y-59979803D02*
X154519165Y-60018508D01*
X154519165Y-60018508D02*
X154480460Y-60057213D01*
X154480460Y-60057213D02*
X154441756Y-60134622D01*
X154441756Y-60134622D02*
X154441756Y-60250737D01*
X154441756Y-60250737D02*
X154480460Y-60328146D01*
X154480460Y-60328146D02*
X154519165Y-60366851D01*
X154519165Y-60366851D02*
X154596575Y-60405556D01*
X154596575Y-60405556D02*
X154906213Y-60405556D01*
X153783775Y-60753899D02*
X153861184Y-60792603D01*
X153861184Y-60792603D02*
X154016003Y-60792603D01*
X154016003Y-60792603D02*
X154093413Y-60753899D01*
X154093413Y-60753899D02*
X154132117Y-60676489D01*
X154132117Y-60676489D02*
X154132117Y-60366851D01*
X154132117Y-60366851D02*
X154093413Y-60289441D01*
X154093413Y-60289441D02*
X154016003Y-60250737D01*
X154016003Y-60250737D02*
X153861184Y-60250737D01*
X153861184Y-60250737D02*
X153783775Y-60289441D01*
X153783775Y-60289441D02*
X153745070Y-60366851D01*
X153745070Y-60366851D02*
X153745070Y-60444260D01*
X153745070Y-60444260D02*
X154132117Y-60521670D01*
X153435431Y-60753899D02*
X153358022Y-60792603D01*
X153358022Y-60792603D02*
X153203203Y-60792603D01*
X153203203Y-60792603D02*
X153125793Y-60753899D01*
X153125793Y-60753899D02*
X153087089Y-60676489D01*
X153087089Y-60676489D02*
X153087089Y-60637784D01*
X153087089Y-60637784D02*
X153125793Y-60560375D01*
X153125793Y-60560375D02*
X153203203Y-60521670D01*
X153203203Y-60521670D02*
X153319317Y-60521670D01*
X153319317Y-60521670D02*
X153396727Y-60482965D01*
X153396727Y-60482965D02*
X153435431Y-60405556D01*
X153435431Y-60405556D02*
X153435431Y-60366851D01*
X153435431Y-60366851D02*
X153396727Y-60289441D01*
X153396727Y-60289441D02*
X153319317Y-60250737D01*
X153319317Y-60250737D02*
X153203203Y-60250737D01*
X153203203Y-60250737D02*
X153125793Y-60289441D01*
X152429108Y-60753899D02*
X152506517Y-60792603D01*
X152506517Y-60792603D02*
X152661336Y-60792603D01*
X152661336Y-60792603D02*
X152738746Y-60753899D01*
X152738746Y-60753899D02*
X152777450Y-60676489D01*
X152777450Y-60676489D02*
X152777450Y-60366851D01*
X152777450Y-60366851D02*
X152738746Y-60289441D01*
X152738746Y-60289441D02*
X152661336Y-60250737D01*
X152661336Y-60250737D02*
X152506517Y-60250737D01*
X152506517Y-60250737D02*
X152429108Y-60289441D01*
X152429108Y-60289441D02*
X152390403Y-60366851D01*
X152390403Y-60366851D02*
X152390403Y-60444260D01*
X152390403Y-60444260D02*
X152777450Y-60521670D01*
X152158174Y-60250737D02*
X151848536Y-60250737D01*
X152042060Y-59979803D02*
X152042060Y-60676489D01*
X152042060Y-60676489D02*
X152003355Y-60753899D01*
X152003355Y-60753899D02*
X151925945Y-60792603D01*
X151925945Y-60792603D02*
X151848536Y-60792603D01*
X146792603Y-53593786D02*
X145979803Y-53593786D01*
X145979803Y-53593786D02*
X145979803Y-53903424D01*
X145979803Y-53903424D02*
X146018508Y-53980834D01*
X146018508Y-53980834D02*
X146057213Y-54019539D01*
X146057213Y-54019539D02*
X146134622Y-54058243D01*
X146134622Y-54058243D02*
X146250737Y-54058243D01*
X146250737Y-54058243D02*
X146328146Y-54019539D01*
X146328146Y-54019539D02*
X146366851Y-53980834D01*
X146366851Y-53980834D02*
X146405556Y-53903424D01*
X146405556Y-53903424D02*
X146405556Y-53593786D01*
X146792603Y-54406586D02*
X146250737Y-54406586D01*
X146405556Y-54406586D02*
X146328146Y-54445291D01*
X146328146Y-54445291D02*
X146289441Y-54483996D01*
X146289441Y-54483996D02*
X146250737Y-54561405D01*
X146250737Y-54561405D02*
X146250737Y-54638815D01*
X146792603Y-55025863D02*
X146753899Y-54948453D01*
X146753899Y-54948453D02*
X146715194Y-54909748D01*
X146715194Y-54909748D02*
X146637784Y-54871044D01*
X146637784Y-54871044D02*
X146405556Y-54871044D01*
X146405556Y-54871044D02*
X146328146Y-54909748D01*
X146328146Y-54909748D02*
X146289441Y-54948453D01*
X146289441Y-54948453D02*
X146250737Y-55025863D01*
X146250737Y-55025863D02*
X146250737Y-55141977D01*
X146250737Y-55141977D02*
X146289441Y-55219386D01*
X146289441Y-55219386D02*
X146328146Y-55258091D01*
X146328146Y-55258091D02*
X146405556Y-55296796D01*
X146405556Y-55296796D02*
X146637784Y-55296796D01*
X146637784Y-55296796D02*
X146715194Y-55258091D01*
X146715194Y-55258091D02*
X146753899Y-55219386D01*
X146753899Y-55219386D02*
X146792603Y-55141977D01*
X146792603Y-55141977D02*
X146792603Y-55025863D01*
X146250737Y-55993481D02*
X146908718Y-55993481D01*
X146908718Y-55993481D02*
X146986127Y-55954776D01*
X146986127Y-55954776D02*
X147024832Y-55916072D01*
X147024832Y-55916072D02*
X147063537Y-55838662D01*
X147063537Y-55838662D02*
X147063537Y-55722548D01*
X147063537Y-55722548D02*
X147024832Y-55645138D01*
X146753899Y-55993481D02*
X146792603Y-55916072D01*
X146792603Y-55916072D02*
X146792603Y-55761253D01*
X146792603Y-55761253D02*
X146753899Y-55683843D01*
X146753899Y-55683843D02*
X146715194Y-55645138D01*
X146715194Y-55645138D02*
X146637784Y-55606434D01*
X146637784Y-55606434D02*
X146405556Y-55606434D01*
X146405556Y-55606434D02*
X146328146Y-55645138D01*
X146328146Y-55645138D02*
X146289441Y-55683843D01*
X146289441Y-55683843D02*
X146250737Y-55761253D01*
X146250737Y-55761253D02*
X146250737Y-55916072D01*
X146250737Y-55916072D02*
X146289441Y-55993481D01*
X140718508Y-54019539D02*
X140679803Y-53942129D01*
X140679803Y-53942129D02*
X140679803Y-53826015D01*
X140679803Y-53826015D02*
X140718508Y-53709901D01*
X140718508Y-53709901D02*
X140795918Y-53632491D01*
X140795918Y-53632491D02*
X140873327Y-53593786D01*
X140873327Y-53593786D02*
X141028146Y-53555082D01*
X141028146Y-53555082D02*
X141144260Y-53555082D01*
X141144260Y-53555082D02*
X141299079Y-53593786D01*
X141299079Y-53593786D02*
X141376489Y-53632491D01*
X141376489Y-53632491D02*
X141453899Y-53709901D01*
X141453899Y-53709901D02*
X141492603Y-53826015D01*
X141492603Y-53826015D02*
X141492603Y-53903424D01*
X141492603Y-53903424D02*
X141453899Y-54019539D01*
X141453899Y-54019539D02*
X141415194Y-54058243D01*
X141415194Y-54058243D02*
X141144260Y-54058243D01*
X141144260Y-54058243D02*
X141144260Y-53903424D01*
X141492603Y-54406586D02*
X140679803Y-54406586D01*
X140679803Y-54406586D02*
X141492603Y-54871043D01*
X141492603Y-54871043D02*
X140679803Y-54871043D01*
X141492603Y-55258091D02*
X140679803Y-55258091D01*
X140679803Y-55258091D02*
X140679803Y-55451615D01*
X140679803Y-55451615D02*
X140718508Y-55567729D01*
X140718508Y-55567729D02*
X140795918Y-55645139D01*
X140795918Y-55645139D02*
X140873327Y-55683844D01*
X140873327Y-55683844D02*
X141028146Y-55722548D01*
X141028146Y-55722548D02*
X141144260Y-55722548D01*
X141144260Y-55722548D02*
X141299079Y-55683844D01*
X141299079Y-55683844D02*
X141376489Y-55645139D01*
X141376489Y-55645139D02*
X141453899Y-55567729D01*
X141453899Y-55567729D02*
X141492603Y-55451615D01*
X141492603Y-55451615D02*
X141492603Y-55258091D01*
X135618508Y-53819539D02*
X135579803Y-53742129D01*
X135579803Y-53742129D02*
X135579803Y-53626015D01*
X135579803Y-53626015D02*
X135618508Y-53509901D01*
X135618508Y-53509901D02*
X135695918Y-53432491D01*
X135695918Y-53432491D02*
X135773327Y-53393786D01*
X135773327Y-53393786D02*
X135928146Y-53355082D01*
X135928146Y-53355082D02*
X136044260Y-53355082D01*
X136044260Y-53355082D02*
X136199079Y-53393786D01*
X136199079Y-53393786D02*
X136276489Y-53432491D01*
X136276489Y-53432491D02*
X136353899Y-53509901D01*
X136353899Y-53509901D02*
X136392603Y-53626015D01*
X136392603Y-53626015D02*
X136392603Y-53703424D01*
X136392603Y-53703424D02*
X136353899Y-53819539D01*
X136353899Y-53819539D02*
X136315194Y-53858243D01*
X136315194Y-53858243D02*
X136044260Y-53858243D01*
X136044260Y-53858243D02*
X136044260Y-53703424D01*
X136392603Y-54206586D02*
X135579803Y-54206586D01*
X135579803Y-54206586D02*
X136392603Y-54671043D01*
X136392603Y-54671043D02*
X135579803Y-54671043D01*
X136392603Y-55058091D02*
X135579803Y-55058091D01*
X135579803Y-55058091D02*
X135579803Y-55251615D01*
X135579803Y-55251615D02*
X135618508Y-55367729D01*
X135618508Y-55367729D02*
X135695918Y-55445139D01*
X135695918Y-55445139D02*
X135773327Y-55483844D01*
X135773327Y-55483844D02*
X135928146Y-55522548D01*
X135928146Y-55522548D02*
X136044260Y-55522548D01*
X136044260Y-55522548D02*
X136199079Y-55483844D01*
X136199079Y-55483844D02*
X136276489Y-55445139D01*
X136276489Y-55445139D02*
X136353899Y-55367729D01*
X136353899Y-55367729D02*
X136392603Y-55251615D01*
X136392603Y-55251615D02*
X136392603Y-55058091D01*
X123906213Y-62592603D02*
X123906213Y-61779803D01*
X123906213Y-61779803D02*
X123712689Y-61779803D01*
X123712689Y-61779803D02*
X123596575Y-61818508D01*
X123596575Y-61818508D02*
X123519165Y-61895918D01*
X123519165Y-61895918D02*
X123480460Y-61973327D01*
X123480460Y-61973327D02*
X123441756Y-62128146D01*
X123441756Y-62128146D02*
X123441756Y-62244260D01*
X123441756Y-62244260D02*
X123480460Y-62399079D01*
X123480460Y-62399079D02*
X123519165Y-62476489D01*
X123519165Y-62476489D02*
X123596575Y-62553899D01*
X123596575Y-62553899D02*
X123712689Y-62592603D01*
X123712689Y-62592603D02*
X123906213Y-62592603D01*
X122745070Y-62592603D02*
X122745070Y-62166851D01*
X122745070Y-62166851D02*
X122783775Y-62089441D01*
X122783775Y-62089441D02*
X122861184Y-62050737D01*
X122861184Y-62050737D02*
X123016003Y-62050737D01*
X123016003Y-62050737D02*
X123093413Y-62089441D01*
X122745070Y-62553899D02*
X122822479Y-62592603D01*
X122822479Y-62592603D02*
X123016003Y-62592603D01*
X123016003Y-62592603D02*
X123093413Y-62553899D01*
X123093413Y-62553899D02*
X123132117Y-62476489D01*
X123132117Y-62476489D02*
X123132117Y-62399079D01*
X123132117Y-62399079D02*
X123093413Y-62321670D01*
X123093413Y-62321670D02*
X123016003Y-62282965D01*
X123016003Y-62282965D02*
X122822479Y-62282965D01*
X122822479Y-62282965D02*
X122745070Y-62244260D01*
X122474137Y-62050737D02*
X122164499Y-62050737D01*
X122358023Y-61779803D02*
X122358023Y-62476489D01*
X122358023Y-62476489D02*
X122319318Y-62553899D01*
X122319318Y-62553899D02*
X122241908Y-62592603D01*
X122241908Y-62592603D02*
X122164499Y-62592603D01*
X121545223Y-62592603D02*
X121545223Y-62166851D01*
X121545223Y-62166851D02*
X121583928Y-62089441D01*
X121583928Y-62089441D02*
X121661337Y-62050737D01*
X121661337Y-62050737D02*
X121816156Y-62050737D01*
X121816156Y-62050737D02*
X121893566Y-62089441D01*
X121545223Y-62553899D02*
X121622632Y-62592603D01*
X121622632Y-62592603D02*
X121816156Y-62592603D01*
X121816156Y-62592603D02*
X121893566Y-62553899D01*
X121893566Y-62553899D02*
X121932270Y-62476489D01*
X121932270Y-62476489D02*
X121932270Y-62399079D01*
X121932270Y-62399079D02*
X121893566Y-62321670D01*
X121893566Y-62321670D02*
X121816156Y-62282965D01*
X121816156Y-62282965D02*
X121622632Y-62282965D01*
X121622632Y-62282965D02*
X121545223Y-62244260D01*
X148492603Y-58158243D02*
X148105556Y-57887310D01*
X148492603Y-57693786D02*
X147679803Y-57693786D01*
X147679803Y-57693786D02*
X147679803Y-58003424D01*
X147679803Y-58003424D02*
X147718508Y-58080834D01*
X147718508Y-58080834D02*
X147757213Y-58119539D01*
X147757213Y-58119539D02*
X147834622Y-58158243D01*
X147834622Y-58158243D02*
X147950737Y-58158243D01*
X147950737Y-58158243D02*
X148028146Y-58119539D01*
X148028146Y-58119539D02*
X148066851Y-58080834D01*
X148066851Y-58080834D02*
X148105556Y-58003424D01*
X148105556Y-58003424D02*
X148105556Y-57693786D01*
X148453899Y-58816224D02*
X148492603Y-58738815D01*
X148492603Y-58738815D02*
X148492603Y-58583996D01*
X148492603Y-58583996D02*
X148453899Y-58506586D01*
X148453899Y-58506586D02*
X148376489Y-58467882D01*
X148376489Y-58467882D02*
X148066851Y-58467882D01*
X148066851Y-58467882D02*
X147989441Y-58506586D01*
X147989441Y-58506586D02*
X147950737Y-58583996D01*
X147950737Y-58583996D02*
X147950737Y-58738815D01*
X147950737Y-58738815D02*
X147989441Y-58816224D01*
X147989441Y-58816224D02*
X148066851Y-58854929D01*
X148066851Y-58854929D02*
X148144260Y-58854929D01*
X148144260Y-58854929D02*
X148221670Y-58467882D01*
X148453899Y-59164568D02*
X148492603Y-59241977D01*
X148492603Y-59241977D02*
X148492603Y-59396796D01*
X148492603Y-59396796D02*
X148453899Y-59474206D01*
X148453899Y-59474206D02*
X148376489Y-59512910D01*
X148376489Y-59512910D02*
X148337784Y-59512910D01*
X148337784Y-59512910D02*
X148260375Y-59474206D01*
X148260375Y-59474206D02*
X148221670Y-59396796D01*
X148221670Y-59396796D02*
X148221670Y-59280682D01*
X148221670Y-59280682D02*
X148182965Y-59203272D01*
X148182965Y-59203272D02*
X148105556Y-59164568D01*
X148105556Y-59164568D02*
X148066851Y-59164568D01*
X148066851Y-59164568D02*
X147989441Y-59203272D01*
X147989441Y-59203272D02*
X147950737Y-59280682D01*
X147950737Y-59280682D02*
X147950737Y-59396796D01*
X147950737Y-59396796D02*
X147989441Y-59474206D01*
X148453899Y-60170891D02*
X148492603Y-60093482D01*
X148492603Y-60093482D02*
X148492603Y-59938663D01*
X148492603Y-59938663D02*
X148453899Y-59861253D01*
X148453899Y-59861253D02*
X148376489Y-59822549D01*
X148376489Y-59822549D02*
X148066851Y-59822549D01*
X148066851Y-59822549D02*
X147989441Y-59861253D01*
X147989441Y-59861253D02*
X147950737Y-59938663D01*
X147950737Y-59938663D02*
X147950737Y-60093482D01*
X147950737Y-60093482D02*
X147989441Y-60170891D01*
X147989441Y-60170891D02*
X148066851Y-60209596D01*
X148066851Y-60209596D02*
X148144260Y-60209596D01*
X148144260Y-60209596D02*
X148221670Y-59822549D01*
X147950737Y-60441825D02*
X147950737Y-60751463D01*
X147679803Y-60557939D02*
X148376489Y-60557939D01*
X148376489Y-60557939D02*
X148453899Y-60596644D01*
X148453899Y-60596644D02*
X148492603Y-60674054D01*
X148492603Y-60674054D02*
X148492603Y-60751463D01*
X136018508Y-66619539D02*
X135979803Y-66542129D01*
X135979803Y-66542129D02*
X135979803Y-66426015D01*
X135979803Y-66426015D02*
X136018508Y-66309901D01*
X136018508Y-66309901D02*
X136095918Y-66232491D01*
X136095918Y-66232491D02*
X136173327Y-66193786D01*
X136173327Y-66193786D02*
X136328146Y-66155082D01*
X136328146Y-66155082D02*
X136444260Y-66155082D01*
X136444260Y-66155082D02*
X136599079Y-66193786D01*
X136599079Y-66193786D02*
X136676489Y-66232491D01*
X136676489Y-66232491D02*
X136753899Y-66309901D01*
X136753899Y-66309901D02*
X136792603Y-66426015D01*
X136792603Y-66426015D02*
X136792603Y-66503424D01*
X136792603Y-66503424D02*
X136753899Y-66619539D01*
X136753899Y-66619539D02*
X136715194Y-66658243D01*
X136715194Y-66658243D02*
X136444260Y-66658243D01*
X136444260Y-66658243D02*
X136444260Y-66503424D01*
X136792603Y-67006586D02*
X135979803Y-67006586D01*
X135979803Y-67006586D02*
X136792603Y-67471043D01*
X136792603Y-67471043D02*
X135979803Y-67471043D01*
X136792603Y-67858091D02*
X135979803Y-67858091D01*
X135979803Y-67858091D02*
X135979803Y-68051615D01*
X135979803Y-68051615D02*
X136018508Y-68167729D01*
X136018508Y-68167729D02*
X136095918Y-68245139D01*
X136095918Y-68245139D02*
X136173327Y-68283844D01*
X136173327Y-68283844D02*
X136328146Y-68322548D01*
X136328146Y-68322548D02*
X136444260Y-68322548D01*
X136444260Y-68322548D02*
X136599079Y-68283844D01*
X136599079Y-68283844D02*
X136676489Y-68245139D01*
X136676489Y-68245139D02*
X136753899Y-68167729D01*
X136753899Y-68167729D02*
X136792603Y-68051615D01*
X136792603Y-68051615D02*
X136792603Y-67858091D01*
X133792603Y-53819539D02*
X133792603Y-53355082D01*
X133792603Y-53587310D02*
X132979803Y-53587310D01*
X132979803Y-53587310D02*
X133095918Y-53509901D01*
X133095918Y-53509901D02*
X133173327Y-53432491D01*
X133173327Y-53432491D02*
X133212032Y-53355082D01*
X133057213Y-54129177D02*
X133018508Y-54167881D01*
X133018508Y-54167881D02*
X132979803Y-54245291D01*
X132979803Y-54245291D02*
X132979803Y-54438815D01*
X132979803Y-54438815D02*
X133018508Y-54516224D01*
X133018508Y-54516224D02*
X133057213Y-54554929D01*
X133057213Y-54554929D02*
X133134622Y-54593634D01*
X133134622Y-54593634D02*
X133212032Y-54593634D01*
X133212032Y-54593634D02*
X133328146Y-54554929D01*
X133328146Y-54554929D02*
X133792603Y-54090472D01*
X133792603Y-54090472D02*
X133792603Y-54593634D01*
X133482965Y-54941976D02*
X133482965Y-55561253D01*
X133057213Y-55909596D02*
X133018508Y-55948300D01*
X133018508Y-55948300D02*
X132979803Y-56025710D01*
X132979803Y-56025710D02*
X132979803Y-56219234D01*
X132979803Y-56219234D02*
X133018508Y-56296643D01*
X133018508Y-56296643D02*
X133057213Y-56335348D01*
X133057213Y-56335348D02*
X133134622Y-56374053D01*
X133134622Y-56374053D02*
X133212032Y-56374053D01*
X133212032Y-56374053D02*
X133328146Y-56335348D01*
X133328146Y-56335348D02*
X133792603Y-55870891D01*
X133792603Y-55870891D02*
X133792603Y-56374053D01*
X133250737Y-57070738D02*
X133792603Y-57070738D01*
X132941099Y-56877214D02*
X133521670Y-56683691D01*
X133521670Y-56683691D02*
X133521670Y-57186852D01*
X132979803Y-57380376D02*
X133792603Y-57651309D01*
X133792603Y-57651309D02*
X132979803Y-57922243D01*
X124022327Y-68779803D02*
X123751394Y-69592603D01*
X123751394Y-69592603D02*
X123480460Y-68779803D01*
X122745070Y-69515194D02*
X122783774Y-69553899D01*
X122783774Y-69553899D02*
X122899889Y-69592603D01*
X122899889Y-69592603D02*
X122977298Y-69592603D01*
X122977298Y-69592603D02*
X123093412Y-69553899D01*
X123093412Y-69553899D02*
X123170822Y-69476489D01*
X123170822Y-69476489D02*
X123209527Y-69399079D01*
X123209527Y-69399079D02*
X123248231Y-69244260D01*
X123248231Y-69244260D02*
X123248231Y-69128146D01*
X123248231Y-69128146D02*
X123209527Y-68973327D01*
X123209527Y-68973327D02*
X123170822Y-68895918D01*
X123170822Y-68895918D02*
X123093412Y-68818508D01*
X123093412Y-68818508D02*
X122977298Y-68779803D01*
X122977298Y-68779803D02*
X122899889Y-68779803D01*
X122899889Y-68779803D02*
X122783774Y-68818508D01*
X122783774Y-68818508D02*
X122745070Y-68857213D01*
X121932270Y-69515194D02*
X121970974Y-69553899D01*
X121970974Y-69553899D02*
X122087089Y-69592603D01*
X122087089Y-69592603D02*
X122164498Y-69592603D01*
X122164498Y-69592603D02*
X122280612Y-69553899D01*
X122280612Y-69553899D02*
X122358022Y-69476489D01*
X122358022Y-69476489D02*
X122396727Y-69399079D01*
X122396727Y-69399079D02*
X122435431Y-69244260D01*
X122435431Y-69244260D02*
X122435431Y-69128146D01*
X122435431Y-69128146D02*
X122396727Y-68973327D01*
X122396727Y-68973327D02*
X122358022Y-68895918D01*
X122358022Y-68895918D02*
X122280612Y-68818508D01*
X122280612Y-68818508D02*
X122164498Y-68779803D01*
X122164498Y-68779803D02*
X122087089Y-68779803D01*
X122087089Y-68779803D02*
X121970974Y-68818508D01*
X121970974Y-68818508D02*
X121932270Y-68857213D01*
X123580460Y-57618508D02*
X123657870Y-57579803D01*
X123657870Y-57579803D02*
X123773984Y-57579803D01*
X123773984Y-57579803D02*
X123890098Y-57618508D01*
X123890098Y-57618508D02*
X123967508Y-57695918D01*
X123967508Y-57695918D02*
X124006213Y-57773327D01*
X124006213Y-57773327D02*
X124044917Y-57928146D01*
X124044917Y-57928146D02*
X124044917Y-58044260D01*
X124044917Y-58044260D02*
X124006213Y-58199079D01*
X124006213Y-58199079D02*
X123967508Y-58276489D01*
X123967508Y-58276489D02*
X123890098Y-58353899D01*
X123890098Y-58353899D02*
X123773984Y-58392603D01*
X123773984Y-58392603D02*
X123696575Y-58392603D01*
X123696575Y-58392603D02*
X123580460Y-58353899D01*
X123580460Y-58353899D02*
X123541756Y-58315194D01*
X123541756Y-58315194D02*
X123541756Y-58044260D01*
X123541756Y-58044260D02*
X123696575Y-58044260D01*
X123193413Y-58392603D02*
X123193413Y-57579803D01*
X123193413Y-57579803D02*
X122728956Y-58392603D01*
X122728956Y-58392603D02*
X122728956Y-57579803D01*
X122341908Y-58392603D02*
X122341908Y-57579803D01*
X122341908Y-57579803D02*
X122148384Y-57579803D01*
X122148384Y-57579803D02*
X122032270Y-57618508D01*
X122032270Y-57618508D02*
X121954860Y-57695918D01*
X121954860Y-57695918D02*
X121916155Y-57773327D01*
X121916155Y-57773327D02*
X121877451Y-57928146D01*
X121877451Y-57928146D02*
X121877451Y-58044260D01*
X121877451Y-58044260D02*
X121916155Y-58199079D01*
X121916155Y-58199079D02*
X121954860Y-58276489D01*
X121954860Y-58276489D02*
X122032270Y-58353899D01*
X122032270Y-58353899D02*
X122148384Y-58392603D01*
X122148384Y-58392603D02*
X122341908Y-58392603D01*
X148579803Y-54080834D02*
X148579803Y-53693786D01*
X148579803Y-53693786D02*
X148966851Y-53655082D01*
X148966851Y-53655082D02*
X148928146Y-53693786D01*
X148928146Y-53693786D02*
X148889441Y-53771196D01*
X148889441Y-53771196D02*
X148889441Y-53964720D01*
X148889441Y-53964720D02*
X148928146Y-54042129D01*
X148928146Y-54042129D02*
X148966851Y-54080834D01*
X148966851Y-54080834D02*
X149044260Y-54119539D01*
X149044260Y-54119539D02*
X149237784Y-54119539D01*
X149237784Y-54119539D02*
X149315194Y-54080834D01*
X149315194Y-54080834D02*
X149353899Y-54042129D01*
X149353899Y-54042129D02*
X149392603Y-53964720D01*
X149392603Y-53964720D02*
X149392603Y-53771196D01*
X149392603Y-53771196D02*
X149353899Y-53693786D01*
X149353899Y-53693786D02*
X149315194Y-53655082D01*
X148579803Y-54351767D02*
X149392603Y-54622700D01*
X149392603Y-54622700D02*
X148579803Y-54893634D01*
X146322327Y-60654117D02*
X146051394Y-61466917D01*
X146051394Y-61466917D02*
X145780460Y-60654117D01*
X144735432Y-60654117D02*
X144658022Y-60654117D01*
X144658022Y-60654117D02*
X144580613Y-60692822D01*
X144580613Y-60692822D02*
X144541908Y-60731527D01*
X144541908Y-60731527D02*
X144503203Y-60808936D01*
X144503203Y-60808936D02*
X144464498Y-60963755D01*
X144464498Y-60963755D02*
X144464498Y-61157279D01*
X144464498Y-61157279D02*
X144503203Y-61312098D01*
X144503203Y-61312098D02*
X144541908Y-61389508D01*
X144541908Y-61389508D02*
X144580613Y-61428213D01*
X144580613Y-61428213D02*
X144658022Y-61466917D01*
X144658022Y-61466917D02*
X144735432Y-61466917D01*
X144735432Y-61466917D02*
X144812841Y-61428213D01*
X144812841Y-61428213D02*
X144851546Y-61389508D01*
X144851546Y-61389508D02*
X144890251Y-61312098D01*
X144890251Y-61312098D02*
X144928955Y-61157279D01*
X144928955Y-61157279D02*
X144928955Y-60963755D01*
X144928955Y-60963755D02*
X144890251Y-60808936D01*
X144890251Y-60808936D02*
X144851546Y-60731527D01*
X144851546Y-60731527D02*
X144812841Y-60692822D01*
X144812841Y-60692822D02*
X144735432Y-60654117D01*
X144116156Y-61389508D02*
X144077451Y-61428213D01*
X144077451Y-61428213D02*
X144116156Y-61466917D01*
X144116156Y-61466917D02*
X144154860Y-61428213D01*
X144154860Y-61428213D02*
X144116156Y-61389508D01*
X144116156Y-61389508D02*
X144116156Y-61466917D01*
X143303355Y-61466917D02*
X143767812Y-61466917D01*
X143535584Y-61466917D02*
X143535584Y-60654117D01*
X143535584Y-60654117D02*
X143612993Y-60770232D01*
X143612993Y-60770232D02*
X143690403Y-60847641D01*
X143690403Y-60847641D02*
X143767812Y-60886346D01*
X146051394Y-61962679D02*
X145973984Y-61962679D01*
X145973984Y-61962679D02*
X145896575Y-62001384D01*
X145896575Y-62001384D02*
X145857870Y-62040089D01*
X145857870Y-62040089D02*
X145819165Y-62117498D01*
X145819165Y-62117498D02*
X145780460Y-62272317D01*
X145780460Y-62272317D02*
X145780460Y-62465841D01*
X145780460Y-62465841D02*
X145819165Y-62620660D01*
X145819165Y-62620660D02*
X145857870Y-62698070D01*
X145857870Y-62698070D02*
X145896575Y-62736775D01*
X145896575Y-62736775D02*
X145973984Y-62775479D01*
X145973984Y-62775479D02*
X146051394Y-62775479D01*
X146051394Y-62775479D02*
X146128803Y-62736775D01*
X146128803Y-62736775D02*
X146167508Y-62698070D01*
X146167508Y-62698070D02*
X146206213Y-62620660D01*
X146206213Y-62620660D02*
X146244917Y-62465841D01*
X146244917Y-62465841D02*
X146244917Y-62272317D01*
X146244917Y-62272317D02*
X146206213Y-62117498D01*
X146206213Y-62117498D02*
X146167508Y-62040089D01*
X146167508Y-62040089D02*
X146128803Y-62001384D01*
X146128803Y-62001384D02*
X146051394Y-61962679D01*
X145509527Y-61962679D02*
X145006365Y-61962679D01*
X145006365Y-61962679D02*
X145277299Y-62272317D01*
X145277299Y-62272317D02*
X145161184Y-62272317D01*
X145161184Y-62272317D02*
X145083775Y-62311022D01*
X145083775Y-62311022D02*
X145045070Y-62349727D01*
X145045070Y-62349727D02*
X145006365Y-62427136D01*
X145006365Y-62427136D02*
X145006365Y-62620660D01*
X145006365Y-62620660D02*
X145045070Y-62698070D01*
X145045070Y-62698070D02*
X145083775Y-62736775D01*
X145083775Y-62736775D02*
X145161184Y-62775479D01*
X145161184Y-62775479D02*
X145393413Y-62775479D01*
X145393413Y-62775479D02*
X145470822Y-62736775D01*
X145470822Y-62736775D02*
X145509527Y-62698070D01*
X144077451Y-61923975D02*
X144774137Y-62969003D01*
X143845222Y-62040089D02*
X143806518Y-62001384D01*
X143806518Y-62001384D02*
X143729108Y-61962679D01*
X143729108Y-61962679D02*
X143535584Y-61962679D01*
X143535584Y-61962679D02*
X143458175Y-62001384D01*
X143458175Y-62001384D02*
X143419470Y-62040089D01*
X143419470Y-62040089D02*
X143380765Y-62117498D01*
X143380765Y-62117498D02*
X143380765Y-62194908D01*
X143380765Y-62194908D02*
X143419470Y-62311022D01*
X143419470Y-62311022D02*
X143883927Y-62775479D01*
X143883927Y-62775479D02*
X143380765Y-62775479D01*
X142877604Y-61962679D02*
X142800194Y-61962679D01*
X142800194Y-61962679D02*
X142722785Y-62001384D01*
X142722785Y-62001384D02*
X142684080Y-62040089D01*
X142684080Y-62040089D02*
X142645375Y-62117498D01*
X142645375Y-62117498D02*
X142606670Y-62272317D01*
X142606670Y-62272317D02*
X142606670Y-62465841D01*
X142606670Y-62465841D02*
X142645375Y-62620660D01*
X142645375Y-62620660D02*
X142684080Y-62698070D01*
X142684080Y-62698070D02*
X142722785Y-62736775D01*
X142722785Y-62736775D02*
X142800194Y-62775479D01*
X142800194Y-62775479D02*
X142877604Y-62775479D01*
X142877604Y-62775479D02*
X142955013Y-62736775D01*
X142955013Y-62736775D02*
X142993718Y-62698070D01*
X142993718Y-62698070D02*
X143032423Y-62620660D01*
X143032423Y-62620660D02*
X143071127Y-62465841D01*
X143071127Y-62465841D02*
X143071127Y-62272317D01*
X143071127Y-62272317D02*
X143032423Y-62117498D01*
X143032423Y-62117498D02*
X142993718Y-62040089D01*
X142993718Y-62040089D02*
X142955013Y-62001384D01*
X142955013Y-62001384D02*
X142877604Y-61962679D01*
X142297032Y-62040089D02*
X142258328Y-62001384D01*
X142258328Y-62001384D02*
X142180918Y-61962679D01*
X142180918Y-61962679D02*
X141987394Y-61962679D01*
X141987394Y-61962679D02*
X141909985Y-62001384D01*
X141909985Y-62001384D02*
X141871280Y-62040089D01*
X141871280Y-62040089D02*
X141832575Y-62117498D01*
X141832575Y-62117498D02*
X141832575Y-62194908D01*
X141832575Y-62194908D02*
X141871280Y-62311022D01*
X141871280Y-62311022D02*
X142335737Y-62775479D01*
X142335737Y-62775479D02*
X141832575Y-62775479D01*
X141135890Y-61962679D02*
X141290709Y-61962679D01*
X141290709Y-61962679D02*
X141368118Y-62001384D01*
X141368118Y-62001384D02*
X141406823Y-62040089D01*
X141406823Y-62040089D02*
X141484233Y-62156203D01*
X141484233Y-62156203D02*
X141522937Y-62311022D01*
X141522937Y-62311022D02*
X141522937Y-62620660D01*
X141522937Y-62620660D02*
X141484233Y-62698070D01*
X141484233Y-62698070D02*
X141445528Y-62736775D01*
X141445528Y-62736775D02*
X141368118Y-62775479D01*
X141368118Y-62775479D02*
X141213299Y-62775479D01*
X141213299Y-62775479D02*
X141135890Y-62736775D01*
X141135890Y-62736775D02*
X141097185Y-62698070D01*
X141097185Y-62698070D02*
X141058480Y-62620660D01*
X141058480Y-62620660D02*
X141058480Y-62427136D01*
X141058480Y-62427136D02*
X141097185Y-62349727D01*
X141097185Y-62349727D02*
X141135890Y-62311022D01*
X141135890Y-62311022D02*
X141213299Y-62272317D01*
X141213299Y-62272317D02*
X141368118Y-62272317D01*
X141368118Y-62272317D02*
X141445528Y-62311022D01*
X141445528Y-62311022D02*
X141484233Y-62349727D01*
X141484233Y-62349727D02*
X141522937Y-62427136D01*
X146206213Y-64084041D02*
X146206213Y-63271241D01*
X145741756Y-64084041D02*
X146090098Y-63619584D01*
X145741756Y-63271241D02*
X146206213Y-63735698D01*
X145045070Y-64084041D02*
X145045070Y-63658289D01*
X145045070Y-63658289D02*
X145083775Y-63580879D01*
X145083775Y-63580879D02*
X145161184Y-63542175D01*
X145161184Y-63542175D02*
X145316003Y-63542175D01*
X145316003Y-63542175D02*
X145393413Y-63580879D01*
X145045070Y-64045337D02*
X145122479Y-64084041D01*
X145122479Y-64084041D02*
X145316003Y-64084041D01*
X145316003Y-64084041D02*
X145393413Y-64045337D01*
X145393413Y-64045337D02*
X145432117Y-63967927D01*
X145432117Y-63967927D02*
X145432117Y-63890517D01*
X145432117Y-63890517D02*
X145393413Y-63813108D01*
X145393413Y-63813108D02*
X145316003Y-63774403D01*
X145316003Y-63774403D02*
X145122479Y-63774403D01*
X145122479Y-63774403D02*
X145045070Y-63735698D01*
X144658023Y-63542175D02*
X144658023Y-64354975D01*
X144658023Y-63580879D02*
X144580613Y-63542175D01*
X144580613Y-63542175D02*
X144425794Y-63542175D01*
X144425794Y-63542175D02*
X144348385Y-63580879D01*
X144348385Y-63580879D02*
X144309680Y-63619584D01*
X144309680Y-63619584D02*
X144270975Y-63696994D01*
X144270975Y-63696994D02*
X144270975Y-63929222D01*
X144270975Y-63929222D02*
X144309680Y-64006632D01*
X144309680Y-64006632D02*
X144348385Y-64045337D01*
X144348385Y-64045337D02*
X144425794Y-64084041D01*
X144425794Y-64084041D02*
X144580613Y-64084041D01*
X144580613Y-64084041D02*
X144658023Y-64045337D01*
X143922633Y-63542175D02*
X143922633Y-64354975D01*
X143922633Y-63580879D02*
X143845223Y-63542175D01*
X143845223Y-63542175D02*
X143690404Y-63542175D01*
X143690404Y-63542175D02*
X143612995Y-63580879D01*
X143612995Y-63580879D02*
X143574290Y-63619584D01*
X143574290Y-63619584D02*
X143535585Y-63696994D01*
X143535585Y-63696994D02*
X143535585Y-63929222D01*
X143535585Y-63929222D02*
X143574290Y-64006632D01*
X143574290Y-64006632D02*
X143612995Y-64045337D01*
X143612995Y-64045337D02*
X143690404Y-64084041D01*
X143690404Y-64084041D02*
X143845223Y-64084041D01*
X143845223Y-64084041D02*
X143922633Y-64045337D01*
X143187243Y-64084041D02*
X143187243Y-63542175D01*
X143187243Y-63271241D02*
X143225947Y-63309946D01*
X143225947Y-63309946D02*
X143187243Y-63348651D01*
X143187243Y-63348651D02*
X143148538Y-63309946D01*
X143148538Y-63309946D02*
X143187243Y-63271241D01*
X143187243Y-63271241D02*
X143187243Y-63348651D01*
X142645376Y-63271241D02*
X142567966Y-63271241D01*
X142567966Y-63271241D02*
X142490557Y-63309946D01*
X142490557Y-63309946D02*
X142451852Y-63348651D01*
X142451852Y-63348651D02*
X142413147Y-63426060D01*
X142413147Y-63426060D02*
X142374442Y-63580879D01*
X142374442Y-63580879D02*
X142374442Y-63774403D01*
X142374442Y-63774403D02*
X142413147Y-63929222D01*
X142413147Y-63929222D02*
X142451852Y-64006632D01*
X142451852Y-64006632D02*
X142490557Y-64045337D01*
X142490557Y-64045337D02*
X142567966Y-64084041D01*
X142567966Y-64084041D02*
X142645376Y-64084041D01*
X142645376Y-64084041D02*
X142722785Y-64045337D01*
X142722785Y-64045337D02*
X142761490Y-64006632D01*
X142761490Y-64006632D02*
X142800195Y-63929222D01*
X142800195Y-63929222D02*
X142838899Y-63774403D01*
X142838899Y-63774403D02*
X142838899Y-63580879D01*
X142838899Y-63580879D02*
X142800195Y-63426060D01*
X142800195Y-63426060D02*
X142761490Y-63348651D01*
X142761490Y-63348651D02*
X142722785Y-63309946D01*
X142722785Y-63309946D02*
X142645376Y-63271241D01*
X141909985Y-63619584D02*
X141987395Y-63580879D01*
X141987395Y-63580879D02*
X142026100Y-63542175D01*
X142026100Y-63542175D02*
X142064804Y-63464765D01*
X142064804Y-63464765D02*
X142064804Y-63426060D01*
X142064804Y-63426060D02*
X142026100Y-63348651D01*
X142026100Y-63348651D02*
X141987395Y-63309946D01*
X141987395Y-63309946D02*
X141909985Y-63271241D01*
X141909985Y-63271241D02*
X141755166Y-63271241D01*
X141755166Y-63271241D02*
X141677757Y-63309946D01*
X141677757Y-63309946D02*
X141639052Y-63348651D01*
X141639052Y-63348651D02*
X141600347Y-63426060D01*
X141600347Y-63426060D02*
X141600347Y-63464765D01*
X141600347Y-63464765D02*
X141639052Y-63542175D01*
X141639052Y-63542175D02*
X141677757Y-63580879D01*
X141677757Y-63580879D02*
X141755166Y-63619584D01*
X141755166Y-63619584D02*
X141909985Y-63619584D01*
X141909985Y-63619584D02*
X141987395Y-63658289D01*
X141987395Y-63658289D02*
X142026100Y-63696994D01*
X142026100Y-63696994D02*
X142064804Y-63774403D01*
X142064804Y-63774403D02*
X142064804Y-63929222D01*
X142064804Y-63929222D02*
X142026100Y-64006632D01*
X142026100Y-64006632D02*
X141987395Y-64045337D01*
X141987395Y-64045337D02*
X141909985Y-64084041D01*
X141909985Y-64084041D02*
X141755166Y-64084041D01*
X141755166Y-64084041D02*
X141677757Y-64045337D01*
X141677757Y-64045337D02*
X141639052Y-64006632D01*
X141639052Y-64006632D02*
X141600347Y-63929222D01*
X141600347Y-63929222D02*
X141600347Y-63774403D01*
X141600347Y-63774403D02*
X141639052Y-63696994D01*
X141639052Y-63696994D02*
X141677757Y-63658289D01*
X141677757Y-63658289D02*
X141755166Y-63619584D01*
X140903662Y-63542175D02*
X140903662Y-64084041D01*
X141097186Y-63232537D02*
X141290709Y-63813108D01*
X141290709Y-63813108D02*
X140787548Y-63813108D01*
X145857870Y-64850737D02*
X145857870Y-65508718D01*
X145857870Y-65508718D02*
X145896575Y-65586127D01*
X145896575Y-65586127D02*
X145935279Y-65624832D01*
X145935279Y-65624832D02*
X146012689Y-65663537D01*
X146012689Y-65663537D02*
X146128803Y-65663537D01*
X146128803Y-65663537D02*
X146206213Y-65624832D01*
X145857870Y-65353899D02*
X145935279Y-65392603D01*
X145935279Y-65392603D02*
X146090098Y-65392603D01*
X146090098Y-65392603D02*
X146167508Y-65353899D01*
X146167508Y-65353899D02*
X146206213Y-65315194D01*
X146206213Y-65315194D02*
X146244917Y-65237784D01*
X146244917Y-65237784D02*
X146244917Y-65005556D01*
X146244917Y-65005556D02*
X146206213Y-64928146D01*
X146206213Y-64928146D02*
X146167508Y-64889441D01*
X146167508Y-64889441D02*
X146090098Y-64850737D01*
X146090098Y-64850737D02*
X145935279Y-64850737D01*
X145935279Y-64850737D02*
X145857870Y-64889441D01*
X145470823Y-65392603D02*
X145470823Y-64850737D01*
X145470823Y-64579803D02*
X145509527Y-64618508D01*
X145509527Y-64618508D02*
X145470823Y-64657213D01*
X145470823Y-64657213D02*
X145432118Y-64618508D01*
X145432118Y-64618508D02*
X145470823Y-64579803D01*
X145470823Y-64579803D02*
X145470823Y-64657213D01*
X145199889Y-64850737D02*
X144890251Y-64850737D01*
X145083775Y-64579803D02*
X145083775Y-65276489D01*
X145083775Y-65276489D02*
X145045070Y-65353899D01*
X145045070Y-65353899D02*
X144967660Y-65392603D01*
X144967660Y-65392603D02*
X144890251Y-65392603D01*
X144619318Y-65392603D02*
X144619318Y-64579803D01*
X144270975Y-65392603D02*
X144270975Y-64966851D01*
X144270975Y-64966851D02*
X144309680Y-64889441D01*
X144309680Y-64889441D02*
X144387089Y-64850737D01*
X144387089Y-64850737D02*
X144503203Y-64850737D01*
X144503203Y-64850737D02*
X144580613Y-64889441D01*
X144580613Y-64889441D02*
X144619318Y-64928146D01*
X143535585Y-64850737D02*
X143535585Y-65392603D01*
X143883928Y-64850737D02*
X143883928Y-65276489D01*
X143883928Y-65276489D02*
X143845223Y-65353899D01*
X143845223Y-65353899D02*
X143767813Y-65392603D01*
X143767813Y-65392603D02*
X143651699Y-65392603D01*
X143651699Y-65392603D02*
X143574290Y-65353899D01*
X143574290Y-65353899D02*
X143535585Y-65315194D01*
X143148538Y-65392603D02*
X143148538Y-64579803D01*
X143148538Y-64889441D02*
X143071128Y-64850737D01*
X143071128Y-64850737D02*
X142916309Y-64850737D01*
X142916309Y-64850737D02*
X142838900Y-64889441D01*
X142838900Y-64889441D02*
X142800195Y-64928146D01*
X142800195Y-64928146D02*
X142761490Y-65005556D01*
X142761490Y-65005556D02*
X142761490Y-65237784D01*
X142761490Y-65237784D02*
X142800195Y-65315194D01*
X142800195Y-65315194D02*
X142838900Y-65353899D01*
X142838900Y-65353899D02*
X142916309Y-65392603D01*
X142916309Y-65392603D02*
X143071128Y-65392603D01*
X143071128Y-65392603D02*
X143148538Y-65353899D01*
X142413148Y-65315194D02*
X142374443Y-65353899D01*
X142374443Y-65353899D02*
X142413148Y-65392603D01*
X142413148Y-65392603D02*
X142451852Y-65353899D01*
X142451852Y-65353899D02*
X142413148Y-65315194D01*
X142413148Y-65315194D02*
X142413148Y-65392603D01*
X141677757Y-65353899D02*
X141755166Y-65392603D01*
X141755166Y-65392603D02*
X141909985Y-65392603D01*
X141909985Y-65392603D02*
X141987395Y-65353899D01*
X141987395Y-65353899D02*
X142026100Y-65315194D01*
X142026100Y-65315194D02*
X142064804Y-65237784D01*
X142064804Y-65237784D02*
X142064804Y-65005556D01*
X142064804Y-65005556D02*
X142026100Y-64928146D01*
X142026100Y-64928146D02*
X141987395Y-64889441D01*
X141987395Y-64889441D02*
X141909985Y-64850737D01*
X141909985Y-64850737D02*
X141755166Y-64850737D01*
X141755166Y-64850737D02*
X141677757Y-64889441D01*
X141213299Y-65392603D02*
X141290709Y-65353899D01*
X141290709Y-65353899D02*
X141329414Y-65315194D01*
X141329414Y-65315194D02*
X141368118Y-65237784D01*
X141368118Y-65237784D02*
X141368118Y-65005556D01*
X141368118Y-65005556D02*
X141329414Y-64928146D01*
X141329414Y-64928146D02*
X141290709Y-64889441D01*
X141290709Y-64889441D02*
X141213299Y-64850737D01*
X141213299Y-64850737D02*
X141097185Y-64850737D01*
X141097185Y-64850737D02*
X141019776Y-64889441D01*
X141019776Y-64889441D02*
X140981071Y-64928146D01*
X140981071Y-64928146D02*
X140942366Y-65005556D01*
X140942366Y-65005556D02*
X140942366Y-65237784D01*
X140942366Y-65237784D02*
X140981071Y-65315194D01*
X140981071Y-65315194D02*
X141019776Y-65353899D01*
X141019776Y-65353899D02*
X141097185Y-65392603D01*
X141097185Y-65392603D02*
X141213299Y-65392603D01*
X140594024Y-65392603D02*
X140594024Y-64850737D01*
X140594024Y-64928146D02*
X140555319Y-64889441D01*
X140555319Y-64889441D02*
X140477909Y-64850737D01*
X140477909Y-64850737D02*
X140361795Y-64850737D01*
X140361795Y-64850737D02*
X140284386Y-64889441D01*
X140284386Y-64889441D02*
X140245681Y-64966851D01*
X140245681Y-64966851D02*
X140245681Y-65392603D01*
X140245681Y-64966851D02*
X140206976Y-64889441D01*
X140206976Y-64889441D02*
X140129567Y-64850737D01*
X140129567Y-64850737D02*
X140013452Y-64850737D01*
X140013452Y-64850737D02*
X139936043Y-64889441D01*
X139936043Y-64889441D02*
X139897338Y-64966851D01*
X139897338Y-64966851D02*
X139897338Y-65392603D01*
X138929719Y-64541099D02*
X139626405Y-65586127D01*
X138658786Y-65392603D02*
X138658786Y-64579803D01*
X138194329Y-65392603D02*
X138542671Y-64928146D01*
X138194329Y-64579803D02*
X138658786Y-65044260D01*
X137497643Y-65392603D02*
X137497643Y-64966851D01*
X137497643Y-64966851D02*
X137536348Y-64889441D01*
X137536348Y-64889441D02*
X137613757Y-64850737D01*
X137613757Y-64850737D02*
X137768576Y-64850737D01*
X137768576Y-64850737D02*
X137845986Y-64889441D01*
X137497643Y-65353899D02*
X137575052Y-65392603D01*
X137575052Y-65392603D02*
X137768576Y-65392603D01*
X137768576Y-65392603D02*
X137845986Y-65353899D01*
X137845986Y-65353899D02*
X137884690Y-65276489D01*
X137884690Y-65276489D02*
X137884690Y-65199079D01*
X137884690Y-65199079D02*
X137845986Y-65121670D01*
X137845986Y-65121670D02*
X137768576Y-65082965D01*
X137768576Y-65082965D02*
X137575052Y-65082965D01*
X137575052Y-65082965D02*
X137497643Y-65044260D01*
X137110596Y-64850737D02*
X137110596Y-65663537D01*
X137110596Y-64889441D02*
X137033186Y-64850737D01*
X137033186Y-64850737D02*
X136878367Y-64850737D01*
X136878367Y-64850737D02*
X136800958Y-64889441D01*
X136800958Y-64889441D02*
X136762253Y-64928146D01*
X136762253Y-64928146D02*
X136723548Y-65005556D01*
X136723548Y-65005556D02*
X136723548Y-65237784D01*
X136723548Y-65237784D02*
X136762253Y-65315194D01*
X136762253Y-65315194D02*
X136800958Y-65353899D01*
X136800958Y-65353899D02*
X136878367Y-65392603D01*
X136878367Y-65392603D02*
X137033186Y-65392603D01*
X137033186Y-65392603D02*
X137110596Y-65353899D01*
X136375206Y-64850737D02*
X136375206Y-65663537D01*
X136375206Y-64889441D02*
X136297796Y-64850737D01*
X136297796Y-64850737D02*
X136142977Y-64850737D01*
X136142977Y-64850737D02*
X136065568Y-64889441D01*
X136065568Y-64889441D02*
X136026863Y-64928146D01*
X136026863Y-64928146D02*
X135988158Y-65005556D01*
X135988158Y-65005556D02*
X135988158Y-65237784D01*
X135988158Y-65237784D02*
X136026863Y-65315194D01*
X136026863Y-65315194D02*
X136065568Y-65353899D01*
X136065568Y-65353899D02*
X136142977Y-65392603D01*
X136142977Y-65392603D02*
X136297796Y-65392603D01*
X136297796Y-65392603D02*
X136375206Y-65353899D01*
X135639816Y-65392603D02*
X135639816Y-64850737D01*
X135639816Y-64579803D02*
X135678520Y-64618508D01*
X135678520Y-64618508D02*
X135639816Y-64657213D01*
X135639816Y-64657213D02*
X135601111Y-64618508D01*
X135601111Y-64618508D02*
X135639816Y-64579803D01*
X135639816Y-64579803D02*
X135639816Y-64657213D01*
X135097949Y-64579803D02*
X135020539Y-64579803D01*
X135020539Y-64579803D02*
X134943130Y-64618508D01*
X134943130Y-64618508D02*
X134904425Y-64657213D01*
X134904425Y-64657213D02*
X134865720Y-64734622D01*
X134865720Y-64734622D02*
X134827015Y-64889441D01*
X134827015Y-64889441D02*
X134827015Y-65082965D01*
X134827015Y-65082965D02*
X134865720Y-65237784D01*
X134865720Y-65237784D02*
X134904425Y-65315194D01*
X134904425Y-65315194D02*
X134943130Y-65353899D01*
X134943130Y-65353899D02*
X135020539Y-65392603D01*
X135020539Y-65392603D02*
X135097949Y-65392603D01*
X135097949Y-65392603D02*
X135175358Y-65353899D01*
X135175358Y-65353899D02*
X135214063Y-65315194D01*
X135214063Y-65315194D02*
X135252768Y-65237784D01*
X135252768Y-65237784D02*
X135291472Y-65082965D01*
X135291472Y-65082965D02*
X135291472Y-64889441D01*
X135291472Y-64889441D02*
X135252768Y-64734622D01*
X135252768Y-64734622D02*
X135214063Y-64657213D01*
X135214063Y-64657213D02*
X135175358Y-64618508D01*
X135175358Y-64618508D02*
X135097949Y-64579803D01*
X134362558Y-64928146D02*
X134439968Y-64889441D01*
X134439968Y-64889441D02*
X134478673Y-64850737D01*
X134478673Y-64850737D02*
X134517377Y-64773327D01*
X134517377Y-64773327D02*
X134517377Y-64734622D01*
X134517377Y-64734622D02*
X134478673Y-64657213D01*
X134478673Y-64657213D02*
X134439968Y-64618508D01*
X134439968Y-64618508D02*
X134362558Y-64579803D01*
X134362558Y-64579803D02*
X134207739Y-64579803D01*
X134207739Y-64579803D02*
X134130330Y-64618508D01*
X134130330Y-64618508D02*
X134091625Y-64657213D01*
X134091625Y-64657213D02*
X134052920Y-64734622D01*
X134052920Y-64734622D02*
X134052920Y-64773327D01*
X134052920Y-64773327D02*
X134091625Y-64850737D01*
X134091625Y-64850737D02*
X134130330Y-64889441D01*
X134130330Y-64889441D02*
X134207739Y-64928146D01*
X134207739Y-64928146D02*
X134362558Y-64928146D01*
X134362558Y-64928146D02*
X134439968Y-64966851D01*
X134439968Y-64966851D02*
X134478673Y-65005556D01*
X134478673Y-65005556D02*
X134517377Y-65082965D01*
X134517377Y-65082965D02*
X134517377Y-65237784D01*
X134517377Y-65237784D02*
X134478673Y-65315194D01*
X134478673Y-65315194D02*
X134439968Y-65353899D01*
X134439968Y-65353899D02*
X134362558Y-65392603D01*
X134362558Y-65392603D02*
X134207739Y-65392603D01*
X134207739Y-65392603D02*
X134130330Y-65353899D01*
X134130330Y-65353899D02*
X134091625Y-65315194D01*
X134091625Y-65315194D02*
X134052920Y-65237784D01*
X134052920Y-65237784D02*
X134052920Y-65082965D01*
X134052920Y-65082965D02*
X134091625Y-65005556D01*
X134091625Y-65005556D02*
X134130330Y-64966851D01*
X134130330Y-64966851D02*
X134207739Y-64928146D01*
X133356235Y-64850737D02*
X133356235Y-65392603D01*
X133549759Y-64541099D02*
X133743282Y-65121670D01*
X133743282Y-65121670D02*
X133240121Y-65121670D01*
X124122327Y-59779803D02*
X123851394Y-60592603D01*
X123851394Y-60592603D02*
X123580460Y-59779803D01*
X122845070Y-60515194D02*
X122883774Y-60553899D01*
X122883774Y-60553899D02*
X122999889Y-60592603D01*
X122999889Y-60592603D02*
X123077298Y-60592603D01*
X123077298Y-60592603D02*
X123193412Y-60553899D01*
X123193412Y-60553899D02*
X123270822Y-60476489D01*
X123270822Y-60476489D02*
X123309527Y-60399079D01*
X123309527Y-60399079D02*
X123348231Y-60244260D01*
X123348231Y-60244260D02*
X123348231Y-60128146D01*
X123348231Y-60128146D02*
X123309527Y-59973327D01*
X123309527Y-59973327D02*
X123270822Y-59895918D01*
X123270822Y-59895918D02*
X123193412Y-59818508D01*
X123193412Y-59818508D02*
X123077298Y-59779803D01*
X123077298Y-59779803D02*
X122999889Y-59779803D01*
X122999889Y-59779803D02*
X122883774Y-59818508D01*
X122883774Y-59818508D02*
X122845070Y-59857213D01*
X122032270Y-60515194D02*
X122070974Y-60553899D01*
X122070974Y-60553899D02*
X122187089Y-60592603D01*
X122187089Y-60592603D02*
X122264498Y-60592603D01*
X122264498Y-60592603D02*
X122380612Y-60553899D01*
X122380612Y-60553899D02*
X122458022Y-60476489D01*
X122458022Y-60476489D02*
X122496727Y-60399079D01*
X122496727Y-60399079D02*
X122535431Y-60244260D01*
X122535431Y-60244260D02*
X122535431Y-60128146D01*
X122535431Y-60128146D02*
X122496727Y-59973327D01*
X122496727Y-59973327D02*
X122458022Y-59895918D01*
X122458022Y-59895918D02*
X122380612Y-59818508D01*
X122380612Y-59818508D02*
X122264498Y-59779803D01*
X122264498Y-59779803D02*
X122187089Y-59779803D01*
X122187089Y-59779803D02*
X122070974Y-59818508D01*
X122070974Y-59818508D02*
X122032270Y-59857213D01*
X128653899Y-57955082D02*
X128692603Y-58071196D01*
X128692603Y-58071196D02*
X128692603Y-58264720D01*
X128692603Y-58264720D02*
X128653899Y-58342129D01*
X128653899Y-58342129D02*
X128615194Y-58380834D01*
X128615194Y-58380834D02*
X128537784Y-58419539D01*
X128537784Y-58419539D02*
X128460375Y-58419539D01*
X128460375Y-58419539D02*
X128382965Y-58380834D01*
X128382965Y-58380834D02*
X128344260Y-58342129D01*
X128344260Y-58342129D02*
X128305556Y-58264720D01*
X128305556Y-58264720D02*
X128266851Y-58109901D01*
X128266851Y-58109901D02*
X128228146Y-58032491D01*
X128228146Y-58032491D02*
X128189441Y-57993786D01*
X128189441Y-57993786D02*
X128112032Y-57955082D01*
X128112032Y-57955082D02*
X128034622Y-57955082D01*
X128034622Y-57955082D02*
X127957213Y-57993786D01*
X127957213Y-57993786D02*
X127918508Y-58032491D01*
X127918508Y-58032491D02*
X127879803Y-58109901D01*
X127879803Y-58109901D02*
X127879803Y-58303424D01*
X127879803Y-58303424D02*
X127918508Y-58419539D01*
X128653899Y-59077519D02*
X128692603Y-59000110D01*
X128692603Y-59000110D02*
X128692603Y-58845291D01*
X128692603Y-58845291D02*
X128653899Y-58767881D01*
X128653899Y-58767881D02*
X128576489Y-58729177D01*
X128576489Y-58729177D02*
X128266851Y-58729177D01*
X128266851Y-58729177D02*
X128189441Y-58767881D01*
X128189441Y-58767881D02*
X128150737Y-58845291D01*
X128150737Y-58845291D02*
X128150737Y-59000110D01*
X128150737Y-59000110D02*
X128189441Y-59077519D01*
X128189441Y-59077519D02*
X128266851Y-59116224D01*
X128266851Y-59116224D02*
X128344260Y-59116224D01*
X128344260Y-59116224D02*
X128421670Y-58729177D01*
X128692603Y-59464567D02*
X128150737Y-59464567D01*
X128305556Y-59464567D02*
X128228146Y-59503272D01*
X128228146Y-59503272D02*
X128189441Y-59541977D01*
X128189441Y-59541977D02*
X128150737Y-59619386D01*
X128150737Y-59619386D02*
X128150737Y-59696796D01*
X128150737Y-59890320D02*
X128692603Y-60083844D01*
X128692603Y-60083844D02*
X128150737Y-60277367D01*
X128692603Y-60703120D02*
X128653899Y-60625710D01*
X128653899Y-60625710D02*
X128615194Y-60587005D01*
X128615194Y-60587005D02*
X128537784Y-60548301D01*
X128537784Y-60548301D02*
X128305556Y-60548301D01*
X128305556Y-60548301D02*
X128228146Y-60587005D01*
X128228146Y-60587005D02*
X128189441Y-60625710D01*
X128189441Y-60625710D02*
X128150737Y-60703120D01*
X128150737Y-60703120D02*
X128150737Y-60819234D01*
X128150737Y-60819234D02*
X128189441Y-60896643D01*
X128189441Y-60896643D02*
X128228146Y-60935348D01*
X128228146Y-60935348D02*
X128305556Y-60974053D01*
X128305556Y-60974053D02*
X128537784Y-60974053D01*
X128537784Y-60974053D02*
X128615194Y-60935348D01*
X128615194Y-60935348D02*
X128653899Y-60896643D01*
X128653899Y-60896643D02*
X128692603Y-60819234D01*
X128692603Y-60819234D02*
X128692603Y-60703120D01*
X128692603Y-62367424D02*
X128692603Y-61902967D01*
X128692603Y-62135195D02*
X127879803Y-62135195D01*
X127879803Y-62135195D02*
X127995918Y-62057786D01*
X127995918Y-62057786D02*
X128073327Y-61980376D01*
X128073327Y-61980376D02*
X128112032Y-61902967D01*
X138206213Y-50592603D02*
X138206213Y-49779803D01*
X138206213Y-49779803D02*
X137896575Y-49779803D01*
X137896575Y-49779803D02*
X137819165Y-49818508D01*
X137819165Y-49818508D02*
X137780460Y-49857213D01*
X137780460Y-49857213D02*
X137741756Y-49934622D01*
X137741756Y-49934622D02*
X137741756Y-50050737D01*
X137741756Y-50050737D02*
X137780460Y-50128146D01*
X137780460Y-50128146D02*
X137819165Y-50166851D01*
X137819165Y-50166851D02*
X137896575Y-50205556D01*
X137896575Y-50205556D02*
X138206213Y-50205556D01*
X137277298Y-50592603D02*
X137354708Y-50553899D01*
X137354708Y-50553899D02*
X137393413Y-50515194D01*
X137393413Y-50515194D02*
X137432117Y-50437784D01*
X137432117Y-50437784D02*
X137432117Y-50205556D01*
X137432117Y-50205556D02*
X137393413Y-50128146D01*
X137393413Y-50128146D02*
X137354708Y-50089441D01*
X137354708Y-50089441D02*
X137277298Y-50050737D01*
X137277298Y-50050737D02*
X137161184Y-50050737D01*
X137161184Y-50050737D02*
X137083775Y-50089441D01*
X137083775Y-50089441D02*
X137045070Y-50128146D01*
X137045070Y-50128146D02*
X137006365Y-50205556D01*
X137006365Y-50205556D02*
X137006365Y-50437784D01*
X137006365Y-50437784D02*
X137045070Y-50515194D01*
X137045070Y-50515194D02*
X137083775Y-50553899D01*
X137083775Y-50553899D02*
X137161184Y-50592603D01*
X137161184Y-50592603D02*
X137277298Y-50592603D01*
X136735432Y-50050737D02*
X136580613Y-50592603D01*
X136580613Y-50592603D02*
X136425794Y-50205556D01*
X136425794Y-50205556D02*
X136270975Y-50592603D01*
X136270975Y-50592603D02*
X136116156Y-50050737D01*
X135496880Y-50553899D02*
X135574289Y-50592603D01*
X135574289Y-50592603D02*
X135729108Y-50592603D01*
X135729108Y-50592603D02*
X135806518Y-50553899D01*
X135806518Y-50553899D02*
X135845222Y-50476489D01*
X135845222Y-50476489D02*
X135845222Y-50166851D01*
X135845222Y-50166851D02*
X135806518Y-50089441D01*
X135806518Y-50089441D02*
X135729108Y-50050737D01*
X135729108Y-50050737D02*
X135574289Y-50050737D01*
X135574289Y-50050737D02*
X135496880Y-50089441D01*
X135496880Y-50089441D02*
X135458175Y-50166851D01*
X135458175Y-50166851D02*
X135458175Y-50244260D01*
X135458175Y-50244260D02*
X135845222Y-50321670D01*
X135109832Y-50592603D02*
X135109832Y-50050737D01*
X135109832Y-50205556D02*
X135071127Y-50128146D01*
X135071127Y-50128146D02*
X135032422Y-50089441D01*
X135032422Y-50089441D02*
X134955013Y-50050737D01*
X134955013Y-50050737D02*
X134877603Y-50050737D01*
X134026098Y-50553899D02*
X133909984Y-50592603D01*
X133909984Y-50592603D02*
X133716460Y-50592603D01*
X133716460Y-50592603D02*
X133639051Y-50553899D01*
X133639051Y-50553899D02*
X133600346Y-50515194D01*
X133600346Y-50515194D02*
X133561641Y-50437784D01*
X133561641Y-50437784D02*
X133561641Y-50360375D01*
X133561641Y-50360375D02*
X133600346Y-50282965D01*
X133600346Y-50282965D02*
X133639051Y-50244260D01*
X133639051Y-50244260D02*
X133716460Y-50205556D01*
X133716460Y-50205556D02*
X133871279Y-50166851D01*
X133871279Y-50166851D02*
X133948689Y-50128146D01*
X133948689Y-50128146D02*
X133987394Y-50089441D01*
X133987394Y-50089441D02*
X134026098Y-50012032D01*
X134026098Y-50012032D02*
X134026098Y-49934622D01*
X134026098Y-49934622D02*
X133987394Y-49857213D01*
X133987394Y-49857213D02*
X133948689Y-49818508D01*
X133948689Y-49818508D02*
X133871279Y-49779803D01*
X133871279Y-49779803D02*
X133677756Y-49779803D01*
X133677756Y-49779803D02*
X133561641Y-49818508D01*
X132903661Y-50553899D02*
X132981070Y-50592603D01*
X132981070Y-50592603D02*
X133135889Y-50592603D01*
X133135889Y-50592603D02*
X133213299Y-50553899D01*
X133213299Y-50553899D02*
X133252003Y-50476489D01*
X133252003Y-50476489D02*
X133252003Y-50166851D01*
X133252003Y-50166851D02*
X133213299Y-50089441D01*
X133213299Y-50089441D02*
X133135889Y-50050737D01*
X133135889Y-50050737D02*
X132981070Y-50050737D01*
X132981070Y-50050737D02*
X132903661Y-50089441D01*
X132903661Y-50089441D02*
X132864956Y-50166851D01*
X132864956Y-50166851D02*
X132864956Y-50244260D01*
X132864956Y-50244260D02*
X133252003Y-50321670D01*
X132516613Y-50592603D02*
X132516613Y-50050737D01*
X132516613Y-50205556D02*
X132477908Y-50128146D01*
X132477908Y-50128146D02*
X132439203Y-50089441D01*
X132439203Y-50089441D02*
X132361794Y-50050737D01*
X132361794Y-50050737D02*
X132284384Y-50050737D01*
X132090860Y-50050737D02*
X131897336Y-50592603D01*
X131897336Y-50592603D02*
X131703813Y-50050737D01*
X131278060Y-50592603D02*
X131355470Y-50553899D01*
X131355470Y-50553899D02*
X131394175Y-50515194D01*
X131394175Y-50515194D02*
X131432879Y-50437784D01*
X131432879Y-50437784D02*
X131432879Y-50205556D01*
X131432879Y-50205556D02*
X131394175Y-50128146D01*
X131394175Y-50128146D02*
X131355470Y-50089441D01*
X131355470Y-50089441D02*
X131278060Y-50050737D01*
X131278060Y-50050737D02*
X131161946Y-50050737D01*
X131161946Y-50050737D02*
X131084537Y-50089441D01*
X131084537Y-50089441D02*
X131045832Y-50128146D01*
X131045832Y-50128146D02*
X131007127Y-50205556D01*
X131007127Y-50205556D02*
X131007127Y-50437784D01*
X131007127Y-50437784D02*
X131045832Y-50515194D01*
X131045832Y-50515194D02*
X131084537Y-50553899D01*
X131084537Y-50553899D02*
X131161946Y-50592603D01*
X131161946Y-50592603D02*
X131278060Y-50592603D01*
X148606213Y-50392603D02*
X148606213Y-49579803D01*
X148606213Y-49579803D02*
X148296575Y-49579803D01*
X148296575Y-49579803D02*
X148219165Y-49618508D01*
X148219165Y-49618508D02*
X148180460Y-49657213D01*
X148180460Y-49657213D02*
X148141756Y-49734622D01*
X148141756Y-49734622D02*
X148141756Y-49850737D01*
X148141756Y-49850737D02*
X148180460Y-49928146D01*
X148180460Y-49928146D02*
X148219165Y-49966851D01*
X148219165Y-49966851D02*
X148296575Y-50005556D01*
X148296575Y-50005556D02*
X148606213Y-50005556D01*
X147793413Y-50392603D02*
X147793413Y-49850737D01*
X147793413Y-50005556D02*
X147754708Y-49928146D01*
X147754708Y-49928146D02*
X147716003Y-49889441D01*
X147716003Y-49889441D02*
X147638594Y-49850737D01*
X147638594Y-49850737D02*
X147561184Y-49850737D01*
X147174136Y-50392603D02*
X147251546Y-50353899D01*
X147251546Y-50353899D02*
X147290251Y-50315194D01*
X147290251Y-50315194D02*
X147328955Y-50237784D01*
X147328955Y-50237784D02*
X147328955Y-50005556D01*
X147328955Y-50005556D02*
X147290251Y-49928146D01*
X147290251Y-49928146D02*
X147251546Y-49889441D01*
X147251546Y-49889441D02*
X147174136Y-49850737D01*
X147174136Y-49850737D02*
X147058022Y-49850737D01*
X147058022Y-49850737D02*
X146980613Y-49889441D01*
X146980613Y-49889441D02*
X146941908Y-49928146D01*
X146941908Y-49928146D02*
X146903203Y-50005556D01*
X146903203Y-50005556D02*
X146903203Y-50237784D01*
X146903203Y-50237784D02*
X146941908Y-50315194D01*
X146941908Y-50315194D02*
X146980613Y-50353899D01*
X146980613Y-50353899D02*
X147058022Y-50392603D01*
X147058022Y-50392603D02*
X147174136Y-50392603D01*
X146206518Y-49850737D02*
X146206518Y-50508718D01*
X146206518Y-50508718D02*
X146245223Y-50586127D01*
X146245223Y-50586127D02*
X146283927Y-50624832D01*
X146283927Y-50624832D02*
X146361337Y-50663537D01*
X146361337Y-50663537D02*
X146477451Y-50663537D01*
X146477451Y-50663537D02*
X146554861Y-50624832D01*
X146206518Y-50353899D02*
X146283927Y-50392603D01*
X146283927Y-50392603D02*
X146438746Y-50392603D01*
X146438746Y-50392603D02*
X146516156Y-50353899D01*
X146516156Y-50353899D02*
X146554861Y-50315194D01*
X146554861Y-50315194D02*
X146593565Y-50237784D01*
X146593565Y-50237784D02*
X146593565Y-50005556D01*
X146593565Y-50005556D02*
X146554861Y-49928146D01*
X146554861Y-49928146D02*
X146516156Y-49889441D01*
X146516156Y-49889441D02*
X146438746Y-49850737D01*
X146438746Y-49850737D02*
X146283927Y-49850737D01*
X146283927Y-49850737D02*
X146206518Y-49889441D01*
X145819471Y-50392603D02*
X145819471Y-49850737D01*
X145819471Y-50005556D02*
X145780766Y-49928146D01*
X145780766Y-49928146D02*
X145742061Y-49889441D01*
X145742061Y-49889441D02*
X145664652Y-49850737D01*
X145664652Y-49850737D02*
X145587242Y-49850737D01*
X144967966Y-50392603D02*
X144967966Y-49966851D01*
X144967966Y-49966851D02*
X145006671Y-49889441D01*
X145006671Y-49889441D02*
X145084080Y-49850737D01*
X145084080Y-49850737D02*
X145238899Y-49850737D01*
X145238899Y-49850737D02*
X145316309Y-49889441D01*
X144967966Y-50353899D02*
X145045375Y-50392603D01*
X145045375Y-50392603D02*
X145238899Y-50392603D01*
X145238899Y-50392603D02*
X145316309Y-50353899D01*
X145316309Y-50353899D02*
X145355013Y-50276489D01*
X145355013Y-50276489D02*
X145355013Y-50199079D01*
X145355013Y-50199079D02*
X145316309Y-50121670D01*
X145316309Y-50121670D02*
X145238899Y-50082965D01*
X145238899Y-50082965D02*
X145045375Y-50082965D01*
X145045375Y-50082965D02*
X144967966Y-50044260D01*
X144580919Y-50392603D02*
X144580919Y-49850737D01*
X144580919Y-49928146D02*
X144542214Y-49889441D01*
X144542214Y-49889441D02*
X144464804Y-49850737D01*
X144464804Y-49850737D02*
X144348690Y-49850737D01*
X144348690Y-49850737D02*
X144271281Y-49889441D01*
X144271281Y-49889441D02*
X144232576Y-49966851D01*
X144232576Y-49966851D02*
X144232576Y-50392603D01*
X144232576Y-49966851D02*
X144193871Y-49889441D01*
X144193871Y-49889441D02*
X144116462Y-49850737D01*
X144116462Y-49850737D02*
X144000347Y-49850737D01*
X144000347Y-49850737D02*
X143922938Y-49889441D01*
X143922938Y-49889441D02*
X143884233Y-49966851D01*
X143884233Y-49966851D02*
X143884233Y-50392603D01*
X143497186Y-50392603D02*
X143497186Y-49850737D01*
X143497186Y-49928146D02*
X143458481Y-49889441D01*
X143458481Y-49889441D02*
X143381071Y-49850737D01*
X143381071Y-49850737D02*
X143264957Y-49850737D01*
X143264957Y-49850737D02*
X143187548Y-49889441D01*
X143187548Y-49889441D02*
X143148843Y-49966851D01*
X143148843Y-49966851D02*
X143148843Y-50392603D01*
X143148843Y-49966851D02*
X143110138Y-49889441D01*
X143110138Y-49889441D02*
X143032729Y-49850737D01*
X143032729Y-49850737D02*
X142916614Y-49850737D01*
X142916614Y-49850737D02*
X142839205Y-49889441D01*
X142839205Y-49889441D02*
X142800500Y-49966851D01*
X142800500Y-49966851D02*
X142800500Y-50392603D01*
X142413453Y-50392603D02*
X142413453Y-49850737D01*
X142413453Y-49579803D02*
X142452157Y-49618508D01*
X142452157Y-49618508D02*
X142413453Y-49657213D01*
X142413453Y-49657213D02*
X142374748Y-49618508D01*
X142374748Y-49618508D02*
X142413453Y-49579803D01*
X142413453Y-49579803D02*
X142413453Y-49657213D01*
X142026405Y-49850737D02*
X142026405Y-50392603D01*
X142026405Y-49928146D02*
X141987700Y-49889441D01*
X141987700Y-49889441D02*
X141910290Y-49850737D01*
X141910290Y-49850737D02*
X141794176Y-49850737D01*
X141794176Y-49850737D02*
X141716767Y-49889441D01*
X141716767Y-49889441D02*
X141678062Y-49966851D01*
X141678062Y-49966851D02*
X141678062Y-50392603D01*
X140942672Y-49850737D02*
X140942672Y-50508718D01*
X140942672Y-50508718D02*
X140981377Y-50586127D01*
X140981377Y-50586127D02*
X141020081Y-50624832D01*
X141020081Y-50624832D02*
X141097491Y-50663537D01*
X141097491Y-50663537D02*
X141213605Y-50663537D01*
X141213605Y-50663537D02*
X141291015Y-50624832D01*
X140942672Y-50353899D02*
X141020081Y-50392603D01*
X141020081Y-50392603D02*
X141174900Y-50392603D01*
X141174900Y-50392603D02*
X141252310Y-50353899D01*
X141252310Y-50353899D02*
X141291015Y-50315194D01*
X141291015Y-50315194D02*
X141329719Y-50237784D01*
X141329719Y-50237784D02*
X141329719Y-50005556D01*
X141329719Y-50005556D02*
X141291015Y-49928146D01*
X141291015Y-49928146D02*
X141252310Y-49889441D01*
X141252310Y-49889441D02*
X141174900Y-49850737D01*
X141174900Y-49850737D02*
X141020081Y-49850737D01*
X141020081Y-49850737D02*
X140942672Y-49889441D01*
X123806213Y-71592603D02*
X123806213Y-70779803D01*
X123806213Y-70779803D02*
X123612689Y-70779803D01*
X123612689Y-70779803D02*
X123496575Y-70818508D01*
X123496575Y-70818508D02*
X123419165Y-70895918D01*
X123419165Y-70895918D02*
X123380460Y-70973327D01*
X123380460Y-70973327D02*
X123341756Y-71128146D01*
X123341756Y-71128146D02*
X123341756Y-71244260D01*
X123341756Y-71244260D02*
X123380460Y-71399079D01*
X123380460Y-71399079D02*
X123419165Y-71476489D01*
X123419165Y-71476489D02*
X123496575Y-71553899D01*
X123496575Y-71553899D02*
X123612689Y-71592603D01*
X123612689Y-71592603D02*
X123806213Y-71592603D01*
X122645070Y-71592603D02*
X122645070Y-71166851D01*
X122645070Y-71166851D02*
X122683775Y-71089441D01*
X122683775Y-71089441D02*
X122761184Y-71050737D01*
X122761184Y-71050737D02*
X122916003Y-71050737D01*
X122916003Y-71050737D02*
X122993413Y-71089441D01*
X122645070Y-71553899D02*
X122722479Y-71592603D01*
X122722479Y-71592603D02*
X122916003Y-71592603D01*
X122916003Y-71592603D02*
X122993413Y-71553899D01*
X122993413Y-71553899D02*
X123032117Y-71476489D01*
X123032117Y-71476489D02*
X123032117Y-71399079D01*
X123032117Y-71399079D02*
X122993413Y-71321670D01*
X122993413Y-71321670D02*
X122916003Y-71282965D01*
X122916003Y-71282965D02*
X122722479Y-71282965D01*
X122722479Y-71282965D02*
X122645070Y-71244260D01*
X122374137Y-71050737D02*
X122064499Y-71050737D01*
X122258023Y-70779803D02*
X122258023Y-71476489D01*
X122258023Y-71476489D02*
X122219318Y-71553899D01*
X122219318Y-71553899D02*
X122141908Y-71592603D01*
X122141908Y-71592603D02*
X122064499Y-71592603D01*
X121445223Y-71592603D02*
X121445223Y-71166851D01*
X121445223Y-71166851D02*
X121483928Y-71089441D01*
X121483928Y-71089441D02*
X121561337Y-71050737D01*
X121561337Y-71050737D02*
X121716156Y-71050737D01*
X121716156Y-71050737D02*
X121793566Y-71089441D01*
X121445223Y-71553899D02*
X121522632Y-71592603D01*
X121522632Y-71592603D02*
X121716156Y-71592603D01*
X121716156Y-71592603D02*
X121793566Y-71553899D01*
X121793566Y-71553899D02*
X121832270Y-71476489D01*
X121832270Y-71476489D02*
X121832270Y-71399079D01*
X121832270Y-71399079D02*
X121793566Y-71321670D01*
X121793566Y-71321670D02*
X121716156Y-71282965D01*
X121716156Y-71282965D02*
X121522632Y-71282965D01*
X121522632Y-71282965D02*
X121445223Y-71244260D01*
D11*
X146160652Y-59834438D02*
X146160652Y-57834438D01*
X146160652Y-57834438D02*
X145493985Y-59263009D01*
X145493985Y-59263009D02*
X144827319Y-57834438D01*
X144827319Y-57834438D02*
X144827319Y-59834438D01*
X143874938Y-59834438D02*
X143874938Y-57834438D01*
X143874938Y-57834438D02*
X143113033Y-57834438D01*
X143113033Y-57834438D02*
X142922557Y-57929676D01*
X142922557Y-57929676D02*
X142827319Y-58024914D01*
X142827319Y-58024914D02*
X142732081Y-58215390D01*
X142732081Y-58215390D02*
X142732081Y-58501104D01*
X142732081Y-58501104D02*
X142827319Y-58691580D01*
X142827319Y-58691580D02*
X142922557Y-58786819D01*
X142922557Y-58786819D02*
X143113033Y-58882057D01*
X143113033Y-58882057D02*
X143874938Y-58882057D01*
X140732081Y-59643961D02*
X140827319Y-59739200D01*
X140827319Y-59739200D02*
X141113033Y-59834438D01*
X141113033Y-59834438D02*
X141303509Y-59834438D01*
X141303509Y-59834438D02*
X141589224Y-59739200D01*
X141589224Y-59739200D02*
X141779700Y-59548723D01*
X141779700Y-59548723D02*
X141874938Y-59358247D01*
X141874938Y-59358247D02*
X141970176Y-58977295D01*
X141970176Y-58977295D02*
X141970176Y-58691580D01*
X141970176Y-58691580D02*
X141874938Y-58310628D01*
X141874938Y-58310628D02*
X141779700Y-58120152D01*
X141779700Y-58120152D02*
X141589224Y-57929676D01*
X141589224Y-57929676D02*
X141303509Y-57834438D01*
X141303509Y-57834438D02*
X141113033Y-57834438D01*
X141113033Y-57834438D02*
X140827319Y-57929676D01*
X140827319Y-57929676D02*
X140732081Y-58024914D01*
X140351129Y-60024914D02*
X138827319Y-60024914D01*
X138446366Y-59739200D02*
X138160652Y-59834438D01*
X138160652Y-59834438D02*
X137684461Y-59834438D01*
X137684461Y-59834438D02*
X137493985Y-59739200D01*
X137493985Y-59739200D02*
X137398747Y-59643961D01*
X137398747Y-59643961D02*
X137303509Y-59453485D01*
X137303509Y-59453485D02*
X137303509Y-59263009D01*
X137303509Y-59263009D02*
X137398747Y-59072533D01*
X137398747Y-59072533D02*
X137493985Y-58977295D01*
X137493985Y-58977295D02*
X137684461Y-58882057D01*
X137684461Y-58882057D02*
X138065414Y-58786819D01*
X138065414Y-58786819D02*
X138255890Y-58691580D01*
X138255890Y-58691580D02*
X138351128Y-58596342D01*
X138351128Y-58596342D02*
X138446366Y-58405866D01*
X138446366Y-58405866D02*
X138446366Y-58215390D01*
X138446366Y-58215390D02*
X138351128Y-58024914D01*
X138351128Y-58024914D02*
X138255890Y-57929676D01*
X138255890Y-57929676D02*
X138065414Y-57834438D01*
X138065414Y-57834438D02*
X137589223Y-57834438D01*
X137589223Y-57834438D02*
X137303509Y-57929676D01*
X135684461Y-59739200D02*
X135874937Y-59834438D01*
X135874937Y-59834438D02*
X136255890Y-59834438D01*
X136255890Y-59834438D02*
X136446366Y-59739200D01*
X136446366Y-59739200D02*
X136541604Y-59548723D01*
X136541604Y-59548723D02*
X136541604Y-58786819D01*
X136541604Y-58786819D02*
X136446366Y-58596342D01*
X136446366Y-58596342D02*
X136255890Y-58501104D01*
X136255890Y-58501104D02*
X135874937Y-58501104D01*
X135874937Y-58501104D02*
X135684461Y-58596342D01*
X135684461Y-58596342D02*
X135589223Y-58786819D01*
X135589223Y-58786819D02*
X135589223Y-58977295D01*
X135589223Y-58977295D02*
X136541604Y-59167771D01*
X134732080Y-59834438D02*
X134732080Y-58501104D01*
X134732080Y-58882057D02*
X134636842Y-58691580D01*
X134636842Y-58691580D02*
X134541604Y-58596342D01*
X134541604Y-58596342D02*
X134351128Y-58501104D01*
X134351128Y-58501104D02*
X134160651Y-58501104D01*
X133684461Y-58501104D02*
X133208271Y-59834438D01*
X133208271Y-59834438D02*
X132732080Y-58501104D01*
X131684461Y-59834438D02*
X131874937Y-59739200D01*
X131874937Y-59739200D02*
X131970175Y-59643961D01*
X131970175Y-59643961D02*
X132065413Y-59453485D01*
X132065413Y-59453485D02*
X132065413Y-58882057D01*
X132065413Y-58882057D02*
X131970175Y-58691580D01*
X131970175Y-58691580D02*
X131874937Y-58596342D01*
X131874937Y-58596342D02*
X131684461Y-58501104D01*
X131684461Y-58501104D02*
X131398746Y-58501104D01*
X131398746Y-58501104D02*
X131208270Y-58596342D01*
X131208270Y-58596342D02*
X131113032Y-58691580D01*
X131113032Y-58691580D02*
X131017794Y-58882057D01*
X131017794Y-58882057D02*
X131017794Y-59453485D01*
X131017794Y-59453485D02*
X131113032Y-59643961D01*
X131113032Y-59643961D02*
X131208270Y-59739200D01*
X131208270Y-59739200D02*
X131398746Y-59834438D01*
X131398746Y-59834438D02*
X131684461Y-59834438D01*
D10*
X143579803Y-67380834D02*
X143579803Y-66993786D01*
X143579803Y-66993786D02*
X143966851Y-66955082D01*
X143966851Y-66955082D02*
X143928146Y-66993786D01*
X143928146Y-66993786D02*
X143889441Y-67071196D01*
X143889441Y-67071196D02*
X143889441Y-67264720D01*
X143889441Y-67264720D02*
X143928146Y-67342129D01*
X143928146Y-67342129D02*
X143966851Y-67380834D01*
X143966851Y-67380834D02*
X144044260Y-67419539D01*
X144044260Y-67419539D02*
X144237784Y-67419539D01*
X144237784Y-67419539D02*
X144315194Y-67380834D01*
X144315194Y-67380834D02*
X144353899Y-67342129D01*
X144353899Y-67342129D02*
X144392603Y-67264720D01*
X144392603Y-67264720D02*
X144392603Y-67071196D01*
X144392603Y-67071196D02*
X144353899Y-66993786D01*
X144353899Y-66993786D02*
X144315194Y-66955082D01*
X143579803Y-67651767D02*
X144392603Y-67922700D01*
X144392603Y-67922700D02*
X143579803Y-68193634D01*
X141106213Y-72292603D02*
X141106213Y-71479803D01*
X140757869Y-71557213D02*
X140719165Y-71518508D01*
X140719165Y-71518508D02*
X140641755Y-71479803D01*
X140641755Y-71479803D02*
X140448231Y-71479803D01*
X140448231Y-71479803D02*
X140370822Y-71518508D01*
X140370822Y-71518508D02*
X140332117Y-71557213D01*
X140332117Y-71557213D02*
X140293412Y-71634622D01*
X140293412Y-71634622D02*
X140293412Y-71712032D01*
X140293412Y-71712032D02*
X140332117Y-71828146D01*
X140332117Y-71828146D02*
X140796574Y-72292603D01*
X140796574Y-72292603D02*
X140293412Y-72292603D01*
X139480613Y-72215194D02*
X139519317Y-72253899D01*
X139519317Y-72253899D02*
X139635432Y-72292603D01*
X139635432Y-72292603D02*
X139712841Y-72292603D01*
X139712841Y-72292603D02*
X139828955Y-72253899D01*
X139828955Y-72253899D02*
X139906365Y-72176489D01*
X139906365Y-72176489D02*
X139945070Y-72099079D01*
X139945070Y-72099079D02*
X139983774Y-71944260D01*
X139983774Y-71944260D02*
X139983774Y-71828146D01*
X139983774Y-71828146D02*
X139945070Y-71673327D01*
X139945070Y-71673327D02*
X139906365Y-71595918D01*
X139906365Y-71595918D02*
X139828955Y-71518508D01*
X139828955Y-71518508D02*
X139712841Y-71479803D01*
X139712841Y-71479803D02*
X139635432Y-71479803D01*
X139635432Y-71479803D02*
X139519317Y-71518508D01*
X139519317Y-71518508D02*
X139480613Y-71557213D01*
X139353899Y-66155082D02*
X139392603Y-66271196D01*
X139392603Y-66271196D02*
X139392603Y-66464720D01*
X139392603Y-66464720D02*
X139353899Y-66542129D01*
X139353899Y-66542129D02*
X139315194Y-66580834D01*
X139315194Y-66580834D02*
X139237784Y-66619539D01*
X139237784Y-66619539D02*
X139160375Y-66619539D01*
X139160375Y-66619539D02*
X139082965Y-66580834D01*
X139082965Y-66580834D02*
X139044260Y-66542129D01*
X139044260Y-66542129D02*
X139005556Y-66464720D01*
X139005556Y-66464720D02*
X138966851Y-66309901D01*
X138966851Y-66309901D02*
X138928146Y-66232491D01*
X138928146Y-66232491D02*
X138889441Y-66193786D01*
X138889441Y-66193786D02*
X138812032Y-66155082D01*
X138812032Y-66155082D02*
X138734622Y-66155082D01*
X138734622Y-66155082D02*
X138657213Y-66193786D01*
X138657213Y-66193786D02*
X138618508Y-66232491D01*
X138618508Y-66232491D02*
X138579803Y-66309901D01*
X138579803Y-66309901D02*
X138579803Y-66503424D01*
X138579803Y-66503424D02*
X138618508Y-66619539D01*
X139392603Y-66967881D02*
X138579803Y-66967881D01*
X138579803Y-66967881D02*
X138579803Y-67161405D01*
X138579803Y-67161405D02*
X138618508Y-67277519D01*
X138618508Y-67277519D02*
X138695918Y-67354929D01*
X138695918Y-67354929D02*
X138773327Y-67393634D01*
X138773327Y-67393634D02*
X138928146Y-67432338D01*
X138928146Y-67432338D02*
X139044260Y-67432338D01*
X139044260Y-67432338D02*
X139199079Y-67393634D01*
X139199079Y-67393634D02*
X139276489Y-67354929D01*
X139276489Y-67354929D02*
X139353899Y-67277519D01*
X139353899Y-67277519D02*
X139392603Y-67161405D01*
X139392603Y-67161405D02*
X139392603Y-66967881D01*
X139160375Y-67741977D02*
X139160375Y-68129024D01*
X139392603Y-67664567D02*
X138579803Y-67935500D01*
X138579803Y-67935500D02*
X139392603Y-68206434D01*
X123480460Y-66618508D02*
X123557870Y-66579803D01*
X123557870Y-66579803D02*
X123673984Y-66579803D01*
X123673984Y-66579803D02*
X123790098Y-66618508D01*
X123790098Y-66618508D02*
X123867508Y-66695918D01*
X123867508Y-66695918D02*
X123906213Y-66773327D01*
X123906213Y-66773327D02*
X123944917Y-66928146D01*
X123944917Y-66928146D02*
X123944917Y-67044260D01*
X123944917Y-67044260D02*
X123906213Y-67199079D01*
X123906213Y-67199079D02*
X123867508Y-67276489D01*
X123867508Y-67276489D02*
X123790098Y-67353899D01*
X123790098Y-67353899D02*
X123673984Y-67392603D01*
X123673984Y-67392603D02*
X123596575Y-67392603D01*
X123596575Y-67392603D02*
X123480460Y-67353899D01*
X123480460Y-67353899D02*
X123441756Y-67315194D01*
X123441756Y-67315194D02*
X123441756Y-67044260D01*
X123441756Y-67044260D02*
X123596575Y-67044260D01*
X123093413Y-67392603D02*
X123093413Y-66579803D01*
X123093413Y-66579803D02*
X122628956Y-67392603D01*
X122628956Y-67392603D02*
X122628956Y-66579803D01*
X122241908Y-67392603D02*
X122241908Y-66579803D01*
X122241908Y-66579803D02*
X122048384Y-66579803D01*
X122048384Y-66579803D02*
X121932270Y-66618508D01*
X121932270Y-66618508D02*
X121854860Y-66695918D01*
X121854860Y-66695918D02*
X121816155Y-66773327D01*
X121816155Y-66773327D02*
X121777451Y-66928146D01*
X121777451Y-66928146D02*
X121777451Y-67044260D01*
X121777451Y-67044260D02*
X121816155Y-67199079D01*
X121816155Y-67199079D02*
X121854860Y-67276489D01*
X121854860Y-67276489D02*
X121932270Y-67353899D01*
X121932270Y-67353899D02*
X122048384Y-67392603D01*
X122048384Y-67392603D02*
X122241908Y-67392603D01*
M02*
