M48
; DRILL file {KiCad 9.0.7} date 2026-03-19T09:42:23+0100
; FORMAT={-:-/ absolute / metric / decimal}
; #@! TF.CreationDate,2026-03-19T09:42:23+01:00
; #@! TF.GenerationSoftware,Kicad,Pcbnew,9.0.7
; #@! TF.FileFunction,Plated,1,4,PTH
FMAT,2
METRIC
; #@! TA.AperFunction,Plated,PTH,ViaDrill
T1C0.300
; #@! TA.AperFunction,Plated,PTH,ViaDrill
T2C0.400
; #@! TA.AperFunction,Plated,PTH,ComponentDrill
T3C0.800
; #@! TA.AperFunction,Plated,PTH,ComponentDrill
T4C0.950
; #@! TA.AperFunction,Plated,PTH,ComponentDrill
T5C1.000
; #@! TA.AperFunction,Plated,PTH,ComponentDrill
T6C1.016
; #@! TA.AperFunction,Plated,PTH,ComponentDrill
T7C1.200
; #@! TA.AperFunction,Plated,PTH,ComponentDrill
T8C1.400
; #@! TA.AperFunction,Plated,PTH,ComponentDrill
T9C2.200
%
G90
G05
T1
X65.0Y-60.0
X68.3Y-57.0
X71.0Y-57.0
X75.0Y-60.1
X77.3Y-81.6
X80.0Y-50.0
X81.0Y-53.0
X81.5Y-87.5
X87.4Y-41.8
X88.0Y-77.5
X89.1Y-57.3
X89.8Y-63.2
X93.6Y-61.6
X94.8Y-42.4
X95.0Y-76.0
X96.0Y-76.0
X101.0Y-67.0
X102.0Y-53.0
X103.0Y-53.0
X108.0Y-44.0
X110.0Y-83.2
X111.6Y-82.7
X112.3Y-64.9
X113.4Y-64.9
X113.6Y-60.0
X113.695Y-61.395
X114.8Y-62.4
X115.1Y-64.3
X117.8Y-45.7
X118.1Y-51.4
X120.1Y-45.595
X120.1Y-52.0
X120.2Y-59.3
X120.399Y-50.1
X121.0Y-76.0
X121.0Y-85.5
X121.3Y-61.5
X122.0Y-76.0
X122.2Y-61.6
X127.0Y-67.0
X127.6Y-83.2
X128.313Y-83.749
X130.7Y-54.8
X132.3Y-42.2
T2
X72.65Y-49.15
X81.1Y-55.5
X130.2Y-57.1
X139.1Y-48.7
X139.8Y-44.3
T3
X92.3Y-65.22
X92.3Y-67.76
X92.3Y-70.3
X92.3Y-72.84
X92.3Y-75.38
X92.3Y-77.92
X92.3Y-80.46
X92.3Y-83.0
X94.835Y-65.22
X97.375Y-65.22
X99.22Y-42.56
X99.22Y-45.1
X99.22Y-47.64
X99.22Y-50.18
X99.22Y-52.72
X99.22Y-55.26
X99.22Y-57.8
X99.22Y-60.34
X101.755Y-42.56
X104.295Y-42.56
X105.0Y-65.22
X105.0Y-67.76
X105.0Y-70.3
X105.0Y-72.84
X105.0Y-75.38
X105.0Y-77.92
X105.0Y-80.46
X105.0Y-83.0
X111.92Y-42.56
X111.92Y-45.1
X111.92Y-47.64
X111.92Y-50.18
X111.92Y-52.72
X111.92Y-55.26
X111.92Y-57.8
X111.92Y-60.34
X118.22Y-65.22
X118.22Y-67.76
X118.22Y-70.3
X118.22Y-72.84
X118.22Y-75.38
X118.22Y-77.92
X118.22Y-80.46
X118.22Y-83.0
X120.755Y-65.22
X123.295Y-65.22
X130.92Y-65.22
X130.92Y-67.76
X130.92Y-70.3
X130.92Y-72.84
X130.92Y-75.38
X130.92Y-77.92
X130.92Y-80.46
X130.92Y-83.0
T4
X110.0Y-70.26
X110.0Y-72.76
X110.0Y-75.26
X110.0Y-77.76
X116.76Y-47.6
X116.76Y-50.1
X116.76Y-52.6
X116.76Y-55.1
X135.6Y-69.0
X135.6Y-71.5
X135.6Y-74.0
X135.6Y-76.5
X138.0Y-84.0
X140.5Y-84.0
X143.0Y-60.5
X143.0Y-68.0
X143.0Y-75.5
X143.0Y-84.0
X145.5Y-60.5
X145.5Y-68.0
X145.5Y-75.5
X145.5Y-84.0
X148.0Y-60.5
X148.0Y-68.0
X148.0Y-75.5
X148.0Y-84.0
T5
X95.54Y-68.06
X95.54Y-71.66
X98.08Y-68.06
X98.08Y-71.66
X102.46Y-45.4
X102.46Y-49.0
X105.0Y-45.4
X105.0Y-49.0
X121.46Y-68.06
X121.46Y-71.66
X123.0Y-42.46
X123.0Y-45.0
X124.0Y-58.0
X124.0Y-68.06
X124.0Y-71.66
X126.5Y-58.0
T6
X88.796Y-39.2
X91.336Y-39.2
X93.876Y-39.2
X96.416Y-39.2
X97.94Y-87.46
X98.956Y-39.2
X100.48Y-87.46
X101.496Y-39.2
X103.02Y-87.46
X104.036Y-39.2
X105.56Y-87.46
X106.576Y-39.2
X108.1Y-87.46
X109.116Y-39.2
X110.64Y-87.46
X111.656Y-39.2
X113.18Y-87.46
X115.72Y-39.2
X115.72Y-87.46
X118.26Y-39.2
X120.8Y-39.2
X120.8Y-87.46
X123.34Y-39.2
X123.34Y-87.46
X125.88Y-39.2
X125.88Y-87.46
X128.42Y-39.2
X128.42Y-87.46
X130.96Y-39.2
X130.96Y-87.46
X133.5Y-39.2
X133.5Y-87.46
X133.627Y-59.52
X133.627Y-62.06
X133.627Y-64.6
X136.167Y-59.52
X136.167Y-62.06
X136.167Y-64.6
T7
X62.567Y-47.71
X62.567Y-51.21
X67.567Y-47.71
X67.567Y-51.21
T8
X142.0Y-42.84
X142.0Y-47.92
X142.0Y-53.0
T9
X66.0Y-35.5
X66.0Y-89.5
X146.0Y-35.5
X146.0Y-89.5
M30
