%TF.GenerationSoftware,KiCad,Pcbnew,9.0.7*%
%TF.CreationDate,2026-03-19T09:42:27+01:00*%
%TF.ProjectId,MPC01,4d504330-312e-46b6-9963-61645f706362,V0.1*%
%TF.SameCoordinates,Original*%
%TF.FileFunction,Legend,Bot*%
%TF.FilePolarity,Positive*%
%FSLAX46Y46*%
G04 Gerber Fmt 4.6, Leading zero omitted, Abs format (unit mm)*
G04 Created by KiCad (PCBNEW 9.0.7) date 2026-03-19 09:42:27*
%MOMM*%
%LPD*%
G01*
G04 APERTURE LIST*
%ADD10C,0.152400*%
%ADD11C,0.400000*%
%ADD12C,0.250000*%
%ADD13C,0.200000*%
%ADD14C,0.150000*%
G04 APERTURE END LIST*
D10*
X139080460Y-47318508D02*
X139157870Y-47279803D01*
X139157870Y-47279803D02*
X139273984Y-47279803D01*
X139273984Y-47279803D02*
X139390098Y-47318508D01*
X139390098Y-47318508D02*
X139467508Y-47395918D01*
X139467508Y-47395918D02*
X139506213Y-47473327D01*
X139506213Y-47473327D02*
X139544917Y-47628146D01*
X139544917Y-47628146D02*
X139544917Y-47744260D01*
X139544917Y-47744260D02*
X139506213Y-47899079D01*
X139506213Y-47899079D02*
X139467508Y-47976489D01*
X139467508Y-47976489D02*
X139390098Y-48053899D01*
X139390098Y-48053899D02*
X139273984Y-48092603D01*
X139273984Y-48092603D02*
X139196575Y-48092603D01*
X139196575Y-48092603D02*
X139080460Y-48053899D01*
X139080460Y-48053899D02*
X139041756Y-48015194D01*
X139041756Y-48015194D02*
X139041756Y-47744260D01*
X139041756Y-47744260D02*
X139196575Y-47744260D01*
X138693413Y-48092603D02*
X138693413Y-47279803D01*
X138693413Y-47279803D02*
X138228956Y-48092603D01*
X138228956Y-48092603D02*
X138228956Y-47279803D01*
X137841908Y-48092603D02*
X137841908Y-47279803D01*
X137841908Y-47279803D02*
X137648384Y-47279803D01*
X137648384Y-47279803D02*
X137532270Y-47318508D01*
X137532270Y-47318508D02*
X137454860Y-47395918D01*
X137454860Y-47395918D02*
X137416155Y-47473327D01*
X137416155Y-47473327D02*
X137377451Y-47628146D01*
X137377451Y-47628146D02*
X137377451Y-47744260D01*
X137377451Y-47744260D02*
X137416155Y-47899079D01*
X137416155Y-47899079D02*
X137454860Y-47976489D01*
X137454860Y-47976489D02*
X137532270Y-48053899D01*
X137532270Y-48053899D02*
X137648384Y-48092603D01*
X137648384Y-48092603D02*
X137841908Y-48092603D01*
X145853899Y-80655082D02*
X145892603Y-80771196D01*
X145892603Y-80771196D02*
X145892603Y-80964720D01*
X145892603Y-80964720D02*
X145853899Y-81042129D01*
X145853899Y-81042129D02*
X145815194Y-81080834D01*
X145815194Y-81080834D02*
X145737784Y-81119539D01*
X145737784Y-81119539D02*
X145660375Y-81119539D01*
X145660375Y-81119539D02*
X145582965Y-81080834D01*
X145582965Y-81080834D02*
X145544260Y-81042129D01*
X145544260Y-81042129D02*
X145505556Y-80964720D01*
X145505556Y-80964720D02*
X145466851Y-80809901D01*
X145466851Y-80809901D02*
X145428146Y-80732491D01*
X145428146Y-80732491D02*
X145389441Y-80693786D01*
X145389441Y-80693786D02*
X145312032Y-80655082D01*
X145312032Y-80655082D02*
X145234622Y-80655082D01*
X145234622Y-80655082D02*
X145157213Y-80693786D01*
X145157213Y-80693786D02*
X145118508Y-80732491D01*
X145118508Y-80732491D02*
X145079803Y-80809901D01*
X145079803Y-80809901D02*
X145079803Y-81003424D01*
X145079803Y-81003424D02*
X145118508Y-81119539D01*
X145815194Y-81932338D02*
X145853899Y-81893634D01*
X145853899Y-81893634D02*
X145892603Y-81777519D01*
X145892603Y-81777519D02*
X145892603Y-81700110D01*
X145892603Y-81700110D02*
X145853899Y-81583996D01*
X145853899Y-81583996D02*
X145776489Y-81506586D01*
X145776489Y-81506586D02*
X145699079Y-81467881D01*
X145699079Y-81467881D02*
X145544260Y-81429177D01*
X145544260Y-81429177D02*
X145428146Y-81429177D01*
X145428146Y-81429177D02*
X145273327Y-81467881D01*
X145273327Y-81467881D02*
X145195918Y-81506586D01*
X145195918Y-81506586D02*
X145118508Y-81583996D01*
X145118508Y-81583996D02*
X145079803Y-81700110D01*
X145079803Y-81700110D02*
X145079803Y-81777519D01*
X145079803Y-81777519D02*
X145118508Y-81893634D01*
X145118508Y-81893634D02*
X145157213Y-81932338D01*
X145892603Y-82667729D02*
X145892603Y-82280681D01*
X145892603Y-82280681D02*
X145079803Y-82280681D01*
X148492603Y-46158243D02*
X148105556Y-45887310D01*
X148492603Y-45693786D02*
X147679803Y-45693786D01*
X147679803Y-45693786D02*
X147679803Y-46003424D01*
X147679803Y-46003424D02*
X147718508Y-46080834D01*
X147718508Y-46080834D02*
X147757213Y-46119539D01*
X147757213Y-46119539D02*
X147834622Y-46158243D01*
X147834622Y-46158243D02*
X147950737Y-46158243D01*
X147950737Y-46158243D02*
X148028146Y-46119539D01*
X148028146Y-46119539D02*
X148066851Y-46080834D01*
X148066851Y-46080834D02*
X148105556Y-46003424D01*
X148105556Y-46003424D02*
X148105556Y-45693786D01*
X148453899Y-46467882D02*
X148492603Y-46583996D01*
X148492603Y-46583996D02*
X148492603Y-46777520D01*
X148492603Y-46777520D02*
X148453899Y-46854929D01*
X148453899Y-46854929D02*
X148415194Y-46893634D01*
X148415194Y-46893634D02*
X148337784Y-46932339D01*
X148337784Y-46932339D02*
X148260375Y-46932339D01*
X148260375Y-46932339D02*
X148182965Y-46893634D01*
X148182965Y-46893634D02*
X148144260Y-46854929D01*
X148144260Y-46854929D02*
X148105556Y-46777520D01*
X148105556Y-46777520D02*
X148066851Y-46622701D01*
X148066851Y-46622701D02*
X148028146Y-46545291D01*
X148028146Y-46545291D02*
X147989441Y-46506586D01*
X147989441Y-46506586D02*
X147912032Y-46467882D01*
X147912032Y-46467882D02*
X147834622Y-46467882D01*
X147834622Y-46467882D02*
X147757213Y-46506586D01*
X147757213Y-46506586D02*
X147718508Y-46545291D01*
X147718508Y-46545291D02*
X147679803Y-46622701D01*
X147679803Y-46622701D02*
X147679803Y-46816224D01*
X147679803Y-46816224D02*
X147718508Y-46932339D01*
X147950737Y-47629024D02*
X148492603Y-47629024D01*
X147641099Y-47435500D02*
X148221670Y-47241977D01*
X148221670Y-47241977D02*
X148221670Y-47745138D01*
X148028146Y-48170891D02*
X147989441Y-48093481D01*
X147989441Y-48093481D02*
X147950737Y-48054776D01*
X147950737Y-48054776D02*
X147873327Y-48016072D01*
X147873327Y-48016072D02*
X147834622Y-48016072D01*
X147834622Y-48016072D02*
X147757213Y-48054776D01*
X147757213Y-48054776D02*
X147718508Y-48093481D01*
X147718508Y-48093481D02*
X147679803Y-48170891D01*
X147679803Y-48170891D02*
X147679803Y-48325710D01*
X147679803Y-48325710D02*
X147718508Y-48403119D01*
X147718508Y-48403119D02*
X147757213Y-48441824D01*
X147757213Y-48441824D02*
X147834622Y-48480529D01*
X147834622Y-48480529D02*
X147873327Y-48480529D01*
X147873327Y-48480529D02*
X147950737Y-48441824D01*
X147950737Y-48441824D02*
X147989441Y-48403119D01*
X147989441Y-48403119D02*
X148028146Y-48325710D01*
X148028146Y-48325710D02*
X148028146Y-48170891D01*
X148028146Y-48170891D02*
X148066851Y-48093481D01*
X148066851Y-48093481D02*
X148105556Y-48054776D01*
X148105556Y-48054776D02*
X148182965Y-48016072D01*
X148182965Y-48016072D02*
X148337784Y-48016072D01*
X148337784Y-48016072D02*
X148415194Y-48054776D01*
X148415194Y-48054776D02*
X148453899Y-48093481D01*
X148453899Y-48093481D02*
X148492603Y-48170891D01*
X148492603Y-48170891D02*
X148492603Y-48325710D01*
X148492603Y-48325710D02*
X148453899Y-48403119D01*
X148453899Y-48403119D02*
X148415194Y-48441824D01*
X148415194Y-48441824D02*
X148337784Y-48480529D01*
X148337784Y-48480529D02*
X148182965Y-48480529D01*
X148182965Y-48480529D02*
X148105556Y-48441824D01*
X148105556Y-48441824D02*
X148066851Y-48403119D01*
X148066851Y-48403119D02*
X148028146Y-48325710D01*
X147679803Y-49215919D02*
X147679803Y-48828871D01*
X147679803Y-48828871D02*
X148066851Y-48790167D01*
X148066851Y-48790167D02*
X148028146Y-48828871D01*
X148028146Y-48828871D02*
X147989441Y-48906281D01*
X147989441Y-48906281D02*
X147989441Y-49099805D01*
X147989441Y-49099805D02*
X148028146Y-49177214D01*
X148028146Y-49177214D02*
X148066851Y-49215919D01*
X148066851Y-49215919D02*
X148144260Y-49254624D01*
X148144260Y-49254624D02*
X148337784Y-49254624D01*
X148337784Y-49254624D02*
X148415194Y-49215919D01*
X148415194Y-49215919D02*
X148453899Y-49177214D01*
X148453899Y-49177214D02*
X148492603Y-49099805D01*
X148492603Y-49099805D02*
X148492603Y-48906281D01*
X148492603Y-48906281D02*
X148453899Y-48828871D01*
X148453899Y-48828871D02*
X148415194Y-48790167D01*
D11*
X82260652Y-61134438D02*
X82260652Y-59134438D01*
X82260652Y-59134438D02*
X81593985Y-60563009D01*
X81593985Y-60563009D02*
X80927319Y-59134438D01*
X80927319Y-59134438D02*
X80927319Y-61134438D01*
X79974938Y-61134438D02*
X79974938Y-59134438D01*
X79974938Y-59134438D02*
X79213033Y-59134438D01*
X79213033Y-59134438D02*
X79022557Y-59229676D01*
X79022557Y-59229676D02*
X78927319Y-59324914D01*
X78927319Y-59324914D02*
X78832081Y-59515390D01*
X78832081Y-59515390D02*
X78832081Y-59801104D01*
X78832081Y-59801104D02*
X78927319Y-59991580D01*
X78927319Y-59991580D02*
X79022557Y-60086819D01*
X79022557Y-60086819D02*
X79213033Y-60182057D01*
X79213033Y-60182057D02*
X79974938Y-60182057D01*
X76832081Y-60943961D02*
X76927319Y-61039200D01*
X76927319Y-61039200D02*
X77213033Y-61134438D01*
X77213033Y-61134438D02*
X77403509Y-61134438D01*
X77403509Y-61134438D02*
X77689224Y-61039200D01*
X77689224Y-61039200D02*
X77879700Y-60848723D01*
X77879700Y-60848723D02*
X77974938Y-60658247D01*
X77974938Y-60658247D02*
X78070176Y-60277295D01*
X78070176Y-60277295D02*
X78070176Y-59991580D01*
X78070176Y-59991580D02*
X77974938Y-59610628D01*
X77974938Y-59610628D02*
X77879700Y-59420152D01*
X77879700Y-59420152D02*
X77689224Y-59229676D01*
X77689224Y-59229676D02*
X77403509Y-59134438D01*
X77403509Y-59134438D02*
X77213033Y-59134438D01*
X77213033Y-59134438D02*
X76927319Y-59229676D01*
X76927319Y-59229676D02*
X76832081Y-59324914D01*
X75593986Y-59134438D02*
X75403509Y-59134438D01*
X75403509Y-59134438D02*
X75213033Y-59229676D01*
X75213033Y-59229676D02*
X75117795Y-59324914D01*
X75117795Y-59324914D02*
X75022557Y-59515390D01*
X75022557Y-59515390D02*
X74927319Y-59896342D01*
X74927319Y-59896342D02*
X74927319Y-60372533D01*
X74927319Y-60372533D02*
X75022557Y-60753485D01*
X75022557Y-60753485D02*
X75117795Y-60943961D01*
X75117795Y-60943961D02*
X75213033Y-61039200D01*
X75213033Y-61039200D02*
X75403509Y-61134438D01*
X75403509Y-61134438D02*
X75593986Y-61134438D01*
X75593986Y-61134438D02*
X75784462Y-61039200D01*
X75784462Y-61039200D02*
X75879700Y-60943961D01*
X75879700Y-60943961D02*
X75974938Y-60753485D01*
X75974938Y-60753485D02*
X76070176Y-60372533D01*
X76070176Y-60372533D02*
X76070176Y-59896342D01*
X76070176Y-59896342D02*
X75974938Y-59515390D01*
X75974938Y-59515390D02*
X75879700Y-59324914D01*
X75879700Y-59324914D02*
X75784462Y-59229676D01*
X75784462Y-59229676D02*
X75593986Y-59134438D01*
X73022557Y-61134438D02*
X74165414Y-61134438D01*
X73593986Y-61134438D02*
X73593986Y-59134438D01*
X73593986Y-59134438D02*
X73784462Y-59420152D01*
X73784462Y-59420152D02*
X73974938Y-59610628D01*
X73974938Y-59610628D02*
X74165414Y-59705866D01*
D10*
X142657213Y-80755082D02*
X142618508Y-80793786D01*
X142618508Y-80793786D02*
X142579803Y-80871196D01*
X142579803Y-80871196D02*
X142579803Y-81064720D01*
X142579803Y-81064720D02*
X142618508Y-81142129D01*
X142618508Y-81142129D02*
X142657213Y-81180834D01*
X142657213Y-81180834D02*
X142734622Y-81219539D01*
X142734622Y-81219539D02*
X142812032Y-81219539D01*
X142812032Y-81219539D02*
X142928146Y-81180834D01*
X142928146Y-81180834D02*
X143392603Y-80716377D01*
X143392603Y-80716377D02*
X143392603Y-81219539D01*
X142850737Y-81916224D02*
X143392603Y-81916224D01*
X142541099Y-81722700D02*
X143121670Y-81529177D01*
X143121670Y-81529177D02*
X143121670Y-82032338D01*
X142579803Y-82225862D02*
X143392603Y-82496795D01*
X143392603Y-82496795D02*
X142579803Y-82767729D01*
X86141756Y-76780946D02*
X86180460Y-76819651D01*
X86180460Y-76819651D02*
X86296575Y-76858355D01*
X86296575Y-76858355D02*
X86373984Y-76858355D01*
X86373984Y-76858355D02*
X86490098Y-76819651D01*
X86490098Y-76819651D02*
X86567508Y-76742241D01*
X86567508Y-76742241D02*
X86606213Y-76664831D01*
X86606213Y-76664831D02*
X86644917Y-76510012D01*
X86644917Y-76510012D02*
X86644917Y-76393898D01*
X86644917Y-76393898D02*
X86606213Y-76239079D01*
X86606213Y-76239079D02*
X86567508Y-76161670D01*
X86567508Y-76161670D02*
X86490098Y-76084260D01*
X86490098Y-76084260D02*
X86373984Y-76045555D01*
X86373984Y-76045555D02*
X86296575Y-76045555D01*
X86296575Y-76045555D02*
X86180460Y-76084260D01*
X86180460Y-76084260D02*
X86141756Y-76122965D01*
X85677298Y-76858355D02*
X85754708Y-76819651D01*
X85754708Y-76819651D02*
X85793413Y-76780946D01*
X85793413Y-76780946D02*
X85832117Y-76703536D01*
X85832117Y-76703536D02*
X85832117Y-76471308D01*
X85832117Y-76471308D02*
X85793413Y-76393898D01*
X85793413Y-76393898D02*
X85754708Y-76355193D01*
X85754708Y-76355193D02*
X85677298Y-76316489D01*
X85677298Y-76316489D02*
X85561184Y-76316489D01*
X85561184Y-76316489D02*
X85483775Y-76355193D01*
X85483775Y-76355193D02*
X85445070Y-76393898D01*
X85445070Y-76393898D02*
X85406365Y-76471308D01*
X85406365Y-76471308D02*
X85406365Y-76703536D01*
X85406365Y-76703536D02*
X85445070Y-76780946D01*
X85445070Y-76780946D02*
X85483775Y-76819651D01*
X85483775Y-76819651D02*
X85561184Y-76858355D01*
X85561184Y-76858355D02*
X85677298Y-76858355D01*
X85058023Y-76316489D02*
X85058023Y-76858355D01*
X85058023Y-76393898D02*
X85019318Y-76355193D01*
X85019318Y-76355193D02*
X84941908Y-76316489D01*
X84941908Y-76316489D02*
X84825794Y-76316489D01*
X84825794Y-76316489D02*
X84748385Y-76355193D01*
X84748385Y-76355193D02*
X84709680Y-76432603D01*
X84709680Y-76432603D02*
X84709680Y-76858355D01*
X84438747Y-76316489D02*
X84129109Y-76316489D01*
X84322633Y-76045555D02*
X84322633Y-76742241D01*
X84322633Y-76742241D02*
X84283928Y-76819651D01*
X84283928Y-76819651D02*
X84206518Y-76858355D01*
X84206518Y-76858355D02*
X84129109Y-76858355D01*
X83858176Y-76858355D02*
X83858176Y-76316489D01*
X83858176Y-76471308D02*
X83819471Y-76393898D01*
X83819471Y-76393898D02*
X83780766Y-76355193D01*
X83780766Y-76355193D02*
X83703357Y-76316489D01*
X83703357Y-76316489D02*
X83625947Y-76316489D01*
X83238899Y-76858355D02*
X83316309Y-76819651D01*
X83316309Y-76819651D02*
X83355014Y-76780946D01*
X83355014Y-76780946D02*
X83393718Y-76703536D01*
X83393718Y-76703536D02*
X83393718Y-76471308D01*
X83393718Y-76471308D02*
X83355014Y-76393898D01*
X83355014Y-76393898D02*
X83316309Y-76355193D01*
X83316309Y-76355193D02*
X83238899Y-76316489D01*
X83238899Y-76316489D02*
X83122785Y-76316489D01*
X83122785Y-76316489D02*
X83045376Y-76355193D01*
X83045376Y-76355193D02*
X83006671Y-76393898D01*
X83006671Y-76393898D02*
X82967966Y-76471308D01*
X82967966Y-76471308D02*
X82967966Y-76703536D01*
X82967966Y-76703536D02*
X83006671Y-76780946D01*
X83006671Y-76780946D02*
X83045376Y-76819651D01*
X83045376Y-76819651D02*
X83122785Y-76858355D01*
X83122785Y-76858355D02*
X83238899Y-76858355D01*
X82503509Y-76858355D02*
X82580919Y-76819651D01*
X82580919Y-76819651D02*
X82619624Y-76742241D01*
X82619624Y-76742241D02*
X82619624Y-76045555D01*
X81303662Y-76432603D02*
X81187548Y-76471308D01*
X81187548Y-76471308D02*
X81148843Y-76510012D01*
X81148843Y-76510012D02*
X81110139Y-76587422D01*
X81110139Y-76587422D02*
X81110139Y-76703536D01*
X81110139Y-76703536D02*
X81148843Y-76780946D01*
X81148843Y-76780946D02*
X81187548Y-76819651D01*
X81187548Y-76819651D02*
X81264958Y-76858355D01*
X81264958Y-76858355D02*
X81574596Y-76858355D01*
X81574596Y-76858355D02*
X81574596Y-76045555D01*
X81574596Y-76045555D02*
X81303662Y-76045555D01*
X81303662Y-76045555D02*
X81226253Y-76084260D01*
X81226253Y-76084260D02*
X81187548Y-76122965D01*
X81187548Y-76122965D02*
X81148843Y-76200374D01*
X81148843Y-76200374D02*
X81148843Y-76277784D01*
X81148843Y-76277784D02*
X81187548Y-76355193D01*
X81187548Y-76355193D02*
X81226253Y-76393898D01*
X81226253Y-76393898D02*
X81303662Y-76432603D01*
X81303662Y-76432603D02*
X81574596Y-76432603D01*
X80645681Y-76858355D02*
X80723091Y-76819651D01*
X80723091Y-76819651D02*
X80761796Y-76780946D01*
X80761796Y-76780946D02*
X80800500Y-76703536D01*
X80800500Y-76703536D02*
X80800500Y-76471308D01*
X80800500Y-76471308D02*
X80761796Y-76393898D01*
X80761796Y-76393898D02*
X80723091Y-76355193D01*
X80723091Y-76355193D02*
X80645681Y-76316489D01*
X80645681Y-76316489D02*
X80529567Y-76316489D01*
X80529567Y-76316489D02*
X80452158Y-76355193D01*
X80452158Y-76355193D02*
X80413453Y-76393898D01*
X80413453Y-76393898D02*
X80374748Y-76471308D01*
X80374748Y-76471308D02*
X80374748Y-76703536D01*
X80374748Y-76703536D02*
X80413453Y-76780946D01*
X80413453Y-76780946D02*
X80452158Y-76819651D01*
X80452158Y-76819651D02*
X80529567Y-76858355D01*
X80529567Y-76858355D02*
X80645681Y-76858355D01*
X79678063Y-76858355D02*
X79678063Y-76432603D01*
X79678063Y-76432603D02*
X79716768Y-76355193D01*
X79716768Y-76355193D02*
X79794177Y-76316489D01*
X79794177Y-76316489D02*
X79948996Y-76316489D01*
X79948996Y-76316489D02*
X80026406Y-76355193D01*
X79678063Y-76819651D02*
X79755472Y-76858355D01*
X79755472Y-76858355D02*
X79948996Y-76858355D01*
X79948996Y-76858355D02*
X80026406Y-76819651D01*
X80026406Y-76819651D02*
X80065110Y-76742241D01*
X80065110Y-76742241D02*
X80065110Y-76664831D01*
X80065110Y-76664831D02*
X80026406Y-76587422D01*
X80026406Y-76587422D02*
X79948996Y-76548717D01*
X79948996Y-76548717D02*
X79755472Y-76548717D01*
X79755472Y-76548717D02*
X79678063Y-76510012D01*
X79291016Y-76858355D02*
X79291016Y-76316489D01*
X79291016Y-76471308D02*
X79252311Y-76393898D01*
X79252311Y-76393898D02*
X79213606Y-76355193D01*
X79213606Y-76355193D02*
X79136197Y-76316489D01*
X79136197Y-76316489D02*
X79058787Y-76316489D01*
X78439511Y-76858355D02*
X78439511Y-76045555D01*
X78439511Y-76819651D02*
X78516920Y-76858355D01*
X78516920Y-76858355D02*
X78671739Y-76858355D01*
X78671739Y-76858355D02*
X78749149Y-76819651D01*
X78749149Y-76819651D02*
X78787854Y-76780946D01*
X78787854Y-76780946D02*
X78826558Y-76703536D01*
X78826558Y-76703536D02*
X78826558Y-76471308D01*
X78826558Y-76471308D02*
X78787854Y-76393898D01*
X78787854Y-76393898D02*
X78749149Y-76355193D01*
X78749149Y-76355193D02*
X78671739Y-76316489D01*
X78671739Y-76316489D02*
X78516920Y-76316489D01*
X78516920Y-76316489D02*
X78439511Y-76355193D01*
X77200959Y-77167993D02*
X77239664Y-77129289D01*
X77239664Y-77129289D02*
X77317073Y-77013174D01*
X77317073Y-77013174D02*
X77355778Y-76935765D01*
X77355778Y-76935765D02*
X77394483Y-76819651D01*
X77394483Y-76819651D02*
X77433188Y-76626127D01*
X77433188Y-76626127D02*
X77433188Y-76471308D01*
X77433188Y-76471308D02*
X77394483Y-76277784D01*
X77394483Y-76277784D02*
X77355778Y-76161670D01*
X77355778Y-76161670D02*
X77317073Y-76084260D01*
X77317073Y-76084260D02*
X77239664Y-75968146D01*
X77239664Y-75968146D02*
X77200959Y-75929441D01*
X76426864Y-76780946D02*
X76465568Y-76819651D01*
X76465568Y-76819651D02*
X76581683Y-76858355D01*
X76581683Y-76858355D02*
X76659092Y-76858355D01*
X76659092Y-76858355D02*
X76775206Y-76819651D01*
X76775206Y-76819651D02*
X76852616Y-76742241D01*
X76852616Y-76742241D02*
X76891321Y-76664831D01*
X76891321Y-76664831D02*
X76930025Y-76510012D01*
X76930025Y-76510012D02*
X76930025Y-76393898D01*
X76930025Y-76393898D02*
X76891321Y-76239079D01*
X76891321Y-76239079D02*
X76852616Y-76161670D01*
X76852616Y-76161670D02*
X76775206Y-76084260D01*
X76775206Y-76084260D02*
X76659092Y-76045555D01*
X76659092Y-76045555D02*
X76581683Y-76045555D01*
X76581683Y-76045555D02*
X76465568Y-76084260D01*
X76465568Y-76084260D02*
X76426864Y-76122965D01*
X75768883Y-76819651D02*
X75846292Y-76858355D01*
X75846292Y-76858355D02*
X76001111Y-76858355D01*
X76001111Y-76858355D02*
X76078521Y-76819651D01*
X76078521Y-76819651D02*
X76117225Y-76742241D01*
X76117225Y-76742241D02*
X76117225Y-76432603D01*
X76117225Y-76432603D02*
X76078521Y-76355193D01*
X76078521Y-76355193D02*
X76001111Y-76316489D01*
X76001111Y-76316489D02*
X75846292Y-76316489D01*
X75846292Y-76316489D02*
X75768883Y-76355193D01*
X75768883Y-76355193D02*
X75730178Y-76432603D01*
X75730178Y-76432603D02*
X75730178Y-76510012D01*
X75730178Y-76510012D02*
X76117225Y-76587422D01*
X75265720Y-76858355D02*
X75343130Y-76819651D01*
X75343130Y-76819651D02*
X75381835Y-76742241D01*
X75381835Y-76742241D02*
X75381835Y-76045555D01*
X74839968Y-76858355D02*
X74917378Y-76819651D01*
X74917378Y-76819651D02*
X74956083Y-76742241D01*
X74956083Y-76742241D02*
X74956083Y-76045555D01*
X74065874Y-76780946D02*
X74104578Y-76819651D01*
X74104578Y-76819651D02*
X74220693Y-76858355D01*
X74220693Y-76858355D02*
X74298102Y-76858355D01*
X74298102Y-76858355D02*
X74414216Y-76819651D01*
X74414216Y-76819651D02*
X74491626Y-76742241D01*
X74491626Y-76742241D02*
X74530331Y-76664831D01*
X74530331Y-76664831D02*
X74569035Y-76510012D01*
X74569035Y-76510012D02*
X74569035Y-76393898D01*
X74569035Y-76393898D02*
X74530331Y-76239079D01*
X74530331Y-76239079D02*
X74491626Y-76161670D01*
X74491626Y-76161670D02*
X74414216Y-76084260D01*
X74414216Y-76084260D02*
X74298102Y-76045555D01*
X74298102Y-76045555D02*
X74220693Y-76045555D01*
X74220693Y-76045555D02*
X74104578Y-76084260D01*
X74104578Y-76084260D02*
X74065874Y-76122965D01*
X73833645Y-76045555D02*
X73369188Y-76045555D01*
X73601416Y-76858355D02*
X73601416Y-76045555D01*
X72633798Y-76858355D02*
X72904731Y-76471308D01*
X73098255Y-76858355D02*
X73098255Y-76045555D01*
X73098255Y-76045555D02*
X72788617Y-76045555D01*
X72788617Y-76045555D02*
X72711207Y-76084260D01*
X72711207Y-76084260D02*
X72672502Y-76122965D01*
X72672502Y-76122965D02*
X72633798Y-76200374D01*
X72633798Y-76200374D02*
X72633798Y-76316489D01*
X72633798Y-76316489D02*
X72672502Y-76393898D01*
X72672502Y-76393898D02*
X72711207Y-76432603D01*
X72711207Y-76432603D02*
X72788617Y-76471308D01*
X72788617Y-76471308D02*
X73098255Y-76471308D01*
X71898407Y-76858355D02*
X72285455Y-76858355D01*
X72285455Y-76858355D02*
X72285455Y-76045555D01*
X71704883Y-77167993D02*
X71666178Y-77129289D01*
X71666178Y-77129289D02*
X71588769Y-77013174D01*
X71588769Y-77013174D02*
X71550064Y-76935765D01*
X71550064Y-76935765D02*
X71511359Y-76819651D01*
X71511359Y-76819651D02*
X71472655Y-76626127D01*
X71472655Y-76626127D02*
X71472655Y-76471308D01*
X71472655Y-76471308D02*
X71511359Y-76277784D01*
X71511359Y-76277784D02*
X71550064Y-76161670D01*
X71550064Y-76161670D02*
X71588769Y-76084260D01*
X71588769Y-76084260D02*
X71666178Y-75968146D01*
X71666178Y-75968146D02*
X71704883Y-75929441D01*
X86722327Y-77354117D02*
X86451394Y-78166917D01*
X86451394Y-78166917D02*
X86180460Y-77354117D01*
X85754708Y-77354117D02*
X85677298Y-77354117D01*
X85677298Y-77354117D02*
X85599889Y-77392822D01*
X85599889Y-77392822D02*
X85561184Y-77431527D01*
X85561184Y-77431527D02*
X85522479Y-77508936D01*
X85522479Y-77508936D02*
X85483774Y-77663755D01*
X85483774Y-77663755D02*
X85483774Y-77857279D01*
X85483774Y-77857279D02*
X85522479Y-78012098D01*
X85522479Y-78012098D02*
X85561184Y-78089508D01*
X85561184Y-78089508D02*
X85599889Y-78128213D01*
X85599889Y-78128213D02*
X85677298Y-78166917D01*
X85677298Y-78166917D02*
X85754708Y-78166917D01*
X85754708Y-78166917D02*
X85832117Y-78128213D01*
X85832117Y-78128213D02*
X85870822Y-78089508D01*
X85870822Y-78089508D02*
X85909527Y-78012098D01*
X85909527Y-78012098D02*
X85948231Y-77857279D01*
X85948231Y-77857279D02*
X85948231Y-77663755D01*
X85948231Y-77663755D02*
X85909527Y-77508936D01*
X85909527Y-77508936D02*
X85870822Y-77431527D01*
X85870822Y-77431527D02*
X85832117Y-77392822D01*
X85832117Y-77392822D02*
X85754708Y-77354117D01*
X85135432Y-78089508D02*
X85096727Y-78128213D01*
X85096727Y-78128213D02*
X85135432Y-78166917D01*
X85135432Y-78166917D02*
X85174136Y-78128213D01*
X85174136Y-78128213D02*
X85135432Y-78089508D01*
X85135432Y-78089508D02*
X85135432Y-78166917D01*
X84322631Y-78166917D02*
X84787088Y-78166917D01*
X84554860Y-78166917D02*
X84554860Y-77354117D01*
X84554860Y-77354117D02*
X84632269Y-77470232D01*
X84632269Y-77470232D02*
X84709679Y-77547641D01*
X84709679Y-77547641D02*
X84787088Y-77586346D01*
X86451394Y-78662679D02*
X86373984Y-78662679D01*
X86373984Y-78662679D02*
X86296575Y-78701384D01*
X86296575Y-78701384D02*
X86257870Y-78740089D01*
X86257870Y-78740089D02*
X86219165Y-78817498D01*
X86219165Y-78817498D02*
X86180460Y-78972317D01*
X86180460Y-78972317D02*
X86180460Y-79165841D01*
X86180460Y-79165841D02*
X86219165Y-79320660D01*
X86219165Y-79320660D02*
X86257870Y-79398070D01*
X86257870Y-79398070D02*
X86296575Y-79436775D01*
X86296575Y-79436775D02*
X86373984Y-79475479D01*
X86373984Y-79475479D02*
X86451394Y-79475479D01*
X86451394Y-79475479D02*
X86528803Y-79436775D01*
X86528803Y-79436775D02*
X86567508Y-79398070D01*
X86567508Y-79398070D02*
X86606213Y-79320660D01*
X86606213Y-79320660D02*
X86644917Y-79165841D01*
X86644917Y-79165841D02*
X86644917Y-78972317D01*
X86644917Y-78972317D02*
X86606213Y-78817498D01*
X86606213Y-78817498D02*
X86567508Y-78740089D01*
X86567508Y-78740089D02*
X86528803Y-78701384D01*
X86528803Y-78701384D02*
X86451394Y-78662679D01*
X85909527Y-78662679D02*
X85406365Y-78662679D01*
X85406365Y-78662679D02*
X85677299Y-78972317D01*
X85677299Y-78972317D02*
X85561184Y-78972317D01*
X85561184Y-78972317D02*
X85483775Y-79011022D01*
X85483775Y-79011022D02*
X85445070Y-79049727D01*
X85445070Y-79049727D02*
X85406365Y-79127136D01*
X85406365Y-79127136D02*
X85406365Y-79320660D01*
X85406365Y-79320660D02*
X85445070Y-79398070D01*
X85445070Y-79398070D02*
X85483775Y-79436775D01*
X85483775Y-79436775D02*
X85561184Y-79475479D01*
X85561184Y-79475479D02*
X85793413Y-79475479D01*
X85793413Y-79475479D02*
X85870822Y-79436775D01*
X85870822Y-79436775D02*
X85909527Y-79398070D01*
X84477451Y-78623975D02*
X85174137Y-79669003D01*
X84245222Y-78740089D02*
X84206518Y-78701384D01*
X84206518Y-78701384D02*
X84129108Y-78662679D01*
X84129108Y-78662679D02*
X83935584Y-78662679D01*
X83935584Y-78662679D02*
X83858175Y-78701384D01*
X83858175Y-78701384D02*
X83819470Y-78740089D01*
X83819470Y-78740089D02*
X83780765Y-78817498D01*
X83780765Y-78817498D02*
X83780765Y-78894908D01*
X83780765Y-78894908D02*
X83819470Y-79011022D01*
X83819470Y-79011022D02*
X84283927Y-79475479D01*
X84283927Y-79475479D02*
X83780765Y-79475479D01*
X83277604Y-78662679D02*
X83200194Y-78662679D01*
X83200194Y-78662679D02*
X83122785Y-78701384D01*
X83122785Y-78701384D02*
X83084080Y-78740089D01*
X83084080Y-78740089D02*
X83045375Y-78817498D01*
X83045375Y-78817498D02*
X83006670Y-78972317D01*
X83006670Y-78972317D02*
X83006670Y-79165841D01*
X83006670Y-79165841D02*
X83045375Y-79320660D01*
X83045375Y-79320660D02*
X83084080Y-79398070D01*
X83084080Y-79398070D02*
X83122785Y-79436775D01*
X83122785Y-79436775D02*
X83200194Y-79475479D01*
X83200194Y-79475479D02*
X83277604Y-79475479D01*
X83277604Y-79475479D02*
X83355013Y-79436775D01*
X83355013Y-79436775D02*
X83393718Y-79398070D01*
X83393718Y-79398070D02*
X83432423Y-79320660D01*
X83432423Y-79320660D02*
X83471127Y-79165841D01*
X83471127Y-79165841D02*
X83471127Y-78972317D01*
X83471127Y-78972317D02*
X83432423Y-78817498D01*
X83432423Y-78817498D02*
X83393718Y-78740089D01*
X83393718Y-78740089D02*
X83355013Y-78701384D01*
X83355013Y-78701384D02*
X83277604Y-78662679D01*
X82697032Y-78740089D02*
X82658328Y-78701384D01*
X82658328Y-78701384D02*
X82580918Y-78662679D01*
X82580918Y-78662679D02*
X82387394Y-78662679D01*
X82387394Y-78662679D02*
X82309985Y-78701384D01*
X82309985Y-78701384D02*
X82271280Y-78740089D01*
X82271280Y-78740089D02*
X82232575Y-78817498D01*
X82232575Y-78817498D02*
X82232575Y-78894908D01*
X82232575Y-78894908D02*
X82271280Y-79011022D01*
X82271280Y-79011022D02*
X82735737Y-79475479D01*
X82735737Y-79475479D02*
X82232575Y-79475479D01*
X81535890Y-78662679D02*
X81690709Y-78662679D01*
X81690709Y-78662679D02*
X81768118Y-78701384D01*
X81768118Y-78701384D02*
X81806823Y-78740089D01*
X81806823Y-78740089D02*
X81884233Y-78856203D01*
X81884233Y-78856203D02*
X81922937Y-79011022D01*
X81922937Y-79011022D02*
X81922937Y-79320660D01*
X81922937Y-79320660D02*
X81884233Y-79398070D01*
X81884233Y-79398070D02*
X81845528Y-79436775D01*
X81845528Y-79436775D02*
X81768118Y-79475479D01*
X81768118Y-79475479D02*
X81613299Y-79475479D01*
X81613299Y-79475479D02*
X81535890Y-79436775D01*
X81535890Y-79436775D02*
X81497185Y-79398070D01*
X81497185Y-79398070D02*
X81458480Y-79320660D01*
X81458480Y-79320660D02*
X81458480Y-79127136D01*
X81458480Y-79127136D02*
X81497185Y-79049727D01*
X81497185Y-79049727D02*
X81535890Y-79011022D01*
X81535890Y-79011022D02*
X81613299Y-78972317D01*
X81613299Y-78972317D02*
X81768118Y-78972317D01*
X81768118Y-78972317D02*
X81845528Y-79011022D01*
X81845528Y-79011022D02*
X81884233Y-79049727D01*
X81884233Y-79049727D02*
X81922937Y-79127136D01*
X86606213Y-80358289D02*
X86335279Y-80358289D01*
X86219165Y-80784041D02*
X86606213Y-80784041D01*
X86606213Y-80784041D02*
X86606213Y-79971241D01*
X86606213Y-79971241D02*
X86219165Y-79971241D01*
X85522480Y-80784041D02*
X85522480Y-79971241D01*
X85522480Y-80745337D02*
X85599889Y-80784041D01*
X85599889Y-80784041D02*
X85754708Y-80784041D01*
X85754708Y-80784041D02*
X85832118Y-80745337D01*
X85832118Y-80745337D02*
X85870823Y-80706632D01*
X85870823Y-80706632D02*
X85909527Y-80629222D01*
X85909527Y-80629222D02*
X85909527Y-80396994D01*
X85909527Y-80396994D02*
X85870823Y-80319584D01*
X85870823Y-80319584D02*
X85832118Y-80280879D01*
X85832118Y-80280879D02*
X85754708Y-80242175D01*
X85754708Y-80242175D02*
X85599889Y-80242175D01*
X85599889Y-80242175D02*
X85522480Y-80280879D01*
X85135433Y-80784041D02*
X85135433Y-80242175D01*
X85135433Y-79971241D02*
X85174137Y-80009946D01*
X85174137Y-80009946D02*
X85135433Y-80048651D01*
X85135433Y-80048651D02*
X85096728Y-80009946D01*
X85096728Y-80009946D02*
X85135433Y-79971241D01*
X85135433Y-79971241D02*
X85135433Y-80048651D01*
X84864499Y-80242175D02*
X84554861Y-80242175D01*
X84748385Y-79971241D02*
X84748385Y-80667927D01*
X84748385Y-80667927D02*
X84709680Y-80745337D01*
X84709680Y-80745337D02*
X84632270Y-80784041D01*
X84632270Y-80784041D02*
X84554861Y-80784041D01*
X83664652Y-80784041D02*
X83664652Y-79971241D01*
X83664652Y-80280879D02*
X83587242Y-80242175D01*
X83587242Y-80242175D02*
X83432423Y-80242175D01*
X83432423Y-80242175D02*
X83355014Y-80280879D01*
X83355014Y-80280879D02*
X83316309Y-80319584D01*
X83316309Y-80319584D02*
X83277604Y-80396994D01*
X83277604Y-80396994D02*
X83277604Y-80629222D01*
X83277604Y-80629222D02*
X83316309Y-80706632D01*
X83316309Y-80706632D02*
X83355014Y-80745337D01*
X83355014Y-80745337D02*
X83432423Y-80784041D01*
X83432423Y-80784041D02*
X83587242Y-80784041D01*
X83587242Y-80784041D02*
X83664652Y-80745337D01*
X83006671Y-80242175D02*
X82813147Y-80784041D01*
X82619624Y-80242175D02*
X82813147Y-80784041D01*
X82813147Y-80784041D02*
X82890557Y-80977565D01*
X82890557Y-80977565D02*
X82929262Y-81016270D01*
X82929262Y-81016270D02*
X83006671Y-81054975D01*
X81458481Y-79971241D02*
X81458481Y-80551813D01*
X81458481Y-80551813D02*
X81497186Y-80667927D01*
X81497186Y-80667927D02*
X81574595Y-80745337D01*
X81574595Y-80745337D02*
X81690710Y-80784041D01*
X81690710Y-80784041D02*
X81768119Y-80784041D01*
X81071434Y-80784041D02*
X81071434Y-79971241D01*
X80606977Y-80784041D02*
X80955319Y-80319584D01*
X80606977Y-79971241D02*
X81071434Y-80435698D01*
X86257870Y-81550737D02*
X86257870Y-82208718D01*
X86257870Y-82208718D02*
X86296575Y-82286127D01*
X86296575Y-82286127D02*
X86335279Y-82324832D01*
X86335279Y-82324832D02*
X86412689Y-82363537D01*
X86412689Y-82363537D02*
X86528803Y-82363537D01*
X86528803Y-82363537D02*
X86606213Y-82324832D01*
X86257870Y-82053899D02*
X86335279Y-82092603D01*
X86335279Y-82092603D02*
X86490098Y-82092603D01*
X86490098Y-82092603D02*
X86567508Y-82053899D01*
X86567508Y-82053899D02*
X86606213Y-82015194D01*
X86606213Y-82015194D02*
X86644917Y-81937784D01*
X86644917Y-81937784D02*
X86644917Y-81705556D01*
X86644917Y-81705556D02*
X86606213Y-81628146D01*
X86606213Y-81628146D02*
X86567508Y-81589441D01*
X86567508Y-81589441D02*
X86490098Y-81550737D01*
X86490098Y-81550737D02*
X86335279Y-81550737D01*
X86335279Y-81550737D02*
X86257870Y-81589441D01*
X85870823Y-82092603D02*
X85870823Y-81550737D01*
X85870823Y-81279803D02*
X85909527Y-81318508D01*
X85909527Y-81318508D02*
X85870823Y-81357213D01*
X85870823Y-81357213D02*
X85832118Y-81318508D01*
X85832118Y-81318508D02*
X85870823Y-81279803D01*
X85870823Y-81279803D02*
X85870823Y-81357213D01*
X85599889Y-81550737D02*
X85290251Y-81550737D01*
X85483775Y-81279803D02*
X85483775Y-81976489D01*
X85483775Y-81976489D02*
X85445070Y-82053899D01*
X85445070Y-82053899D02*
X85367660Y-82092603D01*
X85367660Y-82092603D02*
X85290251Y-82092603D01*
X85019318Y-82092603D02*
X85019318Y-81279803D01*
X84670975Y-82092603D02*
X84670975Y-81666851D01*
X84670975Y-81666851D02*
X84709680Y-81589441D01*
X84709680Y-81589441D02*
X84787089Y-81550737D01*
X84787089Y-81550737D02*
X84903203Y-81550737D01*
X84903203Y-81550737D02*
X84980613Y-81589441D01*
X84980613Y-81589441D02*
X85019318Y-81628146D01*
X83935585Y-81550737D02*
X83935585Y-82092603D01*
X84283928Y-81550737D02*
X84283928Y-81976489D01*
X84283928Y-81976489D02*
X84245223Y-82053899D01*
X84245223Y-82053899D02*
X84167813Y-82092603D01*
X84167813Y-82092603D02*
X84051699Y-82092603D01*
X84051699Y-82092603D02*
X83974290Y-82053899D01*
X83974290Y-82053899D02*
X83935585Y-82015194D01*
X83548538Y-82092603D02*
X83548538Y-81279803D01*
X83548538Y-81589441D02*
X83471128Y-81550737D01*
X83471128Y-81550737D02*
X83316309Y-81550737D01*
X83316309Y-81550737D02*
X83238900Y-81589441D01*
X83238900Y-81589441D02*
X83200195Y-81628146D01*
X83200195Y-81628146D02*
X83161490Y-81705556D01*
X83161490Y-81705556D02*
X83161490Y-81937784D01*
X83161490Y-81937784D02*
X83200195Y-82015194D01*
X83200195Y-82015194D02*
X83238900Y-82053899D01*
X83238900Y-82053899D02*
X83316309Y-82092603D01*
X83316309Y-82092603D02*
X83471128Y-82092603D01*
X83471128Y-82092603D02*
X83548538Y-82053899D01*
X82813148Y-82015194D02*
X82774443Y-82053899D01*
X82774443Y-82053899D02*
X82813148Y-82092603D01*
X82813148Y-82092603D02*
X82851852Y-82053899D01*
X82851852Y-82053899D02*
X82813148Y-82015194D01*
X82813148Y-82015194D02*
X82813148Y-82092603D01*
X82077757Y-82053899D02*
X82155166Y-82092603D01*
X82155166Y-82092603D02*
X82309985Y-82092603D01*
X82309985Y-82092603D02*
X82387395Y-82053899D01*
X82387395Y-82053899D02*
X82426100Y-82015194D01*
X82426100Y-82015194D02*
X82464804Y-81937784D01*
X82464804Y-81937784D02*
X82464804Y-81705556D01*
X82464804Y-81705556D02*
X82426100Y-81628146D01*
X82426100Y-81628146D02*
X82387395Y-81589441D01*
X82387395Y-81589441D02*
X82309985Y-81550737D01*
X82309985Y-81550737D02*
X82155166Y-81550737D01*
X82155166Y-81550737D02*
X82077757Y-81589441D01*
X81613299Y-82092603D02*
X81690709Y-82053899D01*
X81690709Y-82053899D02*
X81729414Y-82015194D01*
X81729414Y-82015194D02*
X81768118Y-81937784D01*
X81768118Y-81937784D02*
X81768118Y-81705556D01*
X81768118Y-81705556D02*
X81729414Y-81628146D01*
X81729414Y-81628146D02*
X81690709Y-81589441D01*
X81690709Y-81589441D02*
X81613299Y-81550737D01*
X81613299Y-81550737D02*
X81497185Y-81550737D01*
X81497185Y-81550737D02*
X81419776Y-81589441D01*
X81419776Y-81589441D02*
X81381071Y-81628146D01*
X81381071Y-81628146D02*
X81342366Y-81705556D01*
X81342366Y-81705556D02*
X81342366Y-81937784D01*
X81342366Y-81937784D02*
X81381071Y-82015194D01*
X81381071Y-82015194D02*
X81419776Y-82053899D01*
X81419776Y-82053899D02*
X81497185Y-82092603D01*
X81497185Y-82092603D02*
X81613299Y-82092603D01*
X80994024Y-82092603D02*
X80994024Y-81550737D01*
X80994024Y-81628146D02*
X80955319Y-81589441D01*
X80955319Y-81589441D02*
X80877909Y-81550737D01*
X80877909Y-81550737D02*
X80761795Y-81550737D01*
X80761795Y-81550737D02*
X80684386Y-81589441D01*
X80684386Y-81589441D02*
X80645681Y-81666851D01*
X80645681Y-81666851D02*
X80645681Y-82092603D01*
X80645681Y-81666851D02*
X80606976Y-81589441D01*
X80606976Y-81589441D02*
X80529567Y-81550737D01*
X80529567Y-81550737D02*
X80413452Y-81550737D01*
X80413452Y-81550737D02*
X80336043Y-81589441D01*
X80336043Y-81589441D02*
X80297338Y-81666851D01*
X80297338Y-81666851D02*
X80297338Y-82092603D01*
X79329719Y-81241099D02*
X80026405Y-82286127D01*
X79058786Y-82092603D02*
X79058786Y-81279803D01*
X78594329Y-82092603D02*
X78942671Y-81628146D01*
X78594329Y-81279803D02*
X79058786Y-81744260D01*
X77897643Y-82092603D02*
X77897643Y-81666851D01*
X77897643Y-81666851D02*
X77936348Y-81589441D01*
X77936348Y-81589441D02*
X78013757Y-81550737D01*
X78013757Y-81550737D02*
X78168576Y-81550737D01*
X78168576Y-81550737D02*
X78245986Y-81589441D01*
X77897643Y-82053899D02*
X77975052Y-82092603D01*
X77975052Y-82092603D02*
X78168576Y-82092603D01*
X78168576Y-82092603D02*
X78245986Y-82053899D01*
X78245986Y-82053899D02*
X78284690Y-81976489D01*
X78284690Y-81976489D02*
X78284690Y-81899079D01*
X78284690Y-81899079D02*
X78245986Y-81821670D01*
X78245986Y-81821670D02*
X78168576Y-81782965D01*
X78168576Y-81782965D02*
X77975052Y-81782965D01*
X77975052Y-81782965D02*
X77897643Y-81744260D01*
X77510596Y-81550737D02*
X77510596Y-82363537D01*
X77510596Y-81589441D02*
X77433186Y-81550737D01*
X77433186Y-81550737D02*
X77278367Y-81550737D01*
X77278367Y-81550737D02*
X77200958Y-81589441D01*
X77200958Y-81589441D02*
X77162253Y-81628146D01*
X77162253Y-81628146D02*
X77123548Y-81705556D01*
X77123548Y-81705556D02*
X77123548Y-81937784D01*
X77123548Y-81937784D02*
X77162253Y-82015194D01*
X77162253Y-82015194D02*
X77200958Y-82053899D01*
X77200958Y-82053899D02*
X77278367Y-82092603D01*
X77278367Y-82092603D02*
X77433186Y-82092603D01*
X77433186Y-82092603D02*
X77510596Y-82053899D01*
X76775206Y-81550737D02*
X76775206Y-82363537D01*
X76775206Y-81589441D02*
X76697796Y-81550737D01*
X76697796Y-81550737D02*
X76542977Y-81550737D01*
X76542977Y-81550737D02*
X76465568Y-81589441D01*
X76465568Y-81589441D02*
X76426863Y-81628146D01*
X76426863Y-81628146D02*
X76388158Y-81705556D01*
X76388158Y-81705556D02*
X76388158Y-81937784D01*
X76388158Y-81937784D02*
X76426863Y-82015194D01*
X76426863Y-82015194D02*
X76465568Y-82053899D01*
X76465568Y-82053899D02*
X76542977Y-82092603D01*
X76542977Y-82092603D02*
X76697796Y-82092603D01*
X76697796Y-82092603D02*
X76775206Y-82053899D01*
X76039816Y-82092603D02*
X76039816Y-81550737D01*
X76039816Y-81279803D02*
X76078520Y-81318508D01*
X76078520Y-81318508D02*
X76039816Y-81357213D01*
X76039816Y-81357213D02*
X76001111Y-81318508D01*
X76001111Y-81318508D02*
X76039816Y-81279803D01*
X76039816Y-81279803D02*
X76039816Y-81357213D01*
X75497949Y-81279803D02*
X75420539Y-81279803D01*
X75420539Y-81279803D02*
X75343130Y-81318508D01*
X75343130Y-81318508D02*
X75304425Y-81357213D01*
X75304425Y-81357213D02*
X75265720Y-81434622D01*
X75265720Y-81434622D02*
X75227015Y-81589441D01*
X75227015Y-81589441D02*
X75227015Y-81782965D01*
X75227015Y-81782965D02*
X75265720Y-81937784D01*
X75265720Y-81937784D02*
X75304425Y-82015194D01*
X75304425Y-82015194D02*
X75343130Y-82053899D01*
X75343130Y-82053899D02*
X75420539Y-82092603D01*
X75420539Y-82092603D02*
X75497949Y-82092603D01*
X75497949Y-82092603D02*
X75575358Y-82053899D01*
X75575358Y-82053899D02*
X75614063Y-82015194D01*
X75614063Y-82015194D02*
X75652768Y-81937784D01*
X75652768Y-81937784D02*
X75691472Y-81782965D01*
X75691472Y-81782965D02*
X75691472Y-81589441D01*
X75691472Y-81589441D02*
X75652768Y-81434622D01*
X75652768Y-81434622D02*
X75614063Y-81357213D01*
X75614063Y-81357213D02*
X75575358Y-81318508D01*
X75575358Y-81318508D02*
X75497949Y-81279803D01*
X74762558Y-81628146D02*
X74839968Y-81589441D01*
X74839968Y-81589441D02*
X74878673Y-81550737D01*
X74878673Y-81550737D02*
X74917377Y-81473327D01*
X74917377Y-81473327D02*
X74917377Y-81434622D01*
X74917377Y-81434622D02*
X74878673Y-81357213D01*
X74878673Y-81357213D02*
X74839968Y-81318508D01*
X74839968Y-81318508D02*
X74762558Y-81279803D01*
X74762558Y-81279803D02*
X74607739Y-81279803D01*
X74607739Y-81279803D02*
X74530330Y-81318508D01*
X74530330Y-81318508D02*
X74491625Y-81357213D01*
X74491625Y-81357213D02*
X74452920Y-81434622D01*
X74452920Y-81434622D02*
X74452920Y-81473327D01*
X74452920Y-81473327D02*
X74491625Y-81550737D01*
X74491625Y-81550737D02*
X74530330Y-81589441D01*
X74530330Y-81589441D02*
X74607739Y-81628146D01*
X74607739Y-81628146D02*
X74762558Y-81628146D01*
X74762558Y-81628146D02*
X74839968Y-81666851D01*
X74839968Y-81666851D02*
X74878673Y-81705556D01*
X74878673Y-81705556D02*
X74917377Y-81782965D01*
X74917377Y-81782965D02*
X74917377Y-81937784D01*
X74917377Y-81937784D02*
X74878673Y-82015194D01*
X74878673Y-82015194D02*
X74839968Y-82053899D01*
X74839968Y-82053899D02*
X74762558Y-82092603D01*
X74762558Y-82092603D02*
X74607739Y-82092603D01*
X74607739Y-82092603D02*
X74530330Y-82053899D01*
X74530330Y-82053899D02*
X74491625Y-82015194D01*
X74491625Y-82015194D02*
X74452920Y-81937784D01*
X74452920Y-81937784D02*
X74452920Y-81782965D01*
X74452920Y-81782965D02*
X74491625Y-81705556D01*
X74491625Y-81705556D02*
X74530330Y-81666851D01*
X74530330Y-81666851D02*
X74607739Y-81628146D01*
X73756235Y-81550737D02*
X73756235Y-82092603D01*
X73949759Y-81241099D02*
X74143282Y-81821670D01*
X74143282Y-81821670D02*
X73640121Y-81821670D01*
X72749911Y-81241099D02*
X73446597Y-82286127D01*
X72014521Y-82015194D02*
X72053225Y-82053899D01*
X72053225Y-82053899D02*
X72169340Y-82092603D01*
X72169340Y-82092603D02*
X72246749Y-82092603D01*
X72246749Y-82092603D02*
X72362863Y-82053899D01*
X72362863Y-82053899D02*
X72440273Y-81976489D01*
X72440273Y-81976489D02*
X72478978Y-81899079D01*
X72478978Y-81899079D02*
X72517682Y-81744260D01*
X72517682Y-81744260D02*
X72517682Y-81628146D01*
X72517682Y-81628146D02*
X72478978Y-81473327D01*
X72478978Y-81473327D02*
X72440273Y-81395918D01*
X72440273Y-81395918D02*
X72362863Y-81318508D01*
X72362863Y-81318508D02*
X72246749Y-81279803D01*
X72246749Y-81279803D02*
X72169340Y-81279803D01*
X72169340Y-81279803D02*
X72053225Y-81318508D01*
X72053225Y-81318508D02*
X72014521Y-81357213D01*
X71356540Y-82053899D02*
X71433949Y-82092603D01*
X71433949Y-82092603D02*
X71588768Y-82092603D01*
X71588768Y-82092603D02*
X71666178Y-82053899D01*
X71666178Y-82053899D02*
X71704882Y-81976489D01*
X71704882Y-81976489D02*
X71704882Y-81666851D01*
X71704882Y-81666851D02*
X71666178Y-81589441D01*
X71666178Y-81589441D02*
X71588768Y-81550737D01*
X71588768Y-81550737D02*
X71433949Y-81550737D01*
X71433949Y-81550737D02*
X71356540Y-81589441D01*
X71356540Y-81589441D02*
X71317835Y-81666851D01*
X71317835Y-81666851D02*
X71317835Y-81744260D01*
X71317835Y-81744260D02*
X71704882Y-81821670D01*
X70853377Y-82092603D02*
X70930787Y-82053899D01*
X70930787Y-82053899D02*
X70969492Y-81976489D01*
X70969492Y-81976489D02*
X70969492Y-81279803D01*
X70427625Y-82092603D02*
X70505035Y-82053899D01*
X70505035Y-82053899D02*
X70543740Y-81976489D01*
X70543740Y-81976489D02*
X70543740Y-81279803D01*
X69653531Y-82015194D02*
X69692235Y-82053899D01*
X69692235Y-82053899D02*
X69808350Y-82092603D01*
X69808350Y-82092603D02*
X69885759Y-82092603D01*
X69885759Y-82092603D02*
X70001873Y-82053899D01*
X70001873Y-82053899D02*
X70079283Y-81976489D01*
X70079283Y-81976489D02*
X70117988Y-81899079D01*
X70117988Y-81899079D02*
X70156692Y-81744260D01*
X70156692Y-81744260D02*
X70156692Y-81628146D01*
X70156692Y-81628146D02*
X70117988Y-81473327D01*
X70117988Y-81473327D02*
X70079283Y-81395918D01*
X70079283Y-81395918D02*
X70001873Y-81318508D01*
X70001873Y-81318508D02*
X69885759Y-81279803D01*
X69885759Y-81279803D02*
X69808350Y-81279803D01*
X69808350Y-81279803D02*
X69692235Y-81318508D01*
X69692235Y-81318508D02*
X69653531Y-81357213D01*
X69421302Y-81279803D02*
X68956845Y-81279803D01*
X69189073Y-82092603D02*
X69189073Y-81279803D01*
X68221455Y-82092603D02*
X68492388Y-81705556D01*
X68685912Y-82092603D02*
X68685912Y-81279803D01*
X68685912Y-81279803D02*
X68376274Y-81279803D01*
X68376274Y-81279803D02*
X68298864Y-81318508D01*
X68298864Y-81318508D02*
X68260159Y-81357213D01*
X68260159Y-81357213D02*
X68221455Y-81434622D01*
X68221455Y-81434622D02*
X68221455Y-81550737D01*
X68221455Y-81550737D02*
X68260159Y-81628146D01*
X68260159Y-81628146D02*
X68298864Y-81666851D01*
X68298864Y-81666851D02*
X68376274Y-81705556D01*
X68376274Y-81705556D02*
X68685912Y-81705556D01*
X67486064Y-82092603D02*
X67873112Y-82092603D01*
X67873112Y-82092603D02*
X67873112Y-81279803D01*
X138941756Y-43192603D02*
X139212689Y-42805556D01*
X139406213Y-43192603D02*
X139406213Y-42379803D01*
X139406213Y-42379803D02*
X139096575Y-42379803D01*
X139096575Y-42379803D02*
X139019165Y-42418508D01*
X139019165Y-42418508D02*
X138980460Y-42457213D01*
X138980460Y-42457213D02*
X138941756Y-42534622D01*
X138941756Y-42534622D02*
X138941756Y-42650737D01*
X138941756Y-42650737D02*
X138980460Y-42728146D01*
X138980460Y-42728146D02*
X139019165Y-42766851D01*
X139019165Y-42766851D02*
X139096575Y-42805556D01*
X139096575Y-42805556D02*
X139406213Y-42805556D01*
X138632117Y-43153899D02*
X138516003Y-43192603D01*
X138516003Y-43192603D02*
X138322479Y-43192603D01*
X138322479Y-43192603D02*
X138245070Y-43153899D01*
X138245070Y-43153899D02*
X138206365Y-43115194D01*
X138206365Y-43115194D02*
X138167660Y-43037784D01*
X138167660Y-43037784D02*
X138167660Y-42960375D01*
X138167660Y-42960375D02*
X138206365Y-42882965D01*
X138206365Y-42882965D02*
X138245070Y-42844260D01*
X138245070Y-42844260D02*
X138322479Y-42805556D01*
X138322479Y-42805556D02*
X138477298Y-42766851D01*
X138477298Y-42766851D02*
X138554708Y-42728146D01*
X138554708Y-42728146D02*
X138593413Y-42689441D01*
X138593413Y-42689441D02*
X138632117Y-42612032D01*
X138632117Y-42612032D02*
X138632117Y-42534622D01*
X138632117Y-42534622D02*
X138593413Y-42457213D01*
X138593413Y-42457213D02*
X138554708Y-42418508D01*
X138554708Y-42418508D02*
X138477298Y-42379803D01*
X138477298Y-42379803D02*
X138283775Y-42379803D01*
X138283775Y-42379803D02*
X138167660Y-42418508D01*
X137470975Y-42650737D02*
X137470975Y-43192603D01*
X137664499Y-42341099D02*
X137858022Y-42921670D01*
X137858022Y-42921670D02*
X137354861Y-42921670D01*
X136929108Y-42728146D02*
X137006518Y-42689441D01*
X137006518Y-42689441D02*
X137045223Y-42650737D01*
X137045223Y-42650737D02*
X137083927Y-42573327D01*
X137083927Y-42573327D02*
X137083927Y-42534622D01*
X137083927Y-42534622D02*
X137045223Y-42457213D01*
X137045223Y-42457213D02*
X137006518Y-42418508D01*
X137006518Y-42418508D02*
X136929108Y-42379803D01*
X136929108Y-42379803D02*
X136774289Y-42379803D01*
X136774289Y-42379803D02*
X136696880Y-42418508D01*
X136696880Y-42418508D02*
X136658175Y-42457213D01*
X136658175Y-42457213D02*
X136619470Y-42534622D01*
X136619470Y-42534622D02*
X136619470Y-42573327D01*
X136619470Y-42573327D02*
X136658175Y-42650737D01*
X136658175Y-42650737D02*
X136696880Y-42689441D01*
X136696880Y-42689441D02*
X136774289Y-42728146D01*
X136774289Y-42728146D02*
X136929108Y-42728146D01*
X136929108Y-42728146D02*
X137006518Y-42766851D01*
X137006518Y-42766851D02*
X137045223Y-42805556D01*
X137045223Y-42805556D02*
X137083927Y-42882965D01*
X137083927Y-42882965D02*
X137083927Y-43037784D01*
X137083927Y-43037784D02*
X137045223Y-43115194D01*
X137045223Y-43115194D02*
X137006518Y-43153899D01*
X137006518Y-43153899D02*
X136929108Y-43192603D01*
X136929108Y-43192603D02*
X136774289Y-43192603D01*
X136774289Y-43192603D02*
X136696880Y-43153899D01*
X136696880Y-43153899D02*
X136658175Y-43115194D01*
X136658175Y-43115194D02*
X136619470Y-43037784D01*
X136619470Y-43037784D02*
X136619470Y-42882965D01*
X136619470Y-42882965D02*
X136658175Y-42805556D01*
X136658175Y-42805556D02*
X136696880Y-42766851D01*
X136696880Y-42766851D02*
X136774289Y-42728146D01*
X135922785Y-42650737D02*
X135922785Y-43192603D01*
X136116309Y-42341099D02*
X136309832Y-42921670D01*
X136309832Y-42921670D02*
X135806671Y-42921670D01*
X134606823Y-42766851D02*
X134490709Y-42805556D01*
X134490709Y-42805556D02*
X134452004Y-42844260D01*
X134452004Y-42844260D02*
X134413300Y-42921670D01*
X134413300Y-42921670D02*
X134413300Y-43037784D01*
X134413300Y-43037784D02*
X134452004Y-43115194D01*
X134452004Y-43115194D02*
X134490709Y-43153899D01*
X134490709Y-43153899D02*
X134568119Y-43192603D01*
X134568119Y-43192603D02*
X134877757Y-43192603D01*
X134877757Y-43192603D02*
X134877757Y-42379803D01*
X134877757Y-42379803D02*
X134606823Y-42379803D01*
X134606823Y-42379803D02*
X134529414Y-42418508D01*
X134529414Y-42418508D02*
X134490709Y-42457213D01*
X134490709Y-42457213D02*
X134452004Y-42534622D01*
X134452004Y-42534622D02*
X134452004Y-42612032D01*
X134452004Y-42612032D02*
X134490709Y-42689441D01*
X134490709Y-42689441D02*
X134529414Y-42728146D01*
X134529414Y-42728146D02*
X134606823Y-42766851D01*
X134606823Y-42766851D02*
X134877757Y-42766851D01*
D12*
X125603428Y-69707330D02*
X125603428Y-70564473D01*
X127103428Y-70135901D02*
X125603428Y-70135901D01*
X127103428Y-71064472D02*
X125603428Y-71064472D01*
X125603428Y-71064472D02*
X126674857Y-71564472D01*
X126674857Y-71564472D02*
X125603428Y-72064472D01*
X125603428Y-72064472D02*
X127103428Y-72064472D01*
X126960571Y-73635901D02*
X127032000Y-73564473D01*
X127032000Y-73564473D02*
X127103428Y-73350187D01*
X127103428Y-73350187D02*
X127103428Y-73207330D01*
X127103428Y-73207330D02*
X127032000Y-72993044D01*
X127032000Y-72993044D02*
X126889142Y-72850187D01*
X126889142Y-72850187D02*
X126746285Y-72778758D01*
X126746285Y-72778758D02*
X126460571Y-72707330D01*
X126460571Y-72707330D02*
X126246285Y-72707330D01*
X126246285Y-72707330D02*
X125960571Y-72778758D01*
X125960571Y-72778758D02*
X125817714Y-72850187D01*
X125817714Y-72850187D02*
X125674857Y-72993044D01*
X125674857Y-72993044D02*
X125603428Y-73207330D01*
X125603428Y-73207330D02*
X125603428Y-73350187D01*
X125603428Y-73350187D02*
X125674857Y-73564473D01*
X125674857Y-73564473D02*
X125746285Y-73635901D01*
X125746285Y-74207330D02*
X125674857Y-74278758D01*
X125674857Y-74278758D02*
X125603428Y-74421616D01*
X125603428Y-74421616D02*
X125603428Y-74778758D01*
X125603428Y-74778758D02*
X125674857Y-74921616D01*
X125674857Y-74921616D02*
X125746285Y-74993044D01*
X125746285Y-74993044D02*
X125889142Y-75064473D01*
X125889142Y-75064473D02*
X126032000Y-75064473D01*
X126032000Y-75064473D02*
X126246285Y-74993044D01*
X126246285Y-74993044D02*
X127103428Y-74135901D01*
X127103428Y-74135901D02*
X127103428Y-75064473D01*
X125746285Y-75635901D02*
X125674857Y-75707329D01*
X125674857Y-75707329D02*
X125603428Y-75850187D01*
X125603428Y-75850187D02*
X125603428Y-76207329D01*
X125603428Y-76207329D02*
X125674857Y-76350187D01*
X125674857Y-76350187D02*
X125746285Y-76421615D01*
X125746285Y-76421615D02*
X125889142Y-76493044D01*
X125889142Y-76493044D02*
X126032000Y-76493044D01*
X126032000Y-76493044D02*
X126246285Y-76421615D01*
X126246285Y-76421615D02*
X127103428Y-75564472D01*
X127103428Y-75564472D02*
X127103428Y-76493044D01*
X125603428Y-77421615D02*
X125603428Y-77564472D01*
X125603428Y-77564472D02*
X125674857Y-77707329D01*
X125674857Y-77707329D02*
X125746285Y-77778758D01*
X125746285Y-77778758D02*
X125889142Y-77850186D01*
X125889142Y-77850186D02*
X126174857Y-77921615D01*
X126174857Y-77921615D02*
X126532000Y-77921615D01*
X126532000Y-77921615D02*
X126817714Y-77850186D01*
X126817714Y-77850186D02*
X126960571Y-77778758D01*
X126960571Y-77778758D02*
X127032000Y-77707329D01*
X127032000Y-77707329D02*
X127103428Y-77564472D01*
X127103428Y-77564472D02*
X127103428Y-77421615D01*
X127103428Y-77421615D02*
X127032000Y-77278758D01*
X127032000Y-77278758D02*
X126960571Y-77207329D01*
X126960571Y-77207329D02*
X126817714Y-77135900D01*
X126817714Y-77135900D02*
X126532000Y-77064472D01*
X126532000Y-77064472D02*
X126174857Y-77064472D01*
X126174857Y-77064472D02*
X125889142Y-77135900D01*
X125889142Y-77135900D02*
X125746285Y-77207329D01*
X125746285Y-77207329D02*
X125674857Y-77278758D01*
X125674857Y-77278758D02*
X125603428Y-77421615D01*
X127103428Y-78635900D02*
X127103428Y-78921614D01*
X127103428Y-78921614D02*
X127032000Y-79064471D01*
X127032000Y-79064471D02*
X126960571Y-79135900D01*
X126960571Y-79135900D02*
X126746285Y-79278757D01*
X126746285Y-79278757D02*
X126460571Y-79350186D01*
X126460571Y-79350186D02*
X125889142Y-79350186D01*
X125889142Y-79350186D02*
X125746285Y-79278757D01*
X125746285Y-79278757D02*
X125674857Y-79207329D01*
X125674857Y-79207329D02*
X125603428Y-79064471D01*
X125603428Y-79064471D02*
X125603428Y-78778757D01*
X125603428Y-78778757D02*
X125674857Y-78635900D01*
X125674857Y-78635900D02*
X125746285Y-78564471D01*
X125746285Y-78564471D02*
X125889142Y-78493043D01*
X125889142Y-78493043D02*
X126246285Y-78493043D01*
X126246285Y-78493043D02*
X126389142Y-78564471D01*
X126389142Y-78564471D02*
X126460571Y-78635900D01*
X126460571Y-78635900D02*
X126532000Y-78778757D01*
X126532000Y-78778757D02*
X126532000Y-79064471D01*
X126532000Y-79064471D02*
X126460571Y-79207329D01*
X126460571Y-79207329D02*
X126389142Y-79278757D01*
X126389142Y-79278757D02*
X126246285Y-79350186D01*
D13*
X119467219Y-47369673D02*
X118467219Y-47369673D01*
X118467219Y-47369673D02*
X119181504Y-47703006D01*
X119181504Y-47703006D02*
X118467219Y-48036339D01*
X118467219Y-48036339D02*
X119467219Y-48036339D01*
X119467219Y-48655387D02*
X119419600Y-48560149D01*
X119419600Y-48560149D02*
X119371980Y-48512530D01*
X119371980Y-48512530D02*
X119276742Y-48464911D01*
X119276742Y-48464911D02*
X118991028Y-48464911D01*
X118991028Y-48464911D02*
X118895790Y-48512530D01*
X118895790Y-48512530D02*
X118848171Y-48560149D01*
X118848171Y-48560149D02*
X118800552Y-48655387D01*
X118800552Y-48655387D02*
X118800552Y-48798244D01*
X118800552Y-48798244D02*
X118848171Y-48893482D01*
X118848171Y-48893482D02*
X118895790Y-48941101D01*
X118895790Y-48941101D02*
X118991028Y-48988720D01*
X118991028Y-48988720D02*
X119276742Y-48988720D01*
X119276742Y-48988720D02*
X119371980Y-48941101D01*
X119371980Y-48941101D02*
X119419600Y-48893482D01*
X119419600Y-48893482D02*
X119467219Y-48798244D01*
X119467219Y-48798244D02*
X119467219Y-48655387D01*
X118800552Y-49274435D02*
X118800552Y-49655387D01*
X118467219Y-49417292D02*
X119324361Y-49417292D01*
X119324361Y-49417292D02*
X119419600Y-49464911D01*
X119419600Y-49464911D02*
X119467219Y-49560149D01*
X119467219Y-49560149D02*
X119467219Y-49655387D01*
X119467219Y-50131578D02*
X119419600Y-50036340D01*
X119419600Y-50036340D02*
X119371980Y-49988721D01*
X119371980Y-49988721D02*
X119276742Y-49941102D01*
X119276742Y-49941102D02*
X118991028Y-49941102D01*
X118991028Y-49941102D02*
X118895790Y-49988721D01*
X118895790Y-49988721D02*
X118848171Y-50036340D01*
X118848171Y-50036340D02*
X118800552Y-50131578D01*
X118800552Y-50131578D02*
X118800552Y-50274435D01*
X118800552Y-50274435D02*
X118848171Y-50369673D01*
X118848171Y-50369673D02*
X118895790Y-50417292D01*
X118895790Y-50417292D02*
X118991028Y-50464911D01*
X118991028Y-50464911D02*
X119276742Y-50464911D01*
X119276742Y-50464911D02*
X119371980Y-50417292D01*
X119371980Y-50417292D02*
X119419600Y-50369673D01*
X119419600Y-50369673D02*
X119467219Y-50274435D01*
X119467219Y-50274435D02*
X119467219Y-50131578D01*
X119467219Y-50893483D02*
X118800552Y-50893483D01*
X118991028Y-50893483D02*
X118895790Y-50941102D01*
X118895790Y-50941102D02*
X118848171Y-50988721D01*
X118848171Y-50988721D02*
X118800552Y-51083959D01*
X118800552Y-51083959D02*
X118800552Y-51179197D01*
X119467219Y-52798245D02*
X119467219Y-52226817D01*
X119467219Y-52512531D02*
X118467219Y-52512531D01*
X118467219Y-52512531D02*
X118610076Y-52417293D01*
X118610076Y-52417293D02*
X118705314Y-52322055D01*
X118705314Y-52322055D02*
X118752933Y-52226817D01*
X119848171Y-54274436D02*
X119800552Y-54226817D01*
X119800552Y-54226817D02*
X119657695Y-54131579D01*
X119657695Y-54131579D02*
X119562457Y-54083960D01*
X119562457Y-54083960D02*
X119419600Y-54036341D01*
X119419600Y-54036341D02*
X119181504Y-53988722D01*
X119181504Y-53988722D02*
X118991028Y-53988722D01*
X118991028Y-53988722D02*
X118752933Y-54036341D01*
X118752933Y-54036341D02*
X118610076Y-54083960D01*
X118610076Y-54083960D02*
X118514838Y-54131579D01*
X118514838Y-54131579D02*
X118371980Y-54226817D01*
X118371980Y-54226817D02*
X118324361Y-54274436D01*
X118467219Y-54560151D02*
X119467219Y-55226817D01*
X118467219Y-55226817D02*
X119467219Y-54560151D01*
X119848171Y-55512532D02*
X119800552Y-55560151D01*
X119800552Y-55560151D02*
X119657695Y-55655389D01*
X119657695Y-55655389D02*
X119562457Y-55703008D01*
X119562457Y-55703008D02*
X119419600Y-55750627D01*
X119419600Y-55750627D02*
X119181504Y-55798246D01*
X119181504Y-55798246D02*
X118991028Y-55798246D01*
X118991028Y-55798246D02*
X118752933Y-55750627D01*
X118752933Y-55750627D02*
X118610076Y-55703008D01*
X118610076Y-55703008D02*
X118514838Y-55655389D01*
X118514838Y-55655389D02*
X118371980Y-55560151D01*
X118371980Y-55560151D02*
X118324361Y-55512532D01*
D10*
X148583622Y-77179803D02*
X148041756Y-77992603D01*
X148041756Y-77179803D02*
X148583622Y-77992603D01*
X147732118Y-77682965D02*
X147112842Y-77682965D01*
X146725794Y-77566851D02*
X146454860Y-77566851D01*
X146338746Y-77992603D02*
X146725794Y-77992603D01*
X146725794Y-77992603D02*
X146725794Y-77179803D01*
X146725794Y-77179803D02*
X146338746Y-77179803D01*
X145990404Y-77450737D02*
X145990404Y-77992603D01*
X145990404Y-77528146D02*
X145951699Y-77489441D01*
X145951699Y-77489441D02*
X145874289Y-77450737D01*
X145874289Y-77450737D02*
X145758175Y-77450737D01*
X145758175Y-77450737D02*
X145680766Y-77489441D01*
X145680766Y-77489441D02*
X145642061Y-77566851D01*
X145642061Y-77566851D02*
X145642061Y-77992603D01*
X144906671Y-77992603D02*
X144906671Y-77179803D01*
X144906671Y-77953899D02*
X144984080Y-77992603D01*
X144984080Y-77992603D02*
X145138899Y-77992603D01*
X145138899Y-77992603D02*
X145216309Y-77953899D01*
X145216309Y-77953899D02*
X145255014Y-77915194D01*
X145255014Y-77915194D02*
X145293718Y-77837784D01*
X145293718Y-77837784D02*
X145293718Y-77605556D01*
X145293718Y-77605556D02*
X145255014Y-77528146D01*
X145255014Y-77528146D02*
X145216309Y-77489441D01*
X145216309Y-77489441D02*
X145138899Y-77450737D01*
X145138899Y-77450737D02*
X144984080Y-77450737D01*
X144984080Y-77450737D02*
X144906671Y-77489441D01*
X144558328Y-77953899D02*
X144480919Y-77992603D01*
X144480919Y-77992603D02*
X144326100Y-77992603D01*
X144326100Y-77992603D02*
X144248690Y-77953899D01*
X144248690Y-77953899D02*
X144209986Y-77876489D01*
X144209986Y-77876489D02*
X144209986Y-77837784D01*
X144209986Y-77837784D02*
X144248690Y-77760375D01*
X144248690Y-77760375D02*
X144326100Y-77721670D01*
X144326100Y-77721670D02*
X144442214Y-77721670D01*
X144442214Y-77721670D02*
X144519624Y-77682965D01*
X144519624Y-77682965D02*
X144558328Y-77605556D01*
X144558328Y-77605556D02*
X144558328Y-77566851D01*
X144558328Y-77566851D02*
X144519624Y-77489441D01*
X144519624Y-77489441D02*
X144442214Y-77450737D01*
X144442214Y-77450737D02*
X144326100Y-77450737D01*
X144326100Y-77450737D02*
X144248690Y-77489441D01*
X143977757Y-77450737D02*
X143668119Y-77450737D01*
X143861643Y-77179803D02*
X143861643Y-77876489D01*
X143861643Y-77876489D02*
X143822938Y-77953899D01*
X143822938Y-77953899D02*
X143745528Y-77992603D01*
X143745528Y-77992603D02*
X143668119Y-77992603D01*
X143281071Y-77992603D02*
X143358481Y-77953899D01*
X143358481Y-77953899D02*
X143397186Y-77915194D01*
X143397186Y-77915194D02*
X143435890Y-77837784D01*
X143435890Y-77837784D02*
X143435890Y-77605556D01*
X143435890Y-77605556D02*
X143397186Y-77528146D01*
X143397186Y-77528146D02*
X143358481Y-77489441D01*
X143358481Y-77489441D02*
X143281071Y-77450737D01*
X143281071Y-77450737D02*
X143164957Y-77450737D01*
X143164957Y-77450737D02*
X143087548Y-77489441D01*
X143087548Y-77489441D02*
X143048843Y-77528146D01*
X143048843Y-77528146D02*
X143010138Y-77605556D01*
X143010138Y-77605556D02*
X143010138Y-77837784D01*
X143010138Y-77837784D02*
X143048843Y-77915194D01*
X143048843Y-77915194D02*
X143087548Y-77953899D01*
X143087548Y-77953899D02*
X143164957Y-77992603D01*
X143164957Y-77992603D02*
X143281071Y-77992603D01*
X142661796Y-77450737D02*
X142661796Y-78263537D01*
X142661796Y-77489441D02*
X142584386Y-77450737D01*
X142584386Y-77450737D02*
X142429567Y-77450737D01*
X142429567Y-77450737D02*
X142352158Y-77489441D01*
X142352158Y-77489441D02*
X142313453Y-77528146D01*
X142313453Y-77528146D02*
X142274748Y-77605556D01*
X142274748Y-77605556D02*
X142274748Y-77837784D01*
X142274748Y-77837784D02*
X142313453Y-77915194D01*
X142313453Y-77915194D02*
X142352158Y-77953899D01*
X142352158Y-77953899D02*
X142429567Y-77992603D01*
X142429567Y-77992603D02*
X142584386Y-77992603D01*
X142584386Y-77992603D02*
X142661796Y-77953899D01*
X123966851Y-52293786D02*
X123966851Y-52564720D01*
X124392603Y-52680834D02*
X124392603Y-52293786D01*
X124392603Y-52293786D02*
X123579803Y-52293786D01*
X123579803Y-52293786D02*
X123579803Y-52680834D01*
X124392603Y-53029176D02*
X123579803Y-53029176D01*
X123579803Y-53029176D02*
X124392603Y-53493633D01*
X124392603Y-53493633D02*
X123579803Y-53493633D01*
X124160375Y-53841977D02*
X124160375Y-54229024D01*
X124392603Y-53764567D02*
X123579803Y-54035500D01*
X123579803Y-54035500D02*
X124392603Y-54306434D01*
X123966851Y-54848301D02*
X124005556Y-54964415D01*
X124005556Y-54964415D02*
X124044260Y-55003120D01*
X124044260Y-55003120D02*
X124121670Y-55041824D01*
X124121670Y-55041824D02*
X124237784Y-55041824D01*
X124237784Y-55041824D02*
X124315194Y-55003120D01*
X124315194Y-55003120D02*
X124353899Y-54964415D01*
X124353899Y-54964415D02*
X124392603Y-54887005D01*
X124392603Y-54887005D02*
X124392603Y-54577367D01*
X124392603Y-54577367D02*
X123579803Y-54577367D01*
X123579803Y-54577367D02*
X123579803Y-54848301D01*
X123579803Y-54848301D02*
X123618508Y-54925710D01*
X123618508Y-54925710D02*
X123657213Y-54964415D01*
X123657213Y-54964415D02*
X123734622Y-55003120D01*
X123734622Y-55003120D02*
X123812032Y-55003120D01*
X123812032Y-55003120D02*
X123889441Y-54964415D01*
X123889441Y-54964415D02*
X123928146Y-54925710D01*
X123928146Y-54925710D02*
X123966851Y-54848301D01*
X123966851Y-54848301D02*
X123966851Y-54577367D01*
X124392603Y-55777215D02*
X124392603Y-55390167D01*
X124392603Y-55390167D02*
X123579803Y-55390167D01*
X123966851Y-56048148D02*
X123966851Y-56319082D01*
X124392603Y-56435196D02*
X124392603Y-56048148D01*
X124392603Y-56048148D02*
X123579803Y-56048148D01*
X123579803Y-56048148D02*
X123579803Y-56435196D01*
X125592603Y-41493786D02*
X124779803Y-41493786D01*
X124779803Y-41493786D02*
X124779803Y-41803424D01*
X124779803Y-41803424D02*
X124818508Y-41880834D01*
X124818508Y-41880834D02*
X124857213Y-41919539D01*
X124857213Y-41919539D02*
X124934622Y-41958243D01*
X124934622Y-41958243D02*
X125050737Y-41958243D01*
X125050737Y-41958243D02*
X125128146Y-41919539D01*
X125128146Y-41919539D02*
X125166851Y-41880834D01*
X125166851Y-41880834D02*
X125205556Y-41803424D01*
X125205556Y-41803424D02*
X125205556Y-41493786D01*
X125592603Y-42306586D02*
X124779803Y-42306586D01*
X124779803Y-42306586D02*
X124779803Y-42500110D01*
X124779803Y-42500110D02*
X124818508Y-42616224D01*
X124818508Y-42616224D02*
X124895918Y-42693634D01*
X124895918Y-42693634D02*
X124973327Y-42732339D01*
X124973327Y-42732339D02*
X125128146Y-42771043D01*
X125128146Y-42771043D02*
X125244260Y-42771043D01*
X125244260Y-42771043D02*
X125399079Y-42732339D01*
X125399079Y-42732339D02*
X125476489Y-42693634D01*
X125476489Y-42693634D02*
X125553899Y-42616224D01*
X125553899Y-42616224D02*
X125592603Y-42500110D01*
X125592603Y-42500110D02*
X125592603Y-42306586D01*
X125592603Y-43119386D02*
X124779803Y-43119386D01*
X124779803Y-43119386D02*
X125592603Y-43583843D01*
X125592603Y-43583843D02*
X124779803Y-43583843D01*
X124779803Y-43970891D02*
X125437784Y-43970891D01*
X125437784Y-43970891D02*
X125515194Y-44009596D01*
X125515194Y-44009596D02*
X125553899Y-44048301D01*
X125553899Y-44048301D02*
X125592603Y-44125710D01*
X125592603Y-44125710D02*
X125592603Y-44280529D01*
X125592603Y-44280529D02*
X125553899Y-44357939D01*
X125553899Y-44357939D02*
X125515194Y-44396644D01*
X125515194Y-44396644D02*
X125437784Y-44435348D01*
X125437784Y-44435348D02*
X124779803Y-44435348D01*
X125592603Y-45170739D02*
X125166851Y-45170739D01*
X125166851Y-45170739D02*
X125089441Y-45132034D01*
X125089441Y-45132034D02*
X125050737Y-45054625D01*
X125050737Y-45054625D02*
X125050737Y-44899806D01*
X125050737Y-44899806D02*
X125089441Y-44822396D01*
X125553899Y-45170739D02*
X125592603Y-45093330D01*
X125592603Y-45093330D02*
X125592603Y-44899806D01*
X125592603Y-44899806D02*
X125553899Y-44822396D01*
X125553899Y-44822396D02*
X125476489Y-44783692D01*
X125476489Y-44783692D02*
X125399079Y-44783692D01*
X125399079Y-44783692D02*
X125321670Y-44822396D01*
X125321670Y-44822396D02*
X125282965Y-44899806D01*
X125282965Y-44899806D02*
X125282965Y-45093330D01*
X125282965Y-45093330D02*
X125244260Y-45170739D01*
X125592603Y-45557786D02*
X125050737Y-45557786D01*
X125205556Y-45557786D02*
X125128146Y-45596491D01*
X125128146Y-45596491D02*
X125089441Y-45635196D01*
X125089441Y-45635196D02*
X125050737Y-45712605D01*
X125050737Y-45712605D02*
X125050737Y-45790015D01*
X125050737Y-45944834D02*
X125050737Y-46254472D01*
X124779803Y-46060948D02*
X125476489Y-46060948D01*
X125476489Y-46060948D02*
X125553899Y-46099653D01*
X125553899Y-46099653D02*
X125592603Y-46177063D01*
X125592603Y-46177063D02*
X125592603Y-46254472D01*
X137579803Y-81880834D02*
X137579803Y-81493786D01*
X137579803Y-81493786D02*
X137966851Y-81455082D01*
X137966851Y-81455082D02*
X137928146Y-81493786D01*
X137928146Y-81493786D02*
X137889441Y-81571196D01*
X137889441Y-81571196D02*
X137889441Y-81764720D01*
X137889441Y-81764720D02*
X137928146Y-81842129D01*
X137928146Y-81842129D02*
X137966851Y-81880834D01*
X137966851Y-81880834D02*
X138044260Y-81919539D01*
X138044260Y-81919539D02*
X138237784Y-81919539D01*
X138237784Y-81919539D02*
X138315194Y-81880834D01*
X138315194Y-81880834D02*
X138353899Y-81842129D01*
X138353899Y-81842129D02*
X138392603Y-81764720D01*
X138392603Y-81764720D02*
X138392603Y-81571196D01*
X138392603Y-81571196D02*
X138353899Y-81493786D01*
X138353899Y-81493786D02*
X138315194Y-81455082D01*
X137579803Y-82151767D02*
X138392603Y-82422700D01*
X138392603Y-82422700D02*
X137579803Y-82693634D01*
X140118508Y-80919539D02*
X140079803Y-80842129D01*
X140079803Y-80842129D02*
X140079803Y-80726015D01*
X140079803Y-80726015D02*
X140118508Y-80609901D01*
X140118508Y-80609901D02*
X140195918Y-80532491D01*
X140195918Y-80532491D02*
X140273327Y-80493786D01*
X140273327Y-80493786D02*
X140428146Y-80455082D01*
X140428146Y-80455082D02*
X140544260Y-80455082D01*
X140544260Y-80455082D02*
X140699079Y-80493786D01*
X140699079Y-80493786D02*
X140776489Y-80532491D01*
X140776489Y-80532491D02*
X140853899Y-80609901D01*
X140853899Y-80609901D02*
X140892603Y-80726015D01*
X140892603Y-80726015D02*
X140892603Y-80803424D01*
X140892603Y-80803424D02*
X140853899Y-80919539D01*
X140853899Y-80919539D02*
X140815194Y-80958243D01*
X140815194Y-80958243D02*
X140544260Y-80958243D01*
X140544260Y-80958243D02*
X140544260Y-80803424D01*
X140892603Y-81306586D02*
X140079803Y-81306586D01*
X140079803Y-81306586D02*
X140892603Y-81771043D01*
X140892603Y-81771043D02*
X140079803Y-81771043D01*
X140892603Y-82158091D02*
X140079803Y-82158091D01*
X140079803Y-82158091D02*
X140079803Y-82351615D01*
X140079803Y-82351615D02*
X140118508Y-82467729D01*
X140118508Y-82467729D02*
X140195918Y-82545139D01*
X140195918Y-82545139D02*
X140273327Y-82583844D01*
X140273327Y-82583844D02*
X140428146Y-82622548D01*
X140428146Y-82622548D02*
X140544260Y-82622548D01*
X140544260Y-82622548D02*
X140699079Y-82583844D01*
X140699079Y-82583844D02*
X140776489Y-82545139D01*
X140776489Y-82545139D02*
X140853899Y-82467729D01*
X140853899Y-82467729D02*
X140892603Y-82351615D01*
X140892603Y-82351615D02*
X140892603Y-82158091D01*
X148453899Y-80655082D02*
X148492603Y-80771196D01*
X148492603Y-80771196D02*
X148492603Y-80964720D01*
X148492603Y-80964720D02*
X148453899Y-81042129D01*
X148453899Y-81042129D02*
X148415194Y-81080834D01*
X148415194Y-81080834D02*
X148337784Y-81119539D01*
X148337784Y-81119539D02*
X148260375Y-81119539D01*
X148260375Y-81119539D02*
X148182965Y-81080834D01*
X148182965Y-81080834D02*
X148144260Y-81042129D01*
X148144260Y-81042129D02*
X148105556Y-80964720D01*
X148105556Y-80964720D02*
X148066851Y-80809901D01*
X148066851Y-80809901D02*
X148028146Y-80732491D01*
X148028146Y-80732491D02*
X147989441Y-80693786D01*
X147989441Y-80693786D02*
X147912032Y-80655082D01*
X147912032Y-80655082D02*
X147834622Y-80655082D01*
X147834622Y-80655082D02*
X147757213Y-80693786D01*
X147757213Y-80693786D02*
X147718508Y-80732491D01*
X147718508Y-80732491D02*
X147679803Y-80809901D01*
X147679803Y-80809901D02*
X147679803Y-81003424D01*
X147679803Y-81003424D02*
X147718508Y-81119539D01*
X148492603Y-81467881D02*
X147679803Y-81467881D01*
X147679803Y-81467881D02*
X147679803Y-81661405D01*
X147679803Y-81661405D02*
X147718508Y-81777519D01*
X147718508Y-81777519D02*
X147795918Y-81854929D01*
X147795918Y-81854929D02*
X147873327Y-81893634D01*
X147873327Y-81893634D02*
X148028146Y-81932338D01*
X148028146Y-81932338D02*
X148144260Y-81932338D01*
X148144260Y-81932338D02*
X148299079Y-81893634D01*
X148299079Y-81893634D02*
X148376489Y-81854929D01*
X148376489Y-81854929D02*
X148453899Y-81777519D01*
X148453899Y-81777519D02*
X148492603Y-81661405D01*
X148492603Y-81661405D02*
X148492603Y-81467881D01*
X148260375Y-82241977D02*
X148260375Y-82629024D01*
X148492603Y-82164567D02*
X147679803Y-82435500D01*
X147679803Y-82435500D02*
X148492603Y-82706434D01*
D12*
X99703428Y-70007330D02*
X99703428Y-70864473D01*
X101203428Y-70435901D02*
X99703428Y-70435901D01*
X101203428Y-71364472D02*
X99703428Y-71364472D01*
X99703428Y-71364472D02*
X100774857Y-71864472D01*
X100774857Y-71864472D02*
X99703428Y-72364472D01*
X99703428Y-72364472D02*
X101203428Y-72364472D01*
X101060571Y-73935901D02*
X101132000Y-73864473D01*
X101132000Y-73864473D02*
X101203428Y-73650187D01*
X101203428Y-73650187D02*
X101203428Y-73507330D01*
X101203428Y-73507330D02*
X101132000Y-73293044D01*
X101132000Y-73293044D02*
X100989142Y-73150187D01*
X100989142Y-73150187D02*
X100846285Y-73078758D01*
X100846285Y-73078758D02*
X100560571Y-73007330D01*
X100560571Y-73007330D02*
X100346285Y-73007330D01*
X100346285Y-73007330D02*
X100060571Y-73078758D01*
X100060571Y-73078758D02*
X99917714Y-73150187D01*
X99917714Y-73150187D02*
X99774857Y-73293044D01*
X99774857Y-73293044D02*
X99703428Y-73507330D01*
X99703428Y-73507330D02*
X99703428Y-73650187D01*
X99703428Y-73650187D02*
X99774857Y-73864473D01*
X99774857Y-73864473D02*
X99846285Y-73935901D01*
X99846285Y-74507330D02*
X99774857Y-74578758D01*
X99774857Y-74578758D02*
X99703428Y-74721616D01*
X99703428Y-74721616D02*
X99703428Y-75078758D01*
X99703428Y-75078758D02*
X99774857Y-75221616D01*
X99774857Y-75221616D02*
X99846285Y-75293044D01*
X99846285Y-75293044D02*
X99989142Y-75364473D01*
X99989142Y-75364473D02*
X100132000Y-75364473D01*
X100132000Y-75364473D02*
X100346285Y-75293044D01*
X100346285Y-75293044D02*
X101203428Y-74435901D01*
X101203428Y-74435901D02*
X101203428Y-75364473D01*
X99846285Y-75935901D02*
X99774857Y-76007329D01*
X99774857Y-76007329D02*
X99703428Y-76150187D01*
X99703428Y-76150187D02*
X99703428Y-76507329D01*
X99703428Y-76507329D02*
X99774857Y-76650187D01*
X99774857Y-76650187D02*
X99846285Y-76721615D01*
X99846285Y-76721615D02*
X99989142Y-76793044D01*
X99989142Y-76793044D02*
X100132000Y-76793044D01*
X100132000Y-76793044D02*
X100346285Y-76721615D01*
X100346285Y-76721615D02*
X101203428Y-75864472D01*
X101203428Y-75864472D02*
X101203428Y-76793044D01*
X99703428Y-77721615D02*
X99703428Y-77864472D01*
X99703428Y-77864472D02*
X99774857Y-78007329D01*
X99774857Y-78007329D02*
X99846285Y-78078758D01*
X99846285Y-78078758D02*
X99989142Y-78150186D01*
X99989142Y-78150186D02*
X100274857Y-78221615D01*
X100274857Y-78221615D02*
X100632000Y-78221615D01*
X100632000Y-78221615D02*
X100917714Y-78150186D01*
X100917714Y-78150186D02*
X101060571Y-78078758D01*
X101060571Y-78078758D02*
X101132000Y-78007329D01*
X101132000Y-78007329D02*
X101203428Y-77864472D01*
X101203428Y-77864472D02*
X101203428Y-77721615D01*
X101203428Y-77721615D02*
X101132000Y-77578758D01*
X101132000Y-77578758D02*
X101060571Y-77507329D01*
X101060571Y-77507329D02*
X100917714Y-77435900D01*
X100917714Y-77435900D02*
X100632000Y-77364472D01*
X100632000Y-77364472D02*
X100274857Y-77364472D01*
X100274857Y-77364472D02*
X99989142Y-77435900D01*
X99989142Y-77435900D02*
X99846285Y-77507329D01*
X99846285Y-77507329D02*
X99774857Y-77578758D01*
X99774857Y-77578758D02*
X99703428Y-77721615D01*
X101203428Y-78935900D02*
X101203428Y-79221614D01*
X101203428Y-79221614D02*
X101132000Y-79364471D01*
X101132000Y-79364471D02*
X101060571Y-79435900D01*
X101060571Y-79435900D02*
X100846285Y-79578757D01*
X100846285Y-79578757D02*
X100560571Y-79650186D01*
X100560571Y-79650186D02*
X99989142Y-79650186D01*
X99989142Y-79650186D02*
X99846285Y-79578757D01*
X99846285Y-79578757D02*
X99774857Y-79507329D01*
X99774857Y-79507329D02*
X99703428Y-79364471D01*
X99703428Y-79364471D02*
X99703428Y-79078757D01*
X99703428Y-79078757D02*
X99774857Y-78935900D01*
X99774857Y-78935900D02*
X99846285Y-78864471D01*
X99846285Y-78864471D02*
X99989142Y-78793043D01*
X99989142Y-78793043D02*
X100346285Y-78793043D01*
X100346285Y-78793043D02*
X100489142Y-78864471D01*
X100489142Y-78864471D02*
X100560571Y-78935900D01*
X100560571Y-78935900D02*
X100632000Y-79078757D01*
X100632000Y-79078757D02*
X100632000Y-79364471D01*
X100632000Y-79364471D02*
X100560571Y-79507329D01*
X100560571Y-79507329D02*
X100489142Y-79578757D01*
X100489142Y-79578757D02*
X100346285Y-79650186D01*
D10*
X138941756Y-53492603D02*
X139212689Y-53105556D01*
X139406213Y-53492603D02*
X139406213Y-52679803D01*
X139406213Y-52679803D02*
X139096575Y-52679803D01*
X139096575Y-52679803D02*
X139019165Y-52718508D01*
X139019165Y-52718508D02*
X138980460Y-52757213D01*
X138980460Y-52757213D02*
X138941756Y-52834622D01*
X138941756Y-52834622D02*
X138941756Y-52950737D01*
X138941756Y-52950737D02*
X138980460Y-53028146D01*
X138980460Y-53028146D02*
X139019165Y-53066851D01*
X139019165Y-53066851D02*
X139096575Y-53105556D01*
X139096575Y-53105556D02*
X139406213Y-53105556D01*
X138632117Y-53453899D02*
X138516003Y-53492603D01*
X138516003Y-53492603D02*
X138322479Y-53492603D01*
X138322479Y-53492603D02*
X138245070Y-53453899D01*
X138245070Y-53453899D02*
X138206365Y-53415194D01*
X138206365Y-53415194D02*
X138167660Y-53337784D01*
X138167660Y-53337784D02*
X138167660Y-53260375D01*
X138167660Y-53260375D02*
X138206365Y-53182965D01*
X138206365Y-53182965D02*
X138245070Y-53144260D01*
X138245070Y-53144260D02*
X138322479Y-53105556D01*
X138322479Y-53105556D02*
X138477298Y-53066851D01*
X138477298Y-53066851D02*
X138554708Y-53028146D01*
X138554708Y-53028146D02*
X138593413Y-52989441D01*
X138593413Y-52989441D02*
X138632117Y-52912032D01*
X138632117Y-52912032D02*
X138632117Y-52834622D01*
X138632117Y-52834622D02*
X138593413Y-52757213D01*
X138593413Y-52757213D02*
X138554708Y-52718508D01*
X138554708Y-52718508D02*
X138477298Y-52679803D01*
X138477298Y-52679803D02*
X138283775Y-52679803D01*
X138283775Y-52679803D02*
X138167660Y-52718508D01*
X137470975Y-52950737D02*
X137470975Y-53492603D01*
X137664499Y-52641099D02*
X137858022Y-53221670D01*
X137858022Y-53221670D02*
X137354861Y-53221670D01*
X136929108Y-53028146D02*
X137006518Y-52989441D01*
X137006518Y-52989441D02*
X137045223Y-52950737D01*
X137045223Y-52950737D02*
X137083927Y-52873327D01*
X137083927Y-52873327D02*
X137083927Y-52834622D01*
X137083927Y-52834622D02*
X137045223Y-52757213D01*
X137045223Y-52757213D02*
X137006518Y-52718508D01*
X137006518Y-52718508D02*
X136929108Y-52679803D01*
X136929108Y-52679803D02*
X136774289Y-52679803D01*
X136774289Y-52679803D02*
X136696880Y-52718508D01*
X136696880Y-52718508D02*
X136658175Y-52757213D01*
X136658175Y-52757213D02*
X136619470Y-52834622D01*
X136619470Y-52834622D02*
X136619470Y-52873327D01*
X136619470Y-52873327D02*
X136658175Y-52950737D01*
X136658175Y-52950737D02*
X136696880Y-52989441D01*
X136696880Y-52989441D02*
X136774289Y-53028146D01*
X136774289Y-53028146D02*
X136929108Y-53028146D01*
X136929108Y-53028146D02*
X137006518Y-53066851D01*
X137006518Y-53066851D02*
X137045223Y-53105556D01*
X137045223Y-53105556D02*
X137083927Y-53182965D01*
X137083927Y-53182965D02*
X137083927Y-53337784D01*
X137083927Y-53337784D02*
X137045223Y-53415194D01*
X137045223Y-53415194D02*
X137006518Y-53453899D01*
X137006518Y-53453899D02*
X136929108Y-53492603D01*
X136929108Y-53492603D02*
X136774289Y-53492603D01*
X136774289Y-53492603D02*
X136696880Y-53453899D01*
X136696880Y-53453899D02*
X136658175Y-53415194D01*
X136658175Y-53415194D02*
X136619470Y-53337784D01*
X136619470Y-53337784D02*
X136619470Y-53182965D01*
X136619470Y-53182965D02*
X136658175Y-53105556D01*
X136658175Y-53105556D02*
X136696880Y-53066851D01*
X136696880Y-53066851D02*
X136774289Y-53028146D01*
X135884080Y-52679803D02*
X136271128Y-52679803D01*
X136271128Y-52679803D02*
X136309832Y-53066851D01*
X136309832Y-53066851D02*
X136271128Y-53028146D01*
X136271128Y-53028146D02*
X136193718Y-52989441D01*
X136193718Y-52989441D02*
X136000194Y-52989441D01*
X136000194Y-52989441D02*
X135922785Y-53028146D01*
X135922785Y-53028146D02*
X135884080Y-53066851D01*
X135884080Y-53066851D02*
X135845375Y-53144260D01*
X135845375Y-53144260D02*
X135845375Y-53337784D01*
X135845375Y-53337784D02*
X135884080Y-53415194D01*
X135884080Y-53415194D02*
X135922785Y-53453899D01*
X135922785Y-53453899D02*
X136000194Y-53492603D01*
X136000194Y-53492603D02*
X136193718Y-53492603D01*
X136193718Y-53492603D02*
X136271128Y-53453899D01*
X136271128Y-53453899D02*
X136309832Y-53415194D01*
X134916461Y-53260375D02*
X134529414Y-53260375D01*
X134993871Y-53492603D02*
X134722938Y-52679803D01*
X134722938Y-52679803D02*
X134452004Y-53492603D01*
X126118508Y-54819539D02*
X126079803Y-54742129D01*
X126079803Y-54742129D02*
X126079803Y-54626015D01*
X126079803Y-54626015D02*
X126118508Y-54509901D01*
X126118508Y-54509901D02*
X126195918Y-54432491D01*
X126195918Y-54432491D02*
X126273327Y-54393786D01*
X126273327Y-54393786D02*
X126428146Y-54355082D01*
X126428146Y-54355082D02*
X126544260Y-54355082D01*
X126544260Y-54355082D02*
X126699079Y-54393786D01*
X126699079Y-54393786D02*
X126776489Y-54432491D01*
X126776489Y-54432491D02*
X126853899Y-54509901D01*
X126853899Y-54509901D02*
X126892603Y-54626015D01*
X126892603Y-54626015D02*
X126892603Y-54703424D01*
X126892603Y-54703424D02*
X126853899Y-54819539D01*
X126853899Y-54819539D02*
X126815194Y-54858243D01*
X126815194Y-54858243D02*
X126544260Y-54858243D01*
X126544260Y-54858243D02*
X126544260Y-54703424D01*
X126892603Y-55206586D02*
X126079803Y-55206586D01*
X126079803Y-55206586D02*
X126892603Y-55671043D01*
X126892603Y-55671043D02*
X126079803Y-55671043D01*
X126892603Y-56058091D02*
X126079803Y-56058091D01*
X126079803Y-56058091D02*
X126079803Y-56251615D01*
X126079803Y-56251615D02*
X126118508Y-56367729D01*
X126118508Y-56367729D02*
X126195918Y-56445139D01*
X126195918Y-56445139D02*
X126273327Y-56483844D01*
X126273327Y-56483844D02*
X126428146Y-56522548D01*
X126428146Y-56522548D02*
X126544260Y-56522548D01*
X126544260Y-56522548D02*
X126699079Y-56483844D01*
X126699079Y-56483844D02*
X126776489Y-56445139D01*
X126776489Y-56445139D02*
X126853899Y-56367729D01*
X126853899Y-56367729D02*
X126892603Y-56251615D01*
X126892603Y-56251615D02*
X126892603Y-56058091D01*
D13*
X138467219Y-68669673D02*
X137467219Y-68669673D01*
X137467219Y-68669673D02*
X138181504Y-69003006D01*
X138181504Y-69003006D02*
X137467219Y-69336339D01*
X137467219Y-69336339D02*
X138467219Y-69336339D01*
X138467219Y-69955387D02*
X138419600Y-69860149D01*
X138419600Y-69860149D02*
X138371980Y-69812530D01*
X138371980Y-69812530D02*
X138276742Y-69764911D01*
X138276742Y-69764911D02*
X137991028Y-69764911D01*
X137991028Y-69764911D02*
X137895790Y-69812530D01*
X137895790Y-69812530D02*
X137848171Y-69860149D01*
X137848171Y-69860149D02*
X137800552Y-69955387D01*
X137800552Y-69955387D02*
X137800552Y-70098244D01*
X137800552Y-70098244D02*
X137848171Y-70193482D01*
X137848171Y-70193482D02*
X137895790Y-70241101D01*
X137895790Y-70241101D02*
X137991028Y-70288720D01*
X137991028Y-70288720D02*
X138276742Y-70288720D01*
X138276742Y-70288720D02*
X138371980Y-70241101D01*
X138371980Y-70241101D02*
X138419600Y-70193482D01*
X138419600Y-70193482D02*
X138467219Y-70098244D01*
X138467219Y-70098244D02*
X138467219Y-69955387D01*
X137800552Y-70574435D02*
X137800552Y-70955387D01*
X137467219Y-70717292D02*
X138324361Y-70717292D01*
X138324361Y-70717292D02*
X138419600Y-70764911D01*
X138419600Y-70764911D02*
X138467219Y-70860149D01*
X138467219Y-70860149D02*
X138467219Y-70955387D01*
X138467219Y-71431578D02*
X138419600Y-71336340D01*
X138419600Y-71336340D02*
X138371980Y-71288721D01*
X138371980Y-71288721D02*
X138276742Y-71241102D01*
X138276742Y-71241102D02*
X137991028Y-71241102D01*
X137991028Y-71241102D02*
X137895790Y-71288721D01*
X137895790Y-71288721D02*
X137848171Y-71336340D01*
X137848171Y-71336340D02*
X137800552Y-71431578D01*
X137800552Y-71431578D02*
X137800552Y-71574435D01*
X137800552Y-71574435D02*
X137848171Y-71669673D01*
X137848171Y-71669673D02*
X137895790Y-71717292D01*
X137895790Y-71717292D02*
X137991028Y-71764911D01*
X137991028Y-71764911D02*
X138276742Y-71764911D01*
X138276742Y-71764911D02*
X138371980Y-71717292D01*
X138371980Y-71717292D02*
X138419600Y-71669673D01*
X138419600Y-71669673D02*
X138467219Y-71574435D01*
X138467219Y-71574435D02*
X138467219Y-71431578D01*
X138467219Y-72193483D02*
X137800552Y-72193483D01*
X137991028Y-72193483D02*
X137895790Y-72241102D01*
X137895790Y-72241102D02*
X137848171Y-72288721D01*
X137848171Y-72288721D02*
X137800552Y-72383959D01*
X137800552Y-72383959D02*
X137800552Y-72479197D01*
X137467219Y-73479198D02*
X137467219Y-74098245D01*
X137467219Y-74098245D02*
X137848171Y-73764912D01*
X137848171Y-73764912D02*
X137848171Y-73907769D01*
X137848171Y-73907769D02*
X137895790Y-74003007D01*
X137895790Y-74003007D02*
X137943409Y-74050626D01*
X137943409Y-74050626D02*
X138038647Y-74098245D01*
X138038647Y-74098245D02*
X138276742Y-74098245D01*
X138276742Y-74098245D02*
X138371980Y-74050626D01*
X138371980Y-74050626D02*
X138419600Y-74003007D01*
X138419600Y-74003007D02*
X138467219Y-73907769D01*
X138467219Y-73907769D02*
X138467219Y-73622055D01*
X138467219Y-73622055D02*
X138419600Y-73526817D01*
X138419600Y-73526817D02*
X138371980Y-73479198D01*
X138848171Y-75574436D02*
X138800552Y-75526817D01*
X138800552Y-75526817D02*
X138657695Y-75431579D01*
X138657695Y-75431579D02*
X138562457Y-75383960D01*
X138562457Y-75383960D02*
X138419600Y-75336341D01*
X138419600Y-75336341D02*
X138181504Y-75288722D01*
X138181504Y-75288722D02*
X137991028Y-75288722D01*
X137991028Y-75288722D02*
X137752933Y-75336341D01*
X137752933Y-75336341D02*
X137610076Y-75383960D01*
X137610076Y-75383960D02*
X137514838Y-75431579D01*
X137514838Y-75431579D02*
X137371980Y-75526817D01*
X137371980Y-75526817D02*
X137324361Y-75574436D01*
X137467219Y-75860151D02*
X137467219Y-76526817D01*
X137467219Y-76526817D02*
X138467219Y-75860151D01*
X138467219Y-75860151D02*
X138467219Y-76526817D01*
X138848171Y-76812532D02*
X138800552Y-76860151D01*
X138800552Y-76860151D02*
X138657695Y-76955389D01*
X138657695Y-76955389D02*
X138562457Y-77003008D01*
X138562457Y-77003008D02*
X138419600Y-77050627D01*
X138419600Y-77050627D02*
X138181504Y-77098246D01*
X138181504Y-77098246D02*
X137991028Y-77098246D01*
X137991028Y-77098246D02*
X137752933Y-77050627D01*
X137752933Y-77050627D02*
X137610076Y-77003008D01*
X137610076Y-77003008D02*
X137514838Y-76955389D01*
X137514838Y-76955389D02*
X137371980Y-76860151D01*
X137371980Y-76860151D02*
X137324361Y-76812532D01*
X112767219Y-70169673D02*
X111767219Y-70169673D01*
X111767219Y-70169673D02*
X112481504Y-70503006D01*
X112481504Y-70503006D02*
X111767219Y-70836339D01*
X111767219Y-70836339D02*
X112767219Y-70836339D01*
X112767219Y-71455387D02*
X112719600Y-71360149D01*
X112719600Y-71360149D02*
X112671980Y-71312530D01*
X112671980Y-71312530D02*
X112576742Y-71264911D01*
X112576742Y-71264911D02*
X112291028Y-71264911D01*
X112291028Y-71264911D02*
X112195790Y-71312530D01*
X112195790Y-71312530D02*
X112148171Y-71360149D01*
X112148171Y-71360149D02*
X112100552Y-71455387D01*
X112100552Y-71455387D02*
X112100552Y-71598244D01*
X112100552Y-71598244D02*
X112148171Y-71693482D01*
X112148171Y-71693482D02*
X112195790Y-71741101D01*
X112195790Y-71741101D02*
X112291028Y-71788720D01*
X112291028Y-71788720D02*
X112576742Y-71788720D01*
X112576742Y-71788720D02*
X112671980Y-71741101D01*
X112671980Y-71741101D02*
X112719600Y-71693482D01*
X112719600Y-71693482D02*
X112767219Y-71598244D01*
X112767219Y-71598244D02*
X112767219Y-71455387D01*
X112100552Y-72074435D02*
X112100552Y-72455387D01*
X111767219Y-72217292D02*
X112624361Y-72217292D01*
X112624361Y-72217292D02*
X112719600Y-72264911D01*
X112719600Y-72264911D02*
X112767219Y-72360149D01*
X112767219Y-72360149D02*
X112767219Y-72455387D01*
X112767219Y-72931578D02*
X112719600Y-72836340D01*
X112719600Y-72836340D02*
X112671980Y-72788721D01*
X112671980Y-72788721D02*
X112576742Y-72741102D01*
X112576742Y-72741102D02*
X112291028Y-72741102D01*
X112291028Y-72741102D02*
X112195790Y-72788721D01*
X112195790Y-72788721D02*
X112148171Y-72836340D01*
X112148171Y-72836340D02*
X112100552Y-72931578D01*
X112100552Y-72931578D02*
X112100552Y-73074435D01*
X112100552Y-73074435D02*
X112148171Y-73169673D01*
X112148171Y-73169673D02*
X112195790Y-73217292D01*
X112195790Y-73217292D02*
X112291028Y-73264911D01*
X112291028Y-73264911D02*
X112576742Y-73264911D01*
X112576742Y-73264911D02*
X112671980Y-73217292D01*
X112671980Y-73217292D02*
X112719600Y-73169673D01*
X112719600Y-73169673D02*
X112767219Y-73074435D01*
X112767219Y-73074435D02*
X112767219Y-72931578D01*
X112767219Y-73693483D02*
X112100552Y-73693483D01*
X112291028Y-73693483D02*
X112195790Y-73741102D01*
X112195790Y-73741102D02*
X112148171Y-73788721D01*
X112148171Y-73788721D02*
X112100552Y-73883959D01*
X112100552Y-73883959D02*
X112100552Y-73979197D01*
X111862457Y-75026817D02*
X111814838Y-75074436D01*
X111814838Y-75074436D02*
X111767219Y-75169674D01*
X111767219Y-75169674D02*
X111767219Y-75407769D01*
X111767219Y-75407769D02*
X111814838Y-75503007D01*
X111814838Y-75503007D02*
X111862457Y-75550626D01*
X111862457Y-75550626D02*
X111957695Y-75598245D01*
X111957695Y-75598245D02*
X112052933Y-75598245D01*
X112052933Y-75598245D02*
X112195790Y-75550626D01*
X112195790Y-75550626D02*
X112767219Y-74979198D01*
X112767219Y-74979198D02*
X112767219Y-75598245D01*
X113148171Y-77074436D02*
X113100552Y-77026817D01*
X113100552Y-77026817D02*
X112957695Y-76931579D01*
X112957695Y-76931579D02*
X112862457Y-76883960D01*
X112862457Y-76883960D02*
X112719600Y-76836341D01*
X112719600Y-76836341D02*
X112481504Y-76788722D01*
X112481504Y-76788722D02*
X112291028Y-76788722D01*
X112291028Y-76788722D02*
X112052933Y-76836341D01*
X112052933Y-76836341D02*
X111910076Y-76883960D01*
X111910076Y-76883960D02*
X111814838Y-76931579D01*
X111814838Y-76931579D02*
X111671980Y-77026817D01*
X111671980Y-77026817D02*
X111624361Y-77074436D01*
X112291028Y-77645865D02*
X112767219Y-77645865D01*
X111767219Y-77312532D02*
X112291028Y-77645865D01*
X112291028Y-77645865D02*
X111767219Y-77979198D01*
X113148171Y-78217294D02*
X113100552Y-78264913D01*
X113100552Y-78264913D02*
X112957695Y-78360151D01*
X112957695Y-78360151D02*
X112862457Y-78407770D01*
X112862457Y-78407770D02*
X112719600Y-78455389D01*
X112719600Y-78455389D02*
X112481504Y-78503008D01*
X112481504Y-78503008D02*
X112291028Y-78503008D01*
X112291028Y-78503008D02*
X112052933Y-78455389D01*
X112052933Y-78455389D02*
X111910076Y-78407770D01*
X111910076Y-78407770D02*
X111814838Y-78360151D01*
X111814838Y-78360151D02*
X111671980Y-78264913D01*
X111671980Y-78264913D02*
X111624361Y-78217294D01*
D10*
X72706213Y-44392603D02*
X72706213Y-43579803D01*
X72706213Y-43579803D02*
X72396575Y-43579803D01*
X72396575Y-43579803D02*
X72319165Y-43618508D01*
X72319165Y-43618508D02*
X72280460Y-43657213D01*
X72280460Y-43657213D02*
X72241756Y-43734622D01*
X72241756Y-43734622D02*
X72241756Y-43850737D01*
X72241756Y-43850737D02*
X72280460Y-43928146D01*
X72280460Y-43928146D02*
X72319165Y-43966851D01*
X72319165Y-43966851D02*
X72396575Y-44005556D01*
X72396575Y-44005556D02*
X72706213Y-44005556D01*
X71777298Y-44392603D02*
X71854708Y-44353899D01*
X71854708Y-44353899D02*
X71893413Y-44315194D01*
X71893413Y-44315194D02*
X71932117Y-44237784D01*
X71932117Y-44237784D02*
X71932117Y-44005556D01*
X71932117Y-44005556D02*
X71893413Y-43928146D01*
X71893413Y-43928146D02*
X71854708Y-43889441D01*
X71854708Y-43889441D02*
X71777298Y-43850737D01*
X71777298Y-43850737D02*
X71661184Y-43850737D01*
X71661184Y-43850737D02*
X71583775Y-43889441D01*
X71583775Y-43889441D02*
X71545070Y-43928146D01*
X71545070Y-43928146D02*
X71506365Y-44005556D01*
X71506365Y-44005556D02*
X71506365Y-44237784D01*
X71506365Y-44237784D02*
X71545070Y-44315194D01*
X71545070Y-44315194D02*
X71583775Y-44353899D01*
X71583775Y-44353899D02*
X71661184Y-44392603D01*
X71661184Y-44392603D02*
X71777298Y-44392603D01*
X71235432Y-43850737D02*
X71080613Y-44392603D01*
X71080613Y-44392603D02*
X70925794Y-44005556D01*
X70925794Y-44005556D02*
X70770975Y-44392603D01*
X70770975Y-44392603D02*
X70616156Y-43850737D01*
X69996880Y-44353899D02*
X70074289Y-44392603D01*
X70074289Y-44392603D02*
X70229108Y-44392603D01*
X70229108Y-44392603D02*
X70306518Y-44353899D01*
X70306518Y-44353899D02*
X70345222Y-44276489D01*
X70345222Y-44276489D02*
X70345222Y-43966851D01*
X70345222Y-43966851D02*
X70306518Y-43889441D01*
X70306518Y-43889441D02*
X70229108Y-43850737D01*
X70229108Y-43850737D02*
X70074289Y-43850737D01*
X70074289Y-43850737D02*
X69996880Y-43889441D01*
X69996880Y-43889441D02*
X69958175Y-43966851D01*
X69958175Y-43966851D02*
X69958175Y-44044260D01*
X69958175Y-44044260D02*
X70345222Y-44121670D01*
X69609832Y-44392603D02*
X69609832Y-43850737D01*
X69609832Y-44005556D02*
X69571127Y-43928146D01*
X69571127Y-43928146D02*
X69532422Y-43889441D01*
X69532422Y-43889441D02*
X69455013Y-43850737D01*
X69455013Y-43850737D02*
X69377603Y-43850737D01*
X68487394Y-44392603D02*
X68487394Y-43579803D01*
X68100346Y-43850737D02*
X68100346Y-44392603D01*
X68100346Y-43928146D02*
X68061641Y-43889441D01*
X68061641Y-43889441D02*
X67984231Y-43850737D01*
X67984231Y-43850737D02*
X67868117Y-43850737D01*
X67868117Y-43850737D02*
X67790708Y-43889441D01*
X67790708Y-43889441D02*
X67752003Y-43966851D01*
X67752003Y-43966851D02*
X67752003Y-44392603D01*
X66513451Y-44702241D02*
X66552156Y-44663537D01*
X66552156Y-44663537D02*
X66629565Y-44547422D01*
X66629565Y-44547422D02*
X66668270Y-44470013D01*
X66668270Y-44470013D02*
X66706975Y-44353899D01*
X66706975Y-44353899D02*
X66745680Y-44160375D01*
X66745680Y-44160375D02*
X66745680Y-44005556D01*
X66745680Y-44005556D02*
X66706975Y-43812032D01*
X66706975Y-43812032D02*
X66668270Y-43695918D01*
X66668270Y-43695918D02*
X66629565Y-43618508D01*
X66629565Y-43618508D02*
X66552156Y-43502394D01*
X66552156Y-43502394D02*
X66513451Y-43463689D01*
X66242517Y-43657213D02*
X66203813Y-43618508D01*
X66203813Y-43618508D02*
X66126403Y-43579803D01*
X66126403Y-43579803D02*
X65932879Y-43579803D01*
X65932879Y-43579803D02*
X65855470Y-43618508D01*
X65855470Y-43618508D02*
X65816765Y-43657213D01*
X65816765Y-43657213D02*
X65778060Y-43734622D01*
X65778060Y-43734622D02*
X65778060Y-43812032D01*
X65778060Y-43812032D02*
X65816765Y-43928146D01*
X65816765Y-43928146D02*
X66281222Y-44392603D01*
X66281222Y-44392603D02*
X65778060Y-44392603D01*
X65081375Y-43850737D02*
X65081375Y-44392603D01*
X65274899Y-43541099D02*
X65468422Y-44121670D01*
X65468422Y-44121670D02*
X64965261Y-44121670D01*
X64771737Y-43579803D02*
X64500804Y-44392603D01*
X64500804Y-44392603D02*
X64229870Y-43579803D01*
X63339661Y-44392603D02*
X63339661Y-43579803D01*
X63339661Y-43579803D02*
X63146137Y-43579803D01*
X63146137Y-43579803D02*
X63030023Y-43618508D01*
X63030023Y-43618508D02*
X62952613Y-43695918D01*
X62952613Y-43695918D02*
X62913908Y-43773327D01*
X62913908Y-43773327D02*
X62875204Y-43928146D01*
X62875204Y-43928146D02*
X62875204Y-44044260D01*
X62875204Y-44044260D02*
X62913908Y-44199079D01*
X62913908Y-44199079D02*
X62952613Y-44276489D01*
X62952613Y-44276489D02*
X63030023Y-44353899D01*
X63030023Y-44353899D02*
X63146137Y-44392603D01*
X63146137Y-44392603D02*
X63339661Y-44392603D01*
X62062404Y-44315194D02*
X62101108Y-44353899D01*
X62101108Y-44353899D02*
X62217223Y-44392603D01*
X62217223Y-44392603D02*
X62294632Y-44392603D01*
X62294632Y-44392603D02*
X62410746Y-44353899D01*
X62410746Y-44353899D02*
X62488156Y-44276489D01*
X62488156Y-44276489D02*
X62526861Y-44199079D01*
X62526861Y-44199079D02*
X62565565Y-44044260D01*
X62565565Y-44044260D02*
X62565565Y-43928146D01*
X62565565Y-43928146D02*
X62526861Y-43773327D01*
X62526861Y-43773327D02*
X62488156Y-43695918D01*
X62488156Y-43695918D02*
X62410746Y-43618508D01*
X62410746Y-43618508D02*
X62294632Y-43579803D01*
X62294632Y-43579803D02*
X62217223Y-43579803D01*
X62217223Y-43579803D02*
X62101108Y-43618508D01*
X62101108Y-43618508D02*
X62062404Y-43657213D01*
X61791470Y-44702241D02*
X61752765Y-44663537D01*
X61752765Y-44663537D02*
X61675356Y-44547422D01*
X61675356Y-44547422D02*
X61636651Y-44470013D01*
X61636651Y-44470013D02*
X61597946Y-44353899D01*
X61597946Y-44353899D02*
X61559242Y-44160375D01*
X61559242Y-44160375D02*
X61559242Y-44005556D01*
X61559242Y-44005556D02*
X61597946Y-43812032D01*
X61597946Y-43812032D02*
X61636651Y-43695918D01*
X61636651Y-43695918D02*
X61675356Y-43618508D01*
X61675356Y-43618508D02*
X61752765Y-43502394D01*
X61752765Y-43502394D02*
X61791470Y-43463689D01*
X147873984Y-80302241D02*
X147912689Y-80263537D01*
X147912689Y-80263537D02*
X147990098Y-80147422D01*
X147990098Y-80147422D02*
X148028803Y-80070013D01*
X148028803Y-80070013D02*
X148067508Y-79953899D01*
X148067508Y-79953899D02*
X148106213Y-79760375D01*
X148106213Y-79760375D02*
X148106213Y-79605556D01*
X148106213Y-79605556D02*
X148067508Y-79412032D01*
X148067508Y-79412032D02*
X148028803Y-79295918D01*
X148028803Y-79295918D02*
X147990098Y-79218508D01*
X147990098Y-79218508D02*
X147912689Y-79102394D01*
X147912689Y-79102394D02*
X147873984Y-79063689D01*
X147564346Y-79992603D02*
X147564346Y-79179803D01*
X147216002Y-79257213D02*
X147177298Y-79218508D01*
X147177298Y-79218508D02*
X147099888Y-79179803D01*
X147099888Y-79179803D02*
X146906364Y-79179803D01*
X146906364Y-79179803D02*
X146828955Y-79218508D01*
X146828955Y-79218508D02*
X146790250Y-79257213D01*
X146790250Y-79257213D02*
X146751545Y-79334622D01*
X146751545Y-79334622D02*
X146751545Y-79412032D01*
X146751545Y-79412032D02*
X146790250Y-79528146D01*
X146790250Y-79528146D02*
X147254707Y-79992603D01*
X147254707Y-79992603D02*
X146751545Y-79992603D01*
X145938746Y-79915194D02*
X145977450Y-79953899D01*
X145977450Y-79953899D02*
X146093565Y-79992603D01*
X146093565Y-79992603D02*
X146170974Y-79992603D01*
X146170974Y-79992603D02*
X146287088Y-79953899D01*
X146287088Y-79953899D02*
X146364498Y-79876489D01*
X146364498Y-79876489D02*
X146403203Y-79799079D01*
X146403203Y-79799079D02*
X146441907Y-79644260D01*
X146441907Y-79644260D02*
X146441907Y-79528146D01*
X146441907Y-79528146D02*
X146403203Y-79373327D01*
X146403203Y-79373327D02*
X146364498Y-79295918D01*
X146364498Y-79295918D02*
X146287088Y-79218508D01*
X146287088Y-79218508D02*
X146170974Y-79179803D01*
X146170974Y-79179803D02*
X146093565Y-79179803D01*
X146093565Y-79179803D02*
X145977450Y-79218508D01*
X145977450Y-79218508D02*
X145938746Y-79257213D01*
X145667812Y-80302241D02*
X145629107Y-80263537D01*
X145629107Y-80263537D02*
X145551698Y-80147422D01*
X145551698Y-80147422D02*
X145512993Y-80070013D01*
X145512993Y-80070013D02*
X145474288Y-79953899D01*
X145474288Y-79953899D02*
X145435584Y-79760375D01*
X145435584Y-79760375D02*
X145435584Y-79605556D01*
X145435584Y-79605556D02*
X145474288Y-79412032D01*
X145474288Y-79412032D02*
X145512993Y-79295918D01*
X145512993Y-79295918D02*
X145551698Y-79218508D01*
X145551698Y-79218508D02*
X145629107Y-79102394D01*
X145629107Y-79102394D02*
X145667812Y-79063689D01*
X148583622Y-62179803D02*
X148041756Y-62179803D01*
X148041756Y-62179803D02*
X148583622Y-62992603D01*
X148583622Y-62992603D02*
X148041756Y-62992603D01*
X147732118Y-62682965D02*
X147112842Y-62682965D01*
X146725794Y-62566851D02*
X146454860Y-62566851D01*
X146338746Y-62992603D02*
X146725794Y-62992603D01*
X146725794Y-62992603D02*
X146725794Y-62179803D01*
X146725794Y-62179803D02*
X146338746Y-62179803D01*
X145990404Y-62450737D02*
X145990404Y-62992603D01*
X145990404Y-62528146D02*
X145951699Y-62489441D01*
X145951699Y-62489441D02*
X145874289Y-62450737D01*
X145874289Y-62450737D02*
X145758175Y-62450737D01*
X145758175Y-62450737D02*
X145680766Y-62489441D01*
X145680766Y-62489441D02*
X145642061Y-62566851D01*
X145642061Y-62566851D02*
X145642061Y-62992603D01*
X144906671Y-62992603D02*
X144906671Y-62179803D01*
X144906671Y-62953899D02*
X144984080Y-62992603D01*
X144984080Y-62992603D02*
X145138899Y-62992603D01*
X145138899Y-62992603D02*
X145216309Y-62953899D01*
X145216309Y-62953899D02*
X145255014Y-62915194D01*
X145255014Y-62915194D02*
X145293718Y-62837784D01*
X145293718Y-62837784D02*
X145293718Y-62605556D01*
X145293718Y-62605556D02*
X145255014Y-62528146D01*
X145255014Y-62528146D02*
X145216309Y-62489441D01*
X145216309Y-62489441D02*
X145138899Y-62450737D01*
X145138899Y-62450737D02*
X144984080Y-62450737D01*
X144984080Y-62450737D02*
X144906671Y-62489441D01*
X144558328Y-62953899D02*
X144480919Y-62992603D01*
X144480919Y-62992603D02*
X144326100Y-62992603D01*
X144326100Y-62992603D02*
X144248690Y-62953899D01*
X144248690Y-62953899D02*
X144209986Y-62876489D01*
X144209986Y-62876489D02*
X144209986Y-62837784D01*
X144209986Y-62837784D02*
X144248690Y-62760375D01*
X144248690Y-62760375D02*
X144326100Y-62721670D01*
X144326100Y-62721670D02*
X144442214Y-62721670D01*
X144442214Y-62721670D02*
X144519624Y-62682965D01*
X144519624Y-62682965D02*
X144558328Y-62605556D01*
X144558328Y-62605556D02*
X144558328Y-62566851D01*
X144558328Y-62566851D02*
X144519624Y-62489441D01*
X144519624Y-62489441D02*
X144442214Y-62450737D01*
X144442214Y-62450737D02*
X144326100Y-62450737D01*
X144326100Y-62450737D02*
X144248690Y-62489441D01*
X143977757Y-62450737D02*
X143668119Y-62450737D01*
X143861643Y-62179803D02*
X143861643Y-62876489D01*
X143861643Y-62876489D02*
X143822938Y-62953899D01*
X143822938Y-62953899D02*
X143745528Y-62992603D01*
X143745528Y-62992603D02*
X143668119Y-62992603D01*
X143281071Y-62992603D02*
X143358481Y-62953899D01*
X143358481Y-62953899D02*
X143397186Y-62915194D01*
X143397186Y-62915194D02*
X143435890Y-62837784D01*
X143435890Y-62837784D02*
X143435890Y-62605556D01*
X143435890Y-62605556D02*
X143397186Y-62528146D01*
X143397186Y-62528146D02*
X143358481Y-62489441D01*
X143358481Y-62489441D02*
X143281071Y-62450737D01*
X143281071Y-62450737D02*
X143164957Y-62450737D01*
X143164957Y-62450737D02*
X143087548Y-62489441D01*
X143087548Y-62489441D02*
X143048843Y-62528146D01*
X143048843Y-62528146D02*
X143010138Y-62605556D01*
X143010138Y-62605556D02*
X143010138Y-62837784D01*
X143010138Y-62837784D02*
X143048843Y-62915194D01*
X143048843Y-62915194D02*
X143087548Y-62953899D01*
X143087548Y-62953899D02*
X143164957Y-62992603D01*
X143164957Y-62992603D02*
X143281071Y-62992603D01*
X142661796Y-62450737D02*
X142661796Y-63263537D01*
X142661796Y-62489441D02*
X142584386Y-62450737D01*
X142584386Y-62450737D02*
X142429567Y-62450737D01*
X142429567Y-62450737D02*
X142352158Y-62489441D01*
X142352158Y-62489441D02*
X142313453Y-62528146D01*
X142313453Y-62528146D02*
X142274748Y-62605556D01*
X142274748Y-62605556D02*
X142274748Y-62837784D01*
X142274748Y-62837784D02*
X142313453Y-62915194D01*
X142313453Y-62915194D02*
X142352158Y-62953899D01*
X142352158Y-62953899D02*
X142429567Y-62992603D01*
X142429567Y-62992603D02*
X142584386Y-62992603D01*
X142584386Y-62992603D02*
X142661796Y-62953899D01*
X148851394Y-70205556D02*
X148851394Y-70592603D01*
X149122327Y-69779803D02*
X148851394Y-70205556D01*
X148851394Y-70205556D02*
X148580460Y-69779803D01*
X148309527Y-70282965D02*
X147690251Y-70282965D01*
X147303203Y-70166851D02*
X147032269Y-70166851D01*
X146916155Y-70592603D02*
X147303203Y-70592603D01*
X147303203Y-70592603D02*
X147303203Y-69779803D01*
X147303203Y-69779803D02*
X146916155Y-69779803D01*
X146567813Y-70050737D02*
X146567813Y-70592603D01*
X146567813Y-70128146D02*
X146529108Y-70089441D01*
X146529108Y-70089441D02*
X146451698Y-70050737D01*
X146451698Y-70050737D02*
X146335584Y-70050737D01*
X146335584Y-70050737D02*
X146258175Y-70089441D01*
X146258175Y-70089441D02*
X146219470Y-70166851D01*
X146219470Y-70166851D02*
X146219470Y-70592603D01*
X145484080Y-70592603D02*
X145484080Y-69779803D01*
X145484080Y-70553899D02*
X145561489Y-70592603D01*
X145561489Y-70592603D02*
X145716308Y-70592603D01*
X145716308Y-70592603D02*
X145793718Y-70553899D01*
X145793718Y-70553899D02*
X145832423Y-70515194D01*
X145832423Y-70515194D02*
X145871127Y-70437784D01*
X145871127Y-70437784D02*
X145871127Y-70205556D01*
X145871127Y-70205556D02*
X145832423Y-70128146D01*
X145832423Y-70128146D02*
X145793718Y-70089441D01*
X145793718Y-70089441D02*
X145716308Y-70050737D01*
X145716308Y-70050737D02*
X145561489Y-70050737D01*
X145561489Y-70050737D02*
X145484080Y-70089441D01*
X145135737Y-70553899D02*
X145058328Y-70592603D01*
X145058328Y-70592603D02*
X144903509Y-70592603D01*
X144903509Y-70592603D02*
X144826099Y-70553899D01*
X144826099Y-70553899D02*
X144787395Y-70476489D01*
X144787395Y-70476489D02*
X144787395Y-70437784D01*
X144787395Y-70437784D02*
X144826099Y-70360375D01*
X144826099Y-70360375D02*
X144903509Y-70321670D01*
X144903509Y-70321670D02*
X145019623Y-70321670D01*
X145019623Y-70321670D02*
X145097033Y-70282965D01*
X145097033Y-70282965D02*
X145135737Y-70205556D01*
X145135737Y-70205556D02*
X145135737Y-70166851D01*
X145135737Y-70166851D02*
X145097033Y-70089441D01*
X145097033Y-70089441D02*
X145019623Y-70050737D01*
X145019623Y-70050737D02*
X144903509Y-70050737D01*
X144903509Y-70050737D02*
X144826099Y-70089441D01*
X144555166Y-70050737D02*
X144245528Y-70050737D01*
X144439052Y-69779803D02*
X144439052Y-70476489D01*
X144439052Y-70476489D02*
X144400347Y-70553899D01*
X144400347Y-70553899D02*
X144322937Y-70592603D01*
X144322937Y-70592603D02*
X144245528Y-70592603D01*
X143858480Y-70592603D02*
X143935890Y-70553899D01*
X143935890Y-70553899D02*
X143974595Y-70515194D01*
X143974595Y-70515194D02*
X144013299Y-70437784D01*
X144013299Y-70437784D02*
X144013299Y-70205556D01*
X144013299Y-70205556D02*
X143974595Y-70128146D01*
X143974595Y-70128146D02*
X143935890Y-70089441D01*
X143935890Y-70089441D02*
X143858480Y-70050737D01*
X143858480Y-70050737D02*
X143742366Y-70050737D01*
X143742366Y-70050737D02*
X143664957Y-70089441D01*
X143664957Y-70089441D02*
X143626252Y-70128146D01*
X143626252Y-70128146D02*
X143587547Y-70205556D01*
X143587547Y-70205556D02*
X143587547Y-70437784D01*
X143587547Y-70437784D02*
X143626252Y-70515194D01*
X143626252Y-70515194D02*
X143664957Y-70553899D01*
X143664957Y-70553899D02*
X143742366Y-70592603D01*
X143742366Y-70592603D02*
X143858480Y-70592603D01*
X143239205Y-70050737D02*
X143239205Y-70863537D01*
X143239205Y-70089441D02*
X143161795Y-70050737D01*
X143161795Y-70050737D02*
X143006976Y-70050737D01*
X143006976Y-70050737D02*
X142929567Y-70089441D01*
X142929567Y-70089441D02*
X142890862Y-70128146D01*
X142890862Y-70128146D02*
X142852157Y-70205556D01*
X142852157Y-70205556D02*
X142852157Y-70437784D01*
X142852157Y-70437784D02*
X142890862Y-70515194D01*
X142890862Y-70515194D02*
X142929567Y-70553899D01*
X142929567Y-70553899D02*
X143006976Y-70592603D01*
X143006976Y-70592603D02*
X143161795Y-70592603D01*
X143161795Y-70592603D02*
X143239205Y-70553899D01*
D12*
X106703428Y-47307330D02*
X106703428Y-48164473D01*
X108203428Y-47735901D02*
X106703428Y-47735901D01*
X108203428Y-48664472D02*
X106703428Y-48664472D01*
X106703428Y-48664472D02*
X107774857Y-49164472D01*
X107774857Y-49164472D02*
X106703428Y-49664472D01*
X106703428Y-49664472D02*
X108203428Y-49664472D01*
X108060571Y-51235901D02*
X108132000Y-51164473D01*
X108132000Y-51164473D02*
X108203428Y-50950187D01*
X108203428Y-50950187D02*
X108203428Y-50807330D01*
X108203428Y-50807330D02*
X108132000Y-50593044D01*
X108132000Y-50593044D02*
X107989142Y-50450187D01*
X107989142Y-50450187D02*
X107846285Y-50378758D01*
X107846285Y-50378758D02*
X107560571Y-50307330D01*
X107560571Y-50307330D02*
X107346285Y-50307330D01*
X107346285Y-50307330D02*
X107060571Y-50378758D01*
X107060571Y-50378758D02*
X106917714Y-50450187D01*
X106917714Y-50450187D02*
X106774857Y-50593044D01*
X106774857Y-50593044D02*
X106703428Y-50807330D01*
X106703428Y-50807330D02*
X106703428Y-50950187D01*
X106703428Y-50950187D02*
X106774857Y-51164473D01*
X106774857Y-51164473D02*
X106846285Y-51235901D01*
X106846285Y-51807330D02*
X106774857Y-51878758D01*
X106774857Y-51878758D02*
X106703428Y-52021616D01*
X106703428Y-52021616D02*
X106703428Y-52378758D01*
X106703428Y-52378758D02*
X106774857Y-52521616D01*
X106774857Y-52521616D02*
X106846285Y-52593044D01*
X106846285Y-52593044D02*
X106989142Y-52664473D01*
X106989142Y-52664473D02*
X107132000Y-52664473D01*
X107132000Y-52664473D02*
X107346285Y-52593044D01*
X107346285Y-52593044D02*
X108203428Y-51735901D01*
X108203428Y-51735901D02*
X108203428Y-52664473D01*
X106846285Y-53235901D02*
X106774857Y-53307329D01*
X106774857Y-53307329D02*
X106703428Y-53450187D01*
X106703428Y-53450187D02*
X106703428Y-53807329D01*
X106703428Y-53807329D02*
X106774857Y-53950187D01*
X106774857Y-53950187D02*
X106846285Y-54021615D01*
X106846285Y-54021615D02*
X106989142Y-54093044D01*
X106989142Y-54093044D02*
X107132000Y-54093044D01*
X107132000Y-54093044D02*
X107346285Y-54021615D01*
X107346285Y-54021615D02*
X108203428Y-53164472D01*
X108203428Y-53164472D02*
X108203428Y-54093044D01*
X106703428Y-55021615D02*
X106703428Y-55164472D01*
X106703428Y-55164472D02*
X106774857Y-55307329D01*
X106774857Y-55307329D02*
X106846285Y-55378758D01*
X106846285Y-55378758D02*
X106989142Y-55450186D01*
X106989142Y-55450186D02*
X107274857Y-55521615D01*
X107274857Y-55521615D02*
X107632000Y-55521615D01*
X107632000Y-55521615D02*
X107917714Y-55450186D01*
X107917714Y-55450186D02*
X108060571Y-55378758D01*
X108060571Y-55378758D02*
X108132000Y-55307329D01*
X108132000Y-55307329D02*
X108203428Y-55164472D01*
X108203428Y-55164472D02*
X108203428Y-55021615D01*
X108203428Y-55021615D02*
X108132000Y-54878758D01*
X108132000Y-54878758D02*
X108060571Y-54807329D01*
X108060571Y-54807329D02*
X107917714Y-54735900D01*
X107917714Y-54735900D02*
X107632000Y-54664472D01*
X107632000Y-54664472D02*
X107274857Y-54664472D01*
X107274857Y-54664472D02*
X106989142Y-54735900D01*
X106989142Y-54735900D02*
X106846285Y-54807329D01*
X106846285Y-54807329D02*
X106774857Y-54878758D01*
X106774857Y-54878758D02*
X106703428Y-55021615D01*
X108203428Y-56235900D02*
X108203428Y-56521614D01*
X108203428Y-56521614D02*
X108132000Y-56664471D01*
X108132000Y-56664471D02*
X108060571Y-56735900D01*
X108060571Y-56735900D02*
X107846285Y-56878757D01*
X107846285Y-56878757D02*
X107560571Y-56950186D01*
X107560571Y-56950186D02*
X106989142Y-56950186D01*
X106989142Y-56950186D02*
X106846285Y-56878757D01*
X106846285Y-56878757D02*
X106774857Y-56807329D01*
X106774857Y-56807329D02*
X106703428Y-56664471D01*
X106703428Y-56664471D02*
X106703428Y-56378757D01*
X106703428Y-56378757D02*
X106774857Y-56235900D01*
X106774857Y-56235900D02*
X106846285Y-56164471D01*
X106846285Y-56164471D02*
X106989142Y-56093043D01*
X106989142Y-56093043D02*
X107346285Y-56093043D01*
X107346285Y-56093043D02*
X107489142Y-56164471D01*
X107489142Y-56164471D02*
X107560571Y-56235900D01*
X107560571Y-56235900D02*
X107632000Y-56378757D01*
X107632000Y-56378757D02*
X107632000Y-56664471D01*
X107632000Y-56664471D02*
X107560571Y-56807329D01*
X107560571Y-56807329D02*
X107489142Y-56878757D01*
X107489142Y-56878757D02*
X107346285Y-56950186D01*
D14*
X73254285Y-35813104D02*
X72778095Y-35813104D01*
X73349523Y-36098819D02*
X73016190Y-35098819D01*
X73016190Y-35098819D02*
X72682857Y-36098819D01*
X71920952Y-35432152D02*
X71920952Y-36098819D01*
X72159047Y-35051200D02*
X72397142Y-35765485D01*
X72397142Y-35765485D02*
X71778095Y-35765485D01*
X134238094Y-41559819D02*
X134238094Y-40559819D01*
X134238094Y-40559819D02*
X133999999Y-40559819D01*
X133999999Y-40559819D02*
X133857142Y-40607438D01*
X133857142Y-40607438D02*
X133761904Y-40702676D01*
X133761904Y-40702676D02*
X133714285Y-40797914D01*
X133714285Y-40797914D02*
X133666666Y-40988390D01*
X133666666Y-40988390D02*
X133666666Y-41131247D01*
X133666666Y-41131247D02*
X133714285Y-41321723D01*
X133714285Y-41321723D02*
X133761904Y-41416961D01*
X133761904Y-41416961D02*
X133857142Y-41512200D01*
X133857142Y-41512200D02*
X133999999Y-41559819D01*
X133999999Y-41559819D02*
X134238094Y-41559819D01*
X133047618Y-40559819D02*
X132952380Y-40559819D01*
X132952380Y-40559819D02*
X132857142Y-40607438D01*
X132857142Y-40607438D02*
X132809523Y-40655057D01*
X132809523Y-40655057D02*
X132761904Y-40750295D01*
X132761904Y-40750295D02*
X132714285Y-40940771D01*
X132714285Y-40940771D02*
X132714285Y-41178866D01*
X132714285Y-41178866D02*
X132761904Y-41369342D01*
X132761904Y-41369342D02*
X132809523Y-41464580D01*
X132809523Y-41464580D02*
X132857142Y-41512200D01*
X132857142Y-41512200D02*
X132952380Y-41559819D01*
X132952380Y-41559819D02*
X133047618Y-41559819D01*
X133047618Y-41559819D02*
X133142856Y-41512200D01*
X133142856Y-41512200D02*
X133190475Y-41464580D01*
X133190475Y-41464580D02*
X133238094Y-41369342D01*
X133238094Y-41369342D02*
X133285713Y-41178866D01*
X133285713Y-41178866D02*
X133285713Y-40940771D01*
X133285713Y-40940771D02*
X133238094Y-40750295D01*
X133238094Y-40750295D02*
X133190475Y-40655057D01*
X133190475Y-40655057D02*
X133142856Y-40607438D01*
X133142856Y-40607438D02*
X133047618Y-40559819D01*
X132484000Y-58355580D02*
X132531619Y-58403200D01*
X132531619Y-58403200D02*
X132484000Y-58450819D01*
X132484000Y-58450819D02*
X132436381Y-58403200D01*
X132436381Y-58403200D02*
X132484000Y-58355580D01*
X132484000Y-58355580D02*
X132484000Y-58450819D01*
%TO.C,A4*%
X70000000Y-36660000D02*
X70000000Y-90000000D01*
X70000000Y-36660000D02*
X134516000Y-36660000D01*
X70000000Y-90000000D02*
X136040000Y-90000000D01*
X134516000Y-36660000D02*
X136040000Y-38184000D01*
X136040000Y-49360000D02*
X136040000Y-38184000D01*
X136040000Y-88730000D02*
X138580000Y-86190000D01*
X136040000Y-90000000D02*
X136040000Y-88730000D01*
X138580000Y-51900000D02*
X136040000Y-49360000D01*
X138580000Y-86190000D02*
X138580000Y-51900000D01*
%TD*%
M02*
