%TF.GenerationSoftware,KiCad,Pcbnew,9.0.6*%
%TF.CreationDate,2026-02-21T20:52:02+01:00*%
%TF.ProjectId,MPC01,4d504330-312e-46b6-9963-61645f706362,V0.1*%
%TF.SameCoordinates,Original*%
%TF.FileFunction,Paste,Top*%
%TF.FilePolarity,Positive*%
%FSLAX46Y46*%
G04 Gerber Fmt 4.6, Leading zero omitted, Abs format (unit mm)*
G04 Created by KiCad (PCBNEW 9.0.6) date 2026-02-21 20:52:02*
%MOMM*%
%LPD*%
G01*
G04 APERTURE LIST*
G04 Aperture macros list*
%AMRoundRect*
0 Rectangle with rounded corners*
0 $1 Rounding radius*
0 $2 $3 $4 $5 $6 $7 $8 $9 X,Y pos of 4 corners*
0 Add a 4 corners polygon primitive as box body*
4,1,4,$2,$3,$4,$5,$6,$7,$8,$9,$2,$3,0*
0 Add four circle primitives for the rounded corners*
1,1,$1+$1,$2,$3*
1,1,$1+$1,$4,$5*
1,1,$1+$1,$6,$7*
1,1,$1+$1,$8,$9*
0 Add four rect primitives between the rounded corners*
20,1,$1+$1,$2,$3,$4,$5,0*
20,1,$1+$1,$4,$5,$6,$7,0*
20,1,$1+$1,$6,$7,$8,$9,0*
20,1,$1+$1,$8,$9,$2,$3,0*%
G04 Aperture macros list end*
%ADD10RoundRect,0.450000X-1.300000X1.050000X-1.300000X-1.050000X1.300000X-1.050000X1.300000X1.050000X0*%
%ADD11RoundRect,0.450000X-2.050000X1.050000X-2.050000X-1.050000X2.050000X-1.050000X2.050000X1.050000X0*%
%ADD12RoundRect,0.225000X-0.525000X0.775000X-0.525000X-0.775000X0.525000X-0.775000X0.525000X0.775000X0*%
%ADD13RoundRect,0.250000X0.475000X-0.337500X0.475000X0.337500X-0.475000X0.337500X-0.475000X-0.337500X0*%
%ADD14RoundRect,0.250000X-0.450000X0.350000X-0.450000X-0.350000X0.450000X-0.350000X0.450000X0.350000X0*%
%ADD15RoundRect,0.162500X-0.825000X-0.162500X0.825000X-0.162500X0.825000X0.162500X-0.825000X0.162500X0*%
%ADD16RoundRect,0.250000X-1.500000X-0.550000X1.500000X-0.550000X1.500000X0.550000X-1.500000X0.550000X0*%
%ADD17RoundRect,0.250000X-0.350000X-0.450000X0.350000X-0.450000X0.350000X0.450000X-0.350000X0.450000X0*%
%ADD18RoundRect,0.250000X0.450000X-0.350000X0.450000X0.350000X-0.450000X0.350000X-0.450000X-0.350000X0*%
%ADD19RoundRect,0.250000X-2.025000X-2.375000X2.025000X-2.375000X2.025000X2.375000X-2.025000X2.375000X0*%
%ADD20RoundRect,0.275000X-2.025000X-0.275000X2.025000X-0.275000X2.025000X0.275000X-2.025000X0.275000X0*%
%ADD21RoundRect,0.150000X0.150000X-0.512500X0.150000X0.512500X-0.150000X0.512500X-0.150000X-0.512500X0*%
%ADD22RoundRect,0.250000X0.900000X-1.500000X0.900000X1.500000X-0.900000X1.500000X-0.900000X-1.500000X0*%
%ADD23RoundRect,0.250000X0.350000X0.450000X-0.350000X0.450000X-0.350000X-0.450000X0.350000X-0.450000X0*%
%ADD24R,2.400000X3.000000*%
%ADD25RoundRect,0.250000X0.337500X0.475000X-0.337500X0.475000X-0.337500X-0.475000X0.337500X-0.475000X0*%
G04 APERTURE END LIST*
D10*
%TO.C,BC1*%
X89000000Y-70250000D03*
D11*
X78500000Y-70250000D03*
X68500000Y-70250000D03*
D12*
X88500000Y-98250000D03*
X85000000Y-98250000D03*
X82000000Y-98250000D03*
%TD*%
D13*
%TO.C,C7*%
X125300000Y-53862500D03*
X125300000Y-55937500D03*
%TD*%
%TO.C,C8*%
X101800000Y-75862500D03*
X101800000Y-77937500D03*
%TD*%
D14*
%TO.C,R7*%
X96300000Y-57700000D03*
X96300000Y-55700000D03*
%TD*%
D15*
%TO.C,U1*%
X146937500Y-60395000D03*
X146937500Y-61665000D03*
X146937500Y-62935000D03*
X146937500Y-64205000D03*
X141862500Y-64205000D03*
X141862500Y-62935000D03*
X141862500Y-61665000D03*
X141862500Y-60395000D03*
%TD*%
D16*
%TO.C,C5*%
X121000000Y-84000000D03*
X126400000Y-84000000D03*
%TD*%
%TO.C,C4*%
X97500000Y-84000000D03*
X102900000Y-84000000D03*
%TD*%
%TO.C,C3*%
X121000000Y-62000000D03*
X126400000Y-62000000D03*
%TD*%
%TO.C,C2*%
X97500000Y-62000000D03*
X102900000Y-62000000D03*
%TD*%
D13*
%TO.C,C13*%
X127500000Y-77937500D03*
X127500000Y-75862500D03*
%TD*%
%TO.C,C12*%
X104000000Y-77937500D03*
X104000000Y-75862500D03*
%TD*%
%TO.C,C11*%
X127500000Y-55937500D03*
X127500000Y-53862500D03*
%TD*%
%TO.C,C10*%
X104000000Y-55937500D03*
X104000000Y-53862500D03*
%TD*%
%TO.C,C9*%
X125300000Y-77937500D03*
X125300000Y-75862500D03*
%TD*%
%TO.C,C6*%
X101800000Y-55937500D03*
X101800000Y-53862500D03*
%TD*%
D17*
%TO.C,R3*%
X141300000Y-58300000D03*
X139300000Y-58300000D03*
%TD*%
D18*
%TO.C,R2*%
X141500000Y-56000000D03*
X141500000Y-54000000D03*
%TD*%
%TO.C,R1*%
X147500000Y-58000000D03*
X147500000Y-56000000D03*
%TD*%
D19*
%TO.C,D3*%
X83950000Y-59225000D03*
X83950000Y-64775000D03*
X88800000Y-59225000D03*
X88800000Y-64775000D03*
D20*
X77225000Y-59460000D03*
X77225000Y-64540000D03*
%TD*%
D21*
%TO.C,D2*%
X143550000Y-53637500D03*
X145450000Y-53637500D03*
X144500000Y-51362500D03*
%TD*%
D22*
%TO.C,D1*%
X71000000Y-65100000D03*
X71000000Y-59700000D03*
%TD*%
D14*
%TO.C,R10*%
X119800000Y-77700000D03*
X119800000Y-79700000D03*
%TD*%
%TO.C,R9*%
X96300000Y-77700000D03*
X96300000Y-79700000D03*
%TD*%
%TO.C,R8*%
X119800000Y-55700000D03*
X119800000Y-57700000D03*
%TD*%
D18*
%TO.C,R6*%
X141000000Y-95000000D03*
X141000000Y-93000000D03*
%TD*%
%TO.C,R5*%
X143500000Y-95000000D03*
X143500000Y-93000000D03*
%TD*%
D23*
%TO.C,R4*%
X145500000Y-56000000D03*
X143500000Y-56000000D03*
%TD*%
D24*
%TO.C,F1*%
X89430000Y-54000000D03*
X84570000Y-54000000D03*
%TD*%
D25*
%TO.C,C1*%
X145237500Y-58300000D03*
X143162500Y-58300000D03*
%TD*%
M02*
