M48
; DRILL file {KiCad 9.0.6} date 2026-02-21T20:51:56+0100
; FORMAT={-:-/ absolute / metric / decimal}
; #@! TF.CreationDate,2026-02-21T20:51:56+01:00
; #@! TF.GenerationSoftware,Kicad,Pcbnew,9.0.6
; #@! TF.FileFunction,Plated,1,4,PTH
FMAT,2
METRIC
; #@! TA.AperFunction,Plated,PTH,ViaDrill
T1C0.300
; #@! TA.AperFunction,Plated,PTH,ViaDrill
T2C0.400
; #@! TA.AperFunction,Plated,PTH,ComponentDrill
T3C0.800
; #@! TA.AperFunction,Plated,PTH,ComponentDrill
T4C0.950
; #@! TA.AperFunction,Plated,PTH,ComponentDrill
T5C1.000
; #@! TA.AperFunction,Plated,PTH,ComponentDrill
T6C1.016
; #@! TA.AperFunction,Plated,PTH,ComponentDrill
T7C1.200
; #@! TA.AperFunction,Plated,PTH,ComponentDrill
T8C1.400
%
G90
G05
T1
X70.0Y-75.0
X71.0Y-76.0
X73.0Y-76.0
X87.3Y-51.4
X88.8Y-51.4
X91.2Y-54.4
X91.6Y-68.6
X91.9Y-53.5
X94.0Y-99.0
X109.0Y-54.0
X109.0Y-76.0
X110.0Y-54.0
X110.0Y-55.0
X110.0Y-76.0
X110.0Y-77.0
X143.0Y-51.0
X144.4Y-60.0
X145.0Y-61.0
X145.1Y-63.1
T2
X67.0Y-59.0
X67.0Y-61.0
X68.0Y-58.0
X68.0Y-60.0
X75.0Y-69.977
X75.0Y-71.0
X82.0Y-70.0
X82.0Y-71.0
X84.0Y-96.0
X86.0Y-70.0
X86.0Y-71.0
X86.0Y-96.0
X88.0Y-73.0
X89.0Y-73.0
X90.0Y-73.0
X112.8Y-53.0
X112.8Y-54.7
X112.8Y-75.0
X112.8Y-76.7
X114.1Y-67.8
X115.0Y-52.5
X115.0Y-53.95
X115.0Y-72.0
X115.0Y-75.25
X135.425Y-74.125
X136.45Y-94.448
X137.625Y-94.625
X139.0Y-94.5
X139.1Y-95.75
X140.95Y-86.3
X141.6Y-83.8
T3
X93.775Y-53.46
X93.775Y-56.0
X93.775Y-58.54
X93.775Y-61.08
X93.775Y-63.62
X93.775Y-66.16
X93.775Y-68.7
X93.775Y-71.24
X93.775Y-75.46
X93.775Y-78.0
X93.775Y-80.54
X93.775Y-83.08
X93.775Y-85.62
X93.775Y-88.16
X93.775Y-90.7
X93.775Y-93.24
X96.31Y-53.46
X96.31Y-75.46
X98.85Y-53.46
X98.85Y-75.46
X106.475Y-53.46
X106.475Y-56.0
X106.475Y-58.54
X106.475Y-61.08
X106.475Y-63.62
X106.475Y-66.16
X106.475Y-68.7
X106.475Y-71.24
X106.475Y-75.46
X106.475Y-78.0
X106.475Y-80.54
X106.475Y-83.08
X106.475Y-85.62
X106.475Y-88.16
X106.475Y-90.7
X106.475Y-93.24
X117.315Y-53.46
X117.315Y-56.0
X117.315Y-58.54
X117.315Y-61.08
X117.315Y-63.62
X117.315Y-66.16
X117.315Y-68.7
X117.315Y-71.24
X117.315Y-75.46
X117.315Y-78.0
X117.315Y-80.54
X117.315Y-83.08
X117.315Y-85.62
X117.315Y-88.16
X117.315Y-90.7
X117.315Y-93.24
X119.85Y-53.46
X119.85Y-75.46
X122.39Y-53.46
X122.39Y-75.46
X130.015Y-53.46
X130.015Y-56.0
X130.015Y-58.54
X130.015Y-61.08
X130.015Y-63.62
X130.015Y-66.16
X130.015Y-68.7
X130.015Y-71.24
X130.015Y-75.46
X130.015Y-78.0
X130.015Y-80.54
X130.015Y-83.08
X130.015Y-85.62
X130.015Y-88.16
X130.015Y-90.7
X130.015Y-93.24
T4
X111.0Y-58.5
X111.0Y-61.0
X111.0Y-63.5
X111.0Y-66.0
X111.0Y-80.5
X111.0Y-83.0
X111.0Y-85.5
X111.0Y-88.0
X134.54Y-58.5
X134.54Y-61.0
X134.54Y-63.5
X134.54Y-66.0
X134.54Y-80.5
X134.54Y-83.0
X134.54Y-85.5
X134.54Y-88.0
X144.0Y-78.8
X144.0Y-81.3
X144.0Y-83.8
X144.0Y-86.3
X144.0Y-88.8
X151.5Y-72.0
X151.5Y-80.025
X151.5Y-88.025
X154.0Y-72.0
X154.0Y-80.025
X154.0Y-88.025
X156.5Y-72.0
X156.5Y-80.025
X156.5Y-88.025
T5
X84.84Y-49.2
X87.38Y-49.2
X89.92Y-49.2
X92.46Y-49.2
X95.0Y-49.2
X97.6Y-68.16
X97.6Y-70.7
X97.6Y-90.16
X97.6Y-92.7
X100.14Y-68.16
X100.14Y-70.7
X100.14Y-90.16
X100.14Y-92.7
X102.68Y-68.16
X102.68Y-70.7
X102.68Y-90.16
X102.68Y-92.7
X121.1Y-68.16
X121.1Y-70.7
X121.1Y-90.16
X121.1Y-92.7
X123.64Y-68.16
X123.64Y-70.7
X123.64Y-90.16
X123.64Y-92.7
X126.18Y-68.16
X126.18Y-70.7
X126.18Y-90.16
X126.18Y-92.7
X133.275Y-93.0
X135.815Y-93.0
T6
X98.796Y-49.2
X101.336Y-49.2
X103.876Y-49.2
X106.416Y-49.2
X107.94Y-97.46
X108.956Y-49.2
X110.48Y-97.46
X111.496Y-49.2
X113.02Y-97.46
X114.036Y-49.2
X115.56Y-97.46
X116.576Y-49.2
X118.1Y-97.46
X119.116Y-49.2
X120.64Y-97.46
X121.656Y-49.2
X123.18Y-97.46
X125.72Y-49.2
X125.72Y-97.46
X128.26Y-49.2
X130.8Y-49.2
X130.8Y-97.46
X133.34Y-49.2
X133.34Y-97.46
X135.88Y-49.2
X135.88Y-97.46
X138.42Y-49.2
X138.42Y-97.46
X140.96Y-49.2
X140.96Y-97.46
X143.5Y-49.2
X143.5Y-97.46
X143.627Y-69.52
X143.627Y-72.06
X143.627Y-74.6
X146.167Y-69.52
X146.167Y-72.06
X146.167Y-74.6
T7
X70.1Y-49.5
X70.1Y-53.0
X75.1Y-49.5
X75.1Y-53.0
T8
X152.0Y-52.92
X152.0Y-58.0
X152.0Y-63.08
M30
