%TF.GenerationSoftware,KiCad,Pcbnew,9.0.7*%
%TF.CreationDate,2026-03-19T09:42:27+01:00*%
%TF.ProjectId,MPC01,4d504330-312e-46b6-9963-61645f706362,V0.1*%
%TF.SameCoordinates,Original*%
%TF.FileFunction,Copper,L1,Top*%
%TF.FilePolarity,Positive*%
%FSLAX46Y46*%
G04 Gerber Fmt 4.6, Leading zero omitted, Abs format (unit mm)*
G04 Created by KiCad (PCBNEW 9.0.7) date 2026-03-19 09:42:27*
%MOMM*%
%LPD*%
G01*
G04 APERTURE LIST*
G04 Aperture macros list*
%AMRoundRect*
0 Rectangle with rounded corners*
0 $1 Rounding radius*
0 $2 $3 $4 $5 $6 $7 $8 $9 X,Y pos of 4 corners*
0 Add a 4 corners polygon primitive as box body*
4,1,4,$2,$3,$4,$5,$6,$7,$8,$9,$2,$3,0*
0 Add four circle primitives for the rounded corners*
1,1,$1+$1,$2,$3*
1,1,$1+$1,$4,$5*
1,1,$1+$1,$6,$7*
1,1,$1+$1,$8,$9*
0 Add four rect primitives between the rounded corners*
20,1,$1+$1,$2,$3,$4,$5,0*
20,1,$1+$1,$4,$5,$6,$7,0*
20,1,$1+$1,$6,$7,$8,$9,0*
20,1,$1+$1,$8,$9,$2,$3,0*%
%AMFreePoly0*
4,1,23,0.500000,-0.750000,0.000000,-0.750000,0.000000,-0.745722,-0.065263,-0.745722,-0.191342,-0.711940,-0.304381,-0.646677,-0.396677,-0.554381,-0.461940,-0.441342,-0.495722,-0.315263,-0.495722,-0.250000,-0.500000,-0.250000,-0.500000,0.250000,-0.495722,0.250000,-0.495722,0.315263,-0.461940,0.441342,-0.396677,0.554381,-0.304381,0.646677,-0.191342,0.711940,-0.065263,0.745722,0.000000,0.745722,
0.000000,0.750000,0.500000,0.750000,0.500000,-0.750000,0.500000,-0.750000,$1*%
%AMFreePoly1*
4,1,23,0.000000,0.745722,0.065263,0.745722,0.191342,0.711940,0.304381,0.646677,0.396677,0.554381,0.461940,0.441342,0.495722,0.315263,0.495722,0.250000,0.500000,0.250000,0.500000,-0.250000,0.495722,-0.250000,0.495722,-0.315263,0.461940,-0.441342,0.396677,-0.554381,0.304381,-0.646677,0.191342,-0.711940,0.065263,-0.745722,0.000000,-0.745722,0.000000,-0.750000,-0.500000,-0.750000,
-0.500000,0.750000,0.000000,0.750000,0.000000,0.745722,0.000000,0.745722,$1*%
G04 Aperture macros list end*
%TA.AperFunction,SMDPad,CuDef*%
%ADD10RoundRect,0.250000X-0.337500X-0.475000X0.337500X-0.475000X0.337500X0.475000X-0.337500X0.475000X0*%
%TD*%
%TA.AperFunction,SMDPad,CuDef*%
%ADD11RoundRect,0.250000X-0.550000X1.500000X-0.550000X-1.500000X0.550000X-1.500000X0.550000X1.500000X0*%
%TD*%
%TA.AperFunction,SMDPad,CuDef*%
%ADD12RoundRect,0.250000X0.450000X-0.350000X0.450000X0.350000X-0.450000X0.350000X-0.450000X-0.350000X0*%
%TD*%
%TA.AperFunction,ComponentPad*%
%ADD13RoundRect,0.250000X0.725000X-0.600000X0.725000X0.600000X-0.725000X0.600000X-0.725000X-0.600000X0*%
%TD*%
%TA.AperFunction,ComponentPad*%
%ADD14O,1.950000X1.700000*%
%TD*%
%TA.AperFunction,ComponentPad*%
%ADD15R,1.700000X1.700000*%
%TD*%
%TA.AperFunction,ComponentPad*%
%ADD16C,1.700000*%
%TD*%
%TA.AperFunction,ComponentPad*%
%ADD17R,2.300000X1.500000*%
%TD*%
%TA.AperFunction,ComponentPad*%
%ADD18RoundRect,0.250001X0.899999X-0.499999X0.899999X0.499999X-0.899999X0.499999X-0.899999X-0.499999X0*%
%TD*%
%TA.AperFunction,ComponentPad*%
%ADD19O,2.300000X1.500000*%
%TD*%
%TA.AperFunction,SMDPad,CuDef*%
%ADD20RoundRect,0.250000X0.350000X0.450000X-0.350000X0.450000X-0.350000X-0.450000X0.350000X-0.450000X0*%
%TD*%
%TA.AperFunction,ComponentPad*%
%ADD21O,1.727200X1.727200*%
%TD*%
%TA.AperFunction,ComponentPad*%
%ADD22R,1.727200X1.727200*%
%TD*%
%TA.AperFunction,SMDPad,CuDef*%
%ADD23RoundRect,0.250000X0.337500X0.475000X-0.337500X0.475000X-0.337500X-0.475000X0.337500X-0.475000X0*%
%TD*%
%TA.AperFunction,ComponentPad*%
%ADD24RoundRect,0.250000X-0.600000X-0.725000X0.600000X-0.725000X0.600000X0.725000X-0.600000X0.725000X0*%
%TD*%
%TA.AperFunction,ComponentPad*%
%ADD25O,1.700000X1.950000*%
%TD*%
%TA.AperFunction,ComponentPad*%
%ADD26RoundRect,0.249999X1.550001X-0.790001X1.550001X0.790001X-1.550001X0.790001X-1.550001X-0.790001X0*%
%TD*%
%TA.AperFunction,ComponentPad*%
%ADD27O,3.600000X2.080000*%
%TD*%
%TA.AperFunction,SMDPad,CuDef*%
%ADD28RoundRect,0.450000X-1.300000X1.050000X-1.300000X-1.050000X1.300000X-1.050000X1.300000X1.050000X0*%
%TD*%
%TA.AperFunction,SMDPad,CuDef*%
%ADD29RoundRect,0.450000X-2.050000X1.050000X-2.050000X-1.050000X2.050000X-1.050000X2.050000X1.050000X0*%
%TD*%
%TA.AperFunction,SMDPad,CuDef*%
%ADD30RoundRect,0.225000X-0.525000X0.775000X-0.525000X-0.775000X0.525000X-0.775000X0.525000X0.775000X0*%
%TD*%
%TA.AperFunction,ComponentPad*%
%ADD31R,1.600000X1.600000*%
%TD*%
%TA.AperFunction,ComponentPad*%
%ADD32O,1.600000X1.600000*%
%TD*%
%TA.AperFunction,SMDPad,CuDef*%
%ADD33RoundRect,0.250000X0.475000X-0.337500X0.475000X0.337500X-0.475000X0.337500X-0.475000X-0.337500X0*%
%TD*%
%TA.AperFunction,SMDPad,CuDef*%
%ADD34RoundRect,0.250000X-1.500000X-0.900000X1.500000X-0.900000X1.500000X0.900000X-1.500000X0.900000X0*%
%TD*%
%TA.AperFunction,SMDPad,CuDef*%
%ADD35RoundRect,0.250000X-0.350000X-0.450000X0.350000X-0.450000X0.350000X0.450000X-0.350000X0.450000X0*%
%TD*%
%TA.AperFunction,SMDPad,CuDef*%
%ADD36RoundRect,0.250000X-0.450000X0.350000X-0.450000X-0.350000X0.450000X-0.350000X0.450000X0.350000X0*%
%TD*%
%TA.AperFunction,SMDPad,CuDef*%
%ADD37FreePoly0,270.000000*%
%TD*%
%TA.AperFunction,SMDPad,CuDef*%
%ADD38FreePoly1,270.000000*%
%TD*%
%TA.AperFunction,SMDPad,CuDef*%
%ADD39RoundRect,0.162500X-0.825000X-0.162500X0.825000X-0.162500X0.825000X0.162500X-0.825000X0.162500X0*%
%TD*%
%TA.AperFunction,SMDPad,CuDef*%
%ADD40R,1.270000X0.635000*%
%TD*%
%TA.AperFunction,SMDPad,CuDef*%
%ADD41R,3.000000X2.400000*%
%TD*%
%TA.AperFunction,SMDPad,CuDef*%
%ADD42RoundRect,0.150000X0.150000X-0.512500X0.150000X0.512500X-0.150000X0.512500X-0.150000X-0.512500X0*%
%TD*%
%TA.AperFunction,ComponentPad*%
%ADD43C,3.800000*%
%TD*%
%TA.AperFunction,ComponentPad*%
%ADD44RoundRect,0.250000X-0.600000X-0.750000X0.600000X-0.750000X0.600000X0.750000X-0.600000X0.750000X0*%
%TD*%
%TA.AperFunction,ComponentPad*%
%ADD45O,1.700000X2.000000*%
%TD*%
%TA.AperFunction,SMDPad,CuDef*%
%ADD46RoundRect,0.275000X-2.025000X-0.275000X2.025000X-0.275000X2.025000X0.275000X-2.025000X0.275000X0*%
%TD*%
%TA.AperFunction,SMDPad,CuDef*%
%ADD47RoundRect,0.250000X-4.450000X-5.150000X4.450000X-5.150000X4.450000X5.150000X-4.450000X5.150000X0*%
%TD*%
%TA.AperFunction,ComponentPad*%
%ADD48RoundRect,0.250000X0.600000X0.725000X-0.600000X0.725000X-0.600000X-0.725000X0.600000X-0.725000X0*%
%TD*%
%TA.AperFunction,ViaPad*%
%ADD49C,0.700000*%
%TD*%
%TA.AperFunction,ViaPad*%
%ADD50C,0.800000*%
%TD*%
%TA.AperFunction,Conductor*%
%ADD51C,0.300000*%
%TD*%
%TA.AperFunction,Conductor*%
%ADD52C,0.250000*%
%TD*%
%TA.AperFunction,Conductor*%
%ADD53C,0.500000*%
%TD*%
%TA.AperFunction,Conductor*%
%ADD54C,1.000000*%
%TD*%
%TA.AperFunction,Conductor*%
%ADD55C,1.500000*%
%TD*%
G04 APERTURE END LIST*
D10*
%TO.P,C5,1*%
%TO.N,GND*%
X100302500Y-64960000D03*
%TO.P,C5,2*%
%TO.N,+24V*%
X102377500Y-64960000D03*
%TD*%
D11*
%TO.P,C4,1*%
%TO.N,+24V*%
X99840000Y-76560000D03*
%TO.P,C4,2*%
%TO.N,GND*%
X99840000Y-81960000D03*
%TD*%
D12*
%TO.P,R12,1*%
%TO.N,RS485_B*%
X134600000Y-47200000D03*
%TO.P,R12,2*%
%TO.N,Net-(D1-A1)*%
X134600000Y-45200000D03*
%TD*%
D13*
%TO.P,J2,1,Pin_1*%
%TO.N,Net-(A2-B2)*%
X110000000Y-77760000D03*
D14*
%TO.P,J2,2,Pin_2*%
%TO.N,Net-(A2-B1)*%
X110000000Y-75260000D03*
%TO.P,J2,3,Pin_3*%
%TO.N,Net-(A2-A1)*%
X110000000Y-72760000D03*
%TO.P,J2,4,Pin_4*%
%TO.N,Net-(A2-A2)*%
X110000000Y-70260000D03*
%TD*%
D15*
%TO.P,JP1,1,A*%
%TO.N,Net-(A1-MS2)*%
X102460000Y-49000000D03*
D16*
%TO.P,JP1,2,B*%
%TO.N,5V*%
X105000000Y-49000000D03*
%TD*%
D15*
%TO.P,JP5,1,A*%
%TO.N,Net-(A2-MS1)*%
X95540000Y-68060000D03*
D16*
%TO.P,JP5,2,B*%
%TO.N,5V*%
X98080000Y-68060000D03*
%TD*%
D10*
%TO.P,C8,1*%
%TO.N,GND*%
X126222500Y-64960000D03*
%TO.P,C8,2*%
%TO.N,+24V*%
X128297500Y-64960000D03*
%TD*%
D11*
%TO.P,C7,1*%
%TO.N,+24V*%
X125760000Y-76560000D03*
%TO.P,C7,2*%
%TO.N,GND*%
X125760000Y-81960000D03*
%TD*%
D12*
%TO.P,R2,1*%
%TO.N,GND*%
X96760000Y-49100000D03*
%TO.P,R2,2*%
%TO.N,Net-(A1-MS2)*%
X96760000Y-47100000D03*
%TD*%
D17*
%TO.P,J7,1,Pin_1*%
%TO.N,Net-(J7-Pin_1)*%
X62567500Y-51210000D03*
D18*
X67567500Y-51210000D03*
D19*
%TO.P,J7,2,Pin_2*%
%TO.N,GND*%
X62567500Y-47710000D03*
X67567500Y-47710000D03*
%TD*%
D10*
%TO.P,C2,1*%
%TO.N,GND*%
X107222500Y-42400000D03*
%TO.P,C2,2*%
%TO.N,+24V*%
X109297500Y-42400000D03*
%TD*%
D15*
%TO.P,JP4,1,A*%
%TO.N,Net-(A1-MS1)*%
X102460000Y-45400000D03*
D16*
%TO.P,JP4,2,B*%
%TO.N,5V*%
X105000000Y-45400000D03*
%TD*%
D20*
%TO.P,R14,1*%
%TO.N,ENABLE*%
X117000000Y-59200000D03*
%TO.P,R14,2*%
%TO.N,5V*%
X115000000Y-59200000D03*
%TD*%
D21*
%TO.P,A4,*%
%TO.N,*%
X97940000Y-87460000D03*
%TO.P,A4,3V3,3.3V*%
%TO.N,+3V3*%
X105560000Y-87460000D03*
%TO.P,A4,5V1,5V*%
%TO.N,unconnected-(A4-5V-Pad5V1)*%
X108100000Y-87460000D03*
%TO.P,A4,5V2,SPI_5V*%
%TO.N,unconnected-(A4-SPI_5V-Pad5V2)*%
X136167000Y-59520000D03*
%TO.P,A4,A0,A0*%
%TO.N,EndstopZ*%
X120800000Y-87460000D03*
%TO.P,A4,A1,A1*%
%TO.N,EndstopY*%
X123340000Y-87460000D03*
%TO.P,A4,A2,A2*%
%TO.N,EndstopX*%
X125880000Y-87460000D03*
%TO.P,A4,A3,A3*%
%TO.N,RS485_DE{slash}RE*%
X128420000Y-87460000D03*
%TO.P,A4,A4,A4*%
%TO.N,Net-(J5-Pin_1)*%
X130960000Y-87460000D03*
%TO.P,A4,A5,A5*%
%TO.N,Net-(J5-Pin_2)*%
X133500000Y-87460000D03*
%TO.P,A4,AREF,AREF*%
%TO.N,unconnected-(A4-PadAREF)*%
X93876000Y-39200000D03*
%TO.P,A4,D0,D0/RX*%
%TO.N,unconnected-(A4-D0{slash}RX-PadD0)*%
X133500000Y-39200000D03*
%TO.P,A4,D1,D1/TX*%
%TO.N,unconnected-(A4-D1{slash}TX-PadD1)*%
X130960000Y-39200000D03*
%TO.P,A4,D2,D2_INT0*%
%TO.N,DIR3*%
X128420000Y-39200000D03*
%TO.P,A4,D3,D3_INT1*%
%TO.N,STEP3*%
X125880000Y-39200000D03*
%TO.P,A4,D4,D4*%
%TO.N,DIR2*%
X123340000Y-39200000D03*
%TO.P,A4,D5,D5*%
%TO.N,STEP2*%
X120800000Y-39200000D03*
%TO.P,A4,D6,D6*%
%TO.N,DIR1*%
X118260000Y-39200000D03*
%TO.P,A4,D7,D7*%
%TO.N,STEP1*%
X115720000Y-39200000D03*
%TO.P,A4,D8,D8*%
%TO.N,TX*%
X111656000Y-39200000D03*
%TO.P,A4,D9,D9*%
%TO.N,RX*%
X109116000Y-39200000D03*
%TO.P,A4,D10,D10_CS*%
%TO.N,RS485_TX*%
X106576000Y-39200000D03*
%TO.P,A4,D11,D11*%
%TO.N,RS485_RX*%
X104036000Y-39200000D03*
%TO.P,A4,D12,D12*%
%TO.N,PGOOD*%
X101496000Y-39200000D03*
%TO.P,A4,D13,D13*%
%TO.N,ENABLEOut*%
X98956000Y-39200000D03*
D22*
%TO.P,A4,GND1,GND*%
%TO.N,GND*%
X96416000Y-39200000D03*
%TO.P,A4,GND2,GND*%
X110640000Y-87460000D03*
%TO.P,A4,GND3,GND*%
X113180000Y-87460000D03*
%TO.P,A4,GND4,SPI_GND*%
%TO.N,unconnected-(A4-SPI_GND-PadGND4)*%
X136167000Y-64600000D03*
D21*
%TO.P,A4,IORF,IOREF*%
%TO.N,unconnected-(A4-IOREF-PadIORF)*%
X100480000Y-87460000D03*
%TO.P,A4,MISO,SPI_MISO*%
%TO.N,unconnected-(A4-SPI_MISO-PadMISO)*%
X133627000Y-59520000D03*
%TO.P,A4,MOSI,SPI_MOSI*%
%TO.N,unconnected-(A4-SPI_MOSI-PadMOSI)*%
X136167000Y-62060000D03*
%TO.P,A4,RST1,RESET*%
%TO.N,unconnected-(A4-RESET-PadRST1)*%
X103020000Y-87460000D03*
%TO.P,A4,RST2,SPI_RESET*%
%TO.N,unconnected-(A4-SPI_RESET-PadRST2)*%
X133627000Y-64600000D03*
%TO.P,A4,SCK,SPI_SCK*%
%TO.N,unconnected-(A4-SPI_SCK-PadSCK)*%
X133627000Y-62060000D03*
%TO.P,A4,SCL,SCL*%
%TO.N,unconnected-(A4-PadSCL)*%
X88796000Y-39200000D03*
%TO.P,A4,SDA,SDA*%
%TO.N,unconnected-(A4-PadSDA)*%
X91336000Y-39200000D03*
%TO.P,A4,VIN,VIN*%
%TO.N,5V*%
X115720000Y-87460000D03*
%TD*%
D12*
%TO.P,R5,1*%
%TO.N,GND*%
X115760000Y-71760000D03*
%TO.P,R5,2*%
%TO.N,Net-(A3-MS2)*%
X115760000Y-69760000D03*
%TD*%
D23*
%TO.P,C10,1*%
%TO.N,5V*%
X130637500Y-42900000D03*
%TO.P,C10,2*%
%TO.N,GND*%
X128562500Y-42900000D03*
%TD*%
D24*
%TO.P,J11,1,Pin_1*%
%TO.N,Net-(J11-Pin_1)*%
X143000000Y-60500000D03*
D25*
%TO.P,J11,2,Pin_2*%
%TO.N,GND*%
X145500000Y-60500000D03*
%TO.P,J11,3,Pin_3*%
%TO.N,EndstopZ*%
X148000000Y-60500000D03*
%TD*%
D26*
%TO.P,J4,1,Pin_1*%
%TO.N,Net-(D1-A2)*%
X142000000Y-53000000D03*
D27*
%TO.P,J4,2,Pin_2*%
%TO.N,GND*%
X142000000Y-47920000D03*
%TO.P,J4,3,Pin_3*%
%TO.N,Net-(D1-A1)*%
X142000000Y-42840000D03*
%TD*%
D28*
%TO.P,BC1,1,VIN*%
%TO.N,+24V*%
X85500000Y-57250000D03*
D29*
%TO.P,BC1,2,GND*%
%TO.N,GND*%
X75000000Y-57250000D03*
%TO.P,BC1,3,VOUT*%
%TO.N,5V*%
X65000000Y-57250000D03*
D30*
%TO.P,BC1,4,EN*%
%TO.N,unconnected-(BC1-EN-Pad4)*%
X85000000Y-85250000D03*
%TO.P,BC1,5,AGND*%
%TO.N,GND*%
X81500000Y-85250000D03*
%TO.P,BC1,6,PGOOD*%
%TO.N,PGOOD*%
X78500000Y-85250000D03*
%TD*%
D13*
%TO.P,J1,1,Pin_1*%
%TO.N,Net-(A1-B2)*%
X116760000Y-55100000D03*
D14*
%TO.P,J1,2,Pin_2*%
%TO.N,Net-(A1-B1)*%
X116760000Y-52600000D03*
%TO.P,J1,3,Pin_3*%
%TO.N,Net-(A1-A1)*%
X116760000Y-50100000D03*
%TO.P,J1,4,Pin_4*%
%TO.N,Net-(A1-A2)*%
X116760000Y-47600000D03*
%TD*%
D13*
%TO.P,J3,1,Pin_1*%
%TO.N,Net-(A3-B2)*%
X135600000Y-76500000D03*
D14*
%TO.P,J3,2,Pin_2*%
%TO.N,Net-(A3-B1)*%
X135600000Y-74000000D03*
%TO.P,J3,3,Pin_3*%
%TO.N,Net-(A3-A1)*%
X135600000Y-71500000D03*
%TO.P,J3,4,Pin_4*%
%TO.N,Net-(A3-A2)*%
X135600000Y-69000000D03*
%TD*%
D31*
%TO.P,A1,1,EN*%
%TO.N,ENABLE*%
X99220000Y-42560000D03*
D32*
%TO.P,A1,2,MS1*%
%TO.N,Net-(A1-MS1)*%
X99220000Y-45100000D03*
%TO.P,A1,3,MS2*%
%TO.N,Net-(A1-MS2)*%
X99220000Y-47640000D03*
%TO.P,A1,4,RX*%
%TO.N,Net-(A1-RX)*%
X99220000Y-50180000D03*
%TO.P,A1,5,TX*%
%TO.N,Net-(A1-TX)*%
X99220000Y-52720000D03*
%TO.P,A1,6,CLK*%
%TO.N,unconnected-(A1-CLK-Pad6)*%
X99220000Y-55260000D03*
%TO.P,A1,7,STEP*%
%TO.N,STEP1*%
X99220000Y-57800000D03*
%TO.P,A1,8,DIR*%
%TO.N,DIR1*%
X99220000Y-60340000D03*
%TO.P,A1,9,GND*%
%TO.N,GND*%
X111920000Y-60340000D03*
%TO.P,A1,10,VIO*%
%TO.N,5V*%
X111920000Y-57800000D03*
%TO.P,A1,11,B2*%
%TO.N,Net-(A1-B2)*%
X111920000Y-55260000D03*
%TO.P,A1,12,B1*%
%TO.N,Net-(A1-B1)*%
X111920000Y-52720000D03*
%TO.P,A1,13,A1*%
%TO.N,Net-(A1-A1)*%
X111920000Y-50180000D03*
%TO.P,A1,14,A2*%
%TO.N,Net-(A1-A2)*%
X111920000Y-47640000D03*
%TO.P,A1,15,GND*%
%TO.N,GND*%
X111920000Y-45100000D03*
%TO.P,A1,16,VM*%
%TO.N,+24V*%
X111920000Y-42560000D03*
%TO.P,A1,18,DIAG*%
%TO.N,unconnected-(A1-DIAG-Pad18)*%
X104295000Y-42560000D03*
%TO.P,A1,19,VREF*%
%TO.N,unconnected-(A1-VREF-Pad19)*%
X101755000Y-42560000D03*
%TD*%
D33*
%TO.P,C9,1*%
%TO.N,GND*%
X120760000Y-80797500D03*
%TO.P,C9,2*%
%TO.N,+24V*%
X120760000Y-78722500D03*
%TD*%
D34*
%TO.P,D2,1,A1*%
%TO.N,GND*%
X73300000Y-40500000D03*
%TO.P,D2,2,A2*%
%TO.N,+24V*%
X78700000Y-40500000D03*
%TD*%
D35*
%TO.P,R16,1*%
%TO.N,RX*%
X117800000Y-43500000D03*
%TO.P,R16,2*%
%TO.N,Net-(J8-Pin_2)*%
X119800000Y-43500000D03*
%TD*%
D36*
%TO.P,R7,1*%
%TO.N,Net-(JP7-C)*%
X96760000Y-54100000D03*
%TO.P,R7,2*%
%TO.N,PDNUart*%
X96760000Y-56100000D03*
%TD*%
%TO.P,R6,1*%
%TO.N,GND*%
X115760000Y-65760000D03*
%TO.P,R6,2*%
%TO.N,Net-(A3-MS1)*%
X115760000Y-67760000D03*
%TD*%
D37*
%TO.P,JP10,1,A*%
%TO.N,Net-(JP10-A)*%
X137100000Y-49550000D03*
D38*
%TO.P,JP10,2,B*%
%TO.N,Net-(D1-A2)*%
X137100000Y-50850000D03*
%TD*%
D39*
%TO.P,U1,1,RO*%
%TO.N,RS485_RX*%
X127062500Y-46295000D03*
%TO.P,U1,2,RE*%
%TO.N,RS485_DE{slash}RE*%
X127062500Y-47565000D03*
%TO.P,U1,3,DE*%
X127062500Y-48835000D03*
%TO.P,U1,4,DI*%
%TO.N,RS485_TX*%
X127062500Y-50105000D03*
%TO.P,U1,5,GND*%
%TO.N,GND*%
X132137500Y-50105000D03*
%TO.P,U1,6,A/Y*%
%TO.N,RS485_A*%
X132137500Y-48835000D03*
%TO.P,U1,7,B/Z*%
%TO.N,RS485_B*%
X132137500Y-47565000D03*
%TO.P,U1,8,VCC*%
%TO.N,5V*%
X132137500Y-46295000D03*
%TD*%
D11*
%TO.P,C1,1*%
%TO.N,+24V*%
X106760000Y-53900000D03*
%TO.P,C1,2*%
%TO.N,GND*%
X106760000Y-59300000D03*
%TD*%
D33*
%TO.P,C3,1*%
%TO.N,GND*%
X101760000Y-58137500D03*
%TO.P,C3,2*%
%TO.N,+24V*%
X101760000Y-56062500D03*
%TD*%
D35*
%TO.P,R13,1*%
%TO.N,RS485_DE{slash}RE*%
X128600000Y-52200000D03*
%TO.P,R13,2*%
%TO.N,GND*%
X130600000Y-52200000D03*
%TD*%
D15*
%TO.P,JP6,1,A*%
%TO.N,Net-(A3-MS1)*%
X121460000Y-68060000D03*
D16*
%TO.P,JP6,2,B*%
%TO.N,5V*%
X124000000Y-68060000D03*
%TD*%
D12*
%TO.P,R4,1*%
%TO.N,GND*%
X89840000Y-71760000D03*
%TO.P,R4,2*%
%TO.N,Net-(A2-MS2)*%
X89840000Y-69760000D03*
%TD*%
D36*
%TO.P,R1,1*%
%TO.N,GND*%
X89840000Y-65760000D03*
%TO.P,R1,2*%
%TO.N,Net-(A2-MS1)*%
X89840000Y-67760000D03*
%TD*%
D31*
%TO.P,A2,1,EN*%
%TO.N,ENABLE*%
X92300000Y-65220000D03*
D32*
%TO.P,A2,2,MS1*%
%TO.N,Net-(A2-MS1)*%
X92300000Y-67760000D03*
%TO.P,A2,3,MS2*%
%TO.N,Net-(A2-MS2)*%
X92300000Y-70300000D03*
%TO.P,A2,4,RX*%
%TO.N,Net-(A2-RX)*%
X92300000Y-72840000D03*
%TO.P,A2,5,TX*%
%TO.N,Net-(A2-TX)*%
X92300000Y-75380000D03*
%TO.P,A2,6,CLK*%
%TO.N,unconnected-(A2-CLK-Pad6)*%
X92300000Y-77920000D03*
%TO.P,A2,7,STEP*%
%TO.N,STEP2*%
X92300000Y-80460000D03*
%TO.P,A2,8,DIR*%
%TO.N,DIR2*%
X92300000Y-83000000D03*
%TO.P,A2,9,GND*%
%TO.N,GND*%
X105000000Y-83000000D03*
%TO.P,A2,10,VIO*%
%TO.N,5V*%
X105000000Y-80460000D03*
%TO.P,A2,11,B2*%
%TO.N,Net-(A2-B2)*%
X105000000Y-77920000D03*
%TO.P,A2,12,B1*%
%TO.N,Net-(A2-B1)*%
X105000000Y-75380000D03*
%TO.P,A2,13,A1*%
%TO.N,Net-(A2-A1)*%
X105000000Y-72840000D03*
%TO.P,A2,14,A2*%
%TO.N,Net-(A2-A2)*%
X105000000Y-70300000D03*
%TO.P,A2,15,GND*%
%TO.N,GND*%
X105000000Y-67760000D03*
%TO.P,A2,16,VM*%
%TO.N,+24V*%
X105000000Y-65220000D03*
%TO.P,A2,18,DIAG*%
%TO.N,unconnected-(A2-DIAG-Pad18)*%
X97375000Y-65220000D03*
%TO.P,A2,19,VREF*%
%TO.N,unconnected-(A2-VREF-Pad19)*%
X94835000Y-65220000D03*
%TD*%
D40*
%TO.P,JP8,1,A*%
%TO.N,Net-(A2-RX)*%
X89840000Y-73447200D03*
%TO.P,JP8,2,C*%
%TO.N,Net-(JP8-C)*%
X89840000Y-74260000D03*
%TO.P,JP8,3,B*%
%TO.N,Net-(A2-TX)*%
X89840000Y-75072800D03*
%TD*%
D36*
%TO.P,R8,1*%
%TO.N,Net-(JP8-C)*%
X89840000Y-76760000D03*
%TO.P,R8,2*%
%TO.N,PDNUart*%
X89840000Y-78760000D03*
%TD*%
%TO.P,R10,1*%
%TO.N,RS485_A*%
X134600000Y-49200000D03*
%TO.P,R10,2*%
%TO.N,Net-(D1-A2)*%
X134600000Y-51200000D03*
%TD*%
D41*
%TO.P,F1,1*%
%TO.N,+24V*%
X75600000Y-46570000D03*
%TO.P,F1,2*%
%TO.N,Net-(J7-Pin_1)*%
X75600000Y-51430000D03*
%TD*%
D33*
%TO.P,C6,1*%
%TO.N,GND*%
X94840000Y-80797500D03*
%TO.P,C6,2*%
%TO.N,+24V*%
X94840000Y-78722500D03*
%TD*%
D15*
%TO.P,JP2,1,A*%
%TO.N,Net-(A2-MS2)*%
X95540000Y-71660000D03*
D16*
%TO.P,JP2,2,B*%
%TO.N,5V*%
X98080000Y-71660000D03*
%TD*%
D42*
%TO.P,D1,1,A1*%
%TO.N,Net-(D1-A1)*%
X136550000Y-43037500D03*
%TO.P,D1,2,A2*%
%TO.N,Net-(D1-A2)*%
X138450000Y-43037500D03*
%TO.P,D1,3,common*%
%TO.N,GND*%
X137500000Y-40762500D03*
%TD*%
D31*
%TO.P,A3,1,EN*%
%TO.N,ENABLE*%
X118220000Y-65220000D03*
D32*
%TO.P,A3,2,MS1*%
%TO.N,Net-(A3-MS1)*%
X118220000Y-67760000D03*
%TO.P,A3,3,MS2*%
%TO.N,Net-(A3-MS2)*%
X118220000Y-70300000D03*
%TO.P,A3,4,RX*%
%TO.N,Net-(A3-RX)*%
X118220000Y-72840000D03*
%TO.P,A3,5,TX*%
%TO.N,Net-(A3-TX)*%
X118220000Y-75380000D03*
%TO.P,A3,6,CLK*%
%TO.N,unconnected-(A3-CLK-Pad6)*%
X118220000Y-77920000D03*
%TO.P,A3,7,STEP*%
%TO.N,STEP3*%
X118220000Y-80460000D03*
%TO.P,A3,8,DIR*%
%TO.N,DIR3*%
X118220000Y-83000000D03*
%TO.P,A3,9,GND*%
%TO.N,GND*%
X130920000Y-83000000D03*
%TO.P,A3,10,VIO*%
%TO.N,5V*%
X130920000Y-80460000D03*
%TO.P,A3,11,B2*%
%TO.N,Net-(A3-B2)*%
X130920000Y-77920000D03*
%TO.P,A3,12,B1*%
%TO.N,Net-(A3-B1)*%
X130920000Y-75380000D03*
%TO.P,A3,13,A1*%
%TO.N,Net-(A3-A1)*%
X130920000Y-72840000D03*
%TO.P,A3,14,A2*%
%TO.N,Net-(A3-A2)*%
X130920000Y-70300000D03*
%TO.P,A3,15,GND*%
%TO.N,GND*%
X130920000Y-67760000D03*
%TO.P,A3,16,VM*%
%TO.N,+24V*%
X130920000Y-65220000D03*
%TO.P,A3,18,DIAG*%
%TO.N,unconnected-(A3-DIAG-Pad18)*%
X123295000Y-65220000D03*
%TO.P,A3,19,VREF*%
%TO.N,unconnected-(A3-VREF-Pad19)*%
X120755000Y-65220000D03*
%TD*%
D12*
%TO.P,R11,1*%
%TO.N,Net-(JP10-A)*%
X136600000Y-47200000D03*
%TO.P,R11,2*%
%TO.N,Net-(D1-A1)*%
X136600000Y-45200000D03*
%TD*%
D43*
%TO.P,H2,1,1*%
%TO.N,GND*%
X66000000Y-35500000D03*
%TD*%
D35*
%TO.P,R15,1*%
%TO.N,ENABLE*%
X117000000Y-61300000D03*
%TO.P,R15,2*%
%TO.N,ENABLEOut*%
X119000000Y-61300000D03*
%TD*%
D40*
%TO.P,JP9,1,A*%
%TO.N,Net-(A3-RX)*%
X115760000Y-73447200D03*
%TO.P,JP9,2,C*%
%TO.N,Net-(JP9-C)*%
X115760000Y-74260000D03*
%TO.P,JP9,3,B*%
%TO.N,Net-(A3-TX)*%
X115760000Y-75072800D03*
%TD*%
D24*
%TO.P,J9,1,Pin_1*%
%TO.N,Net-(J11-Pin_1)*%
X143000000Y-68000000D03*
D25*
%TO.P,J9,2,Pin_2*%
%TO.N,GND*%
X145500000Y-68000000D03*
%TO.P,J9,3,Pin_3*%
%TO.N,EndstopY*%
X148000000Y-68000000D03*
%TD*%
D40*
%TO.P,JP7,1,A*%
%TO.N,Net-(A1-RX)*%
X96760000Y-50787200D03*
%TO.P,JP7,2,C*%
%TO.N,Net-(JP7-C)*%
X96760000Y-51600000D03*
%TO.P,JP7,3,B*%
%TO.N,Net-(A1-TX)*%
X96760000Y-52412800D03*
%TD*%
D15*
%TO.P,JP3,1,A*%
%TO.N,Net-(A3-MS2)*%
X121460000Y-71660000D03*
D16*
%TO.P,JP3,2,B*%
%TO.N,5V*%
X124000000Y-71660000D03*
%TD*%
D43*
%TO.P,H3,1,1*%
%TO.N,GND*%
X146000000Y-89500000D03*
%TD*%
D44*
%TO.P,J10,1,Pin_1*%
%TO.N,ENABLE*%
X124000000Y-58000000D03*
D45*
%TO.P,J10,2,Pin_2*%
%TO.N,GND*%
X126500000Y-58000000D03*
%TD*%
D15*
%TO.P,J8,1,Pin_1*%
%TO.N,PDNUart*%
X123000000Y-45000000D03*
D16*
%TO.P,J8,2,Pin_2*%
%TO.N,Net-(J8-Pin_2)*%
X123000000Y-42460000D03*
%TD*%
D24*
%TO.P,J6,1,Pin_1*%
%TO.N,Net-(J11-Pin_1)*%
X143000000Y-75500000D03*
D25*
%TO.P,J6,2,Pin_2*%
%TO.N,GND*%
X145500000Y-75500000D03*
%TO.P,J6,3,Pin_3*%
%TO.N,EndstopX*%
X148000000Y-75500000D03*
%TD*%
D43*
%TO.P,H4,1,1*%
%TO.N,GND*%
X66000000Y-89500000D03*
%TD*%
D36*
%TO.P,R3,1*%
%TO.N,GND*%
X96760000Y-43100000D03*
%TO.P,R3,2*%
%TO.N,Net-(A1-MS1)*%
X96760000Y-45100000D03*
%TD*%
%TO.P,R9,1*%
%TO.N,Net-(JP9-C)*%
X115760000Y-76760000D03*
%TO.P,R9,2*%
%TO.N,PDNUart*%
X115760000Y-78760000D03*
%TD*%
D35*
%TO.P,R17,1*%
%TO.N,TX*%
X117800000Y-41400000D03*
%TO.P,R17,2*%
%TO.N,Net-(J8-Pin_2)*%
X119800000Y-41400000D03*
%TD*%
D46*
%TO.P,D3,1,K*%
%TO.N,+24V*%
X80350000Y-46460000D03*
%TO.P,D3,2,A*%
%TO.N,GND*%
X80350000Y-51540000D03*
D47*
X89500000Y-49000000D03*
%TD*%
D48*
%TO.P,J5,1,Pin_1*%
%TO.N,Net-(J5-Pin_1)*%
X148000000Y-84000000D03*
D25*
%TO.P,J5,2,Pin_2*%
%TO.N,Net-(J5-Pin_2)*%
X145500000Y-84000000D03*
%TO.P,J5,3,Pin_3*%
%TO.N,+24V*%
X143000000Y-84000000D03*
%TO.P,J5,4,Pin_4*%
%TO.N,GND*%
X140500000Y-84000000D03*
%TO.P,J5,5,Pin_5*%
%TO.N,5V*%
X138000000Y-84000000D03*
%TD*%
D43*
%TO.P,H1,1,1*%
%TO.N,GND*%
X146000000Y-35500000D03*
%TD*%
D49*
%TO.N,STEP2*%
X121300000Y-61500000D03*
X110000000Y-83200000D03*
X112300000Y-64900000D03*
%TO.N,GND*%
X115100000Y-64300000D03*
X80000000Y-50000000D03*
X101000000Y-67000000D03*
X127000000Y-67000000D03*
X75000000Y-60100000D03*
X89800000Y-63200000D03*
X108000000Y-44000000D03*
X130700000Y-54800000D03*
X71000000Y-57000000D03*
X94800000Y-42400000D03*
X81500000Y-87500000D03*
X81000000Y-53000000D03*
%TO.N,RS485_TX*%
X120399000Y-50100000D03*
X120100000Y-45595000D03*
%TO.N,DIR2*%
X111600000Y-82700000D03*
X113400000Y-64900000D03*
X122200000Y-61600000D03*
%TO.N,STEP3*%
X127600000Y-83200000D03*
D50*
%TO.N,RS485_DE{slash}RE*%
X130200000Y-57100000D03*
D49*
%TO.N,PGOOD*%
X87400000Y-41800000D03*
X77300000Y-81600000D03*
%TO.N,STEP1*%
X113600000Y-60000000D03*
%TO.N,DIR3*%
X128313023Y-83749184D03*
%TO.N,DIR1*%
X113694975Y-61394975D03*
%TO.N,5V*%
X132300000Y-42200000D03*
X65000000Y-60000000D03*
X68300000Y-57000000D03*
%TO.N,RS485_RX*%
X117800000Y-45700000D03*
%TO.N,+24V*%
X103000000Y-53000000D03*
X95000000Y-76000000D03*
X96000000Y-76000000D03*
D50*
X72650000Y-49150000D03*
D49*
X121000000Y-76000000D03*
D50*
X81100000Y-55500000D03*
D49*
X102000000Y-53000000D03*
X122000000Y-76000000D03*
%TO.N,ENABLE*%
X93600000Y-61600000D03*
X114800000Y-62400000D03*
%TO.N,ENABLEOut*%
X120200000Y-59300000D03*
X118100000Y-51400000D03*
X120100000Y-52000000D03*
D50*
%TO.N,Net-(D1-A2)*%
X139800000Y-44300000D03*
X139100000Y-48700000D03*
D49*
%TO.N,PDNUart*%
X121000000Y-85500000D03*
X89100000Y-57300000D03*
X88000000Y-77500000D03*
%TD*%
D51*
%TO.N,Net-(JP8-C)*%
X88860000Y-76760000D02*
X89840000Y-76760000D01*
X88740000Y-74260000D02*
X88300000Y-74700000D01*
X89840000Y-74260000D02*
X88740000Y-74260000D01*
X88300000Y-74700000D02*
X88300000Y-76200000D01*
X88300000Y-76200000D02*
X88860000Y-76760000D01*
%TO.N,Net-(JP7-C)*%
X95500000Y-54100000D02*
X96760000Y-54100000D01*
X95100000Y-53700000D02*
X95500000Y-54100000D01*
X95100000Y-51900000D02*
X95100000Y-53700000D01*
X95400000Y-51600000D02*
X95100000Y-51900000D01*
X96760000Y-51600000D02*
X95400000Y-51600000D01*
D52*
%TO.N,GND*%
X115600000Y-64300000D02*
X115760000Y-64460000D01*
X115760000Y-64460000D02*
X115760000Y-65760000D01*
X115100000Y-64300000D02*
X115600000Y-64300000D01*
D51*
%TO.N,EndstopY*%
X125380000Y-89500000D02*
X127211480Y-89500000D01*
X127211480Y-89500000D02*
X127412480Y-89701000D01*
X145408521Y-86800000D02*
X148900000Y-86800000D01*
X149900000Y-69900000D02*
X148000000Y-68000000D01*
X123340000Y-87460000D02*
X125380000Y-89500000D01*
X142507521Y-89701000D02*
X145408521Y-86800000D01*
X149900000Y-85800000D02*
X149900000Y-69900000D01*
X127412480Y-89701000D02*
X142507521Y-89701000D01*
X148900000Y-86800000D02*
X149900000Y-85800000D01*
D53*
%TO.N,Net-(A1-MS1)*%
X96760000Y-45100000D02*
X99220000Y-45100000D01*
X99220000Y-45100000D02*
X102160000Y-45100000D01*
X102160000Y-45100000D02*
X102460000Y-45400000D01*
D54*
%TO.N,Net-(A1-B1)*%
X111920000Y-52720000D02*
X116640000Y-52720000D01*
X116640000Y-52720000D02*
X116760000Y-52600000D01*
D51*
%TO.N,STEP2*%
X112300000Y-64900000D02*
X114100000Y-63100000D01*
X96139000Y-84299000D02*
X92300000Y-80460000D01*
X120300000Y-63100000D02*
X121234380Y-62165620D01*
X121234380Y-62165620D02*
X121234380Y-61434380D01*
X121234380Y-61434380D02*
X121300000Y-61500000D01*
X114100000Y-63100000D02*
X120300000Y-63100000D01*
X108901000Y-84299000D02*
X96139000Y-84299000D01*
X110000000Y-83200000D02*
X108901000Y-84299000D01*
D54*
%TO.N,GND*%
X110880000Y-59300000D02*
X111920000Y-60340000D01*
X129880000Y-81960000D02*
X130920000Y-83000000D01*
D51*
X88700000Y-66900000D02*
X88700000Y-70620000D01*
X130600000Y-51642500D02*
X132137500Y-50105000D01*
D54*
X126222500Y-64960000D02*
X126222500Y-66222500D01*
D51*
X130600000Y-52200000D02*
X130600000Y-51642500D01*
D53*
X128562500Y-47517499D02*
X131150001Y-50105000D01*
X145300000Y-41700000D02*
X145300000Y-47100000D01*
D54*
X102922500Y-59300000D02*
X101760000Y-58137500D01*
X126222500Y-66222500D02*
X127000000Y-67000000D01*
D53*
X144362500Y-40762500D02*
X145300000Y-41700000D01*
D54*
X99840000Y-81960000D02*
X96002500Y-81960000D01*
D51*
X115760000Y-65760000D02*
X114500000Y-67020000D01*
X96760000Y-43100000D02*
X95500000Y-43100000D01*
D54*
X121922500Y-81960000D02*
X120760000Y-80797500D01*
D51*
X89840000Y-65760000D02*
X88700000Y-66900000D01*
D54*
X99840000Y-81960000D02*
X103960000Y-81960000D01*
X71000000Y-57000000D02*
X74750000Y-57000000D01*
X86960000Y-51540000D02*
X89500000Y-49000000D01*
D53*
X144480000Y-47920000D02*
X142000000Y-47920000D01*
D55*
X62567500Y-43732500D02*
X62567500Y-47710000D01*
D54*
X100302500Y-66302500D02*
X101000000Y-67000000D01*
D53*
X81500000Y-87500000D02*
X81500000Y-85250000D01*
D54*
X96002500Y-81960000D02*
X94840000Y-80797500D01*
X80350000Y-51540000D02*
X86960000Y-51540000D01*
D55*
X73300000Y-40500000D02*
X65800000Y-40500000D01*
D51*
X95500000Y-43100000D02*
X94800000Y-42400000D01*
X89840000Y-65760000D02*
X89840000Y-63240000D01*
X130600000Y-54700000D02*
X130700000Y-54800000D01*
X114500000Y-67020000D02*
X114500000Y-70500000D01*
X130600000Y-52200000D02*
X130600000Y-54700000D01*
D54*
X106760000Y-59300000D02*
X110880000Y-59300000D01*
D51*
X96760000Y-43100000D02*
X95500000Y-44360000D01*
D54*
X80000000Y-51190000D02*
X80350000Y-51540000D01*
X107222500Y-42400000D02*
X107222500Y-43222500D01*
D53*
X145300000Y-47100000D02*
X144480000Y-47920000D01*
X137500000Y-40762500D02*
X144362500Y-40762500D01*
D54*
X81000000Y-52190000D02*
X80350000Y-51540000D01*
D55*
X62567500Y-47710000D02*
X67567500Y-47710000D01*
D54*
X103960000Y-81960000D02*
X105000000Y-83000000D01*
D55*
X65800000Y-40500000D02*
X62567500Y-43732500D01*
D54*
X81000000Y-53000000D02*
X81000000Y-52190000D01*
X125760000Y-81960000D02*
X129880000Y-81960000D01*
D51*
X88700000Y-70620000D02*
X89840000Y-71760000D01*
X95500000Y-44360000D02*
X95500000Y-47840000D01*
D53*
X131150001Y-50105000D02*
X132137500Y-50105000D01*
D54*
X74750000Y-57000000D02*
X75000000Y-57250000D01*
D51*
X95500000Y-47840000D02*
X96760000Y-49100000D01*
X114500000Y-70500000D02*
X115760000Y-71760000D01*
D54*
X107222500Y-43222500D02*
X108000000Y-44000000D01*
D51*
X96416000Y-42756000D02*
X96760000Y-43100000D01*
D54*
X100302500Y-64960000D02*
X100302500Y-66302500D01*
X125760000Y-81960000D02*
X121922500Y-81960000D01*
D51*
X89840000Y-63240000D02*
X89800000Y-63200000D01*
D53*
X128562500Y-42900000D02*
X128562500Y-47517499D01*
D54*
X80000000Y-50000000D02*
X80000000Y-51190000D01*
X75000000Y-60100000D02*
X75000000Y-57250000D01*
X106760000Y-59300000D02*
X102922500Y-59300000D01*
%TO.N,Net-(A1-B2)*%
X116600000Y-55260000D02*
X116760000Y-55100000D01*
X111920000Y-55260000D02*
X116600000Y-55260000D01*
D51*
%TO.N,Net-(A1-TX)*%
X96760000Y-52412800D02*
X98912800Y-52412800D01*
X98912800Y-52412800D02*
X99220000Y-52720000D01*
%TO.N,RS485_TX*%
X108480260Y-41104260D02*
X106576000Y-39200000D01*
X127057500Y-50100000D02*
X127062500Y-50105000D01*
X120100000Y-45595000D02*
X119995000Y-45595000D01*
X119995000Y-45595000D02*
X119400000Y-45000000D01*
X113404260Y-41104260D02*
X108480260Y-41104260D01*
X117300000Y-45000000D02*
X113404260Y-41104260D01*
X120399000Y-50100000D02*
X127057500Y-50100000D01*
X119400000Y-45000000D02*
X117300000Y-45000000D01*
%TO.N,Net-(A1-RX)*%
X98612800Y-50787200D02*
X99220000Y-50180000D01*
X96760000Y-50787200D02*
X98612800Y-50787200D01*
%TO.N,DIR2*%
X113400000Y-64900000D02*
X114700000Y-63600000D01*
X94300000Y-85000000D02*
X92300000Y-83000000D01*
X122200000Y-62100000D02*
X122200000Y-61600000D01*
X120700000Y-63600000D02*
X122200000Y-62100000D01*
X109300000Y-85000000D02*
X94300000Y-85000000D01*
X114700000Y-63600000D02*
X120700000Y-63600000D01*
X111600000Y-82700000D02*
X109300000Y-85000000D01*
%TO.N,STEP3*%
X122060000Y-84300000D02*
X118220000Y-80460000D01*
X127549166Y-84055025D02*
X127304191Y-84300000D01*
X127549166Y-83250834D02*
X127549166Y-84055025D01*
X127600000Y-83200000D02*
X127549166Y-83250834D01*
X127304191Y-84300000D02*
X122060000Y-84300000D01*
D53*
%TO.N,RS485_DE{slash}RE*%
X128600000Y-55500000D02*
X128600000Y-52200000D01*
X130200000Y-57100000D02*
X128600000Y-55500000D01*
X128600000Y-49385001D02*
X128600000Y-52200000D01*
X127062500Y-48835000D02*
X128049999Y-48835000D01*
X127062500Y-47565000D02*
X127062500Y-48835000D01*
X128049999Y-48835000D02*
X128600000Y-49385001D01*
D54*
%TO.N,Net-(A1-A2)*%
X111920000Y-47640000D02*
X116720000Y-47640000D01*
X116720000Y-47640000D02*
X116760000Y-47600000D01*
D53*
%TO.N,Net-(A1-MS2)*%
X96760000Y-47100000D02*
X98680000Y-47100000D01*
X99220000Y-47640000D02*
X101100000Y-47640000D01*
X98680000Y-47100000D02*
X99220000Y-47640000D01*
X101100000Y-47640000D02*
X102460000Y-49000000D01*
D51*
%TO.N,PGOOD*%
X78500000Y-82800000D02*
X77300000Y-81600000D01*
X87400000Y-41800000D02*
X87900000Y-41300000D01*
X87900000Y-41300000D02*
X101000000Y-41300000D01*
X101496000Y-40804000D02*
X101496000Y-39200000D01*
X101000000Y-41300000D02*
X101496000Y-40804000D01*
X78500000Y-85250000D02*
X78500000Y-82800000D01*
%TO.N,STEP1*%
X113600000Y-60000000D02*
X113600000Y-60500000D01*
X112993975Y-61106025D02*
X112501000Y-61599000D01*
X99220000Y-58920000D02*
X99220000Y-57800000D01*
X112993975Y-61104611D02*
X112993975Y-61106025D01*
X105707520Y-61599000D02*
X104407520Y-60299000D01*
X101859000Y-60299000D02*
X100660000Y-59100000D01*
X113406025Y-60693975D02*
X113404611Y-60693975D01*
X99400000Y-59100000D02*
X99220000Y-58920000D01*
X113404611Y-60693975D02*
X112993975Y-61104611D01*
X104407520Y-60299000D02*
X101859000Y-60299000D01*
X113600000Y-60500000D02*
X113406025Y-60693975D01*
X112501000Y-61599000D02*
X105707520Y-61599000D01*
X100660000Y-59100000D02*
X99400000Y-59100000D01*
%TO.N,RX*%
X116800000Y-43500000D02*
X117800000Y-43500000D01*
X113800000Y-40500000D02*
X116800000Y-43500000D01*
X110416000Y-40500000D02*
X113800000Y-40500000D01*
X109116000Y-39200000D02*
X110416000Y-40500000D01*
D54*
%TO.N,Net-(A1-A1)*%
X111920000Y-50180000D02*
X116680000Y-50180000D01*
X116680000Y-50180000D02*
X116760000Y-50100000D01*
D51*
%TO.N,DIR3*%
X128313023Y-84436260D02*
X127949283Y-84800000D01*
X127949283Y-84800000D02*
X120020000Y-84800000D01*
X120020000Y-84800000D02*
X118220000Y-83000000D01*
X128313023Y-83749184D02*
X128313023Y-84436260D01*
%TO.N,TX*%
X115900000Y-41400000D02*
X113700000Y-39200000D01*
X113700000Y-39200000D02*
X111656000Y-39200000D01*
X117800000Y-41400000D02*
X115900000Y-41400000D01*
%TO.N,DIR1*%
X113096119Y-62100000D02*
X105500000Y-62100000D01*
X101200000Y-60800000D02*
X100740000Y-60340000D01*
X113694975Y-61501144D02*
X113096119Y-62100000D01*
X113694975Y-61394975D02*
X113694975Y-61501144D01*
X105500000Y-62100000D02*
X104200000Y-60800000D01*
X104200000Y-60800000D02*
X101200000Y-60800000D01*
X100740000Y-60340000D02*
X99220000Y-60340000D01*
%TO.N,EndstopX*%
X148000000Y-77601000D02*
X149399000Y-79000000D01*
X149399000Y-85401000D02*
X148500000Y-86300000D01*
X142300000Y-89200000D02*
X127620000Y-89200000D01*
X149399000Y-79000000D02*
X149399000Y-85401000D01*
X145200000Y-86300000D02*
X142300000Y-89200000D01*
X148000000Y-75500000D02*
X148000000Y-77601000D01*
X148500000Y-86300000D02*
X145200000Y-86300000D01*
X127620000Y-89200000D02*
X125880000Y-87460000D01*
%TO.N,Net-(A2-TX)*%
X89840000Y-75072800D02*
X91992800Y-75072800D01*
X91992800Y-75072800D02*
X92300000Y-75380000D01*
D53*
%TO.N,5V*%
X130637500Y-42900000D02*
X131600000Y-42900000D01*
X111920000Y-57800000D02*
X113600000Y-57800000D01*
D54*
X65000000Y-60000000D02*
X65000000Y-57250000D01*
D53*
X131600000Y-42900000D02*
X132300000Y-42200000D01*
X130637500Y-42900000D02*
X130637500Y-44795000D01*
X113600000Y-57800000D02*
X115000000Y-59200000D01*
D54*
X65250000Y-57000000D02*
X65000000Y-57250000D01*
X68300000Y-57000000D02*
X65250000Y-57000000D01*
D53*
X130637500Y-44795000D02*
X132137500Y-46295000D01*
D51*
%TO.N,Net-(A3-TX)*%
X115760000Y-75072800D02*
X117912800Y-75072800D01*
X117912800Y-75072800D02*
X118220000Y-75380000D01*
%TO.N,RS485_RX*%
X118395000Y-46295000D02*
X127062500Y-46295000D01*
X117800000Y-45700000D02*
X118395000Y-46295000D01*
%TO.N,EndstopZ*%
X147100000Y-64800000D02*
X148000000Y-63900000D01*
X131100000Y-86000000D02*
X141300000Y-75800000D01*
X120800000Y-87460000D02*
X122260000Y-86000000D01*
X148000000Y-63900000D02*
X148000000Y-60500000D01*
X142500000Y-64800000D02*
X147100000Y-64800000D01*
X141300000Y-66000000D02*
X142500000Y-64800000D01*
X122260000Y-86000000D02*
X131100000Y-86000000D01*
X141300000Y-75800000D02*
X141300000Y-66000000D01*
D53*
%TO.N,Net-(A2-MS1)*%
X95240000Y-67760000D02*
X95540000Y-68060000D01*
X89840000Y-67760000D02*
X92300000Y-67760000D01*
X92300000Y-67760000D02*
X95240000Y-67760000D01*
D54*
%TO.N,Net-(A2-B1)*%
X105000000Y-75380000D02*
X109880000Y-75380000D01*
X109880000Y-75380000D02*
X110000000Y-75260000D01*
D53*
%TO.N,Net-(A2-MS2)*%
X89840000Y-69760000D02*
X91760000Y-69760000D01*
X94180000Y-70300000D02*
X95540000Y-71660000D01*
X92300000Y-70300000D02*
X94180000Y-70300000D01*
X91760000Y-69760000D02*
X92300000Y-70300000D01*
D55*
%TO.N,+24V*%
X81100000Y-55500000D02*
X82850000Y-57250000D01*
D54*
X125760000Y-76560000D02*
X122922500Y-76560000D01*
X122922500Y-76560000D02*
X122560000Y-76560000D01*
X122922500Y-76560000D02*
X120760000Y-78722500D01*
X128297500Y-64960000D02*
X130660000Y-64960000D01*
X122560000Y-76560000D02*
X122000000Y-76000000D01*
X128297500Y-64960000D02*
X128297500Y-74022500D01*
D55*
X82850000Y-57250000D02*
X85500000Y-57250000D01*
D54*
X97002500Y-76560000D02*
X96560000Y-76560000D01*
X102731000Y-62951000D02*
X105000000Y-65220000D01*
X103900000Y-53900000D02*
X103000000Y-53000000D01*
D55*
X75600000Y-48300000D02*
X75600000Y-46570000D01*
D54*
X103922500Y-53900000D02*
X103900000Y-53900000D01*
X85500000Y-57250000D02*
X91201000Y-62951000D01*
X109297500Y-51362500D02*
X106760000Y-53900000D01*
X111760000Y-42400000D02*
X111920000Y-42560000D01*
X95000000Y-76000000D02*
X96000000Y-76000000D01*
D55*
X75530000Y-46500000D02*
X75600000Y-46570000D01*
D54*
X102377500Y-74022500D02*
X99840000Y-76560000D01*
X102377500Y-64960000D02*
X102377500Y-74022500D01*
X106760000Y-53900000D02*
X103922500Y-53900000D01*
X121000000Y-76000000D02*
X122000000Y-76000000D01*
D55*
X72650000Y-49150000D02*
X74750000Y-49150000D01*
D54*
X103922500Y-53900000D02*
X101760000Y-56062500D01*
X109297500Y-51362500D02*
X109297500Y-42400000D01*
X130660000Y-64960000D02*
X130920000Y-65220000D01*
X91201000Y-62951000D02*
X102731000Y-62951000D01*
X104740000Y-64960000D02*
X105000000Y-65220000D01*
X99840000Y-76560000D02*
X97002500Y-76560000D01*
D55*
X74750000Y-49150000D02*
X75600000Y-48300000D01*
D54*
X109297500Y-42400000D02*
X111760000Y-42400000D01*
X103000000Y-53000000D02*
X102000000Y-53000000D01*
X96560000Y-76560000D02*
X96000000Y-76000000D01*
X102377500Y-64960000D02*
X104740000Y-64960000D01*
X97002500Y-76560000D02*
X94840000Y-78722500D01*
D55*
X80350000Y-42150000D02*
X78700000Y-40500000D01*
D54*
X128297500Y-74022500D02*
X125760000Y-76560000D01*
D55*
X80350000Y-46460000D02*
X75710000Y-46460000D01*
X75710000Y-46460000D02*
X75600000Y-46570000D01*
X80350000Y-42150000D02*
X80350000Y-46460000D01*
D54*
%TO.N,Net-(A2-A1)*%
X105000000Y-72840000D02*
X109920000Y-72840000D01*
X109920000Y-72840000D02*
X110000000Y-72760000D01*
D51*
%TO.N,ENABLE*%
X114800000Y-62400000D02*
X114600000Y-62600000D01*
D53*
X118900000Y-58000000D02*
X124000000Y-58000000D01*
X115900000Y-61300000D02*
X114800000Y-62400000D01*
D51*
X104291480Y-61600000D02*
X93600000Y-61600000D01*
X105291480Y-62600000D02*
X104291480Y-61600000D01*
D53*
X117000000Y-59200000D02*
X117000000Y-61300000D01*
D51*
X114800000Y-62400000D02*
X114849000Y-62351000D01*
D53*
X117000000Y-61300000D02*
X115900000Y-61300000D01*
D51*
X114600000Y-62600000D02*
X105291480Y-62600000D01*
D53*
X117000000Y-59200000D02*
X117700000Y-59200000D01*
X117700000Y-59200000D02*
X118900000Y-58000000D01*
D54*
%TO.N,Net-(A2-A2)*%
X105000000Y-70300000D02*
X109960000Y-70300000D01*
X109960000Y-70300000D02*
X110000000Y-70260000D01*
D51*
%TO.N,Net-(A2-RX)*%
X91692800Y-73447200D02*
X92300000Y-72840000D01*
X89840000Y-73447200D02*
X91692800Y-73447200D01*
D54*
%TO.N,Net-(A2-B2)*%
X105000000Y-77920000D02*
X109840000Y-77920000D01*
X109840000Y-77920000D02*
X110000000Y-77760000D01*
D51*
%TO.N,Net-(A3-RX)*%
X117612800Y-73447200D02*
X118220000Y-72840000D01*
X115760000Y-73447200D02*
X117612800Y-73447200D01*
D53*
%TO.N,Net-(A3-MS1)*%
X121160000Y-67760000D02*
X121460000Y-68060000D01*
X115760000Y-67760000D02*
X118220000Y-67760000D01*
X118220000Y-67760000D02*
X121160000Y-67760000D01*
D54*
%TO.N,Net-(A3-A1)*%
X132260000Y-71500000D02*
X130920000Y-72840000D01*
X135600000Y-71500000D02*
X132260000Y-71500000D01*
%TO.N,Net-(A3-B2)*%
X132340000Y-76500000D02*
X130920000Y-77920000D01*
X135600000Y-76500000D02*
X132340000Y-76500000D01*
D53*
%TO.N,Net-(A3-MS2)*%
X117680000Y-69760000D02*
X118220000Y-70300000D01*
X115760000Y-69760000D02*
X117680000Y-69760000D01*
X120100000Y-70300000D02*
X121460000Y-71660000D01*
X118220000Y-70300000D02*
X120100000Y-70300000D01*
D54*
%TO.N,Net-(A3-A2)*%
X132220000Y-69000000D02*
X130920000Y-70300000D01*
X135600000Y-69000000D02*
X132220000Y-69000000D01*
%TO.N,Net-(A3-B1)*%
X132300000Y-74000000D02*
X130920000Y-75380000D01*
X135600000Y-74000000D02*
X132300000Y-74000000D01*
D51*
%TO.N,ENABLEOut*%
X118100000Y-51400000D02*
X119500000Y-51400000D01*
X120200000Y-60100000D02*
X119000000Y-61300000D01*
X120200000Y-59300000D02*
X120200000Y-60100000D01*
X119500000Y-51400000D02*
X120100000Y-52000000D01*
%TO.N,Net-(J5-Pin_1)*%
X130960000Y-87460000D02*
X132174600Y-88674600D01*
X132174600Y-88674600D02*
X142025400Y-88674600D01*
X144900000Y-85800000D02*
X147400000Y-85800000D01*
X148000000Y-85200000D02*
X148000000Y-84000000D01*
X142025400Y-88674600D02*
X144900000Y-85800000D01*
X147400000Y-85800000D02*
X148000000Y-85200000D01*
%TO.N,Net-(J5-Pin_2)*%
X133500000Y-87460000D02*
X142040000Y-87460000D01*
X142040000Y-87460000D02*
X145500000Y-84000000D01*
D53*
%TO.N,Net-(D1-A2)*%
X142000000Y-53000000D02*
X139255000Y-50255000D01*
X138450000Y-50255000D02*
X137855000Y-50850000D01*
X139255000Y-50255000D02*
X138450000Y-50255000D01*
X138537500Y-43037500D02*
X139800000Y-44300000D01*
X137855000Y-50850000D02*
X137100000Y-50850000D01*
X138450000Y-43037500D02*
X138537500Y-43037500D01*
X139100000Y-49605000D02*
X138450000Y-50255000D01*
X139100000Y-48700000D02*
X139100000Y-49605000D01*
X136750000Y-51200000D02*
X137100000Y-50850000D01*
X134600000Y-51200000D02*
X136750000Y-51200000D01*
%TO.N,Net-(D1-A1)*%
X136600000Y-43087500D02*
X136550000Y-43037500D01*
X137600000Y-43500000D02*
X137600000Y-44000000D01*
X142000000Y-44700000D02*
X142000000Y-42840000D01*
X137137500Y-43037500D02*
X137600000Y-43500000D01*
X137600000Y-44000000D02*
X138900000Y-45300000D01*
X136600000Y-45200000D02*
X136600000Y-43087500D01*
X136550000Y-43037500D02*
X137137500Y-43037500D01*
X134600000Y-45200000D02*
X136600000Y-45200000D01*
X138900000Y-45300000D02*
X141400000Y-45300000D01*
X141400000Y-45300000D02*
X142000000Y-44700000D01*
D55*
%TO.N,Net-(J7-Pin_1)*%
X67567500Y-51210000D02*
X75380000Y-51210000D01*
X75380000Y-51210000D02*
X75600000Y-51430000D01*
X62567500Y-51210000D02*
X67567500Y-51210000D01*
D53*
%TO.N,Net-(J8-Pin_2)*%
X123000000Y-42460000D02*
X120840000Y-42460000D01*
X120840000Y-42440000D02*
X120840000Y-42460000D01*
X119800000Y-41400000D02*
X120840000Y-42440000D01*
X120840000Y-42460000D02*
X119800000Y-43500000D01*
D51*
%TO.N,Net-(JP9-C)*%
X114400000Y-76300000D02*
X114860000Y-76760000D01*
X115760000Y-74260000D02*
X114740000Y-74260000D01*
X114400000Y-74600000D02*
X114400000Y-76300000D01*
X114740000Y-74260000D02*
X114400000Y-74600000D01*
X114860000Y-76760000D02*
X115760000Y-76760000D01*
D53*
%TO.N,Net-(JP10-A)*%
X137100000Y-49550000D02*
X137100000Y-47700000D01*
X137100000Y-47700000D02*
X136600000Y-47200000D01*
D51*
%TO.N,PDNUart*%
X89040000Y-78760000D02*
X89840000Y-78760000D01*
X121000000Y-85500000D02*
X118420000Y-85500000D01*
X89840000Y-78760000D02*
X89260000Y-78760000D01*
X89260000Y-78760000D02*
X88000000Y-77500000D01*
X118420000Y-85500000D02*
X115760000Y-82840000D01*
X113099000Y-85501000D02*
X90301000Y-85501000D01*
X88200000Y-79600000D02*
X89040000Y-78760000D01*
X89100000Y-57300000D02*
X90300000Y-56100000D01*
X115760000Y-82840000D02*
X115760000Y-78760000D01*
X115760000Y-82840000D02*
X113099000Y-85501000D01*
X88200000Y-83400000D02*
X88200000Y-79600000D01*
X90301000Y-85501000D02*
X88200000Y-83400000D01*
X90300000Y-56100000D02*
X96760000Y-56100000D01*
D53*
%TO.N,RS485_A*%
X134235000Y-48835000D02*
X134600000Y-49200000D01*
X132137500Y-48835000D02*
X134235000Y-48835000D01*
%TO.N,RS485_B*%
X132137500Y-47565000D02*
X134235000Y-47565000D01*
X134235000Y-47565000D02*
X134600000Y-47200000D01*
%TD*%
M02*
