%TF.GenerationSoftware,KiCad,Pcbnew,9.0.7*%
%TF.CreationDate,2026-03-19T09:42:27+01:00*%
%TF.ProjectId,MPC01,4d504330-312e-46b6-9963-61645f706362,V0.1*%
%TF.SameCoordinates,Original*%
%TF.FileFunction,Copper,L4,Bot*%
%TF.FilePolarity,Positive*%
%FSLAX46Y46*%
G04 Gerber Fmt 4.6, Leading zero omitted, Abs format (unit mm)*
G04 Created by KiCad (PCBNEW 9.0.7) date 2026-03-19 09:42:27*
%MOMM*%
%LPD*%
G01*
G04 APERTURE LIST*
G04 Aperture macros list*
%AMRoundRect*
0 Rectangle with rounded corners*
0 $1 Rounding radius*
0 $2 $3 $4 $5 $6 $7 $8 $9 X,Y pos of 4 corners*
0 Add a 4 corners polygon primitive as box body*
4,1,4,$2,$3,$4,$5,$6,$7,$8,$9,$2,$3,0*
0 Add four circle primitives for the rounded corners*
1,1,$1+$1,$2,$3*
1,1,$1+$1,$4,$5*
1,1,$1+$1,$6,$7*
1,1,$1+$1,$8,$9*
0 Add four rect primitives between the rounded corners*
20,1,$1+$1,$2,$3,$4,$5,0*
20,1,$1+$1,$4,$5,$6,$7,0*
20,1,$1+$1,$6,$7,$8,$9,0*
20,1,$1+$1,$8,$9,$2,$3,0*%
G04 Aperture macros list end*
%TA.AperFunction,ComponentPad*%
%ADD10RoundRect,0.250000X0.725000X-0.600000X0.725000X0.600000X-0.725000X0.600000X-0.725000X-0.600000X0*%
%TD*%
%TA.AperFunction,ComponentPad*%
%ADD11O,1.950000X1.700000*%
%TD*%
%TA.AperFunction,ComponentPad*%
%ADD12R,1.700000X1.700000*%
%TD*%
%TA.AperFunction,ComponentPad*%
%ADD13C,1.700000*%
%TD*%
%TA.AperFunction,ComponentPad*%
%ADD14R,2.300000X1.500000*%
%TD*%
%TA.AperFunction,ComponentPad*%
%ADD15RoundRect,0.250001X0.899999X-0.499999X0.899999X0.499999X-0.899999X0.499999X-0.899999X-0.499999X0*%
%TD*%
%TA.AperFunction,ComponentPad*%
%ADD16O,2.300000X1.500000*%
%TD*%
%TA.AperFunction,ComponentPad*%
%ADD17O,1.727200X1.727200*%
%TD*%
%TA.AperFunction,ComponentPad*%
%ADD18R,1.727200X1.727200*%
%TD*%
%TA.AperFunction,ComponentPad*%
%ADD19RoundRect,0.250000X-0.600000X-0.725000X0.600000X-0.725000X0.600000X0.725000X-0.600000X0.725000X0*%
%TD*%
%TA.AperFunction,ComponentPad*%
%ADD20O,1.700000X1.950000*%
%TD*%
%TA.AperFunction,ComponentPad*%
%ADD21RoundRect,0.249999X1.550001X-0.790001X1.550001X0.790001X-1.550001X0.790001X-1.550001X-0.790001X0*%
%TD*%
%TA.AperFunction,ComponentPad*%
%ADD22O,3.600000X2.080000*%
%TD*%
%TA.AperFunction,ComponentPad*%
%ADD23R,1.600000X1.600000*%
%TD*%
%TA.AperFunction,ComponentPad*%
%ADD24O,1.600000X1.600000*%
%TD*%
%TA.AperFunction,ComponentPad*%
%ADD25C,3.800000*%
%TD*%
%TA.AperFunction,ComponentPad*%
%ADD26RoundRect,0.250000X-0.600000X-0.750000X0.600000X-0.750000X0.600000X0.750000X-0.600000X0.750000X0*%
%TD*%
%TA.AperFunction,ComponentPad*%
%ADD27O,1.700000X2.000000*%
%TD*%
%TA.AperFunction,ComponentPad*%
%ADD28RoundRect,0.250000X0.600000X0.725000X-0.600000X0.725000X-0.600000X-0.725000X0.600000X-0.725000X0*%
%TD*%
%TA.AperFunction,ViaPad*%
%ADD29C,0.700000*%
%TD*%
%TA.AperFunction,ViaPad*%
%ADD30C,0.800000*%
%TD*%
%TA.AperFunction,Conductor*%
%ADD31C,0.300000*%
%TD*%
%TA.AperFunction,Conductor*%
%ADD32C,0.500000*%
%TD*%
%TA.AperFunction,Conductor*%
%ADD33C,1.000000*%
%TD*%
%TA.AperFunction,Conductor*%
%ADD34C,1.500000*%
%TD*%
G04 APERTURE END LIST*
D10*
%TO.P,J2,1,Pin_1*%
%TO.N,Net-(A2-B2)*%
X110000000Y-77760000D03*
D11*
%TO.P,J2,2,Pin_2*%
%TO.N,Net-(A2-B1)*%
X110000000Y-75260000D03*
%TO.P,J2,3,Pin_3*%
%TO.N,Net-(A2-A1)*%
X110000000Y-72760000D03*
%TO.P,J2,4,Pin_4*%
%TO.N,Net-(A2-A2)*%
X110000000Y-70260000D03*
%TD*%
D12*
%TO.P,JP1,1,A*%
%TO.N,Net-(A1-MS2)*%
X102460000Y-49000000D03*
D13*
%TO.P,JP1,2,B*%
%TO.N,5V*%
X105000000Y-49000000D03*
%TD*%
D12*
%TO.P,JP5,1,A*%
%TO.N,Net-(A2-MS1)*%
X95540000Y-68060000D03*
D13*
%TO.P,JP5,2,B*%
%TO.N,5V*%
X98080000Y-68060000D03*
%TD*%
D14*
%TO.P,J7,1,Pin_1*%
%TO.N,Net-(J7-Pin_1)*%
X62567500Y-51210000D03*
D15*
X67567500Y-51210000D03*
D16*
%TO.P,J7,2,Pin_2*%
%TO.N,GND*%
X62567500Y-47710000D03*
X67567500Y-47710000D03*
%TD*%
D12*
%TO.P,JP4,1,A*%
%TO.N,Net-(A1-MS1)*%
X102460000Y-45400000D03*
D13*
%TO.P,JP4,2,B*%
%TO.N,5V*%
X105000000Y-45400000D03*
%TD*%
D17*
%TO.P,A4,*%
%TO.N,*%
X97940000Y-87460000D03*
%TO.P,A4,3V3,3.3V*%
%TO.N,+3V3*%
X105560000Y-87460000D03*
%TO.P,A4,5V1,5V*%
%TO.N,unconnected-(A4-5V-Pad5V1)*%
X108100000Y-87460000D03*
%TO.P,A4,5V2,SPI_5V*%
%TO.N,unconnected-(A4-SPI_5V-Pad5V2)*%
X136167000Y-59520000D03*
%TO.P,A4,A0,A0*%
%TO.N,EndstopZ*%
X120800000Y-87460000D03*
%TO.P,A4,A1,A1*%
%TO.N,EndstopY*%
X123340000Y-87460000D03*
%TO.P,A4,A2,A2*%
%TO.N,EndstopX*%
X125880000Y-87460000D03*
%TO.P,A4,A3,A3*%
%TO.N,RS485_DE{slash}RE*%
X128420000Y-87460000D03*
%TO.P,A4,A4,A4*%
%TO.N,Net-(J5-Pin_1)*%
X130960000Y-87460000D03*
%TO.P,A4,A5,A5*%
%TO.N,Net-(J5-Pin_2)*%
X133500000Y-87460000D03*
%TO.P,A4,AREF,AREF*%
%TO.N,unconnected-(A4-PadAREF)*%
X93876000Y-39200000D03*
%TO.P,A4,D0,D0/RX*%
%TO.N,unconnected-(A4-D0{slash}RX-PadD0)*%
X133500000Y-39200000D03*
%TO.P,A4,D1,D1/TX*%
%TO.N,unconnected-(A4-D1{slash}TX-PadD1)*%
X130960000Y-39200000D03*
%TO.P,A4,D2,D2_INT0*%
%TO.N,DIR3*%
X128420000Y-39200000D03*
%TO.P,A4,D3,D3_INT1*%
%TO.N,STEP3*%
X125880000Y-39200000D03*
%TO.P,A4,D4,D4*%
%TO.N,DIR2*%
X123340000Y-39200000D03*
%TO.P,A4,D5,D5*%
%TO.N,STEP2*%
X120800000Y-39200000D03*
%TO.P,A4,D6,D6*%
%TO.N,DIR1*%
X118260000Y-39200000D03*
%TO.P,A4,D7,D7*%
%TO.N,STEP1*%
X115720000Y-39200000D03*
%TO.P,A4,D8,D8*%
%TO.N,TX*%
X111656000Y-39200000D03*
%TO.P,A4,D9,D9*%
%TO.N,RX*%
X109116000Y-39200000D03*
%TO.P,A4,D10,D10_CS*%
%TO.N,RS485_TX*%
X106576000Y-39200000D03*
%TO.P,A4,D11,D11*%
%TO.N,RS485_RX*%
X104036000Y-39200000D03*
%TO.P,A4,D12,D12*%
%TO.N,PGOOD*%
X101496000Y-39200000D03*
%TO.P,A4,D13,D13*%
%TO.N,ENABLEOut*%
X98956000Y-39200000D03*
D18*
%TO.P,A4,GND1,GND*%
%TO.N,GND*%
X96416000Y-39200000D03*
%TO.P,A4,GND2,GND*%
X110640000Y-87460000D03*
%TO.P,A4,GND3,GND*%
X113180000Y-87460000D03*
%TO.P,A4,GND4,SPI_GND*%
%TO.N,unconnected-(A4-SPI_GND-PadGND4)*%
X136167000Y-64600000D03*
D17*
%TO.P,A4,IORF,IOREF*%
%TO.N,unconnected-(A4-IOREF-PadIORF)*%
X100480000Y-87460000D03*
%TO.P,A4,MISO,SPI_MISO*%
%TO.N,unconnected-(A4-SPI_MISO-PadMISO)*%
X133627000Y-59520000D03*
%TO.P,A4,MOSI,SPI_MOSI*%
%TO.N,unconnected-(A4-SPI_MOSI-PadMOSI)*%
X136167000Y-62060000D03*
%TO.P,A4,RST1,RESET*%
%TO.N,unconnected-(A4-RESET-PadRST1)*%
X103020000Y-87460000D03*
%TO.P,A4,RST2,SPI_RESET*%
%TO.N,unconnected-(A4-SPI_RESET-PadRST2)*%
X133627000Y-64600000D03*
%TO.P,A4,SCK,SPI_SCK*%
%TO.N,unconnected-(A4-SPI_SCK-PadSCK)*%
X133627000Y-62060000D03*
%TO.P,A4,SCL,SCL*%
%TO.N,unconnected-(A4-PadSCL)*%
X88796000Y-39200000D03*
%TO.P,A4,SDA,SDA*%
%TO.N,unconnected-(A4-PadSDA)*%
X91336000Y-39200000D03*
%TO.P,A4,VIN,VIN*%
%TO.N,5V*%
X115720000Y-87460000D03*
%TD*%
D19*
%TO.P,J11,1,Pin_1*%
%TO.N,Net-(J11-Pin_1)*%
X143000000Y-60500000D03*
D20*
%TO.P,J11,2,Pin_2*%
%TO.N,GND*%
X145500000Y-60500000D03*
%TO.P,J11,3,Pin_3*%
%TO.N,EndstopZ*%
X148000000Y-60500000D03*
%TD*%
D21*
%TO.P,J4,1,Pin_1*%
%TO.N,Net-(D1-A2)*%
X142000000Y-53000000D03*
D22*
%TO.P,J4,2,Pin_2*%
%TO.N,GND*%
X142000000Y-47920000D03*
%TO.P,J4,3,Pin_3*%
%TO.N,Net-(D1-A1)*%
X142000000Y-42840000D03*
%TD*%
D10*
%TO.P,J1,1,Pin_1*%
%TO.N,Net-(A1-B2)*%
X116760000Y-55100000D03*
D11*
%TO.P,J1,2,Pin_2*%
%TO.N,Net-(A1-B1)*%
X116760000Y-52600000D03*
%TO.P,J1,3,Pin_3*%
%TO.N,Net-(A1-A1)*%
X116760000Y-50100000D03*
%TO.P,J1,4,Pin_4*%
%TO.N,Net-(A1-A2)*%
X116760000Y-47600000D03*
%TD*%
D10*
%TO.P,J3,1,Pin_1*%
%TO.N,Net-(A3-B2)*%
X135600000Y-76500000D03*
D11*
%TO.P,J3,2,Pin_2*%
%TO.N,Net-(A3-B1)*%
X135600000Y-74000000D03*
%TO.P,J3,3,Pin_3*%
%TO.N,Net-(A3-A1)*%
X135600000Y-71500000D03*
%TO.P,J3,4,Pin_4*%
%TO.N,Net-(A3-A2)*%
X135600000Y-69000000D03*
%TD*%
D23*
%TO.P,A1,1,EN*%
%TO.N,ENABLE*%
X99220000Y-42560000D03*
D24*
%TO.P,A1,2,MS1*%
%TO.N,Net-(A1-MS1)*%
X99220000Y-45100000D03*
%TO.P,A1,3,MS2*%
%TO.N,Net-(A1-MS2)*%
X99220000Y-47640000D03*
%TO.P,A1,4,RX*%
%TO.N,Net-(A1-RX)*%
X99220000Y-50180000D03*
%TO.P,A1,5,TX*%
%TO.N,Net-(A1-TX)*%
X99220000Y-52720000D03*
%TO.P,A1,6,CLK*%
%TO.N,unconnected-(A1-CLK-Pad6)*%
X99220000Y-55260000D03*
%TO.P,A1,7,STEP*%
%TO.N,STEP1*%
X99220000Y-57800000D03*
%TO.P,A1,8,DIR*%
%TO.N,DIR1*%
X99220000Y-60340000D03*
%TO.P,A1,9,GND*%
%TO.N,GND*%
X111920000Y-60340000D03*
%TO.P,A1,10,VIO*%
%TO.N,5V*%
X111920000Y-57800000D03*
%TO.P,A1,11,B2*%
%TO.N,Net-(A1-B2)*%
X111920000Y-55260000D03*
%TO.P,A1,12,B1*%
%TO.N,Net-(A1-B1)*%
X111920000Y-52720000D03*
%TO.P,A1,13,A1*%
%TO.N,Net-(A1-A1)*%
X111920000Y-50180000D03*
%TO.P,A1,14,A2*%
%TO.N,Net-(A1-A2)*%
X111920000Y-47640000D03*
%TO.P,A1,15,GND*%
%TO.N,GND*%
X111920000Y-45100000D03*
%TO.P,A1,16,VM*%
%TO.N,+24V*%
X111920000Y-42560000D03*
%TO.P,A1,18,DIAG*%
%TO.N,unconnected-(A1-DIAG-Pad18)*%
X104295000Y-42560000D03*
%TO.P,A1,19,VREF*%
%TO.N,unconnected-(A1-VREF-Pad19)*%
X101755000Y-42560000D03*
%TD*%
D12*
%TO.P,JP6,1,A*%
%TO.N,Net-(A3-MS1)*%
X121460000Y-68060000D03*
D13*
%TO.P,JP6,2,B*%
%TO.N,5V*%
X124000000Y-68060000D03*
%TD*%
D23*
%TO.P,A2,1,EN*%
%TO.N,ENABLE*%
X92300000Y-65220000D03*
D24*
%TO.P,A2,2,MS1*%
%TO.N,Net-(A2-MS1)*%
X92300000Y-67760000D03*
%TO.P,A2,3,MS2*%
%TO.N,Net-(A2-MS2)*%
X92300000Y-70300000D03*
%TO.P,A2,4,RX*%
%TO.N,Net-(A2-RX)*%
X92300000Y-72840000D03*
%TO.P,A2,5,TX*%
%TO.N,Net-(A2-TX)*%
X92300000Y-75380000D03*
%TO.P,A2,6,CLK*%
%TO.N,unconnected-(A2-CLK-Pad6)*%
X92300000Y-77920000D03*
%TO.P,A2,7,STEP*%
%TO.N,STEP2*%
X92300000Y-80460000D03*
%TO.P,A2,8,DIR*%
%TO.N,DIR2*%
X92300000Y-83000000D03*
%TO.P,A2,9,GND*%
%TO.N,GND*%
X105000000Y-83000000D03*
%TO.P,A2,10,VIO*%
%TO.N,5V*%
X105000000Y-80460000D03*
%TO.P,A2,11,B2*%
%TO.N,Net-(A2-B2)*%
X105000000Y-77920000D03*
%TO.P,A2,12,B1*%
%TO.N,Net-(A2-B1)*%
X105000000Y-75380000D03*
%TO.P,A2,13,A1*%
%TO.N,Net-(A2-A1)*%
X105000000Y-72840000D03*
%TO.P,A2,14,A2*%
%TO.N,Net-(A2-A2)*%
X105000000Y-70300000D03*
%TO.P,A2,15,GND*%
%TO.N,GND*%
X105000000Y-67760000D03*
%TO.P,A2,16,VM*%
%TO.N,+24V*%
X105000000Y-65220000D03*
%TO.P,A2,18,DIAG*%
%TO.N,unconnected-(A2-DIAG-Pad18)*%
X97375000Y-65220000D03*
%TO.P,A2,19,VREF*%
%TO.N,unconnected-(A2-VREF-Pad19)*%
X94835000Y-65220000D03*
%TD*%
D12*
%TO.P,JP2,1,A*%
%TO.N,Net-(A2-MS2)*%
X95540000Y-71660000D03*
D13*
%TO.P,JP2,2,B*%
%TO.N,5V*%
X98080000Y-71660000D03*
%TD*%
D23*
%TO.P,A3,1,EN*%
%TO.N,ENABLE*%
X118220000Y-65220000D03*
D24*
%TO.P,A3,2,MS1*%
%TO.N,Net-(A3-MS1)*%
X118220000Y-67760000D03*
%TO.P,A3,3,MS2*%
%TO.N,Net-(A3-MS2)*%
X118220000Y-70300000D03*
%TO.P,A3,4,RX*%
%TO.N,Net-(A3-RX)*%
X118220000Y-72840000D03*
%TO.P,A3,5,TX*%
%TO.N,Net-(A3-TX)*%
X118220000Y-75380000D03*
%TO.P,A3,6,CLK*%
%TO.N,unconnected-(A3-CLK-Pad6)*%
X118220000Y-77920000D03*
%TO.P,A3,7,STEP*%
%TO.N,STEP3*%
X118220000Y-80460000D03*
%TO.P,A3,8,DIR*%
%TO.N,DIR3*%
X118220000Y-83000000D03*
%TO.P,A3,9,GND*%
%TO.N,GND*%
X130920000Y-83000000D03*
%TO.P,A3,10,VIO*%
%TO.N,5V*%
X130920000Y-80460000D03*
%TO.P,A3,11,B2*%
%TO.N,Net-(A3-B2)*%
X130920000Y-77920000D03*
%TO.P,A3,12,B1*%
%TO.N,Net-(A3-B1)*%
X130920000Y-75380000D03*
%TO.P,A3,13,A1*%
%TO.N,Net-(A3-A1)*%
X130920000Y-72840000D03*
%TO.P,A3,14,A2*%
%TO.N,Net-(A3-A2)*%
X130920000Y-70300000D03*
%TO.P,A3,15,GND*%
%TO.N,GND*%
X130920000Y-67760000D03*
%TO.P,A3,16,VM*%
%TO.N,+24V*%
X130920000Y-65220000D03*
%TO.P,A3,18,DIAG*%
%TO.N,unconnected-(A3-DIAG-Pad18)*%
X123295000Y-65220000D03*
%TO.P,A3,19,VREF*%
%TO.N,unconnected-(A3-VREF-Pad19)*%
X120755000Y-65220000D03*
%TD*%
D25*
%TO.P,H2,1,1*%
%TO.N,GND*%
X66000000Y-35500000D03*
%TD*%
D19*
%TO.P,J9,1,Pin_1*%
%TO.N,Net-(J11-Pin_1)*%
X143000000Y-68000000D03*
D20*
%TO.P,J9,2,Pin_2*%
%TO.N,GND*%
X145500000Y-68000000D03*
%TO.P,J9,3,Pin_3*%
%TO.N,EndstopY*%
X148000000Y-68000000D03*
%TD*%
D12*
%TO.P,JP3,1,A*%
%TO.N,Net-(A3-MS2)*%
X121460000Y-71660000D03*
D13*
%TO.P,JP3,2,B*%
%TO.N,5V*%
X124000000Y-71660000D03*
%TD*%
D25*
%TO.P,H3,1,1*%
%TO.N,GND*%
X146000000Y-89500000D03*
%TD*%
D26*
%TO.P,J10,1,Pin_1*%
%TO.N,ENABLE*%
X124000000Y-58000000D03*
D27*
%TO.P,J10,2,Pin_2*%
%TO.N,GND*%
X126500000Y-58000000D03*
%TD*%
D12*
%TO.P,J8,1,Pin_1*%
%TO.N,PDNUart*%
X123000000Y-45000000D03*
D13*
%TO.P,J8,2,Pin_2*%
%TO.N,Net-(J8-Pin_2)*%
X123000000Y-42460000D03*
%TD*%
D19*
%TO.P,J6,1,Pin_1*%
%TO.N,Net-(J11-Pin_1)*%
X143000000Y-75500000D03*
D20*
%TO.P,J6,2,Pin_2*%
%TO.N,GND*%
X145500000Y-75500000D03*
%TO.P,J6,3,Pin_3*%
%TO.N,EndstopX*%
X148000000Y-75500000D03*
%TD*%
D25*
%TO.P,H4,1,1*%
%TO.N,GND*%
X66000000Y-89500000D03*
%TD*%
D28*
%TO.P,J5,1,Pin_1*%
%TO.N,Net-(J5-Pin_1)*%
X148000000Y-84000000D03*
D20*
%TO.P,J5,2,Pin_2*%
%TO.N,Net-(J5-Pin_2)*%
X145500000Y-84000000D03*
%TO.P,J5,3,Pin_3*%
%TO.N,+24V*%
X143000000Y-84000000D03*
%TO.P,J5,4,Pin_4*%
%TO.N,GND*%
X140500000Y-84000000D03*
%TO.P,J5,5,Pin_5*%
%TO.N,5V*%
X138000000Y-84000000D03*
%TD*%
D25*
%TO.P,H1,1,1*%
%TO.N,GND*%
X146000000Y-35500000D03*
%TD*%
D29*
%TO.N,STEP2*%
X121300000Y-61500000D03*
X110000000Y-83200000D03*
X112300000Y-64900000D03*
%TO.N,GND*%
X115100000Y-64300000D03*
X80000000Y-50000000D03*
X101000000Y-67000000D03*
X127000000Y-67000000D03*
X75000000Y-60100000D03*
X89800000Y-63200000D03*
X108000000Y-44000000D03*
X130700000Y-54800000D03*
X71000000Y-57000000D03*
X94800000Y-42400000D03*
X81500000Y-87500000D03*
X81000000Y-53000000D03*
%TO.N,RS485_TX*%
X120399000Y-50100000D03*
X120100000Y-45595000D03*
%TO.N,DIR2*%
X111600000Y-82700000D03*
X113400000Y-64900000D03*
X122200000Y-61600000D03*
%TO.N,STEP3*%
X127600000Y-83200000D03*
D30*
%TO.N,RS485_DE{slash}RE*%
X130200000Y-57100000D03*
D29*
%TO.N,PGOOD*%
X87400000Y-41800000D03*
X77300000Y-81600000D03*
%TO.N,STEP1*%
X113600000Y-60000000D03*
%TO.N,DIR3*%
X128313023Y-83749184D03*
%TO.N,DIR1*%
X113694975Y-61394975D03*
%TO.N,5V*%
X132300000Y-42200000D03*
X65000000Y-60000000D03*
X68300000Y-57000000D03*
%TO.N,RS485_RX*%
X117800000Y-45700000D03*
%TO.N,+24V*%
X103000000Y-53000000D03*
X95000000Y-76000000D03*
X96000000Y-76000000D03*
D30*
X72650000Y-49150000D03*
D29*
X121000000Y-76000000D03*
D30*
X81100000Y-55500000D03*
D29*
X102000000Y-53000000D03*
X122000000Y-76000000D03*
%TO.N,ENABLE*%
X93600000Y-61600000D03*
X114800000Y-62400000D03*
%TO.N,ENABLEOut*%
X120200000Y-59300000D03*
X118100000Y-51400000D03*
X120100000Y-52000000D03*
D30*
%TO.N,Net-(D1-A2)*%
X139800000Y-44300000D03*
X139100000Y-48700000D03*
D29*
%TO.N,PDNUart*%
X121000000Y-85500000D03*
X89100000Y-57300000D03*
X88000000Y-77500000D03*
%TD*%
D31*
%TO.N,STEP2*%
X121100000Y-39500000D02*
X120800000Y-39200000D01*
X121099000Y-40732480D02*
X121100000Y-40731479D01*
X121300000Y-61500000D02*
X121300000Y-60808521D01*
X121099000Y-60607520D02*
X121099000Y-40732480D01*
X112300000Y-80900000D02*
X110000000Y-83200000D01*
X112300000Y-64900000D02*
X112300000Y-80900000D01*
X121300000Y-60808521D02*
X121099000Y-60607520D01*
X121100000Y-40731479D02*
X121100000Y-39500000D01*
%TO.N,GND*%
X96416000Y-40784000D02*
X96416000Y-39200000D01*
X94800000Y-42400000D02*
X96416000Y-40784000D01*
%TO.N,RS485_TX*%
X120100000Y-45595000D02*
X120100000Y-45700000D01*
X120598000Y-46198000D02*
X120598000Y-49901000D01*
X120100000Y-45700000D02*
X120598000Y-46198000D01*
X120598000Y-49901000D02*
X120399000Y-50100000D01*
%TO.N,DIR2*%
X113400000Y-64900000D02*
X113400000Y-80900000D01*
X121600000Y-60400000D02*
X121600000Y-40940000D01*
X121600000Y-40940000D02*
X123340000Y-39200000D01*
X113400000Y-80900000D02*
X111600000Y-82700000D01*
X122200000Y-61000000D02*
X121600000Y-60400000D01*
X122200000Y-61600000D02*
X122200000Y-61000000D01*
%TO.N,STEP3*%
X127600000Y-83200000D02*
X128000000Y-82800000D01*
X128000000Y-41320000D02*
X125880000Y-39200000D01*
X128000000Y-82800000D02*
X128000000Y-41320000D01*
D32*
%TO.N,RS485_DE{slash}RE*%
X128420000Y-87460000D02*
X128420000Y-85480000D01*
X129200000Y-58100000D02*
X130200000Y-57100000D01*
X129200000Y-84700000D02*
X129200000Y-58100000D01*
X128420000Y-85480000D02*
X129200000Y-84700000D01*
D31*
%TO.N,PGOOD*%
X78300000Y-80600000D02*
X82700000Y-80600000D01*
X87000000Y-42100000D02*
X87300000Y-41800000D01*
X87000000Y-76300000D02*
X87000000Y-42100000D01*
X87300000Y-41800000D02*
X87400000Y-41800000D01*
X77300000Y-81600000D02*
X78300000Y-80600000D01*
X82700000Y-80600000D02*
X87000000Y-76300000D01*
%TO.N,STEP1*%
X113600000Y-60300000D02*
X113900000Y-60600000D01*
X118899000Y-60101000D02*
X118899000Y-42379000D01*
X118899000Y-42379000D02*
X115720000Y-39200000D01*
X118400000Y-60600000D02*
X118899000Y-60101000D01*
X113600000Y-60000000D02*
X113600000Y-60300000D01*
X113900000Y-60600000D02*
X118400000Y-60600000D01*
%TO.N,DIR3*%
X128600000Y-39380000D02*
X128420000Y-39200000D01*
X128313023Y-83749184D02*
X128600000Y-83462207D01*
X128600000Y-83462207D02*
X128600000Y-39380000D01*
%TO.N,DIR1*%
X118602807Y-61697193D02*
X119400000Y-60900000D01*
X119400000Y-40340000D02*
X118260000Y-39200000D01*
X113997193Y-61697193D02*
X118602807Y-61697193D01*
X113694975Y-61394975D02*
X113997193Y-61697193D01*
X119400000Y-60900000D02*
X119400000Y-40340000D01*
%TO.N,RS485_RX*%
X113800000Y-40500000D02*
X105336000Y-40500000D01*
X117800000Y-45700000D02*
X116800000Y-44700000D01*
X105336000Y-40500000D02*
X104036000Y-39200000D01*
X116800000Y-44700000D02*
X116800000Y-43500000D01*
X116800000Y-43500000D02*
X113800000Y-40500000D01*
D33*
%TO.N,+24V*%
X119800000Y-85100000D02*
X122000000Y-82900000D01*
D34*
X81100000Y-55500000D02*
X79000000Y-55500000D01*
D33*
X103000000Y-53200000D02*
X105000000Y-55200000D01*
D34*
X79000000Y-55500000D02*
X72650000Y-49150000D01*
D33*
X122000000Y-82900000D02*
X122000000Y-76000000D01*
X103000000Y-53000000D02*
X103000000Y-53200000D01*
X96000000Y-76000000D02*
X96000000Y-82900000D01*
X105000000Y-55200000D02*
X105000000Y-65220000D01*
X98200000Y-85100000D02*
X119800000Y-85100000D01*
X96000000Y-82900000D02*
X98200000Y-85100000D01*
X143000000Y-84000000D02*
X143000000Y-81200000D01*
X138900000Y-77100000D02*
X138900000Y-69000000D01*
X132500000Y-66800000D02*
X130920000Y-65220000D01*
X138900000Y-69000000D02*
X136700000Y-66800000D01*
X136700000Y-66800000D02*
X132500000Y-66800000D01*
X143000000Y-81200000D02*
X138900000Y-77100000D01*
D31*
%TO.N,ENABLE*%
X96600000Y-43200000D02*
X97240000Y-42560000D01*
X97240000Y-42560000D02*
X99220000Y-42560000D01*
X118220000Y-63280000D02*
X118220000Y-65220000D01*
X114800000Y-62400000D02*
X117340000Y-62400000D01*
X93600000Y-61600000D02*
X92300000Y-62900000D01*
X117340000Y-62400000D02*
X118220000Y-63280000D01*
X96600000Y-58600000D02*
X96600000Y-43200000D01*
X92300000Y-62900000D02*
X92300000Y-65220000D01*
X93600000Y-61600000D02*
X96600000Y-58600000D01*
%TO.N,ENABLEOut*%
X120100000Y-52000000D02*
X120100000Y-59200000D01*
X112800000Y-41100000D02*
X115900000Y-44200000D01*
X118199000Y-47099000D02*
X118199000Y-51301000D01*
X120100000Y-59200000D02*
X120200000Y-59300000D01*
X98956000Y-39200000D02*
X100856000Y-41100000D01*
X115900000Y-44800000D02*
X118199000Y-47099000D01*
X100856000Y-41100000D02*
X112800000Y-41100000D01*
X115900000Y-44200000D02*
X115900000Y-44800000D01*
X118199000Y-51301000D02*
X118100000Y-51400000D01*
D32*
%TO.N,Net-(D1-A2)*%
X139800000Y-44300000D02*
X139100000Y-45000000D01*
X139100000Y-45000000D02*
X139100000Y-48700000D01*
%TO.N,Net-(J11-Pin_1)*%
X143000000Y-60500000D02*
X143000000Y-68000000D01*
X143000000Y-68000000D02*
X143000000Y-75500000D01*
D31*
%TO.N,PDNUart*%
X125900000Y-64200000D02*
X122701000Y-61001000D01*
X122701000Y-61001000D02*
X122701000Y-45299000D01*
X122701000Y-45299000D02*
X123000000Y-45000000D01*
X125900000Y-84800000D02*
X125900000Y-64200000D01*
X88000000Y-58400000D02*
X89100000Y-57300000D01*
X121000000Y-85500000D02*
X125200000Y-85500000D01*
X125200000Y-85500000D02*
X125900000Y-84800000D01*
X88000000Y-77500000D02*
X88000000Y-58400000D01*
%TD*%
M02*
