%TF.GenerationSoftware,KiCad,Pcbnew,9.0.6*%
%TF.CreationDate,2026-02-22T19:23:35+01:00*%
%TF.ProjectId,MPC01,4d504330-312e-46b6-9963-61645f706362,V0.1*%
%TF.SameCoordinates,Original*%
%TF.FileFunction,Legend,Top*%
%TF.FilePolarity,Positive*%
%FSLAX46Y46*%
G04 Gerber Fmt 4.6, Leading zero omitted, Abs format (unit mm)*
G04 Created by KiCad (PCBNEW 9.0.6) date 2026-02-22 19:23:35*
%MOMM*%
%LPD*%
G01*
G04 APERTURE LIST*
%ADD10C,0.152400*%
%ADD11C,0.150000*%
%ADD12C,0.200000*%
%ADD13C,0.100000*%
%ADD14C,0.120000*%
G04 APERTURE END LIST*
D10*
X80200000Y-51800000D02*
X83200000Y-51800000D01*
X146292603Y-50706213D02*
X145479803Y-50706213D01*
X146292603Y-50319165D02*
X145750737Y-50319165D01*
X145828146Y-50319165D02*
X145789441Y-50280460D01*
X145789441Y-50280460D02*
X145750737Y-50203050D01*
X145750737Y-50203050D02*
X145750737Y-50086936D01*
X145750737Y-50086936D02*
X145789441Y-50009527D01*
X145789441Y-50009527D02*
X145866851Y-49970822D01*
X145866851Y-49970822D02*
X146292603Y-49970822D01*
X145866851Y-49970822D02*
X145789441Y-49932117D01*
X145789441Y-49932117D02*
X145750737Y-49854708D01*
X145750737Y-49854708D02*
X145750737Y-49738593D01*
X145750737Y-49738593D02*
X145789441Y-49661184D01*
X145789441Y-49661184D02*
X145866851Y-49622479D01*
X145866851Y-49622479D02*
X146292603Y-49622479D01*
X145750737Y-48732270D02*
X145750737Y-48422632D01*
X145479803Y-48616156D02*
X146176489Y-48616156D01*
X146176489Y-48616156D02*
X146253899Y-48577451D01*
X146253899Y-48577451D02*
X146292603Y-48500041D01*
X146292603Y-48500041D02*
X146292603Y-48422632D01*
X146292603Y-48151699D02*
X145479803Y-48151699D01*
X146292603Y-47803356D02*
X145866851Y-47803356D01*
X145866851Y-47803356D02*
X145789441Y-47842061D01*
X145789441Y-47842061D02*
X145750737Y-47919470D01*
X145750737Y-47919470D02*
X145750737Y-48035584D01*
X145750737Y-48035584D02*
X145789441Y-48112994D01*
X145789441Y-48112994D02*
X145828146Y-48151699D01*
X146253899Y-47106671D02*
X146292603Y-47184080D01*
X146292603Y-47184080D02*
X146292603Y-47338899D01*
X146292603Y-47338899D02*
X146253899Y-47416309D01*
X146253899Y-47416309D02*
X146176489Y-47455013D01*
X146176489Y-47455013D02*
X145866851Y-47455013D01*
X145866851Y-47455013D02*
X145789441Y-47416309D01*
X145789441Y-47416309D02*
X145750737Y-47338899D01*
X145750737Y-47338899D02*
X145750737Y-47184080D01*
X145750737Y-47184080D02*
X145789441Y-47106671D01*
X145789441Y-47106671D02*
X145866851Y-47067966D01*
X145866851Y-47067966D02*
X145944260Y-47067966D01*
X145944260Y-47067966D02*
X146021670Y-47455013D01*
X145866851Y-46100347D02*
X145866851Y-45829413D01*
X146292603Y-45713299D02*
X146292603Y-46100347D01*
X146292603Y-46100347D02*
X145479803Y-46100347D01*
X145479803Y-46100347D02*
X145479803Y-45713299D01*
X146292603Y-45364957D02*
X145479803Y-45364957D01*
X145479803Y-45364957D02*
X146292603Y-44900500D01*
X146292603Y-44900500D02*
X145479803Y-44900500D01*
X146292603Y-44513452D02*
X145479803Y-44513452D01*
X145479803Y-44513452D02*
X145479803Y-44319928D01*
X145479803Y-44319928D02*
X145518508Y-44203814D01*
X145518508Y-44203814D02*
X145595918Y-44126404D01*
X145595918Y-44126404D02*
X145673327Y-44087699D01*
X145673327Y-44087699D02*
X145828146Y-44048995D01*
X145828146Y-44048995D02*
X145944260Y-44048995D01*
X145944260Y-44048995D02*
X146099079Y-44087699D01*
X146099079Y-44087699D02*
X146176489Y-44126404D01*
X146176489Y-44126404D02*
X146253899Y-44203814D01*
X146253899Y-44203814D02*
X146292603Y-44319928D01*
X146292603Y-44319928D02*
X146292603Y-44513452D01*
X146215194Y-43700652D02*
X146253899Y-43661947D01*
X146253899Y-43661947D02*
X146292603Y-43700652D01*
X146292603Y-43700652D02*
X146253899Y-43739356D01*
X146253899Y-43739356D02*
X146215194Y-43700652D01*
X146215194Y-43700652D02*
X146292603Y-43700652D01*
X145982965Y-43700652D02*
X145518508Y-43739356D01*
X145518508Y-43739356D02*
X145479803Y-43700652D01*
X145479803Y-43700652D02*
X145518508Y-43661947D01*
X145518508Y-43661947D02*
X145982965Y-43700652D01*
X145982965Y-43700652D02*
X145479803Y-43700652D01*
X80919539Y-51492603D02*
X80455082Y-51492603D01*
X80687310Y-51492603D02*
X80687310Y-50679803D01*
X80687310Y-50679803D02*
X80609901Y-50795918D01*
X80609901Y-50795918D02*
X80532491Y-50873327D01*
X80532491Y-50873327D02*
X80455082Y-50912032D01*
X81422700Y-50679803D02*
X81500110Y-50679803D01*
X81500110Y-50679803D02*
X81577519Y-50718508D01*
X81577519Y-50718508D02*
X81616224Y-50757213D01*
X81616224Y-50757213D02*
X81654929Y-50834622D01*
X81654929Y-50834622D02*
X81693634Y-50989441D01*
X81693634Y-50989441D02*
X81693634Y-51182965D01*
X81693634Y-51182965D02*
X81654929Y-51337784D01*
X81654929Y-51337784D02*
X81616224Y-51415194D01*
X81616224Y-51415194D02*
X81577519Y-51453899D01*
X81577519Y-51453899D02*
X81500110Y-51492603D01*
X81500110Y-51492603D02*
X81422700Y-51492603D01*
X81422700Y-51492603D02*
X81345291Y-51453899D01*
X81345291Y-51453899D02*
X81306586Y-51415194D01*
X81306586Y-51415194D02*
X81267881Y-51337784D01*
X81267881Y-51337784D02*
X81229177Y-51182965D01*
X81229177Y-51182965D02*
X81229177Y-50989441D01*
X81229177Y-50989441D02*
X81267881Y-50834622D01*
X81267881Y-50834622D02*
X81306586Y-50757213D01*
X81306586Y-50757213D02*
X81345291Y-50718508D01*
X81345291Y-50718508D02*
X81422700Y-50679803D01*
X82003272Y-51260375D02*
X82390319Y-51260375D01*
X81925862Y-51492603D02*
X82196795Y-50679803D01*
X82196795Y-50679803D02*
X82467729Y-51492603D01*
D11*
X106489160Y-73822200D02*
X106632017Y-73869819D01*
X106632017Y-73869819D02*
X106870112Y-73869819D01*
X106870112Y-73869819D02*
X106965350Y-73822200D01*
X106965350Y-73822200D02*
X107012969Y-73774580D01*
X107012969Y-73774580D02*
X107060588Y-73679342D01*
X107060588Y-73679342D02*
X107060588Y-73584104D01*
X107060588Y-73584104D02*
X107012969Y-73488866D01*
X107012969Y-73488866D02*
X106965350Y-73441247D01*
X106965350Y-73441247D02*
X106870112Y-73393628D01*
X106870112Y-73393628D02*
X106679636Y-73346009D01*
X106679636Y-73346009D02*
X106584398Y-73298390D01*
X106584398Y-73298390D02*
X106536779Y-73250771D01*
X106536779Y-73250771D02*
X106489160Y-73155533D01*
X106489160Y-73155533D02*
X106489160Y-73060295D01*
X106489160Y-73060295D02*
X106536779Y-72965057D01*
X106536779Y-72965057D02*
X106584398Y-72917438D01*
X106584398Y-72917438D02*
X106679636Y-72869819D01*
X106679636Y-72869819D02*
X106917731Y-72869819D01*
X106917731Y-72869819D02*
X107060588Y-72917438D01*
X107346303Y-73203152D02*
X107727255Y-73203152D01*
X107489160Y-72869819D02*
X107489160Y-73726961D01*
X107489160Y-73726961D02*
X107536779Y-73822200D01*
X107536779Y-73822200D02*
X107632017Y-73869819D01*
X107632017Y-73869819D02*
X107727255Y-73869819D01*
X108441541Y-73822200D02*
X108346303Y-73869819D01*
X108346303Y-73869819D02*
X108155827Y-73869819D01*
X108155827Y-73869819D02*
X108060589Y-73822200D01*
X108060589Y-73822200D02*
X108012970Y-73726961D01*
X108012970Y-73726961D02*
X108012970Y-73346009D01*
X108012970Y-73346009D02*
X108060589Y-73250771D01*
X108060589Y-73250771D02*
X108155827Y-73203152D01*
X108155827Y-73203152D02*
X108346303Y-73203152D01*
X108346303Y-73203152D02*
X108441541Y-73250771D01*
X108441541Y-73250771D02*
X108489160Y-73346009D01*
X108489160Y-73346009D02*
X108489160Y-73441247D01*
X108489160Y-73441247D02*
X108012970Y-73536485D01*
X108917732Y-73203152D02*
X108917732Y-74203152D01*
X108917732Y-73250771D02*
X109012970Y-73203152D01*
X109012970Y-73203152D02*
X109203446Y-73203152D01*
X109203446Y-73203152D02*
X109298684Y-73250771D01*
X109298684Y-73250771D02*
X109346303Y-73298390D01*
X109346303Y-73298390D02*
X109393922Y-73393628D01*
X109393922Y-73393628D02*
X109393922Y-73679342D01*
X109393922Y-73679342D02*
X109346303Y-73774580D01*
X109346303Y-73774580D02*
X109298684Y-73822200D01*
X109298684Y-73822200D02*
X109203446Y-73869819D01*
X109203446Y-73869819D02*
X109012970Y-73869819D01*
X109012970Y-73869819D02*
X108917732Y-73822200D01*
X109822494Y-73203152D02*
X109822494Y-74203152D01*
X109822494Y-73250771D02*
X109917732Y-73203152D01*
X109917732Y-73203152D02*
X110108208Y-73203152D01*
X110108208Y-73203152D02*
X110203446Y-73250771D01*
X110203446Y-73250771D02*
X110251065Y-73298390D01*
X110251065Y-73298390D02*
X110298684Y-73393628D01*
X110298684Y-73393628D02*
X110298684Y-73679342D01*
X110298684Y-73679342D02*
X110251065Y-73774580D01*
X110251065Y-73774580D02*
X110203446Y-73822200D01*
X110203446Y-73822200D02*
X110108208Y-73869819D01*
X110108208Y-73869819D02*
X109917732Y-73869819D01*
X109917732Y-73869819D02*
X109822494Y-73822200D01*
X111108208Y-73822200D02*
X111012970Y-73869819D01*
X111012970Y-73869819D02*
X110822494Y-73869819D01*
X110822494Y-73869819D02*
X110727256Y-73822200D01*
X110727256Y-73822200D02*
X110679637Y-73726961D01*
X110679637Y-73726961D02*
X110679637Y-73346009D01*
X110679637Y-73346009D02*
X110727256Y-73250771D01*
X110727256Y-73250771D02*
X110822494Y-73203152D01*
X110822494Y-73203152D02*
X111012970Y-73203152D01*
X111012970Y-73203152D02*
X111108208Y-73250771D01*
X111108208Y-73250771D02*
X111155827Y-73346009D01*
X111155827Y-73346009D02*
X111155827Y-73441247D01*
X111155827Y-73441247D02*
X110679637Y-73536485D01*
X111584399Y-73869819D02*
X111584399Y-73203152D01*
X111584399Y-73393628D02*
X111632018Y-73298390D01*
X111632018Y-73298390D02*
X111679637Y-73250771D01*
X111679637Y-73250771D02*
X111774875Y-73203152D01*
X111774875Y-73203152D02*
X111870113Y-73203152D01*
X112870114Y-72869819D02*
X113489161Y-72869819D01*
X113489161Y-72869819D02*
X113155828Y-73250771D01*
X113155828Y-73250771D02*
X113298685Y-73250771D01*
X113298685Y-73250771D02*
X113393923Y-73298390D01*
X113393923Y-73298390D02*
X113441542Y-73346009D01*
X113441542Y-73346009D02*
X113489161Y-73441247D01*
X113489161Y-73441247D02*
X113489161Y-73679342D01*
X113489161Y-73679342D02*
X113441542Y-73774580D01*
X113441542Y-73774580D02*
X113393923Y-73822200D01*
X113393923Y-73822200D02*
X113298685Y-73869819D01*
X113298685Y-73869819D02*
X113012971Y-73869819D01*
X113012971Y-73869819D02*
X112917733Y-73822200D01*
X112917733Y-73822200D02*
X112870114Y-73774580D01*
D12*
X151264911Y-48006028D02*
X150798244Y-47291742D01*
X150464911Y-48006028D02*
X150464911Y-46506028D01*
X150464911Y-46506028D02*
X150998244Y-46506028D01*
X150998244Y-46506028D02*
X151131578Y-46577457D01*
X151131578Y-46577457D02*
X151198244Y-46648885D01*
X151198244Y-46648885D02*
X151264911Y-46791742D01*
X151264911Y-46791742D02*
X151264911Y-47006028D01*
X151264911Y-47006028D02*
X151198244Y-47148885D01*
X151198244Y-47148885D02*
X151131578Y-47220314D01*
X151131578Y-47220314D02*
X150998244Y-47291742D01*
X150998244Y-47291742D02*
X150464911Y-47291742D01*
X151798244Y-47934600D02*
X151998244Y-48006028D01*
X151998244Y-48006028D02*
X152331578Y-48006028D01*
X152331578Y-48006028D02*
X152464911Y-47934600D01*
X152464911Y-47934600D02*
X152531578Y-47863171D01*
X152531578Y-47863171D02*
X152598244Y-47720314D01*
X152598244Y-47720314D02*
X152598244Y-47577457D01*
X152598244Y-47577457D02*
X152531578Y-47434600D01*
X152531578Y-47434600D02*
X152464911Y-47363171D01*
X152464911Y-47363171D02*
X152331578Y-47291742D01*
X152331578Y-47291742D02*
X152064911Y-47220314D01*
X152064911Y-47220314D02*
X151931578Y-47148885D01*
X151931578Y-47148885D02*
X151864911Y-47077457D01*
X151864911Y-47077457D02*
X151798244Y-46934600D01*
X151798244Y-46934600D02*
X151798244Y-46791742D01*
X151798244Y-46791742D02*
X151864911Y-46648885D01*
X151864911Y-46648885D02*
X151931578Y-46577457D01*
X151931578Y-46577457D02*
X152064911Y-46506028D01*
X152064911Y-46506028D02*
X152398244Y-46506028D01*
X152398244Y-46506028D02*
X152598244Y-46577457D01*
X153798244Y-47006028D02*
X153798244Y-48006028D01*
X153464911Y-46434600D02*
X153131577Y-47506028D01*
X153131577Y-47506028D02*
X153998244Y-47506028D01*
X154731577Y-47148885D02*
X154598244Y-47077457D01*
X154598244Y-47077457D02*
X154531577Y-47006028D01*
X154531577Y-47006028D02*
X154464910Y-46863171D01*
X154464910Y-46863171D02*
X154464910Y-46791742D01*
X154464910Y-46791742D02*
X154531577Y-46648885D01*
X154531577Y-46648885D02*
X154598244Y-46577457D01*
X154598244Y-46577457D02*
X154731577Y-46506028D01*
X154731577Y-46506028D02*
X154998244Y-46506028D01*
X154998244Y-46506028D02*
X155131577Y-46577457D01*
X155131577Y-46577457D02*
X155198244Y-46648885D01*
X155198244Y-46648885D02*
X155264910Y-46791742D01*
X155264910Y-46791742D02*
X155264910Y-46863171D01*
X155264910Y-46863171D02*
X155198244Y-47006028D01*
X155198244Y-47006028D02*
X155131577Y-47077457D01*
X155131577Y-47077457D02*
X154998244Y-47148885D01*
X154998244Y-47148885D02*
X154731577Y-47148885D01*
X154731577Y-47148885D02*
X154598244Y-47220314D01*
X154598244Y-47220314D02*
X154531577Y-47291742D01*
X154531577Y-47291742D02*
X154464910Y-47434600D01*
X154464910Y-47434600D02*
X154464910Y-47720314D01*
X154464910Y-47720314D02*
X154531577Y-47863171D01*
X154531577Y-47863171D02*
X154598244Y-47934600D01*
X154598244Y-47934600D02*
X154731577Y-48006028D01*
X154731577Y-48006028D02*
X154998244Y-48006028D01*
X154998244Y-48006028D02*
X155131577Y-47934600D01*
X155131577Y-47934600D02*
X155198244Y-47863171D01*
X155198244Y-47863171D02*
X155264910Y-47720314D01*
X155264910Y-47720314D02*
X155264910Y-47434600D01*
X155264910Y-47434600D02*
X155198244Y-47291742D01*
X155198244Y-47291742D02*
X155131577Y-47220314D01*
X155131577Y-47220314D02*
X154998244Y-47148885D01*
X156531577Y-46506028D02*
X155864910Y-46506028D01*
X155864910Y-46506028D02*
X155798243Y-47220314D01*
X155798243Y-47220314D02*
X155864910Y-47148885D01*
X155864910Y-47148885D02*
X155998243Y-47077457D01*
X155998243Y-47077457D02*
X156331577Y-47077457D01*
X156331577Y-47077457D02*
X156464910Y-47148885D01*
X156464910Y-47148885D02*
X156531577Y-47220314D01*
X156531577Y-47220314D02*
X156598243Y-47363171D01*
X156598243Y-47363171D02*
X156598243Y-47720314D01*
X156598243Y-47720314D02*
X156531577Y-47863171D01*
X156531577Y-47863171D02*
X156464910Y-47934600D01*
X156464910Y-47934600D02*
X156331577Y-48006028D01*
X156331577Y-48006028D02*
X155998243Y-48006028D01*
X155998243Y-48006028D02*
X155864910Y-47934600D01*
X155864910Y-47934600D02*
X155798243Y-47863171D01*
D11*
X106289160Y-51622200D02*
X106432017Y-51669819D01*
X106432017Y-51669819D02*
X106670112Y-51669819D01*
X106670112Y-51669819D02*
X106765350Y-51622200D01*
X106765350Y-51622200D02*
X106812969Y-51574580D01*
X106812969Y-51574580D02*
X106860588Y-51479342D01*
X106860588Y-51479342D02*
X106860588Y-51384104D01*
X106860588Y-51384104D02*
X106812969Y-51288866D01*
X106812969Y-51288866D02*
X106765350Y-51241247D01*
X106765350Y-51241247D02*
X106670112Y-51193628D01*
X106670112Y-51193628D02*
X106479636Y-51146009D01*
X106479636Y-51146009D02*
X106384398Y-51098390D01*
X106384398Y-51098390D02*
X106336779Y-51050771D01*
X106336779Y-51050771D02*
X106289160Y-50955533D01*
X106289160Y-50955533D02*
X106289160Y-50860295D01*
X106289160Y-50860295D02*
X106336779Y-50765057D01*
X106336779Y-50765057D02*
X106384398Y-50717438D01*
X106384398Y-50717438D02*
X106479636Y-50669819D01*
X106479636Y-50669819D02*
X106717731Y-50669819D01*
X106717731Y-50669819D02*
X106860588Y-50717438D01*
X107146303Y-51003152D02*
X107527255Y-51003152D01*
X107289160Y-50669819D02*
X107289160Y-51526961D01*
X107289160Y-51526961D02*
X107336779Y-51622200D01*
X107336779Y-51622200D02*
X107432017Y-51669819D01*
X107432017Y-51669819D02*
X107527255Y-51669819D01*
X108241541Y-51622200D02*
X108146303Y-51669819D01*
X108146303Y-51669819D02*
X107955827Y-51669819D01*
X107955827Y-51669819D02*
X107860589Y-51622200D01*
X107860589Y-51622200D02*
X107812970Y-51526961D01*
X107812970Y-51526961D02*
X107812970Y-51146009D01*
X107812970Y-51146009D02*
X107860589Y-51050771D01*
X107860589Y-51050771D02*
X107955827Y-51003152D01*
X107955827Y-51003152D02*
X108146303Y-51003152D01*
X108146303Y-51003152D02*
X108241541Y-51050771D01*
X108241541Y-51050771D02*
X108289160Y-51146009D01*
X108289160Y-51146009D02*
X108289160Y-51241247D01*
X108289160Y-51241247D02*
X107812970Y-51336485D01*
X108717732Y-51003152D02*
X108717732Y-52003152D01*
X108717732Y-51050771D02*
X108812970Y-51003152D01*
X108812970Y-51003152D02*
X109003446Y-51003152D01*
X109003446Y-51003152D02*
X109098684Y-51050771D01*
X109098684Y-51050771D02*
X109146303Y-51098390D01*
X109146303Y-51098390D02*
X109193922Y-51193628D01*
X109193922Y-51193628D02*
X109193922Y-51479342D01*
X109193922Y-51479342D02*
X109146303Y-51574580D01*
X109146303Y-51574580D02*
X109098684Y-51622200D01*
X109098684Y-51622200D02*
X109003446Y-51669819D01*
X109003446Y-51669819D02*
X108812970Y-51669819D01*
X108812970Y-51669819D02*
X108717732Y-51622200D01*
X109622494Y-51003152D02*
X109622494Y-52003152D01*
X109622494Y-51050771D02*
X109717732Y-51003152D01*
X109717732Y-51003152D02*
X109908208Y-51003152D01*
X109908208Y-51003152D02*
X110003446Y-51050771D01*
X110003446Y-51050771D02*
X110051065Y-51098390D01*
X110051065Y-51098390D02*
X110098684Y-51193628D01*
X110098684Y-51193628D02*
X110098684Y-51479342D01*
X110098684Y-51479342D02*
X110051065Y-51574580D01*
X110051065Y-51574580D02*
X110003446Y-51622200D01*
X110003446Y-51622200D02*
X109908208Y-51669819D01*
X109908208Y-51669819D02*
X109717732Y-51669819D01*
X109717732Y-51669819D02*
X109622494Y-51622200D01*
X110908208Y-51622200D02*
X110812970Y-51669819D01*
X110812970Y-51669819D02*
X110622494Y-51669819D01*
X110622494Y-51669819D02*
X110527256Y-51622200D01*
X110527256Y-51622200D02*
X110479637Y-51526961D01*
X110479637Y-51526961D02*
X110479637Y-51146009D01*
X110479637Y-51146009D02*
X110527256Y-51050771D01*
X110527256Y-51050771D02*
X110622494Y-51003152D01*
X110622494Y-51003152D02*
X110812970Y-51003152D01*
X110812970Y-51003152D02*
X110908208Y-51050771D01*
X110908208Y-51050771D02*
X110955827Y-51146009D01*
X110955827Y-51146009D02*
X110955827Y-51241247D01*
X110955827Y-51241247D02*
X110479637Y-51336485D01*
X111384399Y-51669819D02*
X111384399Y-51003152D01*
X111384399Y-51193628D02*
X111432018Y-51098390D01*
X111432018Y-51098390D02*
X111479637Y-51050771D01*
X111479637Y-51050771D02*
X111574875Y-51003152D01*
X111574875Y-51003152D02*
X111670113Y-51003152D01*
X113289161Y-51669819D02*
X112717733Y-51669819D01*
X113003447Y-51669819D02*
X113003447Y-50669819D01*
X113003447Y-50669819D02*
X112908209Y-50812676D01*
X112908209Y-50812676D02*
X112812971Y-50907914D01*
X112812971Y-50907914D02*
X112717733Y-50955533D01*
X130089160Y-73822200D02*
X130232017Y-73869819D01*
X130232017Y-73869819D02*
X130470112Y-73869819D01*
X130470112Y-73869819D02*
X130565350Y-73822200D01*
X130565350Y-73822200D02*
X130612969Y-73774580D01*
X130612969Y-73774580D02*
X130660588Y-73679342D01*
X130660588Y-73679342D02*
X130660588Y-73584104D01*
X130660588Y-73584104D02*
X130612969Y-73488866D01*
X130612969Y-73488866D02*
X130565350Y-73441247D01*
X130565350Y-73441247D02*
X130470112Y-73393628D01*
X130470112Y-73393628D02*
X130279636Y-73346009D01*
X130279636Y-73346009D02*
X130184398Y-73298390D01*
X130184398Y-73298390D02*
X130136779Y-73250771D01*
X130136779Y-73250771D02*
X130089160Y-73155533D01*
X130089160Y-73155533D02*
X130089160Y-73060295D01*
X130089160Y-73060295D02*
X130136779Y-72965057D01*
X130136779Y-72965057D02*
X130184398Y-72917438D01*
X130184398Y-72917438D02*
X130279636Y-72869819D01*
X130279636Y-72869819D02*
X130517731Y-72869819D01*
X130517731Y-72869819D02*
X130660588Y-72917438D01*
X130946303Y-73203152D02*
X131327255Y-73203152D01*
X131089160Y-72869819D02*
X131089160Y-73726961D01*
X131089160Y-73726961D02*
X131136779Y-73822200D01*
X131136779Y-73822200D02*
X131232017Y-73869819D01*
X131232017Y-73869819D02*
X131327255Y-73869819D01*
X132041541Y-73822200D02*
X131946303Y-73869819D01*
X131946303Y-73869819D02*
X131755827Y-73869819D01*
X131755827Y-73869819D02*
X131660589Y-73822200D01*
X131660589Y-73822200D02*
X131612970Y-73726961D01*
X131612970Y-73726961D02*
X131612970Y-73346009D01*
X131612970Y-73346009D02*
X131660589Y-73250771D01*
X131660589Y-73250771D02*
X131755827Y-73203152D01*
X131755827Y-73203152D02*
X131946303Y-73203152D01*
X131946303Y-73203152D02*
X132041541Y-73250771D01*
X132041541Y-73250771D02*
X132089160Y-73346009D01*
X132089160Y-73346009D02*
X132089160Y-73441247D01*
X132089160Y-73441247D02*
X131612970Y-73536485D01*
X132517732Y-73203152D02*
X132517732Y-74203152D01*
X132517732Y-73250771D02*
X132612970Y-73203152D01*
X132612970Y-73203152D02*
X132803446Y-73203152D01*
X132803446Y-73203152D02*
X132898684Y-73250771D01*
X132898684Y-73250771D02*
X132946303Y-73298390D01*
X132946303Y-73298390D02*
X132993922Y-73393628D01*
X132993922Y-73393628D02*
X132993922Y-73679342D01*
X132993922Y-73679342D02*
X132946303Y-73774580D01*
X132946303Y-73774580D02*
X132898684Y-73822200D01*
X132898684Y-73822200D02*
X132803446Y-73869819D01*
X132803446Y-73869819D02*
X132612970Y-73869819D01*
X132612970Y-73869819D02*
X132517732Y-73822200D01*
X133422494Y-73203152D02*
X133422494Y-74203152D01*
X133422494Y-73250771D02*
X133517732Y-73203152D01*
X133517732Y-73203152D02*
X133708208Y-73203152D01*
X133708208Y-73203152D02*
X133803446Y-73250771D01*
X133803446Y-73250771D02*
X133851065Y-73298390D01*
X133851065Y-73298390D02*
X133898684Y-73393628D01*
X133898684Y-73393628D02*
X133898684Y-73679342D01*
X133898684Y-73679342D02*
X133851065Y-73774580D01*
X133851065Y-73774580D02*
X133803446Y-73822200D01*
X133803446Y-73822200D02*
X133708208Y-73869819D01*
X133708208Y-73869819D02*
X133517732Y-73869819D01*
X133517732Y-73869819D02*
X133422494Y-73822200D01*
X134708208Y-73822200D02*
X134612970Y-73869819D01*
X134612970Y-73869819D02*
X134422494Y-73869819D01*
X134422494Y-73869819D02*
X134327256Y-73822200D01*
X134327256Y-73822200D02*
X134279637Y-73726961D01*
X134279637Y-73726961D02*
X134279637Y-73346009D01*
X134279637Y-73346009D02*
X134327256Y-73250771D01*
X134327256Y-73250771D02*
X134422494Y-73203152D01*
X134422494Y-73203152D02*
X134612970Y-73203152D01*
X134612970Y-73203152D02*
X134708208Y-73250771D01*
X134708208Y-73250771D02*
X134755827Y-73346009D01*
X134755827Y-73346009D02*
X134755827Y-73441247D01*
X134755827Y-73441247D02*
X134279637Y-73536485D01*
X135184399Y-73869819D02*
X135184399Y-73203152D01*
X135184399Y-73393628D02*
X135232018Y-73298390D01*
X135232018Y-73298390D02*
X135279637Y-73250771D01*
X135279637Y-73250771D02*
X135374875Y-73203152D01*
X135374875Y-73203152D02*
X135470113Y-73203152D01*
X136993923Y-73203152D02*
X136993923Y-73869819D01*
X136755828Y-72822200D02*
X136517733Y-73536485D01*
X136517733Y-73536485D02*
X137136780Y-73536485D01*
X130089160Y-51622200D02*
X130232017Y-51669819D01*
X130232017Y-51669819D02*
X130470112Y-51669819D01*
X130470112Y-51669819D02*
X130565350Y-51622200D01*
X130565350Y-51622200D02*
X130612969Y-51574580D01*
X130612969Y-51574580D02*
X130660588Y-51479342D01*
X130660588Y-51479342D02*
X130660588Y-51384104D01*
X130660588Y-51384104D02*
X130612969Y-51288866D01*
X130612969Y-51288866D02*
X130565350Y-51241247D01*
X130565350Y-51241247D02*
X130470112Y-51193628D01*
X130470112Y-51193628D02*
X130279636Y-51146009D01*
X130279636Y-51146009D02*
X130184398Y-51098390D01*
X130184398Y-51098390D02*
X130136779Y-51050771D01*
X130136779Y-51050771D02*
X130089160Y-50955533D01*
X130089160Y-50955533D02*
X130089160Y-50860295D01*
X130089160Y-50860295D02*
X130136779Y-50765057D01*
X130136779Y-50765057D02*
X130184398Y-50717438D01*
X130184398Y-50717438D02*
X130279636Y-50669819D01*
X130279636Y-50669819D02*
X130517731Y-50669819D01*
X130517731Y-50669819D02*
X130660588Y-50717438D01*
X130946303Y-51003152D02*
X131327255Y-51003152D01*
X131089160Y-50669819D02*
X131089160Y-51526961D01*
X131089160Y-51526961D02*
X131136779Y-51622200D01*
X131136779Y-51622200D02*
X131232017Y-51669819D01*
X131232017Y-51669819D02*
X131327255Y-51669819D01*
X132041541Y-51622200D02*
X131946303Y-51669819D01*
X131946303Y-51669819D02*
X131755827Y-51669819D01*
X131755827Y-51669819D02*
X131660589Y-51622200D01*
X131660589Y-51622200D02*
X131612970Y-51526961D01*
X131612970Y-51526961D02*
X131612970Y-51146009D01*
X131612970Y-51146009D02*
X131660589Y-51050771D01*
X131660589Y-51050771D02*
X131755827Y-51003152D01*
X131755827Y-51003152D02*
X131946303Y-51003152D01*
X131946303Y-51003152D02*
X132041541Y-51050771D01*
X132041541Y-51050771D02*
X132089160Y-51146009D01*
X132089160Y-51146009D02*
X132089160Y-51241247D01*
X132089160Y-51241247D02*
X131612970Y-51336485D01*
X132517732Y-51003152D02*
X132517732Y-52003152D01*
X132517732Y-51050771D02*
X132612970Y-51003152D01*
X132612970Y-51003152D02*
X132803446Y-51003152D01*
X132803446Y-51003152D02*
X132898684Y-51050771D01*
X132898684Y-51050771D02*
X132946303Y-51098390D01*
X132946303Y-51098390D02*
X132993922Y-51193628D01*
X132993922Y-51193628D02*
X132993922Y-51479342D01*
X132993922Y-51479342D02*
X132946303Y-51574580D01*
X132946303Y-51574580D02*
X132898684Y-51622200D01*
X132898684Y-51622200D02*
X132803446Y-51669819D01*
X132803446Y-51669819D02*
X132612970Y-51669819D01*
X132612970Y-51669819D02*
X132517732Y-51622200D01*
X133422494Y-51003152D02*
X133422494Y-52003152D01*
X133422494Y-51050771D02*
X133517732Y-51003152D01*
X133517732Y-51003152D02*
X133708208Y-51003152D01*
X133708208Y-51003152D02*
X133803446Y-51050771D01*
X133803446Y-51050771D02*
X133851065Y-51098390D01*
X133851065Y-51098390D02*
X133898684Y-51193628D01*
X133898684Y-51193628D02*
X133898684Y-51479342D01*
X133898684Y-51479342D02*
X133851065Y-51574580D01*
X133851065Y-51574580D02*
X133803446Y-51622200D01*
X133803446Y-51622200D02*
X133708208Y-51669819D01*
X133708208Y-51669819D02*
X133517732Y-51669819D01*
X133517732Y-51669819D02*
X133422494Y-51622200D01*
X134708208Y-51622200D02*
X134612970Y-51669819D01*
X134612970Y-51669819D02*
X134422494Y-51669819D01*
X134422494Y-51669819D02*
X134327256Y-51622200D01*
X134327256Y-51622200D02*
X134279637Y-51526961D01*
X134279637Y-51526961D02*
X134279637Y-51146009D01*
X134279637Y-51146009D02*
X134327256Y-51050771D01*
X134327256Y-51050771D02*
X134422494Y-51003152D01*
X134422494Y-51003152D02*
X134612970Y-51003152D01*
X134612970Y-51003152D02*
X134708208Y-51050771D01*
X134708208Y-51050771D02*
X134755827Y-51146009D01*
X134755827Y-51146009D02*
X134755827Y-51241247D01*
X134755827Y-51241247D02*
X134279637Y-51336485D01*
X135184399Y-51669819D02*
X135184399Y-51003152D01*
X135184399Y-51193628D02*
X135232018Y-51098390D01*
X135232018Y-51098390D02*
X135279637Y-51050771D01*
X135279637Y-51050771D02*
X135374875Y-51003152D01*
X135374875Y-51003152D02*
X135470113Y-51003152D01*
X136517733Y-50765057D02*
X136565352Y-50717438D01*
X136565352Y-50717438D02*
X136660590Y-50669819D01*
X136660590Y-50669819D02*
X136898685Y-50669819D01*
X136898685Y-50669819D02*
X136993923Y-50717438D01*
X136993923Y-50717438D02*
X137041542Y-50765057D01*
X137041542Y-50765057D02*
X137089161Y-50860295D01*
X137089161Y-50860295D02*
X137089161Y-50955533D01*
X137089161Y-50955533D02*
X137041542Y-51098390D01*
X137041542Y-51098390D02*
X136470114Y-51669819D01*
X136470114Y-51669819D02*
X137089161Y-51669819D01*
D12*
X147664911Y-93420314D02*
X148131578Y-93420314D01*
X148331578Y-94206028D02*
X147664911Y-94206028D01*
X147664911Y-94206028D02*
X147664911Y-92706028D01*
X147664911Y-92706028D02*
X148331578Y-92706028D01*
X148931578Y-93206028D02*
X148931578Y-94206028D01*
X148931578Y-93348885D02*
X148998245Y-93277457D01*
X148998245Y-93277457D02*
X149131578Y-93206028D01*
X149131578Y-93206028D02*
X149331578Y-93206028D01*
X149331578Y-93206028D02*
X149464911Y-93277457D01*
X149464911Y-93277457D02*
X149531578Y-93420314D01*
X149531578Y-93420314D02*
X149531578Y-94206028D01*
X150798245Y-94206028D02*
X150798245Y-92706028D01*
X150798245Y-94134600D02*
X150664912Y-94206028D01*
X150664912Y-94206028D02*
X150398245Y-94206028D01*
X150398245Y-94206028D02*
X150264912Y-94134600D01*
X150264912Y-94134600D02*
X150198245Y-94063171D01*
X150198245Y-94063171D02*
X150131578Y-93920314D01*
X150131578Y-93920314D02*
X150131578Y-93491742D01*
X150131578Y-93491742D02*
X150198245Y-93348885D01*
X150198245Y-93348885D02*
X150264912Y-93277457D01*
X150264912Y-93277457D02*
X150398245Y-93206028D01*
X150398245Y-93206028D02*
X150664912Y-93206028D01*
X150664912Y-93206028D02*
X150798245Y-93277457D01*
X151398245Y-94134600D02*
X151531579Y-94206028D01*
X151531579Y-94206028D02*
X151798245Y-94206028D01*
X151798245Y-94206028D02*
X151931579Y-94134600D01*
X151931579Y-94134600D02*
X151998245Y-93991742D01*
X151998245Y-93991742D02*
X151998245Y-93920314D01*
X151998245Y-93920314D02*
X151931579Y-93777457D01*
X151931579Y-93777457D02*
X151798245Y-93706028D01*
X151798245Y-93706028D02*
X151598245Y-93706028D01*
X151598245Y-93706028D02*
X151464912Y-93634600D01*
X151464912Y-93634600D02*
X151398245Y-93491742D01*
X151398245Y-93491742D02*
X151398245Y-93420314D01*
X151398245Y-93420314D02*
X151464912Y-93277457D01*
X151464912Y-93277457D02*
X151598245Y-93206028D01*
X151598245Y-93206028D02*
X151798245Y-93206028D01*
X151798245Y-93206028D02*
X151931579Y-93277457D01*
X153198245Y-94134600D02*
X153064912Y-94206028D01*
X153064912Y-94206028D02*
X152798245Y-94206028D01*
X152798245Y-94206028D02*
X152664912Y-94134600D01*
X152664912Y-94134600D02*
X152598245Y-94063171D01*
X152598245Y-94063171D02*
X152531578Y-93920314D01*
X152531578Y-93920314D02*
X152531578Y-93491742D01*
X152531578Y-93491742D02*
X152598245Y-93348885D01*
X152598245Y-93348885D02*
X152664912Y-93277457D01*
X152664912Y-93277457D02*
X152798245Y-93206028D01*
X152798245Y-93206028D02*
X153064912Y-93206028D01*
X153064912Y-93206028D02*
X153198245Y-93277457D01*
X153798245Y-94206028D02*
X153798245Y-92706028D01*
X154398245Y-94206028D02*
X154398245Y-93420314D01*
X154398245Y-93420314D02*
X154331578Y-93277457D01*
X154331578Y-93277457D02*
X154198245Y-93206028D01*
X154198245Y-93206028D02*
X153998245Y-93206028D01*
X153998245Y-93206028D02*
X153864912Y-93277457D01*
X153864912Y-93277457D02*
X153798245Y-93348885D01*
X155664912Y-94206028D02*
X155664912Y-93420314D01*
X155664912Y-93420314D02*
X155598245Y-93277457D01*
X155598245Y-93277457D02*
X155464912Y-93206028D01*
X155464912Y-93206028D02*
X155198245Y-93206028D01*
X155198245Y-93206028D02*
X155064912Y-93277457D01*
X155664912Y-94134600D02*
X155531579Y-94206028D01*
X155531579Y-94206028D02*
X155198245Y-94206028D01*
X155198245Y-94206028D02*
X155064912Y-94134600D01*
X155064912Y-94134600D02*
X154998245Y-93991742D01*
X154998245Y-93991742D02*
X154998245Y-93848885D01*
X154998245Y-93848885D02*
X155064912Y-93706028D01*
X155064912Y-93706028D02*
X155198245Y-93634600D01*
X155198245Y-93634600D02*
X155531579Y-93634600D01*
X155531579Y-93634600D02*
X155664912Y-93563171D01*
X156531579Y-94206028D02*
X156398246Y-94134600D01*
X156398246Y-94134600D02*
X156331579Y-93991742D01*
X156331579Y-93991742D02*
X156331579Y-92706028D01*
X156864912Y-93206028D02*
X157398245Y-93206028D01*
X157064912Y-92706028D02*
X157064912Y-93991742D01*
X157064912Y-93991742D02*
X157131579Y-94134600D01*
X157131579Y-94134600D02*
X157264912Y-94206028D01*
X157264912Y-94206028D02*
X157398245Y-94206028D01*
X158398245Y-94134600D02*
X158264912Y-94206028D01*
X158264912Y-94206028D02*
X157998245Y-94206028D01*
X157998245Y-94206028D02*
X157864912Y-94134600D01*
X157864912Y-94134600D02*
X157798245Y-93991742D01*
X157798245Y-93991742D02*
X157798245Y-93420314D01*
X157798245Y-93420314D02*
X157864912Y-93277457D01*
X157864912Y-93277457D02*
X157998245Y-93206028D01*
X157998245Y-93206028D02*
X158264912Y-93206028D01*
X158264912Y-93206028D02*
X158398245Y-93277457D01*
X158398245Y-93277457D02*
X158464912Y-93420314D01*
X158464912Y-93420314D02*
X158464912Y-93563171D01*
X158464912Y-93563171D02*
X157798245Y-93706028D01*
X159064912Y-94206028D02*
X159064912Y-93206028D01*
X159064912Y-93491742D02*
X159131579Y-93348885D01*
X159131579Y-93348885D02*
X159198245Y-93277457D01*
X159198245Y-93277457D02*
X159331579Y-93206028D01*
X159331579Y-93206028D02*
X159464912Y-93206028D01*
D11*
X146966666Y-50654819D02*
X146966666Y-51369104D01*
X146966666Y-51369104D02*
X146919047Y-51511961D01*
X146919047Y-51511961D02*
X146823809Y-51607200D01*
X146823809Y-51607200D02*
X146680952Y-51654819D01*
X146680952Y-51654819D02*
X146585714Y-51654819D01*
X147442857Y-51654819D02*
X147442857Y-50654819D01*
X147442857Y-50654819D02*
X147823809Y-50654819D01*
X147823809Y-50654819D02*
X147919047Y-50702438D01*
X147919047Y-50702438D02*
X147966666Y-50750057D01*
X147966666Y-50750057D02*
X148014285Y-50845295D01*
X148014285Y-50845295D02*
X148014285Y-50988152D01*
X148014285Y-50988152D02*
X147966666Y-51083390D01*
X147966666Y-51083390D02*
X147919047Y-51131009D01*
X147919047Y-51131009D02*
X147823809Y-51178628D01*
X147823809Y-51178628D02*
X147442857Y-51178628D01*
X148966666Y-51654819D02*
X148395238Y-51654819D01*
X148680952Y-51654819D02*
X148680952Y-50654819D01*
X148680952Y-50654819D02*
X148585714Y-50797676D01*
X148585714Y-50797676D02*
X148490476Y-50892914D01*
X148490476Y-50892914D02*
X148395238Y-50940533D01*
X144333333Y-55254819D02*
X144000000Y-54778628D01*
X143761905Y-55254819D02*
X143761905Y-54254819D01*
X143761905Y-54254819D02*
X144142857Y-54254819D01*
X144142857Y-54254819D02*
X144238095Y-54302438D01*
X144238095Y-54302438D02*
X144285714Y-54350057D01*
X144285714Y-54350057D02*
X144333333Y-54445295D01*
X144333333Y-54445295D02*
X144333333Y-54588152D01*
X144333333Y-54588152D02*
X144285714Y-54683390D01*
X144285714Y-54683390D02*
X144238095Y-54731009D01*
X144238095Y-54731009D02*
X144142857Y-54778628D01*
X144142857Y-54778628D02*
X143761905Y-54778628D01*
X145190476Y-54588152D02*
X145190476Y-55254819D01*
X144952381Y-54207200D02*
X144714286Y-54921485D01*
X144714286Y-54921485D02*
X145333333Y-54921485D01*
X99410714Y-51569104D02*
X99886904Y-51569104D01*
X99315476Y-51854819D02*
X99648809Y-50854819D01*
X99648809Y-50854819D02*
X99982142Y-51854819D01*
X100267857Y-50950057D02*
X100315476Y-50902438D01*
X100315476Y-50902438D02*
X100410714Y-50854819D01*
X100410714Y-50854819D02*
X100648809Y-50854819D01*
X100648809Y-50854819D02*
X100744047Y-50902438D01*
X100744047Y-50902438D02*
X100791666Y-50950057D01*
X100791666Y-50950057D02*
X100839285Y-51045295D01*
X100839285Y-51045295D02*
X100839285Y-51140533D01*
X100839285Y-51140533D02*
X100791666Y-51283390D01*
X100791666Y-51283390D02*
X100220238Y-51854819D01*
X100220238Y-51854819D02*
X100839285Y-51854819D01*
X140304819Y-55166666D02*
X139828628Y-55499999D01*
X140304819Y-55738094D02*
X139304819Y-55738094D01*
X139304819Y-55738094D02*
X139304819Y-55357142D01*
X139304819Y-55357142D02*
X139352438Y-55261904D01*
X139352438Y-55261904D02*
X139400057Y-55214285D01*
X139400057Y-55214285D02*
X139495295Y-55166666D01*
X139495295Y-55166666D02*
X139638152Y-55166666D01*
X139638152Y-55166666D02*
X139733390Y-55214285D01*
X139733390Y-55214285D02*
X139781009Y-55261904D01*
X139781009Y-55261904D02*
X139828628Y-55357142D01*
X139828628Y-55357142D02*
X139828628Y-55738094D01*
X139400057Y-54785713D02*
X139352438Y-54738094D01*
X139352438Y-54738094D02*
X139304819Y-54642856D01*
X139304819Y-54642856D02*
X139304819Y-54404761D01*
X139304819Y-54404761D02*
X139352438Y-54309523D01*
X139352438Y-54309523D02*
X139400057Y-54261904D01*
X139400057Y-54261904D02*
X139495295Y-54214285D01*
X139495295Y-54214285D02*
X139590533Y-54214285D01*
X139590533Y-54214285D02*
X139733390Y-54261904D01*
X139733390Y-54261904D02*
X140304819Y-54833332D01*
X140304819Y-54833332D02*
X140304819Y-54214285D01*
D13*
X90666390Y-83095238D02*
X90618771Y-83238095D01*
X90618771Y-83238095D02*
X90571152Y-83285714D01*
X90571152Y-83285714D02*
X90475914Y-83333333D01*
X90475914Y-83333333D02*
X90333057Y-83333333D01*
X90333057Y-83333333D02*
X90237819Y-83285714D01*
X90237819Y-83285714D02*
X90190200Y-83238095D01*
X90190200Y-83238095D02*
X90142580Y-83142857D01*
X90142580Y-83142857D02*
X90142580Y-82761905D01*
X90142580Y-82761905D02*
X91142580Y-82761905D01*
X91142580Y-82761905D02*
X91142580Y-83095238D01*
X91142580Y-83095238D02*
X91094961Y-83190476D01*
X91094961Y-83190476D02*
X91047342Y-83238095D01*
X91047342Y-83238095D02*
X90952104Y-83285714D01*
X90952104Y-83285714D02*
X90856866Y-83285714D01*
X90856866Y-83285714D02*
X90761628Y-83238095D01*
X90761628Y-83238095D02*
X90714009Y-83190476D01*
X90714009Y-83190476D02*
X90666390Y-83095238D01*
X90666390Y-83095238D02*
X90666390Y-82761905D01*
X90237819Y-84333333D02*
X90190200Y-84285714D01*
X90190200Y-84285714D02*
X90142580Y-84142857D01*
X90142580Y-84142857D02*
X90142580Y-84047619D01*
X90142580Y-84047619D02*
X90190200Y-83904762D01*
X90190200Y-83904762D02*
X90285438Y-83809524D01*
X90285438Y-83809524D02*
X90380676Y-83761905D01*
X90380676Y-83761905D02*
X90571152Y-83714286D01*
X90571152Y-83714286D02*
X90714009Y-83714286D01*
X90714009Y-83714286D02*
X90904485Y-83761905D01*
X90904485Y-83761905D02*
X90999723Y-83809524D01*
X90999723Y-83809524D02*
X91094961Y-83904762D01*
X91094961Y-83904762D02*
X91142580Y-84047619D01*
X91142580Y-84047619D02*
X91142580Y-84142857D01*
X91142580Y-84142857D02*
X91094961Y-84285714D01*
X91094961Y-84285714D02*
X91047342Y-84333333D01*
X90142580Y-85285714D02*
X90142580Y-84714286D01*
X90142580Y-85000000D02*
X91142580Y-85000000D01*
X91142580Y-85000000D02*
X90999723Y-84904762D01*
X90999723Y-84904762D02*
X90904485Y-84809524D01*
X90904485Y-84809524D02*
X90856866Y-84714286D01*
X88151390Y-94303884D02*
X88151390Y-94637217D01*
X87627580Y-94780074D02*
X87627580Y-94303884D01*
X87627580Y-94303884D02*
X88627580Y-94303884D01*
X88627580Y-94303884D02*
X88627580Y-94780074D01*
X87627580Y-95208646D02*
X88627580Y-95208646D01*
X88627580Y-95208646D02*
X87627580Y-95780074D01*
X87627580Y-95780074D02*
X88627580Y-95780074D01*
X84913295Y-92256265D02*
X84913295Y-92732455D01*
X84627580Y-92161027D02*
X85627580Y-92494360D01*
X85627580Y-92494360D02*
X84627580Y-92827693D01*
X85579961Y-93684836D02*
X85627580Y-93589598D01*
X85627580Y-93589598D02*
X85627580Y-93446741D01*
X85627580Y-93446741D02*
X85579961Y-93303884D01*
X85579961Y-93303884D02*
X85484723Y-93208646D01*
X85484723Y-93208646D02*
X85389485Y-93161027D01*
X85389485Y-93161027D02*
X85199009Y-93113408D01*
X85199009Y-93113408D02*
X85056152Y-93113408D01*
X85056152Y-93113408D02*
X84865676Y-93161027D01*
X84865676Y-93161027D02*
X84770438Y-93208646D01*
X84770438Y-93208646D02*
X84675200Y-93303884D01*
X84675200Y-93303884D02*
X84627580Y-93446741D01*
X84627580Y-93446741D02*
X84627580Y-93541979D01*
X84627580Y-93541979D02*
X84675200Y-93684836D01*
X84675200Y-93684836D02*
X84722819Y-93732455D01*
X84722819Y-93732455D02*
X85056152Y-93732455D01*
X85056152Y-93732455D02*
X85056152Y-93541979D01*
X84627580Y-94161027D02*
X85627580Y-94161027D01*
X85627580Y-94161027D02*
X84627580Y-94732455D01*
X84627580Y-94732455D02*
X85627580Y-94732455D01*
X84627580Y-95208646D02*
X85627580Y-95208646D01*
X85627580Y-95208646D02*
X85627580Y-95446741D01*
X85627580Y-95446741D02*
X85579961Y-95589598D01*
X85579961Y-95589598D02*
X85484723Y-95684836D01*
X85484723Y-95684836D02*
X85389485Y-95732455D01*
X85389485Y-95732455D02*
X85199009Y-95780074D01*
X85199009Y-95780074D02*
X85056152Y-95780074D01*
X85056152Y-95780074D02*
X84865676Y-95732455D01*
X84865676Y-95732455D02*
X84770438Y-95684836D01*
X84770438Y-95684836D02*
X84675200Y-95589598D01*
X84675200Y-95589598D02*
X84627580Y-95446741D01*
X84627580Y-95446741D02*
X84627580Y-95208646D01*
X88627580Y-74303884D02*
X89627580Y-74303884D01*
X89294247Y-74780074D02*
X88627580Y-74780074D01*
X89199009Y-74780074D02*
X89246628Y-74827693D01*
X89246628Y-74827693D02*
X89294247Y-74922931D01*
X89294247Y-74922931D02*
X89294247Y-75065788D01*
X89294247Y-75065788D02*
X89246628Y-75161026D01*
X89246628Y-75161026D02*
X89151390Y-75208645D01*
X89151390Y-75208645D02*
X88627580Y-75208645D01*
X89294247Y-75684836D02*
X88294247Y-75684836D01*
X89246628Y-75684836D02*
X89294247Y-75780074D01*
X89294247Y-75780074D02*
X89294247Y-75970550D01*
X89294247Y-75970550D02*
X89246628Y-76065788D01*
X89246628Y-76065788D02*
X89199009Y-76113407D01*
X89199009Y-76113407D02*
X89103771Y-76161026D01*
X89103771Y-76161026D02*
X88818057Y-76161026D01*
X88818057Y-76161026D02*
X88722819Y-76113407D01*
X88722819Y-76113407D02*
X88675200Y-76065788D01*
X88675200Y-76065788D02*
X88627580Y-75970550D01*
X88627580Y-75970550D02*
X88627580Y-75780074D01*
X88627580Y-75780074D02*
X88675200Y-75684836D01*
X89294247Y-77018169D02*
X88627580Y-77018169D01*
X89294247Y-76589598D02*
X88770438Y-76589598D01*
X88770438Y-76589598D02*
X88675200Y-76637217D01*
X88675200Y-76637217D02*
X88627580Y-76732455D01*
X88627580Y-76732455D02*
X88627580Y-76875312D01*
X88627580Y-76875312D02*
X88675200Y-76970550D01*
X88675200Y-76970550D02*
X88722819Y-77018169D01*
X89294247Y-77351503D02*
X89294247Y-77732455D01*
X89627580Y-77494360D02*
X88770438Y-77494360D01*
X88770438Y-77494360D02*
X88675200Y-77541979D01*
X88675200Y-77541979D02*
X88627580Y-77637217D01*
X88627580Y-77637217D02*
X88627580Y-77732455D01*
X89008533Y-78827694D02*
X89008533Y-79589599D01*
X88627580Y-79208646D02*
X89389485Y-79208646D01*
X69127580Y-73494360D02*
X69127580Y-73684836D01*
X69127580Y-73684836D02*
X69079961Y-73780074D01*
X69079961Y-73780074D02*
X68984723Y-73875312D01*
X68984723Y-73875312D02*
X68794247Y-73922931D01*
X68794247Y-73922931D02*
X68460914Y-73922931D01*
X68460914Y-73922931D02*
X68270438Y-73875312D01*
X68270438Y-73875312D02*
X68175200Y-73780074D01*
X68175200Y-73780074D02*
X68127580Y-73684836D01*
X68127580Y-73684836D02*
X68127580Y-73494360D01*
X68127580Y-73494360D02*
X68175200Y-73399122D01*
X68175200Y-73399122D02*
X68270438Y-73303884D01*
X68270438Y-73303884D02*
X68460914Y-73256265D01*
X68460914Y-73256265D02*
X68794247Y-73256265D01*
X68794247Y-73256265D02*
X68984723Y-73303884D01*
X68984723Y-73303884D02*
X69079961Y-73399122D01*
X69079961Y-73399122D02*
X69127580Y-73494360D01*
X68794247Y-74780074D02*
X68127580Y-74780074D01*
X68794247Y-74351503D02*
X68270438Y-74351503D01*
X68270438Y-74351503D02*
X68175200Y-74399122D01*
X68175200Y-74399122D02*
X68127580Y-74494360D01*
X68127580Y-74494360D02*
X68127580Y-74637217D01*
X68127580Y-74637217D02*
X68175200Y-74732455D01*
X68175200Y-74732455D02*
X68222819Y-74780074D01*
X68794247Y-75113408D02*
X68794247Y-75494360D01*
X69127580Y-75256265D02*
X68270438Y-75256265D01*
X68270438Y-75256265D02*
X68175200Y-75303884D01*
X68175200Y-75303884D02*
X68127580Y-75399122D01*
X68127580Y-75399122D02*
X68127580Y-75494360D01*
X68794247Y-75827694D02*
X67794247Y-75827694D01*
X68746628Y-75827694D02*
X68794247Y-75922932D01*
X68794247Y-75922932D02*
X68794247Y-76113408D01*
X68794247Y-76113408D02*
X68746628Y-76208646D01*
X68746628Y-76208646D02*
X68699009Y-76256265D01*
X68699009Y-76256265D02*
X68603771Y-76303884D01*
X68603771Y-76303884D02*
X68318057Y-76303884D01*
X68318057Y-76303884D02*
X68222819Y-76256265D01*
X68222819Y-76256265D02*
X68175200Y-76208646D01*
X68175200Y-76208646D02*
X68127580Y-76113408D01*
X68127580Y-76113408D02*
X68127580Y-75922932D01*
X68127580Y-75922932D02*
X68175200Y-75827694D01*
X68794247Y-77161027D02*
X68127580Y-77161027D01*
X68794247Y-76732456D02*
X68270438Y-76732456D01*
X68270438Y-76732456D02*
X68175200Y-76780075D01*
X68175200Y-76780075D02*
X68127580Y-76875313D01*
X68127580Y-76875313D02*
X68127580Y-77018170D01*
X68127580Y-77018170D02*
X68175200Y-77113408D01*
X68175200Y-77113408D02*
X68222819Y-77161027D01*
X68794247Y-77494361D02*
X68794247Y-77875313D01*
X69127580Y-77637218D02*
X68270438Y-77637218D01*
X68270438Y-77637218D02*
X68175200Y-77684837D01*
X68175200Y-77684837D02*
X68127580Y-77780075D01*
X68127580Y-77780075D02*
X68127580Y-77875313D01*
X68508533Y-78970552D02*
X68508533Y-79732457D01*
X68127580Y-79351504D02*
X68889485Y-79351504D01*
X81627580Y-91303884D02*
X82627580Y-91303884D01*
X82627580Y-91303884D02*
X82627580Y-91684836D01*
X82627580Y-91684836D02*
X82579961Y-91780074D01*
X82579961Y-91780074D02*
X82532342Y-91827693D01*
X82532342Y-91827693D02*
X82437104Y-91875312D01*
X82437104Y-91875312D02*
X82294247Y-91875312D01*
X82294247Y-91875312D02*
X82199009Y-91827693D01*
X82199009Y-91827693D02*
X82151390Y-91780074D01*
X82151390Y-91780074D02*
X82103771Y-91684836D01*
X82103771Y-91684836D02*
X82103771Y-91303884D01*
X82579961Y-92827693D02*
X82627580Y-92732455D01*
X82627580Y-92732455D02*
X82627580Y-92589598D01*
X82627580Y-92589598D02*
X82579961Y-92446741D01*
X82579961Y-92446741D02*
X82484723Y-92351503D01*
X82484723Y-92351503D02*
X82389485Y-92303884D01*
X82389485Y-92303884D02*
X82199009Y-92256265D01*
X82199009Y-92256265D02*
X82056152Y-92256265D01*
X82056152Y-92256265D02*
X81865676Y-92303884D01*
X81865676Y-92303884D02*
X81770438Y-92351503D01*
X81770438Y-92351503D02*
X81675200Y-92446741D01*
X81675200Y-92446741D02*
X81627580Y-92589598D01*
X81627580Y-92589598D02*
X81627580Y-92684836D01*
X81627580Y-92684836D02*
X81675200Y-92827693D01*
X81675200Y-92827693D02*
X81722819Y-92875312D01*
X81722819Y-92875312D02*
X82056152Y-92875312D01*
X82056152Y-92875312D02*
X82056152Y-92684836D01*
X82627580Y-93494360D02*
X82627580Y-93684836D01*
X82627580Y-93684836D02*
X82579961Y-93780074D01*
X82579961Y-93780074D02*
X82484723Y-93875312D01*
X82484723Y-93875312D02*
X82294247Y-93922931D01*
X82294247Y-93922931D02*
X81960914Y-93922931D01*
X81960914Y-93922931D02*
X81770438Y-93875312D01*
X81770438Y-93875312D02*
X81675200Y-93780074D01*
X81675200Y-93780074D02*
X81627580Y-93684836D01*
X81627580Y-93684836D02*
X81627580Y-93494360D01*
X81627580Y-93494360D02*
X81675200Y-93399122D01*
X81675200Y-93399122D02*
X81770438Y-93303884D01*
X81770438Y-93303884D02*
X81960914Y-93256265D01*
X81960914Y-93256265D02*
X82294247Y-93256265D01*
X82294247Y-93256265D02*
X82484723Y-93303884D01*
X82484723Y-93303884D02*
X82579961Y-93399122D01*
X82579961Y-93399122D02*
X82627580Y-93494360D01*
X82627580Y-94541979D02*
X82627580Y-94732455D01*
X82627580Y-94732455D02*
X82579961Y-94827693D01*
X82579961Y-94827693D02*
X82484723Y-94922931D01*
X82484723Y-94922931D02*
X82294247Y-94970550D01*
X82294247Y-94970550D02*
X81960914Y-94970550D01*
X81960914Y-94970550D02*
X81770438Y-94922931D01*
X81770438Y-94922931D02*
X81675200Y-94827693D01*
X81675200Y-94827693D02*
X81627580Y-94732455D01*
X81627580Y-94732455D02*
X81627580Y-94541979D01*
X81627580Y-94541979D02*
X81675200Y-94446741D01*
X81675200Y-94446741D02*
X81770438Y-94351503D01*
X81770438Y-94351503D02*
X81960914Y-94303884D01*
X81960914Y-94303884D02*
X82294247Y-94303884D01*
X82294247Y-94303884D02*
X82484723Y-94351503D01*
X82484723Y-94351503D02*
X82579961Y-94446741D01*
X82579961Y-94446741D02*
X82627580Y-94541979D01*
X81627580Y-95399122D02*
X82627580Y-95399122D01*
X82627580Y-95399122D02*
X82627580Y-95637217D01*
X82627580Y-95637217D02*
X82579961Y-95780074D01*
X82579961Y-95780074D02*
X82484723Y-95875312D01*
X82484723Y-95875312D02*
X82389485Y-95922931D01*
X82389485Y-95922931D02*
X82199009Y-95970550D01*
X82199009Y-95970550D02*
X82056152Y-95970550D01*
X82056152Y-95970550D02*
X81865676Y-95922931D01*
X81865676Y-95922931D02*
X81770438Y-95875312D01*
X81770438Y-95875312D02*
X81675200Y-95780074D01*
X81675200Y-95780074D02*
X81627580Y-95637217D01*
X81627580Y-95637217D02*
X81627580Y-95399122D01*
X79079961Y-73827693D02*
X79127580Y-73732455D01*
X79127580Y-73732455D02*
X79127580Y-73589598D01*
X79127580Y-73589598D02*
X79079961Y-73446741D01*
X79079961Y-73446741D02*
X78984723Y-73351503D01*
X78984723Y-73351503D02*
X78889485Y-73303884D01*
X78889485Y-73303884D02*
X78699009Y-73256265D01*
X78699009Y-73256265D02*
X78556152Y-73256265D01*
X78556152Y-73256265D02*
X78365676Y-73303884D01*
X78365676Y-73303884D02*
X78270438Y-73351503D01*
X78270438Y-73351503D02*
X78175200Y-73446741D01*
X78175200Y-73446741D02*
X78127580Y-73589598D01*
X78127580Y-73589598D02*
X78127580Y-73684836D01*
X78127580Y-73684836D02*
X78175200Y-73827693D01*
X78175200Y-73827693D02*
X78222819Y-73875312D01*
X78222819Y-73875312D02*
X78556152Y-73875312D01*
X78556152Y-73875312D02*
X78556152Y-73684836D01*
X78127580Y-74303884D02*
X79127580Y-74303884D01*
X79127580Y-74303884D02*
X78127580Y-74875312D01*
X78127580Y-74875312D02*
X79127580Y-74875312D01*
X78127580Y-75351503D02*
X79127580Y-75351503D01*
X79127580Y-75351503D02*
X79127580Y-75589598D01*
X79127580Y-75589598D02*
X79079961Y-75732455D01*
X79079961Y-75732455D02*
X78984723Y-75827693D01*
X78984723Y-75827693D02*
X78889485Y-75875312D01*
X78889485Y-75875312D02*
X78699009Y-75922931D01*
X78699009Y-75922931D02*
X78556152Y-75922931D01*
X78556152Y-75922931D02*
X78365676Y-75875312D01*
X78365676Y-75875312D02*
X78270438Y-75827693D01*
X78270438Y-75827693D02*
X78175200Y-75732455D01*
X78175200Y-75732455D02*
X78127580Y-75589598D01*
X78127580Y-75589598D02*
X78127580Y-75351503D01*
D11*
X102957142Y-51759580D02*
X102909523Y-51807200D01*
X102909523Y-51807200D02*
X102766666Y-51854819D01*
X102766666Y-51854819D02*
X102671428Y-51854819D01*
X102671428Y-51854819D02*
X102528571Y-51807200D01*
X102528571Y-51807200D02*
X102433333Y-51711961D01*
X102433333Y-51711961D02*
X102385714Y-51616723D01*
X102385714Y-51616723D02*
X102338095Y-51426247D01*
X102338095Y-51426247D02*
X102338095Y-51283390D01*
X102338095Y-51283390D02*
X102385714Y-51092914D01*
X102385714Y-51092914D02*
X102433333Y-50997676D01*
X102433333Y-50997676D02*
X102528571Y-50902438D01*
X102528571Y-50902438D02*
X102671428Y-50854819D01*
X102671428Y-50854819D02*
X102766666Y-50854819D01*
X102766666Y-50854819D02*
X102909523Y-50902438D01*
X102909523Y-50902438D02*
X102957142Y-50950057D01*
X103909523Y-51854819D02*
X103338095Y-51854819D01*
X103623809Y-51854819D02*
X103623809Y-50854819D01*
X103623809Y-50854819D02*
X103528571Y-50997676D01*
X103528571Y-50997676D02*
X103433333Y-51092914D01*
X103433333Y-51092914D02*
X103338095Y-51140533D01*
X104528571Y-50854819D02*
X104623809Y-50854819D01*
X104623809Y-50854819D02*
X104719047Y-50902438D01*
X104719047Y-50902438D02*
X104766666Y-50950057D01*
X104766666Y-50950057D02*
X104814285Y-51045295D01*
X104814285Y-51045295D02*
X104861904Y-51235771D01*
X104861904Y-51235771D02*
X104861904Y-51473866D01*
X104861904Y-51473866D02*
X104814285Y-51664342D01*
X104814285Y-51664342D02*
X104766666Y-51759580D01*
X104766666Y-51759580D02*
X104719047Y-51807200D01*
X104719047Y-51807200D02*
X104623809Y-51854819D01*
X104623809Y-51854819D02*
X104528571Y-51854819D01*
X104528571Y-51854819D02*
X104433333Y-51807200D01*
X104433333Y-51807200D02*
X104385714Y-51759580D01*
X104385714Y-51759580D02*
X104338095Y-51664342D01*
X104338095Y-51664342D02*
X104290476Y-51473866D01*
X104290476Y-51473866D02*
X104290476Y-51235771D01*
X104290476Y-51235771D02*
X104338095Y-51045295D01*
X104338095Y-51045295D02*
X104385714Y-50950057D01*
X104385714Y-50950057D02*
X104433333Y-50902438D01*
X104433333Y-50902438D02*
X104528571Y-50854819D01*
X121904819Y-56866666D02*
X121428628Y-57199999D01*
X121904819Y-57438094D02*
X120904819Y-57438094D01*
X120904819Y-57438094D02*
X120904819Y-57057142D01*
X120904819Y-57057142D02*
X120952438Y-56961904D01*
X120952438Y-56961904D02*
X121000057Y-56914285D01*
X121000057Y-56914285D02*
X121095295Y-56866666D01*
X121095295Y-56866666D02*
X121238152Y-56866666D01*
X121238152Y-56866666D02*
X121333390Y-56914285D01*
X121333390Y-56914285D02*
X121381009Y-56961904D01*
X121381009Y-56961904D02*
X121428628Y-57057142D01*
X121428628Y-57057142D02*
X121428628Y-57438094D01*
X121333390Y-56295237D02*
X121285771Y-56390475D01*
X121285771Y-56390475D02*
X121238152Y-56438094D01*
X121238152Y-56438094D02*
X121142914Y-56485713D01*
X121142914Y-56485713D02*
X121095295Y-56485713D01*
X121095295Y-56485713D02*
X121000057Y-56438094D01*
X121000057Y-56438094D02*
X120952438Y-56390475D01*
X120952438Y-56390475D02*
X120904819Y-56295237D01*
X120904819Y-56295237D02*
X120904819Y-56104761D01*
X120904819Y-56104761D02*
X120952438Y-56009523D01*
X120952438Y-56009523D02*
X121000057Y-55961904D01*
X121000057Y-55961904D02*
X121095295Y-55914285D01*
X121095295Y-55914285D02*
X121142914Y-55914285D01*
X121142914Y-55914285D02*
X121238152Y-55961904D01*
X121238152Y-55961904D02*
X121285771Y-56009523D01*
X121285771Y-56009523D02*
X121333390Y-56104761D01*
X121333390Y-56104761D02*
X121333390Y-56295237D01*
X121333390Y-56295237D02*
X121381009Y-56390475D01*
X121381009Y-56390475D02*
X121428628Y-56438094D01*
X121428628Y-56438094D02*
X121523866Y-56485713D01*
X121523866Y-56485713D02*
X121714342Y-56485713D01*
X121714342Y-56485713D02*
X121809580Y-56438094D01*
X121809580Y-56438094D02*
X121857200Y-56390475D01*
X121857200Y-56390475D02*
X121904819Y-56295237D01*
X121904819Y-56295237D02*
X121904819Y-56104761D01*
X121904819Y-56104761D02*
X121857200Y-56009523D01*
X121857200Y-56009523D02*
X121809580Y-55961904D01*
X121809580Y-55961904D02*
X121714342Y-55914285D01*
X121714342Y-55914285D02*
X121523866Y-55914285D01*
X121523866Y-55914285D02*
X121428628Y-55961904D01*
X121428628Y-55961904D02*
X121381009Y-56009523D01*
X121381009Y-56009523D02*
X121333390Y-56104761D01*
X118174819Y-69763333D02*
X118889104Y-69763333D01*
X118889104Y-69763333D02*
X119031961Y-69810952D01*
X119031961Y-69810952D02*
X119127200Y-69906190D01*
X119127200Y-69906190D02*
X119174819Y-70049047D01*
X119174819Y-70049047D02*
X119174819Y-70144285D01*
X119174819Y-69239523D02*
X119174819Y-69049047D01*
X119174819Y-69049047D02*
X119127200Y-68953809D01*
X119127200Y-68953809D02*
X119079580Y-68906190D01*
X119079580Y-68906190D02*
X118936723Y-68810952D01*
X118936723Y-68810952D02*
X118746247Y-68763333D01*
X118746247Y-68763333D02*
X118365295Y-68763333D01*
X118365295Y-68763333D02*
X118270057Y-68810952D01*
X118270057Y-68810952D02*
X118222438Y-68858571D01*
X118222438Y-68858571D02*
X118174819Y-68953809D01*
X118174819Y-68953809D02*
X118174819Y-69144285D01*
X118174819Y-69144285D02*
X118222438Y-69239523D01*
X118222438Y-69239523D02*
X118270057Y-69287142D01*
X118270057Y-69287142D02*
X118365295Y-69334761D01*
X118365295Y-69334761D02*
X118603390Y-69334761D01*
X118603390Y-69334761D02*
X118698628Y-69287142D01*
X118698628Y-69287142D02*
X118746247Y-69239523D01*
X118746247Y-69239523D02*
X118793866Y-69144285D01*
X118793866Y-69144285D02*
X118793866Y-68953809D01*
X118793866Y-68953809D02*
X118746247Y-68858571D01*
X118746247Y-68858571D02*
X118698628Y-68810952D01*
X118698628Y-68810952D02*
X118603390Y-68763333D01*
X72266666Y-45454819D02*
X72266666Y-46169104D01*
X72266666Y-46169104D02*
X72219047Y-46311961D01*
X72219047Y-46311961D02*
X72123809Y-46407200D01*
X72123809Y-46407200D02*
X71980952Y-46454819D01*
X71980952Y-46454819D02*
X71885714Y-46454819D01*
X73266666Y-46454819D02*
X72695238Y-46454819D01*
X72980952Y-46454819D02*
X72980952Y-45454819D01*
X72980952Y-45454819D02*
X72885714Y-45597676D01*
X72885714Y-45597676D02*
X72790476Y-45692914D01*
X72790476Y-45692914D02*
X72695238Y-45740533D01*
X148454819Y-49933333D02*
X149169104Y-49933333D01*
X149169104Y-49933333D02*
X149311961Y-49980952D01*
X149311961Y-49980952D02*
X149407200Y-50076190D01*
X149407200Y-50076190D02*
X149454819Y-50219047D01*
X149454819Y-50219047D02*
X149454819Y-50314285D01*
X148550057Y-49504761D02*
X148502438Y-49457142D01*
X148502438Y-49457142D02*
X148454819Y-49361904D01*
X148454819Y-49361904D02*
X148454819Y-49123809D01*
X148454819Y-49123809D02*
X148502438Y-49028571D01*
X148502438Y-49028571D02*
X148550057Y-48980952D01*
X148550057Y-48980952D02*
X148645295Y-48933333D01*
X148645295Y-48933333D02*
X148740533Y-48933333D01*
X148740533Y-48933333D02*
X148883390Y-48980952D01*
X148883390Y-48980952D02*
X149454819Y-49552380D01*
X149454819Y-49552380D02*
X149454819Y-48933333D01*
X80461905Y-56254819D02*
X80461905Y-55254819D01*
X80461905Y-55254819D02*
X80700000Y-55254819D01*
X80700000Y-55254819D02*
X80842857Y-55302438D01*
X80842857Y-55302438D02*
X80938095Y-55397676D01*
X80938095Y-55397676D02*
X80985714Y-55492914D01*
X80985714Y-55492914D02*
X81033333Y-55683390D01*
X81033333Y-55683390D02*
X81033333Y-55826247D01*
X81033333Y-55826247D02*
X80985714Y-56016723D01*
X80985714Y-56016723D02*
X80938095Y-56111961D01*
X80938095Y-56111961D02*
X80842857Y-56207200D01*
X80842857Y-56207200D02*
X80700000Y-56254819D01*
X80700000Y-56254819D02*
X80461905Y-56254819D01*
X81366667Y-55254819D02*
X81985714Y-55254819D01*
X81985714Y-55254819D02*
X81652381Y-55635771D01*
X81652381Y-55635771D02*
X81795238Y-55635771D01*
X81795238Y-55635771D02*
X81890476Y-55683390D01*
X81890476Y-55683390D02*
X81938095Y-55731009D01*
X81938095Y-55731009D02*
X81985714Y-55826247D01*
X81985714Y-55826247D02*
X81985714Y-56064342D01*
X81985714Y-56064342D02*
X81938095Y-56159580D01*
X81938095Y-56159580D02*
X81890476Y-56207200D01*
X81890476Y-56207200D02*
X81795238Y-56254819D01*
X81795238Y-56254819D02*
X81509524Y-56254819D01*
X81509524Y-56254819D02*
X81414286Y-56207200D01*
X81414286Y-56207200D02*
X81366667Y-56159580D01*
X123533333Y-58009580D02*
X123485714Y-58057200D01*
X123485714Y-58057200D02*
X123342857Y-58104819D01*
X123342857Y-58104819D02*
X123247619Y-58104819D01*
X123247619Y-58104819D02*
X123104762Y-58057200D01*
X123104762Y-58057200D02*
X123009524Y-57961961D01*
X123009524Y-57961961D02*
X122961905Y-57866723D01*
X122961905Y-57866723D02*
X122914286Y-57676247D01*
X122914286Y-57676247D02*
X122914286Y-57533390D01*
X122914286Y-57533390D02*
X122961905Y-57342914D01*
X122961905Y-57342914D02*
X123009524Y-57247676D01*
X123009524Y-57247676D02*
X123104762Y-57152438D01*
X123104762Y-57152438D02*
X123247619Y-57104819D01*
X123247619Y-57104819D02*
X123342857Y-57104819D01*
X123342857Y-57104819D02*
X123485714Y-57152438D01*
X123485714Y-57152438D02*
X123533333Y-57200057D01*
X123866667Y-57104819D02*
X124485714Y-57104819D01*
X124485714Y-57104819D02*
X124152381Y-57485771D01*
X124152381Y-57485771D02*
X124295238Y-57485771D01*
X124295238Y-57485771D02*
X124390476Y-57533390D01*
X124390476Y-57533390D02*
X124438095Y-57581009D01*
X124438095Y-57581009D02*
X124485714Y-57676247D01*
X124485714Y-57676247D02*
X124485714Y-57914342D01*
X124485714Y-57914342D02*
X124438095Y-58009580D01*
X124438095Y-58009580D02*
X124390476Y-58057200D01*
X124390476Y-58057200D02*
X124295238Y-58104819D01*
X124295238Y-58104819D02*
X124009524Y-58104819D01*
X124009524Y-58104819D02*
X123914286Y-58057200D01*
X123914286Y-58057200D02*
X123866667Y-58009580D01*
X149654819Y-57166666D02*
X149178628Y-57499999D01*
X149654819Y-57738094D02*
X148654819Y-57738094D01*
X148654819Y-57738094D02*
X148654819Y-57357142D01*
X148654819Y-57357142D02*
X148702438Y-57261904D01*
X148702438Y-57261904D02*
X148750057Y-57214285D01*
X148750057Y-57214285D02*
X148845295Y-57166666D01*
X148845295Y-57166666D02*
X148988152Y-57166666D01*
X148988152Y-57166666D02*
X149083390Y-57214285D01*
X149083390Y-57214285D02*
X149131009Y-57261904D01*
X149131009Y-57261904D02*
X149178628Y-57357142D01*
X149178628Y-57357142D02*
X149178628Y-57738094D01*
X149654819Y-56214285D02*
X149654819Y-56785713D01*
X149654819Y-56499999D02*
X148654819Y-56499999D01*
X148654819Y-56499999D02*
X148797676Y-56595237D01*
X148797676Y-56595237D02*
X148892914Y-56690475D01*
X148892914Y-56690475D02*
X148940533Y-56785713D01*
X153666666Y-83029819D02*
X153666666Y-83744104D01*
X153666666Y-83744104D02*
X153619047Y-83886961D01*
X153619047Y-83886961D02*
X153523809Y-83982200D01*
X153523809Y-83982200D02*
X153380952Y-84029819D01*
X153380952Y-84029819D02*
X153285714Y-84029819D01*
X154619047Y-83029819D02*
X154142857Y-83029819D01*
X154142857Y-83029819D02*
X154095238Y-83506009D01*
X154095238Y-83506009D02*
X154142857Y-83458390D01*
X154142857Y-83458390D02*
X154238095Y-83410771D01*
X154238095Y-83410771D02*
X154476190Y-83410771D01*
X154476190Y-83410771D02*
X154571428Y-83458390D01*
X154571428Y-83458390D02*
X154619047Y-83506009D01*
X154619047Y-83506009D02*
X154666666Y-83601247D01*
X154666666Y-83601247D02*
X154666666Y-83839342D01*
X154666666Y-83839342D02*
X154619047Y-83934580D01*
X154619047Y-83934580D02*
X154571428Y-83982200D01*
X154571428Y-83982200D02*
X154476190Y-84029819D01*
X154476190Y-84029819D02*
X154238095Y-84029819D01*
X154238095Y-84029819D02*
X154142857Y-83982200D01*
X154142857Y-83982200D02*
X154095238Y-83934580D01*
X126757142Y-51759580D02*
X126709523Y-51807200D01*
X126709523Y-51807200D02*
X126566666Y-51854819D01*
X126566666Y-51854819D02*
X126471428Y-51854819D01*
X126471428Y-51854819D02*
X126328571Y-51807200D01*
X126328571Y-51807200D02*
X126233333Y-51711961D01*
X126233333Y-51711961D02*
X126185714Y-51616723D01*
X126185714Y-51616723D02*
X126138095Y-51426247D01*
X126138095Y-51426247D02*
X126138095Y-51283390D01*
X126138095Y-51283390D02*
X126185714Y-51092914D01*
X126185714Y-51092914D02*
X126233333Y-50997676D01*
X126233333Y-50997676D02*
X126328571Y-50902438D01*
X126328571Y-50902438D02*
X126471428Y-50854819D01*
X126471428Y-50854819D02*
X126566666Y-50854819D01*
X126566666Y-50854819D02*
X126709523Y-50902438D01*
X126709523Y-50902438D02*
X126757142Y-50950057D01*
X127709523Y-51854819D02*
X127138095Y-51854819D01*
X127423809Y-51854819D02*
X127423809Y-50854819D01*
X127423809Y-50854819D02*
X127328571Y-50997676D01*
X127328571Y-50997676D02*
X127233333Y-51092914D01*
X127233333Y-51092914D02*
X127138095Y-51140533D01*
X128661904Y-51854819D02*
X128090476Y-51854819D01*
X128376190Y-51854819D02*
X128376190Y-50854819D01*
X128376190Y-50854819D02*
X128280952Y-50997676D01*
X128280952Y-50997676D02*
X128185714Y-51092914D01*
X128185714Y-51092914D02*
X128090476Y-51140533D01*
X99410714Y-73569104D02*
X99886904Y-73569104D01*
X99315476Y-73854819D02*
X99648809Y-72854819D01*
X99648809Y-72854819D02*
X99982142Y-73854819D01*
X100744047Y-73188152D02*
X100744047Y-73854819D01*
X100505952Y-72807200D02*
X100267857Y-73521485D01*
X100267857Y-73521485D02*
X100886904Y-73521485D01*
X143638095Y-63654819D02*
X143638095Y-64464342D01*
X143638095Y-64464342D02*
X143685714Y-64559580D01*
X143685714Y-64559580D02*
X143733333Y-64607200D01*
X143733333Y-64607200D02*
X143828571Y-64654819D01*
X143828571Y-64654819D02*
X144019047Y-64654819D01*
X144019047Y-64654819D02*
X144114285Y-64607200D01*
X144114285Y-64607200D02*
X144161904Y-64559580D01*
X144161904Y-64559580D02*
X144209523Y-64464342D01*
X144209523Y-64464342D02*
X144209523Y-63654819D01*
X145209523Y-64654819D02*
X144638095Y-64654819D01*
X144923809Y-64654819D02*
X144923809Y-63654819D01*
X144923809Y-63654819D02*
X144828571Y-63797676D01*
X144828571Y-63797676D02*
X144733333Y-63892914D01*
X144733333Y-63892914D02*
X144638095Y-63940533D01*
X123979580Y-77066666D02*
X124027200Y-77114285D01*
X124027200Y-77114285D02*
X124074819Y-77257142D01*
X124074819Y-77257142D02*
X124074819Y-77352380D01*
X124074819Y-77352380D02*
X124027200Y-77495237D01*
X124027200Y-77495237D02*
X123931961Y-77590475D01*
X123931961Y-77590475D02*
X123836723Y-77638094D01*
X123836723Y-77638094D02*
X123646247Y-77685713D01*
X123646247Y-77685713D02*
X123503390Y-77685713D01*
X123503390Y-77685713D02*
X123312914Y-77638094D01*
X123312914Y-77638094D02*
X123217676Y-77590475D01*
X123217676Y-77590475D02*
X123122438Y-77495237D01*
X123122438Y-77495237D02*
X123074819Y-77352380D01*
X123074819Y-77352380D02*
X123074819Y-77257142D01*
X123074819Y-77257142D02*
X123122438Y-77114285D01*
X123122438Y-77114285D02*
X123170057Y-77066666D01*
X124074819Y-76590475D02*
X124074819Y-76399999D01*
X124074819Y-76399999D02*
X124027200Y-76304761D01*
X124027200Y-76304761D02*
X123979580Y-76257142D01*
X123979580Y-76257142D02*
X123836723Y-76161904D01*
X123836723Y-76161904D02*
X123646247Y-76114285D01*
X123646247Y-76114285D02*
X123265295Y-76114285D01*
X123265295Y-76114285D02*
X123170057Y-76161904D01*
X123170057Y-76161904D02*
X123122438Y-76209523D01*
X123122438Y-76209523D02*
X123074819Y-76304761D01*
X123074819Y-76304761D02*
X123074819Y-76495237D01*
X123074819Y-76495237D02*
X123122438Y-76590475D01*
X123122438Y-76590475D02*
X123170057Y-76638094D01*
X123170057Y-76638094D02*
X123265295Y-76685713D01*
X123265295Y-76685713D02*
X123503390Y-76685713D01*
X123503390Y-76685713D02*
X123598628Y-76638094D01*
X123598628Y-76638094D02*
X123646247Y-76590475D01*
X123646247Y-76590475D02*
X123693866Y-76495237D01*
X123693866Y-76495237D02*
X123693866Y-76304761D01*
X123693866Y-76304761D02*
X123646247Y-76209523D01*
X123646247Y-76209523D02*
X123598628Y-76161904D01*
X123598628Y-76161904D02*
X123503390Y-76114285D01*
X110390476Y-76454819D02*
X110390476Y-77169104D01*
X110390476Y-77169104D02*
X110342857Y-77311961D01*
X110342857Y-77311961D02*
X110247619Y-77407200D01*
X110247619Y-77407200D02*
X110104762Y-77454819D01*
X110104762Y-77454819D02*
X110009524Y-77454819D01*
X111390476Y-77454819D02*
X110819048Y-77454819D01*
X111104762Y-77454819D02*
X111104762Y-76454819D01*
X111104762Y-76454819D02*
X111009524Y-76597676D01*
X111009524Y-76597676D02*
X110914286Y-76692914D01*
X110914286Y-76692914D02*
X110819048Y-76740533D01*
X112247619Y-76788152D02*
X112247619Y-77454819D01*
X112009524Y-76407200D02*
X111771429Y-77121485D01*
X111771429Y-77121485D02*
X112390476Y-77121485D01*
X145654819Y-93166666D02*
X145178628Y-93499999D01*
X145654819Y-93738094D02*
X144654819Y-93738094D01*
X144654819Y-93738094D02*
X144654819Y-93357142D01*
X144654819Y-93357142D02*
X144702438Y-93261904D01*
X144702438Y-93261904D02*
X144750057Y-93214285D01*
X144750057Y-93214285D02*
X144845295Y-93166666D01*
X144845295Y-93166666D02*
X144988152Y-93166666D01*
X144988152Y-93166666D02*
X145083390Y-93214285D01*
X145083390Y-93214285D02*
X145131009Y-93261904D01*
X145131009Y-93261904D02*
X145178628Y-93357142D01*
X145178628Y-93357142D02*
X145178628Y-93738094D01*
X144654819Y-92261904D02*
X144654819Y-92738094D01*
X144654819Y-92738094D02*
X145131009Y-92785713D01*
X145131009Y-92785713D02*
X145083390Y-92738094D01*
X145083390Y-92738094D02*
X145035771Y-92642856D01*
X145035771Y-92642856D02*
X145035771Y-92404761D01*
X145035771Y-92404761D02*
X145083390Y-92309523D01*
X145083390Y-92309523D02*
X145131009Y-92261904D01*
X145131009Y-92261904D02*
X145226247Y-92214285D01*
X145226247Y-92214285D02*
X145464342Y-92214285D01*
X145464342Y-92214285D02*
X145559580Y-92261904D01*
X145559580Y-92261904D02*
X145607200Y-92309523D01*
X145607200Y-92309523D02*
X145654819Y-92404761D01*
X145654819Y-92404761D02*
X145654819Y-92642856D01*
X145654819Y-92642856D02*
X145607200Y-92738094D01*
X145607200Y-92738094D02*
X145559580Y-92785713D01*
X68454819Y-63138094D02*
X67454819Y-63138094D01*
X67454819Y-63138094D02*
X67454819Y-62899999D01*
X67454819Y-62899999D02*
X67502438Y-62757142D01*
X67502438Y-62757142D02*
X67597676Y-62661904D01*
X67597676Y-62661904D02*
X67692914Y-62614285D01*
X67692914Y-62614285D02*
X67883390Y-62566666D01*
X67883390Y-62566666D02*
X68026247Y-62566666D01*
X68026247Y-62566666D02*
X68216723Y-62614285D01*
X68216723Y-62614285D02*
X68311961Y-62661904D01*
X68311961Y-62661904D02*
X68407200Y-62757142D01*
X68407200Y-62757142D02*
X68454819Y-62899999D01*
X68454819Y-62899999D02*
X68454819Y-63138094D01*
X68454819Y-61614285D02*
X68454819Y-62185713D01*
X68454819Y-61899999D02*
X67454819Y-61899999D01*
X67454819Y-61899999D02*
X67597676Y-61995237D01*
X67597676Y-61995237D02*
X67692914Y-62090475D01*
X67692914Y-62090475D02*
X67740533Y-62185713D01*
X133990476Y-76454819D02*
X133990476Y-77169104D01*
X133990476Y-77169104D02*
X133942857Y-77311961D01*
X133942857Y-77311961D02*
X133847619Y-77407200D01*
X133847619Y-77407200D02*
X133704762Y-77454819D01*
X133704762Y-77454819D02*
X133609524Y-77454819D01*
X134990476Y-77454819D02*
X134419048Y-77454819D01*
X134704762Y-77454819D02*
X134704762Y-76454819D01*
X134704762Y-76454819D02*
X134609524Y-76597676D01*
X134609524Y-76597676D02*
X134514286Y-76692914D01*
X134514286Y-76692914D02*
X134419048Y-76740533D01*
X135895238Y-76454819D02*
X135419048Y-76454819D01*
X135419048Y-76454819D02*
X135371429Y-76931009D01*
X135371429Y-76931009D02*
X135419048Y-76883390D01*
X135419048Y-76883390D02*
X135514286Y-76835771D01*
X135514286Y-76835771D02*
X135752381Y-76835771D01*
X135752381Y-76835771D02*
X135847619Y-76883390D01*
X135847619Y-76883390D02*
X135895238Y-76931009D01*
X135895238Y-76931009D02*
X135942857Y-77026247D01*
X135942857Y-77026247D02*
X135942857Y-77264342D01*
X135942857Y-77264342D02*
X135895238Y-77359580D01*
X135895238Y-77359580D02*
X135847619Y-77407200D01*
X135847619Y-77407200D02*
X135752381Y-77454819D01*
X135752381Y-77454819D02*
X135514286Y-77454819D01*
X135514286Y-77454819D02*
X135419048Y-77407200D01*
X135419048Y-77407200D02*
X135371429Y-77359580D01*
X133990476Y-54454819D02*
X133990476Y-55169104D01*
X133990476Y-55169104D02*
X133942857Y-55311961D01*
X133942857Y-55311961D02*
X133847619Y-55407200D01*
X133847619Y-55407200D02*
X133704762Y-55454819D01*
X133704762Y-55454819D02*
X133609524Y-55454819D01*
X134990476Y-55454819D02*
X134419048Y-55454819D01*
X134704762Y-55454819D02*
X134704762Y-54454819D01*
X134704762Y-54454819D02*
X134609524Y-54597676D01*
X134609524Y-54597676D02*
X134514286Y-54692914D01*
X134514286Y-54692914D02*
X134419048Y-54740533D01*
X135323810Y-54454819D02*
X135942857Y-54454819D01*
X135942857Y-54454819D02*
X135609524Y-54835771D01*
X135609524Y-54835771D02*
X135752381Y-54835771D01*
X135752381Y-54835771D02*
X135847619Y-54883390D01*
X135847619Y-54883390D02*
X135895238Y-54931009D01*
X135895238Y-54931009D02*
X135942857Y-55026247D01*
X135942857Y-55026247D02*
X135942857Y-55264342D01*
X135942857Y-55264342D02*
X135895238Y-55359580D01*
X135895238Y-55359580D02*
X135847619Y-55407200D01*
X135847619Y-55407200D02*
X135752381Y-55454819D01*
X135752381Y-55454819D02*
X135466667Y-55454819D01*
X135466667Y-55454819D02*
X135371429Y-55407200D01*
X135371429Y-55407200D02*
X135323810Y-55359580D01*
X98404819Y-78866666D02*
X97928628Y-79199999D01*
X98404819Y-79438094D02*
X97404819Y-79438094D01*
X97404819Y-79438094D02*
X97404819Y-79057142D01*
X97404819Y-79057142D02*
X97452438Y-78961904D01*
X97452438Y-78961904D02*
X97500057Y-78914285D01*
X97500057Y-78914285D02*
X97595295Y-78866666D01*
X97595295Y-78866666D02*
X97738152Y-78866666D01*
X97738152Y-78866666D02*
X97833390Y-78914285D01*
X97833390Y-78914285D02*
X97881009Y-78961904D01*
X97881009Y-78961904D02*
X97928628Y-79057142D01*
X97928628Y-79057142D02*
X97928628Y-79438094D01*
X98404819Y-78390475D02*
X98404819Y-78199999D01*
X98404819Y-78199999D02*
X98357200Y-78104761D01*
X98357200Y-78104761D02*
X98309580Y-78057142D01*
X98309580Y-78057142D02*
X98166723Y-77961904D01*
X98166723Y-77961904D02*
X97976247Y-77914285D01*
X97976247Y-77914285D02*
X97595295Y-77914285D01*
X97595295Y-77914285D02*
X97500057Y-77961904D01*
X97500057Y-77961904D02*
X97452438Y-78009523D01*
X97452438Y-78009523D02*
X97404819Y-78104761D01*
X97404819Y-78104761D02*
X97404819Y-78295237D01*
X97404819Y-78295237D02*
X97452438Y-78390475D01*
X97452438Y-78390475D02*
X97500057Y-78438094D01*
X97500057Y-78438094D02*
X97595295Y-78485713D01*
X97595295Y-78485713D02*
X97833390Y-78485713D01*
X97833390Y-78485713D02*
X97928628Y-78438094D01*
X97928628Y-78438094D02*
X97976247Y-78390475D01*
X97976247Y-78390475D02*
X98023866Y-78295237D01*
X98023866Y-78295237D02*
X98023866Y-78104761D01*
X98023866Y-78104761D02*
X97976247Y-78009523D01*
X97976247Y-78009523D02*
X97928628Y-77961904D01*
X97928628Y-77961904D02*
X97833390Y-77914285D01*
X98404819Y-56866666D02*
X97928628Y-57199999D01*
X98404819Y-57438094D02*
X97404819Y-57438094D01*
X97404819Y-57438094D02*
X97404819Y-57057142D01*
X97404819Y-57057142D02*
X97452438Y-56961904D01*
X97452438Y-56961904D02*
X97500057Y-56914285D01*
X97500057Y-56914285D02*
X97595295Y-56866666D01*
X97595295Y-56866666D02*
X97738152Y-56866666D01*
X97738152Y-56866666D02*
X97833390Y-56914285D01*
X97833390Y-56914285D02*
X97881009Y-56961904D01*
X97881009Y-56961904D02*
X97928628Y-57057142D01*
X97928628Y-57057142D02*
X97928628Y-57438094D01*
X97404819Y-56533332D02*
X97404819Y-55866666D01*
X97404819Y-55866666D02*
X98404819Y-56295237D01*
X147004819Y-84133333D02*
X147719104Y-84133333D01*
X147719104Y-84133333D02*
X147861961Y-84180952D01*
X147861961Y-84180952D02*
X147957200Y-84276190D01*
X147957200Y-84276190D02*
X148004819Y-84419047D01*
X148004819Y-84419047D02*
X148004819Y-84514285D01*
X147004819Y-83752380D02*
X147004819Y-83133333D01*
X147004819Y-83133333D02*
X147385771Y-83466666D01*
X147385771Y-83466666D02*
X147385771Y-83323809D01*
X147385771Y-83323809D02*
X147433390Y-83228571D01*
X147433390Y-83228571D02*
X147481009Y-83180952D01*
X147481009Y-83180952D02*
X147576247Y-83133333D01*
X147576247Y-83133333D02*
X147814342Y-83133333D01*
X147814342Y-83133333D02*
X147909580Y-83180952D01*
X147909580Y-83180952D02*
X147957200Y-83228571D01*
X147957200Y-83228571D02*
X148004819Y-83323809D01*
X148004819Y-83323809D02*
X148004819Y-83609523D01*
X148004819Y-83609523D02*
X147957200Y-83704761D01*
X147957200Y-83704761D02*
X147909580Y-83752380D01*
X121904819Y-79342857D02*
X121428628Y-79676190D01*
X121904819Y-79914285D02*
X120904819Y-79914285D01*
X120904819Y-79914285D02*
X120904819Y-79533333D01*
X120904819Y-79533333D02*
X120952438Y-79438095D01*
X120952438Y-79438095D02*
X121000057Y-79390476D01*
X121000057Y-79390476D02*
X121095295Y-79342857D01*
X121095295Y-79342857D02*
X121238152Y-79342857D01*
X121238152Y-79342857D02*
X121333390Y-79390476D01*
X121333390Y-79390476D02*
X121381009Y-79438095D01*
X121381009Y-79438095D02*
X121428628Y-79533333D01*
X121428628Y-79533333D02*
X121428628Y-79914285D01*
X121904819Y-78390476D02*
X121904819Y-78961904D01*
X121904819Y-78676190D02*
X120904819Y-78676190D01*
X120904819Y-78676190D02*
X121047676Y-78771428D01*
X121047676Y-78771428D02*
X121142914Y-78866666D01*
X121142914Y-78866666D02*
X121190533Y-78961904D01*
X120904819Y-77771428D02*
X120904819Y-77676190D01*
X120904819Y-77676190D02*
X120952438Y-77580952D01*
X120952438Y-77580952D02*
X121000057Y-77533333D01*
X121000057Y-77533333D02*
X121095295Y-77485714D01*
X121095295Y-77485714D02*
X121285771Y-77438095D01*
X121285771Y-77438095D02*
X121523866Y-77438095D01*
X121523866Y-77438095D02*
X121714342Y-77485714D01*
X121714342Y-77485714D02*
X121809580Y-77533333D01*
X121809580Y-77533333D02*
X121857200Y-77580952D01*
X121857200Y-77580952D02*
X121904819Y-77676190D01*
X121904819Y-77676190D02*
X121904819Y-77771428D01*
X121904819Y-77771428D02*
X121857200Y-77866666D01*
X121857200Y-77866666D02*
X121809580Y-77914285D01*
X121809580Y-77914285D02*
X121714342Y-77961904D01*
X121714342Y-77961904D02*
X121523866Y-78009523D01*
X121523866Y-78009523D02*
X121285771Y-78009523D01*
X121285771Y-78009523D02*
X121095295Y-77961904D01*
X121095295Y-77961904D02*
X121000057Y-77914285D01*
X121000057Y-77914285D02*
X120952438Y-77866666D01*
X120952438Y-77866666D02*
X120904819Y-77771428D01*
X139854819Y-93366666D02*
X139378628Y-93699999D01*
X139854819Y-93938094D02*
X138854819Y-93938094D01*
X138854819Y-93938094D02*
X138854819Y-93557142D01*
X138854819Y-93557142D02*
X138902438Y-93461904D01*
X138902438Y-93461904D02*
X138950057Y-93414285D01*
X138950057Y-93414285D02*
X139045295Y-93366666D01*
X139045295Y-93366666D02*
X139188152Y-93366666D01*
X139188152Y-93366666D02*
X139283390Y-93414285D01*
X139283390Y-93414285D02*
X139331009Y-93461904D01*
X139331009Y-93461904D02*
X139378628Y-93557142D01*
X139378628Y-93557142D02*
X139378628Y-93938094D01*
X138854819Y-92509523D02*
X138854819Y-92699999D01*
X138854819Y-92699999D02*
X138902438Y-92795237D01*
X138902438Y-92795237D02*
X138950057Y-92842856D01*
X138950057Y-92842856D02*
X139092914Y-92938094D01*
X139092914Y-92938094D02*
X139283390Y-92985713D01*
X139283390Y-92985713D02*
X139664342Y-92985713D01*
X139664342Y-92985713D02*
X139759580Y-92938094D01*
X139759580Y-92938094D02*
X139807200Y-92890475D01*
X139807200Y-92890475D02*
X139854819Y-92795237D01*
X139854819Y-92795237D02*
X139854819Y-92604761D01*
X139854819Y-92604761D02*
X139807200Y-92509523D01*
X139807200Y-92509523D02*
X139759580Y-92461904D01*
X139759580Y-92461904D02*
X139664342Y-92414285D01*
X139664342Y-92414285D02*
X139426247Y-92414285D01*
X139426247Y-92414285D02*
X139331009Y-92461904D01*
X139331009Y-92461904D02*
X139283390Y-92509523D01*
X139283390Y-92509523D02*
X139235771Y-92604761D01*
X139235771Y-92604761D02*
X139235771Y-92795237D01*
X139235771Y-92795237D02*
X139283390Y-92890475D01*
X139283390Y-92890475D02*
X139331009Y-92938094D01*
X139331009Y-92938094D02*
X139426247Y-92985713D01*
X123533333Y-80009580D02*
X123485714Y-80057200D01*
X123485714Y-80057200D02*
X123342857Y-80104819D01*
X123342857Y-80104819D02*
X123247619Y-80104819D01*
X123247619Y-80104819D02*
X123104762Y-80057200D01*
X123104762Y-80057200D02*
X123009524Y-79961961D01*
X123009524Y-79961961D02*
X122961905Y-79866723D01*
X122961905Y-79866723D02*
X122914286Y-79676247D01*
X122914286Y-79676247D02*
X122914286Y-79533390D01*
X122914286Y-79533390D02*
X122961905Y-79342914D01*
X122961905Y-79342914D02*
X123009524Y-79247676D01*
X123009524Y-79247676D02*
X123104762Y-79152438D01*
X123104762Y-79152438D02*
X123247619Y-79104819D01*
X123247619Y-79104819D02*
X123342857Y-79104819D01*
X123342857Y-79104819D02*
X123485714Y-79152438D01*
X123485714Y-79152438D02*
X123533333Y-79200057D01*
X124438095Y-79104819D02*
X123961905Y-79104819D01*
X123961905Y-79104819D02*
X123914286Y-79581009D01*
X123914286Y-79581009D02*
X123961905Y-79533390D01*
X123961905Y-79533390D02*
X124057143Y-79485771D01*
X124057143Y-79485771D02*
X124295238Y-79485771D01*
X124295238Y-79485771D02*
X124390476Y-79533390D01*
X124390476Y-79533390D02*
X124438095Y-79581009D01*
X124438095Y-79581009D02*
X124485714Y-79676247D01*
X124485714Y-79676247D02*
X124485714Y-79914342D01*
X124485714Y-79914342D02*
X124438095Y-80009580D01*
X124438095Y-80009580D02*
X124390476Y-80057200D01*
X124390476Y-80057200D02*
X124295238Y-80104819D01*
X124295238Y-80104819D02*
X124057143Y-80104819D01*
X124057143Y-80104819D02*
X123961905Y-80057200D01*
X123961905Y-80057200D02*
X123914286Y-80009580D01*
X126757142Y-73759580D02*
X126709523Y-73807200D01*
X126709523Y-73807200D02*
X126566666Y-73854819D01*
X126566666Y-73854819D02*
X126471428Y-73854819D01*
X126471428Y-73854819D02*
X126328571Y-73807200D01*
X126328571Y-73807200D02*
X126233333Y-73711961D01*
X126233333Y-73711961D02*
X126185714Y-73616723D01*
X126185714Y-73616723D02*
X126138095Y-73426247D01*
X126138095Y-73426247D02*
X126138095Y-73283390D01*
X126138095Y-73283390D02*
X126185714Y-73092914D01*
X126185714Y-73092914D02*
X126233333Y-72997676D01*
X126233333Y-72997676D02*
X126328571Y-72902438D01*
X126328571Y-72902438D02*
X126471428Y-72854819D01*
X126471428Y-72854819D02*
X126566666Y-72854819D01*
X126566666Y-72854819D02*
X126709523Y-72902438D01*
X126709523Y-72902438D02*
X126757142Y-72950057D01*
X127709523Y-73854819D02*
X127138095Y-73854819D01*
X127423809Y-73854819D02*
X127423809Y-72854819D01*
X127423809Y-72854819D02*
X127328571Y-72997676D01*
X127328571Y-72997676D02*
X127233333Y-73092914D01*
X127233333Y-73092914D02*
X127138095Y-73140533D01*
X128042857Y-72854819D02*
X128661904Y-72854819D01*
X128661904Y-72854819D02*
X128328571Y-73235771D01*
X128328571Y-73235771D02*
X128471428Y-73235771D01*
X128471428Y-73235771D02*
X128566666Y-73283390D01*
X128566666Y-73283390D02*
X128614285Y-73331009D01*
X128614285Y-73331009D02*
X128661904Y-73426247D01*
X128661904Y-73426247D02*
X128661904Y-73664342D01*
X128661904Y-73664342D02*
X128614285Y-73759580D01*
X128614285Y-73759580D02*
X128566666Y-73807200D01*
X128566666Y-73807200D02*
X128471428Y-73854819D01*
X128471428Y-73854819D02*
X128185714Y-73854819D01*
X128185714Y-73854819D02*
X128090476Y-73807200D01*
X128090476Y-73807200D02*
X128042857Y-73759580D01*
X142654819Y-52938094D02*
X141654819Y-52938094D01*
X141654819Y-52938094D02*
X141654819Y-52699999D01*
X141654819Y-52699999D02*
X141702438Y-52557142D01*
X141702438Y-52557142D02*
X141797676Y-52461904D01*
X141797676Y-52461904D02*
X141892914Y-52414285D01*
X141892914Y-52414285D02*
X142083390Y-52366666D01*
X142083390Y-52366666D02*
X142226247Y-52366666D01*
X142226247Y-52366666D02*
X142416723Y-52414285D01*
X142416723Y-52414285D02*
X142511961Y-52461904D01*
X142511961Y-52461904D02*
X142607200Y-52557142D01*
X142607200Y-52557142D02*
X142654819Y-52699999D01*
X142654819Y-52699999D02*
X142654819Y-52938094D01*
X141750057Y-51985713D02*
X141702438Y-51938094D01*
X141702438Y-51938094D02*
X141654819Y-51842856D01*
X141654819Y-51842856D02*
X141654819Y-51604761D01*
X141654819Y-51604761D02*
X141702438Y-51509523D01*
X141702438Y-51509523D02*
X141750057Y-51461904D01*
X141750057Y-51461904D02*
X141845295Y-51414285D01*
X141845295Y-51414285D02*
X141940533Y-51414285D01*
X141940533Y-51414285D02*
X142083390Y-51461904D01*
X142083390Y-51461904D02*
X142654819Y-52033332D01*
X142654819Y-52033332D02*
X142654819Y-51414285D01*
X123979580Y-55066666D02*
X124027200Y-55114285D01*
X124027200Y-55114285D02*
X124074819Y-55257142D01*
X124074819Y-55257142D02*
X124074819Y-55352380D01*
X124074819Y-55352380D02*
X124027200Y-55495237D01*
X124027200Y-55495237D02*
X123931961Y-55590475D01*
X123931961Y-55590475D02*
X123836723Y-55638094D01*
X123836723Y-55638094D02*
X123646247Y-55685713D01*
X123646247Y-55685713D02*
X123503390Y-55685713D01*
X123503390Y-55685713D02*
X123312914Y-55638094D01*
X123312914Y-55638094D02*
X123217676Y-55590475D01*
X123217676Y-55590475D02*
X123122438Y-55495237D01*
X123122438Y-55495237D02*
X123074819Y-55352380D01*
X123074819Y-55352380D02*
X123074819Y-55257142D01*
X123074819Y-55257142D02*
X123122438Y-55114285D01*
X123122438Y-55114285D02*
X123170057Y-55066666D01*
X123074819Y-54733332D02*
X123074819Y-54066666D01*
X123074819Y-54066666D02*
X124074819Y-54495237D01*
X110390476Y-54454819D02*
X110390476Y-55169104D01*
X110390476Y-55169104D02*
X110342857Y-55311961D01*
X110342857Y-55311961D02*
X110247619Y-55407200D01*
X110247619Y-55407200D02*
X110104762Y-55454819D01*
X110104762Y-55454819D02*
X110009524Y-55454819D01*
X111390476Y-55454819D02*
X110819048Y-55454819D01*
X111104762Y-55454819D02*
X111104762Y-54454819D01*
X111104762Y-54454819D02*
X111009524Y-54597676D01*
X111009524Y-54597676D02*
X110914286Y-54692914D01*
X110914286Y-54692914D02*
X110819048Y-54740533D01*
X111771429Y-54550057D02*
X111819048Y-54502438D01*
X111819048Y-54502438D02*
X111914286Y-54454819D01*
X111914286Y-54454819D02*
X112152381Y-54454819D01*
X112152381Y-54454819D02*
X112247619Y-54502438D01*
X112247619Y-54502438D02*
X112295238Y-54550057D01*
X112295238Y-54550057D02*
X112342857Y-54645295D01*
X112342857Y-54645295D02*
X112342857Y-54740533D01*
X112342857Y-54740533D02*
X112295238Y-54883390D01*
X112295238Y-54883390D02*
X111723810Y-55454819D01*
X111723810Y-55454819D02*
X112342857Y-55454819D01*
X89190476Y-46254819D02*
X89190476Y-46969104D01*
X89190476Y-46969104D02*
X89142857Y-47111961D01*
X89142857Y-47111961D02*
X89047619Y-47207200D01*
X89047619Y-47207200D02*
X88904762Y-47254819D01*
X88904762Y-47254819D02*
X88809524Y-47254819D01*
X90190476Y-47254819D02*
X89619048Y-47254819D01*
X89904762Y-47254819D02*
X89904762Y-46254819D01*
X89904762Y-46254819D02*
X89809524Y-46397676D01*
X89809524Y-46397676D02*
X89714286Y-46492914D01*
X89714286Y-46492914D02*
X89619048Y-46540533D01*
X91047619Y-46254819D02*
X90857143Y-46254819D01*
X90857143Y-46254819D02*
X90761905Y-46302438D01*
X90761905Y-46302438D02*
X90714286Y-46350057D01*
X90714286Y-46350057D02*
X90619048Y-46492914D01*
X90619048Y-46492914D02*
X90571429Y-46683390D01*
X90571429Y-46683390D02*
X90571429Y-47064342D01*
X90571429Y-47064342D02*
X90619048Y-47159580D01*
X90619048Y-47159580D02*
X90666667Y-47207200D01*
X90666667Y-47207200D02*
X90761905Y-47254819D01*
X90761905Y-47254819D02*
X90952381Y-47254819D01*
X90952381Y-47254819D02*
X91047619Y-47207200D01*
X91047619Y-47207200D02*
X91095238Y-47159580D01*
X91095238Y-47159580D02*
X91142857Y-47064342D01*
X91142857Y-47064342D02*
X91142857Y-46826247D01*
X91142857Y-46826247D02*
X91095238Y-46731009D01*
X91095238Y-46731009D02*
X91047619Y-46683390D01*
X91047619Y-46683390D02*
X90952381Y-46635771D01*
X90952381Y-46635771D02*
X90761905Y-46635771D01*
X90761905Y-46635771D02*
X90666667Y-46683390D01*
X90666667Y-46683390D02*
X90619048Y-46731009D01*
X90619048Y-46731009D02*
X90571429Y-46826247D01*
X100479580Y-55066666D02*
X100527200Y-55114285D01*
X100527200Y-55114285D02*
X100574819Y-55257142D01*
X100574819Y-55257142D02*
X100574819Y-55352380D01*
X100574819Y-55352380D02*
X100527200Y-55495237D01*
X100527200Y-55495237D02*
X100431961Y-55590475D01*
X100431961Y-55590475D02*
X100336723Y-55638094D01*
X100336723Y-55638094D02*
X100146247Y-55685713D01*
X100146247Y-55685713D02*
X100003390Y-55685713D01*
X100003390Y-55685713D02*
X99812914Y-55638094D01*
X99812914Y-55638094D02*
X99717676Y-55590475D01*
X99717676Y-55590475D02*
X99622438Y-55495237D01*
X99622438Y-55495237D02*
X99574819Y-55352380D01*
X99574819Y-55352380D02*
X99574819Y-55257142D01*
X99574819Y-55257142D02*
X99622438Y-55114285D01*
X99622438Y-55114285D02*
X99670057Y-55066666D01*
X99574819Y-54209523D02*
X99574819Y-54399999D01*
X99574819Y-54399999D02*
X99622438Y-54495237D01*
X99622438Y-54495237D02*
X99670057Y-54542856D01*
X99670057Y-54542856D02*
X99812914Y-54638094D01*
X99812914Y-54638094D02*
X100003390Y-54685713D01*
X100003390Y-54685713D02*
X100384342Y-54685713D01*
X100384342Y-54685713D02*
X100479580Y-54638094D01*
X100479580Y-54638094D02*
X100527200Y-54590475D01*
X100527200Y-54590475D02*
X100574819Y-54495237D01*
X100574819Y-54495237D02*
X100574819Y-54304761D01*
X100574819Y-54304761D02*
X100527200Y-54209523D01*
X100527200Y-54209523D02*
X100479580Y-54161904D01*
X100479580Y-54161904D02*
X100384342Y-54114285D01*
X100384342Y-54114285D02*
X100146247Y-54114285D01*
X100146247Y-54114285D02*
X100051009Y-54161904D01*
X100051009Y-54161904D02*
X100003390Y-54209523D01*
X100003390Y-54209523D02*
X99955771Y-54304761D01*
X99955771Y-54304761D02*
X99955771Y-54495237D01*
X99955771Y-54495237D02*
X100003390Y-54590475D01*
X100003390Y-54590475D02*
X100051009Y-54638094D01*
X100051009Y-54638094D02*
X100146247Y-54685713D01*
X122950714Y-51569104D02*
X123426904Y-51569104D01*
X122855476Y-51854819D02*
X123188809Y-50854819D01*
X123188809Y-50854819D02*
X123522142Y-51854819D01*
X123760238Y-50854819D02*
X124379285Y-50854819D01*
X124379285Y-50854819D02*
X124045952Y-51235771D01*
X124045952Y-51235771D02*
X124188809Y-51235771D01*
X124188809Y-51235771D02*
X124284047Y-51283390D01*
X124284047Y-51283390D02*
X124331666Y-51331009D01*
X124331666Y-51331009D02*
X124379285Y-51426247D01*
X124379285Y-51426247D02*
X124379285Y-51664342D01*
X124379285Y-51664342D02*
X124331666Y-51759580D01*
X124331666Y-51759580D02*
X124284047Y-51807200D01*
X124284047Y-51807200D02*
X124188809Y-51854819D01*
X124188809Y-51854819D02*
X123903095Y-51854819D01*
X123903095Y-51854819D02*
X123807857Y-51807200D01*
X123807857Y-51807200D02*
X123760238Y-51759580D01*
X143833333Y-61159580D02*
X143785714Y-61207200D01*
X143785714Y-61207200D02*
X143642857Y-61254819D01*
X143642857Y-61254819D02*
X143547619Y-61254819D01*
X143547619Y-61254819D02*
X143404762Y-61207200D01*
X143404762Y-61207200D02*
X143309524Y-61111961D01*
X143309524Y-61111961D02*
X143261905Y-61016723D01*
X143261905Y-61016723D02*
X143214286Y-60826247D01*
X143214286Y-60826247D02*
X143214286Y-60683390D01*
X143214286Y-60683390D02*
X143261905Y-60492914D01*
X143261905Y-60492914D02*
X143309524Y-60397676D01*
X143309524Y-60397676D02*
X143404762Y-60302438D01*
X143404762Y-60302438D02*
X143547619Y-60254819D01*
X143547619Y-60254819D02*
X143642857Y-60254819D01*
X143642857Y-60254819D02*
X143785714Y-60302438D01*
X143785714Y-60302438D02*
X143833333Y-60350057D01*
X144785714Y-61254819D02*
X144214286Y-61254819D01*
X144500000Y-61254819D02*
X144500000Y-60254819D01*
X144500000Y-60254819D02*
X144404762Y-60397676D01*
X144404762Y-60397676D02*
X144309524Y-60492914D01*
X144309524Y-60492914D02*
X144214286Y-60540533D01*
X132866666Y-94854819D02*
X132866666Y-95569104D01*
X132866666Y-95569104D02*
X132819047Y-95711961D01*
X132819047Y-95711961D02*
X132723809Y-95807200D01*
X132723809Y-95807200D02*
X132580952Y-95854819D01*
X132580952Y-95854819D02*
X132485714Y-95854819D01*
X133247619Y-94854819D02*
X133914285Y-94854819D01*
X133914285Y-94854819D02*
X133485714Y-95854819D01*
X94674819Y-69763333D02*
X95389104Y-69763333D01*
X95389104Y-69763333D02*
X95531961Y-69810952D01*
X95531961Y-69810952D02*
X95627200Y-69906190D01*
X95627200Y-69906190D02*
X95674819Y-70049047D01*
X95674819Y-70049047D02*
X95674819Y-70144285D01*
X95103390Y-69144285D02*
X95055771Y-69239523D01*
X95055771Y-69239523D02*
X95008152Y-69287142D01*
X95008152Y-69287142D02*
X94912914Y-69334761D01*
X94912914Y-69334761D02*
X94865295Y-69334761D01*
X94865295Y-69334761D02*
X94770057Y-69287142D01*
X94770057Y-69287142D02*
X94722438Y-69239523D01*
X94722438Y-69239523D02*
X94674819Y-69144285D01*
X94674819Y-69144285D02*
X94674819Y-68953809D01*
X94674819Y-68953809D02*
X94722438Y-68858571D01*
X94722438Y-68858571D02*
X94770057Y-68810952D01*
X94770057Y-68810952D02*
X94865295Y-68763333D01*
X94865295Y-68763333D02*
X94912914Y-68763333D01*
X94912914Y-68763333D02*
X95008152Y-68810952D01*
X95008152Y-68810952D02*
X95055771Y-68858571D01*
X95055771Y-68858571D02*
X95103390Y-68953809D01*
X95103390Y-68953809D02*
X95103390Y-69144285D01*
X95103390Y-69144285D02*
X95151009Y-69239523D01*
X95151009Y-69239523D02*
X95198628Y-69287142D01*
X95198628Y-69287142D02*
X95293866Y-69334761D01*
X95293866Y-69334761D02*
X95484342Y-69334761D01*
X95484342Y-69334761D02*
X95579580Y-69287142D01*
X95579580Y-69287142D02*
X95627200Y-69239523D01*
X95627200Y-69239523D02*
X95674819Y-69144285D01*
X95674819Y-69144285D02*
X95674819Y-68953809D01*
X95674819Y-68953809D02*
X95627200Y-68858571D01*
X95627200Y-68858571D02*
X95579580Y-68810952D01*
X95579580Y-68810952D02*
X95484342Y-68763333D01*
X95484342Y-68763333D02*
X95293866Y-68763333D01*
X95293866Y-68763333D02*
X95198628Y-68810952D01*
X95198628Y-68810952D02*
X95151009Y-68858571D01*
X95151009Y-68858571D02*
X95103390Y-68953809D01*
X100033333Y-80009580D02*
X99985714Y-80057200D01*
X99985714Y-80057200D02*
X99842857Y-80104819D01*
X99842857Y-80104819D02*
X99747619Y-80104819D01*
X99747619Y-80104819D02*
X99604762Y-80057200D01*
X99604762Y-80057200D02*
X99509524Y-79961961D01*
X99509524Y-79961961D02*
X99461905Y-79866723D01*
X99461905Y-79866723D02*
X99414286Y-79676247D01*
X99414286Y-79676247D02*
X99414286Y-79533390D01*
X99414286Y-79533390D02*
X99461905Y-79342914D01*
X99461905Y-79342914D02*
X99509524Y-79247676D01*
X99509524Y-79247676D02*
X99604762Y-79152438D01*
X99604762Y-79152438D02*
X99747619Y-79104819D01*
X99747619Y-79104819D02*
X99842857Y-79104819D01*
X99842857Y-79104819D02*
X99985714Y-79152438D01*
X99985714Y-79152438D02*
X100033333Y-79200057D01*
X100890476Y-79438152D02*
X100890476Y-80104819D01*
X100652381Y-79057200D02*
X100414286Y-79771485D01*
X100414286Y-79771485D02*
X101033333Y-79771485D01*
X100479580Y-77066666D02*
X100527200Y-77114285D01*
X100527200Y-77114285D02*
X100574819Y-77257142D01*
X100574819Y-77257142D02*
X100574819Y-77352380D01*
X100574819Y-77352380D02*
X100527200Y-77495237D01*
X100527200Y-77495237D02*
X100431961Y-77590475D01*
X100431961Y-77590475D02*
X100336723Y-77638094D01*
X100336723Y-77638094D02*
X100146247Y-77685713D01*
X100146247Y-77685713D02*
X100003390Y-77685713D01*
X100003390Y-77685713D02*
X99812914Y-77638094D01*
X99812914Y-77638094D02*
X99717676Y-77590475D01*
X99717676Y-77590475D02*
X99622438Y-77495237D01*
X99622438Y-77495237D02*
X99574819Y-77352380D01*
X99574819Y-77352380D02*
X99574819Y-77257142D01*
X99574819Y-77257142D02*
X99622438Y-77114285D01*
X99622438Y-77114285D02*
X99670057Y-77066666D01*
X100003390Y-76495237D02*
X99955771Y-76590475D01*
X99955771Y-76590475D02*
X99908152Y-76638094D01*
X99908152Y-76638094D02*
X99812914Y-76685713D01*
X99812914Y-76685713D02*
X99765295Y-76685713D01*
X99765295Y-76685713D02*
X99670057Y-76638094D01*
X99670057Y-76638094D02*
X99622438Y-76590475D01*
X99622438Y-76590475D02*
X99574819Y-76495237D01*
X99574819Y-76495237D02*
X99574819Y-76304761D01*
X99574819Y-76304761D02*
X99622438Y-76209523D01*
X99622438Y-76209523D02*
X99670057Y-76161904D01*
X99670057Y-76161904D02*
X99765295Y-76114285D01*
X99765295Y-76114285D02*
X99812914Y-76114285D01*
X99812914Y-76114285D02*
X99908152Y-76161904D01*
X99908152Y-76161904D02*
X99955771Y-76209523D01*
X99955771Y-76209523D02*
X100003390Y-76304761D01*
X100003390Y-76304761D02*
X100003390Y-76495237D01*
X100003390Y-76495237D02*
X100051009Y-76590475D01*
X100051009Y-76590475D02*
X100098628Y-76638094D01*
X100098628Y-76638094D02*
X100193866Y-76685713D01*
X100193866Y-76685713D02*
X100384342Y-76685713D01*
X100384342Y-76685713D02*
X100479580Y-76638094D01*
X100479580Y-76638094D02*
X100527200Y-76590475D01*
X100527200Y-76590475D02*
X100574819Y-76495237D01*
X100574819Y-76495237D02*
X100574819Y-76304761D01*
X100574819Y-76304761D02*
X100527200Y-76209523D01*
X100527200Y-76209523D02*
X100479580Y-76161904D01*
X100479580Y-76161904D02*
X100384342Y-76114285D01*
X100384342Y-76114285D02*
X100193866Y-76114285D01*
X100193866Y-76114285D02*
X100098628Y-76161904D01*
X100098628Y-76161904D02*
X100051009Y-76209523D01*
X100051009Y-76209523D02*
X100003390Y-76304761D01*
X82531009Y-53133333D02*
X82531009Y-53466666D01*
X83054819Y-53466666D02*
X82054819Y-53466666D01*
X82054819Y-53466666D02*
X82054819Y-52990476D01*
X83054819Y-52085714D02*
X83054819Y-52657142D01*
X83054819Y-52371428D02*
X82054819Y-52371428D01*
X82054819Y-52371428D02*
X82197676Y-52466666D01*
X82197676Y-52466666D02*
X82292914Y-52561904D01*
X82292914Y-52561904D02*
X82340533Y-52657142D01*
X153666666Y-91029819D02*
X153666666Y-91744104D01*
X153666666Y-91744104D02*
X153619047Y-91886961D01*
X153619047Y-91886961D02*
X153523809Y-91982200D01*
X153523809Y-91982200D02*
X153380952Y-92029819D01*
X153380952Y-92029819D02*
X153285714Y-92029819D01*
X154571428Y-91029819D02*
X154380952Y-91029819D01*
X154380952Y-91029819D02*
X154285714Y-91077438D01*
X154285714Y-91077438D02*
X154238095Y-91125057D01*
X154238095Y-91125057D02*
X154142857Y-91267914D01*
X154142857Y-91267914D02*
X154095238Y-91458390D01*
X154095238Y-91458390D02*
X154095238Y-91839342D01*
X154095238Y-91839342D02*
X154142857Y-91934580D01*
X154142857Y-91934580D02*
X154190476Y-91982200D01*
X154190476Y-91982200D02*
X154285714Y-92029819D01*
X154285714Y-92029819D02*
X154476190Y-92029819D01*
X154476190Y-92029819D02*
X154571428Y-91982200D01*
X154571428Y-91982200D02*
X154619047Y-91934580D01*
X154619047Y-91934580D02*
X154666666Y-91839342D01*
X154666666Y-91839342D02*
X154666666Y-91601247D01*
X154666666Y-91601247D02*
X154619047Y-91506009D01*
X154619047Y-91506009D02*
X154571428Y-91458390D01*
X154571428Y-91458390D02*
X154476190Y-91410771D01*
X154476190Y-91410771D02*
X154285714Y-91410771D01*
X154285714Y-91410771D02*
X154190476Y-91458390D01*
X154190476Y-91458390D02*
X154142857Y-91506009D01*
X154142857Y-91506009D02*
X154095238Y-91601247D01*
X100033333Y-58009580D02*
X99985714Y-58057200D01*
X99985714Y-58057200D02*
X99842857Y-58104819D01*
X99842857Y-58104819D02*
X99747619Y-58104819D01*
X99747619Y-58104819D02*
X99604762Y-58057200D01*
X99604762Y-58057200D02*
X99509524Y-57961961D01*
X99509524Y-57961961D02*
X99461905Y-57866723D01*
X99461905Y-57866723D02*
X99414286Y-57676247D01*
X99414286Y-57676247D02*
X99414286Y-57533390D01*
X99414286Y-57533390D02*
X99461905Y-57342914D01*
X99461905Y-57342914D02*
X99509524Y-57247676D01*
X99509524Y-57247676D02*
X99604762Y-57152438D01*
X99604762Y-57152438D02*
X99747619Y-57104819D01*
X99747619Y-57104819D02*
X99842857Y-57104819D01*
X99842857Y-57104819D02*
X99985714Y-57152438D01*
X99985714Y-57152438D02*
X100033333Y-57200057D01*
X100414286Y-57200057D02*
X100461905Y-57152438D01*
X100461905Y-57152438D02*
X100557143Y-57104819D01*
X100557143Y-57104819D02*
X100795238Y-57104819D01*
X100795238Y-57104819D02*
X100890476Y-57152438D01*
X100890476Y-57152438D02*
X100938095Y-57200057D01*
X100938095Y-57200057D02*
X100985714Y-57295295D01*
X100985714Y-57295295D02*
X100985714Y-57390533D01*
X100985714Y-57390533D02*
X100938095Y-57533390D01*
X100938095Y-57533390D02*
X100366667Y-58104819D01*
X100366667Y-58104819D02*
X100985714Y-58104819D01*
X94674819Y-92239523D02*
X95389104Y-92239523D01*
X95389104Y-92239523D02*
X95531961Y-92287142D01*
X95531961Y-92287142D02*
X95627200Y-92382380D01*
X95627200Y-92382380D02*
X95674819Y-92525237D01*
X95674819Y-92525237D02*
X95674819Y-92620475D01*
X95674819Y-91239523D02*
X95674819Y-91810951D01*
X95674819Y-91525237D02*
X94674819Y-91525237D01*
X94674819Y-91525237D02*
X94817676Y-91620475D01*
X94817676Y-91620475D02*
X94912914Y-91715713D01*
X94912914Y-91715713D02*
X94960533Y-91810951D01*
X94674819Y-90620475D02*
X94674819Y-90525237D01*
X94674819Y-90525237D02*
X94722438Y-90429999D01*
X94722438Y-90429999D02*
X94770057Y-90382380D01*
X94770057Y-90382380D02*
X94865295Y-90334761D01*
X94865295Y-90334761D02*
X95055771Y-90287142D01*
X95055771Y-90287142D02*
X95293866Y-90287142D01*
X95293866Y-90287142D02*
X95484342Y-90334761D01*
X95484342Y-90334761D02*
X95579580Y-90382380D01*
X95579580Y-90382380D02*
X95627200Y-90429999D01*
X95627200Y-90429999D02*
X95674819Y-90525237D01*
X95674819Y-90525237D02*
X95674819Y-90620475D01*
X95674819Y-90620475D02*
X95627200Y-90715713D01*
X95627200Y-90715713D02*
X95579580Y-90763332D01*
X95579580Y-90763332D02*
X95484342Y-90810951D01*
X95484342Y-90810951D02*
X95293866Y-90858570D01*
X95293866Y-90858570D02*
X95055771Y-90858570D01*
X95055771Y-90858570D02*
X94865295Y-90810951D01*
X94865295Y-90810951D02*
X94770057Y-90763332D01*
X94770057Y-90763332D02*
X94722438Y-90715713D01*
X94722438Y-90715713D02*
X94674819Y-90620475D01*
X103157142Y-73759580D02*
X103109523Y-73807200D01*
X103109523Y-73807200D02*
X102966666Y-73854819D01*
X102966666Y-73854819D02*
X102871428Y-73854819D01*
X102871428Y-73854819D02*
X102728571Y-73807200D01*
X102728571Y-73807200D02*
X102633333Y-73711961D01*
X102633333Y-73711961D02*
X102585714Y-73616723D01*
X102585714Y-73616723D02*
X102538095Y-73426247D01*
X102538095Y-73426247D02*
X102538095Y-73283390D01*
X102538095Y-73283390D02*
X102585714Y-73092914D01*
X102585714Y-73092914D02*
X102633333Y-72997676D01*
X102633333Y-72997676D02*
X102728571Y-72902438D01*
X102728571Y-72902438D02*
X102871428Y-72854819D01*
X102871428Y-72854819D02*
X102966666Y-72854819D01*
X102966666Y-72854819D02*
X103109523Y-72902438D01*
X103109523Y-72902438D02*
X103157142Y-72950057D01*
X104109523Y-73854819D02*
X103538095Y-73854819D01*
X103823809Y-73854819D02*
X103823809Y-72854819D01*
X103823809Y-72854819D02*
X103728571Y-72997676D01*
X103728571Y-72997676D02*
X103633333Y-73092914D01*
X103633333Y-73092914D02*
X103538095Y-73140533D01*
X104490476Y-72950057D02*
X104538095Y-72902438D01*
X104538095Y-72902438D02*
X104633333Y-72854819D01*
X104633333Y-72854819D02*
X104871428Y-72854819D01*
X104871428Y-72854819D02*
X104966666Y-72902438D01*
X104966666Y-72902438D02*
X105014285Y-72950057D01*
X105014285Y-72950057D02*
X105061904Y-73045295D01*
X105061904Y-73045295D02*
X105061904Y-73140533D01*
X105061904Y-73140533D02*
X105014285Y-73283390D01*
X105014285Y-73283390D02*
X104442857Y-73854819D01*
X104442857Y-73854819D02*
X105061904Y-73854819D01*
X122950714Y-73569104D02*
X123426904Y-73569104D01*
X122855476Y-73854819D02*
X123188809Y-72854819D01*
X123188809Y-72854819D02*
X123522142Y-73854819D01*
X124331666Y-72854819D02*
X123855476Y-72854819D01*
X123855476Y-72854819D02*
X123807857Y-73331009D01*
X123807857Y-73331009D02*
X123855476Y-73283390D01*
X123855476Y-73283390D02*
X123950714Y-73235771D01*
X123950714Y-73235771D02*
X124188809Y-73235771D01*
X124188809Y-73235771D02*
X124284047Y-73283390D01*
X124284047Y-73283390D02*
X124331666Y-73331009D01*
X124331666Y-73331009D02*
X124379285Y-73426247D01*
X124379285Y-73426247D02*
X124379285Y-73664342D01*
X124379285Y-73664342D02*
X124331666Y-73759580D01*
X124331666Y-73759580D02*
X124284047Y-73807200D01*
X124284047Y-73807200D02*
X124188809Y-73854819D01*
X124188809Y-73854819D02*
X123950714Y-73854819D01*
X123950714Y-73854819D02*
X123855476Y-73807200D01*
X123855476Y-73807200D02*
X123807857Y-73759580D01*
X118174819Y-92239523D02*
X118889104Y-92239523D01*
X118889104Y-92239523D02*
X119031961Y-92287142D01*
X119031961Y-92287142D02*
X119127200Y-92382380D01*
X119127200Y-92382380D02*
X119174819Y-92525237D01*
X119174819Y-92525237D02*
X119174819Y-92620475D01*
X119174819Y-91239523D02*
X119174819Y-91810951D01*
X119174819Y-91525237D02*
X118174819Y-91525237D01*
X118174819Y-91525237D02*
X118317676Y-91620475D01*
X118317676Y-91620475D02*
X118412914Y-91715713D01*
X118412914Y-91715713D02*
X118460533Y-91810951D01*
X119174819Y-90287142D02*
X119174819Y-90858570D01*
X119174819Y-90572856D02*
X118174819Y-90572856D01*
X118174819Y-90572856D02*
X118317676Y-90668094D01*
X118317676Y-90668094D02*
X118412914Y-90763332D01*
X118412914Y-90763332D02*
X118460533Y-90858570D01*
X139233333Y-57104819D02*
X138900000Y-56628628D01*
X138661905Y-57104819D02*
X138661905Y-56104819D01*
X138661905Y-56104819D02*
X139042857Y-56104819D01*
X139042857Y-56104819D02*
X139138095Y-56152438D01*
X139138095Y-56152438D02*
X139185714Y-56200057D01*
X139185714Y-56200057D02*
X139233333Y-56295295D01*
X139233333Y-56295295D02*
X139233333Y-56438152D01*
X139233333Y-56438152D02*
X139185714Y-56533390D01*
X139185714Y-56533390D02*
X139138095Y-56581009D01*
X139138095Y-56581009D02*
X139042857Y-56628628D01*
X139042857Y-56628628D02*
X138661905Y-56628628D01*
X139566667Y-56104819D02*
X140185714Y-56104819D01*
X140185714Y-56104819D02*
X139852381Y-56485771D01*
X139852381Y-56485771D02*
X139995238Y-56485771D01*
X139995238Y-56485771D02*
X140090476Y-56533390D01*
X140090476Y-56533390D02*
X140138095Y-56581009D01*
X140138095Y-56581009D02*
X140185714Y-56676247D01*
X140185714Y-56676247D02*
X140185714Y-56914342D01*
X140185714Y-56914342D02*
X140138095Y-57009580D01*
X140138095Y-57009580D02*
X140090476Y-57057200D01*
X140090476Y-57057200D02*
X139995238Y-57104819D01*
X139995238Y-57104819D02*
X139709524Y-57104819D01*
X139709524Y-57104819D02*
X139614286Y-57057200D01*
X139614286Y-57057200D02*
X139566667Y-57009580D01*
X153666666Y-75004819D02*
X153666666Y-75719104D01*
X153666666Y-75719104D02*
X153619047Y-75861961D01*
X153619047Y-75861961D02*
X153523809Y-75957200D01*
X153523809Y-75957200D02*
X153380952Y-76004819D01*
X153380952Y-76004819D02*
X153285714Y-76004819D01*
X154571428Y-75338152D02*
X154571428Y-76004819D01*
X154333333Y-74957200D02*
X154095238Y-75671485D01*
X154095238Y-75671485D02*
X154714285Y-75671485D01*
D14*
%TO.C,JP1*%
X146700000Y-54100000D02*
X146700000Y-52700000D01*
X147400000Y-52000000D02*
X148000000Y-52000000D01*
X148000000Y-54800000D02*
X147400000Y-54800000D01*
X148700000Y-52700000D02*
X148700000Y-54100000D01*
X146700000Y-52700000D02*
G75*
G02*
X147400000Y-52000000I700000J0D01*
G01*
X147400000Y-54800000D02*
G75*
G02*
X146700000Y-54100000I-1J699999D01*
G01*
X148000000Y-52000000D02*
G75*
G02*
X148700000Y-52700000I0J-700000D01*
G01*
X148700000Y-54100000D02*
G75*
G02*
X148000000Y-54800000I-699999J-1D01*
G01*
%TO.C,R4*%
X144727064Y-55265000D02*
X144272936Y-55265000D01*
X144727064Y-56735000D02*
X144272936Y-56735000D01*
%TO.C,A2*%
X92375000Y-52060000D02*
X92375000Y-53460000D01*
X92375000Y-54730000D02*
X92375000Y-72640000D01*
X92375000Y-72640000D02*
X107875000Y-72640000D01*
X93775000Y-52060000D02*
X92375000Y-52060000D01*
X95045000Y-52060000D02*
X95045000Y-54730000D01*
X95045000Y-54730000D02*
X92375000Y-54730000D01*
X95045000Y-54730000D02*
X95045000Y-72640000D01*
X105205000Y-52060000D02*
X105205000Y-72640000D01*
X107875000Y-52060000D02*
X95045000Y-52060000D01*
X107875000Y-72640000D02*
X107875000Y-52060000D01*
%TO.C,R2*%
X140765000Y-55227064D02*
X140765000Y-54772936D01*
X142235000Y-55227064D02*
X142235000Y-54772936D01*
%TO.C,BC1*%
D13*
X91500000Y-68250000D02*
X65500000Y-68250000D01*
X65500000Y-99750000D01*
X91500000Y-99750000D01*
X91500000Y-68250000D01*
D14*
%TO.C,C10*%
X103265000Y-55161252D02*
X103265000Y-54638748D01*
X104735000Y-55161252D02*
X104735000Y-54638748D01*
%TO.C,R8*%
X119065000Y-56472936D02*
X119065000Y-56927064D01*
X120535000Y-56472936D02*
X120535000Y-56927064D01*
%TO.C,J9*%
X119720000Y-66780000D02*
X127560000Y-66780000D01*
X119720000Y-69430000D02*
X119720000Y-66780000D01*
X119720000Y-72080000D02*
X119720000Y-70700000D01*
X121100000Y-72080000D02*
X119720000Y-72080000D01*
X122370000Y-69430000D02*
X119720000Y-69430000D01*
X122370000Y-72080000D02*
X122370000Y-69430000D01*
X122370000Y-72080000D02*
X127560000Y-72080000D01*
X127560000Y-72080000D02*
X127560000Y-66780000D01*
%TO.C,J1*%
X64630000Y-46940000D02*
X79370000Y-46940000D01*
X64630000Y-49200000D02*
X64630000Y-46940000D01*
X64630000Y-55680000D02*
X64630000Y-49800000D01*
X79370000Y-46940000D02*
X79370000Y-55680000D01*
X79370000Y-55680000D02*
X64630000Y-55680000D01*
X64630000Y-49500000D02*
X64020000Y-49940000D01*
X64020000Y-49060000D01*
X64630000Y-49500000D01*
G36*
X64630000Y-49500000D02*
G01*
X64020000Y-49940000D01*
X64020000Y-49060000D01*
X64630000Y-49500000D01*
G37*
%TO.C,J2*%
X149090000Y-62780000D02*
X149690000Y-63080000D01*
X149090000Y-63380000D02*
X149090000Y-62780000D01*
X149690000Y-63080000D02*
X149090000Y-63380000D01*
X149890000Y-49270000D02*
X149890000Y-66730000D01*
X149890000Y-66730000D02*
X162110000Y-66730000D01*
X158810000Y-49270000D02*
X160610000Y-49270000D01*
X158810000Y-66730000D02*
X158810000Y-49270000D01*
X160610000Y-49270000D02*
X160610000Y-66730000D01*
X160610000Y-52170000D02*
X160610000Y-53670000D01*
X160610000Y-53670000D02*
X162110000Y-53920000D01*
X160610000Y-57250000D02*
X160610000Y-58750000D01*
X160610000Y-58750000D02*
X162110000Y-59000000D01*
X160610000Y-62330000D02*
X160610000Y-63830000D01*
X160610000Y-63830000D02*
X162110000Y-64080000D01*
X160610000Y-66730000D02*
X158810000Y-66730000D01*
X162110000Y-49270000D02*
X149890000Y-49270000D01*
X162110000Y-51920000D02*
X160610000Y-52170000D01*
X162110000Y-53920000D02*
X162110000Y-51920000D01*
X162110000Y-57000000D02*
X160610000Y-57250000D01*
X162110000Y-59000000D02*
X162110000Y-57000000D01*
X162110000Y-62080000D02*
X160610000Y-62330000D01*
X162110000Y-64080000D02*
X162110000Y-62080000D01*
X162110000Y-66730000D02*
X162110000Y-49270000D01*
%TO.C,D3*%
X80050000Y-56800000D02*
X80050000Y-58610000D01*
X80050000Y-67200000D02*
X80050000Y-65390000D01*
X81550000Y-56800000D02*
X80050000Y-56800000D01*
X81550000Y-67200000D02*
X80050000Y-67200000D01*
X77487500Y-58610000D02*
X77247500Y-58280000D01*
X77727500Y-58280000D01*
X77487500Y-58610000D01*
G36*
X77487500Y-58610000D02*
G01*
X77247500Y-58280000D01*
X77727500Y-58280000D01*
X77487500Y-58610000D01*
G37*
%TO.C,C3*%
X119262500Y-60152500D02*
X120050000Y-60152500D01*
X119656250Y-59758750D02*
X119656250Y-60546250D01*
X120290000Y-59654437D02*
X120290000Y-60940000D01*
X120290000Y-59654437D02*
X121354437Y-58590000D01*
X120290000Y-64345563D02*
X120290000Y-63060000D01*
X120290000Y-64345563D02*
X121354437Y-65410000D01*
X121354437Y-58590000D02*
X127110000Y-58590000D01*
X121354437Y-65410000D02*
X127110000Y-65410000D01*
X127110000Y-58590000D02*
X127110000Y-60940000D01*
X127110000Y-65410000D02*
X127110000Y-63060000D01*
%TO.C,R1*%
X146765000Y-57227064D02*
X146765000Y-56772936D01*
X148235000Y-57227064D02*
X148235000Y-56772936D01*
%TO.C,J5*%
X148940000Y-76515000D02*
X148940000Y-82485000D01*
X148940000Y-82485000D02*
X159060000Y-82485000D01*
X148950000Y-80225000D02*
X149700000Y-80225000D01*
X148950000Y-81725000D02*
X148950000Y-82475000D01*
X148950000Y-82475000D02*
X150750000Y-82475000D01*
X149700000Y-77275000D02*
X154000000Y-77275000D01*
X149700000Y-80225000D02*
X149700000Y-77275000D01*
X150750000Y-81725000D02*
X148950000Y-81725000D01*
X150750000Y-82475000D02*
X150750000Y-81725000D01*
X152250000Y-81725000D02*
X152250000Y-82475000D01*
X152250000Y-82475000D02*
X155750000Y-82475000D01*
X155750000Y-81725000D02*
X152250000Y-81725000D01*
X155750000Y-82475000D02*
X155750000Y-81725000D01*
X157250000Y-81725000D02*
X157250000Y-82475000D01*
X157250000Y-82475000D02*
X159050000Y-82475000D01*
X158100000Y-82775000D02*
X159350000Y-82775000D01*
X158300000Y-77275000D02*
X154000000Y-77275000D01*
X158300000Y-80225000D02*
X158300000Y-77275000D01*
X159050000Y-80225000D02*
X158300000Y-80225000D01*
X159050000Y-81725000D02*
X157250000Y-81725000D01*
X159050000Y-82475000D02*
X159050000Y-81725000D01*
X159060000Y-76515000D02*
X148940000Y-76515000D01*
X159060000Y-82485000D02*
X159060000Y-76515000D01*
X159350000Y-82775000D02*
X159350000Y-81525000D01*
%TO.C,C11*%
X126765000Y-55161252D02*
X126765000Y-54638748D01*
X128235000Y-55161252D02*
X128235000Y-54638748D01*
%TO.C,A4*%
X92375000Y-74060000D02*
X92375000Y-75460000D01*
X92375000Y-76730000D02*
X92375000Y-94640000D01*
X92375000Y-94640000D02*
X107875000Y-94640000D01*
X93775000Y-74060000D02*
X92375000Y-74060000D01*
X95045000Y-74060000D02*
X95045000Y-76730000D01*
X95045000Y-76730000D02*
X92375000Y-76730000D01*
X95045000Y-76730000D02*
X95045000Y-94640000D01*
X105205000Y-74060000D02*
X105205000Y-94640000D01*
X107875000Y-74060000D02*
X95045000Y-74060000D01*
X107875000Y-94640000D02*
X107875000Y-74060000D01*
%TO.C,U1*%
X142410000Y-59710000D02*
X146390000Y-59710000D01*
X142410000Y-59810000D02*
X142410000Y-59710000D01*
X142410000Y-64890000D02*
X142410000Y-64790000D01*
X146390000Y-59710000D02*
X146390000Y-59810000D01*
X146390000Y-64790000D02*
X146390000Y-64890000D01*
X146390000Y-64890000D02*
X142410000Y-64890000D01*
X141860000Y-59800000D02*
X141620000Y-59470000D01*
X142100000Y-59470000D01*
X141860000Y-59800000D01*
G36*
X141860000Y-59800000D02*
G01*
X141620000Y-59470000D01*
X142100000Y-59470000D01*
X141860000Y-59800000D01*
G37*
%TO.C,C9*%
X124565000Y-77161252D02*
X124565000Y-76638748D01*
X126035000Y-77161252D02*
X126035000Y-76638748D01*
%TO.C,J14*%
X108250000Y-89600000D02*
X108250000Y-90850000D01*
X108250000Y-90850000D02*
X109500000Y-90850000D01*
X108540000Y-77940000D02*
X108540000Y-90560000D01*
X108540000Y-90560000D02*
X114510000Y-90560000D01*
X108550000Y-77950000D02*
X108550000Y-79750000D01*
X108550000Y-79750000D02*
X109300000Y-79750000D01*
X108550000Y-81250000D02*
X108550000Y-87250000D01*
X108550000Y-87250000D02*
X109300000Y-87250000D01*
X108550000Y-88750000D02*
X108550000Y-90550000D01*
X108550000Y-90550000D02*
X109300000Y-90550000D01*
X109300000Y-77950000D02*
X108550000Y-77950000D01*
X109300000Y-79750000D02*
X109300000Y-77950000D01*
X109300000Y-81250000D02*
X108550000Y-81250000D01*
X109300000Y-87250000D02*
X109300000Y-81250000D01*
X109300000Y-88750000D02*
X108550000Y-88750000D01*
X109300000Y-90550000D02*
X109300000Y-88750000D01*
X110800000Y-77950000D02*
X110800000Y-78700000D01*
X110800000Y-78700000D02*
X113750000Y-78700000D01*
X110800000Y-89800000D02*
X113750000Y-89800000D01*
X110800000Y-90550000D02*
X110800000Y-89800000D01*
X113750000Y-78700000D02*
X113750000Y-84250000D01*
X113750000Y-89800000D02*
X113750000Y-84250000D01*
X114510000Y-77940000D02*
X108540000Y-77940000D01*
X114510000Y-90560000D02*
X114510000Y-77940000D01*
%TO.C,R5*%
X142765000Y-94227064D02*
X142765000Y-93772936D01*
X144235000Y-94227064D02*
X144235000Y-93772936D01*
%TO.C,D1*%
X68850000Y-67110000D02*
X68850000Y-59700000D01*
X68850000Y-67110000D02*
X73150000Y-67110000D01*
X73150000Y-67110000D02*
X73150000Y-59700000D01*
%TO.C,J15*%
X131790000Y-89600000D02*
X131790000Y-90850000D01*
X131790000Y-90850000D02*
X133040000Y-90850000D01*
X132080000Y-77940000D02*
X132080000Y-90560000D01*
X132080000Y-90560000D02*
X138050000Y-90560000D01*
X132090000Y-77950000D02*
X132090000Y-79750000D01*
X132090000Y-79750000D02*
X132840000Y-79750000D01*
X132090000Y-81250000D02*
X132090000Y-87250000D01*
X132090000Y-87250000D02*
X132840000Y-87250000D01*
X132090000Y-88750000D02*
X132090000Y-90550000D01*
X132090000Y-90550000D02*
X132840000Y-90550000D01*
X132840000Y-77950000D02*
X132090000Y-77950000D01*
X132840000Y-79750000D02*
X132840000Y-77950000D01*
X132840000Y-81250000D02*
X132090000Y-81250000D01*
X132840000Y-87250000D02*
X132840000Y-81250000D01*
X132840000Y-88750000D02*
X132090000Y-88750000D01*
X132840000Y-90550000D02*
X132840000Y-88750000D01*
X134340000Y-77950000D02*
X134340000Y-78700000D01*
X134340000Y-78700000D02*
X137290000Y-78700000D01*
X134340000Y-89800000D02*
X137290000Y-89800000D01*
X134340000Y-90550000D02*
X134340000Y-89800000D01*
X137290000Y-78700000D02*
X137290000Y-84250000D01*
X137290000Y-89800000D02*
X137290000Y-84250000D01*
X138050000Y-77940000D02*
X132080000Y-77940000D01*
X138050000Y-90560000D02*
X138050000Y-77940000D01*
%TO.C,J13*%
X131790000Y-67600000D02*
X131790000Y-68850000D01*
X131790000Y-68850000D02*
X133040000Y-68850000D01*
X132080000Y-55940000D02*
X132080000Y-68560000D01*
X132080000Y-68560000D02*
X138050000Y-68560000D01*
X132090000Y-55950000D02*
X132090000Y-57750000D01*
X132090000Y-57750000D02*
X132840000Y-57750000D01*
X132090000Y-59250000D02*
X132090000Y-65250000D01*
X132090000Y-65250000D02*
X132840000Y-65250000D01*
X132090000Y-66750000D02*
X132090000Y-68550000D01*
X132090000Y-68550000D02*
X132840000Y-68550000D01*
X132840000Y-55950000D02*
X132090000Y-55950000D01*
X132840000Y-57750000D02*
X132840000Y-55950000D01*
X132840000Y-59250000D02*
X132090000Y-59250000D01*
X132840000Y-65250000D02*
X132840000Y-59250000D01*
X132840000Y-66750000D02*
X132090000Y-66750000D01*
X132840000Y-68550000D02*
X132840000Y-66750000D01*
X134340000Y-55950000D02*
X134340000Y-56700000D01*
X134340000Y-56700000D02*
X137290000Y-56700000D01*
X134340000Y-67800000D02*
X137290000Y-67800000D01*
X134340000Y-68550000D02*
X134340000Y-67800000D01*
X137290000Y-56700000D02*
X137290000Y-62250000D01*
X137290000Y-67800000D02*
X137290000Y-62250000D01*
X138050000Y-55940000D02*
X132080000Y-55940000D01*
X138050000Y-68560000D02*
X138050000Y-55940000D01*
%TO.C,R9*%
X95565000Y-78472936D02*
X95565000Y-78927064D01*
X97035000Y-78472936D02*
X97035000Y-78927064D01*
%TO.C,R7*%
X95565000Y-56472936D02*
X95565000Y-56927064D01*
X97035000Y-56472936D02*
X97035000Y-56927064D01*
%TO.C,J3*%
X140490000Y-76240000D02*
X140490000Y-91360000D01*
X140490000Y-91360000D02*
X146460000Y-91360000D01*
X141250000Y-77000000D02*
X141250000Y-83800000D01*
X141250000Y-90600000D02*
X141250000Y-83800000D01*
X144200000Y-76250000D02*
X144200000Y-77000000D01*
X144200000Y-77000000D02*
X141250000Y-77000000D01*
X144200000Y-90600000D02*
X141250000Y-90600000D01*
X144200000Y-91350000D02*
X144200000Y-90600000D01*
X145700000Y-76250000D02*
X145700000Y-78050000D01*
X145700000Y-78050000D02*
X146450000Y-78050000D01*
X145700000Y-79550000D02*
X145700000Y-88050000D01*
X145700000Y-88050000D02*
X146450000Y-88050000D01*
X145700000Y-89550000D02*
X145700000Y-91350000D01*
X145700000Y-91350000D02*
X146450000Y-91350000D01*
X146450000Y-76250000D02*
X145700000Y-76250000D01*
X146450000Y-78050000D02*
X146450000Y-76250000D01*
X146450000Y-79550000D02*
X145700000Y-79550000D01*
X146450000Y-88050000D02*
X146450000Y-79550000D01*
X146450000Y-89550000D02*
X145700000Y-89550000D01*
X146450000Y-91350000D02*
X146450000Y-89550000D01*
X146460000Y-76240000D02*
X140490000Y-76240000D01*
X146460000Y-91360000D02*
X146460000Y-76240000D01*
X146750000Y-75950000D02*
X145500000Y-75950000D01*
X146750000Y-77200000D02*
X146750000Y-75950000D01*
%TO.C,R10*%
X119065000Y-78472936D02*
X119065000Y-78927064D01*
X120535000Y-78472936D02*
X120535000Y-78927064D01*
%TO.C,R6*%
X140265000Y-94227064D02*
X140265000Y-93772936D01*
X141735000Y-94227064D02*
X141735000Y-93772936D01*
%TO.C,C5*%
X119262500Y-82152500D02*
X120050000Y-82152500D01*
X119656250Y-81758750D02*
X119656250Y-82546250D01*
X120290000Y-81654437D02*
X120290000Y-82940000D01*
X120290000Y-81654437D02*
X121354437Y-80590000D01*
X120290000Y-86345563D02*
X120290000Y-85060000D01*
X120290000Y-86345563D02*
X121354437Y-87410000D01*
X121354437Y-80590000D02*
X127110000Y-80590000D01*
X121354437Y-87410000D02*
X127110000Y-87410000D01*
X127110000Y-80590000D02*
X127110000Y-82940000D01*
X127110000Y-87410000D02*
X127110000Y-85060000D01*
%TO.C,C13*%
X126765000Y-77161252D02*
X126765000Y-76638748D01*
X128235000Y-77161252D02*
X128235000Y-76638748D01*
%TO.C,D2*%
X142940000Y-51590000D02*
X143940000Y-51590000D01*
X142940000Y-53410000D02*
X142940000Y-51590000D01*
X142990000Y-53410000D02*
X142940000Y-53410000D01*
X144890000Y-53410000D02*
X144110000Y-53410000D01*
X145060000Y-51590000D02*
X146060000Y-51590000D01*
X146060000Y-51590000D02*
X146060000Y-53410000D01*
X146060000Y-53410000D02*
X146010000Y-53410000D01*
X144450000Y-54190000D02*
X144120000Y-53950000D01*
X144450000Y-53710000D01*
X144450000Y-54190000D01*
G36*
X144450000Y-54190000D02*
G01*
X144120000Y-53950000D01*
X144450000Y-53710000D01*
X144450000Y-54190000D01*
G37*
%TO.C,C7*%
X124565000Y-55161252D02*
X124565000Y-54638748D01*
X126035000Y-55161252D02*
X126035000Y-54638748D01*
%TO.C,J12*%
X108250000Y-67600000D02*
X108250000Y-68850000D01*
X108250000Y-68850000D02*
X109500000Y-68850000D01*
X108540000Y-55940000D02*
X108540000Y-68560000D01*
X108540000Y-68560000D02*
X114510000Y-68560000D01*
X108550000Y-55950000D02*
X108550000Y-57750000D01*
X108550000Y-57750000D02*
X109300000Y-57750000D01*
X108550000Y-59250000D02*
X108550000Y-65250000D01*
X108550000Y-65250000D02*
X109300000Y-65250000D01*
X108550000Y-66750000D02*
X108550000Y-68550000D01*
X108550000Y-68550000D02*
X109300000Y-68550000D01*
X109300000Y-55950000D02*
X108550000Y-55950000D01*
X109300000Y-57750000D02*
X109300000Y-55950000D01*
X109300000Y-59250000D02*
X108550000Y-59250000D01*
X109300000Y-65250000D02*
X109300000Y-59250000D01*
X109300000Y-66750000D02*
X108550000Y-66750000D01*
X109300000Y-68550000D02*
X109300000Y-66750000D01*
X110800000Y-55950000D02*
X110800000Y-56700000D01*
X110800000Y-56700000D02*
X113750000Y-56700000D01*
X110800000Y-67800000D02*
X113750000Y-67800000D01*
X110800000Y-68550000D02*
X110800000Y-67800000D01*
X113750000Y-56700000D02*
X113750000Y-62250000D01*
X113750000Y-67800000D02*
X113750000Y-62250000D01*
X114510000Y-55940000D02*
X108540000Y-55940000D01*
X114510000Y-68560000D02*
X114510000Y-55940000D01*
%TO.C,J16*%
X83460000Y-47820000D02*
X83460000Y-50580000D01*
X93730000Y-47820000D02*
X83460000Y-47820000D01*
X93730000Y-47820000D02*
X93730000Y-50580000D01*
X93730000Y-50580000D02*
X83460000Y-50580000D01*
X95000000Y-47820000D02*
X96380000Y-47820000D01*
X96380000Y-47820000D02*
X96380000Y-49200000D01*
%TO.C,C6*%
X101065000Y-55161252D02*
X101065000Y-54638748D01*
X102535000Y-55161252D02*
X102535000Y-54638748D01*
%TO.C,A3*%
X115915000Y-52060000D02*
X115915000Y-53460000D01*
X115915000Y-54730000D02*
X115915000Y-72640000D01*
X115915000Y-72640000D02*
X131415000Y-72640000D01*
X117315000Y-52060000D02*
X115915000Y-52060000D01*
X118585000Y-52060000D02*
X118585000Y-54730000D01*
X118585000Y-54730000D02*
X115915000Y-54730000D01*
X118585000Y-54730000D02*
X118585000Y-72640000D01*
X128745000Y-52060000D02*
X128745000Y-72640000D01*
X131415000Y-52060000D02*
X118585000Y-52060000D01*
X131415000Y-72640000D02*
X131415000Y-52060000D01*
%TO.C,C1*%
X144461252Y-57565000D02*
X143938748Y-57565000D01*
X144461252Y-59035000D02*
X143938748Y-59035000D01*
%TO.C,J7*%
X131895000Y-94380000D02*
X131895000Y-93000000D01*
X133275000Y-94380000D02*
X131895000Y-94380000D01*
X134545000Y-91620000D02*
X137195000Y-91620000D01*
X134545000Y-94380000D02*
X134545000Y-91620000D01*
X134545000Y-94380000D02*
X137195000Y-94380000D01*
X137195000Y-94380000D02*
X137195000Y-91620000D01*
%TO.C,J8*%
X96220000Y-66780000D02*
X104060000Y-66780000D01*
X96220000Y-69430000D02*
X96220000Y-66780000D01*
X96220000Y-72080000D02*
X96220000Y-70700000D01*
X97600000Y-72080000D02*
X96220000Y-72080000D01*
X98870000Y-69430000D02*
X96220000Y-69430000D01*
X98870000Y-72080000D02*
X98870000Y-69430000D01*
X98870000Y-72080000D02*
X104060000Y-72080000D01*
X104060000Y-72080000D02*
X104060000Y-66780000D01*
%TO.C,C4*%
X95762500Y-82152500D02*
X96550000Y-82152500D01*
X96156250Y-81758750D02*
X96156250Y-82546250D01*
X96790000Y-81654437D02*
X96790000Y-82940000D01*
X96790000Y-81654437D02*
X97854437Y-80590000D01*
X96790000Y-86345563D02*
X96790000Y-85060000D01*
X96790000Y-86345563D02*
X97854437Y-87410000D01*
X97854437Y-80590000D02*
X103610000Y-80590000D01*
X97854437Y-87410000D02*
X103610000Y-87410000D01*
X103610000Y-80590000D02*
X103610000Y-82940000D01*
X103610000Y-87410000D02*
X103610000Y-85060000D01*
%TO.C,C8*%
X101065000Y-77161252D02*
X101065000Y-76638748D01*
X102535000Y-77161252D02*
X102535000Y-76638748D01*
%TO.C,F1*%
X83640000Y-52240000D02*
X83640000Y-52040000D01*
X83640000Y-55960000D02*
X83640000Y-55760000D01*
X90360000Y-52040000D02*
X83640000Y-52040000D01*
X90360000Y-52240000D02*
X90360000Y-52040000D01*
X90360000Y-55960000D02*
X83640000Y-55960000D01*
X90360000Y-55960000D02*
X90360000Y-55760000D01*
%TO.C,J6*%
X148940000Y-84515000D02*
X148940000Y-90485000D01*
X148940000Y-90485000D02*
X159060000Y-90485000D01*
X148950000Y-88225000D02*
X149700000Y-88225000D01*
X148950000Y-89725000D02*
X148950000Y-90475000D01*
X148950000Y-90475000D02*
X150750000Y-90475000D01*
X149700000Y-85275000D02*
X154000000Y-85275000D01*
X149700000Y-88225000D02*
X149700000Y-85275000D01*
X150750000Y-89725000D02*
X148950000Y-89725000D01*
X150750000Y-90475000D02*
X150750000Y-89725000D01*
X152250000Y-89725000D02*
X152250000Y-90475000D01*
X152250000Y-90475000D02*
X155750000Y-90475000D01*
X155750000Y-89725000D02*
X152250000Y-89725000D01*
X155750000Y-90475000D02*
X155750000Y-89725000D01*
X157250000Y-89725000D02*
X157250000Y-90475000D01*
X157250000Y-90475000D02*
X159050000Y-90475000D01*
X158100000Y-90775000D02*
X159350000Y-90775000D01*
X158300000Y-85275000D02*
X154000000Y-85275000D01*
X158300000Y-88225000D02*
X158300000Y-85275000D01*
X159050000Y-88225000D02*
X158300000Y-88225000D01*
X159050000Y-89725000D02*
X157250000Y-89725000D01*
X159050000Y-90475000D02*
X159050000Y-89725000D01*
X159060000Y-84515000D02*
X148940000Y-84515000D01*
X159060000Y-90485000D02*
X159060000Y-84515000D01*
X159350000Y-90775000D02*
X159350000Y-89525000D01*
%TO.C,C2*%
X95762500Y-60152500D02*
X96550000Y-60152500D01*
X96156250Y-59758750D02*
X96156250Y-60546250D01*
X96790000Y-59654437D02*
X96790000Y-60940000D01*
X96790000Y-59654437D02*
X97854437Y-58590000D01*
X96790000Y-64345563D02*
X96790000Y-63060000D01*
X96790000Y-64345563D02*
X97854437Y-65410000D01*
X97854437Y-58590000D02*
X103610000Y-58590000D01*
X97854437Y-65410000D02*
X103610000Y-65410000D01*
X103610000Y-58590000D02*
X103610000Y-60940000D01*
X103610000Y-65410000D02*
X103610000Y-63060000D01*
%TO.C,J10*%
X96220000Y-88780000D02*
X104060000Y-88780000D01*
X96220000Y-91430000D02*
X96220000Y-88780000D01*
X96220000Y-94080000D02*
X96220000Y-92700000D01*
X97600000Y-94080000D02*
X96220000Y-94080000D01*
X98870000Y-91430000D02*
X96220000Y-91430000D01*
X98870000Y-94080000D02*
X98870000Y-91430000D01*
X98870000Y-94080000D02*
X104060000Y-94080000D01*
X104060000Y-94080000D02*
X104060000Y-88780000D01*
%TO.C,C12*%
X103265000Y-77161252D02*
X103265000Y-76638748D01*
X104735000Y-77161252D02*
X104735000Y-76638748D01*
%TO.C,A5*%
X115915000Y-74060000D02*
X115915000Y-75460000D01*
X115915000Y-76730000D02*
X115915000Y-94640000D01*
X115915000Y-94640000D02*
X131415000Y-94640000D01*
X117315000Y-74060000D02*
X115915000Y-74060000D01*
X118585000Y-74060000D02*
X118585000Y-76730000D01*
X118585000Y-76730000D02*
X115915000Y-76730000D01*
X118585000Y-76730000D02*
X118585000Y-94640000D01*
X128745000Y-74060000D02*
X128745000Y-94640000D01*
X131415000Y-74060000D02*
X118585000Y-74060000D01*
X131415000Y-94640000D02*
X131415000Y-74060000D01*
%TO.C,J11*%
X119720000Y-88780000D02*
X127560000Y-88780000D01*
X119720000Y-91430000D02*
X119720000Y-88780000D01*
X119720000Y-94080000D02*
X119720000Y-92700000D01*
X121100000Y-94080000D02*
X119720000Y-94080000D01*
X122370000Y-91430000D02*
X119720000Y-91430000D01*
X122370000Y-94080000D02*
X122370000Y-91430000D01*
X122370000Y-94080000D02*
X127560000Y-94080000D01*
X127560000Y-94080000D02*
X127560000Y-88780000D01*
%TO.C,R3*%
X140072936Y-57565000D02*
X140527064Y-57565000D01*
X140072936Y-59035000D02*
X140527064Y-59035000D01*
%TO.C,J4*%
X148940000Y-68490000D02*
X148940000Y-74460000D01*
X148940000Y-74460000D02*
X159060000Y-74460000D01*
X148950000Y-72200000D02*
X149700000Y-72200000D01*
X148950000Y-73700000D02*
X148950000Y-74450000D01*
X148950000Y-74450000D02*
X150750000Y-74450000D01*
X149700000Y-69250000D02*
X154000000Y-69250000D01*
X149700000Y-72200000D02*
X149700000Y-69250000D01*
X150750000Y-73700000D02*
X148950000Y-73700000D01*
X150750000Y-74450000D02*
X150750000Y-73700000D01*
X152250000Y-73700000D02*
X152250000Y-74450000D01*
X152250000Y-74450000D02*
X155750000Y-74450000D01*
X155750000Y-73700000D02*
X152250000Y-73700000D01*
X155750000Y-74450000D02*
X155750000Y-73700000D01*
X157250000Y-73700000D02*
X157250000Y-74450000D01*
X157250000Y-74450000D02*
X159050000Y-74450000D01*
X158100000Y-74750000D02*
X159350000Y-74750000D01*
X158300000Y-69250000D02*
X154000000Y-69250000D01*
X158300000Y-72200000D02*
X158300000Y-69250000D01*
X159050000Y-72200000D02*
X158300000Y-72200000D01*
X159050000Y-73700000D02*
X157250000Y-73700000D01*
X159050000Y-74450000D02*
X159050000Y-73700000D01*
X159060000Y-68490000D02*
X148940000Y-68490000D01*
X159060000Y-74460000D02*
X159060000Y-68490000D01*
X159350000Y-74750000D02*
X159350000Y-73500000D01*
%TD*%
M02*
