%TF.GenerationSoftware,KiCad,Pcbnew,9.0.6*%
%TF.CreationDate,2026-02-22T19:23:35+01:00*%
%TF.ProjectId,MPC01,4d504330-312e-46b6-9963-61645f706362,V0.1*%
%TF.SameCoordinates,Original*%
%TF.FileFunction,Legend,Bot*%
%TF.FilePolarity,Positive*%
%FSLAX46Y46*%
G04 Gerber Fmt 4.6, Leading zero omitted, Abs format (unit mm)*
G04 Created by KiCad (PCBNEW 9.0.6) date 2026-02-22 19:23:35*
%MOMM*%
%LPD*%
G01*
G04 APERTURE LIST*
%ADD10C,0.152400*%
%ADD11C,0.400000*%
%ADD12C,0.150000*%
G04 APERTURE END LIST*
D10*
X66771241Y-83177672D02*
X66771241Y-83642129D01*
X67584041Y-83409901D02*
X66771241Y-83409901D01*
X67584041Y-83913062D02*
X66771241Y-83913062D01*
X67584041Y-84261405D02*
X67158289Y-84261405D01*
X67158289Y-84261405D02*
X67080879Y-84222700D01*
X67080879Y-84222700D02*
X67042175Y-84145291D01*
X67042175Y-84145291D02*
X67042175Y-84029177D01*
X67042175Y-84029177D02*
X67080879Y-83951767D01*
X67080879Y-83951767D02*
X67119584Y-83913062D01*
X67584041Y-84648452D02*
X67042175Y-84648452D01*
X66771241Y-84648452D02*
X66809946Y-84609748D01*
X66809946Y-84609748D02*
X66848651Y-84648452D01*
X66848651Y-84648452D02*
X66809946Y-84687157D01*
X66809946Y-84687157D02*
X66771241Y-84648452D01*
X66771241Y-84648452D02*
X66848651Y-84648452D01*
X67545337Y-84996796D02*
X67584041Y-85074205D01*
X67584041Y-85074205D02*
X67584041Y-85229024D01*
X67584041Y-85229024D02*
X67545337Y-85306434D01*
X67545337Y-85306434D02*
X67467927Y-85345138D01*
X67467927Y-85345138D02*
X67429222Y-85345138D01*
X67429222Y-85345138D02*
X67351813Y-85306434D01*
X67351813Y-85306434D02*
X67313108Y-85229024D01*
X67313108Y-85229024D02*
X67313108Y-85112910D01*
X67313108Y-85112910D02*
X67274403Y-85035500D01*
X67274403Y-85035500D02*
X67196994Y-84996796D01*
X67196994Y-84996796D02*
X67158289Y-84996796D01*
X67158289Y-84996796D02*
X67080879Y-85035500D01*
X67080879Y-85035500D02*
X67042175Y-85112910D01*
X67042175Y-85112910D02*
X67042175Y-85229024D01*
X67042175Y-85229024D02*
X67080879Y-85306434D01*
X67584041Y-86312757D02*
X66771241Y-86312757D01*
X66771241Y-86312757D02*
X66771241Y-86622395D01*
X66771241Y-86622395D02*
X66809946Y-86699805D01*
X66809946Y-86699805D02*
X66848651Y-86738510D01*
X66848651Y-86738510D02*
X66926060Y-86777214D01*
X66926060Y-86777214D02*
X67042175Y-86777214D01*
X67042175Y-86777214D02*
X67119584Y-86738510D01*
X67119584Y-86738510D02*
X67158289Y-86699805D01*
X67158289Y-86699805D02*
X67196994Y-86622395D01*
X67196994Y-86622395D02*
X67196994Y-86312757D01*
X67584041Y-87125557D02*
X67042175Y-87125557D01*
X67196994Y-87125557D02*
X67119584Y-87164262D01*
X67119584Y-87164262D02*
X67080879Y-87202967D01*
X67080879Y-87202967D02*
X67042175Y-87280376D01*
X67042175Y-87280376D02*
X67042175Y-87357786D01*
X67584041Y-87744834D02*
X67545337Y-87667424D01*
X67545337Y-87667424D02*
X67506632Y-87628719D01*
X67506632Y-87628719D02*
X67429222Y-87590015D01*
X67429222Y-87590015D02*
X67196994Y-87590015D01*
X67196994Y-87590015D02*
X67119584Y-87628719D01*
X67119584Y-87628719D02*
X67080879Y-87667424D01*
X67080879Y-87667424D02*
X67042175Y-87744834D01*
X67042175Y-87744834D02*
X67042175Y-87860948D01*
X67042175Y-87860948D02*
X67080879Y-87938357D01*
X67080879Y-87938357D02*
X67119584Y-87977062D01*
X67119584Y-87977062D02*
X67196994Y-88015767D01*
X67196994Y-88015767D02*
X67429222Y-88015767D01*
X67429222Y-88015767D02*
X67506632Y-87977062D01*
X67506632Y-87977062D02*
X67545337Y-87938357D01*
X67545337Y-87938357D02*
X67584041Y-87860948D01*
X67584041Y-87860948D02*
X67584041Y-87744834D01*
X67584041Y-88712452D02*
X66771241Y-88712452D01*
X67545337Y-88712452D02*
X67584041Y-88635043D01*
X67584041Y-88635043D02*
X67584041Y-88480224D01*
X67584041Y-88480224D02*
X67545337Y-88402814D01*
X67545337Y-88402814D02*
X67506632Y-88364109D01*
X67506632Y-88364109D02*
X67429222Y-88325405D01*
X67429222Y-88325405D02*
X67196994Y-88325405D01*
X67196994Y-88325405D02*
X67119584Y-88364109D01*
X67119584Y-88364109D02*
X67080879Y-88402814D01*
X67080879Y-88402814D02*
X67042175Y-88480224D01*
X67042175Y-88480224D02*
X67042175Y-88635043D01*
X67042175Y-88635043D02*
X67080879Y-88712452D01*
X67042175Y-89447842D02*
X67584041Y-89447842D01*
X67042175Y-89099499D02*
X67467927Y-89099499D01*
X67467927Y-89099499D02*
X67545337Y-89138204D01*
X67545337Y-89138204D02*
X67584041Y-89215614D01*
X67584041Y-89215614D02*
X67584041Y-89331728D01*
X67584041Y-89331728D02*
X67545337Y-89409137D01*
X67545337Y-89409137D02*
X67506632Y-89447842D01*
X67545337Y-90183232D02*
X67584041Y-90105823D01*
X67584041Y-90105823D02*
X67584041Y-89951004D01*
X67584041Y-89951004D02*
X67545337Y-89873594D01*
X67545337Y-89873594D02*
X67506632Y-89834889D01*
X67506632Y-89834889D02*
X67429222Y-89796185D01*
X67429222Y-89796185D02*
X67196994Y-89796185D01*
X67196994Y-89796185D02*
X67119584Y-89834889D01*
X67119584Y-89834889D02*
X67080879Y-89873594D01*
X67080879Y-89873594D02*
X67042175Y-89951004D01*
X67042175Y-89951004D02*
X67042175Y-90105823D01*
X67042175Y-90105823D02*
X67080879Y-90183232D01*
X67042175Y-90415461D02*
X67042175Y-90725099D01*
X66771241Y-90531575D02*
X67467927Y-90531575D01*
X67467927Y-90531575D02*
X67545337Y-90570280D01*
X67545337Y-90570280D02*
X67584041Y-90647690D01*
X67584041Y-90647690D02*
X67584041Y-90725099D01*
X67584041Y-91615308D02*
X67042175Y-91615308D01*
X66771241Y-91615308D02*
X66809946Y-91576604D01*
X66809946Y-91576604D02*
X66848651Y-91615308D01*
X66848651Y-91615308D02*
X66809946Y-91654013D01*
X66809946Y-91654013D02*
X66771241Y-91615308D01*
X66771241Y-91615308D02*
X66848651Y-91615308D01*
X67545337Y-91963652D02*
X67584041Y-92041061D01*
X67584041Y-92041061D02*
X67584041Y-92195880D01*
X67584041Y-92195880D02*
X67545337Y-92273290D01*
X67545337Y-92273290D02*
X67467927Y-92311994D01*
X67467927Y-92311994D02*
X67429222Y-92311994D01*
X67429222Y-92311994D02*
X67351813Y-92273290D01*
X67351813Y-92273290D02*
X67313108Y-92195880D01*
X67313108Y-92195880D02*
X67313108Y-92079766D01*
X67313108Y-92079766D02*
X67274403Y-92002356D01*
X67274403Y-92002356D02*
X67196994Y-91963652D01*
X67196994Y-91963652D02*
X67158289Y-91963652D01*
X67158289Y-91963652D02*
X67080879Y-92002356D01*
X67080879Y-92002356D02*
X67042175Y-92079766D01*
X67042175Y-92079766D02*
X67042175Y-92195880D01*
X67042175Y-92195880D02*
X67080879Y-92273290D01*
X67584041Y-93627956D02*
X66771241Y-93627956D01*
X67545337Y-93627956D02*
X67584041Y-93550547D01*
X67584041Y-93550547D02*
X67584041Y-93395728D01*
X67584041Y-93395728D02*
X67545337Y-93318318D01*
X67545337Y-93318318D02*
X67506632Y-93279613D01*
X67506632Y-93279613D02*
X67429222Y-93240909D01*
X67429222Y-93240909D02*
X67196994Y-93240909D01*
X67196994Y-93240909D02*
X67119584Y-93279613D01*
X67119584Y-93279613D02*
X67080879Y-93318318D01*
X67080879Y-93318318D02*
X67042175Y-93395728D01*
X67042175Y-93395728D02*
X67042175Y-93550547D01*
X67042175Y-93550547D02*
X67080879Y-93627956D01*
X67545337Y-94324641D02*
X67584041Y-94247232D01*
X67584041Y-94247232D02*
X67584041Y-94092413D01*
X67584041Y-94092413D02*
X67545337Y-94015003D01*
X67545337Y-94015003D02*
X67467927Y-93976299D01*
X67467927Y-93976299D02*
X67158289Y-93976299D01*
X67158289Y-93976299D02*
X67080879Y-94015003D01*
X67080879Y-94015003D02*
X67042175Y-94092413D01*
X67042175Y-94092413D02*
X67042175Y-94247232D01*
X67042175Y-94247232D02*
X67080879Y-94324641D01*
X67080879Y-94324641D02*
X67158289Y-94363346D01*
X67158289Y-94363346D02*
X67235698Y-94363346D01*
X67235698Y-94363346D02*
X67313108Y-93976299D01*
X67545337Y-94672985D02*
X67584041Y-94750394D01*
X67584041Y-94750394D02*
X67584041Y-94905213D01*
X67584041Y-94905213D02*
X67545337Y-94982623D01*
X67545337Y-94982623D02*
X67467927Y-95021327D01*
X67467927Y-95021327D02*
X67429222Y-95021327D01*
X67429222Y-95021327D02*
X67351813Y-94982623D01*
X67351813Y-94982623D02*
X67313108Y-94905213D01*
X67313108Y-94905213D02*
X67313108Y-94789099D01*
X67313108Y-94789099D02*
X67274403Y-94711689D01*
X67274403Y-94711689D02*
X67196994Y-94672985D01*
X67196994Y-94672985D02*
X67158289Y-94672985D01*
X67158289Y-94672985D02*
X67080879Y-94711689D01*
X67080879Y-94711689D02*
X67042175Y-94789099D01*
X67042175Y-94789099D02*
X67042175Y-94905213D01*
X67042175Y-94905213D02*
X67080879Y-94982623D01*
X67584041Y-95369670D02*
X67042175Y-95369670D01*
X66771241Y-95369670D02*
X66809946Y-95330966D01*
X66809946Y-95330966D02*
X66848651Y-95369670D01*
X66848651Y-95369670D02*
X66809946Y-95408375D01*
X66809946Y-95408375D02*
X66771241Y-95369670D01*
X66771241Y-95369670D02*
X66848651Y-95369670D01*
X67042175Y-96105061D02*
X67700156Y-96105061D01*
X67700156Y-96105061D02*
X67777565Y-96066356D01*
X67777565Y-96066356D02*
X67816270Y-96027652D01*
X67816270Y-96027652D02*
X67854975Y-95950242D01*
X67854975Y-95950242D02*
X67854975Y-95834128D01*
X67854975Y-95834128D02*
X67816270Y-95756718D01*
X67545337Y-96105061D02*
X67584041Y-96027652D01*
X67584041Y-96027652D02*
X67584041Y-95872833D01*
X67584041Y-95872833D02*
X67545337Y-95795423D01*
X67545337Y-95795423D02*
X67506632Y-95756718D01*
X67506632Y-95756718D02*
X67429222Y-95718014D01*
X67429222Y-95718014D02*
X67196994Y-95718014D01*
X67196994Y-95718014D02*
X67119584Y-95756718D01*
X67119584Y-95756718D02*
X67080879Y-95795423D01*
X67080879Y-95795423D02*
X67042175Y-95872833D01*
X67042175Y-95872833D02*
X67042175Y-96027652D01*
X67042175Y-96027652D02*
X67080879Y-96105061D01*
X67042175Y-96492108D02*
X67584041Y-96492108D01*
X67119584Y-96492108D02*
X67080879Y-96530813D01*
X67080879Y-96530813D02*
X67042175Y-96608223D01*
X67042175Y-96608223D02*
X67042175Y-96724337D01*
X67042175Y-96724337D02*
X67080879Y-96801746D01*
X67080879Y-96801746D02*
X67158289Y-96840451D01*
X67158289Y-96840451D02*
X67584041Y-96840451D01*
X67545337Y-97537136D02*
X67584041Y-97459727D01*
X67584041Y-97459727D02*
X67584041Y-97304908D01*
X67584041Y-97304908D02*
X67545337Y-97227498D01*
X67545337Y-97227498D02*
X67467927Y-97188794D01*
X67467927Y-97188794D02*
X67158289Y-97188794D01*
X67158289Y-97188794D02*
X67080879Y-97227498D01*
X67080879Y-97227498D02*
X67042175Y-97304908D01*
X67042175Y-97304908D02*
X67042175Y-97459727D01*
X67042175Y-97459727D02*
X67080879Y-97537136D01*
X67080879Y-97537136D02*
X67158289Y-97575841D01*
X67158289Y-97575841D02*
X67235698Y-97575841D01*
X67235698Y-97575841D02*
X67313108Y-97188794D01*
X67584041Y-98272527D02*
X66771241Y-98272527D01*
X67545337Y-98272527D02*
X67584041Y-98195118D01*
X67584041Y-98195118D02*
X67584041Y-98040299D01*
X67584041Y-98040299D02*
X67545337Y-97962889D01*
X67545337Y-97962889D02*
X67506632Y-97924184D01*
X67506632Y-97924184D02*
X67429222Y-97885480D01*
X67429222Y-97885480D02*
X67196994Y-97885480D01*
X67196994Y-97885480D02*
X67119584Y-97924184D01*
X67119584Y-97924184D02*
X67080879Y-97962889D01*
X67080879Y-97962889D02*
X67042175Y-98040299D01*
X67042175Y-98040299D02*
X67042175Y-98195118D01*
X67042175Y-98195118D02*
X67080879Y-98272527D01*
X68892603Y-83642129D02*
X68466851Y-83642129D01*
X68466851Y-83642129D02*
X68389441Y-83603424D01*
X68389441Y-83603424D02*
X68350737Y-83526015D01*
X68350737Y-83526015D02*
X68350737Y-83371196D01*
X68350737Y-83371196D02*
X68389441Y-83293786D01*
X68853899Y-83642129D02*
X68892603Y-83564720D01*
X68892603Y-83564720D02*
X68892603Y-83371196D01*
X68892603Y-83371196D02*
X68853899Y-83293786D01*
X68853899Y-83293786D02*
X68776489Y-83255082D01*
X68776489Y-83255082D02*
X68699079Y-83255082D01*
X68699079Y-83255082D02*
X68621670Y-83293786D01*
X68621670Y-83293786D02*
X68582965Y-83371196D01*
X68582965Y-83371196D02*
X68582965Y-83564720D01*
X68582965Y-83564720D02*
X68544260Y-83642129D01*
X68350737Y-84029176D02*
X68892603Y-84029176D01*
X68428146Y-84029176D02*
X68389441Y-84067881D01*
X68389441Y-84067881D02*
X68350737Y-84145291D01*
X68350737Y-84145291D02*
X68350737Y-84261405D01*
X68350737Y-84261405D02*
X68389441Y-84338814D01*
X68389441Y-84338814D02*
X68466851Y-84377519D01*
X68466851Y-84377519D02*
X68892603Y-84377519D01*
X68892603Y-85112909D02*
X68079803Y-85112909D01*
X68853899Y-85112909D02*
X68892603Y-85035500D01*
X68892603Y-85035500D02*
X68892603Y-84880681D01*
X68892603Y-84880681D02*
X68853899Y-84803271D01*
X68853899Y-84803271D02*
X68815194Y-84764566D01*
X68815194Y-84764566D02*
X68737784Y-84725862D01*
X68737784Y-84725862D02*
X68505556Y-84725862D01*
X68505556Y-84725862D02*
X68428146Y-84764566D01*
X68428146Y-84764566D02*
X68389441Y-84803271D01*
X68389441Y-84803271D02*
X68350737Y-84880681D01*
X68350737Y-84880681D02*
X68350737Y-85035500D01*
X68350737Y-85035500D02*
X68389441Y-85112909D01*
X68892603Y-86119232D02*
X68350737Y-86119232D01*
X68428146Y-86119232D02*
X68389441Y-86157937D01*
X68389441Y-86157937D02*
X68350737Y-86235347D01*
X68350737Y-86235347D02*
X68350737Y-86351461D01*
X68350737Y-86351461D02*
X68389441Y-86428870D01*
X68389441Y-86428870D02*
X68466851Y-86467575D01*
X68466851Y-86467575D02*
X68892603Y-86467575D01*
X68466851Y-86467575D02*
X68389441Y-86506280D01*
X68389441Y-86506280D02*
X68350737Y-86583689D01*
X68350737Y-86583689D02*
X68350737Y-86699804D01*
X68350737Y-86699804D02*
X68389441Y-86777213D01*
X68389441Y-86777213D02*
X68466851Y-86815918D01*
X68466851Y-86815918D02*
X68892603Y-86815918D01*
X68892603Y-87551308D02*
X68466851Y-87551308D01*
X68466851Y-87551308D02*
X68389441Y-87512603D01*
X68389441Y-87512603D02*
X68350737Y-87435194D01*
X68350737Y-87435194D02*
X68350737Y-87280375D01*
X68350737Y-87280375D02*
X68389441Y-87202965D01*
X68853899Y-87551308D02*
X68892603Y-87473899D01*
X68892603Y-87473899D02*
X68892603Y-87280375D01*
X68892603Y-87280375D02*
X68853899Y-87202965D01*
X68853899Y-87202965D02*
X68776489Y-87164261D01*
X68776489Y-87164261D02*
X68699079Y-87164261D01*
X68699079Y-87164261D02*
X68621670Y-87202965D01*
X68621670Y-87202965D02*
X68582965Y-87280375D01*
X68582965Y-87280375D02*
X68582965Y-87473899D01*
X68582965Y-87473899D02*
X68544260Y-87551308D01*
X68892603Y-88286698D02*
X68079803Y-88286698D01*
X68853899Y-88286698D02*
X68892603Y-88209289D01*
X68892603Y-88209289D02*
X68892603Y-88054470D01*
X68892603Y-88054470D02*
X68853899Y-87977060D01*
X68853899Y-87977060D02*
X68815194Y-87938355D01*
X68815194Y-87938355D02*
X68737784Y-87899651D01*
X68737784Y-87899651D02*
X68505556Y-87899651D01*
X68505556Y-87899651D02*
X68428146Y-87938355D01*
X68428146Y-87938355D02*
X68389441Y-87977060D01*
X68389441Y-87977060D02*
X68350737Y-88054470D01*
X68350737Y-88054470D02*
X68350737Y-88209289D01*
X68350737Y-88209289D02*
X68389441Y-88286698D01*
X68853899Y-88983383D02*
X68892603Y-88905974D01*
X68892603Y-88905974D02*
X68892603Y-88751155D01*
X68892603Y-88751155D02*
X68853899Y-88673745D01*
X68853899Y-88673745D02*
X68776489Y-88635041D01*
X68776489Y-88635041D02*
X68466851Y-88635041D01*
X68466851Y-88635041D02*
X68389441Y-88673745D01*
X68389441Y-88673745D02*
X68350737Y-88751155D01*
X68350737Y-88751155D02*
X68350737Y-88905974D01*
X68350737Y-88905974D02*
X68389441Y-88983383D01*
X68389441Y-88983383D02*
X68466851Y-89022088D01*
X68466851Y-89022088D02*
X68544260Y-89022088D01*
X68544260Y-89022088D02*
X68621670Y-88635041D01*
X68350737Y-89873593D02*
X68350737Y-90183231D01*
X68892603Y-89989707D02*
X68195918Y-89989707D01*
X68195918Y-89989707D02*
X68118508Y-90028412D01*
X68118508Y-90028412D02*
X68079803Y-90105822D01*
X68079803Y-90105822D02*
X68079803Y-90183231D01*
X68892603Y-90570279D02*
X68853899Y-90492869D01*
X68853899Y-90492869D02*
X68815194Y-90454164D01*
X68815194Y-90454164D02*
X68737784Y-90415460D01*
X68737784Y-90415460D02*
X68505556Y-90415460D01*
X68505556Y-90415460D02*
X68428146Y-90454164D01*
X68428146Y-90454164D02*
X68389441Y-90492869D01*
X68389441Y-90492869D02*
X68350737Y-90570279D01*
X68350737Y-90570279D02*
X68350737Y-90686393D01*
X68350737Y-90686393D02*
X68389441Y-90763802D01*
X68389441Y-90763802D02*
X68428146Y-90802507D01*
X68428146Y-90802507D02*
X68505556Y-90841212D01*
X68505556Y-90841212D02*
X68737784Y-90841212D01*
X68737784Y-90841212D02*
X68815194Y-90802507D01*
X68815194Y-90802507D02*
X68853899Y-90763802D01*
X68853899Y-90763802D02*
X68892603Y-90686393D01*
X68892603Y-90686393D02*
X68892603Y-90570279D01*
X68892603Y-91189554D02*
X68350737Y-91189554D01*
X68505556Y-91189554D02*
X68428146Y-91228259D01*
X68428146Y-91228259D02*
X68389441Y-91266964D01*
X68389441Y-91266964D02*
X68350737Y-91344373D01*
X68350737Y-91344373D02*
X68350737Y-91421783D01*
X68892603Y-92311992D02*
X68079803Y-92311992D01*
X68892603Y-92776449D02*
X68428146Y-92428107D01*
X68079803Y-92776449D02*
X68544260Y-92311992D01*
X68079803Y-93008678D02*
X68079803Y-93473135D01*
X68892603Y-93240907D02*
X68079803Y-93240907D01*
X68892603Y-94131116D02*
X68892603Y-93744068D01*
X68892603Y-93744068D02*
X68079803Y-93744068D01*
X68660375Y-94363345D02*
X68660375Y-94750392D01*
X68892603Y-94285935D02*
X68079803Y-94556868D01*
X68079803Y-94556868D02*
X68892603Y-94827802D01*
X68041099Y-95679307D02*
X69086127Y-94982621D01*
X68892603Y-96337288D02*
X68892603Y-95950240D01*
X68892603Y-95950240D02*
X68079803Y-95950240D01*
X68892603Y-96608221D02*
X68350737Y-96608221D01*
X68079803Y-96608221D02*
X68118508Y-96569517D01*
X68118508Y-96569517D02*
X68157213Y-96608221D01*
X68157213Y-96608221D02*
X68118508Y-96646926D01*
X68118508Y-96646926D02*
X68079803Y-96608221D01*
X68079803Y-96608221D02*
X68157213Y-96608221D01*
X68350737Y-96879155D02*
X68350737Y-97188793D01*
X68079803Y-96995269D02*
X68776489Y-96995269D01*
X68776489Y-96995269D02*
X68853899Y-97033974D01*
X68853899Y-97033974D02*
X68892603Y-97111384D01*
X68892603Y-97111384D02*
X68892603Y-97188793D01*
X68853899Y-97769364D02*
X68892603Y-97691955D01*
X68892603Y-97691955D02*
X68892603Y-97537136D01*
X68892603Y-97537136D02*
X68853899Y-97459726D01*
X68853899Y-97459726D02*
X68776489Y-97421022D01*
X68776489Y-97421022D02*
X68466851Y-97421022D01*
X68466851Y-97421022D02*
X68389441Y-97459726D01*
X68389441Y-97459726D02*
X68350737Y-97537136D01*
X68350737Y-97537136D02*
X68350737Y-97691955D01*
X68350737Y-97691955D02*
X68389441Y-97769364D01*
X68389441Y-97769364D02*
X68466851Y-97808069D01*
X68466851Y-97808069D02*
X68544260Y-97808069D01*
X68544260Y-97808069D02*
X68621670Y-97421022D01*
X68853899Y-98504755D02*
X68892603Y-98427346D01*
X68892603Y-98427346D02*
X68892603Y-98272527D01*
X68892603Y-98272527D02*
X68853899Y-98195117D01*
X68853899Y-98195117D02*
X68815194Y-98156412D01*
X68815194Y-98156412D02*
X68737784Y-98117708D01*
X68737784Y-98117708D02*
X68505556Y-98117708D01*
X68505556Y-98117708D02*
X68428146Y-98156412D01*
X68428146Y-98156412D02*
X68389441Y-98195117D01*
X68389441Y-98195117D02*
X68350737Y-98272527D01*
X68350737Y-98272527D02*
X68350737Y-98427346D01*
X68350737Y-98427346D02*
X68389441Y-98504755D01*
X90144917Y-95140089D02*
X90106213Y-95101384D01*
X90106213Y-95101384D02*
X90028803Y-95062679D01*
X90028803Y-95062679D02*
X89835279Y-95062679D01*
X89835279Y-95062679D02*
X89757870Y-95101384D01*
X89757870Y-95101384D02*
X89719165Y-95140089D01*
X89719165Y-95140089D02*
X89680460Y-95217498D01*
X89680460Y-95217498D02*
X89680460Y-95294908D01*
X89680460Y-95294908D02*
X89719165Y-95411022D01*
X89719165Y-95411022D02*
X90183622Y-95875479D01*
X90183622Y-95875479D02*
X89680460Y-95875479D01*
X89177299Y-95062679D02*
X89099889Y-95062679D01*
X89099889Y-95062679D02*
X89022480Y-95101384D01*
X89022480Y-95101384D02*
X88983775Y-95140089D01*
X88983775Y-95140089D02*
X88945070Y-95217498D01*
X88945070Y-95217498D02*
X88906365Y-95372317D01*
X88906365Y-95372317D02*
X88906365Y-95565841D01*
X88906365Y-95565841D02*
X88945070Y-95720660D01*
X88945070Y-95720660D02*
X88983775Y-95798070D01*
X88983775Y-95798070D02*
X89022480Y-95836775D01*
X89022480Y-95836775D02*
X89099889Y-95875479D01*
X89099889Y-95875479D02*
X89177299Y-95875479D01*
X89177299Y-95875479D02*
X89254708Y-95836775D01*
X89254708Y-95836775D02*
X89293413Y-95798070D01*
X89293413Y-95798070D02*
X89332118Y-95720660D01*
X89332118Y-95720660D02*
X89370822Y-95565841D01*
X89370822Y-95565841D02*
X89370822Y-95372317D01*
X89370822Y-95372317D02*
X89332118Y-95217498D01*
X89332118Y-95217498D02*
X89293413Y-95140089D01*
X89293413Y-95140089D02*
X89254708Y-95101384D01*
X89254708Y-95101384D02*
X89177299Y-95062679D01*
X88596727Y-95140089D02*
X88558023Y-95101384D01*
X88558023Y-95101384D02*
X88480613Y-95062679D01*
X88480613Y-95062679D02*
X88287089Y-95062679D01*
X88287089Y-95062679D02*
X88209680Y-95101384D01*
X88209680Y-95101384D02*
X88170975Y-95140089D01*
X88170975Y-95140089D02*
X88132270Y-95217498D01*
X88132270Y-95217498D02*
X88132270Y-95294908D01*
X88132270Y-95294908D02*
X88170975Y-95411022D01*
X88170975Y-95411022D02*
X88635432Y-95875479D01*
X88635432Y-95875479D02*
X88132270Y-95875479D01*
X87435585Y-95062679D02*
X87590404Y-95062679D01*
X87590404Y-95062679D02*
X87667813Y-95101384D01*
X87667813Y-95101384D02*
X87706518Y-95140089D01*
X87706518Y-95140089D02*
X87783928Y-95256203D01*
X87783928Y-95256203D02*
X87822632Y-95411022D01*
X87822632Y-95411022D02*
X87822632Y-95720660D01*
X87822632Y-95720660D02*
X87783928Y-95798070D01*
X87783928Y-95798070D02*
X87745223Y-95836775D01*
X87745223Y-95836775D02*
X87667813Y-95875479D01*
X87667813Y-95875479D02*
X87512994Y-95875479D01*
X87512994Y-95875479D02*
X87435585Y-95836775D01*
X87435585Y-95836775D02*
X87396880Y-95798070D01*
X87396880Y-95798070D02*
X87358175Y-95720660D01*
X87358175Y-95720660D02*
X87358175Y-95527136D01*
X87358175Y-95527136D02*
X87396880Y-95449727D01*
X87396880Y-95449727D02*
X87435585Y-95411022D01*
X87435585Y-95411022D02*
X87512994Y-95372317D01*
X87512994Y-95372317D02*
X87667813Y-95372317D01*
X87667813Y-95372317D02*
X87745223Y-95411022D01*
X87745223Y-95411022D02*
X87783928Y-95449727D01*
X87783928Y-95449727D02*
X87822632Y-95527136D01*
X86429261Y-95023975D02*
X87125947Y-96069003D01*
X86003509Y-95062679D02*
X85926099Y-95062679D01*
X85926099Y-95062679D02*
X85848690Y-95101384D01*
X85848690Y-95101384D02*
X85809985Y-95140089D01*
X85809985Y-95140089D02*
X85771280Y-95217498D01*
X85771280Y-95217498D02*
X85732575Y-95372317D01*
X85732575Y-95372317D02*
X85732575Y-95565841D01*
X85732575Y-95565841D02*
X85771280Y-95720660D01*
X85771280Y-95720660D02*
X85809985Y-95798070D01*
X85809985Y-95798070D02*
X85848690Y-95836775D01*
X85848690Y-95836775D02*
X85926099Y-95875479D01*
X85926099Y-95875479D02*
X86003509Y-95875479D01*
X86003509Y-95875479D02*
X86080918Y-95836775D01*
X86080918Y-95836775D02*
X86119623Y-95798070D01*
X86119623Y-95798070D02*
X86158328Y-95720660D01*
X86158328Y-95720660D02*
X86197032Y-95565841D01*
X86197032Y-95565841D02*
X86197032Y-95372317D01*
X86197032Y-95372317D02*
X86158328Y-95217498D01*
X86158328Y-95217498D02*
X86119623Y-95140089D01*
X86119623Y-95140089D02*
X86080918Y-95101384D01*
X86080918Y-95101384D02*
X86003509Y-95062679D01*
X85422937Y-95140089D02*
X85384233Y-95101384D01*
X85384233Y-95101384D02*
X85306823Y-95062679D01*
X85306823Y-95062679D02*
X85113299Y-95062679D01*
X85113299Y-95062679D02*
X85035890Y-95101384D01*
X85035890Y-95101384D02*
X84997185Y-95140089D01*
X84997185Y-95140089D02*
X84958480Y-95217498D01*
X84958480Y-95217498D02*
X84958480Y-95294908D01*
X84958480Y-95294908D02*
X84997185Y-95411022D01*
X84997185Y-95411022D02*
X85461642Y-95875479D01*
X85461642Y-95875479D02*
X84958480Y-95875479D01*
X90222327Y-96371241D02*
X89951394Y-97184041D01*
X89951394Y-97184041D02*
X89680460Y-96371241D01*
X89254708Y-96371241D02*
X89177298Y-96371241D01*
X89177298Y-96371241D02*
X89099889Y-96409946D01*
X89099889Y-96409946D02*
X89061184Y-96448651D01*
X89061184Y-96448651D02*
X89022479Y-96526060D01*
X89022479Y-96526060D02*
X88983774Y-96680879D01*
X88983774Y-96680879D02*
X88983774Y-96874403D01*
X88983774Y-96874403D02*
X89022479Y-97029222D01*
X89022479Y-97029222D02*
X89061184Y-97106632D01*
X89061184Y-97106632D02*
X89099889Y-97145337D01*
X89099889Y-97145337D02*
X89177298Y-97184041D01*
X89177298Y-97184041D02*
X89254708Y-97184041D01*
X89254708Y-97184041D02*
X89332117Y-97145337D01*
X89332117Y-97145337D02*
X89370822Y-97106632D01*
X89370822Y-97106632D02*
X89409527Y-97029222D01*
X89409527Y-97029222D02*
X89448231Y-96874403D01*
X89448231Y-96874403D02*
X89448231Y-96680879D01*
X89448231Y-96680879D02*
X89409527Y-96526060D01*
X89409527Y-96526060D02*
X89370822Y-96448651D01*
X89370822Y-96448651D02*
X89332117Y-96409946D01*
X89332117Y-96409946D02*
X89254708Y-96371241D01*
X88635432Y-97106632D02*
X88596727Y-97145337D01*
X88596727Y-97145337D02*
X88635432Y-97184041D01*
X88635432Y-97184041D02*
X88674136Y-97145337D01*
X88674136Y-97145337D02*
X88635432Y-97106632D01*
X88635432Y-97106632D02*
X88635432Y-97184041D01*
X87822631Y-97184041D02*
X88287088Y-97184041D01*
X88054860Y-97184041D02*
X88054860Y-96371241D01*
X88054860Y-96371241D02*
X88132269Y-96487356D01*
X88132269Y-96487356D02*
X88209679Y-96564765D01*
X88209679Y-96564765D02*
X88287088Y-96603470D01*
X87474289Y-97184041D02*
X87474289Y-96371241D01*
X87474289Y-96680879D02*
X87396879Y-96642175D01*
X87396879Y-96642175D02*
X87242060Y-96642175D01*
X87242060Y-96642175D02*
X87164651Y-96680879D01*
X87164651Y-96680879D02*
X87125946Y-96719584D01*
X87125946Y-96719584D02*
X87087241Y-96796994D01*
X87087241Y-96796994D02*
X87087241Y-97029222D01*
X87087241Y-97029222D02*
X87125946Y-97106632D01*
X87125946Y-97106632D02*
X87164651Y-97145337D01*
X87164651Y-97145337D02*
X87242060Y-97184041D01*
X87242060Y-97184041D02*
X87396879Y-97184041D01*
X87396879Y-97184041D02*
X87474289Y-97145337D01*
X90106213Y-98066851D02*
X89835279Y-98066851D01*
X89719165Y-98492603D02*
X90106213Y-98492603D01*
X90106213Y-98492603D02*
X90106213Y-97679803D01*
X90106213Y-97679803D02*
X89719165Y-97679803D01*
X89022480Y-98492603D02*
X89022480Y-97679803D01*
X89022480Y-98453899D02*
X89099889Y-98492603D01*
X89099889Y-98492603D02*
X89254708Y-98492603D01*
X89254708Y-98492603D02*
X89332118Y-98453899D01*
X89332118Y-98453899D02*
X89370823Y-98415194D01*
X89370823Y-98415194D02*
X89409527Y-98337784D01*
X89409527Y-98337784D02*
X89409527Y-98105556D01*
X89409527Y-98105556D02*
X89370823Y-98028146D01*
X89370823Y-98028146D02*
X89332118Y-97989441D01*
X89332118Y-97989441D02*
X89254708Y-97950737D01*
X89254708Y-97950737D02*
X89099889Y-97950737D01*
X89099889Y-97950737D02*
X89022480Y-97989441D01*
X88635433Y-98492603D02*
X88635433Y-97950737D01*
X88635433Y-97679803D02*
X88674137Y-97718508D01*
X88674137Y-97718508D02*
X88635433Y-97757213D01*
X88635433Y-97757213D02*
X88596728Y-97718508D01*
X88596728Y-97718508D02*
X88635433Y-97679803D01*
X88635433Y-97679803D02*
X88635433Y-97757213D01*
X88364499Y-97950737D02*
X88054861Y-97950737D01*
X88248385Y-97679803D02*
X88248385Y-98376489D01*
X88248385Y-98376489D02*
X88209680Y-98453899D01*
X88209680Y-98453899D02*
X88132270Y-98492603D01*
X88132270Y-98492603D02*
X88054861Y-98492603D01*
X87474290Y-98453899D02*
X87551699Y-98492603D01*
X87551699Y-98492603D02*
X87706518Y-98492603D01*
X87706518Y-98492603D02*
X87783928Y-98453899D01*
X87783928Y-98453899D02*
X87822632Y-98376489D01*
X87822632Y-98376489D02*
X87822632Y-98066851D01*
X87822632Y-98066851D02*
X87783928Y-97989441D01*
X87783928Y-97989441D02*
X87706518Y-97950737D01*
X87706518Y-97950737D02*
X87551699Y-97950737D01*
X87551699Y-97950737D02*
X87474290Y-97989441D01*
X87474290Y-97989441D02*
X87435585Y-98066851D01*
X87435585Y-98066851D02*
X87435585Y-98144260D01*
X87435585Y-98144260D02*
X87822632Y-98221670D01*
X86738899Y-98492603D02*
X86738899Y-97679803D01*
X86738899Y-98453899D02*
X86816308Y-98492603D01*
X86816308Y-98492603D02*
X86971127Y-98492603D01*
X86971127Y-98492603D02*
X87048537Y-98453899D01*
X87048537Y-98453899D02*
X87087242Y-98415194D01*
X87087242Y-98415194D02*
X87125946Y-98337784D01*
X87125946Y-98337784D02*
X87125946Y-98105556D01*
X87125946Y-98105556D02*
X87087242Y-98028146D01*
X87087242Y-98028146D02*
X87048537Y-97989441D01*
X87048537Y-97989441D02*
X86971127Y-97950737D01*
X86971127Y-97950737D02*
X86816308Y-97950737D01*
X86816308Y-97950737D02*
X86738899Y-97989441D01*
X85732576Y-98492603D02*
X85732576Y-97679803D01*
X85732576Y-97989441D02*
X85655166Y-97950737D01*
X85655166Y-97950737D02*
X85500347Y-97950737D01*
X85500347Y-97950737D02*
X85422938Y-97989441D01*
X85422938Y-97989441D02*
X85384233Y-98028146D01*
X85384233Y-98028146D02*
X85345528Y-98105556D01*
X85345528Y-98105556D02*
X85345528Y-98337784D01*
X85345528Y-98337784D02*
X85384233Y-98415194D01*
X85384233Y-98415194D02*
X85422938Y-98453899D01*
X85422938Y-98453899D02*
X85500347Y-98492603D01*
X85500347Y-98492603D02*
X85655166Y-98492603D01*
X85655166Y-98492603D02*
X85732576Y-98453899D01*
X85074595Y-97950737D02*
X84881071Y-98492603D01*
X84687548Y-97950737D02*
X84881071Y-98492603D01*
X84881071Y-98492603D02*
X84958481Y-98686127D01*
X84958481Y-98686127D02*
X84997186Y-98724832D01*
X84997186Y-98724832D02*
X85074595Y-98763537D01*
X84377910Y-98415194D02*
X84339205Y-98453899D01*
X84339205Y-98453899D02*
X84377910Y-98492603D01*
X84377910Y-98492603D02*
X84416614Y-98453899D01*
X84416614Y-98453899D02*
X84377910Y-98415194D01*
X84377910Y-98415194D02*
X84377910Y-98492603D01*
X84377910Y-97989441D02*
X84339205Y-98028146D01*
X84339205Y-98028146D02*
X84377910Y-98066851D01*
X84377910Y-98066851D02*
X84416614Y-98028146D01*
X84416614Y-98028146D02*
X84377910Y-97989441D01*
X84377910Y-97989441D02*
X84377910Y-98066851D01*
X83371586Y-98492603D02*
X83371586Y-97679803D01*
X82907129Y-98492603D02*
X83255471Y-98028146D01*
X82907129Y-97679803D02*
X83371586Y-98144260D01*
X82326557Y-97679803D02*
X82326557Y-98260375D01*
X82326557Y-98260375D02*
X82365262Y-98376489D01*
X82365262Y-98376489D02*
X82442671Y-98453899D01*
X82442671Y-98453899D02*
X82558786Y-98492603D01*
X82558786Y-98492603D02*
X82636195Y-98492603D01*
D11*
X76460652Y-59334438D02*
X76460652Y-57334438D01*
X76460652Y-57334438D02*
X75793985Y-58763009D01*
X75793985Y-58763009D02*
X75127319Y-57334438D01*
X75127319Y-57334438D02*
X75127319Y-59334438D01*
X74174938Y-59334438D02*
X74174938Y-57334438D01*
X74174938Y-57334438D02*
X73413033Y-57334438D01*
X73413033Y-57334438D02*
X73222557Y-57429676D01*
X73222557Y-57429676D02*
X73127319Y-57524914D01*
X73127319Y-57524914D02*
X73032081Y-57715390D01*
X73032081Y-57715390D02*
X73032081Y-58001104D01*
X73032081Y-58001104D02*
X73127319Y-58191580D01*
X73127319Y-58191580D02*
X73222557Y-58286819D01*
X73222557Y-58286819D02*
X73413033Y-58382057D01*
X73413033Y-58382057D02*
X74174938Y-58382057D01*
X71032081Y-59143961D02*
X71127319Y-59239200D01*
X71127319Y-59239200D02*
X71413033Y-59334438D01*
X71413033Y-59334438D02*
X71603509Y-59334438D01*
X71603509Y-59334438D02*
X71889224Y-59239200D01*
X71889224Y-59239200D02*
X72079700Y-59048723D01*
X72079700Y-59048723D02*
X72174938Y-58858247D01*
X72174938Y-58858247D02*
X72270176Y-58477295D01*
X72270176Y-58477295D02*
X72270176Y-58191580D01*
X72270176Y-58191580D02*
X72174938Y-57810628D01*
X72174938Y-57810628D02*
X72079700Y-57620152D01*
X72079700Y-57620152D02*
X71889224Y-57429676D01*
X71889224Y-57429676D02*
X71603509Y-57334438D01*
X71603509Y-57334438D02*
X71413033Y-57334438D01*
X71413033Y-57334438D02*
X71127319Y-57429676D01*
X71127319Y-57429676D02*
X71032081Y-57524914D01*
X69793986Y-57334438D02*
X69603509Y-57334438D01*
X69603509Y-57334438D02*
X69413033Y-57429676D01*
X69413033Y-57429676D02*
X69317795Y-57524914D01*
X69317795Y-57524914D02*
X69222557Y-57715390D01*
X69222557Y-57715390D02*
X69127319Y-58096342D01*
X69127319Y-58096342D02*
X69127319Y-58572533D01*
X69127319Y-58572533D02*
X69222557Y-58953485D01*
X69222557Y-58953485D02*
X69317795Y-59143961D01*
X69317795Y-59143961D02*
X69413033Y-59239200D01*
X69413033Y-59239200D02*
X69603509Y-59334438D01*
X69603509Y-59334438D02*
X69793986Y-59334438D01*
X69793986Y-59334438D02*
X69984462Y-59239200D01*
X69984462Y-59239200D02*
X70079700Y-59143961D01*
X70079700Y-59143961D02*
X70174938Y-58953485D01*
X70174938Y-58953485D02*
X70270176Y-58572533D01*
X70270176Y-58572533D02*
X70270176Y-58096342D01*
X70270176Y-58096342D02*
X70174938Y-57715390D01*
X70174938Y-57715390D02*
X70079700Y-57524914D01*
X70079700Y-57524914D02*
X69984462Y-57429676D01*
X69984462Y-57429676D02*
X69793986Y-57334438D01*
X67222557Y-59334438D02*
X68365414Y-59334438D01*
X67793986Y-59334438D02*
X67793986Y-57334438D01*
X67793986Y-57334438D02*
X67984462Y-57620152D01*
X67984462Y-57620152D02*
X68174938Y-57810628D01*
X68174938Y-57810628D02*
X68365414Y-57905866D01*
D12*
X83254285Y-45813104D02*
X82778095Y-45813104D01*
X83349523Y-46098819D02*
X83016190Y-45098819D01*
X83016190Y-45098819D02*
X82682857Y-46098819D01*
X81825714Y-46098819D02*
X82397142Y-46098819D01*
X82111428Y-46098819D02*
X82111428Y-45098819D01*
X82111428Y-45098819D02*
X82206666Y-45241676D01*
X82206666Y-45241676D02*
X82301904Y-45336914D01*
X82301904Y-45336914D02*
X82397142Y-45384533D01*
%TO.C,A1*%
X80000000Y-46660000D02*
X80000000Y-100000000D01*
X80000000Y-46660000D02*
X144516000Y-46660000D01*
X80000000Y-100000000D02*
X146040000Y-100000000D01*
X144516000Y-46660000D02*
X146040000Y-48184000D01*
X146040000Y-59360000D02*
X146040000Y-48184000D01*
X146040000Y-98730000D02*
X148580000Y-96190000D01*
X146040000Y-100000000D02*
X146040000Y-98730000D01*
X148580000Y-61900000D02*
X146040000Y-59360000D01*
X148580000Y-96190000D02*
X148580000Y-61900000D01*
%TD*%
M02*
