%TF.GenerationSoftware,KiCad,Pcbnew,9.0.6*%
%TF.CreationDate,2026-02-21T20:52:03+01:00*%
%TF.ProjectId,MPC01,4d504330-312e-46b6-9963-61645f706362,V0.1*%
%TF.SameCoordinates,Original*%
%TF.FileFunction,Legend,Bot*%
%TF.FilePolarity,Positive*%
%FSLAX46Y46*%
G04 Gerber Fmt 4.6, Leading zero omitted, Abs format (unit mm)*
G04 Created by KiCad (PCBNEW 9.0.6) date 2026-02-21 20:52:03*
%MOMM*%
%LPD*%
G01*
G04 APERTURE LIST*
%ADD10C,0.150000*%
G04 APERTURE END LIST*
D10*
X83254285Y-45813104D02*
X82778095Y-45813104D01*
X83349523Y-46098819D02*
X83016190Y-45098819D01*
X83016190Y-45098819D02*
X82682857Y-46098819D01*
X81825714Y-46098819D02*
X82397142Y-46098819D01*
X82111428Y-46098819D02*
X82111428Y-45098819D01*
X82111428Y-45098819D02*
X82206666Y-45241676D01*
X82206666Y-45241676D02*
X82301904Y-45336914D01*
X82301904Y-45336914D02*
X82397142Y-45384533D01*
X144238094Y-51559819D02*
X144238094Y-50559819D01*
X144238094Y-50559819D02*
X143999999Y-50559819D01*
X143999999Y-50559819D02*
X143857142Y-50607438D01*
X143857142Y-50607438D02*
X143761904Y-50702676D01*
X143761904Y-50702676D02*
X143714285Y-50797914D01*
X143714285Y-50797914D02*
X143666666Y-50988390D01*
X143666666Y-50988390D02*
X143666666Y-51131247D01*
X143666666Y-51131247D02*
X143714285Y-51321723D01*
X143714285Y-51321723D02*
X143761904Y-51416961D01*
X143761904Y-51416961D02*
X143857142Y-51512200D01*
X143857142Y-51512200D02*
X143999999Y-51559819D01*
X143999999Y-51559819D02*
X144238094Y-51559819D01*
X143047618Y-50559819D02*
X142952380Y-50559819D01*
X142952380Y-50559819D02*
X142857142Y-50607438D01*
X142857142Y-50607438D02*
X142809523Y-50655057D01*
X142809523Y-50655057D02*
X142761904Y-50750295D01*
X142761904Y-50750295D02*
X142714285Y-50940771D01*
X142714285Y-50940771D02*
X142714285Y-51178866D01*
X142714285Y-51178866D02*
X142761904Y-51369342D01*
X142761904Y-51369342D02*
X142809523Y-51464580D01*
X142809523Y-51464580D02*
X142857142Y-51512200D01*
X142857142Y-51512200D02*
X142952380Y-51559819D01*
X142952380Y-51559819D02*
X143047618Y-51559819D01*
X143047618Y-51559819D02*
X143142856Y-51512200D01*
X143142856Y-51512200D02*
X143190475Y-51464580D01*
X143190475Y-51464580D02*
X143238094Y-51369342D01*
X143238094Y-51369342D02*
X143285713Y-51178866D01*
X143285713Y-51178866D02*
X143285713Y-50940771D01*
X143285713Y-50940771D02*
X143238094Y-50750295D01*
X143238094Y-50750295D02*
X143190475Y-50655057D01*
X143190475Y-50655057D02*
X143142856Y-50607438D01*
X143142856Y-50607438D02*
X143047618Y-50559819D01*
%TO.C,A1*%
X148580000Y-96190000D02*
X148580000Y-61900000D01*
X148580000Y-61900000D02*
X146040000Y-59360000D01*
X146040000Y-100000000D02*
X146040000Y-98730000D01*
X146040000Y-98730000D02*
X148580000Y-96190000D01*
X146040000Y-59360000D02*
X146040000Y-48184000D01*
X144516000Y-46660000D02*
X146040000Y-48184000D01*
X80000000Y-100000000D02*
X146040000Y-100000000D01*
X80000000Y-46660000D02*
X144516000Y-46660000D01*
X80000000Y-46660000D02*
X80000000Y-100000000D01*
%TD*%
M02*
