M48
; DRILL file {KiCad 9.0.7} date 2026-03-19T09:09:57+0100
; FORMAT={-:-/ absolute / metric / decimal}
; #@! TF.CreationDate,2026-03-19T09:09:57+01:00
; #@! TF.GenerationSoftware,Kicad,Pcbnew,9.0.7
; #@! TF.FileFunction,Plated,1,2,PTH
FMAT,2
METRIC
; #@! TA.AperFunction,Plated,PTH,ViaDrill
T1C0.400
; #@! TA.AperFunction,Plated,PTH,ComponentDrill
T2C0.950
; #@! TA.AperFunction,Plated,PTH,ComponentDrill
T3C1.000
; #@! TA.AperFunction,Plated,PTH,ComponentDrill
T4C3.200
%
G90
G05
T1
X138.0Y-56.0
X139.0Y-67.0
T2
X126.0Y-55.5
X126.0Y-58.0
X126.0Y-60.5
X126.0Y-66.5
X126.0Y-69.0
X126.0Y-71.5
X136.5Y-70.0
X139.0Y-70.0
X141.5Y-70.0
X144.0Y-70.0
T3
X133.5Y-51.0
X136.0Y-51.0
X141.19Y-52.0
X143.73Y-52.0
X146.27Y-52.0
X148.81Y-52.0
X151.5Y-58.0
X151.5Y-60.54
T4
X152.0Y-71.5
M30
