%TF.GenerationSoftware,KiCad,Pcbnew,9.0.6*%
%TF.CreationDate,2026-02-24T16:40:53+01:00*%
%TF.ProjectId,MPC-Status,4d50432d-5374-4617-9475-732e6b696361,rev?*%
%TF.SameCoordinates,Original*%
%TF.FileFunction,Legend,Bot*%
%TF.FilePolarity,Positive*%
%FSLAX46Y46*%
G04 Gerber Fmt 4.6, Leading zero omitted, Abs format (unit mm)*
G04 Created by KiCad (PCBNEW 9.0.6) date 2026-02-24 16:40:53*
%MOMM*%
%LPD*%
G01*
G04 APERTURE LIST*
%ADD10C,0.150000*%
%ADD11C,0.120000*%
G04 APERTURE END LIST*
D10*
X152583333Y-117254819D02*
X152583333Y-117969104D01*
X152583333Y-117969104D02*
X152630952Y-118111961D01*
X152630952Y-118111961D02*
X152726190Y-118207200D01*
X152726190Y-118207200D02*
X152869047Y-118254819D01*
X152869047Y-118254819D02*
X152964285Y-118254819D01*
X152154761Y-117350057D02*
X152107142Y-117302438D01*
X152107142Y-117302438D02*
X152011904Y-117254819D01*
X152011904Y-117254819D02*
X151773809Y-117254819D01*
X151773809Y-117254819D02*
X151678571Y-117302438D01*
X151678571Y-117302438D02*
X151630952Y-117350057D01*
X151630952Y-117350057D02*
X151583333Y-117445295D01*
X151583333Y-117445295D02*
X151583333Y-117540533D01*
X151583333Y-117540533D02*
X151630952Y-117683390D01*
X151630952Y-117683390D02*
X152202380Y-118254819D01*
X152202380Y-118254819D02*
X151583333Y-118254819D01*
D11*
%TO.C,J2*%
X145590000Y-112390000D02*
X148090000Y-112390000D01*
X145590000Y-114890000D02*
X145590000Y-112390000D01*
X145890000Y-112690000D02*
X158610000Y-112690000D01*
X145890000Y-114190000D02*
X146890000Y-114190000D01*
X145890000Y-115000000D02*
X146390000Y-115000000D01*
X145890000Y-116710000D02*
X145890000Y-112690000D01*
X146390000Y-115000000D02*
X146390000Y-116210000D01*
X146390000Y-116210000D02*
X158110000Y-116210000D01*
X146890000Y-114190000D02*
X146890000Y-112690000D01*
X157610000Y-114190000D02*
X157610000Y-112690000D01*
X158110000Y-115000000D02*
X158610000Y-115000000D01*
X158110000Y-116210000D02*
X158110000Y-115000000D01*
X158610000Y-112690000D02*
X158610000Y-116710000D01*
X158610000Y-114190000D02*
X157610000Y-114190000D01*
X158610000Y-116710000D02*
X145890000Y-116710000D01*
%TD*%
M02*
