%TF.GenerationSoftware,KiCad,Pcbnew,9.0.6*%
%TF.CreationDate,2026-02-24T16:40:53+01:00*%
%TF.ProjectId,MPC-Status,4d50432d-5374-4617-9475-732e6b696361,rev?*%
%TF.SameCoordinates,Original*%
%TF.FileFunction,Copper,L4,Bot*%
%TF.FilePolarity,Positive*%
%FSLAX46Y46*%
G04 Gerber Fmt 4.6, Leading zero omitted, Abs format (unit mm)*
G04 Created by KiCad (PCBNEW 9.0.6) date 2026-02-24 16:40:53*
%MOMM*%
%LPD*%
G01*
G04 APERTURE LIST*
G04 Aperture macros list*
%AMRoundRect*
0 Rectangle with rounded corners*
0 $1 Rounding radius*
0 $2 $3 $4 $5 $6 $7 $8 $9 X,Y pos of 4 corners*
0 Add a 4 corners polygon primitive as box body*
4,1,4,$2,$3,$4,$5,$6,$7,$8,$9,$2,$3,0*
0 Add four circle primitives for the rounded corners*
1,1,$1+$1,$2,$3*
1,1,$1+$1,$4,$5*
1,1,$1+$1,$6,$7*
1,1,$1+$1,$8,$9*
0 Add four rect primitives between the rounded corners*
20,1,$1+$1,$2,$3,$4,$5,0*
20,1,$1+$1,$4,$5,$6,$7,0*
20,1,$1+$1,$6,$7,$8,$9,0*
20,1,$1+$1,$8,$9,$2,$3,0*%
G04 Aperture macros list end*
%TA.AperFunction,ComponentPad*%
%ADD10R,1.700000X1.700000*%
%TD*%
%TA.AperFunction,ComponentPad*%
%ADD11C,1.700000*%
%TD*%
%TA.AperFunction,ComponentPad*%
%ADD12RoundRect,0.250000X-0.600000X-0.725000X0.600000X-0.725000X0.600000X0.725000X-0.600000X0.725000X0*%
%TD*%
%TA.AperFunction,ComponentPad*%
%ADD13O,1.700000X1.950000*%
%TD*%
%TA.AperFunction,ViaPad*%
%ADD14C,0.800000*%
%TD*%
%TA.AperFunction,ViaPad*%
%ADD15C,0.700000*%
%TD*%
G04 APERTURE END LIST*
D10*
%TO.P,J1,1,Pin_1*%
%TO.N,GND*%
X163000000Y-106620000D03*
D11*
%TO.P,J1,2,Pin_2*%
%TO.N,Reset*%
X163000000Y-104080000D03*
%TO.P,J1,3,Pin_3*%
%TO.N,Programmierpin*%
X163000000Y-101540000D03*
%TO.P,J1,4,Pin_4*%
%TO.N,+5V*%
X163000000Y-99000000D03*
%TD*%
D12*
%TO.P,J2,1,Pin_1*%
%TO.N,GND*%
X148500000Y-115000000D03*
D13*
%TO.P,J2,2,Pin_2*%
%TO.N,I2C_SDA*%
X151000000Y-115000000D03*
%TO.P,J2,3,Pin_3*%
%TO.N,I2C_SCL*%
X153500000Y-115000000D03*
%TO.P,J2,4,Pin_4*%
%TO.N,+5V*%
X156000000Y-115000000D03*
%TD*%
D14*
%TO.N,+5VD*%
X157000000Y-74000000D03*
X156000000Y-75000000D03*
X158000000Y-73000000D03*
%TO.N,GND*%
X165000000Y-92000000D03*
X164000000Y-94000000D03*
%TO.N,+5V*%
X153000000Y-86000000D03*
X155000000Y-88000000D03*
D15*
X150000000Y-96000000D03*
%TO.N,GND*%
X130000000Y-84000000D03*
X133000000Y-126000000D03*
X160000000Y-130000000D03*
X125000000Y-114000000D03*
X124000000Y-101000000D03*
X140000000Y-79000000D03*
X143000000Y-76000000D03*
X158000000Y-77000000D03*
X142000000Y-134000000D03*
X157000000Y-135000000D03*
X167000000Y-84000000D03*
X154000000Y-78000000D03*
X171000000Y-85000000D03*
X129000000Y-88000000D03*
X122000000Y-97000000D03*
X154000000Y-96000000D03*
X128000000Y-126000000D03*
X179000000Y-113000000D03*
X171000000Y-127000000D03*
X178000000Y-98000000D03*
X175000000Y-96000000D03*
X177000000Y-110000000D03*
X171000000Y-122000000D03*
X146000000Y-131000000D03*
X122000000Y-112000000D03*
%TO.N,+5VD*%
X162000000Y-74000000D03*
X176000000Y-84000000D03*
X119000000Y-92000000D03*
X145000000Y-72000000D03*
X137000000Y-136000000D03*
X123000000Y-125000000D03*
X117000000Y-109000000D03*
X129000000Y-79000000D03*
X154000000Y-138000000D03*
X170000000Y-132000000D03*
X183000000Y-100000000D03*
X181000000Y-118000000D03*
%TD*%
M02*
