%TF.GenerationSoftware,KiCad,Pcbnew,9.0.7*%
%TF.CreationDate,2026-03-19T10:05:22+01:00*%
%TF.ProjectId,MPC-Status,4d50432d-5374-4617-9475-732e6b696361,rev?*%
%TF.SameCoordinates,Original*%
%TF.FileFunction,Legend,Top*%
%TF.FilePolarity,Positive*%
%FSLAX46Y46*%
G04 Gerber Fmt 4.6, Leading zero omitted, Abs format (unit mm)*
G04 Created by KiCad (PCBNEW 9.0.7) date 2026-03-19 10:05:22*
%MOMM*%
%LPD*%
G01*
G04 APERTURE LIST*
%ADD10C,0.150000*%
%ADD11C,0.152400*%
%ADD12C,0.120000*%
G04 APERTURE END LIST*
D10*
X169943034Y-127080201D02*
X169657320Y-126585329D01*
X169800177Y-126832765D02*
X170666202Y-126332765D01*
X170666202Y-126332765D02*
X170494865Y-126321715D01*
X170494865Y-126321715D02*
X170364768Y-126286855D01*
X170364768Y-126286855D02*
X170275909Y-126228186D01*
X171118583Y-127116312D02*
X171166202Y-127198790D01*
X171166202Y-127198790D02*
X171172582Y-127305079D01*
X171172582Y-127305079D02*
X171155152Y-127370127D01*
X171155152Y-127370127D02*
X171096483Y-127458986D01*
X171096483Y-127458986D02*
X170955335Y-127595463D01*
X170955335Y-127595463D02*
X170749139Y-127714511D01*
X170749139Y-127714511D02*
X170560372Y-127768509D01*
X170560372Y-127768509D02*
X170454084Y-127774889D01*
X170454084Y-127774889D02*
X170389035Y-127757459D01*
X170389035Y-127757459D02*
X170300177Y-127698790D01*
X170300177Y-127698790D02*
X170252558Y-127616312D01*
X170252558Y-127616312D02*
X170246178Y-127510024D01*
X170246178Y-127510024D02*
X170263608Y-127444975D01*
X170263608Y-127444975D02*
X170322277Y-127356116D01*
X170322277Y-127356116D02*
X170463425Y-127219639D01*
X170463425Y-127219639D02*
X170669621Y-127100591D01*
X170669621Y-127100591D02*
X170858388Y-127046593D01*
X170858388Y-127046593D02*
X170964676Y-127040213D01*
X170964676Y-127040213D02*
X171029725Y-127057643D01*
X171029725Y-127057643D02*
X171118583Y-127116312D01*
X171594774Y-127941098D02*
X171642393Y-128023577D01*
X171642393Y-128023577D02*
X171648772Y-128129865D01*
X171648772Y-128129865D02*
X171631343Y-128194913D01*
X171631343Y-128194913D02*
X171572674Y-128283772D01*
X171572674Y-128283772D02*
X171431526Y-128420249D01*
X171431526Y-128420249D02*
X171225329Y-128539297D01*
X171225329Y-128539297D02*
X171036563Y-128593296D01*
X171036563Y-128593296D02*
X170930274Y-128599675D01*
X170930274Y-128599675D02*
X170865226Y-128582246D01*
X170865226Y-128582246D02*
X170776367Y-128523577D01*
X170776367Y-128523577D02*
X170728748Y-128441098D01*
X170728748Y-128441098D02*
X170722368Y-128334810D01*
X170722368Y-128334810D02*
X170739798Y-128269761D01*
X170739798Y-128269761D02*
X170798467Y-128180903D01*
X170798467Y-128180903D02*
X170939615Y-128044425D01*
X170939615Y-128044425D02*
X171145812Y-127925378D01*
X171145812Y-127925378D02*
X171334578Y-127871379D01*
X171334578Y-127871379D02*
X171440866Y-127864999D01*
X171440866Y-127864999D02*
X171505915Y-127882429D01*
X171505915Y-127882429D02*
X171594774Y-127941098D01*
X171687051Y-128767593D02*
X171109701Y-129100927D01*
X171604572Y-128815213D02*
X171669621Y-128832642D01*
X171669621Y-128832642D02*
X171758479Y-128891311D01*
X171758479Y-128891311D02*
X171829908Y-129015029D01*
X171829908Y-129015029D02*
X171836288Y-129121317D01*
X171836288Y-129121317D02*
X171777619Y-129210176D01*
X171777619Y-129210176D02*
X171323986Y-129472081D01*
X172182381Y-129911244D02*
X172015714Y-129622569D01*
X171562082Y-129884474D02*
X172428107Y-129384474D01*
X172428107Y-129384474D02*
X172666202Y-129796867D01*
X179210382Y-114317554D02*
X178715510Y-114031840D01*
X178962946Y-114174697D02*
X179462946Y-113308671D01*
X179462946Y-113308671D02*
X179309039Y-113384770D01*
X179309039Y-113384770D02*
X179178941Y-113419630D01*
X179178941Y-113419630D02*
X179072653Y-113413250D01*
X180246493Y-113761052D02*
X180328971Y-113808671D01*
X180328971Y-113808671D02*
X180387640Y-113897530D01*
X180387640Y-113897530D02*
X180405070Y-113962579D01*
X180405070Y-113962579D02*
X180398690Y-114068867D01*
X180398690Y-114068867D02*
X180344692Y-114257633D01*
X180344692Y-114257633D02*
X180225644Y-114463830D01*
X180225644Y-114463830D02*
X180089167Y-114604978D01*
X180089167Y-114604978D02*
X180000308Y-114663647D01*
X180000308Y-114663647D02*
X179935259Y-114681076D01*
X179935259Y-114681076D02*
X179828971Y-114674697D01*
X179828971Y-114674697D02*
X179746493Y-114627078D01*
X179746493Y-114627078D02*
X179687824Y-114538219D01*
X179687824Y-114538219D02*
X179670394Y-114473171D01*
X179670394Y-114473171D02*
X179676774Y-114366882D01*
X179676774Y-114366882D02*
X179730772Y-114178116D01*
X179730772Y-114178116D02*
X179849820Y-113971919D01*
X179849820Y-113971919D02*
X179986297Y-113830771D01*
X179986297Y-113830771D02*
X180075156Y-113772102D01*
X180075156Y-113772102D02*
X180140205Y-113754673D01*
X180140205Y-113754673D02*
X180246493Y-113761052D01*
X181071279Y-114237243D02*
X181153757Y-114284862D01*
X181153757Y-114284862D02*
X181212427Y-114373720D01*
X181212427Y-114373720D02*
X181229856Y-114438769D01*
X181229856Y-114438769D02*
X181223477Y-114545057D01*
X181223477Y-114545057D02*
X181169478Y-114733824D01*
X181169478Y-114733824D02*
X181050430Y-114940020D01*
X181050430Y-114940020D02*
X180913953Y-115081168D01*
X180913953Y-115081168D02*
X180825094Y-115139837D01*
X180825094Y-115139837D02*
X180760046Y-115157267D01*
X180760046Y-115157267D02*
X180653757Y-115150887D01*
X180653757Y-115150887D02*
X180571279Y-115103268D01*
X180571279Y-115103268D02*
X180512610Y-115014410D01*
X180512610Y-115014410D02*
X180495180Y-114949361D01*
X180495180Y-114949361D02*
X180501560Y-114843073D01*
X180501560Y-114843073D02*
X180555559Y-114654306D01*
X180555559Y-114654306D02*
X180674606Y-114448110D01*
X180674606Y-114448110D02*
X180811084Y-114306962D01*
X180811084Y-114306962D02*
X180899942Y-114248293D01*
X180899942Y-114248293D02*
X180964991Y-114230863D01*
X180964991Y-114230863D02*
X181071279Y-114237243D01*
X181564441Y-114906870D02*
X181231108Y-115484221D01*
X181516822Y-114989349D02*
X181581871Y-114971919D01*
X181581871Y-114971919D02*
X181688159Y-114978299D01*
X181688159Y-114978299D02*
X181811877Y-115049727D01*
X181811877Y-115049727D02*
X181870546Y-115138586D01*
X181870546Y-115138586D02*
X181864166Y-115244874D01*
X181864166Y-115244874D02*
X181602262Y-115698506D01*
X182565235Y-115649636D02*
X182276559Y-115482969D01*
X182014655Y-115936602D02*
X182514655Y-115070576D01*
X182514655Y-115070576D02*
X182927048Y-115308671D01*
X127343034Y-80480201D02*
X127057320Y-79985329D01*
X127200177Y-80232765D02*
X128066202Y-79732765D01*
X128066202Y-79732765D02*
X127894865Y-79721715D01*
X127894865Y-79721715D02*
X127764768Y-79686855D01*
X127764768Y-79686855D02*
X127675909Y-79628186D01*
X128518583Y-80516312D02*
X128566202Y-80598790D01*
X128566202Y-80598790D02*
X128572582Y-80705079D01*
X128572582Y-80705079D02*
X128555152Y-80770127D01*
X128555152Y-80770127D02*
X128496483Y-80858986D01*
X128496483Y-80858986D02*
X128355335Y-80995463D01*
X128355335Y-80995463D02*
X128149139Y-81114511D01*
X128149139Y-81114511D02*
X127960372Y-81168509D01*
X127960372Y-81168509D02*
X127854084Y-81174889D01*
X127854084Y-81174889D02*
X127789035Y-81157459D01*
X127789035Y-81157459D02*
X127700177Y-81098790D01*
X127700177Y-81098790D02*
X127652558Y-81016312D01*
X127652558Y-81016312D02*
X127646178Y-80910024D01*
X127646178Y-80910024D02*
X127663608Y-80844975D01*
X127663608Y-80844975D02*
X127722277Y-80756116D01*
X127722277Y-80756116D02*
X127863425Y-80619639D01*
X127863425Y-80619639D02*
X128069621Y-80500591D01*
X128069621Y-80500591D02*
X128258388Y-80446593D01*
X128258388Y-80446593D02*
X128364676Y-80440213D01*
X128364676Y-80440213D02*
X128429725Y-80457643D01*
X128429725Y-80457643D02*
X128518583Y-80516312D01*
X128994774Y-81341098D02*
X129042393Y-81423577D01*
X129042393Y-81423577D02*
X129048772Y-81529865D01*
X129048772Y-81529865D02*
X129031343Y-81594913D01*
X129031343Y-81594913D02*
X128972674Y-81683772D01*
X128972674Y-81683772D02*
X128831526Y-81820249D01*
X128831526Y-81820249D02*
X128625329Y-81939297D01*
X128625329Y-81939297D02*
X128436563Y-81993296D01*
X128436563Y-81993296D02*
X128330274Y-81999675D01*
X128330274Y-81999675D02*
X128265226Y-81982246D01*
X128265226Y-81982246D02*
X128176367Y-81923577D01*
X128176367Y-81923577D02*
X128128748Y-81841098D01*
X128128748Y-81841098D02*
X128122368Y-81734810D01*
X128122368Y-81734810D02*
X128139798Y-81669761D01*
X128139798Y-81669761D02*
X128198467Y-81580903D01*
X128198467Y-81580903D02*
X128339615Y-81444425D01*
X128339615Y-81444425D02*
X128545812Y-81325378D01*
X128545812Y-81325378D02*
X128734578Y-81271379D01*
X128734578Y-81271379D02*
X128840866Y-81264999D01*
X128840866Y-81264999D02*
X128905915Y-81282429D01*
X128905915Y-81282429D02*
X128994774Y-81341098D01*
X129087051Y-82167593D02*
X128509701Y-82500927D01*
X129004572Y-82215213D02*
X129069621Y-82232642D01*
X129069621Y-82232642D02*
X129158479Y-82291311D01*
X129158479Y-82291311D02*
X129229908Y-82415029D01*
X129229908Y-82415029D02*
X129236288Y-82521317D01*
X129236288Y-82521317D02*
X129177619Y-82610176D01*
X129177619Y-82610176D02*
X128723986Y-82872081D01*
X129582381Y-83311244D02*
X129415714Y-83022569D01*
X128962082Y-83284474D02*
X129828107Y-82784474D01*
X129828107Y-82784474D02*
X130066202Y-83196867D01*
D11*
X164319539Y-106818508D02*
X164242129Y-106779803D01*
X164242129Y-106779803D02*
X164126015Y-106779803D01*
X164126015Y-106779803D02*
X164009901Y-106818508D01*
X164009901Y-106818508D02*
X163932491Y-106895918D01*
X163932491Y-106895918D02*
X163893786Y-106973327D01*
X163893786Y-106973327D02*
X163855082Y-107128146D01*
X163855082Y-107128146D02*
X163855082Y-107244260D01*
X163855082Y-107244260D02*
X163893786Y-107399079D01*
X163893786Y-107399079D02*
X163932491Y-107476489D01*
X163932491Y-107476489D02*
X164009901Y-107553899D01*
X164009901Y-107553899D02*
X164126015Y-107592603D01*
X164126015Y-107592603D02*
X164203424Y-107592603D01*
X164203424Y-107592603D02*
X164319539Y-107553899D01*
X164319539Y-107553899D02*
X164358243Y-107515194D01*
X164358243Y-107515194D02*
X164358243Y-107244260D01*
X164358243Y-107244260D02*
X164203424Y-107244260D01*
X164706586Y-107592603D02*
X164706586Y-106779803D01*
X164706586Y-106779803D02*
X165171043Y-107592603D01*
X165171043Y-107592603D02*
X165171043Y-106779803D01*
X165558091Y-107592603D02*
X165558091Y-106779803D01*
X165558091Y-106779803D02*
X165751615Y-106779803D01*
X165751615Y-106779803D02*
X165867729Y-106818508D01*
X165867729Y-106818508D02*
X165945139Y-106895918D01*
X165945139Y-106895918D02*
X165983844Y-106973327D01*
X165983844Y-106973327D02*
X166022548Y-107128146D01*
X166022548Y-107128146D02*
X166022548Y-107244260D01*
X166022548Y-107244260D02*
X165983844Y-107399079D01*
X165983844Y-107399079D02*
X165945139Y-107476489D01*
X165945139Y-107476489D02*
X165867729Y-107553899D01*
X165867729Y-107553899D02*
X165751615Y-107592603D01*
X165751615Y-107592603D02*
X165558091Y-107592603D01*
D10*
X172480201Y-84456965D02*
X171985329Y-84742679D01*
X172232765Y-84599822D02*
X171732765Y-83733797D01*
X171732765Y-83733797D02*
X171721715Y-83905134D01*
X171721715Y-83905134D02*
X171686855Y-84035231D01*
X171686855Y-84035231D02*
X171628186Y-84124090D01*
X172516312Y-83281416D02*
X172598790Y-83233797D01*
X172598790Y-83233797D02*
X172705079Y-83227417D01*
X172705079Y-83227417D02*
X172770127Y-83244847D01*
X172770127Y-83244847D02*
X172858986Y-83303516D01*
X172858986Y-83303516D02*
X172995463Y-83444664D01*
X172995463Y-83444664D02*
X173114511Y-83650860D01*
X173114511Y-83650860D02*
X173168509Y-83839627D01*
X173168509Y-83839627D02*
X173174889Y-83945915D01*
X173174889Y-83945915D02*
X173157459Y-84010964D01*
X173157459Y-84010964D02*
X173098790Y-84099822D01*
X173098790Y-84099822D02*
X173016312Y-84147441D01*
X173016312Y-84147441D02*
X172910024Y-84153821D01*
X172910024Y-84153821D02*
X172844975Y-84136391D01*
X172844975Y-84136391D02*
X172756116Y-84077722D01*
X172756116Y-84077722D02*
X172619639Y-83936574D01*
X172619639Y-83936574D02*
X172500591Y-83730378D01*
X172500591Y-83730378D02*
X172446593Y-83541611D01*
X172446593Y-83541611D02*
X172440213Y-83435323D01*
X172440213Y-83435323D02*
X172457643Y-83370274D01*
X172457643Y-83370274D02*
X172516312Y-83281416D01*
X173341098Y-82805225D02*
X173423577Y-82757606D01*
X173423577Y-82757606D02*
X173529865Y-82751227D01*
X173529865Y-82751227D02*
X173594913Y-82768656D01*
X173594913Y-82768656D02*
X173683772Y-82827325D01*
X173683772Y-82827325D02*
X173820249Y-82968473D01*
X173820249Y-82968473D02*
X173939297Y-83174670D01*
X173939297Y-83174670D02*
X173993296Y-83363436D01*
X173993296Y-83363436D02*
X173999675Y-83469725D01*
X173999675Y-83469725D02*
X173982246Y-83534773D01*
X173982246Y-83534773D02*
X173923577Y-83623632D01*
X173923577Y-83623632D02*
X173841098Y-83671251D01*
X173841098Y-83671251D02*
X173734810Y-83677631D01*
X173734810Y-83677631D02*
X173669761Y-83660201D01*
X173669761Y-83660201D02*
X173580903Y-83601532D01*
X173580903Y-83601532D02*
X173444425Y-83460384D01*
X173444425Y-83460384D02*
X173325378Y-83254187D01*
X173325378Y-83254187D02*
X173271379Y-83065421D01*
X173271379Y-83065421D02*
X173264999Y-82959133D01*
X173264999Y-82959133D02*
X173282429Y-82894084D01*
X173282429Y-82894084D02*
X173341098Y-82805225D01*
X174167593Y-82712948D02*
X174500927Y-83290298D01*
X174215213Y-82795427D02*
X174232642Y-82730378D01*
X174232642Y-82730378D02*
X174291311Y-82641520D01*
X174291311Y-82641520D02*
X174415029Y-82570091D01*
X174415029Y-82570091D02*
X174521317Y-82563711D01*
X174521317Y-82563711D02*
X174610176Y-82622380D01*
X174610176Y-82622380D02*
X174872081Y-83076013D01*
X175311244Y-82217618D02*
X175022569Y-82384285D01*
X175284474Y-82837917D02*
X174784474Y-81971892D01*
X174784474Y-81971892D02*
X175196867Y-81733797D01*
D11*
X159079803Y-99519165D02*
X159079803Y-99906213D01*
X159079803Y-99906213D02*
X159466851Y-99944917D01*
X159466851Y-99944917D02*
X159428146Y-99906213D01*
X159428146Y-99906213D02*
X159389441Y-99828803D01*
X159389441Y-99828803D02*
X159389441Y-99635279D01*
X159389441Y-99635279D02*
X159428146Y-99557870D01*
X159428146Y-99557870D02*
X159466851Y-99519165D01*
X159466851Y-99519165D02*
X159544260Y-99480460D01*
X159544260Y-99480460D02*
X159737784Y-99480460D01*
X159737784Y-99480460D02*
X159815194Y-99519165D01*
X159815194Y-99519165D02*
X159853899Y-99557870D01*
X159853899Y-99557870D02*
X159892603Y-99635279D01*
X159892603Y-99635279D02*
X159892603Y-99828803D01*
X159892603Y-99828803D02*
X159853899Y-99906213D01*
X159853899Y-99906213D02*
X159815194Y-99944917D01*
X159079803Y-99248232D02*
X159892603Y-98977299D01*
X159892603Y-98977299D02*
X159079803Y-98706365D01*
D10*
X159717554Y-75989617D02*
X159431840Y-76484489D01*
X159574697Y-76237053D02*
X158708671Y-75737053D01*
X158708671Y-75737053D02*
X158784770Y-75890960D01*
X158784770Y-75890960D02*
X158819630Y-76021058D01*
X158819630Y-76021058D02*
X158813250Y-76127346D01*
X159161052Y-74953506D02*
X159208671Y-74871028D01*
X159208671Y-74871028D02*
X159297530Y-74812359D01*
X159297530Y-74812359D02*
X159362579Y-74794929D01*
X159362579Y-74794929D02*
X159468867Y-74801309D01*
X159468867Y-74801309D02*
X159657633Y-74855307D01*
X159657633Y-74855307D02*
X159863830Y-74974355D01*
X159863830Y-74974355D02*
X160004978Y-75110832D01*
X160004978Y-75110832D02*
X160063647Y-75199691D01*
X160063647Y-75199691D02*
X160081076Y-75264740D01*
X160081076Y-75264740D02*
X160074697Y-75371028D01*
X160074697Y-75371028D02*
X160027078Y-75453506D01*
X160027078Y-75453506D02*
X159938219Y-75512175D01*
X159938219Y-75512175D02*
X159873171Y-75529605D01*
X159873171Y-75529605D02*
X159766882Y-75523225D01*
X159766882Y-75523225D02*
X159578116Y-75469227D01*
X159578116Y-75469227D02*
X159371919Y-75350179D01*
X159371919Y-75350179D02*
X159230771Y-75213702D01*
X159230771Y-75213702D02*
X159172102Y-75124843D01*
X159172102Y-75124843D02*
X159154673Y-75059794D01*
X159154673Y-75059794D02*
X159161052Y-74953506D01*
X159637243Y-74128720D02*
X159684862Y-74046242D01*
X159684862Y-74046242D02*
X159773720Y-73987572D01*
X159773720Y-73987572D02*
X159838769Y-73970143D01*
X159838769Y-73970143D02*
X159945057Y-73976522D01*
X159945057Y-73976522D02*
X160133824Y-74030521D01*
X160133824Y-74030521D02*
X160340020Y-74149569D01*
X160340020Y-74149569D02*
X160481168Y-74286046D01*
X160481168Y-74286046D02*
X160539837Y-74374905D01*
X160539837Y-74374905D02*
X160557267Y-74439953D01*
X160557267Y-74439953D02*
X160550887Y-74546242D01*
X160550887Y-74546242D02*
X160503268Y-74628720D01*
X160503268Y-74628720D02*
X160414410Y-74687389D01*
X160414410Y-74687389D02*
X160349361Y-74704819D01*
X160349361Y-74704819D02*
X160243073Y-74698439D01*
X160243073Y-74698439D02*
X160054306Y-74644440D01*
X160054306Y-74644440D02*
X159848110Y-74525393D01*
X159848110Y-74525393D02*
X159706962Y-74388915D01*
X159706962Y-74388915D02*
X159648293Y-74300057D01*
X159648293Y-74300057D02*
X159630863Y-74235008D01*
X159630863Y-74235008D02*
X159637243Y-74128720D01*
X160306870Y-73635558D02*
X160884221Y-73968891D01*
X160389349Y-73683177D02*
X160371919Y-73618128D01*
X160371919Y-73618128D02*
X160378299Y-73511840D01*
X160378299Y-73511840D02*
X160449727Y-73388122D01*
X160449727Y-73388122D02*
X160538586Y-73329453D01*
X160538586Y-73329453D02*
X160644874Y-73335833D01*
X160644874Y-73335833D02*
X161098506Y-73597737D01*
X161049636Y-72634764D02*
X160882969Y-72923440D01*
X161336602Y-73185344D02*
X160470576Y-72685344D01*
X160470576Y-72685344D02*
X160708671Y-72272951D01*
X143669819Y-75339411D02*
X143669819Y-75910839D01*
X143669819Y-75625125D02*
X142669819Y-75625125D01*
X142669819Y-75625125D02*
X142812676Y-75720363D01*
X142812676Y-75720363D02*
X142907914Y-75815601D01*
X142907914Y-75815601D02*
X142955533Y-75910839D01*
X142669819Y-74720363D02*
X142669819Y-74625125D01*
X142669819Y-74625125D02*
X142717438Y-74529887D01*
X142717438Y-74529887D02*
X142765057Y-74482268D01*
X142765057Y-74482268D02*
X142860295Y-74434649D01*
X142860295Y-74434649D02*
X143050771Y-74387030D01*
X143050771Y-74387030D02*
X143288866Y-74387030D01*
X143288866Y-74387030D02*
X143479342Y-74434649D01*
X143479342Y-74434649D02*
X143574580Y-74482268D01*
X143574580Y-74482268D02*
X143622200Y-74529887D01*
X143622200Y-74529887D02*
X143669819Y-74625125D01*
X143669819Y-74625125D02*
X143669819Y-74720363D01*
X143669819Y-74720363D02*
X143622200Y-74815601D01*
X143622200Y-74815601D02*
X143574580Y-74863220D01*
X143574580Y-74863220D02*
X143479342Y-74910839D01*
X143479342Y-74910839D02*
X143288866Y-74958458D01*
X143288866Y-74958458D02*
X143050771Y-74958458D01*
X143050771Y-74958458D02*
X142860295Y-74910839D01*
X142860295Y-74910839D02*
X142765057Y-74863220D01*
X142765057Y-74863220D02*
X142717438Y-74815601D01*
X142717438Y-74815601D02*
X142669819Y-74720363D01*
X142669819Y-73767982D02*
X142669819Y-73672744D01*
X142669819Y-73672744D02*
X142717438Y-73577506D01*
X142717438Y-73577506D02*
X142765057Y-73529887D01*
X142765057Y-73529887D02*
X142860295Y-73482268D01*
X142860295Y-73482268D02*
X143050771Y-73434649D01*
X143050771Y-73434649D02*
X143288866Y-73434649D01*
X143288866Y-73434649D02*
X143479342Y-73482268D01*
X143479342Y-73482268D02*
X143574580Y-73529887D01*
X143574580Y-73529887D02*
X143622200Y-73577506D01*
X143622200Y-73577506D02*
X143669819Y-73672744D01*
X143669819Y-73672744D02*
X143669819Y-73767982D01*
X143669819Y-73767982D02*
X143622200Y-73863220D01*
X143622200Y-73863220D02*
X143574580Y-73910839D01*
X143574580Y-73910839D02*
X143479342Y-73958458D01*
X143479342Y-73958458D02*
X143288866Y-74006077D01*
X143288866Y-74006077D02*
X143050771Y-74006077D01*
X143050771Y-74006077D02*
X142860295Y-73958458D01*
X142860295Y-73958458D02*
X142765057Y-73910839D01*
X142765057Y-73910839D02*
X142717438Y-73863220D01*
X142717438Y-73863220D02*
X142669819Y-73767982D01*
X143003152Y-73006077D02*
X143669819Y-73006077D01*
X143098390Y-73006077D02*
X143050771Y-72958458D01*
X143050771Y-72958458D02*
X143003152Y-72863220D01*
X143003152Y-72863220D02*
X143003152Y-72720363D01*
X143003152Y-72720363D02*
X143050771Y-72625125D01*
X143050771Y-72625125D02*
X143146009Y-72577506D01*
X143146009Y-72577506D02*
X143669819Y-72577506D01*
X143146009Y-71767982D02*
X143146009Y-72101315D01*
X143669819Y-72101315D02*
X142669819Y-72101315D01*
X142669819Y-72101315D02*
X142669819Y-71625125D01*
D11*
X166918508Y-100480460D02*
X166879803Y-100557870D01*
X166879803Y-100557870D02*
X166879803Y-100673984D01*
X166879803Y-100673984D02*
X166918508Y-100790098D01*
X166918508Y-100790098D02*
X166995918Y-100867508D01*
X166995918Y-100867508D02*
X167073327Y-100906213D01*
X167073327Y-100906213D02*
X167228146Y-100944917D01*
X167228146Y-100944917D02*
X167344260Y-100944917D01*
X167344260Y-100944917D02*
X167499079Y-100906213D01*
X167499079Y-100906213D02*
X167576489Y-100867508D01*
X167576489Y-100867508D02*
X167653899Y-100790098D01*
X167653899Y-100790098D02*
X167692603Y-100673984D01*
X167692603Y-100673984D02*
X167692603Y-100596575D01*
X167692603Y-100596575D02*
X167653899Y-100480460D01*
X167653899Y-100480460D02*
X167615194Y-100441756D01*
X167615194Y-100441756D02*
X167344260Y-100441756D01*
X167344260Y-100441756D02*
X167344260Y-100596575D01*
X167692603Y-100093413D02*
X166879803Y-100093413D01*
X166879803Y-100093413D02*
X167692603Y-99628956D01*
X167692603Y-99628956D02*
X166879803Y-99628956D01*
X167692603Y-99241908D02*
X166879803Y-99241908D01*
X166879803Y-99241908D02*
X166879803Y-99048384D01*
X166879803Y-99048384D02*
X166918508Y-98932270D01*
X166918508Y-98932270D02*
X166995918Y-98854860D01*
X166995918Y-98854860D02*
X167073327Y-98816155D01*
X167073327Y-98816155D02*
X167228146Y-98777451D01*
X167228146Y-98777451D02*
X167344260Y-98777451D01*
X167344260Y-98777451D02*
X167499079Y-98816155D01*
X167499079Y-98816155D02*
X167576489Y-98854860D01*
X167576489Y-98854860D02*
X167653899Y-98932270D01*
X167653899Y-98932270D02*
X167692603Y-99048384D01*
X167692603Y-99048384D02*
X167692603Y-99241908D01*
X162858243Y-105792603D02*
X162587310Y-105405556D01*
X162393786Y-105792603D02*
X162393786Y-104979803D01*
X162393786Y-104979803D02*
X162703424Y-104979803D01*
X162703424Y-104979803D02*
X162780834Y-105018508D01*
X162780834Y-105018508D02*
X162819539Y-105057213D01*
X162819539Y-105057213D02*
X162858243Y-105134622D01*
X162858243Y-105134622D02*
X162858243Y-105250737D01*
X162858243Y-105250737D02*
X162819539Y-105328146D01*
X162819539Y-105328146D02*
X162780834Y-105366851D01*
X162780834Y-105366851D02*
X162703424Y-105405556D01*
X162703424Y-105405556D02*
X162393786Y-105405556D01*
X163206586Y-105366851D02*
X163477520Y-105366851D01*
X163593634Y-105792603D02*
X163206586Y-105792603D01*
X163206586Y-105792603D02*
X163206586Y-104979803D01*
X163206586Y-104979803D02*
X163593634Y-104979803D01*
X163903272Y-105753899D02*
X164019386Y-105792603D01*
X164019386Y-105792603D02*
X164212910Y-105792603D01*
X164212910Y-105792603D02*
X164290319Y-105753899D01*
X164290319Y-105753899D02*
X164329024Y-105715194D01*
X164329024Y-105715194D02*
X164367729Y-105637784D01*
X164367729Y-105637784D02*
X164367729Y-105560375D01*
X164367729Y-105560375D02*
X164329024Y-105482965D01*
X164329024Y-105482965D02*
X164290319Y-105444260D01*
X164290319Y-105444260D02*
X164212910Y-105405556D01*
X164212910Y-105405556D02*
X164058091Y-105366851D01*
X164058091Y-105366851D02*
X163980681Y-105328146D01*
X163980681Y-105328146D02*
X163941976Y-105289441D01*
X163941976Y-105289441D02*
X163903272Y-105212032D01*
X163903272Y-105212032D02*
X163903272Y-105134622D01*
X163903272Y-105134622D02*
X163941976Y-105057213D01*
X163941976Y-105057213D02*
X163980681Y-105018508D01*
X163980681Y-105018508D02*
X164058091Y-104979803D01*
X164058091Y-104979803D02*
X164251614Y-104979803D01*
X164251614Y-104979803D02*
X164367729Y-105018508D01*
X164716071Y-105366851D02*
X164987005Y-105366851D01*
X165103119Y-105792603D02*
X164716071Y-105792603D01*
X164716071Y-105792603D02*
X164716071Y-104979803D01*
X164716071Y-104979803D02*
X165103119Y-104979803D01*
X165335347Y-104979803D02*
X165799804Y-104979803D01*
X165567576Y-105792603D02*
X165567576Y-104979803D01*
D10*
X117660588Y-112269819D02*
X117089160Y-112269819D01*
X117374874Y-112269819D02*
X117374874Y-111269819D01*
X117374874Y-111269819D02*
X117279636Y-111412676D01*
X117279636Y-111412676D02*
X117184398Y-111507914D01*
X117184398Y-111507914D02*
X117089160Y-111555533D01*
X118279636Y-111269819D02*
X118374874Y-111269819D01*
X118374874Y-111269819D02*
X118470112Y-111317438D01*
X118470112Y-111317438D02*
X118517731Y-111365057D01*
X118517731Y-111365057D02*
X118565350Y-111460295D01*
X118565350Y-111460295D02*
X118612969Y-111650771D01*
X118612969Y-111650771D02*
X118612969Y-111888866D01*
X118612969Y-111888866D02*
X118565350Y-112079342D01*
X118565350Y-112079342D02*
X118517731Y-112174580D01*
X118517731Y-112174580D02*
X118470112Y-112222200D01*
X118470112Y-112222200D02*
X118374874Y-112269819D01*
X118374874Y-112269819D02*
X118279636Y-112269819D01*
X118279636Y-112269819D02*
X118184398Y-112222200D01*
X118184398Y-112222200D02*
X118136779Y-112174580D01*
X118136779Y-112174580D02*
X118089160Y-112079342D01*
X118089160Y-112079342D02*
X118041541Y-111888866D01*
X118041541Y-111888866D02*
X118041541Y-111650771D01*
X118041541Y-111650771D02*
X118089160Y-111460295D01*
X118089160Y-111460295D02*
X118136779Y-111365057D01*
X118136779Y-111365057D02*
X118184398Y-111317438D01*
X118184398Y-111317438D02*
X118279636Y-111269819D01*
X119232017Y-111269819D02*
X119327255Y-111269819D01*
X119327255Y-111269819D02*
X119422493Y-111317438D01*
X119422493Y-111317438D02*
X119470112Y-111365057D01*
X119470112Y-111365057D02*
X119517731Y-111460295D01*
X119517731Y-111460295D02*
X119565350Y-111650771D01*
X119565350Y-111650771D02*
X119565350Y-111888866D01*
X119565350Y-111888866D02*
X119517731Y-112079342D01*
X119517731Y-112079342D02*
X119470112Y-112174580D01*
X119470112Y-112174580D02*
X119422493Y-112222200D01*
X119422493Y-112222200D02*
X119327255Y-112269819D01*
X119327255Y-112269819D02*
X119232017Y-112269819D01*
X119232017Y-112269819D02*
X119136779Y-112222200D01*
X119136779Y-112222200D02*
X119089160Y-112174580D01*
X119089160Y-112174580D02*
X119041541Y-112079342D01*
X119041541Y-112079342D02*
X118993922Y-111888866D01*
X118993922Y-111888866D02*
X118993922Y-111650771D01*
X118993922Y-111650771D02*
X119041541Y-111460295D01*
X119041541Y-111460295D02*
X119089160Y-111365057D01*
X119089160Y-111365057D02*
X119136779Y-111317438D01*
X119136779Y-111317438D02*
X119232017Y-111269819D01*
X119993922Y-111603152D02*
X119993922Y-112269819D01*
X119993922Y-111698390D02*
X120041541Y-111650771D01*
X120041541Y-111650771D02*
X120136779Y-111603152D01*
X120136779Y-111603152D02*
X120279636Y-111603152D01*
X120279636Y-111603152D02*
X120374874Y-111650771D01*
X120374874Y-111650771D02*
X120422493Y-111746009D01*
X120422493Y-111746009D02*
X120422493Y-112269819D01*
X121232017Y-111746009D02*
X120898684Y-111746009D01*
X120898684Y-112269819D02*
X120898684Y-111269819D01*
X120898684Y-111269819D02*
X121374874Y-111269819D01*
X118210382Y-95117554D02*
X117715510Y-94831840D01*
X117962946Y-94974697D02*
X118462946Y-94108671D01*
X118462946Y-94108671D02*
X118309039Y-94184770D01*
X118309039Y-94184770D02*
X118178941Y-94219630D01*
X118178941Y-94219630D02*
X118072653Y-94213250D01*
X119246493Y-94561052D02*
X119328971Y-94608671D01*
X119328971Y-94608671D02*
X119387640Y-94697530D01*
X119387640Y-94697530D02*
X119405070Y-94762579D01*
X119405070Y-94762579D02*
X119398690Y-94868867D01*
X119398690Y-94868867D02*
X119344692Y-95057633D01*
X119344692Y-95057633D02*
X119225644Y-95263830D01*
X119225644Y-95263830D02*
X119089167Y-95404978D01*
X119089167Y-95404978D02*
X119000308Y-95463647D01*
X119000308Y-95463647D02*
X118935259Y-95481076D01*
X118935259Y-95481076D02*
X118828971Y-95474697D01*
X118828971Y-95474697D02*
X118746493Y-95427078D01*
X118746493Y-95427078D02*
X118687824Y-95338219D01*
X118687824Y-95338219D02*
X118670394Y-95273171D01*
X118670394Y-95273171D02*
X118676774Y-95166882D01*
X118676774Y-95166882D02*
X118730772Y-94978116D01*
X118730772Y-94978116D02*
X118849820Y-94771919D01*
X118849820Y-94771919D02*
X118986297Y-94630771D01*
X118986297Y-94630771D02*
X119075156Y-94572102D01*
X119075156Y-94572102D02*
X119140205Y-94554673D01*
X119140205Y-94554673D02*
X119246493Y-94561052D01*
X120071279Y-95037243D02*
X120153757Y-95084862D01*
X120153757Y-95084862D02*
X120212427Y-95173720D01*
X120212427Y-95173720D02*
X120229856Y-95238769D01*
X120229856Y-95238769D02*
X120223477Y-95345057D01*
X120223477Y-95345057D02*
X120169478Y-95533824D01*
X120169478Y-95533824D02*
X120050430Y-95740020D01*
X120050430Y-95740020D02*
X119913953Y-95881168D01*
X119913953Y-95881168D02*
X119825094Y-95939837D01*
X119825094Y-95939837D02*
X119760046Y-95957267D01*
X119760046Y-95957267D02*
X119653757Y-95950887D01*
X119653757Y-95950887D02*
X119571279Y-95903268D01*
X119571279Y-95903268D02*
X119512610Y-95814410D01*
X119512610Y-95814410D02*
X119495180Y-95749361D01*
X119495180Y-95749361D02*
X119501560Y-95643073D01*
X119501560Y-95643073D02*
X119555559Y-95454306D01*
X119555559Y-95454306D02*
X119674606Y-95248110D01*
X119674606Y-95248110D02*
X119811084Y-95106962D01*
X119811084Y-95106962D02*
X119899942Y-95048293D01*
X119899942Y-95048293D02*
X119964991Y-95030863D01*
X119964991Y-95030863D02*
X120071279Y-95037243D01*
X120564441Y-95706870D02*
X120231108Y-96284221D01*
X120516822Y-95789349D02*
X120581871Y-95771919D01*
X120581871Y-95771919D02*
X120688159Y-95778299D01*
X120688159Y-95778299D02*
X120811877Y-95849727D01*
X120811877Y-95849727D02*
X120870546Y-95938586D01*
X120870546Y-95938586D02*
X120864166Y-96044874D01*
X120864166Y-96044874D02*
X120602262Y-96498506D01*
X121565235Y-96449636D02*
X121276559Y-96282969D01*
X121014655Y-96736602D02*
X121514655Y-95870576D01*
X121514655Y-95870576D02*
X121927048Y-96108671D01*
X179460588Y-98869819D02*
X178889160Y-98869819D01*
X179174874Y-98869819D02*
X179174874Y-97869819D01*
X179174874Y-97869819D02*
X179079636Y-98012676D01*
X179079636Y-98012676D02*
X178984398Y-98107914D01*
X178984398Y-98107914D02*
X178889160Y-98155533D01*
X180079636Y-97869819D02*
X180174874Y-97869819D01*
X180174874Y-97869819D02*
X180270112Y-97917438D01*
X180270112Y-97917438D02*
X180317731Y-97965057D01*
X180317731Y-97965057D02*
X180365350Y-98060295D01*
X180365350Y-98060295D02*
X180412969Y-98250771D01*
X180412969Y-98250771D02*
X180412969Y-98488866D01*
X180412969Y-98488866D02*
X180365350Y-98679342D01*
X180365350Y-98679342D02*
X180317731Y-98774580D01*
X180317731Y-98774580D02*
X180270112Y-98822200D01*
X180270112Y-98822200D02*
X180174874Y-98869819D01*
X180174874Y-98869819D02*
X180079636Y-98869819D01*
X180079636Y-98869819D02*
X179984398Y-98822200D01*
X179984398Y-98822200D02*
X179936779Y-98774580D01*
X179936779Y-98774580D02*
X179889160Y-98679342D01*
X179889160Y-98679342D02*
X179841541Y-98488866D01*
X179841541Y-98488866D02*
X179841541Y-98250771D01*
X179841541Y-98250771D02*
X179889160Y-98060295D01*
X179889160Y-98060295D02*
X179936779Y-97965057D01*
X179936779Y-97965057D02*
X179984398Y-97917438D01*
X179984398Y-97917438D02*
X180079636Y-97869819D01*
X181032017Y-97869819D02*
X181127255Y-97869819D01*
X181127255Y-97869819D02*
X181222493Y-97917438D01*
X181222493Y-97917438D02*
X181270112Y-97965057D01*
X181270112Y-97965057D02*
X181317731Y-98060295D01*
X181317731Y-98060295D02*
X181365350Y-98250771D01*
X181365350Y-98250771D02*
X181365350Y-98488866D01*
X181365350Y-98488866D02*
X181317731Y-98679342D01*
X181317731Y-98679342D02*
X181270112Y-98774580D01*
X181270112Y-98774580D02*
X181222493Y-98822200D01*
X181222493Y-98822200D02*
X181127255Y-98869819D01*
X181127255Y-98869819D02*
X181032017Y-98869819D01*
X181032017Y-98869819D02*
X180936779Y-98822200D01*
X180936779Y-98822200D02*
X180889160Y-98774580D01*
X180889160Y-98774580D02*
X180841541Y-98679342D01*
X180841541Y-98679342D02*
X180793922Y-98488866D01*
X180793922Y-98488866D02*
X180793922Y-98250771D01*
X180793922Y-98250771D02*
X180841541Y-98060295D01*
X180841541Y-98060295D02*
X180889160Y-97965057D01*
X180889160Y-97965057D02*
X180936779Y-97917438D01*
X180936779Y-97917438D02*
X181032017Y-97869819D01*
X181793922Y-98203152D02*
X181793922Y-98869819D01*
X181793922Y-98298390D02*
X181841541Y-98250771D01*
X181841541Y-98250771D02*
X181936779Y-98203152D01*
X181936779Y-98203152D02*
X182079636Y-98203152D01*
X182079636Y-98203152D02*
X182174874Y-98250771D01*
X182174874Y-98250771D02*
X182222493Y-98346009D01*
X182222493Y-98346009D02*
X182222493Y-98869819D01*
X183032017Y-98346009D02*
X182698684Y-98346009D01*
X182698684Y-98869819D02*
X182698684Y-97869819D01*
X182698684Y-97869819D02*
X183174874Y-97869819D01*
X140117554Y-136789617D02*
X139831840Y-137284489D01*
X139974697Y-137037053D02*
X139108671Y-136537053D01*
X139108671Y-136537053D02*
X139184770Y-136690960D01*
X139184770Y-136690960D02*
X139219630Y-136821058D01*
X139219630Y-136821058D02*
X139213250Y-136927346D01*
X139561052Y-135753506D02*
X139608671Y-135671028D01*
X139608671Y-135671028D02*
X139697530Y-135612359D01*
X139697530Y-135612359D02*
X139762579Y-135594929D01*
X139762579Y-135594929D02*
X139868867Y-135601309D01*
X139868867Y-135601309D02*
X140057633Y-135655307D01*
X140057633Y-135655307D02*
X140263830Y-135774355D01*
X140263830Y-135774355D02*
X140404978Y-135910832D01*
X140404978Y-135910832D02*
X140463647Y-135999691D01*
X140463647Y-135999691D02*
X140481076Y-136064740D01*
X140481076Y-136064740D02*
X140474697Y-136171028D01*
X140474697Y-136171028D02*
X140427078Y-136253506D01*
X140427078Y-136253506D02*
X140338219Y-136312175D01*
X140338219Y-136312175D02*
X140273171Y-136329605D01*
X140273171Y-136329605D02*
X140166882Y-136323225D01*
X140166882Y-136323225D02*
X139978116Y-136269227D01*
X139978116Y-136269227D02*
X139771919Y-136150179D01*
X139771919Y-136150179D02*
X139630771Y-136013702D01*
X139630771Y-136013702D02*
X139572102Y-135924843D01*
X139572102Y-135924843D02*
X139554673Y-135859794D01*
X139554673Y-135859794D02*
X139561052Y-135753506D01*
X140037243Y-134928720D02*
X140084862Y-134846242D01*
X140084862Y-134846242D02*
X140173720Y-134787572D01*
X140173720Y-134787572D02*
X140238769Y-134770143D01*
X140238769Y-134770143D02*
X140345057Y-134776522D01*
X140345057Y-134776522D02*
X140533824Y-134830521D01*
X140533824Y-134830521D02*
X140740020Y-134949569D01*
X140740020Y-134949569D02*
X140881168Y-135086046D01*
X140881168Y-135086046D02*
X140939837Y-135174905D01*
X140939837Y-135174905D02*
X140957267Y-135239953D01*
X140957267Y-135239953D02*
X140950887Y-135346242D01*
X140950887Y-135346242D02*
X140903268Y-135428720D01*
X140903268Y-135428720D02*
X140814410Y-135487389D01*
X140814410Y-135487389D02*
X140749361Y-135504819D01*
X140749361Y-135504819D02*
X140643073Y-135498439D01*
X140643073Y-135498439D02*
X140454306Y-135444440D01*
X140454306Y-135444440D02*
X140248110Y-135325393D01*
X140248110Y-135325393D02*
X140106962Y-135188915D01*
X140106962Y-135188915D02*
X140048293Y-135100057D01*
X140048293Y-135100057D02*
X140030863Y-135035008D01*
X140030863Y-135035008D02*
X140037243Y-134928720D01*
X140706870Y-134435558D02*
X141284221Y-134768891D01*
X140789349Y-134483177D02*
X140771919Y-134418128D01*
X140771919Y-134418128D02*
X140778299Y-134311840D01*
X140778299Y-134311840D02*
X140849727Y-134188122D01*
X140849727Y-134188122D02*
X140938586Y-134129453D01*
X140938586Y-134129453D02*
X141044874Y-134135833D01*
X141044874Y-134135833D02*
X141498506Y-134397737D01*
X141449636Y-133434764D02*
X141282969Y-133723440D01*
X141736602Y-133985344D02*
X140870576Y-133485344D01*
X140870576Y-133485344D02*
X141108671Y-133072951D01*
X155354819Y-82142857D02*
X155354819Y-82714285D01*
X155354819Y-82428571D02*
X154354819Y-82428571D01*
X154354819Y-82428571D02*
X154497676Y-82523809D01*
X154497676Y-82523809D02*
X154592914Y-82619047D01*
X154592914Y-82619047D02*
X154640533Y-82714285D01*
X155069104Y-81761904D02*
X155069104Y-81285714D01*
X155354819Y-81857142D02*
X154354819Y-81523809D01*
X154354819Y-81523809D02*
X155354819Y-81190476D01*
X157469819Y-137939411D02*
X157469819Y-138510839D01*
X157469819Y-138225125D02*
X156469819Y-138225125D01*
X156469819Y-138225125D02*
X156612676Y-138320363D01*
X156612676Y-138320363D02*
X156707914Y-138415601D01*
X156707914Y-138415601D02*
X156755533Y-138510839D01*
X156469819Y-137320363D02*
X156469819Y-137225125D01*
X156469819Y-137225125D02*
X156517438Y-137129887D01*
X156517438Y-137129887D02*
X156565057Y-137082268D01*
X156565057Y-137082268D02*
X156660295Y-137034649D01*
X156660295Y-137034649D02*
X156850771Y-136987030D01*
X156850771Y-136987030D02*
X157088866Y-136987030D01*
X157088866Y-136987030D02*
X157279342Y-137034649D01*
X157279342Y-137034649D02*
X157374580Y-137082268D01*
X157374580Y-137082268D02*
X157422200Y-137129887D01*
X157422200Y-137129887D02*
X157469819Y-137225125D01*
X157469819Y-137225125D02*
X157469819Y-137320363D01*
X157469819Y-137320363D02*
X157422200Y-137415601D01*
X157422200Y-137415601D02*
X157374580Y-137463220D01*
X157374580Y-137463220D02*
X157279342Y-137510839D01*
X157279342Y-137510839D02*
X157088866Y-137558458D01*
X157088866Y-137558458D02*
X156850771Y-137558458D01*
X156850771Y-137558458D02*
X156660295Y-137510839D01*
X156660295Y-137510839D02*
X156565057Y-137463220D01*
X156565057Y-137463220D02*
X156517438Y-137415601D01*
X156517438Y-137415601D02*
X156469819Y-137320363D01*
X156469819Y-136367982D02*
X156469819Y-136272744D01*
X156469819Y-136272744D02*
X156517438Y-136177506D01*
X156517438Y-136177506D02*
X156565057Y-136129887D01*
X156565057Y-136129887D02*
X156660295Y-136082268D01*
X156660295Y-136082268D02*
X156850771Y-136034649D01*
X156850771Y-136034649D02*
X157088866Y-136034649D01*
X157088866Y-136034649D02*
X157279342Y-136082268D01*
X157279342Y-136082268D02*
X157374580Y-136129887D01*
X157374580Y-136129887D02*
X157422200Y-136177506D01*
X157422200Y-136177506D02*
X157469819Y-136272744D01*
X157469819Y-136272744D02*
X157469819Y-136367982D01*
X157469819Y-136367982D02*
X157422200Y-136463220D01*
X157422200Y-136463220D02*
X157374580Y-136510839D01*
X157374580Y-136510839D02*
X157279342Y-136558458D01*
X157279342Y-136558458D02*
X157088866Y-136606077D01*
X157088866Y-136606077D02*
X156850771Y-136606077D01*
X156850771Y-136606077D02*
X156660295Y-136558458D01*
X156660295Y-136558458D02*
X156565057Y-136510839D01*
X156565057Y-136510839D02*
X156517438Y-136463220D01*
X156517438Y-136463220D02*
X156469819Y-136367982D01*
X156803152Y-135606077D02*
X157469819Y-135606077D01*
X156898390Y-135606077D02*
X156850771Y-135558458D01*
X156850771Y-135558458D02*
X156803152Y-135463220D01*
X156803152Y-135463220D02*
X156803152Y-135320363D01*
X156803152Y-135320363D02*
X156850771Y-135225125D01*
X156850771Y-135225125D02*
X156946009Y-135177506D01*
X156946009Y-135177506D02*
X157469819Y-135177506D01*
X156946009Y-134367982D02*
X156946009Y-134701315D01*
X157469819Y-134701315D02*
X156469819Y-134701315D01*
X156469819Y-134701315D02*
X156469819Y-134225125D01*
X125880201Y-127256965D02*
X125385329Y-127542679D01*
X125632765Y-127399822D02*
X125132765Y-126533797D01*
X125132765Y-126533797D02*
X125121715Y-126705134D01*
X125121715Y-126705134D02*
X125086855Y-126835231D01*
X125086855Y-126835231D02*
X125028186Y-126924090D01*
X125916312Y-126081416D02*
X125998790Y-126033797D01*
X125998790Y-126033797D02*
X126105079Y-126027417D01*
X126105079Y-126027417D02*
X126170127Y-126044847D01*
X126170127Y-126044847D02*
X126258986Y-126103516D01*
X126258986Y-126103516D02*
X126395463Y-126244664D01*
X126395463Y-126244664D02*
X126514511Y-126450860D01*
X126514511Y-126450860D02*
X126568509Y-126639627D01*
X126568509Y-126639627D02*
X126574889Y-126745915D01*
X126574889Y-126745915D02*
X126557459Y-126810964D01*
X126557459Y-126810964D02*
X126498790Y-126899822D01*
X126498790Y-126899822D02*
X126416312Y-126947441D01*
X126416312Y-126947441D02*
X126310024Y-126953821D01*
X126310024Y-126953821D02*
X126244975Y-126936391D01*
X126244975Y-126936391D02*
X126156116Y-126877722D01*
X126156116Y-126877722D02*
X126019639Y-126736574D01*
X126019639Y-126736574D02*
X125900591Y-126530378D01*
X125900591Y-126530378D02*
X125846593Y-126341611D01*
X125846593Y-126341611D02*
X125840213Y-126235323D01*
X125840213Y-126235323D02*
X125857643Y-126170274D01*
X125857643Y-126170274D02*
X125916312Y-126081416D01*
X126741098Y-125605225D02*
X126823577Y-125557606D01*
X126823577Y-125557606D02*
X126929865Y-125551227D01*
X126929865Y-125551227D02*
X126994913Y-125568656D01*
X126994913Y-125568656D02*
X127083772Y-125627325D01*
X127083772Y-125627325D02*
X127220249Y-125768473D01*
X127220249Y-125768473D02*
X127339297Y-125974670D01*
X127339297Y-125974670D02*
X127393296Y-126163436D01*
X127393296Y-126163436D02*
X127399675Y-126269725D01*
X127399675Y-126269725D02*
X127382246Y-126334773D01*
X127382246Y-126334773D02*
X127323577Y-126423632D01*
X127323577Y-126423632D02*
X127241098Y-126471251D01*
X127241098Y-126471251D02*
X127134810Y-126477631D01*
X127134810Y-126477631D02*
X127069761Y-126460201D01*
X127069761Y-126460201D02*
X126980903Y-126401532D01*
X126980903Y-126401532D02*
X126844425Y-126260384D01*
X126844425Y-126260384D02*
X126725378Y-126054187D01*
X126725378Y-126054187D02*
X126671379Y-125865421D01*
X126671379Y-125865421D02*
X126664999Y-125759133D01*
X126664999Y-125759133D02*
X126682429Y-125694084D01*
X126682429Y-125694084D02*
X126741098Y-125605225D01*
X127567593Y-125512948D02*
X127900927Y-126090298D01*
X127615213Y-125595427D02*
X127632642Y-125530378D01*
X127632642Y-125530378D02*
X127691311Y-125441520D01*
X127691311Y-125441520D02*
X127815029Y-125370091D01*
X127815029Y-125370091D02*
X127921317Y-125363711D01*
X127921317Y-125363711D02*
X128010176Y-125422380D01*
X128010176Y-125422380D02*
X128272081Y-125876013D01*
X128711244Y-125017618D02*
X128422569Y-125184285D01*
X128684474Y-125637917D02*
X128184474Y-124771892D01*
X128184474Y-124771892D02*
X128596867Y-124533797D01*
D11*
X162392603Y-101706213D02*
X161579803Y-101706213D01*
X161579803Y-101706213D02*
X161579803Y-101396575D01*
X161579803Y-101396575D02*
X161618508Y-101319165D01*
X161618508Y-101319165D02*
X161657213Y-101280460D01*
X161657213Y-101280460D02*
X161734622Y-101241756D01*
X161734622Y-101241756D02*
X161850737Y-101241756D01*
X161850737Y-101241756D02*
X161928146Y-101280460D01*
X161928146Y-101280460D02*
X161966851Y-101319165D01*
X161966851Y-101319165D02*
X162005556Y-101396575D01*
X162005556Y-101396575D02*
X162005556Y-101706213D01*
X162392603Y-100428956D02*
X162005556Y-100699889D01*
X162392603Y-100893413D02*
X161579803Y-100893413D01*
X161579803Y-100893413D02*
X161579803Y-100583775D01*
X161579803Y-100583775D02*
X161618508Y-100506365D01*
X161618508Y-100506365D02*
X161657213Y-100467660D01*
X161657213Y-100467660D02*
X161734622Y-100428956D01*
X161734622Y-100428956D02*
X161850737Y-100428956D01*
X161850737Y-100428956D02*
X161928146Y-100467660D01*
X161928146Y-100467660D02*
X161966851Y-100506365D01*
X161966851Y-100506365D02*
X162005556Y-100583775D01*
X162005556Y-100583775D02*
X162005556Y-100893413D01*
X161579803Y-99925794D02*
X161579803Y-99770975D01*
X161579803Y-99770975D02*
X161618508Y-99693565D01*
X161618508Y-99693565D02*
X161695918Y-99616156D01*
X161695918Y-99616156D02*
X161850737Y-99577451D01*
X161850737Y-99577451D02*
X162121670Y-99577451D01*
X162121670Y-99577451D02*
X162276489Y-99616156D01*
X162276489Y-99616156D02*
X162353899Y-99693565D01*
X162353899Y-99693565D02*
X162392603Y-99770975D01*
X162392603Y-99770975D02*
X162392603Y-99925794D01*
X162392603Y-99925794D02*
X162353899Y-100003203D01*
X162353899Y-100003203D02*
X162276489Y-100080613D01*
X162276489Y-100080613D02*
X162121670Y-100119317D01*
X162121670Y-100119317D02*
X161850737Y-100119317D01*
X161850737Y-100119317D02*
X161695918Y-100080613D01*
X161695918Y-100080613D02*
X161618508Y-100003203D01*
X161618508Y-100003203D02*
X161579803Y-99925794D01*
X161618508Y-98803355D02*
X161579803Y-98880765D01*
X161579803Y-98880765D02*
X161579803Y-98996879D01*
X161579803Y-98996879D02*
X161618508Y-99112993D01*
X161618508Y-99112993D02*
X161695918Y-99190403D01*
X161695918Y-99190403D02*
X161773327Y-99229108D01*
X161773327Y-99229108D02*
X161928146Y-99267812D01*
X161928146Y-99267812D02*
X162044260Y-99267812D01*
X162044260Y-99267812D02*
X162199079Y-99229108D01*
X162199079Y-99229108D02*
X162276489Y-99190403D01*
X162276489Y-99190403D02*
X162353899Y-99112993D01*
X162353899Y-99112993D02*
X162392603Y-98996879D01*
X162392603Y-98996879D02*
X162392603Y-98919470D01*
X162392603Y-98919470D02*
X162353899Y-98803355D01*
X162353899Y-98803355D02*
X162315194Y-98764651D01*
X162315194Y-98764651D02*
X162044260Y-98764651D01*
X162044260Y-98764651D02*
X162044260Y-98919470D01*
D10*
X135733381Y-127824837D02*
X136233381Y-126958812D01*
X136233381Y-126958812D02*
X136439578Y-127077859D01*
X136439578Y-127077859D02*
X136539486Y-127190527D01*
X136539486Y-127190527D02*
X136574346Y-127320625D01*
X136574346Y-127320625D02*
X136567966Y-127426913D01*
X136567966Y-127426913D02*
X136513967Y-127615680D01*
X136513967Y-127615680D02*
X136442539Y-127739398D01*
X136442539Y-127739398D02*
X136306061Y-127880545D01*
X136306061Y-127880545D02*
X136217203Y-127939214D01*
X136217203Y-127939214D02*
X136087105Y-127974074D01*
X136087105Y-127974074D02*
X135939578Y-127943885D01*
X135939578Y-127943885D02*
X135733381Y-127824837D01*
X137470560Y-127673097D02*
X137305603Y-127577859D01*
X137305603Y-127577859D02*
X137199315Y-127571479D01*
X137199315Y-127571479D02*
X137134266Y-127588909D01*
X137134266Y-127588909D02*
X136980359Y-127665008D01*
X136980359Y-127665008D02*
X136843882Y-127806156D01*
X136843882Y-127806156D02*
X136653405Y-128136070D01*
X136653405Y-128136070D02*
X136647026Y-128242358D01*
X136647026Y-128242358D02*
X136664455Y-128307407D01*
X136664455Y-128307407D02*
X136723124Y-128396266D01*
X136723124Y-128396266D02*
X136888082Y-128491504D01*
X136888082Y-128491504D02*
X136994370Y-128497883D01*
X136994370Y-128497883D02*
X137059419Y-128480454D01*
X137059419Y-128480454D02*
X137148277Y-128421785D01*
X137148277Y-128421785D02*
X137267325Y-128215588D01*
X137267325Y-128215588D02*
X137273704Y-128109300D01*
X137273704Y-128109300D02*
X137256275Y-128044251D01*
X137256275Y-128044251D02*
X137197606Y-127955393D01*
X137197606Y-127955393D02*
X137032648Y-127860155D01*
X137032648Y-127860155D02*
X136926360Y-127853775D01*
X136926360Y-127853775D02*
X136861311Y-127871205D01*
X136861311Y-127871205D02*
X136772453Y-127929874D01*
X151357142Y-96659580D02*
X151309523Y-96707200D01*
X151309523Y-96707200D02*
X151166666Y-96754819D01*
X151166666Y-96754819D02*
X151071428Y-96754819D01*
X151071428Y-96754819D02*
X150928571Y-96707200D01*
X150928571Y-96707200D02*
X150833333Y-96611961D01*
X150833333Y-96611961D02*
X150785714Y-96516723D01*
X150785714Y-96516723D02*
X150738095Y-96326247D01*
X150738095Y-96326247D02*
X150738095Y-96183390D01*
X150738095Y-96183390D02*
X150785714Y-95992914D01*
X150785714Y-95992914D02*
X150833333Y-95897676D01*
X150833333Y-95897676D02*
X150928571Y-95802438D01*
X150928571Y-95802438D02*
X151071428Y-95754819D01*
X151071428Y-95754819D02*
X151166666Y-95754819D01*
X151166666Y-95754819D02*
X151309523Y-95802438D01*
X151309523Y-95802438D02*
X151357142Y-95850057D01*
X152309523Y-96754819D02*
X151738095Y-96754819D01*
X152023809Y-96754819D02*
X152023809Y-95754819D01*
X152023809Y-95754819D02*
X151928571Y-95897676D01*
X151928571Y-95897676D02*
X151833333Y-95992914D01*
X151833333Y-95992914D02*
X151738095Y-96040533D01*
X153166666Y-96088152D02*
X153166666Y-96754819D01*
X152928571Y-95707200D02*
X152690476Y-96421485D01*
X152690476Y-96421485D02*
X153309523Y-96421485D01*
X151238095Y-100054819D02*
X151238095Y-100864342D01*
X151238095Y-100864342D02*
X151285714Y-100959580D01*
X151285714Y-100959580D02*
X151333333Y-101007200D01*
X151333333Y-101007200D02*
X151428571Y-101054819D01*
X151428571Y-101054819D02*
X151619047Y-101054819D01*
X151619047Y-101054819D02*
X151714285Y-101007200D01*
X151714285Y-101007200D02*
X151761904Y-100959580D01*
X151761904Y-100959580D02*
X151809523Y-100864342D01*
X151809523Y-100864342D02*
X151809523Y-100054819D01*
X152809523Y-101054819D02*
X152238095Y-101054819D01*
X152523809Y-101054819D02*
X152523809Y-100054819D01*
X152523809Y-100054819D02*
X152428571Y-100197676D01*
X152428571Y-100197676D02*
X152333333Y-100292914D01*
X152333333Y-100292914D02*
X152238095Y-100340533D01*
X126237067Y-117588200D02*
X127103093Y-117088200D01*
X127103093Y-117088200D02*
X127222140Y-117294397D01*
X127222140Y-117294397D02*
X127252330Y-117441924D01*
X127252330Y-117441924D02*
X127217470Y-117572022D01*
X127217470Y-117572022D02*
X127158801Y-117660880D01*
X127158801Y-117660880D02*
X127017653Y-117797358D01*
X127017653Y-117797358D02*
X126893935Y-117868786D01*
X126893935Y-117868786D02*
X126705169Y-117922785D01*
X126705169Y-117922785D02*
X126598880Y-117929165D01*
X126598880Y-117929165D02*
X126468783Y-117894305D01*
X126468783Y-117894305D02*
X126356115Y-117794397D01*
X126356115Y-117794397D02*
X126237067Y-117588200D01*
X127841188Y-118366619D02*
X127603093Y-117954226D01*
X127603093Y-117954226D02*
X127166890Y-118151082D01*
X127166890Y-118151082D02*
X127231939Y-118168511D01*
X127231939Y-118168511D02*
X127320797Y-118227180D01*
X127320797Y-118227180D02*
X127439845Y-118433377D01*
X127439845Y-118433377D02*
X127446225Y-118539665D01*
X127446225Y-118539665D02*
X127428795Y-118604714D01*
X127428795Y-118604714D02*
X127370126Y-118693572D01*
X127370126Y-118693572D02*
X127163929Y-118812620D01*
X127163929Y-118812620D02*
X127057641Y-118819000D01*
X127057641Y-118819000D02*
X126992592Y-118801570D01*
X126992592Y-118801570D02*
X126903734Y-118742901D01*
X126903734Y-118742901D02*
X126784686Y-118536704D01*
X126784686Y-118536704D02*
X126778307Y-118430416D01*
X126778307Y-118430416D02*
X126795736Y-118365367D01*
X159466666Y-109774819D02*
X159466666Y-110489104D01*
X159466666Y-110489104D02*
X159419047Y-110631961D01*
X159419047Y-110631961D02*
X159323809Y-110727200D01*
X159323809Y-110727200D02*
X159180952Y-110774819D01*
X159180952Y-110774819D02*
X159085714Y-110774819D01*
X159847619Y-109774819D02*
X160466666Y-109774819D01*
X160466666Y-109774819D02*
X160133333Y-110155771D01*
X160133333Y-110155771D02*
X160276190Y-110155771D01*
X160276190Y-110155771D02*
X160371428Y-110203390D01*
X160371428Y-110203390D02*
X160419047Y-110251009D01*
X160419047Y-110251009D02*
X160466666Y-110346247D01*
X160466666Y-110346247D02*
X160466666Y-110584342D01*
X160466666Y-110584342D02*
X160419047Y-110679580D01*
X160419047Y-110679580D02*
X160371428Y-110727200D01*
X160371428Y-110727200D02*
X160276190Y-110774819D01*
X160276190Y-110774819D02*
X159990476Y-110774819D01*
X159990476Y-110774819D02*
X159895238Y-110727200D01*
X159895238Y-110727200D02*
X159847619Y-110679580D01*
X159361904Y-103254819D02*
X159028571Y-102778628D01*
X158790476Y-103254819D02*
X158790476Y-102254819D01*
X158790476Y-102254819D02*
X159171428Y-102254819D01*
X159171428Y-102254819D02*
X159266666Y-102302438D01*
X159266666Y-102302438D02*
X159314285Y-102350057D01*
X159314285Y-102350057D02*
X159361904Y-102445295D01*
X159361904Y-102445295D02*
X159361904Y-102588152D01*
X159361904Y-102588152D02*
X159314285Y-102683390D01*
X159314285Y-102683390D02*
X159266666Y-102731009D01*
X159266666Y-102731009D02*
X159171428Y-102778628D01*
X159171428Y-102778628D02*
X158790476Y-102778628D01*
X160171428Y-103207200D02*
X160076190Y-103254819D01*
X160076190Y-103254819D02*
X159885714Y-103254819D01*
X159885714Y-103254819D02*
X159790476Y-103207200D01*
X159790476Y-103207200D02*
X159742857Y-103111961D01*
X159742857Y-103111961D02*
X159742857Y-102731009D01*
X159742857Y-102731009D02*
X159790476Y-102635771D01*
X159790476Y-102635771D02*
X159885714Y-102588152D01*
X159885714Y-102588152D02*
X160076190Y-102588152D01*
X160076190Y-102588152D02*
X160171428Y-102635771D01*
X160171428Y-102635771D02*
X160219047Y-102731009D01*
X160219047Y-102731009D02*
X160219047Y-102826247D01*
X160219047Y-102826247D02*
X159742857Y-102921485D01*
X160600000Y-103207200D02*
X160695238Y-103254819D01*
X160695238Y-103254819D02*
X160885714Y-103254819D01*
X160885714Y-103254819D02*
X160980952Y-103207200D01*
X160980952Y-103207200D02*
X161028571Y-103111961D01*
X161028571Y-103111961D02*
X161028571Y-103064342D01*
X161028571Y-103064342D02*
X160980952Y-102969104D01*
X160980952Y-102969104D02*
X160885714Y-102921485D01*
X160885714Y-102921485D02*
X160742857Y-102921485D01*
X160742857Y-102921485D02*
X160647619Y-102873866D01*
X160647619Y-102873866D02*
X160600000Y-102778628D01*
X160600000Y-102778628D02*
X160600000Y-102731009D01*
X160600000Y-102731009D02*
X160647619Y-102635771D01*
X160647619Y-102635771D02*
X160742857Y-102588152D01*
X160742857Y-102588152D02*
X160885714Y-102588152D01*
X160885714Y-102588152D02*
X160980952Y-102635771D01*
X161838095Y-103207200D02*
X161742857Y-103254819D01*
X161742857Y-103254819D02*
X161552381Y-103254819D01*
X161552381Y-103254819D02*
X161457143Y-103207200D01*
X161457143Y-103207200D02*
X161409524Y-103111961D01*
X161409524Y-103111961D02*
X161409524Y-102731009D01*
X161409524Y-102731009D02*
X161457143Y-102635771D01*
X161457143Y-102635771D02*
X161552381Y-102588152D01*
X161552381Y-102588152D02*
X161742857Y-102588152D01*
X161742857Y-102588152D02*
X161838095Y-102635771D01*
X161838095Y-102635771D02*
X161885714Y-102731009D01*
X161885714Y-102731009D02*
X161885714Y-102826247D01*
X161885714Y-102826247D02*
X161409524Y-102921485D01*
X162171429Y-102588152D02*
X162552381Y-102588152D01*
X162314286Y-102254819D02*
X162314286Y-103111961D01*
X162314286Y-103111961D02*
X162361905Y-103207200D01*
X162361905Y-103207200D02*
X162457143Y-103254819D01*
X162457143Y-103254819D02*
X162552381Y-103254819D01*
X147833333Y-82804819D02*
X147500000Y-82328628D01*
X147261905Y-82804819D02*
X147261905Y-81804819D01*
X147261905Y-81804819D02*
X147642857Y-81804819D01*
X147642857Y-81804819D02*
X147738095Y-81852438D01*
X147738095Y-81852438D02*
X147785714Y-81900057D01*
X147785714Y-81900057D02*
X147833333Y-81995295D01*
X147833333Y-81995295D02*
X147833333Y-82138152D01*
X147833333Y-82138152D02*
X147785714Y-82233390D01*
X147785714Y-82233390D02*
X147738095Y-82281009D01*
X147738095Y-82281009D02*
X147642857Y-82328628D01*
X147642857Y-82328628D02*
X147261905Y-82328628D01*
X148785714Y-82804819D02*
X148214286Y-82804819D01*
X148500000Y-82804819D02*
X148500000Y-81804819D01*
X148500000Y-81804819D02*
X148404762Y-81947676D01*
X148404762Y-81947676D02*
X148309524Y-82042914D01*
X148309524Y-82042914D02*
X148214286Y-82090533D01*
X143014286Y-83454819D02*
X143633333Y-83454819D01*
X143633333Y-83454819D02*
X143300000Y-83835771D01*
X143300000Y-83835771D02*
X143442857Y-83835771D01*
X143442857Y-83835771D02*
X143538095Y-83883390D01*
X143538095Y-83883390D02*
X143585714Y-83931009D01*
X143585714Y-83931009D02*
X143633333Y-84026247D01*
X143633333Y-84026247D02*
X143633333Y-84264342D01*
X143633333Y-84264342D02*
X143585714Y-84359580D01*
X143585714Y-84359580D02*
X143538095Y-84407200D01*
X143538095Y-84407200D02*
X143442857Y-84454819D01*
X143442857Y-84454819D02*
X143157143Y-84454819D01*
X143157143Y-84454819D02*
X143061905Y-84407200D01*
X143061905Y-84407200D02*
X143014286Y-84359580D01*
X143966667Y-83454819D02*
X144585714Y-83454819D01*
X144585714Y-83454819D02*
X144252381Y-83835771D01*
X144252381Y-83835771D02*
X144395238Y-83835771D01*
X144395238Y-83835771D02*
X144490476Y-83883390D01*
X144490476Y-83883390D02*
X144538095Y-83931009D01*
X144538095Y-83931009D02*
X144585714Y-84026247D01*
X144585714Y-84026247D02*
X144585714Y-84264342D01*
X144585714Y-84264342D02*
X144538095Y-84359580D01*
X144538095Y-84359580D02*
X144490476Y-84407200D01*
X144490476Y-84407200D02*
X144395238Y-84454819D01*
X144395238Y-84454819D02*
X144109524Y-84454819D01*
X144109524Y-84454819D02*
X144014286Y-84407200D01*
X144014286Y-84407200D02*
X143966667Y-84359580D01*
X145204762Y-83454819D02*
X145300000Y-83454819D01*
X145300000Y-83454819D02*
X145395238Y-83502438D01*
X145395238Y-83502438D02*
X145442857Y-83550057D01*
X145442857Y-83550057D02*
X145490476Y-83645295D01*
X145490476Y-83645295D02*
X145538095Y-83835771D01*
X145538095Y-83835771D02*
X145538095Y-84073866D01*
X145538095Y-84073866D02*
X145490476Y-84264342D01*
X145490476Y-84264342D02*
X145442857Y-84359580D01*
X145442857Y-84359580D02*
X145395238Y-84407200D01*
X145395238Y-84407200D02*
X145300000Y-84454819D01*
X145300000Y-84454819D02*
X145204762Y-84454819D01*
X145204762Y-84454819D02*
X145109524Y-84407200D01*
X145109524Y-84407200D02*
X145061905Y-84359580D01*
X145061905Y-84359580D02*
X145014286Y-84264342D01*
X145014286Y-84264342D02*
X144966667Y-84073866D01*
X144966667Y-84073866D02*
X144966667Y-83835771D01*
X144966667Y-83835771D02*
X145014286Y-83645295D01*
X145014286Y-83645295D02*
X145061905Y-83550057D01*
X145061905Y-83550057D02*
X145109524Y-83502438D01*
X145109524Y-83502438D02*
X145204762Y-83454819D01*
X146538095Y-84454819D02*
X146204762Y-83978628D01*
X145966667Y-84454819D02*
X145966667Y-83454819D01*
X145966667Y-83454819D02*
X146347619Y-83454819D01*
X146347619Y-83454819D02*
X146442857Y-83502438D01*
X146442857Y-83502438D02*
X146490476Y-83550057D01*
X146490476Y-83550057D02*
X146538095Y-83645295D01*
X146538095Y-83645295D02*
X146538095Y-83788152D01*
X146538095Y-83788152D02*
X146490476Y-83883390D01*
X146490476Y-83883390D02*
X146442857Y-83931009D01*
X146442857Y-83931009D02*
X146347619Y-83978628D01*
X146347619Y-83978628D02*
X145966667Y-83978628D01*
X154833333Y-106654819D02*
X154500000Y-106178628D01*
X154261905Y-106654819D02*
X154261905Y-105654819D01*
X154261905Y-105654819D02*
X154642857Y-105654819D01*
X154642857Y-105654819D02*
X154738095Y-105702438D01*
X154738095Y-105702438D02*
X154785714Y-105750057D01*
X154785714Y-105750057D02*
X154833333Y-105845295D01*
X154833333Y-105845295D02*
X154833333Y-105988152D01*
X154833333Y-105988152D02*
X154785714Y-106083390D01*
X154785714Y-106083390D02*
X154738095Y-106131009D01*
X154738095Y-106131009D02*
X154642857Y-106178628D01*
X154642857Y-106178628D02*
X154261905Y-106178628D01*
X155166667Y-105654819D02*
X155785714Y-105654819D01*
X155785714Y-105654819D02*
X155452381Y-106035771D01*
X155452381Y-106035771D02*
X155595238Y-106035771D01*
X155595238Y-106035771D02*
X155690476Y-106083390D01*
X155690476Y-106083390D02*
X155738095Y-106131009D01*
X155738095Y-106131009D02*
X155785714Y-106226247D01*
X155785714Y-106226247D02*
X155785714Y-106464342D01*
X155785714Y-106464342D02*
X155738095Y-106559580D01*
X155738095Y-106559580D02*
X155690476Y-106607200D01*
X155690476Y-106607200D02*
X155595238Y-106654819D01*
X155595238Y-106654819D02*
X155309524Y-106654819D01*
X155309524Y-106654819D02*
X155214286Y-106607200D01*
X155214286Y-106607200D02*
X155166667Y-106559580D01*
X151376190Y-107788152D02*
X151376190Y-108454819D01*
X151138095Y-107407200D02*
X150900000Y-108121485D01*
X150900000Y-108121485D02*
X151519047Y-108121485D01*
X151900000Y-108359580D02*
X151947619Y-108407200D01*
X151947619Y-108407200D02*
X151900000Y-108454819D01*
X151900000Y-108454819D02*
X151852381Y-108407200D01*
X151852381Y-108407200D02*
X151900000Y-108359580D01*
X151900000Y-108359580D02*
X151900000Y-108454819D01*
X152280952Y-107454819D02*
X152947618Y-107454819D01*
X152947618Y-107454819D02*
X152519047Y-108454819D01*
X153328571Y-108454819D02*
X153328571Y-107454819D01*
X153899999Y-108454819D02*
X153471428Y-107883390D01*
X153899999Y-107454819D02*
X153328571Y-108026247D01*
X176854819Y-106214285D02*
X175854819Y-106214285D01*
X175854819Y-106214285D02*
X175854819Y-105976190D01*
X175854819Y-105976190D02*
X175902438Y-105833333D01*
X175902438Y-105833333D02*
X175997676Y-105738095D01*
X175997676Y-105738095D02*
X176092914Y-105690476D01*
X176092914Y-105690476D02*
X176283390Y-105642857D01*
X176283390Y-105642857D02*
X176426247Y-105642857D01*
X176426247Y-105642857D02*
X176616723Y-105690476D01*
X176616723Y-105690476D02*
X176711961Y-105738095D01*
X176711961Y-105738095D02*
X176807200Y-105833333D01*
X176807200Y-105833333D02*
X176854819Y-105976190D01*
X176854819Y-105976190D02*
X176854819Y-106214285D01*
X176854819Y-104690476D02*
X176854819Y-105261904D01*
X176854819Y-104976190D02*
X175854819Y-104976190D01*
X175854819Y-104976190D02*
X175997676Y-105071428D01*
X175997676Y-105071428D02*
X176092914Y-105166666D01*
X176092914Y-105166666D02*
X176140533Y-105261904D01*
X175854819Y-104071428D02*
X175854819Y-103976190D01*
X175854819Y-103976190D02*
X175902438Y-103880952D01*
X175902438Y-103880952D02*
X175950057Y-103833333D01*
X175950057Y-103833333D02*
X176045295Y-103785714D01*
X176045295Y-103785714D02*
X176235771Y-103738095D01*
X176235771Y-103738095D02*
X176473866Y-103738095D01*
X176473866Y-103738095D02*
X176664342Y-103785714D01*
X176664342Y-103785714D02*
X176759580Y-103833333D01*
X176759580Y-103833333D02*
X176807200Y-103880952D01*
X176807200Y-103880952D02*
X176854819Y-103976190D01*
X176854819Y-103976190D02*
X176854819Y-104071428D01*
X176854819Y-104071428D02*
X176807200Y-104166666D01*
X176807200Y-104166666D02*
X176759580Y-104214285D01*
X176759580Y-104214285D02*
X176664342Y-104261904D01*
X176664342Y-104261904D02*
X176473866Y-104309523D01*
X176473866Y-104309523D02*
X176235771Y-104309523D01*
X176235771Y-104309523D02*
X176045295Y-104261904D01*
X176045295Y-104261904D02*
X175950057Y-104214285D01*
X175950057Y-104214285D02*
X175902438Y-104166666D01*
X175902438Y-104166666D02*
X175854819Y-104071428D01*
X165470988Y-75755652D02*
X165970988Y-74889627D01*
X165970988Y-74889627D02*
X166177184Y-75008675D01*
X166177184Y-75008675D02*
X166277093Y-75121343D01*
X166277093Y-75121343D02*
X166311952Y-75251440D01*
X166311952Y-75251440D02*
X166305572Y-75357728D01*
X166305572Y-75357728D02*
X166251574Y-75546495D01*
X166251574Y-75546495D02*
X166180145Y-75670213D01*
X166180145Y-75670213D02*
X166043668Y-75811361D01*
X166043668Y-75811361D02*
X165954809Y-75870030D01*
X165954809Y-75870030D02*
X165824712Y-75904889D01*
X165824712Y-75904889D02*
X165677184Y-75874700D01*
X165677184Y-75874700D02*
X165470988Y-75755652D01*
X166790645Y-76517557D02*
X166295774Y-76231843D01*
X166543210Y-76374700D02*
X167043210Y-75508675D01*
X167043210Y-75508675D02*
X166889302Y-75584774D01*
X166889302Y-75584774D02*
X166759205Y-75619633D01*
X166759205Y-75619633D02*
X166652917Y-75613253D01*
X167572941Y-75924487D02*
X167637990Y-75907057D01*
X167637990Y-75907057D02*
X167744278Y-75913437D01*
X167744278Y-75913437D02*
X167950474Y-76032484D01*
X167950474Y-76032484D02*
X168009143Y-76121343D01*
X168009143Y-76121343D02*
X168026573Y-76186391D01*
X168026573Y-76186391D02*
X168020193Y-76292680D01*
X168020193Y-76292680D02*
X167972574Y-76375158D01*
X167972574Y-76375158D02*
X167859907Y-76475067D01*
X167859907Y-76475067D02*
X167079321Y-76684224D01*
X167079321Y-76684224D02*
X167615432Y-76993748D01*
X153131009Y-84333333D02*
X153131009Y-84666666D01*
X153654819Y-84666666D02*
X152654819Y-84666666D01*
X152654819Y-84666666D02*
X152654819Y-84190476D01*
X153654819Y-83285714D02*
X153654819Y-83857142D01*
X153654819Y-83571428D02*
X152654819Y-83571428D01*
X152654819Y-83571428D02*
X152797676Y-83666666D01*
X152797676Y-83666666D02*
X152892914Y-83761904D01*
X152892914Y-83761904D02*
X152940533Y-83857142D01*
X149261905Y-131854819D02*
X149261905Y-130854819D01*
X149261905Y-130854819D02*
X149500000Y-130854819D01*
X149500000Y-130854819D02*
X149642857Y-130902438D01*
X149642857Y-130902438D02*
X149738095Y-130997676D01*
X149738095Y-130997676D02*
X149785714Y-131092914D01*
X149785714Y-131092914D02*
X149833333Y-131283390D01*
X149833333Y-131283390D02*
X149833333Y-131426247D01*
X149833333Y-131426247D02*
X149785714Y-131616723D01*
X149785714Y-131616723D02*
X149738095Y-131711961D01*
X149738095Y-131711961D02*
X149642857Y-131807200D01*
X149642857Y-131807200D02*
X149500000Y-131854819D01*
X149500000Y-131854819D02*
X149261905Y-131854819D01*
X150166667Y-130854819D02*
X150833333Y-130854819D01*
X150833333Y-130854819D02*
X150404762Y-131854819D01*
X116954819Y-105738094D02*
X115954819Y-105738094D01*
X115954819Y-105738094D02*
X115954819Y-105499999D01*
X115954819Y-105499999D02*
X116002438Y-105357142D01*
X116002438Y-105357142D02*
X116097676Y-105261904D01*
X116097676Y-105261904D02*
X116192914Y-105214285D01*
X116192914Y-105214285D02*
X116383390Y-105166666D01*
X116383390Y-105166666D02*
X116526247Y-105166666D01*
X116526247Y-105166666D02*
X116716723Y-105214285D01*
X116716723Y-105214285D02*
X116811961Y-105261904D01*
X116811961Y-105261904D02*
X116907200Y-105357142D01*
X116907200Y-105357142D02*
X116954819Y-105499999D01*
X116954819Y-105499999D02*
X116954819Y-105738094D01*
X116288152Y-104309523D02*
X116954819Y-104309523D01*
X115907200Y-104547618D02*
X116621485Y-104785713D01*
X116621485Y-104785713D02*
X116621485Y-104166666D01*
X178030061Y-87425807D02*
X178896086Y-86925807D01*
X178896086Y-86925807D02*
X179015134Y-87132003D01*
X179015134Y-87132003D02*
X179045323Y-87279531D01*
X179045323Y-87279531D02*
X179010463Y-87409628D01*
X179010463Y-87409628D02*
X178951794Y-87498487D01*
X178951794Y-87498487D02*
X178810647Y-87634964D01*
X178810647Y-87634964D02*
X178686929Y-87706393D01*
X178686929Y-87706393D02*
X178498162Y-87760391D01*
X178498162Y-87760391D02*
X178391874Y-87766771D01*
X178391874Y-87766771D02*
X178261776Y-87731912D01*
X178261776Y-87731912D02*
X178149108Y-87632003D01*
X178149108Y-87632003D02*
X178030061Y-87425807D01*
X178791966Y-88745464D02*
X178506251Y-88250593D01*
X178649108Y-88498029D02*
X179515134Y-87998029D01*
X179515134Y-87998029D02*
X179343797Y-87986979D01*
X179343797Y-87986979D02*
X179213699Y-87952119D01*
X179213699Y-87952119D02*
X179124841Y-87893450D01*
X179268156Y-89570251D02*
X178982442Y-89075379D01*
X179125299Y-89322815D02*
X179991324Y-88822815D01*
X179991324Y-88822815D02*
X179819987Y-88811765D01*
X179819987Y-88811765D02*
X179689890Y-88776905D01*
X179689890Y-88776905D02*
X179601031Y-88718236D01*
X173224837Y-118866618D02*
X172358812Y-118366618D01*
X172358812Y-118366618D02*
X172477859Y-118160421D01*
X172477859Y-118160421D02*
X172590527Y-118060513D01*
X172590527Y-118060513D02*
X172720625Y-118025653D01*
X172720625Y-118025653D02*
X172826913Y-118032033D01*
X172826913Y-118032033D02*
X173015680Y-118086032D01*
X173015680Y-118086032D02*
X173139398Y-118157460D01*
X173139398Y-118157460D02*
X173280545Y-118293938D01*
X173280545Y-118293938D02*
X173339214Y-118382796D01*
X173339214Y-118382796D02*
X173374074Y-118512894D01*
X173374074Y-118512894D02*
X173343885Y-118660421D01*
X173343885Y-118660421D02*
X173224837Y-118866618D01*
X173748646Y-117959353D02*
X173843885Y-117794396D01*
X173843885Y-117794396D02*
X173850264Y-117688108D01*
X173850264Y-117688108D02*
X173832835Y-117623059D01*
X173832835Y-117623059D02*
X173756736Y-117469152D01*
X173756736Y-117469152D02*
X173615588Y-117332674D01*
X173615588Y-117332674D02*
X173285674Y-117142198D01*
X173285674Y-117142198D02*
X173179385Y-117135818D01*
X173179385Y-117135818D02*
X173114337Y-117153248D01*
X173114337Y-117153248D02*
X173025478Y-117211917D01*
X173025478Y-117211917D02*
X172930240Y-117376875D01*
X172930240Y-117376875D02*
X172923860Y-117483163D01*
X172923860Y-117483163D02*
X172941290Y-117548211D01*
X172941290Y-117548211D02*
X172999959Y-117637070D01*
X172999959Y-117637070D02*
X173206156Y-117756117D01*
X173206156Y-117756117D02*
X173312444Y-117762497D01*
X173312444Y-117762497D02*
X173377493Y-117745067D01*
X173377493Y-117745067D02*
X173466351Y-117686398D01*
X173466351Y-117686398D02*
X173561589Y-117521441D01*
X173561589Y-117521441D02*
X173567969Y-117415153D01*
X173567969Y-117415153D02*
X173550539Y-117350104D01*
X173550539Y-117350104D02*
X173491870Y-117261246D01*
X178957598Y-117352699D02*
X179186169Y-116956802D01*
X179071883Y-117154750D02*
X179764704Y-117554750D01*
X179764704Y-117554750D02*
X179703825Y-117431624D01*
X179703825Y-117431624D02*
X179675937Y-117327546D01*
X179675937Y-117327546D02*
X179681041Y-117242516D01*
X120993748Y-89116618D02*
X120127723Y-88616618D01*
X120127723Y-88616618D02*
X120246770Y-88410421D01*
X120246770Y-88410421D02*
X120359438Y-88310513D01*
X120359438Y-88310513D02*
X120489536Y-88275653D01*
X120489536Y-88275653D02*
X120595824Y-88282033D01*
X120595824Y-88282033D02*
X120784591Y-88336032D01*
X120784591Y-88336032D02*
X120908309Y-88407460D01*
X120908309Y-88407460D02*
X121049456Y-88543938D01*
X121049456Y-88543938D02*
X121108125Y-88632796D01*
X121108125Y-88632796D02*
X121142985Y-88762894D01*
X121142985Y-88762894D02*
X121112796Y-88910421D01*
X121112796Y-88910421D02*
X120993748Y-89116618D01*
X120580104Y-87833071D02*
X120889627Y-87296960D01*
X120889627Y-87296960D02*
X121052875Y-87776111D01*
X121052875Y-87776111D02*
X121124304Y-87652393D01*
X121124304Y-87652393D02*
X121213162Y-87593724D01*
X121213162Y-87593724D02*
X121278211Y-87576295D01*
X121278211Y-87576295D02*
X121384499Y-87582674D01*
X121384499Y-87582674D02*
X121590696Y-87701722D01*
X121590696Y-87701722D02*
X121649365Y-87790580D01*
X121649365Y-87790580D02*
X121666794Y-87855629D01*
X121666794Y-87855629D02*
X121660415Y-87961917D01*
X121660415Y-87961917D02*
X121517557Y-88209353D01*
X121517557Y-88209353D02*
X121428699Y-88268022D01*
X121428699Y-88268022D02*
X121363650Y-88285452D01*
X162988200Y-128562932D02*
X162488200Y-127696906D01*
X162488200Y-127696906D02*
X162694397Y-127577859D01*
X162694397Y-127577859D02*
X162841924Y-127547669D01*
X162841924Y-127547669D02*
X162972022Y-127582529D01*
X162972022Y-127582529D02*
X163060880Y-127641198D01*
X163060880Y-127641198D02*
X163197358Y-127782346D01*
X163197358Y-127782346D02*
X163268786Y-127906064D01*
X163268786Y-127906064D02*
X163322785Y-128094830D01*
X163322785Y-128094830D02*
X163329165Y-128201119D01*
X163329165Y-128201119D02*
X163294305Y-128331216D01*
X163294305Y-128331216D02*
X163194397Y-128443884D01*
X163194397Y-128443884D02*
X162988200Y-128562932D01*
X163692229Y-127496631D02*
X163585941Y-127503011D01*
X163585941Y-127503011D02*
X163520892Y-127485581D01*
X163520892Y-127485581D02*
X163432034Y-127426912D01*
X163432034Y-127426912D02*
X163408224Y-127385673D01*
X163408224Y-127385673D02*
X163401845Y-127279385D01*
X163401845Y-127279385D02*
X163419274Y-127214336D01*
X163419274Y-127214336D02*
X163477944Y-127125478D01*
X163477944Y-127125478D02*
X163642901Y-127030240D01*
X163642901Y-127030240D02*
X163749189Y-127023860D01*
X163749189Y-127023860D02*
X163814238Y-127041290D01*
X163814238Y-127041290D02*
X163903096Y-127099959D01*
X163903096Y-127099959D02*
X163926906Y-127141198D01*
X163926906Y-127141198D02*
X163933285Y-127247486D01*
X163933285Y-127247486D02*
X163915856Y-127312535D01*
X163915856Y-127312535D02*
X163857186Y-127401393D01*
X163857186Y-127401393D02*
X163692229Y-127496631D01*
X163692229Y-127496631D02*
X163633560Y-127585490D01*
X163633560Y-127585490D02*
X163616130Y-127650539D01*
X163616130Y-127650539D02*
X163622510Y-127756827D01*
X163622510Y-127756827D02*
X163717748Y-127921784D01*
X163717748Y-127921784D02*
X163806607Y-127980453D01*
X163806607Y-127980453D02*
X163871655Y-127997883D01*
X163871655Y-127997883D02*
X163977944Y-127991503D01*
X163977944Y-127991503D02*
X164142901Y-127896265D01*
X164142901Y-127896265D02*
X164201570Y-127807407D01*
X164201570Y-127807407D02*
X164219000Y-127742358D01*
X164219000Y-127742358D02*
X164212620Y-127636070D01*
X164212620Y-127636070D02*
X164117382Y-127471113D01*
X164117382Y-127471113D02*
X164028523Y-127412443D01*
X164028523Y-127412443D02*
X163963475Y-127395014D01*
X163963475Y-127395014D02*
X163857186Y-127401393D01*
X168885005Y-130186170D02*
X169280902Y-129957598D01*
X169082954Y-130071884D02*
X169482954Y-130764704D01*
X169482954Y-130764704D02*
X169491794Y-130627635D01*
X169491794Y-130627635D02*
X169519681Y-130523556D01*
X169519681Y-130523556D02*
X169566617Y-130452470D01*
X132838200Y-76731843D02*
X132338200Y-75865817D01*
X132338200Y-75865817D02*
X132544397Y-75746770D01*
X132544397Y-75746770D02*
X132691924Y-75716580D01*
X132691924Y-75716580D02*
X132822022Y-75751440D01*
X132822022Y-75751440D02*
X132910880Y-75810109D01*
X132910880Y-75810109D02*
X133047358Y-75951257D01*
X133047358Y-75951257D02*
X133118786Y-76074975D01*
X133118786Y-76074975D02*
X133172785Y-76263741D01*
X133172785Y-76263741D02*
X133179165Y-76370030D01*
X133179165Y-76370030D02*
X133144305Y-76500127D01*
X133144305Y-76500127D02*
X133044397Y-76612795D01*
X133044397Y-76612795D02*
X132838200Y-76731843D01*
X133210605Y-75472105D02*
X133228035Y-75407057D01*
X133228035Y-75407057D02*
X133286704Y-75318198D01*
X133286704Y-75318198D02*
X133492901Y-75199151D01*
X133492901Y-75199151D02*
X133599189Y-75192771D01*
X133599189Y-75192771D02*
X133664238Y-75210201D01*
X133664238Y-75210201D02*
X133753096Y-75268870D01*
X133753096Y-75268870D02*
X133800715Y-75351348D01*
X133800715Y-75351348D02*
X133830904Y-75498876D01*
X133830904Y-75498876D02*
X133621747Y-76279462D01*
X133621747Y-76279462D02*
X134157858Y-75969938D01*
X169044819Y-97333333D02*
X169759104Y-97333333D01*
X169759104Y-97333333D02*
X169901961Y-97380952D01*
X169901961Y-97380952D02*
X169997200Y-97476190D01*
X169997200Y-97476190D02*
X170044819Y-97619047D01*
X170044819Y-97619047D02*
X170044819Y-97714285D01*
X170044819Y-96333333D02*
X170044819Y-96904761D01*
X170044819Y-96619047D02*
X169044819Y-96619047D01*
X169044819Y-96619047D02*
X169187676Y-96714285D01*
X169187676Y-96714285D02*
X169282914Y-96809523D01*
X169282914Y-96809523D02*
X169330533Y-96904761D01*
X159085714Y-95054819D02*
X159085714Y-94054819D01*
X159085714Y-94054819D02*
X159466666Y-94054819D01*
X159466666Y-94054819D02*
X159561904Y-94102438D01*
X159561904Y-94102438D02*
X159609523Y-94150057D01*
X159609523Y-94150057D02*
X159657142Y-94245295D01*
X159657142Y-94245295D02*
X159657142Y-94388152D01*
X159657142Y-94388152D02*
X159609523Y-94483390D01*
X159609523Y-94483390D02*
X159561904Y-94531009D01*
X159561904Y-94531009D02*
X159466666Y-94578628D01*
X159466666Y-94578628D02*
X159085714Y-94578628D01*
X160085714Y-95054819D02*
X160085714Y-94388152D01*
X160085714Y-94578628D02*
X160133333Y-94483390D01*
X160133333Y-94483390D02*
X160180952Y-94435771D01*
X160180952Y-94435771D02*
X160276190Y-94388152D01*
X160276190Y-94388152D02*
X160371428Y-94388152D01*
X160847619Y-95054819D02*
X160752381Y-95007200D01*
X160752381Y-95007200D02*
X160704762Y-94959580D01*
X160704762Y-94959580D02*
X160657143Y-94864342D01*
X160657143Y-94864342D02*
X160657143Y-94578628D01*
X160657143Y-94578628D02*
X160704762Y-94483390D01*
X160704762Y-94483390D02*
X160752381Y-94435771D01*
X160752381Y-94435771D02*
X160847619Y-94388152D01*
X160847619Y-94388152D02*
X160990476Y-94388152D01*
X160990476Y-94388152D02*
X161085714Y-94435771D01*
X161085714Y-94435771D02*
X161133333Y-94483390D01*
X161133333Y-94483390D02*
X161180952Y-94578628D01*
X161180952Y-94578628D02*
X161180952Y-94864342D01*
X161180952Y-94864342D02*
X161133333Y-94959580D01*
X161133333Y-94959580D02*
X161085714Y-95007200D01*
X161085714Y-95007200D02*
X160990476Y-95054819D01*
X160990476Y-95054819D02*
X160847619Y-95054819D01*
X162038095Y-94388152D02*
X162038095Y-95197676D01*
X162038095Y-95197676D02*
X161990476Y-95292914D01*
X161990476Y-95292914D02*
X161942857Y-95340533D01*
X161942857Y-95340533D02*
X161847619Y-95388152D01*
X161847619Y-95388152D02*
X161704762Y-95388152D01*
X161704762Y-95388152D02*
X161609524Y-95340533D01*
X162038095Y-95007200D02*
X161942857Y-95054819D01*
X161942857Y-95054819D02*
X161752381Y-95054819D01*
X161752381Y-95054819D02*
X161657143Y-95007200D01*
X161657143Y-95007200D02*
X161609524Y-94959580D01*
X161609524Y-94959580D02*
X161561905Y-94864342D01*
X161561905Y-94864342D02*
X161561905Y-94578628D01*
X161561905Y-94578628D02*
X161609524Y-94483390D01*
X161609524Y-94483390D02*
X161657143Y-94435771D01*
X161657143Y-94435771D02*
X161752381Y-94388152D01*
X161752381Y-94388152D02*
X161942857Y-94388152D01*
X161942857Y-94388152D02*
X162038095Y-94435771D01*
X162514286Y-95054819D02*
X162514286Y-94388152D01*
X162514286Y-94578628D02*
X162561905Y-94483390D01*
X162561905Y-94483390D02*
X162609524Y-94435771D01*
X162609524Y-94435771D02*
X162704762Y-94388152D01*
X162704762Y-94388152D02*
X162800000Y-94388152D01*
X163561905Y-95054819D02*
X163561905Y-94531009D01*
X163561905Y-94531009D02*
X163514286Y-94435771D01*
X163514286Y-94435771D02*
X163419048Y-94388152D01*
X163419048Y-94388152D02*
X163228572Y-94388152D01*
X163228572Y-94388152D02*
X163133334Y-94435771D01*
X163561905Y-95007200D02*
X163466667Y-95054819D01*
X163466667Y-95054819D02*
X163228572Y-95054819D01*
X163228572Y-95054819D02*
X163133334Y-95007200D01*
X163133334Y-95007200D02*
X163085715Y-94911961D01*
X163085715Y-94911961D02*
X163085715Y-94816723D01*
X163085715Y-94816723D02*
X163133334Y-94721485D01*
X163133334Y-94721485D02*
X163228572Y-94673866D01*
X163228572Y-94673866D02*
X163466667Y-94673866D01*
X163466667Y-94673866D02*
X163561905Y-94626247D01*
X164038096Y-95054819D02*
X164038096Y-94388152D01*
X164038096Y-94483390D02*
X164085715Y-94435771D01*
X164085715Y-94435771D02*
X164180953Y-94388152D01*
X164180953Y-94388152D02*
X164323810Y-94388152D01*
X164323810Y-94388152D02*
X164419048Y-94435771D01*
X164419048Y-94435771D02*
X164466667Y-94531009D01*
X164466667Y-94531009D02*
X164466667Y-95054819D01*
X164466667Y-94531009D02*
X164514286Y-94435771D01*
X164514286Y-94435771D02*
X164609524Y-94388152D01*
X164609524Y-94388152D02*
X164752381Y-94388152D01*
X164752381Y-94388152D02*
X164847620Y-94435771D01*
X164847620Y-94435771D02*
X164895239Y-94531009D01*
X164895239Y-94531009D02*
X164895239Y-95054819D01*
X165371429Y-95054819D02*
X165371429Y-94388152D01*
X165371429Y-94483390D02*
X165419048Y-94435771D01*
X165419048Y-94435771D02*
X165514286Y-94388152D01*
X165514286Y-94388152D02*
X165657143Y-94388152D01*
X165657143Y-94388152D02*
X165752381Y-94435771D01*
X165752381Y-94435771D02*
X165800000Y-94531009D01*
X165800000Y-94531009D02*
X165800000Y-95054819D01*
X165800000Y-94531009D02*
X165847619Y-94435771D01*
X165847619Y-94435771D02*
X165942857Y-94388152D01*
X165942857Y-94388152D02*
X166085714Y-94388152D01*
X166085714Y-94388152D02*
X166180953Y-94435771D01*
X166180953Y-94435771D02*
X166228572Y-94531009D01*
X166228572Y-94531009D02*
X166228572Y-95054819D01*
X166704762Y-95054819D02*
X166704762Y-94388152D01*
X166704762Y-94054819D02*
X166657143Y-94102438D01*
X166657143Y-94102438D02*
X166704762Y-94150057D01*
X166704762Y-94150057D02*
X166752381Y-94102438D01*
X166752381Y-94102438D02*
X166704762Y-94054819D01*
X166704762Y-94054819D02*
X166704762Y-94150057D01*
X167180952Y-94388152D02*
X167180952Y-95054819D01*
X167180952Y-94483390D02*
X167228571Y-94435771D01*
X167228571Y-94435771D02*
X167323809Y-94388152D01*
X167323809Y-94388152D02*
X167466666Y-94388152D01*
X167466666Y-94388152D02*
X167561904Y-94435771D01*
X167561904Y-94435771D02*
X167609523Y-94531009D01*
X167609523Y-94531009D02*
X167609523Y-95054819D01*
X168514285Y-94388152D02*
X168514285Y-95197676D01*
X168514285Y-95197676D02*
X168466666Y-95292914D01*
X168466666Y-95292914D02*
X168419047Y-95340533D01*
X168419047Y-95340533D02*
X168323809Y-95388152D01*
X168323809Y-95388152D02*
X168180952Y-95388152D01*
X168180952Y-95388152D02*
X168085714Y-95340533D01*
X168514285Y-95007200D02*
X168419047Y-95054819D01*
X168419047Y-95054819D02*
X168228571Y-95054819D01*
X168228571Y-95054819D02*
X168133333Y-95007200D01*
X168133333Y-95007200D02*
X168085714Y-94959580D01*
X168085714Y-94959580D02*
X168038095Y-94864342D01*
X168038095Y-94864342D02*
X168038095Y-94578628D01*
X168038095Y-94578628D02*
X168085714Y-94483390D01*
X168085714Y-94483390D02*
X168133333Y-94435771D01*
X168133333Y-94435771D02*
X168228571Y-94388152D01*
X168228571Y-94388152D02*
X168419047Y-94388152D01*
X168419047Y-94388152D02*
X168514285Y-94435771D01*
X163854819Y-110966666D02*
X163378628Y-111299999D01*
X163854819Y-111538094D02*
X162854819Y-111538094D01*
X162854819Y-111538094D02*
X162854819Y-111157142D01*
X162854819Y-111157142D02*
X162902438Y-111061904D01*
X162902438Y-111061904D02*
X162950057Y-111014285D01*
X162950057Y-111014285D02*
X163045295Y-110966666D01*
X163045295Y-110966666D02*
X163188152Y-110966666D01*
X163188152Y-110966666D02*
X163283390Y-111014285D01*
X163283390Y-111014285D02*
X163331009Y-111061904D01*
X163331009Y-111061904D02*
X163378628Y-111157142D01*
X163378628Y-111157142D02*
X163378628Y-111538094D01*
X163188152Y-110109523D02*
X163854819Y-110109523D01*
X162807200Y-110347618D02*
X163521485Y-110585713D01*
X163521485Y-110585713D02*
X163521485Y-109966666D01*
X167104819Y-110490476D02*
X167104819Y-111061904D01*
X167104819Y-110776190D02*
X166104819Y-110776190D01*
X166104819Y-110776190D02*
X166247676Y-110871428D01*
X166247676Y-110871428D02*
X166342914Y-110966666D01*
X166342914Y-110966666D02*
X166390533Y-111061904D01*
X166104819Y-109871428D02*
X166104819Y-109776190D01*
X166104819Y-109776190D02*
X166152438Y-109680952D01*
X166152438Y-109680952D02*
X166200057Y-109633333D01*
X166200057Y-109633333D02*
X166295295Y-109585714D01*
X166295295Y-109585714D02*
X166485771Y-109538095D01*
X166485771Y-109538095D02*
X166723866Y-109538095D01*
X166723866Y-109538095D02*
X166914342Y-109585714D01*
X166914342Y-109585714D02*
X167009580Y-109633333D01*
X167009580Y-109633333D02*
X167057200Y-109680952D01*
X167057200Y-109680952D02*
X167104819Y-109776190D01*
X167104819Y-109776190D02*
X167104819Y-109871428D01*
X167104819Y-109871428D02*
X167057200Y-109966666D01*
X167057200Y-109966666D02*
X167009580Y-110014285D01*
X167009580Y-110014285D02*
X166914342Y-110061904D01*
X166914342Y-110061904D02*
X166723866Y-110109523D01*
X166723866Y-110109523D02*
X166485771Y-110109523D01*
X166485771Y-110109523D02*
X166295295Y-110061904D01*
X166295295Y-110061904D02*
X166200057Y-110014285D01*
X166200057Y-110014285D02*
X166152438Y-109966666D01*
X166152438Y-109966666D02*
X166104819Y-109871428D01*
X167104819Y-109109523D02*
X166104819Y-109109523D01*
X167104819Y-108538095D02*
X166533390Y-108966666D01*
X166104819Y-108538095D02*
X166676247Y-109109523D01*
X164134376Y-86448059D02*
X164069327Y-86430630D01*
X164069327Y-86430630D02*
X163956659Y-86330721D01*
X163956659Y-86330721D02*
X163909040Y-86248243D01*
X163909040Y-86248243D02*
X163878851Y-86100715D01*
X163878851Y-86100715D02*
X163913710Y-85970617D01*
X163913710Y-85970617D02*
X163972379Y-85881759D01*
X163972379Y-85881759D02*
X164113527Y-85745282D01*
X164113527Y-85745282D02*
X164237245Y-85673853D01*
X164237245Y-85673853D02*
X164426012Y-85619854D01*
X164426012Y-85619854D02*
X164532300Y-85613475D01*
X164532300Y-85613475D02*
X164662397Y-85648334D01*
X164662397Y-85648334D02*
X164775065Y-85748243D01*
X164775065Y-85748243D02*
X164822684Y-85830721D01*
X164822684Y-85830721D02*
X164852874Y-85978249D01*
X164852874Y-85978249D02*
X164835444Y-86043297D01*
X164528088Y-87320464D02*
X164242373Y-86825593D01*
X164385230Y-87073029D02*
X165251256Y-86573029D01*
X165251256Y-86573029D02*
X165079919Y-86561979D01*
X165079919Y-86561979D02*
X164949821Y-86527119D01*
X164949821Y-86527119D02*
X164860963Y-86468450D01*
X165703637Y-87356575D02*
X165751256Y-87439054D01*
X165751256Y-87439054D02*
X165757636Y-87545342D01*
X165757636Y-87545342D02*
X165740206Y-87610391D01*
X165740206Y-87610391D02*
X165681537Y-87699249D01*
X165681537Y-87699249D02*
X165540389Y-87835727D01*
X165540389Y-87835727D02*
X165334192Y-87954774D01*
X165334192Y-87954774D02*
X165145426Y-88008773D01*
X165145426Y-88008773D02*
X165039138Y-88015153D01*
X165039138Y-88015153D02*
X164974089Y-87997723D01*
X164974089Y-87997723D02*
X164885230Y-87939054D01*
X164885230Y-87939054D02*
X164837611Y-87856575D01*
X164837611Y-87856575D02*
X164831232Y-87750287D01*
X164831232Y-87750287D02*
X164848661Y-87685239D01*
X164848661Y-87685239D02*
X164907330Y-87596380D01*
X164907330Y-87596380D02*
X165048478Y-87459903D01*
X165048478Y-87459903D02*
X165254675Y-87340855D01*
X165254675Y-87340855D02*
X165443441Y-87286856D01*
X165443441Y-87286856D02*
X165549730Y-87280477D01*
X165549730Y-87280477D02*
X165614778Y-87297906D01*
X165614778Y-87297906D02*
X165703637Y-87356575D01*
X155826999Y-89649739D02*
X155541285Y-89154867D01*
X155684142Y-89402303D02*
X156550167Y-88902303D01*
X156550167Y-88902303D02*
X156378830Y-88891253D01*
X156378830Y-88891253D02*
X156248733Y-88856393D01*
X156248733Y-88856393D02*
X156159874Y-88797724D01*
X157002548Y-89685850D02*
X157050167Y-89768328D01*
X157050167Y-89768328D02*
X157056547Y-89874617D01*
X157056547Y-89874617D02*
X157039117Y-89939665D01*
X157039117Y-89939665D02*
X156980448Y-90028524D01*
X156980448Y-90028524D02*
X156839300Y-90165001D01*
X156839300Y-90165001D02*
X156633104Y-90284049D01*
X156633104Y-90284049D02*
X156444337Y-90338048D01*
X156444337Y-90338048D02*
X156338049Y-90344427D01*
X156338049Y-90344427D02*
X156273000Y-90326998D01*
X156273000Y-90326998D02*
X156184142Y-90268328D01*
X156184142Y-90268328D02*
X156136523Y-90185850D01*
X156136523Y-90185850D02*
X156130143Y-90079562D01*
X156130143Y-90079562D02*
X156147573Y-90014513D01*
X156147573Y-90014513D02*
X156206242Y-89925655D01*
X156206242Y-89925655D02*
X156347390Y-89789177D01*
X156347390Y-89789177D02*
X156553586Y-89670129D01*
X156553586Y-89670129D02*
X156742353Y-89616131D01*
X156742353Y-89616131D02*
X156848641Y-89609751D01*
X156848641Y-89609751D02*
X156913690Y-89627181D01*
X156913690Y-89627181D02*
X157002548Y-89685850D01*
X157478739Y-90510636D02*
X157526358Y-90593115D01*
X157526358Y-90593115D02*
X157532738Y-90699403D01*
X157532738Y-90699403D02*
X157515308Y-90764452D01*
X157515308Y-90764452D02*
X157456639Y-90853310D01*
X157456639Y-90853310D02*
X157315491Y-90989787D01*
X157315491Y-90989787D02*
X157109294Y-91108835D01*
X157109294Y-91108835D02*
X156920528Y-91162834D01*
X156920528Y-91162834D02*
X156814240Y-91169213D01*
X156814240Y-91169213D02*
X156749191Y-91151784D01*
X156749191Y-91151784D02*
X156660332Y-91093115D01*
X156660332Y-91093115D02*
X156612713Y-91010636D01*
X156612713Y-91010636D02*
X156606334Y-90904348D01*
X156606334Y-90904348D02*
X156623763Y-90839299D01*
X156623763Y-90839299D02*
X156682432Y-90750441D01*
X156682432Y-90750441D02*
X156823580Y-90613963D01*
X156823580Y-90613963D02*
X157029777Y-90494916D01*
X157029777Y-90494916D02*
X157218543Y-90440917D01*
X157218543Y-90440917D02*
X157324832Y-90434537D01*
X157324832Y-90434537D02*
X157389880Y-90451967D01*
X157389880Y-90451967D02*
X157478739Y-90510636D01*
X157954929Y-91335422D02*
X158002548Y-91417901D01*
X158002548Y-91417901D02*
X158008928Y-91524189D01*
X158008928Y-91524189D02*
X157991498Y-91589238D01*
X157991498Y-91589238D02*
X157932829Y-91678096D01*
X157932829Y-91678096D02*
X157791681Y-91814573D01*
X157791681Y-91814573D02*
X157585485Y-91933621D01*
X157585485Y-91933621D02*
X157396718Y-91987620D01*
X157396718Y-91987620D02*
X157290430Y-91994000D01*
X157290430Y-91994000D02*
X157225381Y-91976570D01*
X157225381Y-91976570D02*
X157136523Y-91917901D01*
X157136523Y-91917901D02*
X157088904Y-91835422D01*
X157088904Y-91835422D02*
X157082524Y-91729134D01*
X157082524Y-91729134D02*
X157099954Y-91664085D01*
X157099954Y-91664085D02*
X157158623Y-91575227D01*
X157158623Y-91575227D02*
X157299771Y-91438749D01*
X157299771Y-91438749D02*
X157505967Y-91319702D01*
X157505967Y-91319702D02*
X157694734Y-91265703D01*
X157694734Y-91265703D02*
X157801022Y-91259323D01*
X157801022Y-91259323D02*
X157866071Y-91276753D01*
X157866071Y-91276753D02*
X157954929Y-91335422D01*
X158261492Y-92533071D02*
X157684142Y-92866405D01*
X158047207Y-92161918D02*
X157593574Y-92423822D01*
X157593574Y-92423822D02*
X157534905Y-92512681D01*
X157534905Y-92512681D02*
X157541285Y-92618969D01*
X157541285Y-92618969D02*
X157612713Y-92742687D01*
X157612713Y-92742687D02*
X157701572Y-92801356D01*
X157701572Y-92801356D02*
X157766621Y-92818786D01*
X158542536Y-93305568D02*
X158375870Y-93016893D01*
X157922237Y-93278798D02*
X158788263Y-92778798D01*
X158788263Y-92778798D02*
X159026358Y-93191191D01*
X147033333Y-106654819D02*
X146700000Y-106178628D01*
X146461905Y-106654819D02*
X146461905Y-105654819D01*
X146461905Y-105654819D02*
X146842857Y-105654819D01*
X146842857Y-105654819D02*
X146938095Y-105702438D01*
X146938095Y-105702438D02*
X146985714Y-105750057D01*
X146985714Y-105750057D02*
X147033333Y-105845295D01*
X147033333Y-105845295D02*
X147033333Y-105988152D01*
X147033333Y-105988152D02*
X146985714Y-106083390D01*
X146985714Y-106083390D02*
X146938095Y-106131009D01*
X146938095Y-106131009D02*
X146842857Y-106178628D01*
X146842857Y-106178628D02*
X146461905Y-106178628D01*
X147414286Y-105750057D02*
X147461905Y-105702438D01*
X147461905Y-105702438D02*
X147557143Y-105654819D01*
X147557143Y-105654819D02*
X147795238Y-105654819D01*
X147795238Y-105654819D02*
X147890476Y-105702438D01*
X147890476Y-105702438D02*
X147938095Y-105750057D01*
X147938095Y-105750057D02*
X147985714Y-105845295D01*
X147985714Y-105845295D02*
X147985714Y-105940533D01*
X147985714Y-105940533D02*
X147938095Y-106083390D01*
X147938095Y-106083390D02*
X147366667Y-106654819D01*
X147366667Y-106654819D02*
X147985714Y-106654819D01*
X143376190Y-107988152D02*
X143376190Y-108654819D01*
X143138095Y-107607200D02*
X142900000Y-108321485D01*
X142900000Y-108321485D02*
X143519047Y-108321485D01*
X143900000Y-108559580D02*
X143947619Y-108607200D01*
X143947619Y-108607200D02*
X143900000Y-108654819D01*
X143900000Y-108654819D02*
X143852381Y-108607200D01*
X143852381Y-108607200D02*
X143900000Y-108559580D01*
X143900000Y-108559580D02*
X143900000Y-108654819D01*
X144280952Y-107654819D02*
X144947618Y-107654819D01*
X144947618Y-107654819D02*
X144519047Y-108654819D01*
X145328571Y-108654819D02*
X145328571Y-107654819D01*
X145899999Y-108654819D02*
X145471428Y-108083390D01*
X145899999Y-107654819D02*
X145328571Y-108226247D01*
X149261905Y-71954819D02*
X149261905Y-70954819D01*
X149261905Y-70954819D02*
X149500000Y-70954819D01*
X149500000Y-70954819D02*
X149642857Y-71002438D01*
X149642857Y-71002438D02*
X149738095Y-71097676D01*
X149738095Y-71097676D02*
X149785714Y-71192914D01*
X149785714Y-71192914D02*
X149833333Y-71383390D01*
X149833333Y-71383390D02*
X149833333Y-71526247D01*
X149833333Y-71526247D02*
X149785714Y-71716723D01*
X149785714Y-71716723D02*
X149738095Y-71811961D01*
X149738095Y-71811961D02*
X149642857Y-71907200D01*
X149642857Y-71907200D02*
X149500000Y-71954819D01*
X149500000Y-71954819D02*
X149261905Y-71954819D01*
X150785714Y-71954819D02*
X150214286Y-71954819D01*
X150500000Y-71954819D02*
X150500000Y-70954819D01*
X150500000Y-70954819D02*
X150404762Y-71097676D01*
X150404762Y-71097676D02*
X150309524Y-71192914D01*
X150309524Y-71192914D02*
X150214286Y-71240533D01*
D12*
%TO.C,D6*%
X133111731Y-128870577D02*
X132211731Y-130429423D01*
X133118911Y-127258142D02*
X130593911Y-131631570D01*
X133733623Y-127093430D02*
X133118911Y-127258142D01*
X136656089Y-135131570D02*
X130593911Y-131631570D01*
X136656089Y-135131570D02*
X139406089Y-130368430D01*
X137788269Y-131570577D02*
X136888269Y-133129423D01*
X139406089Y-130368430D02*
X133733623Y-127093430D01*
%TO.C,C14*%
X152261252Y-97265000D02*
X151738748Y-97265000D01*
X152261252Y-98735000D02*
X151738748Y-98735000D01*
%TO.C,U1*%
X149940000Y-99535000D02*
X154060000Y-99535000D01*
X149940000Y-99630000D02*
X149940000Y-99535000D01*
X149940000Y-104655000D02*
X149940000Y-104560000D01*
X154060000Y-99535000D02*
X154060000Y-99630000D01*
X154060000Y-104560000D02*
X154060000Y-104655000D01*
X154060000Y-104655000D02*
X149940000Y-104655000D01*
X149400000Y-99625000D02*
X149160000Y-99295000D01*
X149640000Y-99295000D01*
X149400000Y-99625000D01*
G36*
X149400000Y-99625000D02*
G01*
X149160000Y-99295000D01*
X149640000Y-99295000D01*
X149400000Y-99625000D01*
G37*
%TO.C,D5*%
X123368430Y-124406089D02*
X119868430Y-118343911D01*
X123368430Y-124406089D02*
X128131570Y-121656089D01*
X123429423Y-117211731D02*
X121870577Y-118111731D01*
X124241858Y-115818911D02*
X119868430Y-118343911D01*
X124856570Y-115983623D02*
X124241858Y-115818911D01*
X126129423Y-121888269D02*
X124570577Y-122788269D01*
X128131570Y-121656089D02*
X124856570Y-115983623D01*
%TO.C,J3*%
X159220000Y-106670000D02*
X159220000Y-104020000D01*
X161980000Y-104020000D02*
X159220000Y-104020000D01*
X161980000Y-106670000D02*
X159220000Y-106670000D01*
X161980000Y-106670000D02*
X161980000Y-104020000D01*
X161980000Y-107940000D02*
X161980000Y-109320000D01*
X161980000Y-109320000D02*
X160600000Y-109320000D01*
%TO.C,C12*%
X173158751Y-85032845D02*
X172706249Y-85294097D01*
X173893751Y-86305903D02*
X173441249Y-86567155D01*
%TO.C,C6*%
X126107748Y-123612847D02*
X126560250Y-123351595D01*
X126842748Y-124885905D02*
X127295250Y-124624653D01*
%TO.C,C9*%
X168494097Y-128793751D02*
X168232845Y-128341249D01*
X169767155Y-128058751D02*
X169505903Y-127606249D01*
%TO.C,R1*%
X148772936Y-83265000D02*
X149227064Y-83265000D01*
X148772936Y-84735000D02*
X149227064Y-84735000D01*
%TO.C,R3*%
X156227064Y-107265000D02*
X155772936Y-107265000D01*
X156227064Y-108735000D02*
X155772936Y-108735000D01*
%TO.C,D10*%
X177250000Y-101500000D02*
X177250000Y-108050000D01*
X177250000Y-108050000D02*
X177700000Y-108500000D01*
X177700000Y-108500000D02*
X182750000Y-108500000D01*
X179100000Y-102300000D02*
X180900000Y-102300000D01*
X179100000Y-107700000D02*
X180900000Y-107700000D01*
X182750000Y-101500000D02*
X177250000Y-101500000D01*
X182750000Y-101500000D02*
X182750000Y-108500000D01*
%TO.C,C2*%
X144265000Y-74738748D02*
X144265000Y-75261252D01*
X145735000Y-74738748D02*
X145735000Y-75261252D01*
%TO.C,D12*%
X160593911Y-79631570D02*
X166266377Y-82906570D01*
X162211731Y-78429423D02*
X163111731Y-76870577D01*
X163343911Y-74868430D02*
X160593911Y-79631570D01*
X163343911Y-74868430D02*
X169406089Y-78368430D01*
X166266377Y-82906570D02*
X166881089Y-82741858D01*
X166881089Y-82741858D02*
X169406089Y-78368430D01*
X166888269Y-81129423D02*
X167788269Y-79570577D01*
%TO.C,F1*%
X154290000Y-84738748D02*
X154290000Y-85261252D01*
X155710000Y-84738748D02*
X155710000Y-85261252D01*
%TO.C,C4*%
X121206249Y-94905903D02*
X121658751Y-95167155D01*
X121941249Y-93632845D02*
X122393751Y-93894097D01*
%TO.C,D7*%
X146500000Y-132700000D02*
X146500000Y-137750000D01*
X146950000Y-132250000D02*
X146500000Y-132700000D01*
X147300000Y-134100000D02*
X147300000Y-135900000D01*
X152700000Y-134100000D02*
X152700000Y-135900000D01*
X153500000Y-132250000D02*
X146950000Y-132250000D01*
X153500000Y-137750000D02*
X146500000Y-137750000D01*
X153500000Y-137750000D02*
X153500000Y-132250000D01*
%TO.C,C3*%
X130032845Y-81941249D02*
X130294097Y-82393751D01*
X131305903Y-81206249D02*
X131567155Y-81658751D01*
%TO.C,D4*%
X117250000Y-108500000D02*
X117250000Y-101500000D01*
X117250000Y-108500000D02*
X122750000Y-108500000D01*
X120900000Y-102300000D02*
X119100000Y-102300000D01*
X120900000Y-107700000D02*
X119100000Y-107700000D01*
X122300000Y-101500000D02*
X117250000Y-101500000D01*
X122750000Y-101950000D02*
X122300000Y-101500000D01*
X122750000Y-108500000D02*
X122750000Y-101950000D01*
%TO.C,D11*%
X171868430Y-88343911D02*
X175143430Y-94016377D01*
X173870577Y-88111731D02*
X175429423Y-87211731D01*
X175143430Y-94016377D02*
X175758142Y-94181089D01*
X175758142Y-94181089D02*
X180131570Y-91656089D01*
X176570577Y-92788269D02*
X178129423Y-91888269D01*
X176631570Y-85593911D02*
X171868430Y-88343911D01*
X176631570Y-85593911D02*
X180131570Y-91656089D01*
%TO.C,D9*%
X172093430Y-121266377D02*
X172258142Y-121881089D01*
X172258142Y-121881089D02*
X176631570Y-124406089D01*
X173870577Y-121888269D02*
X175429423Y-122788269D01*
X175368430Y-115593911D02*
X172093430Y-121266377D01*
X176570577Y-117211731D02*
X178129423Y-118111731D01*
X180131570Y-118343911D02*
X175368430Y-115593911D01*
X180131570Y-118343911D02*
X176631570Y-124406089D01*
%TO.C,D3*%
X119868430Y-91656089D02*
X123368430Y-85593911D01*
X119868430Y-91656089D02*
X124631570Y-94406089D01*
X123429423Y-92788269D02*
X121870577Y-91888269D01*
X124631570Y-94406089D02*
X127906570Y-88733623D01*
X126129423Y-88111731D02*
X124570577Y-87211731D01*
X127741858Y-88118911D02*
X123368430Y-85593911D01*
X127906570Y-88733623D02*
X127741858Y-88118911D01*
%TO.C,D8*%
X160818911Y-130758142D02*
X163343911Y-135131570D01*
X160983623Y-130143430D02*
X160818911Y-130758142D01*
X162211731Y-131570577D02*
X163111731Y-133129423D01*
X166656089Y-126868430D02*
X160983623Y-130143430D01*
X166888269Y-128870577D02*
X167788269Y-130429423D01*
X169406089Y-131631570D02*
X163343911Y-135131570D01*
X169406089Y-131631570D02*
X166656089Y-126868430D01*
%TO.C,C5*%
X119738748Y-109265000D02*
X120261252Y-109265000D01*
X119738748Y-110735000D02*
X120261252Y-110735000D01*
%TO.C,D2*%
X130593911Y-78368430D02*
X133343911Y-83131570D01*
X130593911Y-78368430D02*
X136656089Y-74868430D01*
X133111731Y-81129423D02*
X132211731Y-79570577D01*
X133343911Y-83131570D02*
X139016377Y-79856570D01*
X137788269Y-78429423D02*
X136888269Y-76870577D01*
X139016377Y-79856570D02*
X139181089Y-79241858D01*
X139181089Y-79241858D02*
X136656089Y-74868430D01*
%TO.C,C13*%
X160194097Y-76206249D02*
X159932845Y-76658751D01*
X161467155Y-76941249D02*
X161205903Y-77393751D01*
%TO.C,C1*%
X178858751Y-116767155D02*
X178406249Y-116505903D01*
X179593751Y-115494097D02*
X179141249Y-115232845D01*
%TO.C,C8*%
X154265000Y-135261252D02*
X154265000Y-134738748D01*
X155735000Y-135261252D02*
X155735000Y-134738748D01*
%TO.C,C11*%
X180061252Y-99465000D02*
X179538748Y-99465000D01*
X180061252Y-100935000D02*
X179538748Y-100935000D01*
%TO.C,J1*%
X158210000Y-95620000D02*
X158210000Y-98380000D01*
X165940000Y-95620000D02*
X158210000Y-95620000D01*
X165940000Y-95620000D02*
X165940000Y-98380000D01*
X165940000Y-98380000D02*
X158210000Y-98380000D01*
X167210000Y-95620000D02*
X168590000Y-95620000D01*
X168590000Y-95620000D02*
X168590000Y-97000000D01*
%TO.C,R4*%
X164265000Y-110027064D02*
X164265000Y-109572936D01*
X165735000Y-110027064D02*
X165735000Y-109572936D01*
%TO.C,C10*%
X156874072Y-88673683D02*
X159751854Y-93658147D01*
X157263683Y-87219635D02*
X156874072Y-88673683D01*
X157263683Y-87219635D02*
X158377013Y-86576853D01*
X159751854Y-93658147D02*
X161787013Y-92483147D01*
X160381232Y-84233262D02*
X160774982Y-84915257D01*
X160919104Y-84377385D02*
X160237109Y-84771135D01*
X161326317Y-84874072D02*
X160212987Y-85516853D01*
X161326317Y-84874072D02*
X162780365Y-85263683D01*
X162780365Y-85263683D02*
X165658147Y-90248146D01*
X165658147Y-90248146D02*
X163622987Y-91423147D01*
%TO.C,R2*%
X147772936Y-107265000D02*
X148227064Y-107265000D01*
X147772936Y-108735000D02*
X148227064Y-108735000D01*
%TO.C,C7*%
X138632845Y-132858751D02*
X138894097Y-132406249D01*
X139905903Y-133593751D02*
X140167155Y-133141249D01*
%TO.C,D1*%
X146500000Y-72250000D02*
X146500000Y-77750000D01*
X146500000Y-72250000D02*
X153500000Y-72250000D01*
X146500000Y-77750000D02*
X153050000Y-77750000D01*
X147300000Y-75900000D02*
X147300000Y-74100000D01*
X152700000Y-75900000D02*
X152700000Y-74100000D01*
X153050000Y-77750000D02*
X153500000Y-77300000D01*
X153500000Y-77300000D02*
X153500000Y-72250000D01*
%TD*%
M02*
