%TF.GenerationSoftware,KiCad,Pcbnew,9.0.6*%
%TF.CreationDate,2026-02-24T16:40:53+01:00*%
%TF.ProjectId,MPC-Status,4d50432d-5374-4617-9475-732e6b696361,rev?*%
%TF.SameCoordinates,Original*%
%TF.FileFunction,Copper,L3,Inr*%
%TF.FilePolarity,Positive*%
%FSLAX46Y46*%
G04 Gerber Fmt 4.6, Leading zero omitted, Abs format (unit mm)*
G04 Created by KiCad (PCBNEW 9.0.6) date 2026-02-24 16:40:53*
%MOMM*%
%LPD*%
G01*
G04 APERTURE LIST*
G04 Aperture macros list*
%AMRoundRect*
0 Rectangle with rounded corners*
0 $1 Rounding radius*
0 $2 $3 $4 $5 $6 $7 $8 $9 X,Y pos of 4 corners*
0 Add a 4 corners polygon primitive as box body*
4,1,4,$2,$3,$4,$5,$6,$7,$8,$9,$2,$3,0*
0 Add four circle primitives for the rounded corners*
1,1,$1+$1,$2,$3*
1,1,$1+$1,$4,$5*
1,1,$1+$1,$6,$7*
1,1,$1+$1,$8,$9*
0 Add four rect primitives between the rounded corners*
20,1,$1+$1,$2,$3,$4,$5,0*
20,1,$1+$1,$4,$5,$6,$7,0*
20,1,$1+$1,$6,$7,$8,$9,0*
20,1,$1+$1,$8,$9,$2,$3,0*%
G04 Aperture macros list end*
%TA.AperFunction,Conductor*%
%ADD10C,0.254000*%
%TD*%
%TA.AperFunction,ComponentPad*%
%ADD11R,1.700000X1.700000*%
%TD*%
%TA.AperFunction,ComponentPad*%
%ADD12C,1.700000*%
%TD*%
%TA.AperFunction,ComponentPad*%
%ADD13RoundRect,0.250000X-0.600000X-0.725000X0.600000X-0.725000X0.600000X0.725000X-0.600000X0.725000X0*%
%TD*%
%TA.AperFunction,ComponentPad*%
%ADD14O,1.700000X1.950000*%
%TD*%
%TA.AperFunction,ViaPad*%
%ADD15C,0.800000*%
%TD*%
%TA.AperFunction,ViaPad*%
%ADD16C,0.700000*%
%TD*%
%TA.AperFunction,Conductor*%
%ADD17C,0.300000*%
%TD*%
G04 APERTURE END LIST*
D10*
%TO.N,GND*%
X175000000Y-105000000D02*
G75*
G02*
X125000000Y-105000000I-25000000J0D01*
G01*
X125000000Y-105000000D02*
G75*
G02*
X175000000Y-105000000I25000000J0D01*
G01*
%TD*%
D11*
%TO.N,GND*%
%TO.C,J1*%
X163000000Y-106620000D03*
D12*
%TO.N,Reset*%
X163000000Y-104080000D03*
%TO.N,Programmierpin*%
X163000000Y-101540000D03*
%TO.N,+5V*%
X163000000Y-99000000D03*
%TD*%
D13*
%TO.N,GND*%
%TO.C,J2*%
X148500000Y-115000000D03*
D14*
%TO.N,I2C_SDA*%
X151000000Y-115000000D03*
%TO.N,I2C_SCL*%
X153500000Y-115000000D03*
%TO.N,+5V*%
X156000000Y-115000000D03*
%TD*%
D15*
%TO.N,+5VD*%
X157000000Y-74000000D03*
X156000000Y-75000000D03*
X158000000Y-73000000D03*
%TO.N,GND*%
X165000000Y-92000000D03*
X164000000Y-94000000D03*
%TO.N,+5V*%
X153000000Y-86000000D03*
X155000000Y-88000000D03*
D16*
X150000000Y-96000000D03*
%TO.N,GND*%
X130000000Y-84000000D03*
X133000000Y-126000000D03*
X160000000Y-130000000D03*
X125000000Y-114000000D03*
X124000000Y-101000000D03*
X140000000Y-79000000D03*
X143000000Y-76000000D03*
X158000000Y-77000000D03*
X142000000Y-134000000D03*
X157000000Y-135000000D03*
X167000000Y-84000000D03*
X154000000Y-78000000D03*
X171000000Y-85000000D03*
X129000000Y-88000000D03*
X122000000Y-97000000D03*
X154000000Y-96000000D03*
X128000000Y-126000000D03*
X179000000Y-113000000D03*
X171000000Y-127000000D03*
X178000000Y-98000000D03*
X175000000Y-96000000D03*
X177000000Y-110000000D03*
X171000000Y-122000000D03*
X146000000Y-131000000D03*
X122000000Y-112000000D03*
%TO.N,+5VD*%
X162000000Y-74000000D03*
X176000000Y-84000000D03*
X119000000Y-92000000D03*
X145000000Y-72000000D03*
X137000000Y-136000000D03*
X123000000Y-125000000D03*
X117000000Y-109000000D03*
X129000000Y-79000000D03*
X154000000Y-138000000D03*
X170000000Y-132000000D03*
X183000000Y-100000000D03*
X181000000Y-118000000D03*
%TD*%
D17*
%TO.N,GND*%
X150000000Y-79600000D02*
X150000000Y-80000000D01*
X150600000Y-79000000D02*
X150000000Y-79600000D01*
X153000000Y-79000000D02*
X150600000Y-79000000D01*
X154000000Y-78000000D02*
X153000000Y-79000000D01*
%TD*%
%TA.AperFunction,Conductor*%
%TO.N,+5VD*%
G36*
X150571396Y-70205224D02*
G01*
X151705528Y-70242352D01*
X151709523Y-70242548D01*
X152841843Y-70316764D01*
X152845881Y-70317095D01*
X153975167Y-70428320D01*
X153979099Y-70428773D01*
X155104146Y-70576888D01*
X155108113Y-70577476D01*
X156227738Y-70762327D01*
X156231680Y-70763045D01*
X157344615Y-70984421D01*
X157348490Y-70985258D01*
X158287811Y-71204276D01*
X158453607Y-71242935D01*
X158457543Y-71243921D01*
X158935911Y-71372099D01*
X159553617Y-71537612D01*
X159557443Y-71538705D01*
X160643383Y-71868122D01*
X160647166Y-71869337D01*
X161721683Y-72234087D01*
X161725492Y-72235450D01*
X162787461Y-72635147D01*
X162791230Y-72636636D01*
X163839591Y-73070880D01*
X163843279Y-73072479D01*
X164069246Y-73174864D01*
X164876858Y-73540789D01*
X164880526Y-73542524D01*
X165898211Y-74044390D01*
X165901820Y-74046244D01*
X166902554Y-74581147D01*
X166906051Y-74583090D01*
X167888778Y-75150468D01*
X167892230Y-75152538D01*
X168383193Y-75457838D01*
X168855826Y-75751740D01*
X168859228Y-75753933D01*
X169735403Y-76339374D01*
X169802716Y-76384351D01*
X169806052Y-76386660D01*
X170728387Y-77047597D01*
X170731646Y-77050014D01*
X171631866Y-77740777D01*
X171635045Y-77743300D01*
X171725842Y-77817815D01*
X172512200Y-78463162D01*
X172515257Y-78465755D01*
X172916704Y-78817815D01*
X173368399Y-79213941D01*
X173371405Y-79216666D01*
X174199573Y-79992330D01*
X174202489Y-79995152D01*
X175004847Y-80797510D01*
X175007669Y-80800426D01*
X175783333Y-81628594D01*
X175786058Y-81631600D01*
X176534228Y-82484724D01*
X176536842Y-82487805D01*
X176896776Y-82926386D01*
X177256699Y-83364954D01*
X177259222Y-83368133D01*
X177949985Y-84268353D01*
X177952402Y-84271612D01*
X178613339Y-85193947D01*
X178615648Y-85197283D01*
X179246060Y-86140762D01*
X179248259Y-86144173D01*
X179847453Y-87107755D01*
X179849539Y-87111235D01*
X179920692Y-87234476D01*
X180347419Y-87973589D01*
X180416895Y-88093924D01*
X180418866Y-88097471D01*
X180953755Y-89098179D01*
X180955609Y-89101788D01*
X181457475Y-90119473D01*
X181459210Y-90123141D01*
X181927512Y-91156703D01*
X181929126Y-91160426D01*
X182363361Y-92208764D01*
X182364852Y-92212538D01*
X182764549Y-93274507D01*
X182765916Y-93278327D01*
X183130645Y-94352783D01*
X183131887Y-94356647D01*
X183461281Y-95442511D01*
X183462395Y-95446413D01*
X183756078Y-96542456D01*
X183757064Y-96546392D01*
X184014731Y-97651464D01*
X184015587Y-97655430D01*
X184236949Y-98768294D01*
X184237676Y-98772286D01*
X184422519Y-99891863D01*
X184423114Y-99895877D01*
X184571220Y-101020851D01*
X184571684Y-101024882D01*
X184682903Y-102154115D01*
X184683235Y-102158159D01*
X184757449Y-103290447D01*
X184757648Y-103294500D01*
X184794776Y-104428603D01*
X184794842Y-104432660D01*
X184794842Y-105567339D01*
X184794776Y-105571396D01*
X184757648Y-106705499D01*
X184757449Y-106709552D01*
X184683235Y-107841840D01*
X184682903Y-107845884D01*
X184571684Y-108975117D01*
X184571220Y-108979148D01*
X184423114Y-110104122D01*
X184422519Y-110108136D01*
X184237676Y-111227713D01*
X184236949Y-111231705D01*
X184015587Y-112344569D01*
X184014731Y-112348535D01*
X183757064Y-113453607D01*
X183756078Y-113457543D01*
X183462395Y-114553586D01*
X183461281Y-114557488D01*
X183131887Y-115643352D01*
X183130645Y-115647216D01*
X182765916Y-116721672D01*
X182764549Y-116725492D01*
X182364852Y-117787461D01*
X182363361Y-117791235D01*
X181929126Y-118839573D01*
X181927512Y-118843296D01*
X181459210Y-119876858D01*
X181457475Y-119880526D01*
X180955609Y-120898211D01*
X180953755Y-120901820D01*
X180418866Y-121902528D01*
X180416895Y-121906075D01*
X179849539Y-122888764D01*
X179847453Y-122892244D01*
X179248259Y-123855826D01*
X179246060Y-123859237D01*
X178615648Y-124802716D01*
X178613339Y-124806052D01*
X177952402Y-125728387D01*
X177949985Y-125731646D01*
X177259222Y-126631866D01*
X177256699Y-126635045D01*
X176536853Y-127512181D01*
X176534228Y-127515275D01*
X175786058Y-128368399D01*
X175783333Y-128371405D01*
X175007669Y-129199573D01*
X175004847Y-129202489D01*
X174202489Y-130004847D01*
X174199573Y-130007669D01*
X173371405Y-130783333D01*
X173368399Y-130786058D01*
X172515275Y-131534228D01*
X172512181Y-131536853D01*
X171635045Y-132256699D01*
X171631866Y-132259222D01*
X170731646Y-132949985D01*
X170728387Y-132952402D01*
X169806052Y-133613339D01*
X169802716Y-133615648D01*
X168859237Y-134246060D01*
X168855826Y-134248259D01*
X167892244Y-134847453D01*
X167888764Y-134849539D01*
X166906075Y-135416895D01*
X166902528Y-135418866D01*
X165901820Y-135953755D01*
X165898211Y-135955609D01*
X164880526Y-136457475D01*
X164876858Y-136459210D01*
X163843296Y-136927512D01*
X163839573Y-136929126D01*
X162791235Y-137363361D01*
X162787461Y-137364852D01*
X161725492Y-137764549D01*
X161721672Y-137765916D01*
X160647216Y-138130645D01*
X160643352Y-138131887D01*
X159557488Y-138461281D01*
X159553586Y-138462395D01*
X158457543Y-138756078D01*
X158453607Y-138757064D01*
X157348535Y-139014731D01*
X157344569Y-139015587D01*
X156231705Y-139236949D01*
X156227713Y-139237676D01*
X155108136Y-139422519D01*
X155104122Y-139423114D01*
X153979148Y-139571220D01*
X153975117Y-139571684D01*
X152845884Y-139682903D01*
X152841840Y-139683235D01*
X151709552Y-139757449D01*
X151705499Y-139757648D01*
X150571396Y-139794776D01*
X150567339Y-139794842D01*
X149432661Y-139794842D01*
X149428604Y-139794776D01*
X148294500Y-139757648D01*
X148290447Y-139757449D01*
X147158159Y-139683235D01*
X147154115Y-139682903D01*
X146024882Y-139571684D01*
X146020851Y-139571220D01*
X144895877Y-139423114D01*
X144891863Y-139422519D01*
X143772286Y-139237676D01*
X143768294Y-139236949D01*
X142655430Y-139015587D01*
X142651464Y-139014731D01*
X141546392Y-138757064D01*
X141542456Y-138756078D01*
X140446413Y-138462395D01*
X140442511Y-138461281D01*
X139356647Y-138131887D01*
X139352796Y-138130649D01*
X138980562Y-138004292D01*
X138278327Y-137765916D01*
X138274507Y-137764549D01*
X137212538Y-137364852D01*
X137208764Y-137363361D01*
X136160426Y-136929126D01*
X136156703Y-136927512D01*
X135123141Y-136459210D01*
X135119473Y-136457475D01*
X134101788Y-135955609D01*
X134098179Y-135953755D01*
X133097471Y-135418866D01*
X133093924Y-135416895D01*
X132226744Y-134916228D01*
X156149500Y-134916228D01*
X156149500Y-135083771D01*
X156182182Y-135248074D01*
X156182184Y-135248082D01*
X156246295Y-135402860D01*
X156339373Y-135542162D01*
X156457837Y-135660626D01*
X156550494Y-135722537D01*
X156597137Y-135753703D01*
X156751918Y-135817816D01*
X156916228Y-135850499D01*
X156916232Y-135850500D01*
X156916233Y-135850500D01*
X157083768Y-135850500D01*
X157083769Y-135850499D01*
X157248082Y-135817816D01*
X157402863Y-135753703D01*
X157542162Y-135660626D01*
X157660626Y-135542162D01*
X157753703Y-135402863D01*
X157817816Y-135248082D01*
X157850500Y-135083767D01*
X157850500Y-134916233D01*
X157817816Y-134751918D01*
X157753703Y-134597137D01*
X157716970Y-134542162D01*
X157660626Y-134457837D01*
X157542162Y-134339373D01*
X157402860Y-134246295D01*
X157248082Y-134182184D01*
X157248074Y-134182182D01*
X157083771Y-134149500D01*
X157083767Y-134149500D01*
X156916233Y-134149500D01*
X156916228Y-134149500D01*
X156751925Y-134182182D01*
X156751917Y-134182184D01*
X156597139Y-134246295D01*
X156457837Y-134339373D01*
X156339373Y-134457837D01*
X156246295Y-134597139D01*
X156182184Y-134751917D01*
X156182182Y-134751925D01*
X156149500Y-134916228D01*
X132226744Y-134916228D01*
X132111235Y-134849539D01*
X132107755Y-134847453D01*
X131144173Y-134248259D01*
X131140762Y-134246060D01*
X130792326Y-134013243D01*
X130647133Y-133916228D01*
X141149500Y-133916228D01*
X141149500Y-134083771D01*
X141182182Y-134248074D01*
X141182184Y-134248082D01*
X141246295Y-134402860D01*
X141339373Y-134542162D01*
X141457837Y-134660626D01*
X141550494Y-134722537D01*
X141597137Y-134753703D01*
X141751918Y-134817816D01*
X141900915Y-134847453D01*
X141916228Y-134850499D01*
X141916232Y-134850500D01*
X141916233Y-134850500D01*
X142083768Y-134850500D01*
X142083769Y-134850499D01*
X142248082Y-134817816D01*
X142402863Y-134753703D01*
X142542162Y-134660626D01*
X142660626Y-134542162D01*
X142753703Y-134402863D01*
X142817816Y-134248082D01*
X142850500Y-134083767D01*
X142850500Y-133916233D01*
X142817816Y-133751918D01*
X142753703Y-133597137D01*
X142722537Y-133550494D01*
X142660626Y-133457837D01*
X142542162Y-133339373D01*
X142402860Y-133246295D01*
X142248082Y-133182184D01*
X142248074Y-133182182D01*
X142083771Y-133149500D01*
X142083767Y-133149500D01*
X141916233Y-133149500D01*
X141916228Y-133149500D01*
X141751925Y-133182182D01*
X141751917Y-133182184D01*
X141597139Y-133246295D01*
X141457837Y-133339373D01*
X141339373Y-133457837D01*
X141246295Y-133597139D01*
X141182184Y-133751917D01*
X141182182Y-133751925D01*
X141149500Y-133916228D01*
X130647133Y-133916228D01*
X130197283Y-133615648D01*
X130193947Y-133613339D01*
X129271612Y-132952402D01*
X129268353Y-132949985D01*
X128368133Y-132259222D01*
X128364954Y-132256699D01*
X127926386Y-131896776D01*
X127487805Y-131536842D01*
X127484724Y-131534228D01*
X126631600Y-130786058D01*
X126628594Y-130783333D01*
X125800426Y-130007669D01*
X125797510Y-130004847D01*
X124995152Y-129202489D01*
X124992330Y-129199573D01*
X124216666Y-128371405D01*
X124213941Y-128368399D01*
X123759755Y-127850499D01*
X123465755Y-127515257D01*
X123463162Y-127512200D01*
X122743300Y-126635045D01*
X122740777Y-126631866D01*
X122320209Y-126083771D01*
X122191649Y-125916228D01*
X127149500Y-125916228D01*
X127149500Y-126083771D01*
X127182182Y-126248074D01*
X127182184Y-126248082D01*
X127246295Y-126402860D01*
X127339373Y-126542162D01*
X127457837Y-126660626D01*
X127550494Y-126722537D01*
X127597137Y-126753703D01*
X127751918Y-126817816D01*
X127916228Y-126850499D01*
X127916232Y-126850500D01*
X127916233Y-126850500D01*
X128083768Y-126850500D01*
X128083769Y-126850499D01*
X128248082Y-126817816D01*
X128402863Y-126753703D01*
X128542162Y-126660626D01*
X128660626Y-126542162D01*
X128753703Y-126402863D01*
X128817816Y-126248082D01*
X128850500Y-126083767D01*
X128850500Y-125916233D01*
X128850499Y-125916228D01*
X132149500Y-125916228D01*
X132149500Y-126083771D01*
X132182182Y-126248074D01*
X132182184Y-126248082D01*
X132246295Y-126402860D01*
X132339373Y-126542162D01*
X132457837Y-126660626D01*
X132550494Y-126722537D01*
X132597137Y-126753703D01*
X132751918Y-126817816D01*
X132916228Y-126850499D01*
X132916232Y-126850500D01*
X132916233Y-126850500D01*
X133083768Y-126850500D01*
X133083769Y-126850499D01*
X133248082Y-126817816D01*
X133402863Y-126753703D01*
X133542162Y-126660626D01*
X133660626Y-126542162D01*
X133753703Y-126402863D01*
X133817816Y-126248082D01*
X133850500Y-126083767D01*
X133850500Y-125916233D01*
X133817816Y-125751918D01*
X133753703Y-125597137D01*
X133722537Y-125550494D01*
X133660626Y-125457837D01*
X133542162Y-125339373D01*
X133402860Y-125246295D01*
X133248082Y-125182184D01*
X133248074Y-125182182D01*
X133083771Y-125149500D01*
X133083767Y-125149500D01*
X132916233Y-125149500D01*
X132916228Y-125149500D01*
X132751925Y-125182182D01*
X132751917Y-125182184D01*
X132597139Y-125246295D01*
X132457837Y-125339373D01*
X132339373Y-125457837D01*
X132246295Y-125597139D01*
X132182184Y-125751917D01*
X132182182Y-125751925D01*
X132149500Y-125916228D01*
X128850499Y-125916228D01*
X128817816Y-125751918D01*
X128753703Y-125597137D01*
X128722537Y-125550494D01*
X128660626Y-125457837D01*
X128542162Y-125339373D01*
X128402860Y-125246295D01*
X128248082Y-125182184D01*
X128248074Y-125182182D01*
X128083771Y-125149500D01*
X128083767Y-125149500D01*
X127916233Y-125149500D01*
X127916228Y-125149500D01*
X127751925Y-125182182D01*
X127751917Y-125182184D01*
X127597139Y-125246295D01*
X127457837Y-125339373D01*
X127339373Y-125457837D01*
X127246295Y-125597139D01*
X127182184Y-125751917D01*
X127182182Y-125751925D01*
X127149500Y-125916228D01*
X122191649Y-125916228D01*
X122111310Y-125811529D01*
X122050014Y-125731646D01*
X122047597Y-125728387D01*
X121386660Y-124806052D01*
X121384351Y-124802716D01*
X120753939Y-123859237D01*
X120751740Y-123855826D01*
X120516318Y-123477237D01*
X120152538Y-122892230D01*
X120150460Y-122888764D01*
X119583090Y-121906051D01*
X119581147Y-121902554D01*
X119046244Y-120901820D01*
X119044390Y-120898211D01*
X118542524Y-119880526D01*
X118540789Y-119876858D01*
X118072487Y-118843296D01*
X118070873Y-118839573D01*
X117636638Y-117791235D01*
X117635147Y-117787461D01*
X117235450Y-116725492D01*
X117234083Y-116721672D01*
X116869337Y-115647166D01*
X116868122Y-115643383D01*
X116538705Y-114557443D01*
X116537612Y-114553617D01*
X116340456Y-113817817D01*
X116243921Y-113457543D01*
X116242935Y-113453607D01*
X116179648Y-113182184D01*
X115985258Y-112348490D01*
X115984421Y-112344615D01*
X115899210Y-111916228D01*
X121149500Y-111916228D01*
X121149500Y-112083771D01*
X121182182Y-112248074D01*
X121182184Y-112248082D01*
X121246295Y-112402860D01*
X121339373Y-112542162D01*
X121457837Y-112660626D01*
X121550494Y-112722537D01*
X121597137Y-112753703D01*
X121751918Y-112817816D01*
X121916228Y-112850499D01*
X121916232Y-112850500D01*
X121916233Y-112850500D01*
X122083768Y-112850500D01*
X122083769Y-112850499D01*
X122248082Y-112817816D01*
X122402863Y-112753703D01*
X122542162Y-112660626D01*
X122660626Y-112542162D01*
X122753703Y-112402863D01*
X122817816Y-112248082D01*
X122850500Y-112083767D01*
X122850500Y-111916233D01*
X122817816Y-111751918D01*
X122753703Y-111597137D01*
X122722537Y-111550494D01*
X122660626Y-111457837D01*
X122542162Y-111339373D01*
X122402860Y-111246295D01*
X122248082Y-111182184D01*
X122248074Y-111182182D01*
X122083771Y-111149500D01*
X122083767Y-111149500D01*
X121916233Y-111149500D01*
X121916228Y-111149500D01*
X121751925Y-111182182D01*
X121751917Y-111182184D01*
X121597139Y-111246295D01*
X121457837Y-111339373D01*
X121339373Y-111457837D01*
X121246295Y-111597139D01*
X121182184Y-111751917D01*
X121182182Y-111751925D01*
X121149500Y-111916228D01*
X115899210Y-111916228D01*
X115763045Y-111231680D01*
X115762323Y-111227713D01*
X115754806Y-111182184D01*
X115577476Y-110108113D01*
X115576885Y-110104122D01*
X115574206Y-110083771D01*
X115428773Y-108979099D01*
X115428320Y-108975167D01*
X115317095Y-107845881D01*
X115316764Y-107841840D01*
X115295173Y-107512419D01*
X115242548Y-106709523D01*
X115242351Y-106705499D01*
X115235918Y-106509002D01*
X115205224Y-105571396D01*
X115205158Y-105567339D01*
X115205158Y-104432660D01*
X115205224Y-104428603D01*
X115235918Y-103491015D01*
X115242352Y-103294468D01*
X115242548Y-103290479D01*
X115316764Y-102158151D01*
X115317096Y-102154115D01*
X115343347Y-101887584D01*
X115428321Y-101024825D01*
X115428772Y-101020907D01*
X115442553Y-100916228D01*
X123149500Y-100916228D01*
X123149500Y-101083771D01*
X123182182Y-101248074D01*
X123182184Y-101248082D01*
X123246295Y-101402860D01*
X123339373Y-101542162D01*
X123457837Y-101660626D01*
X123550494Y-101722537D01*
X123597137Y-101753703D01*
X123751918Y-101817816D01*
X123875220Y-101842342D01*
X123916228Y-101850499D01*
X123916232Y-101850500D01*
X123916233Y-101850500D01*
X124083768Y-101850500D01*
X124083769Y-101850499D01*
X124248082Y-101817816D01*
X124391408Y-101758447D01*
X124460875Y-101750979D01*
X124523354Y-101782254D01*
X124559007Y-101842342D01*
X124562000Y-101887584D01*
X124490985Y-102487588D01*
X124412014Y-103491015D01*
X124372500Y-104496730D01*
X124372500Y-105503269D01*
X124412014Y-106508984D01*
X124490987Y-107512436D01*
X124609289Y-108511958D01*
X124766744Y-109506090D01*
X124963103Y-110493254D01*
X125198075Y-111471984D01*
X125328471Y-111934332D01*
X125471283Y-112440705D01*
X125625792Y-112916233D01*
X125714096Y-113188005D01*
X125716091Y-113257846D01*
X125680011Y-113317679D01*
X125617310Y-113348507D01*
X125547896Y-113340542D01*
X125527275Y-113329426D01*
X125420147Y-113257846D01*
X125402863Y-113246297D01*
X125402860Y-113246295D01*
X125402859Y-113246295D01*
X125248082Y-113182184D01*
X125248074Y-113182182D01*
X125083771Y-113149500D01*
X125083767Y-113149500D01*
X124916233Y-113149500D01*
X124916228Y-113149500D01*
X124751925Y-113182182D01*
X124751917Y-113182184D01*
X124597139Y-113246295D01*
X124457837Y-113339373D01*
X124339373Y-113457837D01*
X124246295Y-113597139D01*
X124182184Y-113751917D01*
X124182182Y-113751925D01*
X124149500Y-113916228D01*
X124149500Y-114083771D01*
X124182182Y-114248074D01*
X124182184Y-114248082D01*
X124246295Y-114402860D01*
X124339373Y-114542162D01*
X124457837Y-114660626D01*
X124550494Y-114722537D01*
X124597137Y-114753703D01*
X124751918Y-114817816D01*
X124916228Y-114850499D01*
X124916232Y-114850500D01*
X124916233Y-114850500D01*
X125083768Y-114850500D01*
X125083769Y-114850499D01*
X125248082Y-114817816D01*
X125402863Y-114753703D01*
X125542162Y-114660626D01*
X125660626Y-114542162D01*
X125753703Y-114402863D01*
X125817816Y-114248082D01*
X125829468Y-114189501D01*
X125861852Y-114127593D01*
X125922567Y-114093018D01*
X125992337Y-114096757D01*
X126049009Y-114137623D01*
X126067421Y-114170776D01*
X126130688Y-114342269D01*
X126301109Y-114753703D01*
X126515866Y-115272171D01*
X126937255Y-116186234D01*
X127394205Y-117083049D01*
X127873268Y-117938477D01*
X127886020Y-117961247D01*
X128359584Y-118734033D01*
X128411916Y-118819431D01*
X128971108Y-119656321D01*
X129562725Y-120470612D01*
X129899817Y-120898211D01*
X130185854Y-121261047D01*
X130839540Y-122026415D01*
X131316292Y-122542162D01*
X131511839Y-122753704D01*
X131522765Y-122765523D01*
X132234476Y-123477234D01*
X132973584Y-124160459D01*
X132973589Y-124160463D01*
X133738952Y-124814145D01*
X134529388Y-125437275D01*
X135343679Y-126028892D01*
X136180569Y-126588084D01*
X137038767Y-127113988D01*
X137916951Y-127605795D01*
X138813766Y-128062745D01*
X139727829Y-128484134D01*
X140657731Y-128869312D01*
X141324890Y-129115439D01*
X141602041Y-129217686D01*
X141690091Y-129246295D01*
X142559295Y-129528717D01*
X143528025Y-129801927D01*
X144506733Y-130036894D01*
X145324805Y-130199618D01*
X145386715Y-130232003D01*
X145421289Y-130292718D01*
X145417550Y-130362488D01*
X145388295Y-130408915D01*
X145339373Y-130457837D01*
X145246295Y-130597139D01*
X145182184Y-130751917D01*
X145182182Y-130751925D01*
X145149500Y-130916228D01*
X145149500Y-131083771D01*
X145182182Y-131248074D01*
X145182184Y-131248082D01*
X145246295Y-131402860D01*
X145339373Y-131542162D01*
X145457837Y-131660626D01*
X145550494Y-131722537D01*
X145597137Y-131753703D01*
X145751918Y-131817816D01*
X145888246Y-131844933D01*
X145916228Y-131850499D01*
X145916232Y-131850500D01*
X145916233Y-131850500D01*
X146083768Y-131850500D01*
X146083769Y-131850499D01*
X146248082Y-131817816D01*
X146402863Y-131753703D01*
X146542162Y-131660626D01*
X146660626Y-131542162D01*
X146753703Y-131402863D01*
X146817816Y-131248082D01*
X146850500Y-131083767D01*
X146850500Y-130916233D01*
X146817816Y-130751918D01*
X146758448Y-130608592D01*
X146750979Y-130539123D01*
X146782254Y-130476643D01*
X146842343Y-130440991D01*
X146887583Y-130437999D01*
X147055201Y-130457838D01*
X147487563Y-130509012D01*
X147487566Y-130509012D01*
X147487581Y-130509014D01*
X148490998Y-130587984D01*
X148491006Y-130587984D01*
X148491015Y-130587985D01*
X149496731Y-130627500D01*
X149496741Y-130627500D01*
X150503269Y-130627500D01*
X151508984Y-130587985D01*
X151508991Y-130587984D01*
X151509002Y-130587984D01*
X152512419Y-130509014D01*
X153511961Y-130390710D01*
X154506088Y-130233256D01*
X155493267Y-130036894D01*
X155995877Y-129916228D01*
X159149500Y-129916228D01*
X159149500Y-130083771D01*
X159182182Y-130248074D01*
X159182184Y-130248082D01*
X159246295Y-130402860D01*
X159339373Y-130542162D01*
X159457837Y-130660626D01*
X159550494Y-130722537D01*
X159597137Y-130753703D01*
X159751918Y-130817816D01*
X159916228Y-130850499D01*
X159916232Y-130850500D01*
X159916233Y-130850500D01*
X160083768Y-130850500D01*
X160083769Y-130850499D01*
X160248082Y-130817816D01*
X160402863Y-130753703D01*
X160542162Y-130660626D01*
X160660626Y-130542162D01*
X160753703Y-130402863D01*
X160817816Y-130248082D01*
X160850500Y-130083767D01*
X160850500Y-129916233D01*
X160817816Y-129751918D01*
X160753703Y-129597137D01*
X160707986Y-129528717D01*
X160660626Y-129457837D01*
X160542162Y-129339373D01*
X160402860Y-129246295D01*
X160248082Y-129182184D01*
X160248074Y-129182182D01*
X160083771Y-129149500D01*
X160083767Y-129149500D01*
X159916233Y-129149500D01*
X159916228Y-129149500D01*
X159751925Y-129182182D01*
X159751917Y-129182184D01*
X159597139Y-129246295D01*
X159457837Y-129339373D01*
X159339373Y-129457837D01*
X159246295Y-129597139D01*
X159182184Y-129751917D01*
X159182182Y-129751925D01*
X159149500Y-129916228D01*
X155995877Y-129916228D01*
X156471975Y-129801927D01*
X157440705Y-129528717D01*
X158397961Y-129217685D01*
X159342269Y-128869312D01*
X160272171Y-128484134D01*
X161186234Y-128062745D01*
X162083049Y-127605795D01*
X162961233Y-127113988D01*
X163283948Y-126916228D01*
X170149500Y-126916228D01*
X170149500Y-127083771D01*
X170182182Y-127248074D01*
X170182184Y-127248082D01*
X170246295Y-127402860D01*
X170339373Y-127542162D01*
X170457837Y-127660626D01*
X170550494Y-127722537D01*
X170597137Y-127753703D01*
X170751918Y-127817816D01*
X170916228Y-127850499D01*
X170916232Y-127850500D01*
X170916233Y-127850500D01*
X171083768Y-127850500D01*
X171083769Y-127850499D01*
X171248082Y-127817816D01*
X171402863Y-127753703D01*
X171542162Y-127660626D01*
X171660626Y-127542162D01*
X171753703Y-127402863D01*
X171817816Y-127248082D01*
X171850500Y-127083767D01*
X171850500Y-126916233D01*
X171817816Y-126751918D01*
X171753703Y-126597137D01*
X171716970Y-126542162D01*
X171660626Y-126457837D01*
X171542162Y-126339373D01*
X171402860Y-126246295D01*
X171248082Y-126182184D01*
X171248074Y-126182182D01*
X171083771Y-126149500D01*
X171083767Y-126149500D01*
X170916233Y-126149500D01*
X170916228Y-126149500D01*
X170751925Y-126182182D01*
X170751917Y-126182184D01*
X170597139Y-126246295D01*
X170457837Y-126339373D01*
X170339373Y-126457837D01*
X170246295Y-126597139D01*
X170182184Y-126751917D01*
X170182182Y-126751925D01*
X170149500Y-126916228D01*
X163283948Y-126916228D01*
X163391207Y-126850500D01*
X163466413Y-126804414D01*
X163573021Y-126739083D01*
X163819431Y-126588084D01*
X164656321Y-126028892D01*
X165470612Y-125437275D01*
X166261048Y-124814145D01*
X167026411Y-124160463D01*
X167765521Y-123477237D01*
X168477237Y-122765521D01*
X169160463Y-122026411D01*
X169254568Y-121916228D01*
X170149500Y-121916228D01*
X170149500Y-122083771D01*
X170182182Y-122248074D01*
X170182184Y-122248082D01*
X170246295Y-122402860D01*
X170339373Y-122542162D01*
X170457837Y-122660626D01*
X170550494Y-122722537D01*
X170597137Y-122753703D01*
X170751918Y-122817816D01*
X170916228Y-122850499D01*
X170916232Y-122850500D01*
X170916233Y-122850500D01*
X171083768Y-122850500D01*
X171083769Y-122850499D01*
X171248082Y-122817816D01*
X171402863Y-122753703D01*
X171542162Y-122660626D01*
X171660626Y-122542162D01*
X171753703Y-122402863D01*
X171817816Y-122248082D01*
X171850500Y-122083767D01*
X171850500Y-121916233D01*
X171817816Y-121751918D01*
X171753703Y-121597137D01*
X171722537Y-121550494D01*
X171660626Y-121457837D01*
X171542162Y-121339373D01*
X171402860Y-121246295D01*
X171248082Y-121182184D01*
X171248074Y-121182182D01*
X171083771Y-121149500D01*
X171083767Y-121149500D01*
X170916233Y-121149500D01*
X170916228Y-121149500D01*
X170751925Y-121182182D01*
X170751917Y-121182184D01*
X170597139Y-121246295D01*
X170457837Y-121339373D01*
X170339373Y-121457837D01*
X170246295Y-121597139D01*
X170182184Y-121751917D01*
X170182182Y-121751925D01*
X170149500Y-121916228D01*
X169254568Y-121916228D01*
X169814145Y-121261048D01*
X170437275Y-120470612D01*
X171028892Y-119656321D01*
X171588084Y-118819431D01*
X172113988Y-117961233D01*
X172605795Y-117083049D01*
X173062745Y-116186234D01*
X173484134Y-115272171D01*
X173869312Y-114342269D01*
X174217685Y-113397961D01*
X174374210Y-112916228D01*
X178149500Y-112916228D01*
X178149500Y-113083771D01*
X178182182Y-113248074D01*
X178182184Y-113248082D01*
X178246295Y-113402860D01*
X178339373Y-113542162D01*
X178457837Y-113660626D01*
X178550494Y-113722537D01*
X178597137Y-113753703D01*
X178751918Y-113817816D01*
X178916228Y-113850499D01*
X178916232Y-113850500D01*
X178916233Y-113850500D01*
X179083768Y-113850500D01*
X179083769Y-113850499D01*
X179248082Y-113817816D01*
X179402863Y-113753703D01*
X179542162Y-113660626D01*
X179660626Y-113542162D01*
X179753703Y-113402863D01*
X179817816Y-113248082D01*
X179850500Y-113083767D01*
X179850500Y-112916233D01*
X179817816Y-112751918D01*
X179753703Y-112597137D01*
X179716970Y-112542162D01*
X179660626Y-112457837D01*
X179542162Y-112339373D01*
X179402860Y-112246295D01*
X179248082Y-112182184D01*
X179248074Y-112182182D01*
X179083771Y-112149500D01*
X179083767Y-112149500D01*
X178916233Y-112149500D01*
X178916228Y-112149500D01*
X178751925Y-112182182D01*
X178751917Y-112182184D01*
X178597139Y-112246295D01*
X178457837Y-112339373D01*
X178339373Y-112457837D01*
X178246295Y-112597139D01*
X178182184Y-112751917D01*
X178182182Y-112751925D01*
X178149500Y-112916228D01*
X174374210Y-112916228D01*
X174528717Y-112440705D01*
X174801927Y-111471975D01*
X175036894Y-110493267D01*
X175151674Y-109916228D01*
X176149500Y-109916228D01*
X176149500Y-110083771D01*
X176182182Y-110248074D01*
X176182184Y-110248082D01*
X176246295Y-110402860D01*
X176339373Y-110542162D01*
X176457837Y-110660626D01*
X176550494Y-110722537D01*
X176597137Y-110753703D01*
X176751918Y-110817816D01*
X176916228Y-110850499D01*
X176916232Y-110850500D01*
X176916233Y-110850500D01*
X177083768Y-110850500D01*
X177083769Y-110850499D01*
X177248082Y-110817816D01*
X177402863Y-110753703D01*
X177542162Y-110660626D01*
X177660626Y-110542162D01*
X177753703Y-110402863D01*
X177817816Y-110248082D01*
X177850500Y-110083767D01*
X177850500Y-109916233D01*
X177817816Y-109751918D01*
X177753703Y-109597137D01*
X177692866Y-109506088D01*
X177660626Y-109457837D01*
X177542162Y-109339373D01*
X177402860Y-109246295D01*
X177248082Y-109182184D01*
X177248074Y-109182182D01*
X177083771Y-109149500D01*
X177083767Y-109149500D01*
X176916233Y-109149500D01*
X176916228Y-109149500D01*
X176751925Y-109182182D01*
X176751917Y-109182184D01*
X176597139Y-109246295D01*
X176457837Y-109339373D01*
X176339373Y-109457837D01*
X176246295Y-109597139D01*
X176182184Y-109751917D01*
X176182182Y-109751925D01*
X176149500Y-109916228D01*
X175151674Y-109916228D01*
X175233256Y-109506088D01*
X175390710Y-108511961D01*
X175509014Y-107512419D01*
X175587984Y-106509002D01*
X175587985Y-106508984D01*
X175627500Y-105503269D01*
X175627500Y-104496730D01*
X175587985Y-103491015D01*
X175572519Y-103294500D01*
X175509014Y-102487581D01*
X175390710Y-101488039D01*
X175233256Y-100493912D01*
X175036894Y-99506733D01*
X174801927Y-98528025D01*
X174629382Y-97916228D01*
X177149500Y-97916228D01*
X177149500Y-98083771D01*
X177182182Y-98248074D01*
X177182184Y-98248082D01*
X177246295Y-98402860D01*
X177339373Y-98542162D01*
X177457837Y-98660626D01*
X177550494Y-98722537D01*
X177597137Y-98753703D01*
X177751918Y-98817816D01*
X177916228Y-98850499D01*
X177916232Y-98850500D01*
X177916233Y-98850500D01*
X178083768Y-98850500D01*
X178083769Y-98850499D01*
X178248082Y-98817816D01*
X178402863Y-98753703D01*
X178542162Y-98660626D01*
X178660626Y-98542162D01*
X178753703Y-98402863D01*
X178817816Y-98248082D01*
X178850500Y-98083767D01*
X178850500Y-97916233D01*
X178817816Y-97751918D01*
X178753703Y-97597137D01*
X178716970Y-97542162D01*
X178660626Y-97457837D01*
X178542162Y-97339373D01*
X178402860Y-97246295D01*
X178248082Y-97182184D01*
X178248074Y-97182182D01*
X178083771Y-97149500D01*
X178083767Y-97149500D01*
X177916233Y-97149500D01*
X177916228Y-97149500D01*
X177751925Y-97182182D01*
X177751917Y-97182184D01*
X177597139Y-97246295D01*
X177457837Y-97339373D01*
X177339373Y-97457837D01*
X177246295Y-97597139D01*
X177182184Y-97751917D01*
X177182182Y-97751925D01*
X177149500Y-97916228D01*
X174629382Y-97916228D01*
X174528717Y-97559295D01*
X174285902Y-96811991D01*
X174283908Y-96742153D01*
X174319988Y-96682320D01*
X174382689Y-96651492D01*
X174452103Y-96659457D01*
X174472724Y-96670573D01*
X174490305Y-96682320D01*
X174597137Y-96753703D01*
X174751918Y-96817816D01*
X174916228Y-96850499D01*
X174916232Y-96850500D01*
X174916233Y-96850500D01*
X175083768Y-96850500D01*
X175083769Y-96850499D01*
X175248082Y-96817816D01*
X175402863Y-96753703D01*
X175542162Y-96660626D01*
X175660626Y-96542162D01*
X175753703Y-96402863D01*
X175817816Y-96248082D01*
X175850500Y-96083767D01*
X175850500Y-95916233D01*
X175817816Y-95751918D01*
X175753703Y-95597137D01*
X175722537Y-95550494D01*
X175660626Y-95457837D01*
X175542162Y-95339373D01*
X175402860Y-95246295D01*
X175248082Y-95182184D01*
X175248074Y-95182182D01*
X175083771Y-95149500D01*
X175083767Y-95149500D01*
X174916233Y-95149500D01*
X174916228Y-95149500D01*
X174751925Y-95182182D01*
X174751917Y-95182184D01*
X174597139Y-95246295D01*
X174457837Y-95339373D01*
X174339373Y-95457837D01*
X174246295Y-95597139D01*
X174182184Y-95751917D01*
X174182182Y-95751923D01*
X174170531Y-95810497D01*
X174138146Y-95872408D01*
X174077429Y-95906982D01*
X174007660Y-95903241D01*
X173950988Y-95862375D01*
X173932579Y-95829226D01*
X173869312Y-95657731D01*
X173484134Y-94727829D01*
X173062745Y-93813766D01*
X172605795Y-92916951D01*
X172113988Y-92038767D01*
X171588084Y-91180569D01*
X171028892Y-90343679D01*
X170437275Y-89529388D01*
X169814145Y-88738952D01*
X169394902Y-88248082D01*
X169160459Y-87973584D01*
X168488161Y-87246297D01*
X168477237Y-87234479D01*
X167765521Y-86522763D01*
X167633842Y-86401040D01*
X167026415Y-85839540D01*
X166261047Y-85185854D01*
X165919028Y-84916228D01*
X170149500Y-84916228D01*
X170149500Y-85083771D01*
X170182182Y-85248074D01*
X170182184Y-85248082D01*
X170246295Y-85402860D01*
X170339373Y-85542162D01*
X170457837Y-85660626D01*
X170550494Y-85722537D01*
X170597137Y-85753703D01*
X170751918Y-85817816D01*
X170916228Y-85850499D01*
X170916232Y-85850500D01*
X170916233Y-85850500D01*
X171083768Y-85850500D01*
X171083769Y-85850499D01*
X171248082Y-85817816D01*
X171402863Y-85753703D01*
X171542162Y-85660626D01*
X171660626Y-85542162D01*
X171753703Y-85402863D01*
X171817816Y-85248082D01*
X171850500Y-85083767D01*
X171850500Y-84916233D01*
X171817816Y-84751918D01*
X171753703Y-84597137D01*
X171716970Y-84542162D01*
X171660626Y-84457837D01*
X171542162Y-84339373D01*
X171402860Y-84246295D01*
X171248082Y-84182184D01*
X171248074Y-84182182D01*
X171083771Y-84149500D01*
X171083767Y-84149500D01*
X170916233Y-84149500D01*
X170916228Y-84149500D01*
X170751925Y-84182182D01*
X170751917Y-84182184D01*
X170597139Y-84246295D01*
X170457837Y-84339373D01*
X170339373Y-84457837D01*
X170246295Y-84597139D01*
X170182184Y-84751917D01*
X170182182Y-84751925D01*
X170149500Y-84916228D01*
X165919028Y-84916228D01*
X165470612Y-84562725D01*
X164656321Y-83971108D01*
X164574187Y-83916228D01*
X166149500Y-83916228D01*
X166149500Y-84083771D01*
X166182182Y-84248074D01*
X166182184Y-84248082D01*
X166246295Y-84402860D01*
X166339373Y-84542162D01*
X166457837Y-84660626D01*
X166550494Y-84722537D01*
X166597137Y-84753703D01*
X166751918Y-84817816D01*
X166916228Y-84850499D01*
X166916232Y-84850500D01*
X166916233Y-84850500D01*
X167083768Y-84850500D01*
X167083769Y-84850499D01*
X167248082Y-84817816D01*
X167402863Y-84753703D01*
X167542162Y-84660626D01*
X167660626Y-84542162D01*
X167753703Y-84402863D01*
X167817816Y-84248082D01*
X167850500Y-84083767D01*
X167850500Y-83916233D01*
X167817816Y-83751918D01*
X167753703Y-83597137D01*
X167722537Y-83550494D01*
X167660626Y-83457837D01*
X167542162Y-83339373D01*
X167402860Y-83246295D01*
X167248082Y-83182184D01*
X167248074Y-83182182D01*
X167083771Y-83149500D01*
X167083767Y-83149500D01*
X166916233Y-83149500D01*
X166916228Y-83149500D01*
X166751925Y-83182182D01*
X166751917Y-83182184D01*
X166597139Y-83246295D01*
X166457837Y-83339373D01*
X166339373Y-83457837D01*
X166246295Y-83597139D01*
X166182184Y-83751917D01*
X166182182Y-83751925D01*
X166149500Y-83916228D01*
X164574187Y-83916228D01*
X163819431Y-83411916D01*
X163701053Y-83339374D01*
X162961247Y-82886020D01*
X162961233Y-82886012D01*
X162083049Y-82394205D01*
X161186234Y-81937255D01*
X160272171Y-81515866D01*
X159342269Y-81130688D01*
X158397958Y-80782313D01*
X157793858Y-80586029D01*
X157440705Y-80471283D01*
X157128277Y-80383169D01*
X156471984Y-80198075D01*
X155620779Y-79993719D01*
X155493267Y-79963106D01*
X155493264Y-79963105D01*
X155493254Y-79963103D01*
X154506090Y-79766744D01*
X153578547Y-79619836D01*
X153515412Y-79589907D01*
X153478481Y-79530595D01*
X153479479Y-79460733D01*
X153510264Y-79409682D01*
X153734621Y-79185325D01*
X154039293Y-78880652D01*
X154100614Y-78847169D01*
X154102781Y-78846718D01*
X154121360Y-78843022D01*
X154248082Y-78817816D01*
X154402863Y-78753703D01*
X154542162Y-78660626D01*
X154660626Y-78542162D01*
X154753703Y-78402863D01*
X154817816Y-78248082D01*
X154850500Y-78083767D01*
X154850500Y-77916233D01*
X154817816Y-77751918D01*
X154753703Y-77597137D01*
X154716970Y-77542162D01*
X154660626Y-77457837D01*
X154542162Y-77339373D01*
X154402860Y-77246295D01*
X154248082Y-77182184D01*
X154248074Y-77182182D01*
X154083771Y-77149500D01*
X154083767Y-77149500D01*
X153916233Y-77149500D01*
X153916228Y-77149500D01*
X153751925Y-77182182D01*
X153751917Y-77182184D01*
X153597139Y-77246295D01*
X153457837Y-77339373D01*
X153339373Y-77457837D01*
X153246295Y-77597139D01*
X153182184Y-77751917D01*
X153182182Y-77751923D01*
X153153281Y-77897219D01*
X153120896Y-77959130D01*
X153119345Y-77960708D01*
X152766873Y-78313181D01*
X152705550Y-78346666D01*
X152679192Y-78349500D01*
X150535929Y-78349500D01*
X150410261Y-78374497D01*
X150410255Y-78374499D01*
X150291875Y-78423533D01*
X150291866Y-78423538D01*
X150185331Y-78494723D01*
X150185327Y-78494726D01*
X149494727Y-79185325D01*
X149494721Y-79185332D01*
X149454662Y-79245285D01*
X149454647Y-79245309D01*
X149452795Y-79248082D01*
X149423535Y-79291873D01*
X149415371Y-79311581D01*
X149410862Y-79319190D01*
X149391507Y-79337227D01*
X149374904Y-79357829D01*
X149366317Y-79360703D01*
X149359748Y-79366826D01*
X149334249Y-79371439D01*
X149309057Y-79379873D01*
X148491015Y-79412014D01*
X147487563Y-79490987D01*
X146488041Y-79609289D01*
X145493909Y-79766744D01*
X144506745Y-79963103D01*
X143528015Y-80198075D01*
X142559302Y-80471281D01*
X142559295Y-80471283D01*
X142419227Y-80516794D01*
X141602041Y-80782313D01*
X140657730Y-81130688D01*
X139727835Y-81515863D01*
X139483303Y-81628594D01*
X138813766Y-81937255D01*
X138251447Y-82223771D01*
X137916955Y-82394203D01*
X137038752Y-82886020D01*
X136180573Y-83411913D01*
X135343673Y-83971112D01*
X134529394Y-84562720D01*
X133738952Y-85185854D01*
X132973584Y-85839540D01*
X132234476Y-86522765D01*
X131522765Y-87234476D01*
X130839540Y-87973584D01*
X130185854Y-88738952D01*
X129562720Y-89529394D01*
X128971112Y-90343673D01*
X128411913Y-91180573D01*
X127886020Y-92038752D01*
X127788695Y-92212538D01*
X127394205Y-92916951D01*
X126937255Y-93813766D01*
X126745083Y-94230619D01*
X126515863Y-94727835D01*
X126130688Y-95657730D01*
X125782313Y-96602041D01*
X125593814Y-97182184D01*
X125504249Y-97457838D01*
X125471281Y-97559302D01*
X125198075Y-98528015D01*
X124963103Y-99506745D01*
X124800381Y-100324804D01*
X124767996Y-100386715D01*
X124707281Y-100421289D01*
X124637511Y-100417550D01*
X124591083Y-100388294D01*
X124542162Y-100339373D01*
X124402860Y-100246295D01*
X124248082Y-100182184D01*
X124248074Y-100182182D01*
X124083771Y-100149500D01*
X124083767Y-100149500D01*
X123916233Y-100149500D01*
X123916228Y-100149500D01*
X123751925Y-100182182D01*
X123751917Y-100182184D01*
X123597139Y-100246295D01*
X123457837Y-100339373D01*
X123339373Y-100457837D01*
X123246295Y-100597139D01*
X123182184Y-100751917D01*
X123182182Y-100751925D01*
X123149500Y-100916228D01*
X115442553Y-100916228D01*
X115576889Y-99895844D01*
X115577475Y-99891895D01*
X115762329Y-98772250D01*
X115763043Y-98768330D01*
X115984424Y-97655371D01*
X115985252Y-97651534D01*
X116156701Y-96916228D01*
X121149500Y-96916228D01*
X121149500Y-97083771D01*
X121182182Y-97248074D01*
X121182184Y-97248082D01*
X121246295Y-97402860D01*
X121339373Y-97542162D01*
X121457837Y-97660626D01*
X121550494Y-97722537D01*
X121597137Y-97753703D01*
X121751918Y-97817816D01*
X121916228Y-97850499D01*
X121916232Y-97850500D01*
X121916233Y-97850500D01*
X122083768Y-97850500D01*
X122083769Y-97850499D01*
X122248082Y-97817816D01*
X122402863Y-97753703D01*
X122542162Y-97660626D01*
X122660626Y-97542162D01*
X122753703Y-97402863D01*
X122817816Y-97248082D01*
X122850500Y-97083767D01*
X122850500Y-96916233D01*
X122817816Y-96751918D01*
X122755734Y-96602041D01*
X122753704Y-96597139D01*
X122660626Y-96457837D01*
X122542162Y-96339373D01*
X122402860Y-96246295D01*
X122248082Y-96182184D01*
X122248074Y-96182182D01*
X122083771Y-96149500D01*
X122083767Y-96149500D01*
X121916233Y-96149500D01*
X121916228Y-96149500D01*
X121751925Y-96182182D01*
X121751917Y-96182184D01*
X121597139Y-96246295D01*
X121457837Y-96339373D01*
X121339373Y-96457837D01*
X121246295Y-96597139D01*
X121182184Y-96751917D01*
X121182182Y-96751925D01*
X121149500Y-96916228D01*
X116156701Y-96916228D01*
X116242936Y-96546386D01*
X116243921Y-96542456D01*
X116366826Y-96083767D01*
X116537617Y-95446366D01*
X116538700Y-95442572D01*
X116868127Y-94356598D01*
X116869331Y-94352851D01*
X117234093Y-93278297D01*
X117235450Y-93274507D01*
X117370025Y-92916951D01*
X117635157Y-92212511D01*
X117636627Y-92208790D01*
X118070890Y-91160386D01*
X118072469Y-91156742D01*
X118540800Y-90123116D01*
X118542524Y-90119473D01*
X118833519Y-89529394D01*
X119044400Y-89101766D01*
X119046244Y-89098179D01*
X119144368Y-88914602D01*
X119581161Y-88097419D01*
X119583075Y-88093974D01*
X119685697Y-87916228D01*
X128149500Y-87916228D01*
X128149500Y-88083771D01*
X128182182Y-88248074D01*
X128182184Y-88248082D01*
X128246295Y-88402860D01*
X128339373Y-88542162D01*
X128457837Y-88660626D01*
X128550494Y-88722537D01*
X128597137Y-88753703D01*
X128751918Y-88817816D01*
X128916228Y-88850499D01*
X128916232Y-88850500D01*
X128916233Y-88850500D01*
X129083768Y-88850500D01*
X129083769Y-88850499D01*
X129248082Y-88817816D01*
X129402863Y-88753703D01*
X129542162Y-88660626D01*
X129660626Y-88542162D01*
X129753703Y-88402863D01*
X129817816Y-88248082D01*
X129850500Y-88083767D01*
X129850500Y-87916233D01*
X129817816Y-87751918D01*
X129753703Y-87597137D01*
X129722537Y-87550494D01*
X129660626Y-87457837D01*
X129542162Y-87339373D01*
X129402860Y-87246295D01*
X129248082Y-87182184D01*
X129248074Y-87182182D01*
X129083771Y-87149500D01*
X129083767Y-87149500D01*
X128916233Y-87149500D01*
X128916228Y-87149500D01*
X128751925Y-87182182D01*
X128751917Y-87182184D01*
X128597139Y-87246295D01*
X128457837Y-87339373D01*
X128339373Y-87457837D01*
X128246295Y-87597139D01*
X128182184Y-87751917D01*
X128182182Y-87751925D01*
X128149500Y-87916228D01*
X119685697Y-87916228D01*
X120150484Y-87111194D01*
X120152521Y-87107795D01*
X120751763Y-86144136D01*
X120753914Y-86140799D01*
X121384373Y-85197250D01*
X121386637Y-85193980D01*
X122047615Y-84271587D01*
X122049995Y-84268377D01*
X122320209Y-83916228D01*
X129149500Y-83916228D01*
X129149500Y-84083771D01*
X129182182Y-84248074D01*
X129182184Y-84248082D01*
X129246295Y-84402860D01*
X129339373Y-84542162D01*
X129457837Y-84660626D01*
X129550494Y-84722537D01*
X129597137Y-84753703D01*
X129751918Y-84817816D01*
X129916228Y-84850499D01*
X129916232Y-84850500D01*
X129916233Y-84850500D01*
X130083768Y-84850500D01*
X130083769Y-84850499D01*
X130248082Y-84817816D01*
X130402863Y-84753703D01*
X130542162Y-84660626D01*
X130660626Y-84542162D01*
X130753703Y-84402863D01*
X130817816Y-84248082D01*
X130850500Y-84083767D01*
X130850500Y-83916233D01*
X130817816Y-83751918D01*
X130753703Y-83597137D01*
X130722537Y-83550494D01*
X130660626Y-83457837D01*
X130542162Y-83339373D01*
X130402860Y-83246295D01*
X130248082Y-83182184D01*
X130248074Y-83182182D01*
X130083771Y-83149500D01*
X130083767Y-83149500D01*
X129916233Y-83149500D01*
X129916228Y-83149500D01*
X129751925Y-83182182D01*
X129751917Y-83182184D01*
X129597139Y-83246295D01*
X129457837Y-83339373D01*
X129339373Y-83457837D01*
X129246295Y-83597139D01*
X129182184Y-83751917D01*
X129182182Y-83751925D01*
X129149500Y-83916228D01*
X122320209Y-83916228D01*
X122740795Y-83368110D01*
X122743281Y-83364977D01*
X123463187Y-82487769D01*
X123465729Y-82484772D01*
X124213956Y-81631582D01*
X124216649Y-81628611D01*
X124992359Y-80800395D01*
X124995121Y-80797541D01*
X125797541Y-79995121D01*
X125800395Y-79992359D01*
X126628611Y-79216649D01*
X126631582Y-79213956D01*
X126971076Y-78916228D01*
X139149500Y-78916228D01*
X139149500Y-79083771D01*
X139182182Y-79248074D01*
X139182184Y-79248082D01*
X139246295Y-79402860D01*
X139339373Y-79542162D01*
X139457837Y-79660626D01*
X139520029Y-79702181D01*
X139597137Y-79753703D01*
X139751918Y-79817816D01*
X139916228Y-79850499D01*
X139916232Y-79850500D01*
X139916233Y-79850500D01*
X140083768Y-79850500D01*
X140083769Y-79850499D01*
X140248082Y-79817816D01*
X140402863Y-79753703D01*
X140542162Y-79660626D01*
X140660626Y-79542162D01*
X140753703Y-79402863D01*
X140817816Y-79248082D01*
X140850500Y-79083767D01*
X140850500Y-78916233D01*
X140817816Y-78751918D01*
X140753703Y-78597137D01*
X140665927Y-78465771D01*
X140660626Y-78457837D01*
X140542162Y-78339373D01*
X140402860Y-78246295D01*
X140248082Y-78182184D01*
X140248074Y-78182182D01*
X140083771Y-78149500D01*
X140083767Y-78149500D01*
X139916233Y-78149500D01*
X139916228Y-78149500D01*
X139751925Y-78182182D01*
X139751917Y-78182184D01*
X139597139Y-78246295D01*
X139457837Y-78339373D01*
X139339373Y-78457837D01*
X139246295Y-78597139D01*
X139182184Y-78751917D01*
X139182182Y-78751925D01*
X139149500Y-78916228D01*
X126971076Y-78916228D01*
X127484772Y-78465729D01*
X127487769Y-78463187D01*
X128364977Y-77743281D01*
X128368110Y-77740795D01*
X129268377Y-77049995D01*
X129271587Y-77047615D01*
X129454937Y-76916228D01*
X157149500Y-76916228D01*
X157149500Y-77083771D01*
X157182182Y-77248074D01*
X157182184Y-77248082D01*
X157246295Y-77402860D01*
X157339373Y-77542162D01*
X157457837Y-77660626D01*
X157550494Y-77722537D01*
X157597137Y-77753703D01*
X157751918Y-77817816D01*
X157916228Y-77850499D01*
X157916232Y-77850500D01*
X157916233Y-77850500D01*
X158083768Y-77850500D01*
X158083769Y-77850499D01*
X158248082Y-77817816D01*
X158402863Y-77753703D01*
X158542162Y-77660626D01*
X158660626Y-77542162D01*
X158753703Y-77402863D01*
X158817816Y-77248082D01*
X158850500Y-77083767D01*
X158850500Y-76916233D01*
X158817816Y-76751918D01*
X158753703Y-76597137D01*
X158716970Y-76542162D01*
X158660626Y-76457837D01*
X158542162Y-76339373D01*
X158402860Y-76246295D01*
X158248082Y-76182184D01*
X158248074Y-76182182D01*
X158083771Y-76149500D01*
X158083767Y-76149500D01*
X157916233Y-76149500D01*
X157916228Y-76149500D01*
X157751925Y-76182182D01*
X157751917Y-76182184D01*
X157597139Y-76246295D01*
X157457837Y-76339373D01*
X157339373Y-76457837D01*
X157246295Y-76597139D01*
X157182184Y-76751917D01*
X157182182Y-76751925D01*
X157149500Y-76916228D01*
X129454937Y-76916228D01*
X130193980Y-76386637D01*
X130197250Y-76384373D01*
X130897879Y-75916228D01*
X142149500Y-75916228D01*
X142149500Y-76083771D01*
X142182182Y-76248074D01*
X142182184Y-76248082D01*
X142246295Y-76402860D01*
X142339373Y-76542162D01*
X142457837Y-76660626D01*
X142550494Y-76722537D01*
X142597137Y-76753703D01*
X142751918Y-76817816D01*
X142916228Y-76850499D01*
X142916232Y-76850500D01*
X142916233Y-76850500D01*
X143083768Y-76850500D01*
X143083769Y-76850499D01*
X143248082Y-76817816D01*
X143402863Y-76753703D01*
X143542162Y-76660626D01*
X143660626Y-76542162D01*
X143753703Y-76402863D01*
X143817816Y-76248082D01*
X143850500Y-76083767D01*
X143850500Y-75916233D01*
X143817816Y-75751918D01*
X143753703Y-75597137D01*
X143722537Y-75550494D01*
X143660626Y-75457837D01*
X143542162Y-75339373D01*
X143402860Y-75246295D01*
X143248082Y-75182184D01*
X143248074Y-75182182D01*
X143083771Y-75149500D01*
X143083767Y-75149500D01*
X142916233Y-75149500D01*
X142916228Y-75149500D01*
X142751925Y-75182182D01*
X142751917Y-75182184D01*
X142597139Y-75246295D01*
X142457837Y-75339373D01*
X142339373Y-75457837D01*
X142246295Y-75597139D01*
X142182184Y-75751917D01*
X142182182Y-75751925D01*
X142149500Y-75916228D01*
X130897879Y-75916228D01*
X131140799Y-75753914D01*
X131144136Y-75751763D01*
X132107795Y-75152521D01*
X132111194Y-75150484D01*
X133093974Y-74583075D01*
X133097419Y-74581161D01*
X134098200Y-74046232D01*
X134101766Y-74044400D01*
X135119497Y-73542512D01*
X135123116Y-73540800D01*
X136156742Y-73072469D01*
X136160386Y-73070890D01*
X137208790Y-72636627D01*
X137212511Y-72635157D01*
X138274519Y-72235445D01*
X138278297Y-72234093D01*
X139352851Y-71869331D01*
X139356598Y-71868127D01*
X140442572Y-71538700D01*
X140446366Y-71537617D01*
X141364253Y-71291670D01*
X141542456Y-71243921D01*
X141546392Y-71242935D01*
X142651522Y-70985255D01*
X142655371Y-70984424D01*
X143768330Y-70763043D01*
X143772250Y-70762329D01*
X144891895Y-70577475D01*
X144895844Y-70576889D01*
X146020907Y-70428772D01*
X146024825Y-70428321D01*
X147154123Y-70317095D01*
X147158151Y-70316764D01*
X148290479Y-70242548D01*
X148294468Y-70242352D01*
X149428604Y-70205224D01*
X149432661Y-70205158D01*
X150567339Y-70205158D01*
X150571396Y-70205224D01*
G37*
%TD.AperFunction*%
%TD*%
%TA.AperFunction,Conductor*%
%TO.N,+5V*%
G36*
X149855903Y-80634581D02*
G01*
X149935929Y-80650500D01*
X149935931Y-80650500D01*
X150064070Y-80650500D01*
X150144097Y-80634581D01*
X150168289Y-80632198D01*
X150476097Y-80632198D01*
X150480965Y-80632294D01*
X151432413Y-80669676D01*
X151437205Y-80669958D01*
X152386529Y-80744671D01*
X152391342Y-80745146D01*
X153336934Y-80857065D01*
X153341713Y-80857725D01*
X154282212Y-81006685D01*
X154286965Y-81007534D01*
X155220869Y-81193300D01*
X155225586Y-81194334D01*
X156151523Y-81416632D01*
X156156174Y-81417846D01*
X156908711Y-81630084D01*
X157072612Y-81676309D01*
X157077271Y-81677722D01*
X157982865Y-81971967D01*
X157987430Y-81973550D01*
X158880796Y-82303129D01*
X158885284Y-82304886D01*
X159765018Y-82669284D01*
X159769434Y-82671215D01*
X160235364Y-82886012D01*
X160634173Y-83069866D01*
X160638554Y-83071991D01*
X161088720Y-83301362D01*
X161486954Y-83504272D01*
X161491237Y-83506562D01*
X162322023Y-83971825D01*
X162326224Y-83974287D01*
X163138068Y-84471785D01*
X163142169Y-84474410D01*
X163933883Y-85003417D01*
X163937877Y-85006201D01*
X164708190Y-85565866D01*
X164712073Y-85568805D01*
X165459850Y-86158305D01*
X165463583Y-86161369D01*
X166187633Y-86779764D01*
X166191272Y-86782998D01*
X166890486Y-87429345D01*
X166893996Y-87432720D01*
X167567279Y-88106003D01*
X167570654Y-88109513D01*
X168217001Y-88808727D01*
X168220228Y-88812358D01*
X168838626Y-89536410D01*
X168841694Y-89540149D01*
X169431194Y-90287926D01*
X169434133Y-90291809D01*
X169993798Y-91062122D01*
X169996582Y-91066116D01*
X170525589Y-91857830D01*
X170528214Y-91861931D01*
X171025712Y-92673775D01*
X171028174Y-92677976D01*
X171493437Y-93508762D01*
X171495733Y-93513056D01*
X171928008Y-94361445D01*
X171930133Y-94365826D01*
X172328774Y-95230543D01*
X172330725Y-95235004D01*
X172417482Y-95444453D01*
X172682294Y-96083768D01*
X172695100Y-96114683D01*
X172696875Y-96119218D01*
X173026446Y-97012560D01*
X173028041Y-97017160D01*
X173322277Y-97922728D01*
X173323690Y-97927387D01*
X173582145Y-98843795D01*
X173583375Y-98848507D01*
X173805660Y-99774394D01*
X173806703Y-99779150D01*
X173992461Y-100713014D01*
X173993317Y-100717807D01*
X174142270Y-101658264D01*
X174142937Y-101663087D01*
X174254851Y-102608640D01*
X174255329Y-102613486D01*
X174330039Y-103562760D01*
X174330325Y-103567621D01*
X174367706Y-104519034D01*
X174367802Y-104523902D01*
X174367802Y-105476097D01*
X174367706Y-105480965D01*
X174330325Y-106432378D01*
X174330039Y-106437239D01*
X174255329Y-107386513D01*
X174254851Y-107391359D01*
X174142937Y-108336912D01*
X174142270Y-108341735D01*
X173993317Y-109282192D01*
X173992461Y-109286985D01*
X173806703Y-110220849D01*
X173805660Y-110225605D01*
X173583375Y-111151492D01*
X173582145Y-111156204D01*
X173323690Y-112072612D01*
X173322277Y-112077271D01*
X173028041Y-112982839D01*
X173026446Y-112987439D01*
X172696875Y-113880781D01*
X172695100Y-113885316D01*
X172330725Y-114764995D01*
X172328774Y-114769456D01*
X171930133Y-115634173D01*
X171928008Y-115638554D01*
X171495733Y-116486943D01*
X171493437Y-116491237D01*
X171028174Y-117322023D01*
X171025712Y-117326224D01*
X170528214Y-118138068D01*
X170525589Y-118142169D01*
X169996582Y-118933883D01*
X169993798Y-118937877D01*
X169434133Y-119708190D01*
X169431194Y-119712073D01*
X168841694Y-120459850D01*
X168838605Y-120463614D01*
X168220235Y-121187633D01*
X168217001Y-121191272D01*
X167570654Y-121890486D01*
X167567279Y-121893996D01*
X166893996Y-122567279D01*
X166890486Y-122570654D01*
X166191272Y-123217001D01*
X166187633Y-123220235D01*
X165463614Y-123838605D01*
X165459850Y-123841694D01*
X164712073Y-124431194D01*
X164708190Y-124434133D01*
X163937877Y-124993798D01*
X163933883Y-124996582D01*
X163142169Y-125525589D01*
X163138068Y-125528214D01*
X162326224Y-126025712D01*
X162322023Y-126028174D01*
X161491237Y-126493437D01*
X161486943Y-126495733D01*
X160638554Y-126928008D01*
X160634173Y-126930133D01*
X159769456Y-127328774D01*
X159764995Y-127330725D01*
X158885316Y-127695100D01*
X158880781Y-127696875D01*
X157987439Y-128026446D01*
X157982839Y-128028041D01*
X157077271Y-128322277D01*
X157072612Y-128323690D01*
X156156204Y-128582145D01*
X156151492Y-128583375D01*
X155225605Y-128805660D01*
X155220849Y-128806703D01*
X154286985Y-128992461D01*
X154282192Y-128993317D01*
X153341735Y-129142270D01*
X153336912Y-129142937D01*
X152391359Y-129254851D01*
X152386513Y-129255329D01*
X151437239Y-129330039D01*
X151432378Y-129330325D01*
X150480965Y-129367706D01*
X150476097Y-129367802D01*
X149523903Y-129367802D01*
X149519035Y-129367706D01*
X148567621Y-129330325D01*
X148562760Y-129330039D01*
X147613486Y-129255329D01*
X147608640Y-129254851D01*
X146663087Y-129142937D01*
X146658264Y-129142270D01*
X145717807Y-128993317D01*
X145713014Y-128992461D01*
X144779150Y-128806703D01*
X144774394Y-128805660D01*
X143848507Y-128583375D01*
X143843795Y-128582145D01*
X142927387Y-128323690D01*
X142922728Y-128322277D01*
X142017160Y-128028041D01*
X142012560Y-128026446D01*
X141119218Y-127696875D01*
X141114683Y-127695100D01*
X141031455Y-127660626D01*
X140494666Y-127438280D01*
X140235004Y-127330725D01*
X140230543Y-127328774D01*
X139365826Y-126930133D01*
X139361445Y-126928008D01*
X138513056Y-126495733D01*
X138508762Y-126493437D01*
X137677976Y-126028174D01*
X137673775Y-126025712D01*
X136861931Y-125528214D01*
X136857830Y-125525589D01*
X136066116Y-124996582D01*
X136062122Y-124993798D01*
X135291809Y-124434133D01*
X135287926Y-124431194D01*
X134540149Y-123841694D01*
X134536410Y-123838626D01*
X133812358Y-123220228D01*
X133808727Y-123217001D01*
X133109513Y-122570654D01*
X133106003Y-122567279D01*
X132432720Y-121893996D01*
X132429345Y-121890486D01*
X131782998Y-121191272D01*
X131779764Y-121187633D01*
X131161369Y-120463583D01*
X131158305Y-120459850D01*
X130568805Y-119712073D01*
X130565866Y-119708190D01*
X130006201Y-118937877D01*
X130003417Y-118933883D01*
X129474410Y-118142169D01*
X129471785Y-118138068D01*
X128974287Y-117326224D01*
X128971825Y-117322023D01*
X128506562Y-116491237D01*
X128504266Y-116486943D01*
X128498434Y-116475498D01*
X128193891Y-115877796D01*
X128071991Y-115638554D01*
X128069866Y-115634173D01*
X127806337Y-115062535D01*
X127671215Y-114769434D01*
X127669284Y-114765018D01*
X127445594Y-114224983D01*
X147149500Y-114224983D01*
X147149500Y-115775001D01*
X147149501Y-115775018D01*
X147160000Y-115877796D01*
X147160001Y-115877799D01*
X147205894Y-116016294D01*
X147215186Y-116044334D01*
X147307288Y-116193656D01*
X147431344Y-116317712D01*
X147580666Y-116409814D01*
X147747203Y-116464999D01*
X147849991Y-116475500D01*
X149150008Y-116475499D01*
X149252797Y-116464999D01*
X149419334Y-116409814D01*
X149568656Y-116317712D01*
X149692712Y-116193656D01*
X149784814Y-116044334D01*
X149784814Y-116044331D01*
X149788178Y-116038879D01*
X149840126Y-115992154D01*
X149909088Y-115980931D01*
X149973170Y-116008774D01*
X149981398Y-116016294D01*
X150120213Y-116155109D01*
X150292179Y-116280048D01*
X150292181Y-116280049D01*
X150292184Y-116280051D01*
X150481588Y-116376557D01*
X150683757Y-116442246D01*
X150893713Y-116475500D01*
X150893714Y-116475500D01*
X151106286Y-116475500D01*
X151106287Y-116475500D01*
X151316243Y-116442246D01*
X151518412Y-116376557D01*
X151707816Y-116280051D01*
X151729789Y-116264086D01*
X151879786Y-116155109D01*
X151879788Y-116155106D01*
X151879792Y-116155104D01*
X152030104Y-116004792D01*
X152149683Y-115840204D01*
X152205011Y-115797540D01*
X152274624Y-115791561D01*
X152336420Y-115824166D01*
X152350313Y-115840199D01*
X152452560Y-115980931D01*
X152469896Y-116004792D01*
X152620213Y-116155109D01*
X152792179Y-116280048D01*
X152792181Y-116280049D01*
X152792184Y-116280051D01*
X152981588Y-116376557D01*
X153183757Y-116442246D01*
X153393713Y-116475500D01*
X153393714Y-116475500D01*
X153606286Y-116475500D01*
X153606287Y-116475500D01*
X153816243Y-116442246D01*
X154018412Y-116376557D01*
X154207816Y-116280051D01*
X154229789Y-116264086D01*
X154379786Y-116155109D01*
X154379788Y-116155106D01*
X154379792Y-116155104D01*
X154530104Y-116004792D01*
X154649991Y-115839779D01*
X154705320Y-115797115D01*
X154774933Y-115791136D01*
X154836729Y-115823741D01*
X154850627Y-115839781D01*
X154970272Y-116004459D01*
X154970276Y-116004464D01*
X155120535Y-116154723D01*
X155120540Y-116154727D01*
X155292442Y-116279620D01*
X155481782Y-116376095D01*
X155683871Y-116441757D01*
X155750000Y-116452231D01*
X155750000Y-115404145D01*
X155816657Y-115442630D01*
X155937465Y-115475000D01*
X156062535Y-115475000D01*
X156183343Y-115442630D01*
X156250000Y-115404145D01*
X156250000Y-116452230D01*
X156316126Y-116441757D01*
X156316129Y-116441757D01*
X156518217Y-116376095D01*
X156707557Y-116279620D01*
X156879459Y-116154727D01*
X156879464Y-116154723D01*
X157029723Y-116004464D01*
X157029727Y-116004459D01*
X157154620Y-115832557D01*
X157251095Y-115643217D01*
X157316757Y-115441130D01*
X157316757Y-115441127D01*
X157347030Y-115250000D01*
X156404146Y-115250000D01*
X156442630Y-115183343D01*
X156475000Y-115062535D01*
X156475000Y-114937465D01*
X156442630Y-114816657D01*
X156404146Y-114750000D01*
X157347030Y-114750000D01*
X157316757Y-114558872D01*
X157316757Y-114558869D01*
X157251095Y-114356782D01*
X157154620Y-114167442D01*
X157029727Y-113995540D01*
X157029723Y-113995535D01*
X156879464Y-113845276D01*
X156879459Y-113845272D01*
X156707557Y-113720379D01*
X156518215Y-113623903D01*
X156316124Y-113558241D01*
X156250000Y-113547768D01*
X156250000Y-114595854D01*
X156183343Y-114557370D01*
X156062535Y-114525000D01*
X155937465Y-114525000D01*
X155816657Y-114557370D01*
X155750000Y-114595854D01*
X155750000Y-113547768D01*
X155749999Y-113547768D01*
X155683875Y-113558241D01*
X155481784Y-113623903D01*
X155292442Y-113720379D01*
X155120540Y-113845272D01*
X155120535Y-113845276D01*
X154970276Y-113995535D01*
X154970272Y-113995540D01*
X154850627Y-114160218D01*
X154795297Y-114202884D01*
X154725684Y-114208863D01*
X154663889Y-114176257D01*
X154649991Y-114160218D01*
X154530109Y-113995214D01*
X154530105Y-113995209D01*
X154379786Y-113844890D01*
X154207820Y-113719951D01*
X154018414Y-113623444D01*
X154018413Y-113623443D01*
X154018412Y-113623443D01*
X153816243Y-113557754D01*
X153816241Y-113557753D01*
X153816240Y-113557753D01*
X153654957Y-113532208D01*
X153606287Y-113524500D01*
X153393713Y-113524500D01*
X153345042Y-113532208D01*
X153183760Y-113557753D01*
X152981585Y-113623444D01*
X152792179Y-113719951D01*
X152620213Y-113844890D01*
X152469894Y-113995209D01*
X152469890Y-113995214D01*
X152350318Y-114159793D01*
X152294989Y-114202459D01*
X152225375Y-114208438D01*
X152163580Y-114175833D01*
X152149682Y-114159793D01*
X152030109Y-113995214D01*
X152030105Y-113995209D01*
X151879786Y-113844890D01*
X151707820Y-113719951D01*
X151518414Y-113623444D01*
X151518413Y-113623443D01*
X151518412Y-113623443D01*
X151316243Y-113557754D01*
X151316241Y-113557753D01*
X151316240Y-113557753D01*
X151154957Y-113532208D01*
X151106287Y-113524500D01*
X150893713Y-113524500D01*
X150845042Y-113532208D01*
X150683760Y-113557753D01*
X150481585Y-113623444D01*
X150292179Y-113719951D01*
X150120215Y-113844889D01*
X149981398Y-113983706D01*
X149920075Y-114017190D01*
X149850383Y-114012206D01*
X149794450Y-113970334D01*
X149788178Y-113961120D01*
X149692712Y-113806344D01*
X149568657Y-113682289D01*
X149568656Y-113682288D01*
X149473253Y-113623443D01*
X149419336Y-113590187D01*
X149419331Y-113590185D01*
X149417862Y-113589698D01*
X149252797Y-113535001D01*
X149252795Y-113535000D01*
X149150010Y-113524500D01*
X147849998Y-113524500D01*
X147849981Y-113524501D01*
X147747203Y-113535000D01*
X147747200Y-113535001D01*
X147580668Y-113590185D01*
X147580663Y-113590187D01*
X147431342Y-113682289D01*
X147307289Y-113806342D01*
X147215187Y-113955663D01*
X147215185Y-113955668D01*
X147210325Y-113970334D01*
X147160001Y-114122203D01*
X147160001Y-114122204D01*
X147160000Y-114122204D01*
X147149500Y-114224983D01*
X127445594Y-114224983D01*
X127304886Y-113885284D01*
X127303124Y-113880781D01*
X127289885Y-113844896D01*
X126973550Y-112987430D01*
X126971967Y-112982865D01*
X126677722Y-112077271D01*
X126676309Y-112072612D01*
X126506911Y-111471975D01*
X126417846Y-111156174D01*
X126416632Y-111151523D01*
X126194334Y-110225586D01*
X126193296Y-110220849D01*
X126170480Y-110106147D01*
X126007534Y-109286965D01*
X126006682Y-109282192D01*
X125857729Y-108341735D01*
X125857062Y-108336912D01*
X125813694Y-107970500D01*
X125745146Y-107391342D01*
X125744670Y-107386513D01*
X125669958Y-106437205D01*
X125669676Y-106432413D01*
X125632294Y-105480965D01*
X125632198Y-105476097D01*
X125632198Y-104523902D01*
X125632294Y-104519034D01*
X125635768Y-104430620D01*
X125669676Y-103567583D01*
X125669957Y-103562797D01*
X125744672Y-102613465D01*
X125745148Y-102608640D01*
X125857065Y-101663058D01*
X125857724Y-101658293D01*
X125893294Y-101433713D01*
X161649500Y-101433713D01*
X161649500Y-101646286D01*
X161682753Y-101856239D01*
X161748444Y-102058414D01*
X161844951Y-102247820D01*
X161969890Y-102419786D01*
X162120213Y-102570109D01*
X162292182Y-102695050D01*
X162300946Y-102699516D01*
X162351742Y-102747491D01*
X162368536Y-102815312D01*
X162345998Y-102881447D01*
X162300946Y-102920484D01*
X162292182Y-102924949D01*
X162120213Y-103049890D01*
X161969890Y-103200213D01*
X161844951Y-103372179D01*
X161748444Y-103561585D01*
X161682753Y-103763760D01*
X161649500Y-103973713D01*
X161649500Y-104186287D01*
X161682754Y-104396243D01*
X161722651Y-104519034D01*
X161748444Y-104598414D01*
X161844951Y-104787820D01*
X161969890Y-104959786D01*
X162083430Y-105073326D01*
X162116915Y-105134649D01*
X162111931Y-105204341D01*
X162070059Y-105260274D01*
X162039083Y-105277189D01*
X161907669Y-105326203D01*
X161907664Y-105326206D01*
X161792455Y-105412452D01*
X161792452Y-105412455D01*
X161706206Y-105527664D01*
X161706202Y-105527671D01*
X161655908Y-105662517D01*
X161649501Y-105722116D01*
X161649501Y-105722123D01*
X161649500Y-105722135D01*
X161649500Y-107517870D01*
X161649501Y-107517876D01*
X161655908Y-107577483D01*
X161706202Y-107712328D01*
X161706206Y-107712335D01*
X161792452Y-107827544D01*
X161792455Y-107827547D01*
X161907664Y-107913793D01*
X161907671Y-107913797D01*
X162042517Y-107964091D01*
X162042516Y-107964091D01*
X162049444Y-107964835D01*
X162102127Y-107970500D01*
X163897872Y-107970499D01*
X163957483Y-107964091D01*
X164092331Y-107913796D01*
X164207546Y-107827546D01*
X164293796Y-107712331D01*
X164344091Y-107577483D01*
X164350500Y-107517873D01*
X164350499Y-105722128D01*
X164344091Y-105662517D01*
X164293796Y-105527669D01*
X164293795Y-105527668D01*
X164293793Y-105527664D01*
X164207547Y-105412455D01*
X164207544Y-105412452D01*
X164092335Y-105326206D01*
X164092328Y-105326202D01*
X163960917Y-105277189D01*
X163904983Y-105235318D01*
X163880566Y-105169853D01*
X163895418Y-105101580D01*
X163916563Y-105073332D01*
X164030104Y-104959792D01*
X164155051Y-104787816D01*
X164251557Y-104598412D01*
X164317246Y-104396243D01*
X164350500Y-104186287D01*
X164350500Y-103973713D01*
X164317246Y-103763757D01*
X164251557Y-103561588D01*
X164155051Y-103372184D01*
X164155049Y-103372181D01*
X164155048Y-103372179D01*
X164030109Y-103200213D01*
X163879786Y-103049890D01*
X163707820Y-102924951D01*
X163707115Y-102924591D01*
X163699054Y-102920485D01*
X163648259Y-102872512D01*
X163631463Y-102804692D01*
X163653999Y-102738556D01*
X163699054Y-102699515D01*
X163707816Y-102695051D01*
X163729789Y-102679086D01*
X163879786Y-102570109D01*
X163879788Y-102570106D01*
X163879792Y-102570104D01*
X164030104Y-102419792D01*
X164030106Y-102419788D01*
X164030109Y-102419786D01*
X164155048Y-102247820D01*
X164155047Y-102247820D01*
X164155051Y-102247816D01*
X164251557Y-102058412D01*
X164317246Y-101856243D01*
X164350500Y-101646287D01*
X164350500Y-101433713D01*
X164317246Y-101223757D01*
X164251557Y-101021588D01*
X164155051Y-100832184D01*
X164155049Y-100832181D01*
X164155048Y-100832179D01*
X164030109Y-100660213D01*
X163879786Y-100509890D01*
X163707817Y-100384949D01*
X163698504Y-100380204D01*
X163647707Y-100332230D01*
X163630912Y-100264409D01*
X163653449Y-100198274D01*
X163698507Y-100159232D01*
X163707555Y-100154622D01*
X163761716Y-100115270D01*
X163761717Y-100115270D01*
X163129408Y-99482962D01*
X163192993Y-99465925D01*
X163307007Y-99400099D01*
X163400099Y-99307007D01*
X163465925Y-99192993D01*
X163482962Y-99129408D01*
X164115270Y-99761717D01*
X164115270Y-99761716D01*
X164154622Y-99707554D01*
X164251095Y-99518217D01*
X164316757Y-99316130D01*
X164316757Y-99316127D01*
X164350000Y-99106246D01*
X164350000Y-98893753D01*
X164316757Y-98683872D01*
X164316757Y-98683869D01*
X164251095Y-98481782D01*
X164154624Y-98292449D01*
X164115270Y-98238282D01*
X164115269Y-98238282D01*
X163482962Y-98870590D01*
X163465925Y-98807007D01*
X163400099Y-98692993D01*
X163307007Y-98599901D01*
X163192993Y-98534075D01*
X163129409Y-98517037D01*
X163761716Y-97884728D01*
X163707550Y-97845375D01*
X163518217Y-97748904D01*
X163316129Y-97683242D01*
X163106246Y-97650000D01*
X162893754Y-97650000D01*
X162683872Y-97683242D01*
X162683869Y-97683242D01*
X162481782Y-97748904D01*
X162292439Y-97845380D01*
X162238282Y-97884727D01*
X162238282Y-97884728D01*
X162870591Y-98517037D01*
X162807007Y-98534075D01*
X162692993Y-98599901D01*
X162599901Y-98692993D01*
X162534075Y-98807007D01*
X162517037Y-98870591D01*
X161884728Y-98238282D01*
X161884727Y-98238282D01*
X161845380Y-98292439D01*
X161748904Y-98481782D01*
X161683242Y-98683869D01*
X161683242Y-98683872D01*
X161650000Y-98893753D01*
X161650000Y-99106246D01*
X161683242Y-99316127D01*
X161683242Y-99316130D01*
X161748904Y-99518217D01*
X161845375Y-99707550D01*
X161884728Y-99761716D01*
X162517037Y-99129408D01*
X162534075Y-99192993D01*
X162599901Y-99307007D01*
X162692993Y-99400099D01*
X162807007Y-99465925D01*
X162870590Y-99482962D01*
X162238282Y-100115269D01*
X162238282Y-100115270D01*
X162292452Y-100154626D01*
X162292451Y-100154626D01*
X162301495Y-100159234D01*
X162352292Y-100207208D01*
X162369087Y-100275029D01*
X162346550Y-100341164D01*
X162301499Y-100380202D01*
X162292182Y-100384949D01*
X162120213Y-100509890D01*
X161969890Y-100660213D01*
X161844951Y-100832179D01*
X161748444Y-101021585D01*
X161682753Y-101223760D01*
X161649500Y-101433713D01*
X125893294Y-101433713D01*
X126006686Y-100717779D01*
X126007532Y-100713043D01*
X126193302Y-99779120D01*
X126194332Y-99774424D01*
X126416634Y-98848466D01*
X126417842Y-98843837D01*
X126676312Y-97927376D01*
X126677722Y-97922728D01*
X126971972Y-97017118D01*
X126973544Y-97012584D01*
X127303136Y-96119186D01*
X127304879Y-96114732D01*
X127387102Y-95916228D01*
X153149500Y-95916228D01*
X153149500Y-96083771D01*
X153182182Y-96248074D01*
X153182184Y-96248082D01*
X153246295Y-96402860D01*
X153339373Y-96542162D01*
X153457837Y-96660626D01*
X153550494Y-96722537D01*
X153597137Y-96753703D01*
X153751918Y-96817816D01*
X153916228Y-96850499D01*
X153916232Y-96850500D01*
X153916233Y-96850500D01*
X154083768Y-96850500D01*
X154083769Y-96850499D01*
X154248082Y-96817816D01*
X154402863Y-96753703D01*
X154542162Y-96660626D01*
X154660626Y-96542162D01*
X154753703Y-96402863D01*
X154817816Y-96248082D01*
X154850500Y-96083767D01*
X154850500Y-95916233D01*
X154817816Y-95751918D01*
X154753703Y-95597137D01*
X154722537Y-95550494D01*
X154660626Y-95457837D01*
X154542162Y-95339373D01*
X154402860Y-95246295D01*
X154248082Y-95182184D01*
X154248074Y-95182182D01*
X154083771Y-95149500D01*
X154083767Y-95149500D01*
X153916233Y-95149500D01*
X153916228Y-95149500D01*
X153751925Y-95182182D01*
X153751917Y-95182184D01*
X153597139Y-95246295D01*
X153457837Y-95339373D01*
X153339373Y-95457837D01*
X153246295Y-95597139D01*
X153182184Y-95751917D01*
X153182182Y-95751925D01*
X153149500Y-95916228D01*
X127387102Y-95916228D01*
X127669291Y-95234962D01*
X127671206Y-95230584D01*
X128069869Y-94365818D01*
X128071991Y-94361445D01*
X128301349Y-93911304D01*
X163099500Y-93911304D01*
X163099500Y-94088695D01*
X163134103Y-94262658D01*
X163134106Y-94262667D01*
X163201983Y-94426540D01*
X163201990Y-94426553D01*
X163300535Y-94574034D01*
X163300538Y-94574038D01*
X163425961Y-94699461D01*
X163425965Y-94699464D01*
X163573446Y-94798009D01*
X163573459Y-94798016D01*
X163696363Y-94848923D01*
X163737334Y-94865894D01*
X163737336Y-94865894D01*
X163737341Y-94865896D01*
X163911304Y-94900499D01*
X163911307Y-94900500D01*
X163911309Y-94900500D01*
X164088693Y-94900500D01*
X164088694Y-94900499D01*
X164146682Y-94888964D01*
X164262658Y-94865896D01*
X164262661Y-94865894D01*
X164262666Y-94865894D01*
X164426547Y-94798013D01*
X164574035Y-94699464D01*
X164699464Y-94574035D01*
X164798013Y-94426547D01*
X164865894Y-94262666D01*
X164900500Y-94088691D01*
X164900500Y-93911309D01*
X164900500Y-93911306D01*
X164900499Y-93911304D01*
X164865896Y-93737341D01*
X164865893Y-93737332D01*
X164798016Y-93573459D01*
X164798009Y-93573446D01*
X164699464Y-93425965D01*
X164699461Y-93425961D01*
X164574038Y-93300538D01*
X164574034Y-93300535D01*
X164426553Y-93201990D01*
X164426540Y-93201983D01*
X164262667Y-93134106D01*
X164262658Y-93134103D01*
X164088694Y-93099500D01*
X164088691Y-93099500D01*
X163911309Y-93099500D01*
X163911306Y-93099500D01*
X163737341Y-93134103D01*
X163737332Y-93134106D01*
X163573459Y-93201983D01*
X163573446Y-93201990D01*
X163425965Y-93300535D01*
X163425961Y-93300538D01*
X163300538Y-93425961D01*
X163300535Y-93425965D01*
X163201990Y-93573446D01*
X163201983Y-93573459D01*
X163134106Y-93737332D01*
X163134103Y-93737341D01*
X163099500Y-93911304D01*
X128301349Y-93911304D01*
X128504283Y-93513024D01*
X128506562Y-93508762D01*
X128971825Y-92677976D01*
X128974287Y-92673775D01*
X129035408Y-92574035D01*
X129441529Y-91911304D01*
X164099500Y-91911304D01*
X164099500Y-92088695D01*
X164134103Y-92262658D01*
X164134106Y-92262667D01*
X164201983Y-92426540D01*
X164201990Y-92426553D01*
X164300535Y-92574034D01*
X164300538Y-92574038D01*
X164425961Y-92699461D01*
X164425965Y-92699464D01*
X164573446Y-92798009D01*
X164573459Y-92798016D01*
X164696363Y-92848923D01*
X164737334Y-92865894D01*
X164737336Y-92865894D01*
X164737341Y-92865896D01*
X164911304Y-92900499D01*
X164911307Y-92900500D01*
X164911309Y-92900500D01*
X165088693Y-92900500D01*
X165088694Y-92900499D01*
X165146682Y-92888964D01*
X165262658Y-92865896D01*
X165262661Y-92865894D01*
X165262666Y-92865894D01*
X165426547Y-92798013D01*
X165574035Y-92699464D01*
X165699464Y-92574035D01*
X165798013Y-92426547D01*
X165865894Y-92262666D01*
X165900500Y-92088691D01*
X165900500Y-91911309D01*
X165900500Y-91911306D01*
X165900499Y-91911304D01*
X165865896Y-91737341D01*
X165865893Y-91737332D01*
X165798016Y-91573459D01*
X165798009Y-91573446D01*
X165699464Y-91425965D01*
X165699461Y-91425961D01*
X165574038Y-91300538D01*
X165574034Y-91300535D01*
X165426553Y-91201990D01*
X165426540Y-91201983D01*
X165262667Y-91134106D01*
X165262658Y-91134103D01*
X165088694Y-91099500D01*
X165088691Y-91099500D01*
X164911309Y-91099500D01*
X164911306Y-91099500D01*
X164737341Y-91134103D01*
X164737332Y-91134106D01*
X164573459Y-91201983D01*
X164573446Y-91201990D01*
X164425965Y-91300535D01*
X164425961Y-91300538D01*
X164300538Y-91425961D01*
X164300535Y-91425965D01*
X164201990Y-91573446D01*
X164201983Y-91573459D01*
X164134106Y-91737332D01*
X164134103Y-91737341D01*
X164099500Y-91911304D01*
X129441529Y-91911304D01*
X129471793Y-91861917D01*
X129474411Y-91857829D01*
X129488780Y-91836325D01*
X129762976Y-91425961D01*
X130003431Y-91066094D01*
X130006185Y-91062143D01*
X130565874Y-90291797D01*
X130568805Y-90287926D01*
X130836914Y-89947832D01*
X131158329Y-89540119D01*
X131161348Y-89536440D01*
X131779796Y-88812329D01*
X131782998Y-88808727D01*
X131833862Y-88753703D01*
X132429369Y-88109487D01*
X132432695Y-88106029D01*
X133106029Y-87432695D01*
X133109487Y-87429369D01*
X133808738Y-86782987D01*
X133812329Y-86779796D01*
X134536440Y-86161348D01*
X134540119Y-86158329D01*
X135287937Y-85568796D01*
X135291809Y-85565866D01*
X135324435Y-85542162D01*
X136062143Y-85006185D01*
X136066094Y-85003431D01*
X136857843Y-84474401D01*
X136861917Y-84471793D01*
X137673788Y-83974279D01*
X137677976Y-83971825D01*
X138508762Y-83506562D01*
X138513024Y-83504283D01*
X139361452Y-83071987D01*
X139365826Y-83069866D01*
X140230584Y-82671206D01*
X140234962Y-82669291D01*
X141114732Y-82304879D01*
X141119186Y-82303136D01*
X142012584Y-81973544D01*
X142017118Y-81971972D01*
X142922739Y-81677718D01*
X142927376Y-81676312D01*
X143843837Y-81417842D01*
X143848464Y-81416635D01*
X144774424Y-81194332D01*
X144779120Y-81193302D01*
X145713043Y-81007532D01*
X145717779Y-81006686D01*
X146658293Y-80857724D01*
X146663058Y-80857065D01*
X147608662Y-80745145D01*
X147613465Y-80744672D01*
X148562797Y-80669957D01*
X148567583Y-80669676D01*
X149519035Y-80632294D01*
X149523903Y-80632198D01*
X149831711Y-80632198D01*
X149855903Y-80634581D01*
G37*
%TD.AperFunction*%
%TD*%
M02*
