%TF.GenerationSoftware,KiCad,Pcbnew,9.0.6*%
%TF.CreationDate,2026-02-24T16:40:53+01:00*%
%TF.ProjectId,MPC-Status,4d50432d-5374-4617-9475-732e6b696361,rev?*%
%TF.SameCoordinates,Original*%
%TF.FileFunction,Legend,Top*%
%TF.FilePolarity,Positive*%
%FSLAX46Y46*%
G04 Gerber Fmt 4.6, Leading zero omitted, Abs format (unit mm)*
G04 Created by KiCad (PCBNEW 9.0.6) date 2026-02-24 16:40:53*
%MOMM*%
%LPD*%
G01*
G04 APERTURE LIST*
%ADD10C,0.150000*%
%ADD11C,0.120000*%
G04 APERTURE END LIST*
D10*
X132383381Y-134055926D02*
X132883381Y-133189901D01*
X132883381Y-133189901D02*
X133089578Y-133308948D01*
X133089578Y-133308948D02*
X133189486Y-133421616D01*
X133189486Y-133421616D02*
X133224346Y-133551714D01*
X133224346Y-133551714D02*
X133217966Y-133658002D01*
X133217966Y-133658002D02*
X133163967Y-133846769D01*
X133163967Y-133846769D02*
X133092539Y-133970487D01*
X133092539Y-133970487D02*
X132956061Y-134111634D01*
X132956061Y-134111634D02*
X132867203Y-134170303D01*
X132867203Y-134170303D02*
X132737105Y-134205163D01*
X132737105Y-134205163D02*
X132589578Y-134174974D01*
X132589578Y-134174974D02*
X132383381Y-134055926D01*
X134120560Y-133904186D02*
X133955603Y-133808948D01*
X133955603Y-133808948D02*
X133849315Y-133802568D01*
X133849315Y-133802568D02*
X133784266Y-133819998D01*
X133784266Y-133819998D02*
X133630359Y-133896097D01*
X133630359Y-133896097D02*
X133493882Y-134037245D01*
X133493882Y-134037245D02*
X133303405Y-134367159D01*
X133303405Y-134367159D02*
X133297026Y-134473447D01*
X133297026Y-134473447D02*
X133314455Y-134538496D01*
X133314455Y-134538496D02*
X133373124Y-134627355D01*
X133373124Y-134627355D02*
X133538082Y-134722593D01*
X133538082Y-134722593D02*
X133644370Y-134728972D01*
X133644370Y-134728972D02*
X133709419Y-134711543D01*
X133709419Y-134711543D02*
X133798277Y-134652874D01*
X133798277Y-134652874D02*
X133917325Y-134446677D01*
X133917325Y-134446677D02*
X133923704Y-134340389D01*
X133923704Y-134340389D02*
X133906275Y-134275340D01*
X133906275Y-134275340D02*
X133847606Y-134186482D01*
X133847606Y-134186482D02*
X133682648Y-134091244D01*
X133682648Y-134091244D02*
X133576360Y-134084864D01*
X133576360Y-134084864D02*
X133511311Y-134102294D01*
X133511311Y-134102294D02*
X133422453Y-134160963D01*
X137647300Y-133957598D02*
X138043197Y-134186169D01*
X137845249Y-134071883D02*
X137445249Y-134764704D01*
X137445249Y-134764704D02*
X137568375Y-134703825D01*
X137568375Y-134703825D02*
X137672453Y-134675937D01*
X137672453Y-134675937D02*
X137757483Y-134681041D01*
X151357142Y-100039580D02*
X151309523Y-100087200D01*
X151309523Y-100087200D02*
X151166666Y-100134819D01*
X151166666Y-100134819D02*
X151071428Y-100134819D01*
X151071428Y-100134819D02*
X150928571Y-100087200D01*
X150928571Y-100087200D02*
X150833333Y-99991961D01*
X150833333Y-99991961D02*
X150785714Y-99896723D01*
X150785714Y-99896723D02*
X150738095Y-99706247D01*
X150738095Y-99706247D02*
X150738095Y-99563390D01*
X150738095Y-99563390D02*
X150785714Y-99372914D01*
X150785714Y-99372914D02*
X150833333Y-99277676D01*
X150833333Y-99277676D02*
X150928571Y-99182438D01*
X150928571Y-99182438D02*
X151071428Y-99134819D01*
X151071428Y-99134819D02*
X151166666Y-99134819D01*
X151166666Y-99134819D02*
X151309523Y-99182438D01*
X151309523Y-99182438D02*
X151357142Y-99230057D01*
X152309523Y-100134819D02*
X151738095Y-100134819D01*
X152023809Y-100134819D02*
X152023809Y-99134819D01*
X152023809Y-99134819D02*
X151928571Y-99277676D01*
X151928571Y-99277676D02*
X151833333Y-99372914D01*
X151833333Y-99372914D02*
X151738095Y-99420533D01*
X153166666Y-99468152D02*
X153166666Y-100134819D01*
X152928571Y-99087200D02*
X152690476Y-99801485D01*
X152690476Y-99801485D02*
X153309523Y-99801485D01*
X151238095Y-98149819D02*
X151238095Y-98959342D01*
X151238095Y-98959342D02*
X151285714Y-99054580D01*
X151285714Y-99054580D02*
X151333333Y-99102200D01*
X151333333Y-99102200D02*
X151428571Y-99149819D01*
X151428571Y-99149819D02*
X151619047Y-99149819D01*
X151619047Y-99149819D02*
X151714285Y-99102200D01*
X151714285Y-99102200D02*
X151761904Y-99054580D01*
X151761904Y-99054580D02*
X151809523Y-98959342D01*
X151809523Y-98959342D02*
X151809523Y-98149819D01*
X152809523Y-99149819D02*
X152238095Y-99149819D01*
X152523809Y-99149819D02*
X152523809Y-98149819D01*
X152523809Y-98149819D02*
X152428571Y-98292676D01*
X152428571Y-98292676D02*
X152333333Y-98387914D01*
X152333333Y-98387914D02*
X152238095Y-98435533D01*
X120205978Y-121338200D02*
X121072004Y-120838200D01*
X121072004Y-120838200D02*
X121191051Y-121044397D01*
X121191051Y-121044397D02*
X121221241Y-121191924D01*
X121221241Y-121191924D02*
X121186381Y-121322022D01*
X121186381Y-121322022D02*
X121127712Y-121410880D01*
X121127712Y-121410880D02*
X120986564Y-121547358D01*
X120986564Y-121547358D02*
X120862846Y-121618786D01*
X120862846Y-121618786D02*
X120674080Y-121672785D01*
X120674080Y-121672785D02*
X120567791Y-121679165D01*
X120567791Y-121679165D02*
X120437694Y-121644305D01*
X120437694Y-121644305D02*
X120325026Y-121544397D01*
X120325026Y-121544397D02*
X120205978Y-121338200D01*
X121810099Y-122116619D02*
X121572004Y-121704226D01*
X121572004Y-121704226D02*
X121135801Y-121901082D01*
X121135801Y-121901082D02*
X121200850Y-121918511D01*
X121200850Y-121918511D02*
X121289708Y-121977180D01*
X121289708Y-121977180D02*
X121408756Y-122183377D01*
X121408756Y-122183377D02*
X121415136Y-122289665D01*
X121415136Y-122289665D02*
X121397706Y-122354714D01*
X121397706Y-122354714D02*
X121339037Y-122443572D01*
X121339037Y-122443572D02*
X121132840Y-122562620D01*
X121132840Y-122562620D02*
X121026552Y-122569000D01*
X121026552Y-122569000D02*
X120961503Y-122551570D01*
X120961503Y-122551570D02*
X120872645Y-122492901D01*
X120872645Y-122492901D02*
X120753597Y-122286704D01*
X120753597Y-122286704D02*
X120747218Y-122180416D01*
X120747218Y-122180416D02*
X120764647Y-122115367D01*
X124813829Y-123885005D02*
X125042401Y-124280902D01*
X124928115Y-124082954D02*
X124235295Y-124482954D01*
X124235295Y-124482954D02*
X124372364Y-124491794D01*
X124372364Y-124491794D02*
X124476443Y-124519681D01*
X124476443Y-124519681D02*
X124547529Y-124566617D01*
X173763059Y-87887757D02*
X173745630Y-87952806D01*
X173745630Y-87952806D02*
X173645721Y-88065474D01*
X173645721Y-88065474D02*
X173563243Y-88113093D01*
X173563243Y-88113093D02*
X173415715Y-88143282D01*
X173415715Y-88143282D02*
X173285617Y-88108423D01*
X173285617Y-88108423D02*
X173196759Y-88049754D01*
X173196759Y-88049754D02*
X173060282Y-87908606D01*
X173060282Y-87908606D02*
X172988853Y-87784888D01*
X172988853Y-87784888D02*
X172934854Y-87596121D01*
X172934854Y-87596121D02*
X172928475Y-87489833D01*
X172928475Y-87489833D02*
X172963334Y-87359736D01*
X172963334Y-87359736D02*
X173063243Y-87247068D01*
X173063243Y-87247068D02*
X173145721Y-87199449D01*
X173145721Y-87199449D02*
X173293249Y-87169259D01*
X173293249Y-87169259D02*
X173358297Y-87186689D01*
X174635464Y-87494045D02*
X174140593Y-87779760D01*
X174388029Y-87636903D02*
X173888029Y-86770877D01*
X173888029Y-86770877D02*
X173876979Y-86942214D01*
X173876979Y-86942214D02*
X173842119Y-87072312D01*
X173842119Y-87072312D02*
X173783450Y-87161170D01*
X174512998Y-86520022D02*
X174530428Y-86454974D01*
X174530428Y-86454974D02*
X174589097Y-86366115D01*
X174589097Y-86366115D02*
X174795293Y-86247068D01*
X174795293Y-86247068D02*
X174901582Y-86240688D01*
X174901582Y-86240688D02*
X174966630Y-86258118D01*
X174966630Y-86258118D02*
X175055489Y-86316787D01*
X175055489Y-86316787D02*
X175103108Y-86399265D01*
X175103108Y-86399265D02*
X175133297Y-86546793D01*
X175133297Y-86546793D02*
X174924140Y-87327379D01*
X174924140Y-87327379D02*
X175460251Y-87017855D01*
X125896952Y-123058566D02*
X125879522Y-123123615D01*
X125879522Y-123123615D02*
X125779614Y-123236283D01*
X125779614Y-123236283D02*
X125697135Y-123283902D01*
X125697135Y-123283902D02*
X125549608Y-123314091D01*
X125549608Y-123314091D02*
X125419510Y-123279231D01*
X125419510Y-123279231D02*
X125330652Y-123220562D01*
X125330652Y-123220562D02*
X125194174Y-123079415D01*
X125194174Y-123079415D02*
X125122746Y-122955697D01*
X125122746Y-122955697D02*
X125068747Y-122766930D01*
X125068747Y-122766930D02*
X125062367Y-122660642D01*
X125062367Y-122660642D02*
X125097227Y-122530544D01*
X125097227Y-122530544D02*
X125197135Y-122417876D01*
X125197135Y-122417876D02*
X125279614Y-122370257D01*
X125279614Y-122370257D02*
X125427141Y-122340068D01*
X125427141Y-122340068D02*
X125492190Y-122357498D01*
X126186878Y-121846448D02*
X126021921Y-121941686D01*
X126021921Y-121941686D02*
X125963252Y-122030544D01*
X125963252Y-122030544D02*
X125945822Y-122095593D01*
X125945822Y-122095593D02*
X125934772Y-122266930D01*
X125934772Y-122266930D02*
X125988771Y-122455697D01*
X125988771Y-122455697D02*
X126179247Y-122785611D01*
X126179247Y-122785611D02*
X126268106Y-122844280D01*
X126268106Y-122844280D02*
X126333154Y-122861710D01*
X126333154Y-122861710D02*
X126439443Y-122855330D01*
X126439443Y-122855330D02*
X126604400Y-122760092D01*
X126604400Y-122760092D02*
X126663069Y-122671234D01*
X126663069Y-122671234D02*
X126680499Y-122606185D01*
X126680499Y-122606185D02*
X126674119Y-122499897D01*
X126674119Y-122499897D02*
X126555071Y-122293700D01*
X126555071Y-122293700D02*
X126466213Y-122235031D01*
X126466213Y-122235031D02*
X126401164Y-122217601D01*
X126401164Y-122217601D02*
X126294876Y-122223981D01*
X126294876Y-122223981D02*
X126129919Y-122319219D01*
X126129919Y-122319219D02*
X126071250Y-122408078D01*
X126071250Y-122408078D02*
X126053820Y-122473126D01*
X126053820Y-122473126D02*
X126060200Y-122579415D01*
X167150337Y-129075453D02*
X167085288Y-129058023D01*
X167085288Y-129058023D02*
X166972620Y-128958115D01*
X166972620Y-128958115D02*
X166925001Y-128875636D01*
X166925001Y-128875636D02*
X166894812Y-128728109D01*
X166894812Y-128728109D02*
X166929672Y-128598011D01*
X166929672Y-128598011D02*
X166988341Y-128509153D01*
X166988341Y-128509153D02*
X167129488Y-128372675D01*
X167129488Y-128372675D02*
X167253206Y-128301247D01*
X167253206Y-128301247D02*
X167441973Y-128247248D01*
X167441973Y-128247248D02*
X167548261Y-128240868D01*
X167548261Y-128240868D02*
X167678359Y-128275728D01*
X167678359Y-128275728D02*
X167791027Y-128375636D01*
X167791027Y-128375636D02*
X167838646Y-128458115D01*
X167838646Y-128458115D02*
X167868835Y-128605642D01*
X167868835Y-128605642D02*
X167851405Y-128670691D01*
X167305954Y-129535465D02*
X167401192Y-129700422D01*
X167401192Y-129700422D02*
X167490050Y-129759091D01*
X167490050Y-129759091D02*
X167555099Y-129776521D01*
X167555099Y-129776521D02*
X167726436Y-129787571D01*
X167726436Y-129787571D02*
X167915203Y-129733572D01*
X167915203Y-129733572D02*
X168245117Y-129543096D01*
X168245117Y-129543096D02*
X168303786Y-129454238D01*
X168303786Y-129454238D02*
X168321216Y-129389189D01*
X168321216Y-129389189D02*
X168314836Y-129282901D01*
X168314836Y-129282901D02*
X168219598Y-129117944D01*
X168219598Y-129117944D02*
X168130740Y-129059274D01*
X168130740Y-129059274D02*
X168065691Y-129041845D01*
X168065691Y-129041845D02*
X167959403Y-129048224D01*
X167959403Y-129048224D02*
X167753206Y-129167272D01*
X167753206Y-129167272D02*
X167694537Y-129256130D01*
X167694537Y-129256130D02*
X167677108Y-129321179D01*
X167677108Y-129321179D02*
X167683487Y-129427467D01*
X167683487Y-129427467D02*
X167778725Y-129592425D01*
X167778725Y-129592425D02*
X167867584Y-129651094D01*
X167867584Y-129651094D02*
X167932633Y-129668523D01*
X167932633Y-129668523D02*
X168038921Y-129662144D01*
X148833333Y-82804819D02*
X148500000Y-82328628D01*
X148261905Y-82804819D02*
X148261905Y-81804819D01*
X148261905Y-81804819D02*
X148642857Y-81804819D01*
X148642857Y-81804819D02*
X148738095Y-81852438D01*
X148738095Y-81852438D02*
X148785714Y-81900057D01*
X148785714Y-81900057D02*
X148833333Y-81995295D01*
X148833333Y-81995295D02*
X148833333Y-82138152D01*
X148833333Y-82138152D02*
X148785714Y-82233390D01*
X148785714Y-82233390D02*
X148738095Y-82281009D01*
X148738095Y-82281009D02*
X148642857Y-82328628D01*
X148642857Y-82328628D02*
X148261905Y-82328628D01*
X149785714Y-82804819D02*
X149214286Y-82804819D01*
X149500000Y-82804819D02*
X149500000Y-81804819D01*
X149500000Y-81804819D02*
X149404762Y-81947676D01*
X149404762Y-81947676D02*
X149309524Y-82042914D01*
X149309524Y-82042914D02*
X149214286Y-82090533D01*
X155833333Y-110104819D02*
X155500000Y-109628628D01*
X155261905Y-110104819D02*
X155261905Y-109104819D01*
X155261905Y-109104819D02*
X155642857Y-109104819D01*
X155642857Y-109104819D02*
X155738095Y-109152438D01*
X155738095Y-109152438D02*
X155785714Y-109200057D01*
X155785714Y-109200057D02*
X155833333Y-109295295D01*
X155833333Y-109295295D02*
X155833333Y-109438152D01*
X155833333Y-109438152D02*
X155785714Y-109533390D01*
X155785714Y-109533390D02*
X155738095Y-109581009D01*
X155738095Y-109581009D02*
X155642857Y-109628628D01*
X155642857Y-109628628D02*
X155261905Y-109628628D01*
X156166667Y-109104819D02*
X156785714Y-109104819D01*
X156785714Y-109104819D02*
X156452381Y-109485771D01*
X156452381Y-109485771D02*
X156595238Y-109485771D01*
X156595238Y-109485771D02*
X156690476Y-109533390D01*
X156690476Y-109533390D02*
X156738095Y-109581009D01*
X156738095Y-109581009D02*
X156785714Y-109676247D01*
X156785714Y-109676247D02*
X156785714Y-109914342D01*
X156785714Y-109914342D02*
X156738095Y-110009580D01*
X156738095Y-110009580D02*
X156690476Y-110057200D01*
X156690476Y-110057200D02*
X156595238Y-110104819D01*
X156595238Y-110104819D02*
X156309524Y-110104819D01*
X156309524Y-110104819D02*
X156214286Y-110057200D01*
X156214286Y-110057200D02*
X156166667Y-110009580D01*
X183954819Y-106214285D02*
X182954819Y-106214285D01*
X182954819Y-106214285D02*
X182954819Y-105976190D01*
X182954819Y-105976190D02*
X183002438Y-105833333D01*
X183002438Y-105833333D02*
X183097676Y-105738095D01*
X183097676Y-105738095D02*
X183192914Y-105690476D01*
X183192914Y-105690476D02*
X183383390Y-105642857D01*
X183383390Y-105642857D02*
X183526247Y-105642857D01*
X183526247Y-105642857D02*
X183716723Y-105690476D01*
X183716723Y-105690476D02*
X183811961Y-105738095D01*
X183811961Y-105738095D02*
X183907200Y-105833333D01*
X183907200Y-105833333D02*
X183954819Y-105976190D01*
X183954819Y-105976190D02*
X183954819Y-106214285D01*
X183954819Y-104690476D02*
X183954819Y-105261904D01*
X183954819Y-104976190D02*
X182954819Y-104976190D01*
X182954819Y-104976190D02*
X183097676Y-105071428D01*
X183097676Y-105071428D02*
X183192914Y-105166666D01*
X183192914Y-105166666D02*
X183240533Y-105261904D01*
X182954819Y-104071428D02*
X182954819Y-103976190D01*
X182954819Y-103976190D02*
X183002438Y-103880952D01*
X183002438Y-103880952D02*
X183050057Y-103833333D01*
X183050057Y-103833333D02*
X183145295Y-103785714D01*
X183145295Y-103785714D02*
X183335771Y-103738095D01*
X183335771Y-103738095D02*
X183573866Y-103738095D01*
X183573866Y-103738095D02*
X183764342Y-103785714D01*
X183764342Y-103785714D02*
X183859580Y-103833333D01*
X183859580Y-103833333D02*
X183907200Y-103880952D01*
X183907200Y-103880952D02*
X183954819Y-103976190D01*
X183954819Y-103976190D02*
X183954819Y-104071428D01*
X183954819Y-104071428D02*
X183907200Y-104166666D01*
X183907200Y-104166666D02*
X183859580Y-104214285D01*
X183859580Y-104214285D02*
X183764342Y-104261904D01*
X183764342Y-104261904D02*
X183573866Y-104309523D01*
X183573866Y-104309523D02*
X183335771Y-104309523D01*
X183335771Y-104309523D02*
X183145295Y-104261904D01*
X183145295Y-104261904D02*
X183050057Y-104214285D01*
X183050057Y-104214285D02*
X183002438Y-104166666D01*
X183002438Y-104166666D02*
X182954819Y-104071428D01*
X181237704Y-101228571D02*
X181237704Y-100771428D01*
X181237704Y-101000000D02*
X182037704Y-101000000D01*
X182037704Y-101000000D02*
X181923419Y-100923809D01*
X181923419Y-100923809D02*
X181847228Y-100847619D01*
X181847228Y-100847619D02*
X181809133Y-100771428D01*
X147039580Y-75166666D02*
X147087200Y-75214285D01*
X147087200Y-75214285D02*
X147134819Y-75357142D01*
X147134819Y-75357142D02*
X147134819Y-75452380D01*
X147134819Y-75452380D02*
X147087200Y-75595237D01*
X147087200Y-75595237D02*
X146991961Y-75690475D01*
X146991961Y-75690475D02*
X146896723Y-75738094D01*
X146896723Y-75738094D02*
X146706247Y-75785713D01*
X146706247Y-75785713D02*
X146563390Y-75785713D01*
X146563390Y-75785713D02*
X146372914Y-75738094D01*
X146372914Y-75738094D02*
X146277676Y-75690475D01*
X146277676Y-75690475D02*
X146182438Y-75595237D01*
X146182438Y-75595237D02*
X146134819Y-75452380D01*
X146134819Y-75452380D02*
X146134819Y-75357142D01*
X146134819Y-75357142D02*
X146182438Y-75214285D01*
X146182438Y-75214285D02*
X146230057Y-75166666D01*
X146230057Y-74785713D02*
X146182438Y-74738094D01*
X146182438Y-74738094D02*
X146134819Y-74642856D01*
X146134819Y-74642856D02*
X146134819Y-74404761D01*
X146134819Y-74404761D02*
X146182438Y-74309523D01*
X146182438Y-74309523D02*
X146230057Y-74261904D01*
X146230057Y-74261904D02*
X146325295Y-74214285D01*
X146325295Y-74214285D02*
X146420533Y-74214285D01*
X146420533Y-74214285D02*
X146563390Y-74261904D01*
X146563390Y-74261904D02*
X147134819Y-74833332D01*
X147134819Y-74833332D02*
X147134819Y-74214285D01*
X165470988Y-75755652D02*
X165970988Y-74889627D01*
X165970988Y-74889627D02*
X166177184Y-75008675D01*
X166177184Y-75008675D02*
X166277093Y-75121343D01*
X166277093Y-75121343D02*
X166311952Y-75251440D01*
X166311952Y-75251440D02*
X166305572Y-75357728D01*
X166305572Y-75357728D02*
X166251574Y-75546495D01*
X166251574Y-75546495D02*
X166180145Y-75670213D01*
X166180145Y-75670213D02*
X166043668Y-75811361D01*
X166043668Y-75811361D02*
X165954809Y-75870030D01*
X165954809Y-75870030D02*
X165824712Y-75904889D01*
X165824712Y-75904889D02*
X165677184Y-75874700D01*
X165677184Y-75874700D02*
X165470988Y-75755652D01*
X166790645Y-76517557D02*
X166295774Y-76231843D01*
X166543210Y-76374700D02*
X167043210Y-75508675D01*
X167043210Y-75508675D02*
X166889302Y-75584774D01*
X166889302Y-75584774D02*
X166759205Y-75619633D01*
X166759205Y-75619633D02*
X166652917Y-75613253D01*
X167572941Y-75924487D02*
X167637990Y-75907057D01*
X167637990Y-75907057D02*
X167744278Y-75913437D01*
X167744278Y-75913437D02*
X167950474Y-76032484D01*
X167950474Y-76032484D02*
X168009143Y-76121343D01*
X168009143Y-76121343D02*
X168026573Y-76186391D01*
X168026573Y-76186391D02*
X168020193Y-76292680D01*
X168020193Y-76292680D02*
X167972574Y-76375158D01*
X167972574Y-76375158D02*
X167859907Y-76475067D01*
X167859907Y-76475067D02*
X167079321Y-76684224D01*
X167079321Y-76684224D02*
X167615432Y-76993748D01*
X162352699Y-76042401D02*
X161956802Y-75813830D01*
X162154750Y-75928116D02*
X162554750Y-75235295D01*
X162554750Y-75235295D02*
X162431624Y-75296174D01*
X162431624Y-75296174D02*
X162327546Y-75324062D01*
X162327546Y-75324062D02*
X162242516Y-75318958D01*
X156581009Y-85333333D02*
X156581009Y-85666666D01*
X157104819Y-85666666D02*
X156104819Y-85666666D01*
X156104819Y-85666666D02*
X156104819Y-85190476D01*
X157104819Y-84285714D02*
X157104819Y-84857142D01*
X157104819Y-84571428D02*
X156104819Y-84571428D01*
X156104819Y-84571428D02*
X156247676Y-84666666D01*
X156247676Y-84666666D02*
X156342914Y-84761904D01*
X156342914Y-84761904D02*
X156390533Y-84857142D01*
X122315872Y-93173150D02*
X122250823Y-93190579D01*
X122250823Y-93190579D02*
X122103296Y-93160390D01*
X122103296Y-93160390D02*
X122020817Y-93112771D01*
X122020817Y-93112771D02*
X121920909Y-93000103D01*
X121920909Y-93000103D02*
X121886049Y-92870006D01*
X121886049Y-92870006D02*
X121892429Y-92763717D01*
X121892429Y-92763717D02*
X121946428Y-92574951D01*
X121946428Y-92574951D02*
X122017856Y-92451233D01*
X122017856Y-92451233D02*
X122154334Y-92310085D01*
X122154334Y-92310085D02*
X122243192Y-92251416D01*
X122243192Y-92251416D02*
X122373290Y-92216556D01*
X122373290Y-92216556D02*
X122520817Y-92246746D01*
X122520817Y-92246746D02*
X122603296Y-92294365D01*
X122603296Y-92294365D02*
X122703204Y-92407033D01*
X122703204Y-92407033D02*
X122720634Y-92472081D01*
X123343894Y-93106849D02*
X123010560Y-93684200D01*
X123328173Y-92657887D02*
X122764834Y-93157429D01*
X122764834Y-93157429D02*
X123300945Y-93466953D01*
X149261905Y-138954819D02*
X149261905Y-137954819D01*
X149261905Y-137954819D02*
X149500000Y-137954819D01*
X149500000Y-137954819D02*
X149642857Y-138002438D01*
X149642857Y-138002438D02*
X149738095Y-138097676D01*
X149738095Y-138097676D02*
X149785714Y-138192914D01*
X149785714Y-138192914D02*
X149833333Y-138383390D01*
X149833333Y-138383390D02*
X149833333Y-138526247D01*
X149833333Y-138526247D02*
X149785714Y-138716723D01*
X149785714Y-138716723D02*
X149738095Y-138811961D01*
X149738095Y-138811961D02*
X149642857Y-138907200D01*
X149642857Y-138907200D02*
X149500000Y-138954819D01*
X149500000Y-138954819D02*
X149261905Y-138954819D01*
X150166667Y-137954819D02*
X150833333Y-137954819D01*
X150833333Y-137954819D02*
X150404762Y-138954819D01*
X153771428Y-136237704D02*
X154228571Y-136237704D01*
X153999999Y-136237704D02*
X153999999Y-137037704D01*
X153999999Y-137037704D02*
X154076190Y-136923419D01*
X154076190Y-136923419D02*
X154152380Y-136847228D01*
X154152380Y-136847228D02*
X154228571Y-136809133D01*
X131860183Y-80995453D02*
X131795134Y-80978023D01*
X131795134Y-80978023D02*
X131682466Y-80878115D01*
X131682466Y-80878115D02*
X131634847Y-80795636D01*
X131634847Y-80795636D02*
X131604658Y-80648109D01*
X131604658Y-80648109D02*
X131639518Y-80518011D01*
X131639518Y-80518011D02*
X131698187Y-80429153D01*
X131698187Y-80429153D02*
X131839334Y-80292675D01*
X131839334Y-80292675D02*
X131963052Y-80221247D01*
X131963052Y-80221247D02*
X132151819Y-80167248D01*
X132151819Y-80167248D02*
X132258107Y-80160868D01*
X132258107Y-80160868D02*
X132388205Y-80195728D01*
X132388205Y-80195728D02*
X132500873Y-80295636D01*
X132500873Y-80295636D02*
X132548492Y-80378115D01*
X132548492Y-80378115D02*
X132578681Y-80525642D01*
X132578681Y-80525642D02*
X132561251Y-80590691D01*
X132810397Y-80831747D02*
X133119920Y-81367858D01*
X133119920Y-81367858D02*
X132623339Y-81269659D01*
X132623339Y-81269659D02*
X132694768Y-81393377D01*
X132694768Y-81393377D02*
X132701148Y-81499665D01*
X132701148Y-81499665D02*
X132683718Y-81564714D01*
X132683718Y-81564714D02*
X132625049Y-81653572D01*
X132625049Y-81653572D02*
X132418852Y-81772620D01*
X132418852Y-81772620D02*
X132312564Y-81779000D01*
X132312564Y-81779000D02*
X132247515Y-81761570D01*
X132247515Y-81761570D02*
X132158657Y-81702901D01*
X132158657Y-81702901D02*
X132015800Y-81455465D01*
X132015800Y-81455465D02*
X132009420Y-81349177D01*
X132009420Y-81349177D02*
X132026850Y-81284128D01*
X116954819Y-105738094D02*
X115954819Y-105738094D01*
X115954819Y-105738094D02*
X115954819Y-105499999D01*
X115954819Y-105499999D02*
X116002438Y-105357142D01*
X116002438Y-105357142D02*
X116097676Y-105261904D01*
X116097676Y-105261904D02*
X116192914Y-105214285D01*
X116192914Y-105214285D02*
X116383390Y-105166666D01*
X116383390Y-105166666D02*
X116526247Y-105166666D01*
X116526247Y-105166666D02*
X116716723Y-105214285D01*
X116716723Y-105214285D02*
X116811961Y-105261904D01*
X116811961Y-105261904D02*
X116907200Y-105357142D01*
X116907200Y-105357142D02*
X116954819Y-105499999D01*
X116954819Y-105499999D02*
X116954819Y-105738094D01*
X116288152Y-104309523D02*
X116954819Y-104309523D01*
X115907200Y-104547618D02*
X116621485Y-104785713D01*
X116621485Y-104785713D02*
X116621485Y-104166666D01*
X118762295Y-108771428D02*
X118762295Y-109228571D01*
X118762295Y-108999999D02*
X117962295Y-108999999D01*
X117962295Y-108999999D02*
X118076580Y-109076190D01*
X118076580Y-109076190D02*
X118152771Y-109152380D01*
X118152771Y-109152380D02*
X118190866Y-109228571D01*
X178030061Y-87425807D02*
X178896086Y-86925807D01*
X178896086Y-86925807D02*
X179015134Y-87132003D01*
X179015134Y-87132003D02*
X179045323Y-87279531D01*
X179045323Y-87279531D02*
X179010463Y-87409628D01*
X179010463Y-87409628D02*
X178951794Y-87498487D01*
X178951794Y-87498487D02*
X178810647Y-87634964D01*
X178810647Y-87634964D02*
X178686929Y-87706393D01*
X178686929Y-87706393D02*
X178498162Y-87760391D01*
X178498162Y-87760391D02*
X178391874Y-87766771D01*
X178391874Y-87766771D02*
X178261776Y-87731912D01*
X178261776Y-87731912D02*
X178149108Y-87632003D01*
X178149108Y-87632003D02*
X178030061Y-87425807D01*
X178791966Y-88745464D02*
X178506251Y-88250593D01*
X178649108Y-88498029D02*
X179515134Y-87998029D01*
X179515134Y-87998029D02*
X179343797Y-87986979D01*
X179343797Y-87986979D02*
X179213699Y-87952119D01*
X179213699Y-87952119D02*
X179124841Y-87893450D01*
X179268156Y-89570251D02*
X178982442Y-89075379D01*
X179125299Y-89322815D02*
X179991324Y-88822815D01*
X179991324Y-88822815D02*
X179819987Y-88811765D01*
X179819987Y-88811765D02*
X179689890Y-88776905D01*
X179689890Y-88776905D02*
X179601031Y-88718236D01*
X175186170Y-86114994D02*
X174957598Y-85719097D01*
X175071884Y-85917045D02*
X175764704Y-85517045D01*
X175764704Y-85517045D02*
X175627635Y-85508205D01*
X175627635Y-85508205D02*
X175523556Y-85480318D01*
X175523556Y-85480318D02*
X175452470Y-85433382D01*
X179055926Y-122616618D02*
X178189901Y-122116618D01*
X178189901Y-122116618D02*
X178308948Y-121910421D01*
X178308948Y-121910421D02*
X178421616Y-121810513D01*
X178421616Y-121810513D02*
X178551714Y-121775653D01*
X178551714Y-121775653D02*
X178658002Y-121782033D01*
X178658002Y-121782033D02*
X178846769Y-121836032D01*
X178846769Y-121836032D02*
X178970487Y-121907460D01*
X178970487Y-121907460D02*
X179111634Y-122043938D01*
X179111634Y-122043938D02*
X179170303Y-122132796D01*
X179170303Y-122132796D02*
X179205163Y-122262894D01*
X179205163Y-122262894D02*
X179174974Y-122410421D01*
X179174974Y-122410421D02*
X179055926Y-122616618D01*
X179579735Y-121709353D02*
X179674974Y-121544396D01*
X179674974Y-121544396D02*
X179681353Y-121438108D01*
X179681353Y-121438108D02*
X179663924Y-121373059D01*
X179663924Y-121373059D02*
X179587825Y-121219152D01*
X179587825Y-121219152D02*
X179446677Y-121082674D01*
X179446677Y-121082674D02*
X179116763Y-120892198D01*
X179116763Y-120892198D02*
X179010474Y-120885818D01*
X179010474Y-120885818D02*
X178945426Y-120903248D01*
X178945426Y-120903248D02*
X178856567Y-120961917D01*
X178856567Y-120961917D02*
X178761329Y-121126875D01*
X178761329Y-121126875D02*
X178754949Y-121233163D01*
X178754949Y-121233163D02*
X178772379Y-121298211D01*
X178772379Y-121298211D02*
X178831048Y-121387070D01*
X178831048Y-121387070D02*
X179037245Y-121506117D01*
X179037245Y-121506117D02*
X179143533Y-121512497D01*
X179143533Y-121512497D02*
X179208582Y-121495067D01*
X179208582Y-121495067D02*
X179297440Y-121436398D01*
X179297440Y-121436398D02*
X179392678Y-121271441D01*
X179392678Y-121271441D02*
X179399058Y-121165153D01*
X179399058Y-121165153D02*
X179381628Y-121100104D01*
X179381628Y-121100104D02*
X179322959Y-121011246D01*
X178957598Y-117352699D02*
X179186169Y-116956802D01*
X179071883Y-117154750D02*
X179764704Y-117554750D01*
X179764704Y-117554750D02*
X179703825Y-117431624D01*
X179703825Y-117431624D02*
X179675937Y-117327546D01*
X179675937Y-117327546D02*
X179681041Y-117242516D01*
X120993748Y-89116618D02*
X120127723Y-88616618D01*
X120127723Y-88616618D02*
X120246770Y-88410421D01*
X120246770Y-88410421D02*
X120359438Y-88310513D01*
X120359438Y-88310513D02*
X120489536Y-88275653D01*
X120489536Y-88275653D02*
X120595824Y-88282033D01*
X120595824Y-88282033D02*
X120784591Y-88336032D01*
X120784591Y-88336032D02*
X120908309Y-88407460D01*
X120908309Y-88407460D02*
X121049456Y-88543938D01*
X121049456Y-88543938D02*
X121108125Y-88632796D01*
X121108125Y-88632796D02*
X121142985Y-88762894D01*
X121142985Y-88762894D02*
X121112796Y-88910421D01*
X121112796Y-88910421D02*
X120993748Y-89116618D01*
X120580104Y-87833071D02*
X120889627Y-87296960D01*
X120889627Y-87296960D02*
X121052875Y-87776111D01*
X121052875Y-87776111D02*
X121124304Y-87652393D01*
X121124304Y-87652393D02*
X121213162Y-87593724D01*
X121213162Y-87593724D02*
X121278211Y-87576295D01*
X121278211Y-87576295D02*
X121384499Y-87582674D01*
X121384499Y-87582674D02*
X121590696Y-87701722D01*
X121590696Y-87701722D02*
X121649365Y-87790580D01*
X121649365Y-87790580D02*
X121666794Y-87855629D01*
X121666794Y-87855629D02*
X121660415Y-87961917D01*
X121660415Y-87961917D02*
X121517557Y-88209353D01*
X121517557Y-88209353D02*
X121428699Y-88268022D01*
X121428699Y-88268022D02*
X121363650Y-88285452D01*
X121042401Y-92647300D02*
X120813830Y-93043197D01*
X120928116Y-92845249D02*
X120235295Y-92445249D01*
X120235295Y-92445249D02*
X120296174Y-92568375D01*
X120296174Y-92568375D02*
X120324062Y-92672453D01*
X120324062Y-92672453D02*
X120318958Y-92757483D01*
X166338200Y-134794021D02*
X165838200Y-133927995D01*
X165838200Y-133927995D02*
X166044397Y-133808948D01*
X166044397Y-133808948D02*
X166191924Y-133778758D01*
X166191924Y-133778758D02*
X166322022Y-133813618D01*
X166322022Y-133813618D02*
X166410880Y-133872287D01*
X166410880Y-133872287D02*
X166547358Y-134013435D01*
X166547358Y-134013435D02*
X166618786Y-134137153D01*
X166618786Y-134137153D02*
X166672785Y-134325919D01*
X166672785Y-134325919D02*
X166679165Y-134432208D01*
X166679165Y-134432208D02*
X166644305Y-134562305D01*
X166644305Y-134562305D02*
X166544397Y-134674973D01*
X166544397Y-134674973D02*
X166338200Y-134794021D01*
X167042229Y-133727720D02*
X166935941Y-133734100D01*
X166935941Y-133734100D02*
X166870892Y-133716670D01*
X166870892Y-133716670D02*
X166782034Y-133658001D01*
X166782034Y-133658001D02*
X166758224Y-133616762D01*
X166758224Y-133616762D02*
X166751845Y-133510474D01*
X166751845Y-133510474D02*
X166769274Y-133445425D01*
X166769274Y-133445425D02*
X166827944Y-133356567D01*
X166827944Y-133356567D02*
X166992901Y-133261329D01*
X166992901Y-133261329D02*
X167099189Y-133254949D01*
X167099189Y-133254949D02*
X167164238Y-133272379D01*
X167164238Y-133272379D02*
X167253096Y-133331048D01*
X167253096Y-133331048D02*
X167276906Y-133372287D01*
X167276906Y-133372287D02*
X167283285Y-133478575D01*
X167283285Y-133478575D02*
X167265856Y-133543624D01*
X167265856Y-133543624D02*
X167207186Y-133632482D01*
X167207186Y-133632482D02*
X167042229Y-133727720D01*
X167042229Y-133727720D02*
X166983560Y-133816579D01*
X166983560Y-133816579D02*
X166966130Y-133881628D01*
X166966130Y-133881628D02*
X166972510Y-133987916D01*
X166972510Y-133987916D02*
X167067748Y-134152873D01*
X167067748Y-134152873D02*
X167156607Y-134211542D01*
X167156607Y-134211542D02*
X167221655Y-134228972D01*
X167221655Y-134228972D02*
X167327944Y-134222592D01*
X167327944Y-134222592D02*
X167492901Y-134127354D01*
X167492901Y-134127354D02*
X167551570Y-134038496D01*
X167551570Y-134038496D02*
X167569000Y-133973447D01*
X167569000Y-133973447D02*
X167562620Y-133867159D01*
X167562620Y-133867159D02*
X167467382Y-133702202D01*
X167467382Y-133702202D02*
X167378523Y-133643532D01*
X167378523Y-133643532D02*
X167313475Y-133626103D01*
X167313475Y-133626103D02*
X167207186Y-133632482D01*
X168885005Y-130186170D02*
X169280902Y-129957598D01*
X169082954Y-130071884D02*
X169482954Y-130764704D01*
X169482954Y-130764704D02*
X169491794Y-130627635D01*
X169491794Y-130627635D02*
X169519681Y-130523556D01*
X169519681Y-130523556D02*
X169566617Y-130452470D01*
X119833333Y-108679580D02*
X119785714Y-108727200D01*
X119785714Y-108727200D02*
X119642857Y-108774819D01*
X119642857Y-108774819D02*
X119547619Y-108774819D01*
X119547619Y-108774819D02*
X119404762Y-108727200D01*
X119404762Y-108727200D02*
X119309524Y-108631961D01*
X119309524Y-108631961D02*
X119261905Y-108536723D01*
X119261905Y-108536723D02*
X119214286Y-108346247D01*
X119214286Y-108346247D02*
X119214286Y-108203390D01*
X119214286Y-108203390D02*
X119261905Y-108012914D01*
X119261905Y-108012914D02*
X119309524Y-107917676D01*
X119309524Y-107917676D02*
X119404762Y-107822438D01*
X119404762Y-107822438D02*
X119547619Y-107774819D01*
X119547619Y-107774819D02*
X119642857Y-107774819D01*
X119642857Y-107774819D02*
X119785714Y-107822438D01*
X119785714Y-107822438D02*
X119833333Y-107870057D01*
X120738095Y-107774819D02*
X120261905Y-107774819D01*
X120261905Y-107774819D02*
X120214286Y-108251009D01*
X120214286Y-108251009D02*
X120261905Y-108203390D01*
X120261905Y-108203390D02*
X120357143Y-108155771D01*
X120357143Y-108155771D02*
X120595238Y-108155771D01*
X120595238Y-108155771D02*
X120690476Y-108203390D01*
X120690476Y-108203390D02*
X120738095Y-108251009D01*
X120738095Y-108251009D02*
X120785714Y-108346247D01*
X120785714Y-108346247D02*
X120785714Y-108584342D01*
X120785714Y-108584342D02*
X120738095Y-108679580D01*
X120738095Y-108679580D02*
X120690476Y-108727200D01*
X120690476Y-108727200D02*
X120595238Y-108774819D01*
X120595238Y-108774819D02*
X120357143Y-108774819D01*
X120357143Y-108774819D02*
X120261905Y-108727200D01*
X120261905Y-108727200D02*
X120214286Y-108679580D01*
X132838200Y-76731843D02*
X132338200Y-75865817D01*
X132338200Y-75865817D02*
X132544397Y-75746770D01*
X132544397Y-75746770D02*
X132691924Y-75716580D01*
X132691924Y-75716580D02*
X132822022Y-75751440D01*
X132822022Y-75751440D02*
X132910880Y-75810109D01*
X132910880Y-75810109D02*
X133047358Y-75951257D01*
X133047358Y-75951257D02*
X133118786Y-76074975D01*
X133118786Y-76074975D02*
X133172785Y-76263741D01*
X133172785Y-76263741D02*
X133179165Y-76370030D01*
X133179165Y-76370030D02*
X133144305Y-76500127D01*
X133144305Y-76500127D02*
X133044397Y-76612795D01*
X133044397Y-76612795D02*
X132838200Y-76731843D01*
X133210605Y-75472105D02*
X133228035Y-75407057D01*
X133228035Y-75407057D02*
X133286704Y-75318198D01*
X133286704Y-75318198D02*
X133492901Y-75199151D01*
X133492901Y-75199151D02*
X133599189Y-75192771D01*
X133599189Y-75192771D02*
X133664238Y-75210201D01*
X133664238Y-75210201D02*
X133753096Y-75268870D01*
X133753096Y-75268870D02*
X133800715Y-75351348D01*
X133800715Y-75351348D02*
X133830904Y-75498876D01*
X133830904Y-75498876D02*
X133621747Y-76279462D01*
X133621747Y-76279462D02*
X134157858Y-75969938D01*
X131114994Y-79813829D02*
X130719097Y-80042401D01*
X130917045Y-79928115D02*
X130517045Y-79235295D01*
X130517045Y-79235295D02*
X130508205Y-79372364D01*
X130508205Y-79372364D02*
X130480318Y-79476443D01*
X130480318Y-79476443D02*
X130433382Y-79547529D01*
X162144900Y-78376521D02*
X162162330Y-78441569D01*
X162162330Y-78441569D02*
X162132141Y-78589097D01*
X162132141Y-78589097D02*
X162084522Y-78671576D01*
X162084522Y-78671576D02*
X161971854Y-78771484D01*
X161971854Y-78771484D02*
X161841756Y-78806343D01*
X161841756Y-78806343D02*
X161735468Y-78799964D01*
X161735468Y-78799964D02*
X161546701Y-78745965D01*
X161546701Y-78745965D02*
X161422983Y-78674536D01*
X161422983Y-78674536D02*
X161281836Y-78538059D01*
X161281836Y-78538059D02*
X161223167Y-78449201D01*
X161223167Y-78449201D02*
X161188307Y-78319103D01*
X161188307Y-78319103D02*
X161218496Y-78171576D01*
X161218496Y-78171576D02*
X161266115Y-78089097D01*
X161266115Y-78089097D02*
X161378783Y-77989189D01*
X161378783Y-77989189D02*
X161443832Y-77971759D01*
X162703569Y-77599354D02*
X162417855Y-78094225D01*
X162560712Y-77846789D02*
X161694687Y-77346789D01*
X161694687Y-77346789D02*
X161770786Y-77500697D01*
X161770786Y-77500697D02*
X161805645Y-77630794D01*
X161805645Y-77630794D02*
X161799265Y-77737082D01*
X162004211Y-76810678D02*
X162313734Y-76274567D01*
X162313734Y-76274567D02*
X162476982Y-76753719D01*
X162476982Y-76753719D02*
X162548411Y-76630001D01*
X162548411Y-76630001D02*
X162637269Y-76571332D01*
X162637269Y-76571332D02*
X162702318Y-76553902D01*
X162702318Y-76553902D02*
X162808606Y-76560282D01*
X162808606Y-76560282D02*
X163014803Y-76679329D01*
X163014803Y-76679329D02*
X163073472Y-76768188D01*
X163073472Y-76768188D02*
X163090901Y-76833237D01*
X163090901Y-76833237D02*
X163084522Y-76939525D01*
X163084522Y-76939525D02*
X162941664Y-77186960D01*
X162941664Y-77186960D02*
X162852806Y-77245630D01*
X162852806Y-77245630D02*
X162787757Y-77263059D01*
X177835872Y-117682996D02*
X177770823Y-117700425D01*
X177770823Y-117700425D02*
X177623296Y-117670236D01*
X177623296Y-117670236D02*
X177540817Y-117622617D01*
X177540817Y-117622617D02*
X177440909Y-117509949D01*
X177440909Y-117509949D02*
X177406049Y-117379852D01*
X177406049Y-117379852D02*
X177412429Y-117273563D01*
X177412429Y-117273563D02*
X177466428Y-117084797D01*
X177466428Y-117084797D02*
X177537856Y-116961079D01*
X177537856Y-116961079D02*
X177674334Y-116819931D01*
X177674334Y-116819931D02*
X177763192Y-116761262D01*
X177763192Y-116761262D02*
X177893290Y-116726402D01*
X177893290Y-116726402D02*
X178040817Y-116756592D01*
X178040817Y-116756592D02*
X178123296Y-116804211D01*
X178123296Y-116804211D02*
X178223204Y-116916879D01*
X178223204Y-116916879D02*
X178240634Y-116981927D01*
X178613039Y-118241665D02*
X178118167Y-117955950D01*
X178365603Y-118098808D02*
X178865603Y-117232782D01*
X178865603Y-117232782D02*
X178711696Y-117308881D01*
X178711696Y-117308881D02*
X178581598Y-117343741D01*
X178581598Y-117343741D02*
X178475310Y-117337361D01*
X153679580Y-135166666D02*
X153727200Y-135214285D01*
X153727200Y-135214285D02*
X153774819Y-135357142D01*
X153774819Y-135357142D02*
X153774819Y-135452380D01*
X153774819Y-135452380D02*
X153727200Y-135595237D01*
X153727200Y-135595237D02*
X153631961Y-135690475D01*
X153631961Y-135690475D02*
X153536723Y-135738094D01*
X153536723Y-135738094D02*
X153346247Y-135785713D01*
X153346247Y-135785713D02*
X153203390Y-135785713D01*
X153203390Y-135785713D02*
X153012914Y-135738094D01*
X153012914Y-135738094D02*
X152917676Y-135690475D01*
X152917676Y-135690475D02*
X152822438Y-135595237D01*
X152822438Y-135595237D02*
X152774819Y-135452380D01*
X152774819Y-135452380D02*
X152774819Y-135357142D01*
X152774819Y-135357142D02*
X152822438Y-135214285D01*
X152822438Y-135214285D02*
X152870057Y-135166666D01*
X153203390Y-134595237D02*
X153155771Y-134690475D01*
X153155771Y-134690475D02*
X153108152Y-134738094D01*
X153108152Y-134738094D02*
X153012914Y-134785713D01*
X153012914Y-134785713D02*
X152965295Y-134785713D01*
X152965295Y-134785713D02*
X152870057Y-134738094D01*
X152870057Y-134738094D02*
X152822438Y-134690475D01*
X152822438Y-134690475D02*
X152774819Y-134595237D01*
X152774819Y-134595237D02*
X152774819Y-134404761D01*
X152774819Y-134404761D02*
X152822438Y-134309523D01*
X152822438Y-134309523D02*
X152870057Y-134261904D01*
X152870057Y-134261904D02*
X152965295Y-134214285D01*
X152965295Y-134214285D02*
X153012914Y-134214285D01*
X153012914Y-134214285D02*
X153108152Y-134261904D01*
X153108152Y-134261904D02*
X153155771Y-134309523D01*
X153155771Y-134309523D02*
X153203390Y-134404761D01*
X153203390Y-134404761D02*
X153203390Y-134595237D01*
X153203390Y-134595237D02*
X153251009Y-134690475D01*
X153251009Y-134690475D02*
X153298628Y-134738094D01*
X153298628Y-134738094D02*
X153393866Y-134785713D01*
X153393866Y-134785713D02*
X153584342Y-134785713D01*
X153584342Y-134785713D02*
X153679580Y-134738094D01*
X153679580Y-134738094D02*
X153727200Y-134690475D01*
X153727200Y-134690475D02*
X153774819Y-134595237D01*
X153774819Y-134595237D02*
X153774819Y-134404761D01*
X153774819Y-134404761D02*
X153727200Y-134309523D01*
X153727200Y-134309523D02*
X153679580Y-134261904D01*
X153679580Y-134261904D02*
X153584342Y-134214285D01*
X153584342Y-134214285D02*
X153393866Y-134214285D01*
X153393866Y-134214285D02*
X153298628Y-134261904D01*
X153298628Y-134261904D02*
X153251009Y-134309523D01*
X153251009Y-134309523D02*
X153203390Y-134404761D01*
X179157142Y-102239580D02*
X179109523Y-102287200D01*
X179109523Y-102287200D02*
X178966666Y-102334819D01*
X178966666Y-102334819D02*
X178871428Y-102334819D01*
X178871428Y-102334819D02*
X178728571Y-102287200D01*
X178728571Y-102287200D02*
X178633333Y-102191961D01*
X178633333Y-102191961D02*
X178585714Y-102096723D01*
X178585714Y-102096723D02*
X178538095Y-101906247D01*
X178538095Y-101906247D02*
X178538095Y-101763390D01*
X178538095Y-101763390D02*
X178585714Y-101572914D01*
X178585714Y-101572914D02*
X178633333Y-101477676D01*
X178633333Y-101477676D02*
X178728571Y-101382438D01*
X178728571Y-101382438D02*
X178871428Y-101334819D01*
X178871428Y-101334819D02*
X178966666Y-101334819D01*
X178966666Y-101334819D02*
X179109523Y-101382438D01*
X179109523Y-101382438D02*
X179157142Y-101430057D01*
X180109523Y-102334819D02*
X179538095Y-102334819D01*
X179823809Y-102334819D02*
X179823809Y-101334819D01*
X179823809Y-101334819D02*
X179728571Y-101477676D01*
X179728571Y-101477676D02*
X179633333Y-101572914D01*
X179633333Y-101572914D02*
X179538095Y-101620533D01*
X181061904Y-102334819D02*
X180490476Y-102334819D01*
X180776190Y-102334819D02*
X180776190Y-101334819D01*
X180776190Y-101334819D02*
X180680952Y-101477676D01*
X180680952Y-101477676D02*
X180585714Y-101572914D01*
X180585714Y-101572914D02*
X180490476Y-101620533D01*
X162666666Y-108454819D02*
X162666666Y-109169104D01*
X162666666Y-109169104D02*
X162619047Y-109311961D01*
X162619047Y-109311961D02*
X162523809Y-109407200D01*
X162523809Y-109407200D02*
X162380952Y-109454819D01*
X162380952Y-109454819D02*
X162285714Y-109454819D01*
X163666666Y-109454819D02*
X163095238Y-109454819D01*
X163380952Y-109454819D02*
X163380952Y-108454819D01*
X163380952Y-108454819D02*
X163285714Y-108597676D01*
X163285714Y-108597676D02*
X163190476Y-108692914D01*
X163190476Y-108692914D02*
X163095238Y-108740533D01*
X164134376Y-86448059D02*
X164069327Y-86430630D01*
X164069327Y-86430630D02*
X163956659Y-86330721D01*
X163956659Y-86330721D02*
X163909040Y-86248243D01*
X163909040Y-86248243D02*
X163878851Y-86100715D01*
X163878851Y-86100715D02*
X163913710Y-85970617D01*
X163913710Y-85970617D02*
X163972379Y-85881759D01*
X163972379Y-85881759D02*
X164113527Y-85745282D01*
X164113527Y-85745282D02*
X164237245Y-85673853D01*
X164237245Y-85673853D02*
X164426012Y-85619854D01*
X164426012Y-85619854D02*
X164532300Y-85613475D01*
X164532300Y-85613475D02*
X164662397Y-85648334D01*
X164662397Y-85648334D02*
X164775065Y-85748243D01*
X164775065Y-85748243D02*
X164822684Y-85830721D01*
X164822684Y-85830721D02*
X164852874Y-85978249D01*
X164852874Y-85978249D02*
X164835444Y-86043297D01*
X164528088Y-87320464D02*
X164242373Y-86825593D01*
X164385230Y-87073029D02*
X165251256Y-86573029D01*
X165251256Y-86573029D02*
X165079919Y-86561979D01*
X165079919Y-86561979D02*
X164949821Y-86527119D01*
X164949821Y-86527119D02*
X164860963Y-86468450D01*
X165703637Y-87356575D02*
X165751256Y-87439054D01*
X165751256Y-87439054D02*
X165757636Y-87545342D01*
X165757636Y-87545342D02*
X165740206Y-87610391D01*
X165740206Y-87610391D02*
X165681537Y-87699249D01*
X165681537Y-87699249D02*
X165540389Y-87835727D01*
X165540389Y-87835727D02*
X165334192Y-87954774D01*
X165334192Y-87954774D02*
X165145426Y-88008773D01*
X165145426Y-88008773D02*
X165039138Y-88015153D01*
X165039138Y-88015153D02*
X164974089Y-87997723D01*
X164974089Y-87997723D02*
X164885230Y-87939054D01*
X164885230Y-87939054D02*
X164837611Y-87856575D01*
X164837611Y-87856575D02*
X164831232Y-87750287D01*
X164831232Y-87750287D02*
X164848661Y-87685239D01*
X164848661Y-87685239D02*
X164907330Y-87596380D01*
X164907330Y-87596380D02*
X165048478Y-87459903D01*
X165048478Y-87459903D02*
X165254675Y-87340855D01*
X165254675Y-87340855D02*
X165443441Y-87286856D01*
X165443441Y-87286856D02*
X165549730Y-87280477D01*
X165549730Y-87280477D02*
X165614778Y-87297906D01*
X165614778Y-87297906D02*
X165703637Y-87356575D01*
X147833333Y-106804819D02*
X147500000Y-106328628D01*
X147261905Y-106804819D02*
X147261905Y-105804819D01*
X147261905Y-105804819D02*
X147642857Y-105804819D01*
X147642857Y-105804819D02*
X147738095Y-105852438D01*
X147738095Y-105852438D02*
X147785714Y-105900057D01*
X147785714Y-105900057D02*
X147833333Y-105995295D01*
X147833333Y-105995295D02*
X147833333Y-106138152D01*
X147833333Y-106138152D02*
X147785714Y-106233390D01*
X147785714Y-106233390D02*
X147738095Y-106281009D01*
X147738095Y-106281009D02*
X147642857Y-106328628D01*
X147642857Y-106328628D02*
X147261905Y-106328628D01*
X148214286Y-105900057D02*
X148261905Y-105852438D01*
X148261905Y-105852438D02*
X148357143Y-105804819D01*
X148357143Y-105804819D02*
X148595238Y-105804819D01*
X148595238Y-105804819D02*
X148690476Y-105852438D01*
X148690476Y-105852438D02*
X148738095Y-105900057D01*
X148738095Y-105900057D02*
X148785714Y-105995295D01*
X148785714Y-105995295D02*
X148785714Y-106090533D01*
X148785714Y-106090533D02*
X148738095Y-106233390D01*
X148738095Y-106233390D02*
X148166667Y-106804819D01*
X148166667Y-106804819D02*
X148785714Y-106804819D01*
X138173150Y-132484127D02*
X138190579Y-132549176D01*
X138190579Y-132549176D02*
X138160390Y-132696703D01*
X138160390Y-132696703D02*
X138112771Y-132779182D01*
X138112771Y-132779182D02*
X138000103Y-132879090D01*
X138000103Y-132879090D02*
X137870006Y-132913950D01*
X137870006Y-132913950D02*
X137763717Y-132907570D01*
X137763717Y-132907570D02*
X137574951Y-132853571D01*
X137574951Y-132853571D02*
X137451233Y-132782143D01*
X137451233Y-132782143D02*
X137310085Y-132645665D01*
X137310085Y-132645665D02*
X137251416Y-132556807D01*
X137251416Y-132556807D02*
X137216556Y-132426709D01*
X137216556Y-132426709D02*
X137246746Y-132279182D01*
X137246746Y-132279182D02*
X137294365Y-132196703D01*
X137294365Y-132196703D02*
X137407033Y-132096795D01*
X137407033Y-132096795D02*
X137472081Y-132079365D01*
X137556270Y-131743071D02*
X137889603Y-131165721D01*
X137889603Y-131165721D02*
X138541343Y-132036875D01*
X149261905Y-71954819D02*
X149261905Y-70954819D01*
X149261905Y-70954819D02*
X149500000Y-70954819D01*
X149500000Y-70954819D02*
X149642857Y-71002438D01*
X149642857Y-71002438D02*
X149738095Y-71097676D01*
X149738095Y-71097676D02*
X149785714Y-71192914D01*
X149785714Y-71192914D02*
X149833333Y-71383390D01*
X149833333Y-71383390D02*
X149833333Y-71526247D01*
X149833333Y-71526247D02*
X149785714Y-71716723D01*
X149785714Y-71716723D02*
X149738095Y-71811961D01*
X149738095Y-71811961D02*
X149642857Y-71907200D01*
X149642857Y-71907200D02*
X149500000Y-71954819D01*
X149500000Y-71954819D02*
X149261905Y-71954819D01*
X150785714Y-71954819D02*
X150214286Y-71954819D01*
X150500000Y-71954819D02*
X150500000Y-70954819D01*
X150500000Y-70954819D02*
X150404762Y-71097676D01*
X150404762Y-71097676D02*
X150309524Y-71192914D01*
X150309524Y-71192914D02*
X150214286Y-71240533D01*
X146228571Y-73762295D02*
X145771428Y-73762295D01*
X146000000Y-73762295D02*
X146000000Y-72962295D01*
X146000000Y-72962295D02*
X145923809Y-73076580D01*
X145923809Y-73076580D02*
X145847619Y-73152771D01*
X145847619Y-73152771D02*
X145771428Y-73190866D01*
D11*
%TO.C,D6*%
X133111731Y-128870577D02*
X132211731Y-130429423D01*
X133118911Y-127258142D02*
X130593911Y-131631570D01*
X133733623Y-127093430D02*
X133118911Y-127258142D01*
X136656089Y-135131570D02*
X130593911Y-131631570D01*
X136656089Y-135131570D02*
X139406089Y-130368430D01*
X137788269Y-131570577D02*
X136888269Y-133129423D01*
X139406089Y-130368430D02*
X133733623Y-127093430D01*
%TO.C,C14*%
X152261252Y-97265000D02*
X151738748Y-97265000D01*
X152261252Y-98735000D02*
X151738748Y-98735000D01*
%TO.C,U1*%
X149940000Y-99535000D02*
X154060000Y-99535000D01*
X149940000Y-99630000D02*
X149940000Y-99535000D01*
X149940000Y-104655000D02*
X149940000Y-104560000D01*
X154060000Y-99535000D02*
X154060000Y-99630000D01*
X154060000Y-104560000D02*
X154060000Y-104655000D01*
X154060000Y-104655000D02*
X149940000Y-104655000D01*
X149400000Y-99625000D02*
X149160000Y-99295000D01*
X149640000Y-99295000D01*
X149400000Y-99625000D01*
G36*
X149400000Y-99625000D02*
G01*
X149160000Y-99295000D01*
X149640000Y-99295000D01*
X149400000Y-99625000D01*
G37*
%TO.C,D5*%
X123368430Y-124406089D02*
X119868430Y-118343911D01*
X123368430Y-124406089D02*
X128131570Y-121656089D01*
X123429423Y-117211731D02*
X121870577Y-118111731D01*
X124241858Y-115818911D02*
X119868430Y-118343911D01*
X124856570Y-115983623D02*
X124241858Y-115818911D01*
X126129423Y-121888269D02*
X124570577Y-122788269D01*
X128131570Y-121656089D02*
X124856570Y-115983623D01*
%TO.C,C12*%
X173158751Y-85032845D02*
X172706249Y-85294097D01*
X173893751Y-86305903D02*
X173441249Y-86567155D01*
%TO.C,C6*%
X126107748Y-123612847D02*
X126560250Y-123351595D01*
X126842748Y-124885905D02*
X127295250Y-124624653D01*
%TO.C,C9*%
X168494097Y-128793751D02*
X168232845Y-128341249D01*
X169767155Y-128058751D02*
X169505903Y-127606249D01*
%TO.C,R1*%
X148772936Y-83265000D02*
X149227064Y-83265000D01*
X148772936Y-84735000D02*
X149227064Y-84735000D01*
%TO.C,R3*%
X156227064Y-107265000D02*
X155772936Y-107265000D01*
X156227064Y-108735000D02*
X155772936Y-108735000D01*
%TO.C,D10*%
X177250000Y-101500000D02*
X177250000Y-108050000D01*
X177250000Y-108050000D02*
X177700000Y-108500000D01*
X177700000Y-108500000D02*
X182750000Y-108500000D01*
X179100000Y-102300000D02*
X180900000Y-102300000D01*
X179100000Y-107700000D02*
X180900000Y-107700000D01*
X182750000Y-101500000D02*
X177250000Y-101500000D01*
X182750000Y-101500000D02*
X182750000Y-108500000D01*
%TO.C,C2*%
X144265000Y-74738748D02*
X144265000Y-75261252D01*
X145735000Y-74738748D02*
X145735000Y-75261252D01*
%TO.C,D12*%
X160593911Y-79631570D02*
X166266377Y-82906570D01*
X162211731Y-78429423D02*
X163111731Y-76870577D01*
X163343911Y-74868430D02*
X160593911Y-79631570D01*
X163343911Y-74868430D02*
X169406089Y-78368430D01*
X166266377Y-82906570D02*
X166881089Y-82741858D01*
X166881089Y-82741858D02*
X169406089Y-78368430D01*
X166888269Y-81129423D02*
X167788269Y-79570577D01*
%TO.C,F1*%
X155710000Y-84738748D02*
X155710000Y-85261252D01*
X154290000Y-84738748D02*
X154290000Y-85261252D01*
%TO.C,C4*%
X121206249Y-94905903D02*
X121658751Y-95167155D01*
X121941249Y-93632845D02*
X122393751Y-93894097D01*
%TO.C,D7*%
X146500000Y-132700000D02*
X146500000Y-137750000D01*
X146950000Y-132250000D02*
X146500000Y-132700000D01*
X147300000Y-134100000D02*
X147300000Y-135900000D01*
X152700000Y-134100000D02*
X152700000Y-135900000D01*
X153500000Y-132250000D02*
X146950000Y-132250000D01*
X153500000Y-137750000D02*
X146500000Y-137750000D01*
X153500000Y-137750000D02*
X153500000Y-132250000D01*
%TO.C,C3*%
X130032845Y-81941249D02*
X130294097Y-82393751D01*
X131305903Y-81206249D02*
X131567155Y-81658751D01*
%TO.C,D4*%
X117250000Y-108500000D02*
X117250000Y-101500000D01*
X117250000Y-108500000D02*
X122750000Y-108500000D01*
X120900000Y-102300000D02*
X119100000Y-102300000D01*
X120900000Y-107700000D02*
X119100000Y-107700000D01*
X122300000Y-101500000D02*
X117250000Y-101500000D01*
X122750000Y-101950000D02*
X122300000Y-101500000D01*
X122750000Y-108500000D02*
X122750000Y-101950000D01*
%TO.C,D11*%
X171868430Y-88343911D02*
X175143430Y-94016377D01*
X173870577Y-88111731D02*
X175429423Y-87211731D01*
X175143430Y-94016377D02*
X175758142Y-94181089D01*
X175758142Y-94181089D02*
X180131570Y-91656089D01*
X176570577Y-92788269D02*
X178129423Y-91888269D01*
X176631570Y-85593911D02*
X171868430Y-88343911D01*
X176631570Y-85593911D02*
X180131570Y-91656089D01*
%TO.C,D9*%
X172093430Y-121266377D02*
X172258142Y-121881089D01*
X172258142Y-121881089D02*
X176631570Y-124406089D01*
X173870577Y-121888269D02*
X175429423Y-122788269D01*
X175368430Y-115593911D02*
X172093430Y-121266377D01*
X176570577Y-117211731D02*
X178129423Y-118111731D01*
X180131570Y-118343911D02*
X175368430Y-115593911D01*
X180131570Y-118343911D02*
X176631570Y-124406089D01*
%TO.C,D3*%
X119868430Y-91656089D02*
X123368430Y-85593911D01*
X119868430Y-91656089D02*
X124631570Y-94406089D01*
X123429423Y-92788269D02*
X121870577Y-91888269D01*
X124631570Y-94406089D02*
X127906570Y-88733623D01*
X126129423Y-88111731D02*
X124570577Y-87211731D01*
X127741858Y-88118911D02*
X123368430Y-85593911D01*
X127906570Y-88733623D02*
X127741858Y-88118911D01*
%TO.C,D8*%
X160818911Y-130758142D02*
X163343911Y-135131570D01*
X160983623Y-130143430D02*
X160818911Y-130758142D01*
X162211731Y-131570577D02*
X163111731Y-133129423D01*
X166656089Y-126868430D02*
X160983623Y-130143430D01*
X166888269Y-128870577D02*
X167788269Y-130429423D01*
X169406089Y-131631570D02*
X163343911Y-135131570D01*
X169406089Y-131631570D02*
X166656089Y-126868430D01*
%TO.C,C5*%
X119738748Y-109265000D02*
X120261252Y-109265000D01*
X119738748Y-110735000D02*
X120261252Y-110735000D01*
%TO.C,D2*%
X130593911Y-78368430D02*
X133343911Y-83131570D01*
X130593911Y-78368430D02*
X136656089Y-74868430D01*
X133111731Y-81129423D02*
X132211731Y-79570577D01*
X133343911Y-83131570D02*
X139016377Y-79856570D01*
X137788269Y-78429423D02*
X136888269Y-76870577D01*
X139016377Y-79856570D02*
X139181089Y-79241858D01*
X139181089Y-79241858D02*
X136656089Y-74868430D01*
%TO.C,C13*%
X160194097Y-76206249D02*
X159932845Y-76658751D01*
X161467155Y-76941249D02*
X161205903Y-77393751D01*
%TO.C,C1*%
X178858751Y-116767155D02*
X178406249Y-116505903D01*
X179593751Y-115494097D02*
X179141249Y-115232845D01*
%TO.C,C8*%
X154265000Y-135261252D02*
X154265000Y-134738748D01*
X155735000Y-135261252D02*
X155735000Y-134738748D01*
%TO.C,C11*%
X180061252Y-99465000D02*
X179538748Y-99465000D01*
X180061252Y-100935000D02*
X179538748Y-100935000D01*
%TO.C,J1*%
X164380000Y-108000000D02*
X163000000Y-108000000D01*
X164380000Y-106620000D02*
X164380000Y-108000000D01*
X164380000Y-105350000D02*
X164380000Y-97620000D01*
X164380000Y-105350000D02*
X161620000Y-105350000D01*
X164380000Y-97620000D02*
X161620000Y-97620000D01*
X161620000Y-105350000D02*
X161620000Y-97620000D01*
%TO.C,C10*%
X160381232Y-84233262D02*
X160774982Y-84915257D01*
X160919104Y-84377385D02*
X160237109Y-84771135D01*
X161326317Y-84874072D02*
X160212987Y-85516853D01*
X161326317Y-84874072D02*
X162780365Y-85263683D01*
X157263683Y-87219635D02*
X158377013Y-86576853D01*
X157263683Y-87219635D02*
X156874072Y-88673683D01*
X162780365Y-85263683D02*
X165658147Y-90248146D01*
X156874072Y-88673683D02*
X159751854Y-93658147D01*
X165658147Y-90248146D02*
X163622987Y-91423147D01*
X159751854Y-93658147D02*
X161787013Y-92483147D01*
%TO.C,R2*%
X147772936Y-107265000D02*
X148227064Y-107265000D01*
X147772936Y-108735000D02*
X148227064Y-108735000D01*
%TO.C,C7*%
X138632845Y-132858751D02*
X138894097Y-132406249D01*
X139905903Y-133593751D02*
X140167155Y-133141249D01*
%TO.C,D1*%
X146500000Y-72250000D02*
X146500000Y-77750000D01*
X146500000Y-72250000D02*
X153500000Y-72250000D01*
X146500000Y-77750000D02*
X153050000Y-77750000D01*
X147300000Y-75900000D02*
X147300000Y-74100000D01*
X152700000Y-75900000D02*
X152700000Y-74100000D01*
X153050000Y-77750000D02*
X153500000Y-77300000D01*
X153500000Y-77300000D02*
X153500000Y-72250000D01*
%TD*%
M02*
