%TF.GenerationSoftware,KiCad,Pcbnew,9.0.7*%
%TF.CreationDate,2026-03-19T10:05:22+01:00*%
%TF.ProjectId,MPC-Status,4d50432d-5374-4617-9475-732e6b696361,rev?*%
%TF.SameCoordinates,Original*%
%TF.FileFunction,Copper,L2,Inr*%
%TF.FilePolarity,Positive*%
%FSLAX46Y46*%
G04 Gerber Fmt 4.6, Leading zero omitted, Abs format (unit mm)*
G04 Created by KiCad (PCBNEW 9.0.7) date 2026-03-19 10:05:22*
%MOMM*%
%LPD*%
G01*
G04 APERTURE LIST*
G04 Aperture macros list*
%AMRoundRect*
0 Rectangle with rounded corners*
0 $1 Rounding radius*
0 $2 $3 $4 $5 $6 $7 $8 $9 X,Y pos of 4 corners*
0 Add a 4 corners polygon primitive as box body*
4,1,4,$2,$3,$4,$5,$6,$7,$8,$9,$2,$3,0*
0 Add four circle primitives for the rounded corners*
1,1,$1+$1,$2,$3*
1,1,$1+$1,$4,$5*
1,1,$1+$1,$6,$7*
1,1,$1+$1,$8,$9*
0 Add four rect primitives between the rounded corners*
20,1,$1+$1,$2,$3,$4,$5,0*
20,1,$1+$1,$4,$5,$6,$7,0*
20,1,$1+$1,$6,$7,$8,$9,0*
20,1,$1+$1,$8,$9,$2,$3,0*%
G04 Aperture macros list end*
%TA.AperFunction,ComponentPad*%
%ADD10R,1.700000X1.700000*%
%TD*%
%TA.AperFunction,ComponentPad*%
%ADD11C,1.700000*%
%TD*%
%TA.AperFunction,ComponentPad*%
%ADD12C,5.600000*%
%TD*%
%TA.AperFunction,ComponentPad*%
%ADD13RoundRect,0.250000X-0.600000X-0.725000X0.600000X-0.725000X0.600000X0.725000X-0.600000X0.725000X0*%
%TD*%
%TA.AperFunction,ComponentPad*%
%ADD14O,1.700000X1.950000*%
%TD*%
%TA.AperFunction,ViaPad*%
%ADD15C,0.700000*%
%TD*%
%TA.AperFunction,ViaPad*%
%ADD16C,0.800000*%
%TD*%
G04 APERTURE END LIST*
D10*
%TO.N,GND*%
%TO.C,J3*%
X160600000Y-107940000D03*
D11*
%TO.N,Reset*%
X160600000Y-105400000D03*
%TD*%
D12*
%TO.N,GND*%
%TO.C,H3*%
X170000000Y-105000000D03*
%TD*%
D10*
%TO.N,GND*%
%TO.C,J1*%
X167210000Y-97000000D03*
D11*
%TO.N,unconnected-(J1-Pin_2-Pad2)*%
X164670000Y-97000000D03*
%TO.N,Programmierpin*%
X162130000Y-97000000D03*
%TO.N,+5V*%
X159590000Y-97000000D03*
%TD*%
D12*
%TO.N,GND*%
%TO.C,H1*%
X150000000Y-125000000D03*
%TD*%
%TO.N,GND*%
%TO.C,H2*%
X130000000Y-105000000D03*
%TD*%
D13*
%TO.N,GND*%
%TO.C,J2*%
X148500000Y-115000000D03*
D14*
%TO.N,I2C_SDA*%
X151000000Y-115000000D03*
%TO.N,I2C_SCL*%
X153500000Y-115000000D03*
%TO.N,+5V*%
X156000000Y-115000000D03*
%TD*%
D15*
%TO.N,GND*%
X130000000Y-84000000D03*
X133000000Y-126000000D03*
X160000000Y-130000000D03*
X125000000Y-114000000D03*
X124000000Y-101000000D03*
X140000000Y-79000000D03*
X143000000Y-76800000D03*
X158000000Y-77000000D03*
X142000000Y-132000000D03*
X156800000Y-133000000D03*
X167000000Y-84000000D03*
X154000000Y-78000000D03*
X171000000Y-85000000D03*
X129000000Y-88000000D03*
D16*
X164000000Y-94000000D03*
D15*
X122000000Y-97000000D03*
X154000000Y-96000000D03*
X129400000Y-124600000D03*
X178000000Y-113200000D03*
X170000000Y-125400000D03*
X178000000Y-98000000D03*
X175000000Y-96000000D03*
X177000000Y-110000000D03*
X171000000Y-122000000D03*
X146000000Y-131000000D03*
D16*
X165000000Y-92000000D03*
D15*
X122000000Y-112000000D03*
%TO.N,+5V*%
X150000000Y-96000000D03*
D16*
X155000000Y-88000000D03*
X153000000Y-86000000D03*
D15*
%TO.N,+5VD*%
X162000000Y-74000000D03*
X176000000Y-84000000D03*
X119000000Y-92000000D03*
D16*
X156000000Y-75000000D03*
D15*
X145000000Y-72000000D03*
D16*
X158000000Y-73000000D03*
D15*
X137000000Y-136000000D03*
X123000000Y-125000000D03*
X117000000Y-109000000D03*
D16*
X157000000Y-74000000D03*
D15*
X129000000Y-79000000D03*
X154000000Y-138000000D03*
X170000000Y-132000000D03*
X183400000Y-101000000D03*
X181000000Y-118000000D03*
%TD*%
%TA.AperFunction,Conductor*%
%TO.N,GND*%
G36*
X150571396Y-70205224D02*
G01*
X151705528Y-70242352D01*
X151709523Y-70242548D01*
X152841843Y-70316764D01*
X152845881Y-70317095D01*
X153975167Y-70428320D01*
X153979099Y-70428773D01*
X155104146Y-70576888D01*
X155108113Y-70577476D01*
X156227738Y-70762327D01*
X156231680Y-70763045D01*
X157344615Y-70984421D01*
X157348490Y-70985258D01*
X158287811Y-71204276D01*
X158453607Y-71242935D01*
X158457543Y-71243921D01*
X158935911Y-71372099D01*
X159553617Y-71537612D01*
X159557443Y-71538705D01*
X160643383Y-71868122D01*
X160647166Y-71869337D01*
X161721683Y-72234087D01*
X161725492Y-72235450D01*
X162787461Y-72635147D01*
X162791230Y-72636636D01*
X163839591Y-73070880D01*
X163843279Y-73072479D01*
X164876858Y-73540789D01*
X164880526Y-73542524D01*
X165898211Y-74044390D01*
X165901820Y-74046244D01*
X166902554Y-74581147D01*
X166906051Y-74583090D01*
X167888778Y-75150468D01*
X167892230Y-75152538D01*
X168771759Y-75699464D01*
X168855826Y-75751740D01*
X168859228Y-75753933D01*
X169802716Y-76384351D01*
X169806052Y-76386660D01*
X170728387Y-77047597D01*
X170731646Y-77050014D01*
X171631866Y-77740777D01*
X171635045Y-77743300D01*
X172512200Y-78463162D01*
X172515257Y-78465755D01*
X173008868Y-78898641D01*
X173368399Y-79213941D01*
X173371405Y-79216666D01*
X174199573Y-79992330D01*
X174202489Y-79995152D01*
X175004847Y-80797510D01*
X175007669Y-80800426D01*
X175783333Y-81628594D01*
X175786058Y-81631600D01*
X176534228Y-82484724D01*
X176536853Y-82487818D01*
X177256699Y-83364954D01*
X177259222Y-83368133D01*
X177949985Y-84268353D01*
X177952402Y-84271612D01*
X178613339Y-85193947D01*
X178615648Y-85197283D01*
X179246060Y-86140762D01*
X179248259Y-86144173D01*
X179847453Y-87107755D01*
X179849539Y-87111235D01*
X180416895Y-88093924D01*
X180418866Y-88097471D01*
X180953755Y-89098179D01*
X180955609Y-89101788D01*
X181457475Y-90119473D01*
X181459210Y-90123141D01*
X181927512Y-91156703D01*
X181929126Y-91160426D01*
X182363361Y-92208764D01*
X182364852Y-92212538D01*
X182764549Y-93274507D01*
X182765916Y-93278327D01*
X183130645Y-94352783D01*
X183131887Y-94356647D01*
X183461281Y-95442511D01*
X183462395Y-95446413D01*
X183756078Y-96542456D01*
X183757064Y-96546392D01*
X184014731Y-97651464D01*
X184015587Y-97655430D01*
X184236949Y-98768294D01*
X184237676Y-98772286D01*
X184422519Y-99891863D01*
X184423114Y-99895877D01*
X184571220Y-101020851D01*
X184571684Y-101024882D01*
X184682903Y-102154115D01*
X184683235Y-102158159D01*
X184757449Y-103290447D01*
X184757648Y-103294500D01*
X184794776Y-104428603D01*
X184794842Y-104432660D01*
X184794842Y-105567339D01*
X184794776Y-105571396D01*
X184757648Y-106705499D01*
X184757449Y-106709552D01*
X184683235Y-107841840D01*
X184682903Y-107845884D01*
X184571684Y-108975117D01*
X184571220Y-108979148D01*
X184423114Y-110104122D01*
X184422519Y-110108136D01*
X184237676Y-111227713D01*
X184236949Y-111231705D01*
X184015587Y-112344569D01*
X184014731Y-112348535D01*
X183757064Y-113453607D01*
X183756078Y-113457543D01*
X183462395Y-114553586D01*
X183461281Y-114557488D01*
X183131887Y-115643352D01*
X183130645Y-115647216D01*
X182765916Y-116721672D01*
X182764549Y-116725492D01*
X182364852Y-117787461D01*
X182363361Y-117791235D01*
X181929126Y-118839573D01*
X181927512Y-118843296D01*
X181459210Y-119876858D01*
X181457475Y-119880526D01*
X180955609Y-120898211D01*
X180953755Y-120901820D01*
X180418866Y-121902528D01*
X180416895Y-121906075D01*
X179849539Y-122888764D01*
X179847453Y-122892244D01*
X179248259Y-123855826D01*
X179246060Y-123859237D01*
X178615648Y-124802716D01*
X178613339Y-124806052D01*
X177952402Y-125728387D01*
X177949985Y-125731646D01*
X177259222Y-126631866D01*
X177256699Y-126635045D01*
X176536853Y-127512181D01*
X176534228Y-127515275D01*
X175786058Y-128368399D01*
X175783333Y-128371405D01*
X175007669Y-129199573D01*
X175004847Y-129202489D01*
X174202489Y-130004847D01*
X174199573Y-130007669D01*
X173371405Y-130783333D01*
X173368399Y-130786058D01*
X172515275Y-131534228D01*
X172512181Y-131536853D01*
X171635045Y-132256699D01*
X171631866Y-132259222D01*
X170731646Y-132949985D01*
X170728387Y-132952402D01*
X169806052Y-133613339D01*
X169802716Y-133615648D01*
X168859237Y-134246060D01*
X168855826Y-134248259D01*
X167892244Y-134847453D01*
X167888764Y-134849539D01*
X166906075Y-135416895D01*
X166902528Y-135418866D01*
X165901820Y-135953755D01*
X165898211Y-135955609D01*
X164880526Y-136457475D01*
X164876858Y-136459210D01*
X163843296Y-136927512D01*
X163839573Y-136929126D01*
X162791235Y-137363361D01*
X162787461Y-137364852D01*
X161725492Y-137764549D01*
X161721672Y-137765916D01*
X160647216Y-138130645D01*
X160643352Y-138131887D01*
X159557488Y-138461281D01*
X159553586Y-138462395D01*
X158457543Y-138756078D01*
X158453607Y-138757064D01*
X157348535Y-139014731D01*
X157344569Y-139015587D01*
X156231705Y-139236949D01*
X156227713Y-139237676D01*
X155108136Y-139422519D01*
X155104122Y-139423114D01*
X153979148Y-139571220D01*
X153975117Y-139571684D01*
X152845884Y-139682903D01*
X152841840Y-139683235D01*
X151709552Y-139757449D01*
X151705499Y-139757648D01*
X150571396Y-139794776D01*
X150567339Y-139794842D01*
X149432661Y-139794842D01*
X149428604Y-139794776D01*
X148294500Y-139757648D01*
X148290447Y-139757449D01*
X147158159Y-139683235D01*
X147154115Y-139682903D01*
X146024882Y-139571684D01*
X146020851Y-139571220D01*
X144895877Y-139423114D01*
X144891863Y-139422519D01*
X143772286Y-139237676D01*
X143768294Y-139236949D01*
X142655430Y-139015587D01*
X142651464Y-139014731D01*
X141546392Y-138757064D01*
X141542456Y-138756078D01*
X140446413Y-138462395D01*
X140442511Y-138461281D01*
X139356647Y-138131887D01*
X139352796Y-138130649D01*
X138721143Y-137916232D01*
X138721131Y-137916228D01*
X153149500Y-137916228D01*
X153149500Y-138083771D01*
X153182182Y-138248074D01*
X153182184Y-138248082D01*
X153246295Y-138402860D01*
X153339373Y-138542162D01*
X153457837Y-138660626D01*
X153550494Y-138722537D01*
X153597137Y-138753703D01*
X153597138Y-138753703D01*
X153597139Y-138753704D01*
X153604138Y-138756603D01*
X153751918Y-138817816D01*
X153916228Y-138850499D01*
X153916232Y-138850500D01*
X153916233Y-138850500D01*
X154083768Y-138850500D01*
X154083769Y-138850499D01*
X154248082Y-138817816D01*
X154402863Y-138753703D01*
X154542162Y-138660626D01*
X154660626Y-138542162D01*
X154753703Y-138402863D01*
X154817816Y-138248082D01*
X154850500Y-138083767D01*
X154850500Y-137916233D01*
X154817816Y-137751918D01*
X154753703Y-137597137D01*
X154722537Y-137550494D01*
X154660626Y-137457837D01*
X154542162Y-137339373D01*
X154402860Y-137246295D01*
X154248082Y-137182184D01*
X154248074Y-137182182D01*
X154083771Y-137149500D01*
X154083767Y-137149500D01*
X153916233Y-137149500D01*
X153916228Y-137149500D01*
X153751925Y-137182182D01*
X153751917Y-137182184D01*
X153597139Y-137246295D01*
X153457837Y-137339373D01*
X153339373Y-137457837D01*
X153246295Y-137597139D01*
X153182184Y-137751917D01*
X153182182Y-137751925D01*
X153149500Y-137916228D01*
X138721131Y-137916228D01*
X138278327Y-137765916D01*
X138274507Y-137764549D01*
X137212538Y-137364852D01*
X137208764Y-137363361D01*
X136160426Y-136929126D01*
X136156703Y-136927512D01*
X135123141Y-136459210D01*
X135119473Y-136457475D01*
X134235104Y-136021353D01*
X134101788Y-135955609D01*
X134098179Y-135953755D01*
X134027971Y-135916228D01*
X136149500Y-135916228D01*
X136149500Y-136083771D01*
X136182182Y-136248074D01*
X136182184Y-136248082D01*
X136246295Y-136402860D01*
X136339373Y-136542162D01*
X136457837Y-136660626D01*
X136550494Y-136722537D01*
X136597137Y-136753703D01*
X136751918Y-136817816D01*
X136916228Y-136850499D01*
X136916232Y-136850500D01*
X136916233Y-136850500D01*
X137083768Y-136850500D01*
X137083769Y-136850499D01*
X137248082Y-136817816D01*
X137402863Y-136753703D01*
X137542162Y-136660626D01*
X137660626Y-136542162D01*
X137753703Y-136402863D01*
X137817816Y-136248082D01*
X137850500Y-136083767D01*
X137850500Y-135916233D01*
X137817816Y-135751918D01*
X137753703Y-135597137D01*
X137722537Y-135550494D01*
X137660626Y-135457837D01*
X137542162Y-135339373D01*
X137402860Y-135246295D01*
X137248082Y-135182184D01*
X137248074Y-135182182D01*
X137083771Y-135149500D01*
X137083767Y-135149500D01*
X136916233Y-135149500D01*
X136916228Y-135149500D01*
X136751925Y-135182182D01*
X136751917Y-135182184D01*
X136597139Y-135246295D01*
X136457837Y-135339373D01*
X136339373Y-135457837D01*
X136246295Y-135597139D01*
X136182184Y-135751917D01*
X136182182Y-135751925D01*
X136149500Y-135916228D01*
X134027971Y-135916228D01*
X133097471Y-135418866D01*
X133093924Y-135416895D01*
X132111235Y-134849539D01*
X132107755Y-134847453D01*
X131144173Y-134248259D01*
X131140762Y-134246060D01*
X130197283Y-133615648D01*
X130193947Y-133613339D01*
X129271612Y-132952402D01*
X129268353Y-132949985D01*
X128368133Y-132259222D01*
X128364954Y-132256699D01*
X128059469Y-132005994D01*
X127950089Y-131916228D01*
X169149500Y-131916228D01*
X169149500Y-132083771D01*
X169182182Y-132248074D01*
X169182184Y-132248082D01*
X169246295Y-132402860D01*
X169339373Y-132542162D01*
X169457837Y-132660626D01*
X169550494Y-132722537D01*
X169597137Y-132753703D01*
X169751918Y-132817816D01*
X169916228Y-132850499D01*
X169916232Y-132850500D01*
X169916233Y-132850500D01*
X170083768Y-132850500D01*
X170083769Y-132850499D01*
X170248082Y-132817816D01*
X170402863Y-132753703D01*
X170542162Y-132660626D01*
X170660626Y-132542162D01*
X170753703Y-132402863D01*
X170817816Y-132248082D01*
X170850500Y-132083767D01*
X170850500Y-131916233D01*
X170817816Y-131751918D01*
X170753703Y-131597137D01*
X170711668Y-131534228D01*
X170660626Y-131457837D01*
X170542162Y-131339373D01*
X170402860Y-131246295D01*
X170248082Y-131182184D01*
X170248074Y-131182182D01*
X170083771Y-131149500D01*
X170083767Y-131149500D01*
X169916233Y-131149500D01*
X169916228Y-131149500D01*
X169751925Y-131182182D01*
X169751917Y-131182184D01*
X169597139Y-131246295D01*
X169457837Y-131339373D01*
X169339373Y-131457837D01*
X169246295Y-131597139D01*
X169182184Y-131751917D01*
X169182182Y-131751925D01*
X169149500Y-131916228D01*
X127950089Y-131916228D01*
X127561277Y-131597139D01*
X127487805Y-131536842D01*
X127484724Y-131534228D01*
X127156399Y-131246295D01*
X126972868Y-131085342D01*
X126631600Y-130786058D01*
X126628594Y-130783333D01*
X125800426Y-130007669D01*
X125797510Y-130004847D01*
X124995152Y-129202489D01*
X124992330Y-129199573D01*
X124216666Y-128371405D01*
X124213941Y-128368399D01*
X123694622Y-127776229D01*
X123465755Y-127515257D01*
X123463162Y-127512200D01*
X122743300Y-126635045D01*
X122740777Y-126631866D01*
X122050014Y-125731646D01*
X122047597Y-125728387D01*
X121814327Y-125402860D01*
X121465611Y-124916228D01*
X122149500Y-124916228D01*
X122149500Y-125083771D01*
X122182182Y-125248074D01*
X122182184Y-125248082D01*
X122246295Y-125402860D01*
X122339373Y-125542162D01*
X122457837Y-125660626D01*
X122550494Y-125722537D01*
X122597137Y-125753703D01*
X122751918Y-125817816D01*
X122916228Y-125850499D01*
X122916232Y-125850500D01*
X122916233Y-125850500D01*
X123083768Y-125850500D01*
X123083769Y-125850499D01*
X123248082Y-125817816D01*
X123402863Y-125753703D01*
X123542162Y-125660626D01*
X123660626Y-125542162D01*
X123753703Y-125402863D01*
X123817816Y-125248082D01*
X123850500Y-125083767D01*
X123850500Y-124916233D01*
X123817816Y-124751918D01*
X123753703Y-124597137D01*
X123722537Y-124550494D01*
X123660626Y-124457837D01*
X123542162Y-124339373D01*
X123402860Y-124246295D01*
X123248082Y-124182184D01*
X123248074Y-124182182D01*
X123083771Y-124149500D01*
X123083767Y-124149500D01*
X122916233Y-124149500D01*
X122916228Y-124149500D01*
X122751925Y-124182182D01*
X122751917Y-124182184D01*
X122597139Y-124246295D01*
X122457837Y-124339373D01*
X122339373Y-124457837D01*
X122246295Y-124597139D01*
X122182184Y-124751917D01*
X122182182Y-124751925D01*
X122149500Y-124916228D01*
X121465611Y-124916228D01*
X121386657Y-124806048D01*
X121384351Y-124802716D01*
X121153911Y-124457838D01*
X120753933Y-123859228D01*
X120751740Y-123855826D01*
X120152546Y-122892244D01*
X120150460Y-122888764D01*
X119583090Y-121906051D01*
X119581147Y-121902554D01*
X119046244Y-120901820D01*
X119044390Y-120898211D01*
X118542524Y-119880526D01*
X118540789Y-119876858D01*
X118072487Y-118843296D01*
X118070873Y-118839573D01*
X118061861Y-118817817D01*
X117688412Y-117916228D01*
X180149500Y-117916228D01*
X180149500Y-118083771D01*
X180182182Y-118248074D01*
X180182184Y-118248082D01*
X180246295Y-118402860D01*
X180339373Y-118542162D01*
X180457837Y-118660626D01*
X180550494Y-118722537D01*
X180597137Y-118753703D01*
X180751918Y-118817816D01*
X180880016Y-118843296D01*
X180916228Y-118850499D01*
X180916232Y-118850500D01*
X180916233Y-118850500D01*
X181083768Y-118850500D01*
X181083769Y-118850499D01*
X181248082Y-118817816D01*
X181402863Y-118753703D01*
X181542162Y-118660626D01*
X181660626Y-118542162D01*
X181753703Y-118402863D01*
X181817816Y-118248082D01*
X181850500Y-118083767D01*
X181850500Y-117916233D01*
X181817816Y-117751918D01*
X181753703Y-117597137D01*
X181722537Y-117550494D01*
X181660626Y-117457837D01*
X181542162Y-117339373D01*
X181402860Y-117246295D01*
X181248082Y-117182184D01*
X181248074Y-117182182D01*
X181083771Y-117149500D01*
X181083767Y-117149500D01*
X180916233Y-117149500D01*
X180916228Y-117149500D01*
X180751925Y-117182182D01*
X180751917Y-117182184D01*
X180597139Y-117246295D01*
X180457837Y-117339373D01*
X180339373Y-117457837D01*
X180246295Y-117597139D01*
X180182184Y-117751917D01*
X180182182Y-117751925D01*
X180149500Y-117916228D01*
X117688412Y-117916228D01*
X117636636Y-117791230D01*
X117635147Y-117787461D01*
X117235450Y-116725492D01*
X117234083Y-116721672D01*
X117150349Y-116474999D01*
X116869337Y-115647166D01*
X116868122Y-115643383D01*
X116538705Y-114557443D01*
X116537612Y-114553617D01*
X116449563Y-114225013D01*
X147150000Y-114225013D01*
X147150000Y-114750000D01*
X148095854Y-114750000D01*
X148057370Y-114816657D01*
X148025000Y-114937465D01*
X148025000Y-115062535D01*
X148057370Y-115183343D01*
X148095854Y-115250000D01*
X147150001Y-115250000D01*
X147150001Y-115774986D01*
X147160494Y-115877697D01*
X147215641Y-116044119D01*
X147215643Y-116044124D01*
X147307684Y-116193345D01*
X147431654Y-116317315D01*
X147580875Y-116409356D01*
X147580880Y-116409358D01*
X147747302Y-116464505D01*
X147747309Y-116464506D01*
X147850019Y-116474999D01*
X148249999Y-116474999D01*
X148250000Y-116474998D01*
X148250000Y-115404145D01*
X148316657Y-115442630D01*
X148437465Y-115475000D01*
X148562535Y-115475000D01*
X148683343Y-115442630D01*
X148750000Y-115404145D01*
X148750000Y-116474999D01*
X149149972Y-116474999D01*
X149149986Y-116474998D01*
X149252697Y-116464505D01*
X149419119Y-116409358D01*
X149419124Y-116409356D01*
X149568345Y-116317315D01*
X149692317Y-116193343D01*
X149787815Y-116038516D01*
X149839763Y-115991791D01*
X149908725Y-115980568D01*
X149972808Y-116008412D01*
X149981035Y-116015931D01*
X150120213Y-116155109D01*
X150292179Y-116280048D01*
X150292181Y-116280049D01*
X150292184Y-116280051D01*
X150481588Y-116376557D01*
X150683757Y-116442246D01*
X150893713Y-116475500D01*
X150893714Y-116475500D01*
X151106286Y-116475500D01*
X151106287Y-116475500D01*
X151316243Y-116442246D01*
X151518412Y-116376557D01*
X151707816Y-116280051D01*
X151729789Y-116264086D01*
X151879786Y-116155109D01*
X151879788Y-116155106D01*
X151879792Y-116155104D01*
X152030104Y-116004792D01*
X152149683Y-115840204D01*
X152205011Y-115797540D01*
X152274624Y-115791561D01*
X152336420Y-115824166D01*
X152350313Y-115840199D01*
X152377557Y-115877697D01*
X152469896Y-116004792D01*
X152620213Y-116155109D01*
X152792179Y-116280048D01*
X152792181Y-116280049D01*
X152792184Y-116280051D01*
X152981588Y-116376557D01*
X153183757Y-116442246D01*
X153393713Y-116475500D01*
X153393714Y-116475500D01*
X153606286Y-116475500D01*
X153606287Y-116475500D01*
X153816243Y-116442246D01*
X154018412Y-116376557D01*
X154207816Y-116280051D01*
X154229789Y-116264086D01*
X154379786Y-116155109D01*
X154379788Y-116155106D01*
X154379792Y-116155104D01*
X154530104Y-116004792D01*
X154649683Y-115840204D01*
X154705011Y-115797540D01*
X154774624Y-115791561D01*
X154836420Y-115824166D01*
X154850313Y-115840199D01*
X154877557Y-115877697D01*
X154969896Y-116004792D01*
X155120213Y-116155109D01*
X155292179Y-116280048D01*
X155292181Y-116280049D01*
X155292184Y-116280051D01*
X155481588Y-116376557D01*
X155683757Y-116442246D01*
X155893713Y-116475500D01*
X155893714Y-116475500D01*
X156106286Y-116475500D01*
X156106287Y-116475500D01*
X156316243Y-116442246D01*
X156518412Y-116376557D01*
X156707816Y-116280051D01*
X156729789Y-116264086D01*
X156879786Y-116155109D01*
X156879788Y-116155106D01*
X156879792Y-116155104D01*
X157030104Y-116004792D01*
X157030106Y-116004788D01*
X157030109Y-116004786D01*
X157155048Y-115832820D01*
X157155047Y-115832820D01*
X157155051Y-115832816D01*
X157251557Y-115643412D01*
X157317246Y-115441243D01*
X157350500Y-115231287D01*
X157350500Y-114768713D01*
X157317246Y-114558757D01*
X157251557Y-114356588D01*
X157155051Y-114167184D01*
X157155049Y-114167181D01*
X157155048Y-114167179D01*
X157030109Y-113995213D01*
X156879786Y-113844890D01*
X156707820Y-113719951D01*
X156518414Y-113623444D01*
X156518413Y-113623443D01*
X156518412Y-113623443D01*
X156316243Y-113557754D01*
X156316241Y-113557753D01*
X156316240Y-113557753D01*
X156154957Y-113532208D01*
X156106287Y-113524500D01*
X155893713Y-113524500D01*
X155845042Y-113532208D01*
X155683760Y-113557753D01*
X155481585Y-113623444D01*
X155292179Y-113719951D01*
X155120213Y-113844890D01*
X154969894Y-113995209D01*
X154969890Y-113995214D01*
X154850318Y-114159793D01*
X154794989Y-114202459D01*
X154725375Y-114208438D01*
X154663580Y-114175833D01*
X154649682Y-114159793D01*
X154530109Y-113995214D01*
X154530105Y-113995209D01*
X154379786Y-113844890D01*
X154207820Y-113719951D01*
X154018414Y-113623444D01*
X154018413Y-113623443D01*
X154018412Y-113623443D01*
X153816243Y-113557754D01*
X153816241Y-113557753D01*
X153816240Y-113557753D01*
X153654957Y-113532208D01*
X153606287Y-113524500D01*
X153393713Y-113524500D01*
X153345042Y-113532208D01*
X153183760Y-113557753D01*
X152981585Y-113623444D01*
X152792179Y-113719951D01*
X152620213Y-113844890D01*
X152469894Y-113995209D01*
X152469890Y-113995214D01*
X152350318Y-114159793D01*
X152294989Y-114202459D01*
X152225375Y-114208438D01*
X152163580Y-114175833D01*
X152149682Y-114159793D01*
X152030109Y-113995214D01*
X152030105Y-113995209D01*
X151879786Y-113844890D01*
X151707820Y-113719951D01*
X151518414Y-113623444D01*
X151518413Y-113623443D01*
X151518412Y-113623443D01*
X151316243Y-113557754D01*
X151316241Y-113557753D01*
X151316240Y-113557753D01*
X151154957Y-113532208D01*
X151106287Y-113524500D01*
X150893713Y-113524500D01*
X150845042Y-113532208D01*
X150683760Y-113557753D01*
X150481585Y-113623444D01*
X150292179Y-113719951D01*
X150120215Y-113844889D01*
X149981035Y-113984069D01*
X149919712Y-114017553D01*
X149850020Y-114012569D01*
X149794087Y-113970697D01*
X149787815Y-113961484D01*
X149692315Y-113806654D01*
X149568345Y-113682684D01*
X149419124Y-113590643D01*
X149419119Y-113590641D01*
X149252697Y-113535494D01*
X149252690Y-113535493D01*
X149149986Y-113525000D01*
X148750000Y-113525000D01*
X148750000Y-114595854D01*
X148683343Y-114557370D01*
X148562535Y-114525000D01*
X148437465Y-114525000D01*
X148316657Y-114557370D01*
X148250000Y-114595854D01*
X148250000Y-113525000D01*
X147850028Y-113525000D01*
X147850012Y-113525001D01*
X147747302Y-113535494D01*
X147580880Y-113590641D01*
X147580875Y-113590643D01*
X147431654Y-113682684D01*
X147307684Y-113806654D01*
X147215643Y-113955875D01*
X147215641Y-113955880D01*
X147160494Y-114122302D01*
X147160493Y-114122309D01*
X147150000Y-114225013D01*
X116449563Y-114225013D01*
X116288374Y-113623444D01*
X116243921Y-113457543D01*
X116242935Y-113453607D01*
X116204276Y-113287811D01*
X115985258Y-112348490D01*
X115984421Y-112344615D01*
X115763045Y-111231680D01*
X115762323Y-111227713D01*
X115586980Y-110165678D01*
X115577476Y-110108113D01*
X115576885Y-110104122D01*
X115543495Y-109850499D01*
X115428773Y-108979099D01*
X115428320Y-108975160D01*
X115422516Y-108916228D01*
X116149500Y-108916228D01*
X116149500Y-109083771D01*
X116182182Y-109248074D01*
X116182184Y-109248082D01*
X116246295Y-109402860D01*
X116339373Y-109542162D01*
X116457837Y-109660626D01*
X116550494Y-109722537D01*
X116597137Y-109753703D01*
X116751918Y-109817816D01*
X116916228Y-109850499D01*
X116916232Y-109850500D01*
X116916233Y-109850500D01*
X117083768Y-109850500D01*
X117083769Y-109850499D01*
X117248082Y-109817816D01*
X117402863Y-109753703D01*
X117542162Y-109660626D01*
X117660626Y-109542162D01*
X117753703Y-109402863D01*
X117817816Y-109248082D01*
X117850500Y-109083767D01*
X117850500Y-108916233D01*
X117817816Y-108751918D01*
X117753703Y-108597137D01*
X117722537Y-108550494D01*
X117660626Y-108457837D01*
X117542162Y-108339373D01*
X117402860Y-108246295D01*
X117248082Y-108182184D01*
X117248074Y-108182182D01*
X117083771Y-108149500D01*
X117083767Y-108149500D01*
X116916233Y-108149500D01*
X116916228Y-108149500D01*
X116751925Y-108182182D01*
X116751917Y-108182184D01*
X116597139Y-108246295D01*
X116457837Y-108339373D01*
X116339373Y-108457837D01*
X116246295Y-108597139D01*
X116182184Y-108751917D01*
X116182182Y-108751925D01*
X116149500Y-108916228D01*
X115422516Y-108916228D01*
X115317095Y-107845881D01*
X115316764Y-107841840D01*
X115306812Y-107690000D01*
X115242548Y-106709523D01*
X115242351Y-106705499D01*
X115240585Y-106651557D01*
X115205224Y-105571396D01*
X115205158Y-105567339D01*
X115205158Y-105293713D01*
X159249500Y-105293713D01*
X159249500Y-105506286D01*
X159282753Y-105716239D01*
X159348444Y-105918414D01*
X159444951Y-106107820D01*
X159569890Y-106279786D01*
X159683818Y-106393714D01*
X159717303Y-106455037D01*
X159712319Y-106524729D01*
X159670447Y-106580662D01*
X159639471Y-106597577D01*
X159507912Y-106646646D01*
X159507906Y-106646649D01*
X159392812Y-106732809D01*
X159392809Y-106732812D01*
X159306649Y-106847906D01*
X159306645Y-106847913D01*
X159256403Y-106982620D01*
X159256401Y-106982627D01*
X159250000Y-107042155D01*
X159250000Y-107690000D01*
X160166988Y-107690000D01*
X160134075Y-107747007D01*
X160100000Y-107874174D01*
X160100000Y-108005826D01*
X160134075Y-108132993D01*
X160166988Y-108190000D01*
X159250000Y-108190000D01*
X159250000Y-108837844D01*
X159256401Y-108897372D01*
X159256403Y-108897379D01*
X159306645Y-109032086D01*
X159306649Y-109032093D01*
X159392809Y-109147187D01*
X159392812Y-109147190D01*
X159507906Y-109233350D01*
X159507913Y-109233354D01*
X159642620Y-109283596D01*
X159642627Y-109283598D01*
X159702155Y-109289999D01*
X159702172Y-109290000D01*
X160350000Y-109290000D01*
X160350000Y-108373012D01*
X160407007Y-108405925D01*
X160534174Y-108440000D01*
X160665826Y-108440000D01*
X160792993Y-108405925D01*
X160850000Y-108373012D01*
X160850000Y-109290000D01*
X161497828Y-109290000D01*
X161497844Y-109289999D01*
X161557372Y-109283598D01*
X161557379Y-109283596D01*
X161692086Y-109233354D01*
X161692093Y-109233350D01*
X161807187Y-109147190D01*
X161807190Y-109147187D01*
X161893350Y-109032093D01*
X161893354Y-109032086D01*
X161943596Y-108897379D01*
X161943598Y-108897372D01*
X161949999Y-108837844D01*
X161950000Y-108837827D01*
X161950000Y-108190000D01*
X161033012Y-108190000D01*
X161065925Y-108132993D01*
X161100000Y-108005826D01*
X161100000Y-107874174D01*
X161065925Y-107747007D01*
X161033012Y-107690000D01*
X161950000Y-107690000D01*
X161950000Y-107042172D01*
X161949999Y-107042155D01*
X161943598Y-106982627D01*
X161943596Y-106982620D01*
X161893354Y-106847913D01*
X161893350Y-106847906D01*
X161807190Y-106732812D01*
X161807187Y-106732809D01*
X161692093Y-106646649D01*
X161692088Y-106646646D01*
X161560528Y-106597577D01*
X161504595Y-106555705D01*
X161480178Y-106490241D01*
X161495030Y-106421968D01*
X161516175Y-106393720D01*
X161630104Y-106279792D01*
X161755051Y-106107816D01*
X161851557Y-105918412D01*
X161917246Y-105716243D01*
X161950500Y-105506287D01*
X161950500Y-105293713D01*
X161917246Y-105083757D01*
X161851557Y-104881588D01*
X161755051Y-104692184D01*
X161755049Y-104692181D01*
X161755048Y-104692179D01*
X161630109Y-104520213D01*
X161479786Y-104369890D01*
X161307820Y-104244951D01*
X161118414Y-104148444D01*
X161118413Y-104148443D01*
X161118412Y-104148443D01*
X160916243Y-104082754D01*
X160916241Y-104082753D01*
X160916240Y-104082753D01*
X160754957Y-104057208D01*
X160706287Y-104049500D01*
X160493713Y-104049500D01*
X160445042Y-104057208D01*
X160283760Y-104082753D01*
X160081585Y-104148444D01*
X159892179Y-104244951D01*
X159720213Y-104369890D01*
X159569890Y-104520213D01*
X159444951Y-104692179D01*
X159348444Y-104881585D01*
X159282753Y-105083760D01*
X159249500Y-105293713D01*
X115205158Y-105293713D01*
X115205158Y-104432660D01*
X115205224Y-104428603D01*
X115217635Y-104049500D01*
X115242352Y-103294468D01*
X115242548Y-103290479D01*
X115316764Y-102158151D01*
X115317096Y-102154115D01*
X115320161Y-102122992D01*
X115428321Y-101024825D01*
X115428772Y-101020907D01*
X115442553Y-100916228D01*
X182549500Y-100916228D01*
X182549500Y-101083771D01*
X182582182Y-101248074D01*
X182582184Y-101248082D01*
X182646295Y-101402860D01*
X182739373Y-101542162D01*
X182857837Y-101660626D01*
X182950494Y-101722537D01*
X182997137Y-101753703D01*
X183151918Y-101817816D01*
X183316228Y-101850499D01*
X183316232Y-101850500D01*
X183316233Y-101850500D01*
X183483768Y-101850500D01*
X183483769Y-101850499D01*
X183648082Y-101817816D01*
X183802863Y-101753703D01*
X183942162Y-101660626D01*
X184060626Y-101542162D01*
X184153703Y-101402863D01*
X184217816Y-101248082D01*
X184250500Y-101083767D01*
X184250500Y-100916233D01*
X184217816Y-100751918D01*
X184153703Y-100597137D01*
X184122537Y-100550494D01*
X184060626Y-100457837D01*
X183942162Y-100339373D01*
X183802860Y-100246295D01*
X183648082Y-100182184D01*
X183648074Y-100182182D01*
X183483771Y-100149500D01*
X183483767Y-100149500D01*
X183316233Y-100149500D01*
X183316228Y-100149500D01*
X183151925Y-100182182D01*
X183151917Y-100182184D01*
X182997139Y-100246295D01*
X182857837Y-100339373D01*
X182739373Y-100457837D01*
X182646295Y-100597139D01*
X182582184Y-100751917D01*
X182582182Y-100751925D01*
X182549500Y-100916228D01*
X115442553Y-100916228D01*
X115576889Y-99895844D01*
X115577475Y-99891895D01*
X115762329Y-98772250D01*
X115763043Y-98768330D01*
X115984424Y-97655371D01*
X115985255Y-97651522D01*
X116161951Y-96893713D01*
X158239500Y-96893713D01*
X158239500Y-97106286D01*
X158272753Y-97316239D01*
X158338444Y-97518414D01*
X158434951Y-97707820D01*
X158559890Y-97879786D01*
X158710213Y-98030109D01*
X158882179Y-98155048D01*
X158882181Y-98155049D01*
X158882184Y-98155051D01*
X159071588Y-98251557D01*
X159273757Y-98317246D01*
X159483713Y-98350500D01*
X159483714Y-98350500D01*
X159696286Y-98350500D01*
X159696287Y-98350500D01*
X159906243Y-98317246D01*
X160108412Y-98251557D01*
X160297816Y-98155051D01*
X160384478Y-98092088D01*
X160469786Y-98030109D01*
X160469788Y-98030106D01*
X160469792Y-98030104D01*
X160620104Y-97879792D01*
X160620106Y-97879788D01*
X160620109Y-97879786D01*
X160745048Y-97707820D01*
X160745047Y-97707820D01*
X160745051Y-97707816D01*
X160749514Y-97699054D01*
X160797488Y-97648259D01*
X160865308Y-97631463D01*
X160931444Y-97653999D01*
X160970486Y-97699056D01*
X160974951Y-97707820D01*
X161099890Y-97879786D01*
X161250213Y-98030109D01*
X161422179Y-98155048D01*
X161422181Y-98155049D01*
X161422184Y-98155051D01*
X161611588Y-98251557D01*
X161813757Y-98317246D01*
X162023713Y-98350500D01*
X162023714Y-98350500D01*
X162236286Y-98350500D01*
X162236287Y-98350500D01*
X162446243Y-98317246D01*
X162648412Y-98251557D01*
X162837816Y-98155051D01*
X162924478Y-98092088D01*
X163009786Y-98030109D01*
X163009788Y-98030106D01*
X163009792Y-98030104D01*
X163160104Y-97879792D01*
X163160106Y-97879788D01*
X163160109Y-97879786D01*
X163285048Y-97707820D01*
X163285047Y-97707820D01*
X163285051Y-97707816D01*
X163289514Y-97699054D01*
X163337488Y-97648259D01*
X163405308Y-97631463D01*
X163471444Y-97653999D01*
X163510486Y-97699056D01*
X163514951Y-97707820D01*
X163639890Y-97879786D01*
X163790213Y-98030109D01*
X163962179Y-98155048D01*
X163962181Y-98155049D01*
X163962184Y-98155051D01*
X164151588Y-98251557D01*
X164353757Y-98317246D01*
X164563713Y-98350500D01*
X164563714Y-98350500D01*
X164776286Y-98350500D01*
X164776287Y-98350500D01*
X164986243Y-98317246D01*
X165188412Y-98251557D01*
X165377816Y-98155051D01*
X165464478Y-98092088D01*
X165549784Y-98030110D01*
X165549784Y-98030109D01*
X165549792Y-98030104D01*
X165663717Y-97916178D01*
X165725036Y-97882696D01*
X165794728Y-97887680D01*
X165850662Y-97929551D01*
X165867577Y-97960528D01*
X165916646Y-98092088D01*
X165916649Y-98092093D01*
X166002809Y-98207187D01*
X166002812Y-98207190D01*
X166117906Y-98293350D01*
X166117913Y-98293354D01*
X166252620Y-98343596D01*
X166252627Y-98343598D01*
X166312155Y-98349999D01*
X166312172Y-98350000D01*
X166960000Y-98350000D01*
X166960000Y-97433012D01*
X167017007Y-97465925D01*
X167144174Y-97500000D01*
X167275826Y-97500000D01*
X167402993Y-97465925D01*
X167460000Y-97433012D01*
X167460000Y-98350000D01*
X168107828Y-98350000D01*
X168107844Y-98349999D01*
X168167372Y-98343598D01*
X168167379Y-98343596D01*
X168302086Y-98293354D01*
X168302093Y-98293350D01*
X168417187Y-98207190D01*
X168417190Y-98207187D01*
X168503350Y-98092093D01*
X168503354Y-98092086D01*
X168553596Y-97957379D01*
X168553598Y-97957372D01*
X168559999Y-97897844D01*
X168560000Y-97897827D01*
X168560000Y-97250000D01*
X167643012Y-97250000D01*
X167675925Y-97192993D01*
X167710000Y-97065826D01*
X167710000Y-96934174D01*
X167675925Y-96807007D01*
X167643012Y-96750000D01*
X168560000Y-96750000D01*
X168560000Y-96102172D01*
X168559999Y-96102155D01*
X168553598Y-96042627D01*
X168553596Y-96042620D01*
X168503354Y-95907913D01*
X168503350Y-95907906D01*
X168417190Y-95792812D01*
X168417187Y-95792809D01*
X168302093Y-95706649D01*
X168302086Y-95706645D01*
X168167379Y-95656403D01*
X168167372Y-95656401D01*
X168107844Y-95650000D01*
X167460000Y-95650000D01*
X167460000Y-96566988D01*
X167402993Y-96534075D01*
X167275826Y-96500000D01*
X167144174Y-96500000D01*
X167017007Y-96534075D01*
X166960000Y-96566988D01*
X166960000Y-95650000D01*
X166312155Y-95650000D01*
X166252627Y-95656401D01*
X166252620Y-95656403D01*
X166117913Y-95706645D01*
X166117906Y-95706649D01*
X166002812Y-95792809D01*
X166002809Y-95792812D01*
X165916649Y-95907906D01*
X165916646Y-95907912D01*
X165867577Y-96039471D01*
X165825705Y-96095404D01*
X165760241Y-96119821D01*
X165691968Y-96104969D01*
X165663714Y-96083818D01*
X165549786Y-95969890D01*
X165377820Y-95844951D01*
X165188414Y-95748444D01*
X165188413Y-95748443D01*
X165188412Y-95748443D01*
X164986243Y-95682754D01*
X164986241Y-95682753D01*
X164986240Y-95682753D01*
X164824957Y-95657208D01*
X164776287Y-95649500D01*
X164563713Y-95649500D01*
X164515042Y-95657208D01*
X164353760Y-95682753D01*
X164151585Y-95748444D01*
X163962179Y-95844951D01*
X163790213Y-95969890D01*
X163639890Y-96120213D01*
X163514949Y-96292182D01*
X163510484Y-96300946D01*
X163462509Y-96351742D01*
X163394688Y-96368536D01*
X163328553Y-96345998D01*
X163289516Y-96300946D01*
X163285050Y-96292182D01*
X163160109Y-96120213D01*
X163009786Y-95969890D01*
X162837820Y-95844951D01*
X162648414Y-95748444D01*
X162648413Y-95748443D01*
X162648412Y-95748443D01*
X162446243Y-95682754D01*
X162446241Y-95682753D01*
X162446240Y-95682753D01*
X162284957Y-95657208D01*
X162236287Y-95649500D01*
X162023713Y-95649500D01*
X161975042Y-95657208D01*
X161813760Y-95682753D01*
X161611585Y-95748444D01*
X161422179Y-95844951D01*
X161250213Y-95969890D01*
X161099890Y-96120213D01*
X160974949Y-96292182D01*
X160970484Y-96300946D01*
X160922509Y-96351742D01*
X160854688Y-96368536D01*
X160788553Y-96345998D01*
X160749516Y-96300946D01*
X160745050Y-96292182D01*
X160620109Y-96120213D01*
X160469786Y-95969890D01*
X160297820Y-95844951D01*
X160108414Y-95748444D01*
X160108413Y-95748443D01*
X160108412Y-95748443D01*
X159906243Y-95682754D01*
X159906241Y-95682753D01*
X159906240Y-95682753D01*
X159744957Y-95657208D01*
X159696287Y-95649500D01*
X159483713Y-95649500D01*
X159435042Y-95657208D01*
X159273760Y-95682753D01*
X159071585Y-95748444D01*
X158882179Y-95844951D01*
X158710213Y-95969890D01*
X158559890Y-96120213D01*
X158434951Y-96292179D01*
X158338444Y-96481585D01*
X158272753Y-96683760D01*
X158239500Y-96893713D01*
X116161951Y-96893713D01*
X116242936Y-96546386D01*
X116243921Y-96542456D01*
X116290523Y-96368536D01*
X116411718Y-95916228D01*
X149149500Y-95916228D01*
X149149500Y-96083771D01*
X149182182Y-96248074D01*
X149182184Y-96248082D01*
X149246295Y-96402860D01*
X149339373Y-96542162D01*
X149457837Y-96660626D01*
X149492460Y-96683760D01*
X149597137Y-96753703D01*
X149751918Y-96817816D01*
X149916228Y-96850499D01*
X149916232Y-96850500D01*
X149916233Y-96850500D01*
X150083768Y-96850500D01*
X150083769Y-96850499D01*
X150248082Y-96817816D01*
X150402863Y-96753703D01*
X150542162Y-96660626D01*
X150660626Y-96542162D01*
X150753703Y-96402863D01*
X150817816Y-96248082D01*
X150850500Y-96083767D01*
X150850500Y-95916233D01*
X150817816Y-95751918D01*
X150753703Y-95597137D01*
X150722537Y-95550494D01*
X150660626Y-95457837D01*
X150542162Y-95339373D01*
X150402860Y-95246295D01*
X150248082Y-95182184D01*
X150248074Y-95182182D01*
X150083771Y-95149500D01*
X150083767Y-95149500D01*
X149916233Y-95149500D01*
X149916228Y-95149500D01*
X149751925Y-95182182D01*
X149751917Y-95182184D01*
X149597139Y-95246295D01*
X149457837Y-95339373D01*
X149339373Y-95457837D01*
X149246295Y-95597139D01*
X149182184Y-95751917D01*
X149182182Y-95751925D01*
X149149500Y-95916228D01*
X116411718Y-95916228D01*
X116537617Y-95446366D01*
X116538700Y-95442572D01*
X116868127Y-94356598D01*
X116869331Y-94352851D01*
X117234093Y-93278297D01*
X117235450Y-93274507D01*
X117395035Y-92850500D01*
X117635157Y-92212511D01*
X117636627Y-92208790D01*
X117757810Y-91916228D01*
X118149500Y-91916228D01*
X118149500Y-92083771D01*
X118182182Y-92248074D01*
X118182184Y-92248082D01*
X118246295Y-92402860D01*
X118339373Y-92542162D01*
X118457837Y-92660626D01*
X118550494Y-92722537D01*
X118597137Y-92753703D01*
X118751918Y-92817816D01*
X118916228Y-92850499D01*
X118916232Y-92850500D01*
X118916233Y-92850500D01*
X119083768Y-92850500D01*
X119083769Y-92850499D01*
X119248082Y-92817816D01*
X119402863Y-92753703D01*
X119542162Y-92660626D01*
X119660626Y-92542162D01*
X119753703Y-92402863D01*
X119817816Y-92248082D01*
X119850500Y-92083767D01*
X119850500Y-91916233D01*
X119817816Y-91751918D01*
X119753703Y-91597137D01*
X119722537Y-91550494D01*
X119660626Y-91457837D01*
X119542162Y-91339373D01*
X119402860Y-91246295D01*
X119248082Y-91182184D01*
X119248074Y-91182182D01*
X119083771Y-91149500D01*
X119083767Y-91149500D01*
X118916233Y-91149500D01*
X118916228Y-91149500D01*
X118751925Y-91182182D01*
X118751917Y-91182184D01*
X118597139Y-91246295D01*
X118457837Y-91339373D01*
X118339373Y-91457837D01*
X118246295Y-91597139D01*
X118182184Y-91751917D01*
X118182182Y-91751925D01*
X118149500Y-91916228D01*
X117757810Y-91916228D01*
X118070890Y-91160386D01*
X118072469Y-91156742D01*
X118540800Y-90123116D01*
X118542524Y-90119473D01*
X119044390Y-89101788D01*
X119046244Y-89098179D01*
X119151906Y-88900500D01*
X119581161Y-88097419D01*
X119583075Y-88093974D01*
X119688540Y-87911304D01*
X154099500Y-87911304D01*
X154099500Y-88088695D01*
X154134103Y-88262658D01*
X154134106Y-88262667D01*
X154201983Y-88426540D01*
X154201990Y-88426553D01*
X154300535Y-88574034D01*
X154300538Y-88574038D01*
X154425961Y-88699461D01*
X154425965Y-88699464D01*
X154573446Y-88798009D01*
X154573459Y-88798016D01*
X154696363Y-88848923D01*
X154737334Y-88865894D01*
X154737336Y-88865894D01*
X154737341Y-88865896D01*
X154911304Y-88900499D01*
X154911307Y-88900500D01*
X154911309Y-88900500D01*
X155088693Y-88900500D01*
X155088694Y-88900499D01*
X155146682Y-88888964D01*
X155262658Y-88865896D01*
X155262661Y-88865894D01*
X155262666Y-88865894D01*
X155426547Y-88798013D01*
X155574035Y-88699464D01*
X155699464Y-88574035D01*
X155798013Y-88426547D01*
X155865894Y-88262666D01*
X155900500Y-88088691D01*
X155900500Y-87911309D01*
X155900500Y-87911306D01*
X155900499Y-87911304D01*
X155865896Y-87737341D01*
X155865893Y-87737332D01*
X155798016Y-87573459D01*
X155798009Y-87573446D01*
X155699464Y-87425965D01*
X155699461Y-87425961D01*
X155574038Y-87300538D01*
X155574034Y-87300535D01*
X155426553Y-87201990D01*
X155426540Y-87201983D01*
X155262667Y-87134106D01*
X155262658Y-87134103D01*
X155088694Y-87099500D01*
X155088691Y-87099500D01*
X154911309Y-87099500D01*
X154911306Y-87099500D01*
X154737341Y-87134103D01*
X154737332Y-87134106D01*
X154573459Y-87201983D01*
X154573446Y-87201990D01*
X154425965Y-87300535D01*
X154425961Y-87300538D01*
X154300538Y-87425961D01*
X154300535Y-87425965D01*
X154201990Y-87573446D01*
X154201983Y-87573459D01*
X154134106Y-87737332D01*
X154134103Y-87737341D01*
X154099500Y-87911304D01*
X119688540Y-87911304D01*
X120150484Y-87111194D01*
X120152521Y-87107795D01*
X120751763Y-86144136D01*
X120753914Y-86140799D01*
X120907258Y-85911304D01*
X152099500Y-85911304D01*
X152099500Y-86088695D01*
X152134103Y-86262658D01*
X152134106Y-86262667D01*
X152201983Y-86426540D01*
X152201990Y-86426553D01*
X152300535Y-86574034D01*
X152300538Y-86574038D01*
X152425961Y-86699461D01*
X152425965Y-86699464D01*
X152573446Y-86798009D01*
X152573459Y-86798016D01*
X152696363Y-86848923D01*
X152737334Y-86865894D01*
X152737336Y-86865894D01*
X152737341Y-86865896D01*
X152911304Y-86900499D01*
X152911307Y-86900500D01*
X152911309Y-86900500D01*
X153088693Y-86900500D01*
X153088694Y-86900499D01*
X153146682Y-86888964D01*
X153262658Y-86865896D01*
X153262661Y-86865894D01*
X153262666Y-86865894D01*
X153426547Y-86798013D01*
X153574035Y-86699464D01*
X153699464Y-86574035D01*
X153798013Y-86426547D01*
X153865894Y-86262666D01*
X153900500Y-86088691D01*
X153900500Y-85911309D01*
X153900500Y-85911306D01*
X153900499Y-85911304D01*
X153865896Y-85737341D01*
X153865893Y-85737332D01*
X153798016Y-85573459D01*
X153798009Y-85573446D01*
X153699464Y-85425965D01*
X153699461Y-85425961D01*
X153574038Y-85300538D01*
X153574034Y-85300535D01*
X153426553Y-85201990D01*
X153426540Y-85201983D01*
X153262667Y-85134106D01*
X153262658Y-85134103D01*
X153088694Y-85099500D01*
X153088691Y-85099500D01*
X152911309Y-85099500D01*
X152911306Y-85099500D01*
X152737341Y-85134103D01*
X152737332Y-85134106D01*
X152573459Y-85201983D01*
X152573446Y-85201990D01*
X152425965Y-85300535D01*
X152425961Y-85300538D01*
X152300538Y-85425961D01*
X152300535Y-85425965D01*
X152201990Y-85573446D01*
X152201983Y-85573459D01*
X152134106Y-85737332D01*
X152134103Y-85737341D01*
X152099500Y-85911304D01*
X120907258Y-85911304D01*
X121384373Y-85197250D01*
X121386637Y-85193980D01*
X122047615Y-84271587D01*
X122049995Y-84268377D01*
X122320209Y-83916228D01*
X175149500Y-83916228D01*
X175149500Y-84083771D01*
X175182182Y-84248074D01*
X175182184Y-84248082D01*
X175246295Y-84402860D01*
X175339373Y-84542162D01*
X175457837Y-84660626D01*
X175550494Y-84722537D01*
X175597137Y-84753703D01*
X175751918Y-84817816D01*
X175916228Y-84850499D01*
X175916232Y-84850500D01*
X175916233Y-84850500D01*
X176083768Y-84850500D01*
X176083769Y-84850499D01*
X176248082Y-84817816D01*
X176402863Y-84753703D01*
X176542162Y-84660626D01*
X176660626Y-84542162D01*
X176753703Y-84402863D01*
X176817816Y-84248082D01*
X176850500Y-84083767D01*
X176850500Y-83916233D01*
X176817816Y-83751918D01*
X176753703Y-83597137D01*
X176722537Y-83550494D01*
X176660626Y-83457837D01*
X176542162Y-83339373D01*
X176402860Y-83246295D01*
X176248082Y-83182184D01*
X176248074Y-83182182D01*
X176083771Y-83149500D01*
X176083767Y-83149500D01*
X175916233Y-83149500D01*
X175916228Y-83149500D01*
X175751925Y-83182182D01*
X175751917Y-83182184D01*
X175597139Y-83246295D01*
X175457837Y-83339373D01*
X175339373Y-83457837D01*
X175246295Y-83597139D01*
X175182184Y-83751917D01*
X175182182Y-83751925D01*
X175149500Y-83916228D01*
X122320209Y-83916228D01*
X122740795Y-83368110D01*
X122743281Y-83364977D01*
X123463187Y-82487769D01*
X123465729Y-82484772D01*
X124213956Y-81631582D01*
X124216649Y-81628611D01*
X124992359Y-80800395D01*
X124995121Y-80797541D01*
X125797541Y-79995121D01*
X125800395Y-79992359D01*
X126628611Y-79216649D01*
X126631582Y-79213956D01*
X126971076Y-78916228D01*
X128149500Y-78916228D01*
X128149500Y-79083771D01*
X128182182Y-79248074D01*
X128182184Y-79248082D01*
X128246295Y-79402860D01*
X128339373Y-79542162D01*
X128457837Y-79660626D01*
X128520029Y-79702181D01*
X128597137Y-79753703D01*
X128751918Y-79817816D01*
X128916228Y-79850499D01*
X128916232Y-79850500D01*
X128916233Y-79850500D01*
X129083768Y-79850500D01*
X129083769Y-79850499D01*
X129248082Y-79817816D01*
X129402863Y-79753703D01*
X129542162Y-79660626D01*
X129660626Y-79542162D01*
X129753703Y-79402863D01*
X129817816Y-79248082D01*
X129850500Y-79083767D01*
X129850500Y-78916233D01*
X129817816Y-78751918D01*
X129753703Y-78597137D01*
X129665927Y-78465771D01*
X129660626Y-78457837D01*
X129542162Y-78339373D01*
X129402860Y-78246295D01*
X129248082Y-78182184D01*
X129248074Y-78182182D01*
X129083771Y-78149500D01*
X129083767Y-78149500D01*
X128916233Y-78149500D01*
X128916228Y-78149500D01*
X128751925Y-78182182D01*
X128751917Y-78182184D01*
X128597139Y-78246295D01*
X128457837Y-78339373D01*
X128339373Y-78457837D01*
X128246295Y-78597139D01*
X128182184Y-78751917D01*
X128182182Y-78751925D01*
X128149500Y-78916228D01*
X126971076Y-78916228D01*
X127484772Y-78465729D01*
X127487769Y-78463187D01*
X128364977Y-77743281D01*
X128368110Y-77740795D01*
X129268377Y-77049995D01*
X129271587Y-77047615D01*
X130193980Y-76386637D01*
X130197250Y-76384373D01*
X131140799Y-75753914D01*
X131144136Y-75751763D01*
X132107795Y-75152521D01*
X132111194Y-75150484D01*
X132525465Y-74911304D01*
X155099500Y-74911304D01*
X155099500Y-75088695D01*
X155134103Y-75262658D01*
X155134106Y-75262667D01*
X155201983Y-75426540D01*
X155201990Y-75426553D01*
X155300535Y-75574034D01*
X155300538Y-75574038D01*
X155425961Y-75699461D01*
X155425965Y-75699464D01*
X155573446Y-75798009D01*
X155573459Y-75798016D01*
X155696363Y-75848923D01*
X155737334Y-75865894D01*
X155737336Y-75865894D01*
X155737341Y-75865896D01*
X155911304Y-75900499D01*
X155911307Y-75900500D01*
X155911309Y-75900500D01*
X156088693Y-75900500D01*
X156088694Y-75900499D01*
X156146682Y-75888964D01*
X156262658Y-75865896D01*
X156262661Y-75865894D01*
X156262666Y-75865894D01*
X156426547Y-75798013D01*
X156574035Y-75699464D01*
X156699464Y-75574035D01*
X156798013Y-75426547D01*
X156865894Y-75262666D01*
X156900500Y-75088691D01*
X156900500Y-75024500D01*
X156920185Y-74957461D01*
X156972989Y-74911706D01*
X157024500Y-74900500D01*
X157088693Y-74900500D01*
X157088694Y-74900499D01*
X157146682Y-74888964D01*
X157262658Y-74865896D01*
X157262661Y-74865894D01*
X157262666Y-74865894D01*
X157426547Y-74798013D01*
X157574035Y-74699464D01*
X157699464Y-74574035D01*
X157798013Y-74426547D01*
X157865894Y-74262666D01*
X157872897Y-74227463D01*
X157900499Y-74088695D01*
X157900500Y-74088693D01*
X157900500Y-74024500D01*
X157920185Y-73957461D01*
X157967770Y-73916228D01*
X161149500Y-73916228D01*
X161149500Y-74083771D01*
X161182182Y-74248074D01*
X161182184Y-74248082D01*
X161246295Y-74402860D01*
X161339373Y-74542162D01*
X161457837Y-74660626D01*
X161515958Y-74699461D01*
X161597137Y-74753703D01*
X161751918Y-74817816D01*
X161916228Y-74850499D01*
X161916232Y-74850500D01*
X161916233Y-74850500D01*
X162083768Y-74850500D01*
X162083769Y-74850499D01*
X162248082Y-74817816D01*
X162402863Y-74753703D01*
X162542162Y-74660626D01*
X162660626Y-74542162D01*
X162753703Y-74402863D01*
X162817816Y-74248082D01*
X162850500Y-74083767D01*
X162850500Y-73916233D01*
X162817816Y-73751918D01*
X162753703Y-73597137D01*
X162716052Y-73540789D01*
X162660626Y-73457837D01*
X162542162Y-73339373D01*
X162402860Y-73246295D01*
X162248082Y-73182184D01*
X162248074Y-73182182D01*
X162083771Y-73149500D01*
X162083767Y-73149500D01*
X161916233Y-73149500D01*
X161916228Y-73149500D01*
X161751925Y-73182182D01*
X161751917Y-73182184D01*
X161597139Y-73246295D01*
X161457837Y-73339373D01*
X161339373Y-73457837D01*
X161246295Y-73597139D01*
X161182184Y-73751917D01*
X161182182Y-73751925D01*
X161149500Y-73916228D01*
X157967770Y-73916228D01*
X157972989Y-73911706D01*
X158024500Y-73900500D01*
X158088693Y-73900500D01*
X158088694Y-73900499D01*
X158146682Y-73888964D01*
X158262658Y-73865896D01*
X158262661Y-73865894D01*
X158262666Y-73865894D01*
X158426547Y-73798013D01*
X158574035Y-73699464D01*
X158699464Y-73574035D01*
X158798013Y-73426547D01*
X158865894Y-73262666D01*
X158869151Y-73246295D01*
X158900499Y-73088695D01*
X158900500Y-73088693D01*
X158900500Y-72911306D01*
X158900499Y-72911304D01*
X158865896Y-72737341D01*
X158865893Y-72737332D01*
X158798016Y-72573459D01*
X158798009Y-72573446D01*
X158699464Y-72425965D01*
X158699461Y-72425961D01*
X158574038Y-72300538D01*
X158574034Y-72300535D01*
X158426553Y-72201990D01*
X158426540Y-72201983D01*
X158262667Y-72134106D01*
X158262658Y-72134103D01*
X158088694Y-72099500D01*
X158088691Y-72099500D01*
X157911309Y-72099500D01*
X157911306Y-72099500D01*
X157737341Y-72134103D01*
X157737332Y-72134106D01*
X157573459Y-72201983D01*
X157573446Y-72201990D01*
X157425965Y-72300535D01*
X157425961Y-72300538D01*
X157300538Y-72425961D01*
X157300535Y-72425965D01*
X157201990Y-72573446D01*
X157201983Y-72573459D01*
X157134106Y-72737332D01*
X157134103Y-72737341D01*
X157099500Y-72911304D01*
X157099500Y-72975500D01*
X157079815Y-73042539D01*
X157027011Y-73088294D01*
X156975500Y-73099500D01*
X156911306Y-73099500D01*
X156737341Y-73134103D01*
X156737332Y-73134106D01*
X156573459Y-73201983D01*
X156573446Y-73201990D01*
X156425965Y-73300535D01*
X156425961Y-73300538D01*
X156300538Y-73425961D01*
X156300535Y-73425965D01*
X156201990Y-73573446D01*
X156201983Y-73573459D01*
X156134106Y-73737332D01*
X156134103Y-73737341D01*
X156099500Y-73911304D01*
X156099500Y-73975500D01*
X156079815Y-74042539D01*
X156027011Y-74088294D01*
X155975500Y-74099500D01*
X155911306Y-74099500D01*
X155737341Y-74134103D01*
X155737332Y-74134106D01*
X155573459Y-74201983D01*
X155573446Y-74201990D01*
X155425965Y-74300535D01*
X155425961Y-74300538D01*
X155300538Y-74425961D01*
X155300535Y-74425965D01*
X155201990Y-74573446D01*
X155201983Y-74573459D01*
X155134106Y-74737332D01*
X155134103Y-74737341D01*
X155099500Y-74911304D01*
X132525465Y-74911304D01*
X133093974Y-74583075D01*
X133097419Y-74581161D01*
X134098200Y-74046232D01*
X134101766Y-74044400D01*
X135119497Y-73542512D01*
X135123116Y-73540800D01*
X136156742Y-73072469D01*
X136160386Y-73070890D01*
X137208790Y-72636627D01*
X137212511Y-72635157D01*
X138274519Y-72235445D01*
X138278297Y-72234093D01*
X139214697Y-71916228D01*
X144149500Y-71916228D01*
X144149500Y-72083771D01*
X144182182Y-72248074D01*
X144182184Y-72248082D01*
X144246295Y-72402860D01*
X144339373Y-72542162D01*
X144457837Y-72660626D01*
X144550494Y-72722537D01*
X144597137Y-72753703D01*
X144751918Y-72817816D01*
X144916228Y-72850499D01*
X144916232Y-72850500D01*
X144916233Y-72850500D01*
X145083768Y-72850500D01*
X145083769Y-72850499D01*
X145248082Y-72817816D01*
X145402863Y-72753703D01*
X145542162Y-72660626D01*
X145660626Y-72542162D01*
X145753703Y-72402863D01*
X145817816Y-72248082D01*
X145850500Y-72083767D01*
X145850500Y-71916233D01*
X145817816Y-71751918D01*
X145753703Y-71597137D01*
X145677059Y-71482431D01*
X145660626Y-71457837D01*
X145542162Y-71339373D01*
X145402860Y-71246295D01*
X145248082Y-71182184D01*
X145248074Y-71182182D01*
X145083771Y-71149500D01*
X145083767Y-71149500D01*
X144916233Y-71149500D01*
X144916228Y-71149500D01*
X144751925Y-71182182D01*
X144751917Y-71182184D01*
X144597139Y-71246295D01*
X144457837Y-71339373D01*
X144339373Y-71457837D01*
X144246295Y-71597139D01*
X144182184Y-71751917D01*
X144182182Y-71751925D01*
X144149500Y-71916228D01*
X139214697Y-71916228D01*
X139352851Y-71869331D01*
X139356598Y-71868127D01*
X140442572Y-71538700D01*
X140446366Y-71537617D01*
X141364253Y-71291670D01*
X141542456Y-71243921D01*
X141546392Y-71242935D01*
X142651522Y-70985255D01*
X142655371Y-70984424D01*
X143768330Y-70763043D01*
X143772250Y-70762329D01*
X144891895Y-70577475D01*
X144895844Y-70576889D01*
X146020907Y-70428772D01*
X146024825Y-70428321D01*
X147154123Y-70317095D01*
X147158151Y-70316764D01*
X148290479Y-70242548D01*
X148294468Y-70242352D01*
X149428604Y-70205224D01*
X149432661Y-70205158D01*
X150567339Y-70205158D01*
X150571396Y-70205224D01*
G37*
%TD.AperFunction*%
%TD*%
M02*
