%TF.GenerationSoftware,KiCad,Pcbnew,9.0.7*%
%TF.CreationDate,2026-03-19T10:05:22+01:00*%
%TF.ProjectId,MPC-Status,4d50432d-5374-4617-9475-732e6b696361,rev?*%
%TF.SameCoordinates,Original*%
%TF.FileFunction,Legend,Bot*%
%TF.FilePolarity,Positive*%
%FSLAX46Y46*%
G04 Gerber Fmt 4.6, Leading zero omitted, Abs format (unit mm)*
G04 Created by KiCad (PCBNEW 9.0.7) date 2026-03-19 10:05:22*
%MOMM*%
%LPD*%
G01*
G04 APERTURE LIST*
%ADD10C,0.150000*%
%ADD11C,0.152400*%
%ADD12C,0.400000*%
%ADD13C,0.120000*%
G04 APERTURE END LIST*
D10*
X153063220Y-112069819D02*
X153063220Y-111069819D01*
X152634649Y-111165057D02*
X152587030Y-111117438D01*
X152587030Y-111117438D02*
X152491792Y-111069819D01*
X152491792Y-111069819D02*
X152253697Y-111069819D01*
X152253697Y-111069819D02*
X152158459Y-111117438D01*
X152158459Y-111117438D02*
X152110840Y-111165057D01*
X152110840Y-111165057D02*
X152063221Y-111260295D01*
X152063221Y-111260295D02*
X152063221Y-111355533D01*
X152063221Y-111355533D02*
X152110840Y-111498390D01*
X152110840Y-111498390D02*
X152682268Y-112069819D01*
X152682268Y-112069819D02*
X152063221Y-112069819D01*
X151063221Y-111974580D02*
X151110840Y-112022200D01*
X151110840Y-112022200D02*
X151253697Y-112069819D01*
X151253697Y-112069819D02*
X151348935Y-112069819D01*
X151348935Y-112069819D02*
X151491792Y-112022200D01*
X151491792Y-112022200D02*
X151587030Y-111926961D01*
X151587030Y-111926961D02*
X151634649Y-111831723D01*
X151634649Y-111831723D02*
X151682268Y-111641247D01*
X151682268Y-111641247D02*
X151682268Y-111498390D01*
X151682268Y-111498390D02*
X151634649Y-111307914D01*
X151634649Y-111307914D02*
X151587030Y-111212676D01*
X151587030Y-111212676D02*
X151491792Y-111117438D01*
X151491792Y-111117438D02*
X151348935Y-111069819D01*
X151348935Y-111069819D02*
X151253697Y-111069819D01*
X151253697Y-111069819D02*
X151110840Y-111117438D01*
X151110840Y-111117438D02*
X151063221Y-111165057D01*
D11*
X153753899Y-118155082D02*
X153792603Y-118271196D01*
X153792603Y-118271196D02*
X153792603Y-118464720D01*
X153792603Y-118464720D02*
X153753899Y-118542129D01*
X153753899Y-118542129D02*
X153715194Y-118580834D01*
X153715194Y-118580834D02*
X153637784Y-118619539D01*
X153637784Y-118619539D02*
X153560375Y-118619539D01*
X153560375Y-118619539D02*
X153482965Y-118580834D01*
X153482965Y-118580834D02*
X153444260Y-118542129D01*
X153444260Y-118542129D02*
X153405556Y-118464720D01*
X153405556Y-118464720D02*
X153366851Y-118309901D01*
X153366851Y-118309901D02*
X153328146Y-118232491D01*
X153328146Y-118232491D02*
X153289441Y-118193786D01*
X153289441Y-118193786D02*
X153212032Y-118155082D01*
X153212032Y-118155082D02*
X153134622Y-118155082D01*
X153134622Y-118155082D02*
X153057213Y-118193786D01*
X153057213Y-118193786D02*
X153018508Y-118232491D01*
X153018508Y-118232491D02*
X152979803Y-118309901D01*
X152979803Y-118309901D02*
X152979803Y-118503424D01*
X152979803Y-118503424D02*
X153018508Y-118619539D01*
X153715194Y-119432338D02*
X153753899Y-119393634D01*
X153753899Y-119393634D02*
X153792603Y-119277519D01*
X153792603Y-119277519D02*
X153792603Y-119200110D01*
X153792603Y-119200110D02*
X153753899Y-119083996D01*
X153753899Y-119083996D02*
X153676489Y-119006586D01*
X153676489Y-119006586D02*
X153599079Y-118967881D01*
X153599079Y-118967881D02*
X153444260Y-118929177D01*
X153444260Y-118929177D02*
X153328146Y-118929177D01*
X153328146Y-118929177D02*
X153173327Y-118967881D01*
X153173327Y-118967881D02*
X153095918Y-119006586D01*
X153095918Y-119006586D02*
X153018508Y-119083996D01*
X153018508Y-119083996D02*
X152979803Y-119200110D01*
X152979803Y-119200110D02*
X152979803Y-119277519D01*
X152979803Y-119277519D02*
X153018508Y-119393634D01*
X153018508Y-119393634D02*
X153057213Y-119432338D01*
X153792603Y-120167729D02*
X153792603Y-119780681D01*
X153792603Y-119780681D02*
X152979803Y-119780681D01*
X151253899Y-118155082D02*
X151292603Y-118271196D01*
X151292603Y-118271196D02*
X151292603Y-118464720D01*
X151292603Y-118464720D02*
X151253899Y-118542129D01*
X151253899Y-118542129D02*
X151215194Y-118580834D01*
X151215194Y-118580834D02*
X151137784Y-118619539D01*
X151137784Y-118619539D02*
X151060375Y-118619539D01*
X151060375Y-118619539D02*
X150982965Y-118580834D01*
X150982965Y-118580834D02*
X150944260Y-118542129D01*
X150944260Y-118542129D02*
X150905556Y-118464720D01*
X150905556Y-118464720D02*
X150866851Y-118309901D01*
X150866851Y-118309901D02*
X150828146Y-118232491D01*
X150828146Y-118232491D02*
X150789441Y-118193786D01*
X150789441Y-118193786D02*
X150712032Y-118155082D01*
X150712032Y-118155082D02*
X150634622Y-118155082D01*
X150634622Y-118155082D02*
X150557213Y-118193786D01*
X150557213Y-118193786D02*
X150518508Y-118232491D01*
X150518508Y-118232491D02*
X150479803Y-118309901D01*
X150479803Y-118309901D02*
X150479803Y-118503424D01*
X150479803Y-118503424D02*
X150518508Y-118619539D01*
X151292603Y-118967881D02*
X150479803Y-118967881D01*
X150479803Y-118967881D02*
X150479803Y-119161405D01*
X150479803Y-119161405D02*
X150518508Y-119277519D01*
X150518508Y-119277519D02*
X150595918Y-119354929D01*
X150595918Y-119354929D02*
X150673327Y-119393634D01*
X150673327Y-119393634D02*
X150828146Y-119432338D01*
X150828146Y-119432338D02*
X150944260Y-119432338D01*
X150944260Y-119432338D02*
X151099079Y-119393634D01*
X151099079Y-119393634D02*
X151176489Y-119354929D01*
X151176489Y-119354929D02*
X151253899Y-119277519D01*
X151253899Y-119277519D02*
X151292603Y-119161405D01*
X151292603Y-119161405D02*
X151292603Y-118967881D01*
X151060375Y-119741977D02*
X151060375Y-120129024D01*
X151292603Y-119664567D02*
X150479803Y-119935500D01*
X150479803Y-119935500D02*
X151292603Y-120206434D01*
X148018508Y-118619539D02*
X147979803Y-118542129D01*
X147979803Y-118542129D02*
X147979803Y-118426015D01*
X147979803Y-118426015D02*
X148018508Y-118309901D01*
X148018508Y-118309901D02*
X148095918Y-118232491D01*
X148095918Y-118232491D02*
X148173327Y-118193786D01*
X148173327Y-118193786D02*
X148328146Y-118155082D01*
X148328146Y-118155082D02*
X148444260Y-118155082D01*
X148444260Y-118155082D02*
X148599079Y-118193786D01*
X148599079Y-118193786D02*
X148676489Y-118232491D01*
X148676489Y-118232491D02*
X148753899Y-118309901D01*
X148753899Y-118309901D02*
X148792603Y-118426015D01*
X148792603Y-118426015D02*
X148792603Y-118503424D01*
X148792603Y-118503424D02*
X148753899Y-118619539D01*
X148753899Y-118619539D02*
X148715194Y-118658243D01*
X148715194Y-118658243D02*
X148444260Y-118658243D01*
X148444260Y-118658243D02*
X148444260Y-118503424D01*
X148792603Y-119006586D02*
X147979803Y-119006586D01*
X147979803Y-119006586D02*
X148792603Y-119471043D01*
X148792603Y-119471043D02*
X147979803Y-119471043D01*
X148792603Y-119858091D02*
X147979803Y-119858091D01*
X147979803Y-119858091D02*
X147979803Y-120051615D01*
X147979803Y-120051615D02*
X148018508Y-120167729D01*
X148018508Y-120167729D02*
X148095918Y-120245139D01*
X148095918Y-120245139D02*
X148173327Y-120283844D01*
X148173327Y-120283844D02*
X148328146Y-120322548D01*
X148328146Y-120322548D02*
X148444260Y-120322548D01*
X148444260Y-120322548D02*
X148599079Y-120283844D01*
X148599079Y-120283844D02*
X148676489Y-120245139D01*
X148676489Y-120245139D02*
X148753899Y-120167729D01*
X148753899Y-120167729D02*
X148792603Y-120051615D01*
X148792603Y-120051615D02*
X148792603Y-119858091D01*
D12*
X159760652Y-92034438D02*
X159760652Y-90034438D01*
X159760652Y-90034438D02*
X159093985Y-91463009D01*
X159093985Y-91463009D02*
X158427319Y-90034438D01*
X158427319Y-90034438D02*
X158427319Y-92034438D01*
X157474938Y-92034438D02*
X157474938Y-90034438D01*
X157474938Y-90034438D02*
X156713033Y-90034438D01*
X156713033Y-90034438D02*
X156522557Y-90129676D01*
X156522557Y-90129676D02*
X156427319Y-90224914D01*
X156427319Y-90224914D02*
X156332081Y-90415390D01*
X156332081Y-90415390D02*
X156332081Y-90701104D01*
X156332081Y-90701104D02*
X156427319Y-90891580D01*
X156427319Y-90891580D02*
X156522557Y-90986819D01*
X156522557Y-90986819D02*
X156713033Y-91082057D01*
X156713033Y-91082057D02*
X157474938Y-91082057D01*
X154332081Y-91843961D02*
X154427319Y-91939200D01*
X154427319Y-91939200D02*
X154713033Y-92034438D01*
X154713033Y-92034438D02*
X154903509Y-92034438D01*
X154903509Y-92034438D02*
X155189224Y-91939200D01*
X155189224Y-91939200D02*
X155379700Y-91748723D01*
X155379700Y-91748723D02*
X155474938Y-91558247D01*
X155474938Y-91558247D02*
X155570176Y-91177295D01*
X155570176Y-91177295D02*
X155570176Y-90891580D01*
X155570176Y-90891580D02*
X155474938Y-90510628D01*
X155474938Y-90510628D02*
X155379700Y-90320152D01*
X155379700Y-90320152D02*
X155189224Y-90129676D01*
X155189224Y-90129676D02*
X154903509Y-90034438D01*
X154903509Y-90034438D02*
X154713033Y-90034438D01*
X154713033Y-90034438D02*
X154427319Y-90129676D01*
X154427319Y-90129676D02*
X154332081Y-90224914D01*
X153474938Y-91272533D02*
X151951129Y-91272533D01*
X151093986Y-91939200D02*
X150808272Y-92034438D01*
X150808272Y-92034438D02*
X150332081Y-92034438D01*
X150332081Y-92034438D02*
X150141605Y-91939200D01*
X150141605Y-91939200D02*
X150046367Y-91843961D01*
X150046367Y-91843961D02*
X149951129Y-91653485D01*
X149951129Y-91653485D02*
X149951129Y-91463009D01*
X149951129Y-91463009D02*
X150046367Y-91272533D01*
X150046367Y-91272533D02*
X150141605Y-91177295D01*
X150141605Y-91177295D02*
X150332081Y-91082057D01*
X150332081Y-91082057D02*
X150713034Y-90986819D01*
X150713034Y-90986819D02*
X150903510Y-90891580D01*
X150903510Y-90891580D02*
X150998748Y-90796342D01*
X150998748Y-90796342D02*
X151093986Y-90605866D01*
X151093986Y-90605866D02*
X151093986Y-90415390D01*
X151093986Y-90415390D02*
X150998748Y-90224914D01*
X150998748Y-90224914D02*
X150903510Y-90129676D01*
X150903510Y-90129676D02*
X150713034Y-90034438D01*
X150713034Y-90034438D02*
X150236843Y-90034438D01*
X150236843Y-90034438D02*
X149951129Y-90129676D01*
X149379700Y-90701104D02*
X148617796Y-90701104D01*
X149093986Y-90034438D02*
X149093986Y-91748723D01*
X149093986Y-91748723D02*
X148998748Y-91939200D01*
X148998748Y-91939200D02*
X148808272Y-92034438D01*
X148808272Y-92034438D02*
X148617796Y-92034438D01*
X147093986Y-92034438D02*
X147093986Y-90986819D01*
X147093986Y-90986819D02*
X147189224Y-90796342D01*
X147189224Y-90796342D02*
X147379700Y-90701104D01*
X147379700Y-90701104D02*
X147760653Y-90701104D01*
X147760653Y-90701104D02*
X147951129Y-90796342D01*
X147093986Y-91939200D02*
X147284462Y-92034438D01*
X147284462Y-92034438D02*
X147760653Y-92034438D01*
X147760653Y-92034438D02*
X147951129Y-91939200D01*
X147951129Y-91939200D02*
X148046367Y-91748723D01*
X148046367Y-91748723D02*
X148046367Y-91558247D01*
X148046367Y-91558247D02*
X147951129Y-91367771D01*
X147951129Y-91367771D02*
X147760653Y-91272533D01*
X147760653Y-91272533D02*
X147284462Y-91272533D01*
X147284462Y-91272533D02*
X147093986Y-91177295D01*
X146427319Y-90701104D02*
X145665415Y-90701104D01*
X146141605Y-90034438D02*
X146141605Y-91748723D01*
X146141605Y-91748723D02*
X146046367Y-91939200D01*
X146046367Y-91939200D02*
X145855891Y-92034438D01*
X145855891Y-92034438D02*
X145665415Y-92034438D01*
X144141605Y-90701104D02*
X144141605Y-92034438D01*
X144998748Y-90701104D02*
X144998748Y-91748723D01*
X144998748Y-91748723D02*
X144903510Y-91939200D01*
X144903510Y-91939200D02*
X144713034Y-92034438D01*
X144713034Y-92034438D02*
X144427319Y-92034438D01*
X144427319Y-92034438D02*
X144236843Y-91939200D01*
X144236843Y-91939200D02*
X144141605Y-91843961D01*
X143284462Y-91939200D02*
X143093986Y-92034438D01*
X143093986Y-92034438D02*
X142713034Y-92034438D01*
X142713034Y-92034438D02*
X142522557Y-91939200D01*
X142522557Y-91939200D02*
X142427319Y-91748723D01*
X142427319Y-91748723D02*
X142427319Y-91653485D01*
X142427319Y-91653485D02*
X142522557Y-91463009D01*
X142522557Y-91463009D02*
X142713034Y-91367771D01*
X142713034Y-91367771D02*
X142998748Y-91367771D01*
X142998748Y-91367771D02*
X143189224Y-91272533D01*
X143189224Y-91272533D02*
X143284462Y-91082057D01*
X143284462Y-91082057D02*
X143284462Y-90986819D01*
X143284462Y-90986819D02*
X143189224Y-90796342D01*
X143189224Y-90796342D02*
X142998748Y-90701104D01*
X142998748Y-90701104D02*
X142713034Y-90701104D01*
X142713034Y-90701104D02*
X142522557Y-90796342D01*
D11*
X169328230Y-122760366D02*
X169057297Y-123573166D01*
X169057297Y-123573166D02*
X168786363Y-122760366D01*
X167741335Y-122760366D02*
X167663925Y-122760366D01*
X167663925Y-122760366D02*
X167586516Y-122799071D01*
X167586516Y-122799071D02*
X167547811Y-122837776D01*
X167547811Y-122837776D02*
X167509106Y-122915185D01*
X167509106Y-122915185D02*
X167470401Y-123070004D01*
X167470401Y-123070004D02*
X167470401Y-123263528D01*
X167470401Y-123263528D02*
X167509106Y-123418347D01*
X167509106Y-123418347D02*
X167547811Y-123495757D01*
X167547811Y-123495757D02*
X167586516Y-123534462D01*
X167586516Y-123534462D02*
X167663925Y-123573166D01*
X167663925Y-123573166D02*
X167741335Y-123573166D01*
X167741335Y-123573166D02*
X167818744Y-123534462D01*
X167818744Y-123534462D02*
X167857449Y-123495757D01*
X167857449Y-123495757D02*
X167896154Y-123418347D01*
X167896154Y-123418347D02*
X167934858Y-123263528D01*
X167934858Y-123263528D02*
X167934858Y-123070004D01*
X167934858Y-123070004D02*
X167896154Y-122915185D01*
X167896154Y-122915185D02*
X167857449Y-122837776D01*
X167857449Y-122837776D02*
X167818744Y-122799071D01*
X167818744Y-122799071D02*
X167741335Y-122760366D01*
X167122059Y-123495757D02*
X167083354Y-123534462D01*
X167083354Y-123534462D02*
X167122059Y-123573166D01*
X167122059Y-123573166D02*
X167160763Y-123534462D01*
X167160763Y-123534462D02*
X167122059Y-123495757D01*
X167122059Y-123495757D02*
X167122059Y-123573166D01*
X166309258Y-123573166D02*
X166773715Y-123573166D01*
X166541487Y-123573166D02*
X166541487Y-122760366D01*
X166541487Y-122760366D02*
X166618896Y-122876481D01*
X166618896Y-122876481D02*
X166696306Y-122953890D01*
X166696306Y-122953890D02*
X166773715Y-122992595D01*
X169057297Y-124068928D02*
X168979887Y-124068928D01*
X168979887Y-124068928D02*
X168902478Y-124107633D01*
X168902478Y-124107633D02*
X168863773Y-124146338D01*
X168863773Y-124146338D02*
X168825068Y-124223747D01*
X168825068Y-124223747D02*
X168786363Y-124378566D01*
X168786363Y-124378566D02*
X168786363Y-124572090D01*
X168786363Y-124572090D02*
X168825068Y-124726909D01*
X168825068Y-124726909D02*
X168863773Y-124804319D01*
X168863773Y-124804319D02*
X168902478Y-124843024D01*
X168902478Y-124843024D02*
X168979887Y-124881728D01*
X168979887Y-124881728D02*
X169057297Y-124881728D01*
X169057297Y-124881728D02*
X169134706Y-124843024D01*
X169134706Y-124843024D02*
X169173411Y-124804319D01*
X169173411Y-124804319D02*
X169212116Y-124726909D01*
X169212116Y-124726909D02*
X169250820Y-124572090D01*
X169250820Y-124572090D02*
X169250820Y-124378566D01*
X169250820Y-124378566D02*
X169212116Y-124223747D01*
X169212116Y-124223747D02*
X169173411Y-124146338D01*
X169173411Y-124146338D02*
X169134706Y-124107633D01*
X169134706Y-124107633D02*
X169057297Y-124068928D01*
X168515430Y-124068928D02*
X168012268Y-124068928D01*
X168012268Y-124068928D02*
X168283202Y-124378566D01*
X168283202Y-124378566D02*
X168167087Y-124378566D01*
X168167087Y-124378566D02*
X168089678Y-124417271D01*
X168089678Y-124417271D02*
X168050973Y-124455976D01*
X168050973Y-124455976D02*
X168012268Y-124533385D01*
X168012268Y-124533385D02*
X168012268Y-124726909D01*
X168012268Y-124726909D02*
X168050973Y-124804319D01*
X168050973Y-124804319D02*
X168089678Y-124843024D01*
X168089678Y-124843024D02*
X168167087Y-124881728D01*
X168167087Y-124881728D02*
X168399316Y-124881728D01*
X168399316Y-124881728D02*
X168476725Y-124843024D01*
X168476725Y-124843024D02*
X168515430Y-124804319D01*
X167083354Y-124030224D02*
X167780040Y-125075252D01*
X166851125Y-124146338D02*
X166812421Y-124107633D01*
X166812421Y-124107633D02*
X166735011Y-124068928D01*
X166735011Y-124068928D02*
X166541487Y-124068928D01*
X166541487Y-124068928D02*
X166464078Y-124107633D01*
X166464078Y-124107633D02*
X166425373Y-124146338D01*
X166425373Y-124146338D02*
X166386668Y-124223747D01*
X166386668Y-124223747D02*
X166386668Y-124301157D01*
X166386668Y-124301157D02*
X166425373Y-124417271D01*
X166425373Y-124417271D02*
X166889830Y-124881728D01*
X166889830Y-124881728D02*
X166386668Y-124881728D01*
X165883507Y-124068928D02*
X165806097Y-124068928D01*
X165806097Y-124068928D02*
X165728688Y-124107633D01*
X165728688Y-124107633D02*
X165689983Y-124146338D01*
X165689983Y-124146338D02*
X165651278Y-124223747D01*
X165651278Y-124223747D02*
X165612573Y-124378566D01*
X165612573Y-124378566D02*
X165612573Y-124572090D01*
X165612573Y-124572090D02*
X165651278Y-124726909D01*
X165651278Y-124726909D02*
X165689983Y-124804319D01*
X165689983Y-124804319D02*
X165728688Y-124843024D01*
X165728688Y-124843024D02*
X165806097Y-124881728D01*
X165806097Y-124881728D02*
X165883507Y-124881728D01*
X165883507Y-124881728D02*
X165960916Y-124843024D01*
X165960916Y-124843024D02*
X165999621Y-124804319D01*
X165999621Y-124804319D02*
X166038326Y-124726909D01*
X166038326Y-124726909D02*
X166077030Y-124572090D01*
X166077030Y-124572090D02*
X166077030Y-124378566D01*
X166077030Y-124378566D02*
X166038326Y-124223747D01*
X166038326Y-124223747D02*
X165999621Y-124146338D01*
X165999621Y-124146338D02*
X165960916Y-124107633D01*
X165960916Y-124107633D02*
X165883507Y-124068928D01*
X165302935Y-124146338D02*
X165264231Y-124107633D01*
X165264231Y-124107633D02*
X165186821Y-124068928D01*
X165186821Y-124068928D02*
X164993297Y-124068928D01*
X164993297Y-124068928D02*
X164915888Y-124107633D01*
X164915888Y-124107633D02*
X164877183Y-124146338D01*
X164877183Y-124146338D02*
X164838478Y-124223747D01*
X164838478Y-124223747D02*
X164838478Y-124301157D01*
X164838478Y-124301157D02*
X164877183Y-124417271D01*
X164877183Y-124417271D02*
X165341640Y-124881728D01*
X165341640Y-124881728D02*
X164838478Y-124881728D01*
X164141793Y-124068928D02*
X164296612Y-124068928D01*
X164296612Y-124068928D02*
X164374021Y-124107633D01*
X164374021Y-124107633D02*
X164412726Y-124146338D01*
X164412726Y-124146338D02*
X164490136Y-124262452D01*
X164490136Y-124262452D02*
X164528840Y-124417271D01*
X164528840Y-124417271D02*
X164528840Y-124726909D01*
X164528840Y-124726909D02*
X164490136Y-124804319D01*
X164490136Y-124804319D02*
X164451431Y-124843024D01*
X164451431Y-124843024D02*
X164374021Y-124881728D01*
X164374021Y-124881728D02*
X164219202Y-124881728D01*
X164219202Y-124881728D02*
X164141793Y-124843024D01*
X164141793Y-124843024D02*
X164103088Y-124804319D01*
X164103088Y-124804319D02*
X164064383Y-124726909D01*
X164064383Y-124726909D02*
X164064383Y-124533385D01*
X164064383Y-124533385D02*
X164103088Y-124455976D01*
X164103088Y-124455976D02*
X164141793Y-124417271D01*
X164141793Y-124417271D02*
X164219202Y-124378566D01*
X164219202Y-124378566D02*
X164374021Y-124378566D01*
X164374021Y-124378566D02*
X164451431Y-124417271D01*
X164451431Y-124417271D02*
X164490136Y-124455976D01*
X164490136Y-124455976D02*
X164528840Y-124533385D01*
X169212116Y-126190290D02*
X169212116Y-125377490D01*
X168747659Y-126190290D02*
X169096001Y-125725833D01*
X168747659Y-125377490D02*
X169212116Y-125841947D01*
X168050973Y-126190290D02*
X168050973Y-125764538D01*
X168050973Y-125764538D02*
X168089678Y-125687128D01*
X168089678Y-125687128D02*
X168167087Y-125648424D01*
X168167087Y-125648424D02*
X168321906Y-125648424D01*
X168321906Y-125648424D02*
X168399316Y-125687128D01*
X168050973Y-126151586D02*
X168128382Y-126190290D01*
X168128382Y-126190290D02*
X168321906Y-126190290D01*
X168321906Y-126190290D02*
X168399316Y-126151586D01*
X168399316Y-126151586D02*
X168438020Y-126074176D01*
X168438020Y-126074176D02*
X168438020Y-125996766D01*
X168438020Y-125996766D02*
X168399316Y-125919357D01*
X168399316Y-125919357D02*
X168321906Y-125880652D01*
X168321906Y-125880652D02*
X168128382Y-125880652D01*
X168128382Y-125880652D02*
X168050973Y-125841947D01*
X167663926Y-125648424D02*
X167663926Y-126461224D01*
X167663926Y-125687128D02*
X167586516Y-125648424D01*
X167586516Y-125648424D02*
X167431697Y-125648424D01*
X167431697Y-125648424D02*
X167354288Y-125687128D01*
X167354288Y-125687128D02*
X167315583Y-125725833D01*
X167315583Y-125725833D02*
X167276878Y-125803243D01*
X167276878Y-125803243D02*
X167276878Y-126035471D01*
X167276878Y-126035471D02*
X167315583Y-126112881D01*
X167315583Y-126112881D02*
X167354288Y-126151586D01*
X167354288Y-126151586D02*
X167431697Y-126190290D01*
X167431697Y-126190290D02*
X167586516Y-126190290D01*
X167586516Y-126190290D02*
X167663926Y-126151586D01*
X166928536Y-125648424D02*
X166928536Y-126461224D01*
X166928536Y-125687128D02*
X166851126Y-125648424D01*
X166851126Y-125648424D02*
X166696307Y-125648424D01*
X166696307Y-125648424D02*
X166618898Y-125687128D01*
X166618898Y-125687128D02*
X166580193Y-125725833D01*
X166580193Y-125725833D02*
X166541488Y-125803243D01*
X166541488Y-125803243D02*
X166541488Y-126035471D01*
X166541488Y-126035471D02*
X166580193Y-126112881D01*
X166580193Y-126112881D02*
X166618898Y-126151586D01*
X166618898Y-126151586D02*
X166696307Y-126190290D01*
X166696307Y-126190290D02*
X166851126Y-126190290D01*
X166851126Y-126190290D02*
X166928536Y-126151586D01*
X166193146Y-126190290D02*
X166193146Y-125648424D01*
X166193146Y-125377490D02*
X166231850Y-125416195D01*
X166231850Y-125416195D02*
X166193146Y-125454900D01*
X166193146Y-125454900D02*
X166154441Y-125416195D01*
X166154441Y-125416195D02*
X166193146Y-125377490D01*
X166193146Y-125377490D02*
X166193146Y-125454900D01*
X165651279Y-125377490D02*
X165573869Y-125377490D01*
X165573869Y-125377490D02*
X165496460Y-125416195D01*
X165496460Y-125416195D02*
X165457755Y-125454900D01*
X165457755Y-125454900D02*
X165419050Y-125532309D01*
X165419050Y-125532309D02*
X165380345Y-125687128D01*
X165380345Y-125687128D02*
X165380345Y-125880652D01*
X165380345Y-125880652D02*
X165419050Y-126035471D01*
X165419050Y-126035471D02*
X165457755Y-126112881D01*
X165457755Y-126112881D02*
X165496460Y-126151586D01*
X165496460Y-126151586D02*
X165573869Y-126190290D01*
X165573869Y-126190290D02*
X165651279Y-126190290D01*
X165651279Y-126190290D02*
X165728688Y-126151586D01*
X165728688Y-126151586D02*
X165767393Y-126112881D01*
X165767393Y-126112881D02*
X165806098Y-126035471D01*
X165806098Y-126035471D02*
X165844802Y-125880652D01*
X165844802Y-125880652D02*
X165844802Y-125687128D01*
X165844802Y-125687128D02*
X165806098Y-125532309D01*
X165806098Y-125532309D02*
X165767393Y-125454900D01*
X165767393Y-125454900D02*
X165728688Y-125416195D01*
X165728688Y-125416195D02*
X165651279Y-125377490D01*
X164915888Y-125725833D02*
X164993298Y-125687128D01*
X164993298Y-125687128D02*
X165032003Y-125648424D01*
X165032003Y-125648424D02*
X165070707Y-125571014D01*
X165070707Y-125571014D02*
X165070707Y-125532309D01*
X165070707Y-125532309D02*
X165032003Y-125454900D01*
X165032003Y-125454900D02*
X164993298Y-125416195D01*
X164993298Y-125416195D02*
X164915888Y-125377490D01*
X164915888Y-125377490D02*
X164761069Y-125377490D01*
X164761069Y-125377490D02*
X164683660Y-125416195D01*
X164683660Y-125416195D02*
X164644955Y-125454900D01*
X164644955Y-125454900D02*
X164606250Y-125532309D01*
X164606250Y-125532309D02*
X164606250Y-125571014D01*
X164606250Y-125571014D02*
X164644955Y-125648424D01*
X164644955Y-125648424D02*
X164683660Y-125687128D01*
X164683660Y-125687128D02*
X164761069Y-125725833D01*
X164761069Y-125725833D02*
X164915888Y-125725833D01*
X164915888Y-125725833D02*
X164993298Y-125764538D01*
X164993298Y-125764538D02*
X165032003Y-125803243D01*
X165032003Y-125803243D02*
X165070707Y-125880652D01*
X165070707Y-125880652D02*
X165070707Y-126035471D01*
X165070707Y-126035471D02*
X165032003Y-126112881D01*
X165032003Y-126112881D02*
X164993298Y-126151586D01*
X164993298Y-126151586D02*
X164915888Y-126190290D01*
X164915888Y-126190290D02*
X164761069Y-126190290D01*
X164761069Y-126190290D02*
X164683660Y-126151586D01*
X164683660Y-126151586D02*
X164644955Y-126112881D01*
X164644955Y-126112881D02*
X164606250Y-126035471D01*
X164606250Y-126035471D02*
X164606250Y-125880652D01*
X164606250Y-125880652D02*
X164644955Y-125803243D01*
X164644955Y-125803243D02*
X164683660Y-125764538D01*
X164683660Y-125764538D02*
X164761069Y-125725833D01*
X163909565Y-125648424D02*
X163909565Y-126190290D01*
X164103089Y-125338786D02*
X164296612Y-125919357D01*
X164296612Y-125919357D02*
X163793451Y-125919357D01*
X168863773Y-126956986D02*
X168863773Y-127614967D01*
X168863773Y-127614967D02*
X168902478Y-127692376D01*
X168902478Y-127692376D02*
X168941182Y-127731081D01*
X168941182Y-127731081D02*
X169018592Y-127769786D01*
X169018592Y-127769786D02*
X169134706Y-127769786D01*
X169134706Y-127769786D02*
X169212116Y-127731081D01*
X168863773Y-127460148D02*
X168941182Y-127498852D01*
X168941182Y-127498852D02*
X169096001Y-127498852D01*
X169096001Y-127498852D02*
X169173411Y-127460148D01*
X169173411Y-127460148D02*
X169212116Y-127421443D01*
X169212116Y-127421443D02*
X169250820Y-127344033D01*
X169250820Y-127344033D02*
X169250820Y-127111805D01*
X169250820Y-127111805D02*
X169212116Y-127034395D01*
X169212116Y-127034395D02*
X169173411Y-126995690D01*
X169173411Y-126995690D02*
X169096001Y-126956986D01*
X169096001Y-126956986D02*
X168941182Y-126956986D01*
X168941182Y-126956986D02*
X168863773Y-126995690D01*
X168476726Y-127498852D02*
X168476726Y-126956986D01*
X168476726Y-126686052D02*
X168515430Y-126724757D01*
X168515430Y-126724757D02*
X168476726Y-126763462D01*
X168476726Y-126763462D02*
X168438021Y-126724757D01*
X168438021Y-126724757D02*
X168476726Y-126686052D01*
X168476726Y-126686052D02*
X168476726Y-126763462D01*
X168205792Y-126956986D02*
X167896154Y-126956986D01*
X168089678Y-126686052D02*
X168089678Y-127382738D01*
X168089678Y-127382738D02*
X168050973Y-127460148D01*
X168050973Y-127460148D02*
X167973563Y-127498852D01*
X167973563Y-127498852D02*
X167896154Y-127498852D01*
X167625221Y-127498852D02*
X167625221Y-126686052D01*
X167276878Y-127498852D02*
X167276878Y-127073100D01*
X167276878Y-127073100D02*
X167315583Y-126995690D01*
X167315583Y-126995690D02*
X167392992Y-126956986D01*
X167392992Y-126956986D02*
X167509106Y-126956986D01*
X167509106Y-126956986D02*
X167586516Y-126995690D01*
X167586516Y-126995690D02*
X167625221Y-127034395D01*
X166541488Y-126956986D02*
X166541488Y-127498852D01*
X166889831Y-126956986D02*
X166889831Y-127382738D01*
X166889831Y-127382738D02*
X166851126Y-127460148D01*
X166851126Y-127460148D02*
X166773716Y-127498852D01*
X166773716Y-127498852D02*
X166657602Y-127498852D01*
X166657602Y-127498852D02*
X166580193Y-127460148D01*
X166580193Y-127460148D02*
X166541488Y-127421443D01*
X166154441Y-127498852D02*
X166154441Y-126686052D01*
X166154441Y-126995690D02*
X166077031Y-126956986D01*
X166077031Y-126956986D02*
X165922212Y-126956986D01*
X165922212Y-126956986D02*
X165844803Y-126995690D01*
X165844803Y-126995690D02*
X165806098Y-127034395D01*
X165806098Y-127034395D02*
X165767393Y-127111805D01*
X165767393Y-127111805D02*
X165767393Y-127344033D01*
X165767393Y-127344033D02*
X165806098Y-127421443D01*
X165806098Y-127421443D02*
X165844803Y-127460148D01*
X165844803Y-127460148D02*
X165922212Y-127498852D01*
X165922212Y-127498852D02*
X166077031Y-127498852D01*
X166077031Y-127498852D02*
X166154441Y-127460148D01*
X165419051Y-127421443D02*
X165380346Y-127460148D01*
X165380346Y-127460148D02*
X165419051Y-127498852D01*
X165419051Y-127498852D02*
X165457755Y-127460148D01*
X165457755Y-127460148D02*
X165419051Y-127421443D01*
X165419051Y-127421443D02*
X165419051Y-127498852D01*
X164683660Y-127460148D02*
X164761069Y-127498852D01*
X164761069Y-127498852D02*
X164915888Y-127498852D01*
X164915888Y-127498852D02*
X164993298Y-127460148D01*
X164993298Y-127460148D02*
X165032003Y-127421443D01*
X165032003Y-127421443D02*
X165070707Y-127344033D01*
X165070707Y-127344033D02*
X165070707Y-127111805D01*
X165070707Y-127111805D02*
X165032003Y-127034395D01*
X165032003Y-127034395D02*
X164993298Y-126995690D01*
X164993298Y-126995690D02*
X164915888Y-126956986D01*
X164915888Y-126956986D02*
X164761069Y-126956986D01*
X164761069Y-126956986D02*
X164683660Y-126995690D01*
X164219202Y-127498852D02*
X164296612Y-127460148D01*
X164296612Y-127460148D02*
X164335317Y-127421443D01*
X164335317Y-127421443D02*
X164374021Y-127344033D01*
X164374021Y-127344033D02*
X164374021Y-127111805D01*
X164374021Y-127111805D02*
X164335317Y-127034395D01*
X164335317Y-127034395D02*
X164296612Y-126995690D01*
X164296612Y-126995690D02*
X164219202Y-126956986D01*
X164219202Y-126956986D02*
X164103088Y-126956986D01*
X164103088Y-126956986D02*
X164025679Y-126995690D01*
X164025679Y-126995690D02*
X163986974Y-127034395D01*
X163986974Y-127034395D02*
X163948269Y-127111805D01*
X163948269Y-127111805D02*
X163948269Y-127344033D01*
X163948269Y-127344033D02*
X163986974Y-127421443D01*
X163986974Y-127421443D02*
X164025679Y-127460148D01*
X164025679Y-127460148D02*
X164103088Y-127498852D01*
X164103088Y-127498852D02*
X164219202Y-127498852D01*
X163599927Y-127498852D02*
X163599927Y-126956986D01*
X163599927Y-127034395D02*
X163561222Y-126995690D01*
X163561222Y-126995690D02*
X163483812Y-126956986D01*
X163483812Y-126956986D02*
X163367698Y-126956986D01*
X163367698Y-126956986D02*
X163290289Y-126995690D01*
X163290289Y-126995690D02*
X163251584Y-127073100D01*
X163251584Y-127073100D02*
X163251584Y-127498852D01*
X163251584Y-127073100D02*
X163212879Y-126995690D01*
X163212879Y-126995690D02*
X163135470Y-126956986D01*
X163135470Y-126956986D02*
X163019355Y-126956986D01*
X163019355Y-126956986D02*
X162941946Y-126995690D01*
X162941946Y-126995690D02*
X162903241Y-127073100D01*
X162903241Y-127073100D02*
X162903241Y-127498852D01*
X161935622Y-126647348D02*
X162632308Y-127692376D01*
X161664689Y-127498852D02*
X161664689Y-126686052D01*
X161200232Y-127498852D02*
X161548574Y-127034395D01*
X161200232Y-126686052D02*
X161664689Y-127150509D01*
X160503546Y-127498852D02*
X160503546Y-127073100D01*
X160503546Y-127073100D02*
X160542251Y-126995690D01*
X160542251Y-126995690D02*
X160619660Y-126956986D01*
X160619660Y-126956986D02*
X160774479Y-126956986D01*
X160774479Y-126956986D02*
X160851889Y-126995690D01*
X160503546Y-127460148D02*
X160580955Y-127498852D01*
X160580955Y-127498852D02*
X160774479Y-127498852D01*
X160774479Y-127498852D02*
X160851889Y-127460148D01*
X160851889Y-127460148D02*
X160890593Y-127382738D01*
X160890593Y-127382738D02*
X160890593Y-127305328D01*
X160890593Y-127305328D02*
X160851889Y-127227919D01*
X160851889Y-127227919D02*
X160774479Y-127189214D01*
X160774479Y-127189214D02*
X160580955Y-127189214D01*
X160580955Y-127189214D02*
X160503546Y-127150509D01*
X160116499Y-126956986D02*
X160116499Y-127769786D01*
X160116499Y-126995690D02*
X160039089Y-126956986D01*
X160039089Y-126956986D02*
X159884270Y-126956986D01*
X159884270Y-126956986D02*
X159806861Y-126995690D01*
X159806861Y-126995690D02*
X159768156Y-127034395D01*
X159768156Y-127034395D02*
X159729451Y-127111805D01*
X159729451Y-127111805D02*
X159729451Y-127344033D01*
X159729451Y-127344033D02*
X159768156Y-127421443D01*
X159768156Y-127421443D02*
X159806861Y-127460148D01*
X159806861Y-127460148D02*
X159884270Y-127498852D01*
X159884270Y-127498852D02*
X160039089Y-127498852D01*
X160039089Y-127498852D02*
X160116499Y-127460148D01*
X159381109Y-126956986D02*
X159381109Y-127769786D01*
X159381109Y-126995690D02*
X159303699Y-126956986D01*
X159303699Y-126956986D02*
X159148880Y-126956986D01*
X159148880Y-126956986D02*
X159071471Y-126995690D01*
X159071471Y-126995690D02*
X159032766Y-127034395D01*
X159032766Y-127034395D02*
X158994061Y-127111805D01*
X158994061Y-127111805D02*
X158994061Y-127344033D01*
X158994061Y-127344033D02*
X159032766Y-127421443D01*
X159032766Y-127421443D02*
X159071471Y-127460148D01*
X159071471Y-127460148D02*
X159148880Y-127498852D01*
X159148880Y-127498852D02*
X159303699Y-127498852D01*
X159303699Y-127498852D02*
X159381109Y-127460148D01*
X158645719Y-127498852D02*
X158645719Y-126956986D01*
X158645719Y-126686052D02*
X158684423Y-126724757D01*
X158684423Y-126724757D02*
X158645719Y-126763462D01*
X158645719Y-126763462D02*
X158607014Y-126724757D01*
X158607014Y-126724757D02*
X158645719Y-126686052D01*
X158645719Y-126686052D02*
X158645719Y-126763462D01*
X158103852Y-126686052D02*
X158026442Y-126686052D01*
X158026442Y-126686052D02*
X157949033Y-126724757D01*
X157949033Y-126724757D02*
X157910328Y-126763462D01*
X157910328Y-126763462D02*
X157871623Y-126840871D01*
X157871623Y-126840871D02*
X157832918Y-126995690D01*
X157832918Y-126995690D02*
X157832918Y-127189214D01*
X157832918Y-127189214D02*
X157871623Y-127344033D01*
X157871623Y-127344033D02*
X157910328Y-127421443D01*
X157910328Y-127421443D02*
X157949033Y-127460148D01*
X157949033Y-127460148D02*
X158026442Y-127498852D01*
X158026442Y-127498852D02*
X158103852Y-127498852D01*
X158103852Y-127498852D02*
X158181261Y-127460148D01*
X158181261Y-127460148D02*
X158219966Y-127421443D01*
X158219966Y-127421443D02*
X158258671Y-127344033D01*
X158258671Y-127344033D02*
X158297375Y-127189214D01*
X158297375Y-127189214D02*
X158297375Y-126995690D01*
X158297375Y-126995690D02*
X158258671Y-126840871D01*
X158258671Y-126840871D02*
X158219966Y-126763462D01*
X158219966Y-126763462D02*
X158181261Y-126724757D01*
X158181261Y-126724757D02*
X158103852Y-126686052D01*
X157368461Y-127034395D02*
X157445871Y-126995690D01*
X157445871Y-126995690D02*
X157484576Y-126956986D01*
X157484576Y-126956986D02*
X157523280Y-126879576D01*
X157523280Y-126879576D02*
X157523280Y-126840871D01*
X157523280Y-126840871D02*
X157484576Y-126763462D01*
X157484576Y-126763462D02*
X157445871Y-126724757D01*
X157445871Y-126724757D02*
X157368461Y-126686052D01*
X157368461Y-126686052D02*
X157213642Y-126686052D01*
X157213642Y-126686052D02*
X157136233Y-126724757D01*
X157136233Y-126724757D02*
X157097528Y-126763462D01*
X157097528Y-126763462D02*
X157058823Y-126840871D01*
X157058823Y-126840871D02*
X157058823Y-126879576D01*
X157058823Y-126879576D02*
X157097528Y-126956986D01*
X157097528Y-126956986D02*
X157136233Y-126995690D01*
X157136233Y-126995690D02*
X157213642Y-127034395D01*
X157213642Y-127034395D02*
X157368461Y-127034395D01*
X157368461Y-127034395D02*
X157445871Y-127073100D01*
X157445871Y-127073100D02*
X157484576Y-127111805D01*
X157484576Y-127111805D02*
X157523280Y-127189214D01*
X157523280Y-127189214D02*
X157523280Y-127344033D01*
X157523280Y-127344033D02*
X157484576Y-127421443D01*
X157484576Y-127421443D02*
X157445871Y-127460148D01*
X157445871Y-127460148D02*
X157368461Y-127498852D01*
X157368461Y-127498852D02*
X157213642Y-127498852D01*
X157213642Y-127498852D02*
X157136233Y-127460148D01*
X157136233Y-127460148D02*
X157097528Y-127421443D01*
X157097528Y-127421443D02*
X157058823Y-127344033D01*
X157058823Y-127344033D02*
X157058823Y-127189214D01*
X157058823Y-127189214D02*
X157097528Y-127111805D01*
X157097528Y-127111805D02*
X157136233Y-127073100D01*
X157136233Y-127073100D02*
X157213642Y-127034395D01*
X156362138Y-126956986D02*
X156362138Y-127498852D01*
X156555662Y-126647348D02*
X156749185Y-127227919D01*
X156749185Y-127227919D02*
X156246024Y-127227919D01*
X155579803Y-118680834D02*
X155579803Y-118293786D01*
X155579803Y-118293786D02*
X155966851Y-118255082D01*
X155966851Y-118255082D02*
X155928146Y-118293786D01*
X155928146Y-118293786D02*
X155889441Y-118371196D01*
X155889441Y-118371196D02*
X155889441Y-118564720D01*
X155889441Y-118564720D02*
X155928146Y-118642129D01*
X155928146Y-118642129D02*
X155966851Y-118680834D01*
X155966851Y-118680834D02*
X156044260Y-118719539D01*
X156044260Y-118719539D02*
X156237784Y-118719539D01*
X156237784Y-118719539D02*
X156315194Y-118680834D01*
X156315194Y-118680834D02*
X156353899Y-118642129D01*
X156353899Y-118642129D02*
X156392603Y-118564720D01*
X156392603Y-118564720D02*
X156392603Y-118371196D01*
X156392603Y-118371196D02*
X156353899Y-118293786D01*
X156353899Y-118293786D02*
X156315194Y-118255082D01*
X155579803Y-118951767D02*
X156392603Y-119222700D01*
X156392603Y-119222700D02*
X155579803Y-119493634D01*
D10*
X143954819Y-114666666D02*
X144669104Y-114666666D01*
X144669104Y-114666666D02*
X144811961Y-114619047D01*
X144811961Y-114619047D02*
X144907200Y-114523809D01*
X144907200Y-114523809D02*
X144954819Y-114380952D01*
X144954819Y-114380952D02*
X144954819Y-114285714D01*
X144050057Y-115095238D02*
X144002438Y-115142857D01*
X144002438Y-115142857D02*
X143954819Y-115238095D01*
X143954819Y-115238095D02*
X143954819Y-115476190D01*
X143954819Y-115476190D02*
X144002438Y-115571428D01*
X144002438Y-115571428D02*
X144050057Y-115619047D01*
X144050057Y-115619047D02*
X144145295Y-115666666D01*
X144145295Y-115666666D02*
X144240533Y-115666666D01*
X144240533Y-115666666D02*
X144383390Y-115619047D01*
X144383390Y-115619047D02*
X144954819Y-115047619D01*
X144954819Y-115047619D02*
X144954819Y-115666666D01*
D13*
%TO.C,J2*%
X145650000Y-117750000D02*
X145650000Y-116500000D01*
X145950000Y-115200000D02*
X146700000Y-115200000D01*
X146700000Y-112250000D02*
X152250000Y-112250000D01*
X146700000Y-115200000D02*
X146700000Y-112250000D01*
X146900000Y-117750000D02*
X145650000Y-117750000D01*
X157800000Y-112250000D02*
X152250000Y-112250000D01*
X157800000Y-115200000D02*
X157800000Y-112250000D01*
X158550000Y-115200000D02*
X157800000Y-115200000D01*
X145940000Y-117460000D02*
X158560000Y-117460000D01*
X158560000Y-111490000D01*
X145940000Y-111490000D01*
X145940000Y-117460000D01*
X145950000Y-117450000D02*
X147750000Y-117450000D01*
X147750000Y-116700000D01*
X145950000Y-116700000D01*
X145950000Y-117450000D01*
X149250000Y-117450000D02*
X155250000Y-117450000D01*
X155250000Y-116700000D01*
X149250000Y-116700000D01*
X149250000Y-117450000D01*
X156750000Y-117450000D02*
X158550000Y-117450000D01*
X158550000Y-116700000D01*
X156750000Y-116700000D01*
X156750000Y-117450000D01*
%TD*%
M02*
