M48
; DRILL file {KiCad 9.0.6} date 2026-02-24T16:40:41+0100
; FORMAT={-:-/ absolute / metric / decimal}
; #@! TF.CreationDate,2026-02-24T16:40:41+01:00
; #@! TF.GenerationSoftware,Kicad,Pcbnew,9.0.6
; #@! TF.FileFunction,Plated,1,4,PTH
FMAT,2
METRIC
; #@! TA.AperFunction,Plated,PTH,ViaDrill
T1C0.300
; #@! TA.AperFunction,Plated,PTH,ViaDrill
T2C0.400
; #@! TA.AperFunction,Plated,PTH,ComponentDrill
T3C0.950
; #@! TA.AperFunction,Plated,PTH,ComponentDrill
T4C1.000
%
G90
G05
T1
X117.0Y-109.0
X119.0Y-92.0
X122.0Y-97.0
X122.0Y-112.0
X123.0Y-125.0
X124.0Y-101.0
X125.0Y-114.0
X128.0Y-126.0
X129.0Y-79.0
X129.0Y-88.0
X130.0Y-84.0
X133.0Y-126.0
X137.0Y-136.0
X140.0Y-79.0
X142.0Y-134.0
X143.0Y-76.0
X145.0Y-72.0
X146.0Y-131.0
X150.0Y-96.0
X154.0Y-78.0
X154.0Y-96.0
X154.0Y-138.0
X157.0Y-135.0
X158.0Y-77.0
X160.0Y-130.0
X162.0Y-74.0
X167.0Y-84.0
X170.0Y-132.0
X171.0Y-85.0
X171.0Y-122.0
X171.0Y-127.0
X175.0Y-96.0
X176.0Y-84.0
X177.0Y-110.0
X178.0Y-98.0
X179.0Y-113.0
X181.0Y-118.0
X183.0Y-100.0
T2
X153.0Y-86.0
X155.0Y-88.0
X156.0Y-75.0
X157.0Y-74.0
X158.0Y-73.0
X164.0Y-94.0
X165.0Y-92.0
T3
X148.5Y-115.0
X151.0Y-115.0
X153.5Y-115.0
X156.0Y-115.0
T4
X163.0Y-99.0
X163.0Y-101.54
X163.0Y-104.08
X163.0Y-106.62
M30
